<svg id="Layer_1" data-name="Layer 1" xmlns="http://www.w3.org/2000/svg" xmlns:xlink="http://www.w3.org/1999/xlink" viewBox="0 0 745 572"><defs><clipPath id="clip-path"><path d="M68-269.37v132.61A31.25,31.25,0,0,0,99.26-105.5H547.65c27.36,0,41.52-32.65,22.82-52.62L382.69-358.7A31.26,31.26,0,0,0,352-367.59l-260.61,68A31.25,31.25,0,0,0,68-269.37Z" style="fill:none"/></clipPath><clipPath id="clip-path-2"><path d="M744.45,301V23.52A22.31,22.31,0,0,0,722.14,1.21H606.67a22.31,22.31,0,0,0-17.88,9l-174,233a22.31,22.31,0,0,0,14.49,35.4l289.45,44.49A22.31,22.31,0,0,0,744.45,301Z" style="fill:none"/></clipPath><clipPath id="clip-path-3"><path d="M506.33,1.67H24A22.31,22.31,0,0,0,1.64,24V201a22.3,22.3,0,0,0,18.92,22.05L334.7,271.36a22.28,22.28,0,0,0,21.26-8.7L524.21,37.33A22.31,22.31,0,0,0,506.33,1.67Z" style="fill:none"/></clipPath><clipPath id="clip-path-4"><path d="M724.62,365.71l-319.7-49.13a22.28,22.28,0,0,0-21.26,8.7L230.39,530.55a22.31,22.31,0,0,0,17.88,35.66h473a22.31,22.31,0,0,0,22.31-22.31V387.76A22.31,22.31,0,0,0,724.62,365.71Z" style="fill:none"/></clipPath><clipPath id="clip-path-5"><path d="M1.45,288.23V544.81a22.31,22.31,0,0,0,22.31,22.31h124.9a22.33,22.33,0,0,0,17.88-9l159-212.95a22.31,22.31,0,0,0-14.49-35.39L27.15,266.18A22.32,22.32,0,0,0,1.45,288.23Z" style="fill:none"/></clipPath></defs><title>resources</title><g style="clip-path:url(#clip-path)"><rect x="330.92" y="-67.52" width="19.51" height="142.43" style="fill:#aa5d52"/><path d="M372.4,74.22H326.29V94.47a3.06,3.06,0,0,0,3.06,3h43.48V74.23Z" style="fill:#d31818"/><path d="M392.39,91.85c-1.8-6.82-6.67-17.39-19.56-17.62v23.3H388A4.54,4.54,0,0,0,392.39,91.85Z" style="fill:#eaeaea"/><rect x="323.9" y="92.49" width="71.62" height="6.03" rx="3.02" style="fill:#bababa"/><path d="M350.42,74.21H366a0,0,0,0,1,0,0v7a2.56,2.56,0,0,1-2.56,2.56H353a2.56,2.56,0,0,1-2.56-2.56v-7A0,0,0,0,1,350.42,74.21Z" style="fill:#d8d8d8"/><rect x="298.35" y="-67.53" width="18.39" height="142.43" style="fill:#aa5d52"/><rect x="326.99" y="-67.52" width="27.38" height="121.78" style="fill:#115fea"/><rect x="293.86" y="-67.53" width="27.38" height="121.78" style="fill:#115fea"/><path d="M340,74.21H296.72a3.28,3.28,0,0,0-3.27,3.27v17a3.06,3.06,0,0,0,3.06,3.06H340V74.22Z" style="fill:#f42f2f"/><path d="M359.56,91.85C357.76,85,352.89,74.46,340,74.22v23.3h15.15A4.55,4.55,0,0,0,359.56,91.85Z" style="fill:#eaeaea"/><rect x="291.07" y="92.48" width="71.62" height="6.03" rx="3.02" style="fill:#d8d8d8"/><path d="M316.72,74.21h15.54a0,0,0,0,1,0,0v7a2.56,2.56,0,0,1-2.56,2.56H319.29a2.56,2.56,0,0,1-2.56-2.56v-7A0,0,0,0,1,316.72,74.21Z" style="fill:#f2f2f2"/><rect x="330.92" y="-67.52" width="19.51" height="142.43" style="fill:#aa5d52"/><path d="M372.4,74.22H326.29V94.47a3.06,3.06,0,0,0,3.06,3h43.48V74.23Z" style="fill:#d31818"/><path d="M392.39,91.85c-1.8-6.82-6.67-17.39-19.56-17.62v23.3H388A4.54,4.54,0,0,0,392.39,91.85Z" style="fill:#eaeaea"/><rect x="323.9" y="92.49" width="71.62" height="6.03" rx="3.02" style="fill:#bababa"/><path d="M350.42,74.21H366a0,0,0,0,1,0,0v7a2.56,2.56,0,0,1-2.56,2.56H353a2.56,2.56,0,0,1-2.56-2.56v-7A0,0,0,0,1,350.42,74.21Z" style="fill:#d8d8d8"/><rect x="298.35" y="-67.53" width="18.39" height="142.43" style="fill:#aa5d52"/><rect x="326.99" y="-67.52" width="27.38" height="121.78" style="fill:#64bdff"/><rect x="293.86" y="-67.53" width="27.38" height="121.78" style="fill:#64bdff"/><path d="M340,74.21H296.72a3.28,3.28,0,0,0-3.27,3.27v17a3.06,3.06,0,0,0,3.06,3.06H340V74.22Z" style="fill:#f42f2f"/><path d="M359.56,91.85C357.76,85,352.89,74.46,340,74.22v23.3h15.15A4.55,4.55,0,0,0,359.56,91.85Z" style="fill:#eaeaea"/><rect x="291.07" y="92.48" width="71.62" height="6.03" rx="3.02" style="fill:#d8d8d8"/><path d="M316.72,74.21h15.54a0,0,0,0,1,0,0v7a2.56,2.56,0,0,1-2.56,2.56H319.29a2.56,2.56,0,0,1-2.56-2.56v-7A0,0,0,0,1,316.72,74.21Z" style="fill:#f2f2f2"/></g><path d="M744.45,301V23.52A22.31,22.31,0,0,0,722.14,1.21H606.67a22.31,22.31,0,0,0-17.88,9l-174,233a22.31,22.31,0,0,0,14.49,35.4l289.45,44.49A22.31,22.31,0,0,0,744.45,301Z" style="fill:#ff7364"/><path d="M506.7,1.67H24.32A22.31,22.31,0,0,0,2,24V201a22.3,22.3,0,0,0,18.92,22.05l314.14,48.28a22.28,22.28,0,0,0,21.26-8.7L524.58,37.33A22.31,22.31,0,0,0,506.7,1.67Z" style="fill:#ff7364"/><path d="M724.62,365.71l-319.7-49.13a22.28,22.28,0,0,0-21.26,8.7L230.39,530.55a22.31,22.31,0,0,0,17.88,35.66h473a22.31,22.31,0,0,0,22.31-22.31V387.76A22.31,22.31,0,0,0,724.62,365.71Z" style="fill:#ff7364"/><path d="M1.45,287.32V543.9a22.31,22.31,0,0,0,22.31,22.31h124.9a22.34,22.34,0,0,0,17.88-9l159-212.94a22.31,22.31,0,0,0-14.49-35.4L27.15,265.27A22.31,22.31,0,0,0,1.45,287.32Z" style="fill:#ff7364"/><g style="clip-path:url(#clip-path-2)"><path d="M688.94,98.21h0a14.19,14.19,0,0,1,14.19,14.19v62.87a0,0,0,0,1,0,0H674.75a0,0,0,0,1,0,0V112.4A14.19,14.19,0,0,1,688.94,98.21Z" transform="translate(273.72 -429.76) rotate(42.53)" style="fill:#ffc1b0"/><path d="M679.1,119.36h0a21.11,21.11,0,0,1,21.11,21.11v55.94a0,0,0,0,1,0,0H671.85a0,0,0,0,1,0,0v-69.8A7.26,7.26,0,0,1,679.1,119.36Z" transform="translate(1227.47 -292.01) rotate(127.32)" style="fill:#ffc1b0"/><path d="M664.48,177l28.4-.36,8,14.64a12.8,12.8,0,0,1,1.57,6l.46,36.34a5.92,5.92,0,0,1-5.85,6h0a17.26,17.26,0,0,1-17.48-17l-.32-24.59Z" style="fill:#ffc1b0"/><rect x="571.56" y="49.71" width="125.7" height="203.12" rx="14.18" transform="translate(24.42 -79.55) rotate(7.32)" style="fill:#383838"/><rect x="541.23" y="96.8" width="186.35" height="108.92" rx="5.79" transform="translate(865.22 -458.71) rotate(97.32)" style="fill:#f3f5f9"/><rect x="565.31" y="225.25" width="116.94" height="21.16" transform="translate(35.11 -77.51) rotate(7.32)" style="fill:#383838"/><path d="M571.35,192.29s28.74,5.06,35.39,62S563,276.56,563,276.56l-11.47-27.21Z" style="fill:#ffc1b0"/><path d="M696.54,95l3-23.47a5.79,5.79,0,0,0-5-6.48L598,52.65a5.81,5.81,0,0,0-6.48,5l-3,23.47Z" style="fill:#d33d24"/><path d="M568.2,245.13,573,207.91l5.7-11.18c-.11-.09-.21-.19-.31-.29l15-27.87a21.67,21.67,0,0,0-8.79-29.36l-2.77-1.49a3.05,3.05,0,0,0-4.15,1.24l-32.35,60a32.39,32.39,0,0,0-3.75,18.41s4.66,49.92,4.66,49.94c.27,4.82-9.08,15.24-11.46,19.63-3.46,6.39-6.95,13.42-7.61,20.78-1.43,15.92,7.57,33.33,16.5,45.93a20.48,20.48,0,0,0,6,6.16c4.7,2.77,10.88,1.78,15.55-1,19.74-11.94,24.93-39.61,35.13-58.51.26-.5.55-1,.85-1.46l.27-.43a24.74,24.74,0,0,1,12.23-9.88,76.35,76.35,0,0,0,26.16-17.23,81.3,81.3,0,0,0,12.22-15.34Z" style="fill:#ffc1b0"/></g><g style="clip-path:url(#clip-path-3)"><path d="M76.29,163.63H1.64A16.76,16.76,0,0,1-15,145.16L-6.11,57.9a16.76,16.76,0,0,1,16.67-15H68A16.75,16.75,0,0,1,84.71,58L93,145.29A16.75,16.75,0,0,1,76.29,163.63Z" style="fill:#d13828"/><path d="M-15,261.37l10-67.26a5.42,5.42,0,0,1,5.39-4.86h78a5.42,5.42,0,0,1,5.39,4.9L93,261.5" style="fill:none;stroke:#383838;stroke-linecap:round;stroke-miterlimit:10;stroke-width:13.7253688848827px"/><rect x="-26" y="159.97" width="129.93" height="24.71" rx="7.48" style="fill:#992317"/><path d="M221.78,163.63H147.13a16.77,16.77,0,0,1-16.68-18.47l8.93-87.26a16.76,16.76,0,0,1,16.67-15h57.46A16.76,16.76,0,0,1,230.2,58l8.26,87.26A16.76,16.76,0,0,1,221.78,163.63Z" style="fill:#d13828"/><path d="M130.45,261.37l10-67.26a5.41,5.41,0,0,1,5.38-4.86h78a5.42,5.42,0,0,1,5.39,4.9l9.23,67.35" style="fill:none;stroke:#383838;stroke-linecap:round;stroke-miterlimit:10;stroke-width:13.7253688848827px"/><rect x="119.49" y="159.97" width="129.93" height="24.71" rx="7.48" style="fill:#992317"/><path d="M368.18,163.63H293.53a16.76,16.76,0,0,1-16.67-18.47l8.92-87.26a16.76,16.76,0,0,1,16.68-15h57.46A16.75,16.75,0,0,1,376.6,58l8.27,87.26A16.76,16.76,0,0,1,368.18,163.63Z" style="fill:#d13828"/><path d="M276.86,261.37l10-67.26a5.4,5.4,0,0,1,5.38-4.86h78a5.41,5.41,0,0,1,5.39,4.9l9.24,67.35" style="fill:none;stroke:#383838;stroke-linecap:round;stroke-miterlimit:10;stroke-width:13.7253688848827px"/><rect x="265.89" y="159.97" width="129.93" height="24.71" rx="7.48" style="fill:#992317"/></g><g style="clip-path:url(#clip-path-4)"><rect x="522.84" y="517.36" width="9.56" height="43.85" style="fill:#ededed"/><path d="M510.83,551h9.56a0,0,0,0,1,0,0v42.11a1.74,1.74,0,0,1-1.74,1.74h-6.07a1.74,1.74,0,0,1-1.74-1.74V551a0,0,0,0,1,0,0Z" transform="translate(556.13 -196.79) rotate(45)" style="fill:#ededed"/><path d="M536.84,551.17h6.07a1.74,1.74,0,0,1,1.74,1.74V595a0,0,0,0,1,0,0h-9.56a0,0,0,0,1,0,0V552.91A1.74,1.74,0,0,1,536.84,551.17Z" transform="translate(1326.85 596.59) rotate(135)" style="fill:#ededed"/><circle cx="527.62" cy="518.53" r="11.39" style="fill:#ededed"/><rect x="483.24" y="488.32" width="88.76" height="30.2" rx="6.83" style="fill:#303030"/><rect x="603.81" y="496.85" width="9.56" height="64.8" style="fill:#ededed"/><path d="M591.8,551h9.56a0,0,0,0,1,0,0v42.11a1.74,1.74,0,0,1-1.74,1.74h-6.07a1.74,1.74,0,0,1-1.74-1.74V551A0,0,0,0,1,591.8,551Z" transform="translate(579.84 -254.04) rotate(45)" style="fill:#ededed"/><path d="M617.8,551.17h6.07a1.74,1.74,0,0,1,1.74,1.74V595a0,0,0,0,1,0,0h-9.56a0,0,0,0,1,0,0V552.91A1.74,1.74,0,0,1,617.8,551.17Z" transform="translate(1465.07 539.33) rotate(135)" style="fill:#ededed"/><circle cx="608.58" cy="498.02" r="11.39" style="fill:#b7b7b7"/><rect x="554.2" y="448.76" width="102.29" height="50.14" transform="translate(-53.41 77.6) rotate(-7.03)" style="fill:#606060"/><rect x="545.21" y="443.55" width="114.1" height="10.34" rx="5.17" transform="translate(-50.36 77.03) rotate(-7.03)" style="fill:#ededed"/><rect x="561.77" y="471.83" width="29.17" height="10.34" rx="5.17" transform="translate(173.43 1107.37) rotate(-97.03)" style="fill:#303030"/><rect x="590.72" y="468.26" width="29.17" height="10.34" rx="5.17" transform="translate(209.46 1132.1) rotate(-97.03)" style="fill:#303030"/><rect x="621.71" y="464.9" width="29.17" height="10.34" rx="5.17" transform="translate(247.59 1159.08) rotate(-97.03)" style="fill:#303030"/><rect x="551.3" y="492.98" width="114.1" height="10.34" rx="5.17" transform="translate(-56.36 78.15) rotate(-7.03)" style="fill:#ededed"/><rect x="545.44" y="447.41" width="50.94" height="10.34" rx="5.17" transform="translate(-51.07 73.23) rotate(-7.03)" style="fill:#fff"/><circle cx="451.56" cy="452.86" r="11.39" style="fill:#ededed"/><line x1="452.06" y1="395.4" x2="452.06" y2="559.52" style="fill:none;stroke:#ededed;stroke-linecap:round;stroke-miterlimit:10;stroke-width:10.7935840503742px"/><path d="M435.15,551h9.56a0,0,0,0,1,0,0v42.11a1.74,1.74,0,0,1-1.74,1.74H436.9a1.74,1.74,0,0,1-1.74-1.74V551A0,0,0,0,1,435.15,551Z" transform="translate(533.96 -143.27) rotate(45)" style="fill:#ededed"/><path d="M461.15,551.17h6.07a1.74,1.74,0,0,1,1.74,1.74V595a0,0,0,0,1,0,0h-9.56a0,0,0,0,1,0,0V552.91a1.74,1.74,0,0,1,1.74-1.74Z" transform="translate(1197.66 650.1) rotate(135)" style="fill:#ededed"/><path d="M447.2,416.17l-51.27,11.76a3,3,0,0,0,.67,5.92H507.52a3,3,0,0,0,.67-5.92l-51.27-11.76A21.84,21.84,0,0,0,447.2,416.17Z" style="fill:#fcc846"/><path d="M456.92,451.64l51.27-11.75a3,3,0,0,0-.67-5.92H396.6a3,3,0,0,0-.67,5.92l51.27,11.75A21.56,21.56,0,0,0,456.92,451.64Z" style="fill:#f9974e"/><circle cx="685.61" cy="387.1" r="11.39" style="fill:#ededed"/><line x1="685.61" y1="354.59" x2="685.61" y2="559.52" style="fill:none;stroke:#ededed;stroke-linecap:round;stroke-miterlimit:10;stroke-width:10.7935840503742px"/><path d="M668.7,551h9.56a0,0,0,0,1,0,0v42.11a1.74,1.74,0,0,1-1.74,1.74h-6.07a1.74,1.74,0,0,1-1.74-1.74V551a0,0,0,0,1,0,0Z" transform="translate(602.37 -308.42) rotate(45)" style="fill:#ededed"/><path d="M694.71,551.17h6.07a1.74,1.74,0,0,1,1.74,1.74V595a0,0,0,0,1,0,0H693a0,0,0,0,1,0,0V552.91A1.74,1.74,0,0,1,694.71,551.17Z" transform="translate(1596.36 484.95) rotate(135)" style="fill:#ededed"/><path d="M678.42,366.1l-64.06,29.21a4,4,0,0,0,2.47,7.58l145.43-29.84a4,4,0,0,0-.71-7.94l-70.39-1.62A29,29,0,0,0,678.42,366.1Z" style="fill:#fcc846"/><path d="M387.57,510.37a21.83,21.83,0,0,0-29-32.67l-6.06,5.37a17.81,17.81,0,0,1-26.8-3.7,12.11,12.11,0,0,0-20.38,13.08l.48.75a18.41,18.41,0,0,1-2.36,22.61c-13,13.87-21.63,31.56-14.79,50.61,5.59,15.55,20.31,26.08,35.94,30,23.89,6,54.69-.64,64.32-25.91,5.32-14,1.63-29.78-4.8-42.74A14.59,14.59,0,0,1,387.57,510.37Z" style="fill:#606060"/><rect x="325.29" y="509.67" width="37.69" height="13.11" rx="6.55" transform="translate(73.12 -41.87) rotate(7.79)" style="fill:#fff"/><rect x="318.65" y="562.54" width="37.69" height="4.54" rx="2.27" transform="translate(79.64 -40.52) rotate(7.79)" style="fill:#fff"/><rect x="321.85" y="533.37" width="37.69" height="16.07" rx="4.45" transform="translate(76.5 -41.17) rotate(7.79)" style="fill:#dfe8ef"/><path d="M377.75,338.16l-18.18-2.49a5.36,5.36,0,0,0-6,4.59l-4.15,30.33a9.74,9.74,0,0,0,1.07,5.9l2.19,4.07a9.71,9.71,0,0,1,1.06,5.91L337,508.63,353,510.81l16.7-122.12a9.71,9.71,0,0,1,2.67-5.46l3.21-3.29a9.69,9.69,0,0,0,2.66-5.46l4.15-30.28A5.37,5.37,0,0,0,377.75,338.16Z" style="fill:#303030"/><rect x="380.18" y="368.64" width="4.7" height="7.04" rx="2.35" transform="translate(53.95 -48.39) rotate(7.79)" style="fill:#fff"/><rect x="381.8" y="356.75" width="4.7" height="7.04" rx="2.35" transform="translate(52.36 -48.73) rotate(7.79)" style="fill:#fff"/><rect x="383.42" y="344.87" width="4.7" height="7.04" rx="2.35" transform="translate(50.76 -49.06) rotate(7.79)" style="fill:#fff"/><rect x="343.16" y="363.57" width="4.7" height="7.04" rx="2.35" transform="matrix(0.99, 0.14, -0.14, 0.99, 52.92, -43.43)" style="fill:#c1c1c1"/><rect x="344.79" y="351.69" width="4.7" height="7.04" rx="2.35" transform="translate(51.33 -43.76) rotate(7.79)" style="fill:#c1c1c1"/><rect x="346.41" y="339.81" width="4.7" height="7.04" rx="2.35" transform="translate(49.73 -44.09) rotate(7.79)" style="fill:#c1c1c1"/></g><g style="clip-path:url(#clip-path-5)"><path d="M173.56,295.41a29.14,29.14,0,0,0-29.91,16.1h-4a15,15,0,0,0-15,15v10.32h18.94a29.14,29.14,0,1,0,30-41.45Z" style="fill:#606060"/><path d="M41.54,481.14l.09.35a10.36,10.36,0,0,0,12.7,7.33c88.91-23.83,87.94-63.58,87.54-68l-20.66,1.87a3.62,3.62,0,0,1,0-.43c0,.27-.81,27.42-72.23,46.56A10.38,10.38,0,0,0,41.54,481.14Z" style="fill:#eaafa9"/><path d="M139.09,406.78h42.43a17.29,17.29,0,0,1,17.29,17.29v93.08a2.76,2.76,0,0,1-2.76,2.76H124.56a2.76,2.76,0,0,1-2.76-2.76V424.07A17.29,17.29,0,0,1,139.09,406.78Z" style="fill:#333"/><rect x="124.76" y="519.92" width="71.35" height="122.62" style="fill:#d8bf8b"/><path d="M124.88,541.3v-4a17.35,17.35,0,0,0,17.33-17.34h4A21.4,21.4,0,0,1,124.88,541.3Z" style="fill:#b59661"/><path d="M196,541.3a21.4,21.4,0,0,1-21.38-21.38h4A17.36,17.36,0,0,0,196,537.26Z" style="fill:#b59661"/><rect x="158.42" y="543.42" width="4.04" height="99.12" style="fill:#b59661"/><rect x="153.53" y="540.71" width="13.82" height="4.04" style="fill:#b59661"/><path d="M107,413h31.8a18,18,0,0,1,18,18v0a18,18,0,0,1-18,18H107a2.76,2.76,0,0,1-2.76-2.76V415.72A2.76,2.76,0,0,1,107,413Z" transform="translate(-279.7 245.37) rotate(-48.81)" style="fill:#333"/><path d="M166.84,413h31.8a18,18,0,0,1,18,18v0a18,18,0,0,1-18,18h-31.8a2.76,2.76,0,0,1-2.76-2.76V415.72A2.76,2.76,0,0,1,166.84,413Z" transform="translate(-8.57 857.96) rotate(-131.19)" style="fill:#333"/><path d="M151.89,399.79h17.94a0,0,0,0,1,0,0v14.43a9,9,0,0,1-9,9h0a9,9,0,0,1-9-9V399.79a0,0,0,0,1,0,0Z" style="fill:#eaafa9"/><path d="M149.87,403l-7.46,20.11a2.76,2.76,0,0,0,3.19,3.66l15.32-3.41Z" style="fill:#f2f2f2"/><path d="M171.87,403l7.34,20.13a2.77,2.77,0,0,1-3.2,3.65l-15.36-3.42Z" style="fill:#f2f2f2"/><circle cx="198.43" cy="363.32" r="11.58" style="fill:#eaafa9"/><circle cx="124.59" cy="363.32" r="11.58" style="fill:#eaafa9"/><circle cx="161.01" cy="436.49" r="3.18" style="fill:#ffe9e9"/><circle cx="161.01" cy="451.8" r="3.18" style="fill:#ffe9e9"/><circle cx="161.01" cy="436.49" r="3.18" style="fill:#ffe9e9"/><path d="M125.13,335.19v40.7A35.88,35.88,0,0,0,161,411.76h0a35.87,35.87,0,0,0,35.87-35.87v-40.7Z" style="fill:#ffc1b0"/><circle cx="142.88" cy="359.98" r="3.64" style="fill:#303030"/><circle cx="177.73" cy="359.98" r="3.64" style="fill:#303030"/><path d="M137.46,353.44a1.87,1.87,0,0,1-.61-.11,1.76,1.76,0,0,1-1-2.26,8.72,8.72,0,0,1,11.2-5.16,1.76,1.76,0,1,1-1.22,3.3,5.21,5.21,0,0,0-6.68,3.08A1.76,1.76,0,0,1,137.46,353.44Z" style="fill:#606060"/><path d="M184.33,353.44a1.76,1.76,0,0,1-1.65-1.15,5.2,5.2,0,0,0-6.68-3.08,1.76,1.76,0,1,1-1.22-3.3,8.72,8.72,0,0,1,11.2,5.16,1.76,1.76,0,0,1-1,2.26A1.83,1.83,0,0,1,184.33,353.44Z" style="fill:#606060"/><path d="M180.56,377.3h0a2.41,2.41,0,0,0-2.42-2.4H144.68a2.41,2.41,0,0,0-2.42,2.4h0a2.41,2.41,0,0,1-2.43,2.4H124.59v1.93a36,36,0,0,0,36.14,35.77h0a36,36,0,0,0,36.15-35.77V379.7H183A2.41,2.41,0,0,1,180.56,377.3Z" style="fill:#606060"/><path d="M150.76,382.89h23.39a0,0,0,0,1,0,0v5.56a10.08,10.08,0,0,1-10.08,10.08H154a3.21,3.21,0,0,1-3.21-3.21V382.89A0,0,0,0,1,150.76,382.89Z" style="fill:#41352e"/><rect x="150.29" y="382.77" width="24.33" height="6.02" style="fill:#e6e7e8"/><path d="M172.84,393.47a6.6,6.6,0,0,0-11.34,4.59,3.91,3.91,0,0,0,0,.49h2.56A10.08,10.08,0,0,0,172.84,393.47Z" style="fill:#f76c66"/><path d="M165.63,372.49h-8.24a1.95,1.95,0,1,1,0-3.9h8.24a2,2,0,0,1,0,3.9Z" style="fill:#dd8783"/><rect x="124.65" y="331.07" width="5.96" height="51.71" style="fill:#606060"/><rect x="190.92" y="331.07" width="5.96" height="51.71" style="fill:#606060"/><line x1="213.11" y1="471.42" x2="213.11" y2="420.99" style="fill:none;stroke:#eaafa9;stroke-linecap:round;stroke-miterlimit:10;stroke-width:19.2842420255824px"/><rect x="199.99" y="399.47" width="26.48" height="26.48" rx="5.57" style="fill:#eaafa9"/><line x1="208.68" y1="407.34" x2="208.68" y2="391.59" style="fill:none;stroke:#eaafa9;stroke-linecap:round;stroke-miterlimit:10;stroke-width:9.64212101279121px"/><line x1="226.96" y1="404.28" x2="211.2" y2="404.28" style="fill:none;stroke:#fccac8;stroke-linecap:round;stroke-miterlimit:10;stroke-width:9.64212101279121px"/><line x1="226.96" y1="413.9" x2="211.2" y2="413.9" style="fill:none;stroke:#fccac8;stroke-linecap:round;stroke-miterlimit:10;stroke-width:9.64212101279121px"/><line x1="226.96" y1="423.55" x2="211.2" y2="423.55" style="fill:none;stroke:#fccac8;stroke-linecap:round;stroke-miterlimit:10;stroke-width:9.64212101279121px"/><line x1="213.11" y1="471.42" x2="213.11" y2="420.99" style="fill:none;stroke:#eaafa9;stroke-linecap:round;stroke-miterlimit:10;stroke-width:19.2842420255824px"/><rect x="199.99" y="399.47" width="26.48" height="26.48" rx="5.57" style="fill:#eaafa9"/><line x1="208.68" y1="407.34" x2="208.68" y2="391.59" style="fill:none;stroke:#eaafa9;stroke-linecap:round;stroke-miterlimit:10;stroke-width:9.64212101279121px"/><line x1="226.96" y1="404.28" x2="211.2" y2="404.28" style="fill:none;stroke:#fccac8;stroke-linecap:round;stroke-miterlimit:10;stroke-width:9.64212101279121px"/><line x1="226.96" y1="413.9" x2="211.2" y2="413.9" style="fill:none;stroke:#fccac8;stroke-linecap:round;stroke-miterlimit:10;stroke-width:9.64212101279121px"/><line x1="226.96" y1="423.55" x2="211.2" y2="423.55" style="fill:none;stroke:#fccac8;stroke-linecap:round;stroke-miterlimit:10;stroke-width:9.64212101279121px"/><rect x="14.86" y="423.73" width="42.86" height="62.51" rx="5.23" transform="translate(167.21 892.23) rotate(167.89)" style="fill:#303030"/><rect x="20.44" y="435.65" width="31.71" height="38.67" transform="translate(167.21 892.23) rotate(167.89)" style="fill:#fff"/><rect x="17.39" y="435.97" width="31.71" height="9.59" transform="translate(158.2 864.75) rotate(167.89)" style="fill:#d33d24"/><circle cx="41.66" cy="480" r="2.13" style="fill:#161616"/><path d="M53.14,461.34a4.07,4.07,0,0,0,1.45,2.3l7.37,5.9a4.15,4.15,0,1,0,5.18-6.48l-7.37-5.9a4.15,4.15,0,0,0-6.63,4.18Z" style="fill:#eaafa9"/><circle cx="37.82" cy="458.72" r="8.56" style="fill:#75d353"/><path d="M37.78,462.63a1.4,1.4,0,0,1-1-.15L34,460.86a1.22,1.22,0,1,1,1.24-2.1l1.79,1.05,2.53-4.27a1.22,1.22,0,1,1,2.1,1.24L38.6,462A1.35,1.35,0,0,1,37.78,462.63Z" style="fill:#fff"/></g><circle cx="634.1" cy="149.77" r="38.07" style="fill:#ddd"/><path d="M641.86,156.56l-17.06-2.34a3.87,3.87,0,0,1-3.24-4.74l4.78-19.66a3.85,3.85,0,0,1,4.28-2.92l13.13,1.8a3.87,3.87,0,0,1,3.34,4l-.85,20.2A3.86,3.86,0,0,1,641.86,156.56Z" style="fill:#d13828"/><path d="M620.79,170.31l3.66-12.56a1,1,0,0,1,1.15-.78l14.88,2a1.05,1.05,0,0,1,.9,1.08v13.08" style="fill:none;stroke:#383838;stroke-linecap:round;stroke-miterlimit:10;stroke-width:4.13809785522332px"/><rect x="618.07" y="154.53" width="29.97" height="5.7" rx="1.72" transform="translate(27.22 -84.48) rotate(7.8)" style="fill:#992317"/><ellipse cx="625.93" cy="203.99" rx="9.78" ry="10.05" transform="translate(314.53 784.02) rotate(-79.82)" style="fill:#75d353"/><path d="M624,208a1.58,1.58,0,0,1-1-.63l-2.15-3a1.37,1.37,0,0,1,.35-1.95,1.47,1.47,0,0,1,2,.36l1.4,2,4.76-3.22a1.46,1.46,0,0,1,2,.36,1.36,1.36,0,0,1-.35,1.94l-5.82,3.94A1.58,1.58,0,0,1,624,208Z" style="fill:#fff"/><path d="M654,67.61l-1.81-.26.2-1.4a1.11,1.11,0,0,0-.94-1.26l-.53-.07a1.11,1.11,0,0,0-1.26.94l-.2,1.4-7.61-1.09.2-1.4a1.11,1.11,0,0,0-.94-1.26l-.53-.08a1.13,1.13,0,0,0-1.26.95l-.2,1.39-1.8-.26a1.18,1.18,0,0,0-1.33,1l-2,14.14a1.17,1.17,0,0,0,1,1.33l16.68,2.4a1.18,1.18,0,0,0,1.33-1l2-14.14A1.17,1.17,0,0,0,654,67.61Zm-3.73,13.14-13.07-1.88,1.18-8.24,13.07,1.88Z" style="fill:#fff"/><path d="M35.56,438.41l-.5.11-.09-.39a.3.3,0,0,0-.37-.24l-.15,0a.32.32,0,0,0-.24.37l.09.39-2.12.46-.08-.39a.31.31,0,0,0-.37-.24l-.15,0a.31.31,0,0,0-.24.37l.08.39-.5.11a.32.32,0,0,0-.25.39l.84,3.93a.33.33,0,0,0,.4.25l4.63-1a.35.35,0,0,0,.26-.4L36,438.67A.33.33,0,0,0,35.56,438.41Zm.3,3.83-3.64.78-.49-2.29,3.63-.78Z" style="fill:#fff"/></svg>