<svg id="Layer_1" data-name="Layer 1" xmlns="http://www.w3.org/2000/svg" viewBox="0 0 80 80">
  <title>Artboard 1</title>
  <g>
    <path d="M44.826,10.717a16.991,16.991,0,0,0-9.682,0L19.838,15.27V64.732l15.306,4.552a16.973,16.973,0,0,0,9.682,0l15.3-4.551V15.27ZM40.527,49.3l-.257.548.257,8.564H39.454l.269-8.579-.278-.536-8.309,1.06.548-2.68-8.307-7.093,2.132-1.6-1.341-5.227,4.556,1.062,1.464-2.67L34.475,36.7l-.9-9.635,2.658,1.328,3.763-5.628,3.751,5.628,2.546-1.318-.838,9.636,4.311-4.555,1.318,2.68L55.8,33.759l-1.351,5.2,2.143,1.62L48.287,47.7l.537,2.678Z" fill="#fff"/>
    <path d="M17.106,16.082a9.729,9.729,0,0,0-6.81,9.281V54.639a9.729,9.729,0,0,0,6.81,9.281l2.732.812V15.27Z" fill="#ed352d"/>
    <path d="M62.862,16.082,60.13,15.27V64.733l2.733-.813a9.731,9.731,0,0,0,6.811-9.281V25.363A9.731,9.731,0,0,0,62.862,16.082Z" fill="#ed352d"/>
    <polygon points="56.594 40.582 54.451 38.962 55.802 33.759 51.08 34.831 49.762 32.151 45.451 36.706 46.289 27.07 43.743 28.388 39.992 22.76 36.229 28.388 33.571 27.06 34.475 36.695 30.188 32.149 28.724 34.819 24.168 33.757 25.509 38.984 23.377 40.587 31.684 47.68 31.136 50.36 39.445 49.3 39.723 49.836 39.454 58.415 40.527 58.415 40.27 49.851 40.527 49.303 48.824 50.373 48.287 47.695 56.594 40.582" fill="#ed352d"/>
  </g>
  <g id="SVGID">
    <path d="M40,10a16.982,16.982,0,0,1,4.843.705l18.044,5.367A9.732,9.732,0,0,1,69.7,25.356V54.644a9.734,9.734,0,0,1-6.813,9.285L44.843,69.3a16.984,16.984,0,0,1-9.685,0L17.112,63.929A9.734,9.734,0,0,1,10.3,54.644V25.356a9.733,9.733,0,0,1,6.813-9.284l18.046-5.367A16.981,16.981,0,0,1,40,10m0-5a21.982,21.982,0,0,0-6.267.912L15.687,11.279l-.037.011-.038.012A14.674,14.674,0,0,0,5.3,25.356V54.644A14.675,14.675,0,0,0,15.612,68.7l.038.011.037.011,18.045,5.367a22,22,0,0,0,12.536,0l18.045-5.367.037-.011.038-.011A14.674,14.674,0,0,0,74.7,54.645V25.356A14.675,14.675,0,0,0,64.387,11.3l-.037-.012-.038-.011L46.268,5.912A21.984,21.984,0,0,0,40,5Z" fill="#fff"/>
  </g>
</svg>
