<?xml version="1.0" encoding="utf-8"?>
<!-- Generator: Adobe Illustrator 23.0.1, SVG Export Plug-In . SVG Version: 6.00 Build 0)  -->
<svg version="1.1" id="Layer_1" xmlns="http://www.w3.org/2000/svg" xmlns:xlink="http://www.w3.org/1999/xlink" x="0px" y="0px"
	 viewBox="0 0 745 572" style="enable-background:new 0 0 745 572;" xml:space="preserve">
<style type="text/css">
	.st0{fill:#9E69B7;}
	.st1{clip-path:url(#SVGID_2_);}
	.st2{fill:#B685D3;}
	.st3{clip-path:url(#SVGID_4_);}
	.st4{clip-path:url(#SVGID_6_);}
	.st5{fill:none;stroke:#F9A819;stroke-width:3.109;stroke-miterlimit:10;}
	.st6{fill:none;stroke:#6BB242;stroke-width:3.109;stroke-miterlimit:10;}
	.st7{fill:none;stroke:#F42F2F;stroke-width:3.109;stroke-miterlimit:10;}
	.st8{fill:none;stroke:#B7B7B7;stroke-width:5.724;stroke-linecap:round;stroke-miterlimit:10;}
	.st9{fill:#F9A819;}
	.st10{fill:#E2CEAF;}
	.st11{fill:#FF5050;}
	.st12{fill:#F7C31C;}
	.st13{fill:#89D15A;}
	.st14{fill:#C1AC8F;}
	.st15{fill:none;stroke:#965953;stroke-width:13.931;stroke-linecap:round;stroke-miterlimit:10;}
	.st16{fill:#D61A1A;}
	.st17{fill:#9E5447;}
	.st18{fill:#FF69AD;}
	.st19{fill:#C0A0EA;}
	.st20{fill:#7F4139;}
	.st21{fill:#A184D1;}
	.st22{fill:#F42F2F;}
	.st23{fill:#303030;}
	.st24{fill:none;stroke:#C61414;stroke-width:3.715;stroke-miterlimit:10;}
	.st25{fill:#AA5D52;}
	.st26{fill:none;stroke:#FCC846;stroke-width:2.322;stroke-miterlimit:10;}
	.st27{fill:none;}
	.st28{fill:#683631;}
	.st29{fill:none;stroke:#303030;stroke-width:2.786;stroke-linecap:round;stroke-miterlimit:10;}
	.st30{fill:#F74D4D;}
	.st31{fill:#965953;}
	.st32{fill:#41352E;}
	.st33{fill:#E6E7E8;}
	.st34{fill:#F76C66;}
	.st35{fill:none;stroke:#EAAFA9;stroke-width:15.543;stroke-linecap:round;stroke-miterlimit:10;}
	.st36{fill:none;stroke:#EAAFA9;stroke-width:7.771;stroke-linecap:round;stroke-miterlimit:10;}
	.st37{fill:#D8D8D8;}
	.st38{fill:#B7B7B7;}
	.st39{fill:#64BDFF;}
	.st40{fill:#1E78BA;}
	.st41{fill:#EAAFA9;}
	.st42{fill:#FFC1B0;}
	.st43{fill:#DD8783;}
	.st44{fill:#8C423B;}
	.st45{fill:#704035;}
	.st46{fill:#FFC9C0;}
	.st47{fill:#FFFFFF;}
	.st48{fill:none;stroke:#EFEFEF;stroke-width:4.256;stroke-miterlimit:10;}
	.st49{fill:#F4BBB3;}
	.st50{fill:#E2786D;}
	.st51{fill:#492420;}
	.st52{fill:#F29F9C;}
	.st53{fill:#1E1E1E;}
	.st54{fill:#B280CE;}
	.st55{clip-path:url(#SVGID_8_);}
	.st56{fill:#EAA48F;}
	.st57{fill:#BCDD6B;}
	.st58{fill:#D88E7D;}
	.st59{fill:#115FEA;}
	.st60{fill:none;stroke:#79C43D;stroke-width:5.0552;stroke-miterlimit:10;}
	.st61{fill:#BC695B;}
	.st62{fill:#E8E8E8;}
	.st63{fill:#1A1A1A;}
	.st64{fill:none;stroke:#303030;stroke-width:3.8074;stroke-linecap:round;stroke-miterlimit:10;}
	.st65{fill:#EFF2F4;}
	.st66{fill:none;stroke:#64BCF2;stroke-width:2.5379;stroke-linecap:round;stroke-miterlimit:10;}
	.st67{fill:#009345;}
	.st68{opacity:0.2;fill:#383838;enable-background:new    ;}
	.st69{clip-path:url(#SVGID_10_);}
	.st70{fill:#E0DDE8;}
	.st71{fill:#33B6FF;}
	.st72{fill:#A892DD;}
	.st73{fill:none;stroke:#FFFFFF;stroke-width:2.802;stroke-linecap:round;stroke-linejoin:round;}
	.st74{fill:#FFD664;}
	.st75{fill:#8A5DA8;}
	.st76{fill:#D2A5EF;}
	.st77{fill:none;stroke:#FFFFFF;stroke-width:1.616;stroke-linecap:round;stroke-miterlimit:10;}
	.st78{clip-path:url(#SVGID_12_);}
	.st79{fill:#D5DBDE;}
	.st80{opacity:0.15;enable-background:new    ;}
	.st81{fill:#75D85D;}
	.st82{fill:#EDF6FD;}
	.st83{fill:#DFE8EF;}
	.st84{fill:#383838;}
	.st85{fill:#EFEFEF;}
	.st86{fill:none;stroke:#FFC1B0;stroke-width:6.387;stroke-linecap:round;stroke-miterlimit:10;}
	.st87{fill:#816056;}
	.st88{fill:#54C634;}
</style>
<title>check-ins</title>
<g>
	<path class="st0" d="M34,7.2h315.4c15,0,27.2,12.2,27.2,27.2v274.4c0,15-12.2,27.2-27.2,27.2H34c-15,0-27.2-12.2-27.2-27.2V34.3
		C6.8,19.3,19,7.2,34,7.2z"/>
	<g>
		<defs>
			<path id="SVGID_1_" d="M34,7.2h315.4c15,0,27.2,12.2,27.2,27.2v274.4c0,15-12.2,27.2-27.2,27.2H34c-15,0-27.2-12.2-27.2-27.2
				V34.3C6.8,19.3,19,7.2,34,7.2z"/>
		</defs>
		<clipPath id="SVGID_2_">
			<use xlink:href="#SVGID_1_"  style="overflow:visible;"/>
		</clipPath>
		<g class="st1">
			<rect x="5.1" y="4.6" class="st2" width="498.6" height="350.9"/>
		</g>
	</g>
</g>
<g>
	<path class="st0" d="M424.7,263h290.1c13.7,0,24.7,11.1,24.7,24.7v254.1c0,13.7-11.1,24.7-24.7,24.7H424.7
		c-13.7,0-24.7-11.1-24.7-24.7V287.7C399.9,274.1,411,263,424.7,263z"/>
	<g>
		<defs>
			<path id="SVGID_3_" d="M424.7,263h290.1c13.7,0,24.7,11.1,24.7,24.7v254.1c0,13.7-11.1,24.7-24.7,24.7H424.7
				c-13.7,0-24.7-11.1-24.7-24.7V287.7C399.9,274.1,411,263,424.7,263z"/>
		</defs>
		<clipPath id="SVGID_4_">
			<use xlink:href="#SVGID_3_"  style="overflow:visible;"/>
		</clipPath>
		<g class="st3">
			<rect x="379.6" y="260.5" class="st2" width="378.3" height="311.7"/>
		</g>
	</g>
</g>
<path class="st2" d="M425.7,8.5h289.6c13.7,0,24.7,11.1,24.7,24.7v179.6c0,13.7-11.1,24.7-24.7,24.7H425.7
	c-13.7,0-24.7-11.1-24.7-24.7V33.2C401,19.6,412.1,8.5,425.7,8.5z"/>
<path class="st2" d="M31.4,364.5h321.6c13.7,0,24.7,11.1,24.7,24.7v152.6c0,13.7-11.1,24.7-24.7,24.7H31.4
	c-13.7,0-24.7-11.1-24.7-24.7V389.2C6.7,375.6,17.7,364.5,31.4,364.5z"/>
<g>
	<defs>
		<path id="SVGID_5_" d="M34,7.2h315.4c15,0,27.2,12.2,27.2,27.2v274.4c0,15-12.2,27.2-27.2,27.2H34c-15,0-27.2-12.2-27.2-27.2V34.3
			C6.8,19.3,19,7.2,34,7.2z"/>
	</defs>
	<clipPath id="SVGID_6_">
		<use xlink:href="#SVGID_5_"  style="overflow:visible;"/>
	</clipPath>
	<g class="st4">
		<g>
			<g>
				<line class="st5" x1="-19.6" y1="238.6" x2="32.7" y2="238.6"/>
				<line class="st6" x1="-19.6" y1="230" x2="32.7" y2="230"/>
				<line class="st7" x1="-19.6" y1="221.3" x2="32.7" y2="221.3"/>
				<line class="st8" x1="75.3" y1="262" x2="75.3" y2="295.1"/>
				<path class="st9" d="M-40.9,254.7H96.4c1.3,0,2.4,1.1,2.4,2.4v7c0,1.3-1.1,2.4-2.4,2.4H-40.9c-1.3,0-2.4-1.1-2.4-2.4v-7
					C-43.3,255.8-42.2,254.7-40.9,254.7z"/>
				<g>
					<path class="st10" d="M-32.1,253.2v-5.3c0-0.8,0.7-1.5,1.5-1.5h74.4c0.8,0,1.5,0.7,1.5,1.5v5.3c0,0.8-0.7,1.5-1.5,1.5h-74.4
						C-31.4,254.7-32.1,254.1-32.1,253.2z"/>
					<path class="st10" d="M30.1,216.4h5.3c0.8,0,1.5,0.7,1.5,1.5v32.4c0,0.8-0.7,1.5-1.5,1.5h-5.3c-0.8,0-1.5-0.7-1.5-1.5v-32.4
						C28.6,217.1,29.3,216.4,30.1,216.4z"/>
				</g>
				<path class="st11" d="M-0.1,217.8H1c0.7,0,1.2,0.5,1.2,1.2v4.8c0,0.7-0.5,1.2-1.2,1.2h-1.1c-0.7,0-1.2-0.5-1.2-1.2V219
					C-1.3,218.3-0.8,217.8-0.1,217.8z"/>
				<path class="st11" d="M5.3,217.8h1.1c0.7,0,1.2,0.5,1.2,1.2v4.8c0,0.7-0.5,1.2-1.2,1.2H5.3c-0.7,0-1.2-0.5-1.2-1.2V219
					C4.1,218.3,4.6,217.8,5.3,217.8z"/>
				<path class="st11" d="M23.8,217.8h1.1c0.7,0,1.2,0.5,1.2,1.2v4.8c0,0.7-0.5,1.2-1.2,1.2h-1.1c-0.7,0-1.2-0.5-1.2-1.2V219
					C22.6,218.3,23.1,217.8,23.8,217.8z"/>
				<path class="st12" d="M-0.1,235H1c0.7,0,1.2,0.5,1.2,1.2v4.8c0,0.7-0.5,1.2-1.2,1.2h-1.1c-0.7,0-1.2-0.5-1.2-1.2v-4.8
					C-1.3,235.6-0.8,235-0.1,235z"/>
				<path class="st12" d="M5.3,235h1.1c0.7,0,1.2,0.5,1.2,1.2v4.8c0,0.7-0.5,1.2-1.2,1.2H5.3c-0.7,0-1.2-0.5-1.2-1.2v-4.8
					C4.1,235.6,4.6,235,5.3,235z"/>
				<path class="st12" d="M23.8,235h1.1c0.7,0,1.2,0.5,1.2,1.2v4.8c0,0.7-0.5,1.2-1.2,1.2h-1.1c-0.7,0-1.2-0.5-1.2-1.2v-4.8
					C22.6,235.6,23.1,235,23.8,235z"/>
				<path class="st13" d="M-0.1,226.3H1c0.7,0,1.2,0.5,1.2,1.2v4.8c0,0.7-0.5,1.2-1.2,1.2h-1.1c-0.7,0-1.2-0.5-1.2-1.2v-4.8
					C-1.3,226.9-0.8,226.3-0.1,226.3z"/>
				<path class="st13" d="M18.6,226.3h1.1c0.7,0,1.2,0.5,1.2,1.2v4.8c0,0.7-0.5,1.2-1.2,1.2h-1.1c-0.7,0-1.2-0.5-1.2-1.2v-4.8
					C17.3,226.9,17.9,226.3,18.6,226.3z"/>
				<path class="st13" d="M23.8,226.3h1.1c0.7,0,1.2,0.5,1.2,1.2v4.8c0,0.7-0.5,1.2-1.2,1.2h-1.1c-0.7,0-1.2-0.5-1.2-1.2v-4.8
					C22.6,226.9,23.1,226.3,23.8,226.3z"/>
				<rect x="28.6" y="241.4" class="st14" width="8.3" height="5"/>
			</g>
			<g>
				<path class="st15" d="M99,171.7l22.7,27.2c0.9,1.1,2.2,1.7,3.7,1.7l38.5-0.5"/>
				<path class="st16" d="M94.4,193.8l-15.1-19.2c-4.7-6-3.7-14.7,2.3-19.4l0,0l0,0c6-4.7,14.7-3.7,19.4,2.3l15.1,19.2
					c0.7,0.9,0.6,2.3-0.4,3l-18.4,14.5C96.5,194.9,95.1,194.7,94.4,193.8z"/>
				<g>
					
						<rect x="14.1" y="284.3" transform="matrix(0.2071 -0.9783 0.9783 0.2071 -268.8954 255.0071)" class="st17" width="17.5" height="18.2"/>
					<path class="st17" d="M-3.4,313.6l6.6-31.2c0.2-1.1,1.3-1.8,2.4-1.6l10.9,2.3l-5.4,25.5c-1.1,5.4-6.4,8.8-11.8,7.7c0,0,0,0,0,0
						l-1.2-0.2C-3,315.8-3.7,314.7-3.4,313.6C-3.4,313.6-3.4,313.6-3.4,313.6z"/>
					<path class="st18" d="M8.3,278.5l-8.1,38.1c-0.2,1.1-1.3,1.8-2.5,1.6h0c-1.1-0.2-1.8-1.3-1.6-2.5l8.1-38.1
						c0.2-1.1,1.3-1.8,2.5-1.6h0C7.8,276.2,8.5,277.3,8.3,278.5z"/>
					<path class="st18" d="M-0.6,305.3c0.1-0.3,0.2-0.6,0.4-0.8c0.7-0.9,2-1.1,2.9-0.4c0,0,0,0,0,0c2.7,2,4.5,5,5,8.3
						c0.2,1.2,0.2,2.5,0.1,3.7c-0.1,1.1-1.2,1.9-2.3,1.8c-1.1-0.1-1.9-1.2-1.8-2.3c0.1-0.8,0.1-1.7,0-2.6c-0.4-2.3-1.6-4.3-3.4-5.7
						C-0.4,306.9-0.7,306.1-0.6,305.3z"/>
					<path class="st19" d="M77.4,301.2l1-4.9l5-23.6c0.1-0.3-0.1-0.7-0.5-0.7c0,0,0,0,0,0L67,268.6c-0.3-0.1-0.7,0.1-0.7,0.5
						l-5,23.6l-29.9-6.3l-3.6,17.1l30.5,6.5l3.2,0.7l5.4,1.2c4.3,0.9,8.6-1.9,9.5-6.2c0,0,0,0,0,0L77.4,301.2z"/>
				</g>
				
					<rect x="55.4" y="257.7" transform="matrix(0.2071 -0.9783 0.9783 0.2071 -207.9405 288.5649)" class="st16" width="37.2" height="29.8"/>
				<rect x="133.7" y="284.9" class="st20" width="17.5" height="18.2"/>
				<path class="st20" d="M167.6,315.6h-31.9c-1.1,0-2.1-0.9-2.1-2.1v-11.2h26.1c5.5,0,10,4.5,10,10v1.2
					C169.7,314.6,168.8,315.6,167.6,315.6L167.6,315.6z"/>
				<path class="st21" d="M137.2,221.9H109c-0.3,0-0.6,0.3-0.6,0.6c0,0,0,0,0,0v16.3c0,0.3,0.3,0.6,0.6,0.6c0,0,0,0,0,0h24.6v47.8
					h17.5v-57.3c0-4.4-3.6-8-8-8l0,0H137.2z"/>
				<path class="st18" d="M130.9,311.4h39c1.2,0,2.1,0.9,2.1,2.1v0c0,1.2-0.9,2.1-2.1,2.1h-39c-1.2,0-2.1-0.9-2.1-2.1v0
					C128.8,312.3,129.7,311.4,130.9,311.4z"/>
				<path class="st18" d="M158.9,314.5c-1.1,0-2.1-0.9-2.1-2.1c0-0.3,0.1-0.6,0.2-0.9c2-4.2,6.1-7.1,10.7-7.5
					c1.1-0.1,2.1,0.7,2.2,1.9c0.1,1.1-0.7,2.1-1.9,2.2c-3.2,0.3-6,2.2-7.4,5.1C160.4,314,159.7,314.5,158.9,314.5z"/>
				<path class="st22" d="M102.7,219.9l3-40.7c0-19.9-16.2-36.1-36.1-36.1l0,0c-19.9,0-36.1,16.2-36.1,36.1l0,0l3.8,40.7
					L102.7,219.9z"/>
				<circle class="st23" cx="61.6" cy="146.6" r="12.9"/>
				<line class="st24" x1="51.7" y1="191.8" x2="91.4" y2="191.8"/>
				<path class="st25" d="M69.7,168.9c11.7,0,21.6-6.5,24.9-15.5c-5.8-6.3-14.8-10.4-24.9-10.4l0,0c-10.1,0-19.1,4.1-24.9,10.4
					C48.1,162.4,58,168.9,69.7,168.9z"/>
				<path class="st23" d="M57.6,115.7l2.4-12C63.2,87.5,78.9,77,95.1,80.3c0,0,0,0,0,0l0,0c16.2,3.2,26.7,18.9,23.4,35.1l-2.4,12"/>
				<circle class="st17" cx="112.2" cy="129.2" r="8.2"/>
				<circle class="st17" cx="61.2" cy="119.1" r="8.2"/>
				<path class="st26" d="M57.5,123.1c-1.9-0.4-3.8,0.9-4.2,2.8c-0.4,1.9,0.9,3.8,2.8,4.2c1.9,0.4,3.8-0.9,4.2-2.8"/>
				<path class="st26" d="M113.1,134.1c1.9,0.4,3.2,2.2,2.8,4.2c-0.4,1.9-2.2,3.2-4.2,2.8c-1.9-0.4-3.2-2.2-2.8-4.2c0,0,0,0,0,0"/>
				<path class="st17" d="M66.1,134.4h23.7l0,0v19.1c0,6.5-5.3,11.9-11.9,11.9l0,0c-6.5,0-11.9-5.3-11.9-11.9V134.4L66.1,134.4z"/>
				<path class="st25" d="M69.6,101.9l40.4,8c2.5,0.5,4.1,2.9,3.6,5.5l-4.1,20.8c-2.7,13.7-16,22.6-29.7,19.8l0,0
					c-13.7-2.7-22.6-16-19.8-29.7l4.1-20.8C64.7,103,67.1,101.4,69.6,101.9L69.6,101.9z"/>
				<g>
					<line class="st27" x1="86.3" y1="133.2" x2="95" y2="134.9"/>
					<path class="st28" d="M94.7,136.2l-8.7-1.7c-0.7-0.1-1.2-0.9-1.1-1.6c0.1-0.7,0.9-1.2,1.6-1.1l8.7,1.7c0.7,0.1,1.2,0.8,1.1,1.6
						C96.2,135.9,95.5,136.4,94.7,136.2C94.7,136.3,94.7,136.3,94.7,136.2L94.7,136.2z"/>
				</g>
				<path class="st29" d="M78.3,116.5c0,0,3-2.1,8-0.5"/>
				<path class="st29" d="M107.8,121.8c0,0-2.3-2.9-7.5-2.6"/>
				<path class="st22" d="M37.6,219.9h72.1l0,0v37.6l0,0H49.4c-6.6,0-11.9-5.3-11.9-11.9l0,0V219.9L37.6,219.9z"/>
				<line class="st24" x1="84.2" y1="219.2" x2="102.2" y2="219.2"/>
				<g>
					<path class="st15" d="M52.1,167.1l7.8,42.9c0.7,3.8,4,6.5,7.9,6.5h42.8"/>
					<path class="st30" d="M40.5,191.3L37.6,167c-0.9-7.6,4.5-14.5,12.1-15.4l0,0c7.6-0.9,14.5,4.5,15.4,12.1c0,0,0,0,0,0L68,188
						c0.1,1.2-0.7,2.2-1.9,2.4l-23.2,2.8C41.7,193.3,40.7,192.4,40.5,191.3C40.5,191.3,40.5,191.3,40.5,191.3z"/>
					<path class="st31" d="M108.8,206.6c0.1,0.6,0,1.3-0.3,1.8l-3.2,5.5c-0.8,1.3-2.5,1.8-3.8,1s-1.8-2.5-1-3.8l0,0l3.2-5.5
						c0.8-1.3,2.5-1.8,3.8-1C108.1,205,108.6,205.8,108.8,206.6L108.8,206.6z"/>
				</g>
				<circle class="st23" cx="84.6" cy="123.9" r="2.6"/>
				<circle class="st23" cx="104" cy="126.6" r="2.6"/>
				<g>
					<path class="st32" d="M86.2,149.3l-6.5-1.3c-3.6-0.7-5.9-4.2-5.2-7.8l0.7-3.6l0,0l15.1,3l0,0l-1.6,8
						C88.4,148.8,87.3,149.6,86.2,149.3L86.2,149.3z"/>
					
						<rect x="80.3" y="132" transform="matrix(0.1949 -0.9808 0.9808 0.1949 -71.0554 193.463)" class="st33" width="4" height="16"/>
					<path class="st34" d="M74.6,143.6c2-1.4,4.7-0.9,6,1.1c0.7,1,0.9,2.2,0.7,3.3c0,0.1-0.1,0.2-0.1,0.3l-1.7-0.3
						C77.3,147.6,75.4,145.9,74.6,143.6z"/>
				</g>
				<path class="st31" d="M163.6,192c-0.1,0.6-0.5,1.2-1,1.5l-5,3.9c-1.2,0.9-3,0.7-3.9-0.5s-0.7-3,0.5-3.9l0,0l5-3.9
					c1.2-1,3-0.7,3.9,0.5C163.6,190.3,163.8,191.2,163.6,192L163.6,192z"/>
			</g>
			<g>
				<g>
					<path class="st35" d="M207.6,131.8L192.4,157c-2.2,3.7-1.9,8.4,0.8,11.7l19.8,24.2l3.3,16.6"/>
					<line class="st36" x1="213.8" y1="189.8" x2="226.1" y2="192.9"/>
				</g>
				<g>
					<path class="st35" d="M257.5,129.9l15.2,25.2c2.2,3.7,1.9,8.4-0.8,11.7l-19.8,24.2l-3.3,16.6"/>
					<line class="st36" x1="251.4" y1="187.9" x2="239.1" y2="191"/>
				</g>
				<g>
					<path class="st23" d="M199,290.1l32.5,0v0.2v14.1c0,1.2-1,2.2-2.2,2.2c0,0,0,0,0,0l-30.6,0v-16.4
						C198.8,290.1,198.9,290.1,199,290.1z"/>
					<path class="st37" d="M184.9,302.5c1.3-4.8,4.7-12.2,13.8-12.4v16.4H188c-1.8,0-3.2-1.4-3.2-3.2
						C184.8,303.1,184.8,302.8,184.9,302.5z"/>
					<path class="st38" d="M230.9,307.3h-46.2c-1.2,0-2.1-1-2.1-2.1l0,0c0-1.2,1-2.1,2.1-2.1h46.2c1.2,0,2.1,1,2.1,2.1l0,0
						C233.1,306.3,232.1,307.3,230.9,307.3z"/>
					<path class="st37" d="M217.8,296.8l-10.5,0c-1,0-1.8-0.8-1.8-1.8l0-4.9l0,0l14.1,0l0,0l0,4.9
						C219.6,296,218.8,296.8,217.8,296.8L217.8,296.8z"/>
				</g>
				<g>
					<path class="st23" d="M266.4,290.1l-32.5,0v0.2v14.1c0,1.2,1,2.2,2.2,2.2c0,0,0,0,0,0l30.6,0v-16.4
						C266.6,290.1,266.5,290.1,266.4,290.1z"/>
					<path class="st37" d="M280.4,302.5c-1.3-4.8-4.7-12.2-13.8-12.4v16.4h10.7c1.8,0,3.2-1.4,3.2-3.2
						C280.5,303.1,280.5,302.8,280.4,302.5z"/>
					<path class="st38" d="M234.3,303h46.2c1.2,0,2.1,1,2.1,2.1l0,0c0,1.2-1,2.1-2.1,2.1h-46.2c-1.2,0-2.1-1-2.1-2.1l0,0
						C232.2,303.9,233.2,303,234.3,303z"/>
					<path class="st37" d="M245.7,290.1h14.1l0,0v4.9c0,1-0.8,1.8-1.8,1.8h-10.5c-1,0-1.8-0.8-1.8-1.8L245.7,290.1L245.7,290.1
						L245.7,290.1z"/>
				</g>
				<rect x="210" y="198.8" class="st39" width="45.3" height="91.2"/>
				<rect x="231.1" y="216.3" class="st40" width="3" height="73.7"/>
				<rect x="227.5" y="214.3" class="st40" width="10.3" height="3"/>
				<path class="st40" d="M255.3,210.8v-3.1c-4.2-1.3-7.4-4.6-8.6-8.8h-3.1C244.9,204.7,249.4,209.3,255.3,210.8z"/>
				<path class="st40" d="M221.7,198.9h-3.1c-1.2,4.2-4.4,7.5-8.6,8.8v3.1C215.8,209.4,220.4,204.8,221.7,198.9z"/>
				<g>
					<path class="st23" d="M199,290.1l32.5,0v0.2v14.1c0,1.2-1,2.2-2.2,2.2c0,0,0,0,0,0l-30.6,0v-16.4
						C198.8,290.1,198.9,290.1,199,290.1z"/>
					<path class="st37" d="M184.9,302.5c1.3-4.8,4.7-12.2,13.8-12.4v16.4H188c-1.8,0-3.2-1.4-3.2-3.2
						C184.8,303.1,184.8,302.8,184.9,302.5z"/>
					<path class="st38" d="M230.9,307.3h-46.2c-1.2,0-2.1-1-2.1-2.1l0,0c0-1.2,1-2.1,2.1-2.1h46.2c1.2,0,2.1,1,2.1,2.1l0,0
						C233.1,306.3,232.1,307.3,230.9,307.3z"/>
					<path class="st37" d="M217.8,296.8l-10.5,0c-1,0-1.8-0.8-1.8-1.8l0-4.9l0,0l14.1,0l0,0l0,4.9
						C219.6,296,218.8,296.8,217.8,296.8L217.8,296.8z"/>
				</g>
				<g>
					<path class="st23" d="M266.4,290.1l-32.5,0v0.2v14.1c0,1.2,1,2.2,2.2,2.2c0,0,0,0,0,0l30.6,0v-16.4
						C266.6,290.1,266.5,290.1,266.4,290.1z"/>
					<path class="st37" d="M280.4,302.5c-1.3-4.8-4.7-12.2-13.8-12.4v16.4h10.7c1.8,0,3.2-1.4,3.2-3.2
						C280.5,303.1,280.5,302.8,280.4,302.5z"/>
					<path class="st38" d="M234.3,303h46.2c1.2,0,2.1,1,2.1,2.1l0,0c0,1.2-1,2.1-2.1,2.1h-46.2c-1.2,0-2.1-1-2.1-2.1l0,0
						C232.2,303.9,233.2,303,234.3,303z"/>
					<path class="st37" d="M245.7,290.1h14.1l0,0v4.9c0,1-0.8,1.8-1.8,1.8h-10.5c-1,0-1.8-0.8-1.8-1.8L245.7,290.1L245.7,290.1
						L245.7,290.1z"/>
				</g>
				<rect x="210" y="198.8" class="st39" width="45.3" height="91.2"/>
				<rect x="231.1" y="216.3" class="st40" width="3" height="73.7"/>
				<rect x="227.5" y="214.3" class="st40" width="10.3" height="3"/>
				<path class="st40" d="M255.3,210.8v-3.1c-4.2-1.3-7.4-4.6-8.6-8.8h-3.1C244.9,204.7,249.4,209.3,255.3,210.8z"/>
				<path class="st40" d="M221.7,198.9h-3.1c-1.2,4.2-4.4,7.5-8.6,8.8v3.1C215.8,209.4,220.4,204.8,221.7,198.9z"/>
				<path class="st23" d="M217.3,113.1H248c7.3,0,13.1,5.9,13.1,13.1c0,0,0,0,0,0l0,67.6c0,2.9-2.3,5.2-5.2,5.2l-46.7,0
					c-2.9,0-5.2-2.3-5.2-5.2c0,0,0,0,0,0l0-67.6C204.1,118.9,210,113.1,217.3,113.1z"/>
				<path class="st41" d="M233.4,125.5L233.4,125.5c-3.8,0-6.8-3-6.8-6.8c0,0,0,0,0,0l0-11l0,0l13.6,0l0,0l0,11
					C240.2,122.5,237.2,125.5,233.4,125.5C233.4,125.5,233.4,125.5,233.4,125.5z"/>
				<path class="st23" d="M242.3,116L242.3,116c6-4.7,14.7-3.7,19.4,2.3c0,0,0,0,0,0l13.9,17.6c0.9,1.1,0.7,2.8-0.4,3.6l-17.7,13.9
					c-1.1,0.9-2.8,0.7-3.6-0.4L240,135.4C235.3,129.4,236.3,120.7,242.3,116z"/>
				<path class="st23" d="M209.1,153.5l-17.7-13.9c-1.1-0.9-1.3-2.5-0.4-3.6l13.9-17.6c4.7-6,13.4-7.1,19.4-2.3l0,0
					c6,4.7,7.1,13.4,2.3,19.4l-13.9,17.6C211.9,154.2,210.2,154.4,209.1,153.5C209.1,153.5,209.1,153.5,209.1,153.5z"/>
				<path class="st41" d="M233.4,125.5L233.4,125.5c-3.8,0-6.8-3-6.8-6.8c0,0,0,0,0,0l0-11l0,0l13.6,0l0,0l0,11
					C240.2,122.5,237.2,125.5,233.4,125.5C233.4,125.5,233.4,125.5,233.4,125.5z"/>
				<g>
					<circle class="st41" cx="205.1" cy="83.8" r="8.3"/>
					<circle class="st41" cx="256.7" cy="79.9" r="8.3"/>
					<path class="st42" d="M203.1,57.3l0.7,8.9l0.5,7l1.2,15.9c1.1,14.2,13.5,24.9,27.7,23.8l0,0c14.2-1.1,24.9-13.5,23.8-27.7
						l-1.2-15.9l-0.5-7l-0.7-8.9L203.1,57.3z"/>
					<g>
						<line class="st27" x1="234" y1="88" x2="228.4" y2="88.5"/>
						<path class="st43" d="M228.5,89.9l5.6-0.4c0.8-0.1,1.4-0.7,1.3-1.5s-0.7-1.4-1.5-1.3l-5.6,0.4c-0.8,0.1-1.4,0.7-1.3,1.5
							C227.1,89.3,227.7,89.9,228.5,89.9L228.5,89.9z"/>
					</g>
					<g>
						<path class="st44" d="M247,71.3c0.7-0.1,1.2-0.7,1.2-1.4c0-0.1,0-0.3-0.1-0.4c-1.4-3.2-5.2-4.5-8.3-3.1
							c-0.6,0.3-0.9,1-0.6,1.7s1,0.9,1.7,0.6l0,0c1.9-0.9,4.1,0,5,1.8c0,0,0,0,0,0C246,71,246.5,71.3,247,71.3z"/>
						<path class="st44" d="M213.3,73.9c0.5,0,1-0.4,1.1-0.9c0.6-2,2.6-3.1,4.6-2.6c0.7,0.2,1.4-0.2,1.6-0.9s-0.2-1.4-0.9-1.6
							c-3.3-0.9-6.8,1-7.8,4.3c-0.2,0.7,0.2,1.4,0.9,1.6C213,73.9,213.2,73.9,213.3,73.9L213.3,73.9z"/>
					</g>
					<circle class="st44" cx="213.4" cy="42.4" r="19.7"/>
					<path class="st44" d="M200.3,50.7l5.3-0.4l0,0l2.3,29.7c0.1,1.5-1,2.8-2.5,2.9l0,0c-1.5,0.1-2.8-1-2.9-2.5L200.3,50.7
						L200.3,50.7L200.3,50.7z"/>
					<path class="st44" d="M250.3,46.2l5.3-0.4l0,0l2.3,30.4c0.1,1.5-1,2.8-2.5,2.9l0,0c-1.5,0.1-2.8-1-2.9-2.5L250.3,46.2
						L250.3,46.2z"/>
					<path class="st43" d="M223.5,81.6c-0.5,0-1-0.3-1.2-0.8c-0.5-1.5-2.1-2.4-3.6-1.9c-1.1,0.3-1.8,1.2-2,2.3
						c-0.1,0.6-0.6,1.1-1.3,1s-1.1-0.6-1-1.3c0,0,0,0,0,0c0.4-2.8,3-4.7,5.8-4.3c2,0.3,3.6,1.7,4.2,3.6c0.2,0.6-0.2,1.2-0.7,1.4
						C223.6,81.5,223.5,81.5,223.5,81.6L223.5,81.6z"/>
					<path class="st43" d="M244.1,80c-0.5,0-1-0.3-1.2-0.8c-0.5-1.5-2.1-2.4-3.6-1.9c-1.1,0.3-1.8,1.2-2,2.3c-0.1,0.6-0.7,1-1.3,1
						c-0.6-0.1-1-0.7-1-1.3l0,0c0.4-2.8,3-4.7,5.8-4.3c2,0.3,3.6,1.7,4.2,3.6c0.2,0.6-0.2,1.2-0.8,1.4C244.3,80,244.2,80,244.1,80
						L244.1,80z"/>
					<path class="st44" d="M243.6,32.9l-25.8-2l2,26.1l36.4-2.8l-0.7-9.5C255.1,38.5,250,33.4,243.6,32.9z"/>
					<circle class="st41" cx="205.1" cy="83.8" r="8.3"/>
					<circle class="st41" cx="256.7" cy="79.9" r="8.3"/>
					<path class="st42" d="M203.1,57.3l0.7,8.9l0.5,7l1.2,15.9c1.1,14.2,13.5,24.9,27.7,23.8l0,0c14.2-1.1,24.9-13.5,23.8-27.7
						l-1.2-15.9l-0.5-7l-0.7-8.9L203.1,57.3z"/>
					<g>
						<line class="st27" x1="234" y1="88" x2="228.4" y2="88.5"/>
						<path class="st43" d="M228.5,89.9l5.6-0.4c0.8-0.1,1.4-0.7,1.3-1.5s-0.7-1.4-1.5-1.3l-5.6,0.4c-0.8,0.1-1.4,0.7-1.3,1.5
							C227.1,89.3,227.7,89.9,228.5,89.9L228.5,89.9z"/>
					</g>
					<g>
						<path class="st44" d="M247,71.3c0.7-0.1,1.2-0.7,1.2-1.4c0-0.1,0-0.3-0.1-0.4c-1.4-3.2-5.2-4.5-8.3-3.1
							c-0.6,0.3-0.9,1-0.6,1.7s1,0.9,1.7,0.6l0,0c1.9-0.9,4.1,0,5,1.8c0,0,0,0,0,0C246,71,246.5,71.3,247,71.3z"/>
						<path class="st44" d="M213.3,73.9c0.5,0,1-0.4,1.1-0.9c0.6-2,2.6-3.1,4.6-2.6c0.7,0.2,1.4-0.2,1.6-0.9s-0.2-1.4-0.9-1.6
							c-3.3-0.9-6.8,1-7.8,4.3c-0.2,0.7,0.2,1.4,0.9,1.6C213,73.9,213.2,73.9,213.3,73.9L213.3,73.9z"/>
					</g>
					<circle class="st45" cx="213.4" cy="42.4" r="19.7"/>
					<path class="st45" d="M200.3,50.7l5.3-0.4l0,0l2.3,29.7c0.1,1.5-1,2.8-2.5,2.9l0,0c-1.5,0.1-2.8-1-2.9-2.5L200.3,50.7
						L200.3,50.7L200.3,50.7z"/>
					<path class="st45" d="M250.3,46.2l5.3-0.4l0,0l2.3,30.4c0.1,1.5-1,2.8-2.5,2.9l0,0c-1.5,0.1-2.8-1-2.9-2.5L250.3,46.2
						L250.3,46.2z"/>
					<g>
						<path class="st32" d="M229.9,93.3l16.9-1.3l0,0l0.3,4c0.3,4-2.7,7.5-6.7,7.8l0,0l-7.3,0.6c-1.3,0.1-2.4-0.9-2.5-2.1l0,0
							L229.9,93.3L229.9,93.3z"/>
						
							<rect x="229.7" y="92.6" transform="matrix(0.9971 -7.579670e-02 7.579670e-02 0.9971 -6.4948 18.3499)" class="st33" width="17.6" height="4.4"/>
						<path class="st34" d="M246.4,99.7c-2-1.8-5-1.6-6.8,0.4c-0.9,1-1.3,2.2-1.2,3.5c0,0.1,0,0.2,0,0.3l1.9-0.1
							C243,103.7,245.3,102.1,246.4,99.7z"/>
					</g>
					<path class="st43" d="M223.5,81.6c-0.5,0-1-0.3-1.2-0.8c-0.5-1.5-2.1-2.4-3.6-1.9c-1.1,0.3-1.8,1.2-2,2.3
						c-0.1,0.6-0.6,1.1-1.3,1s-1.1-0.6-1-1.3c0,0,0,0,0,0c0.4-2.8,3-4.7,5.8-4.3c2,0.3,3.6,1.7,4.2,3.6c0.2,0.6-0.2,1.2-0.7,1.4
						C223.6,81.5,223.5,81.5,223.5,81.6L223.5,81.6z"/>
					<path class="st43" d="M244.1,80c-0.5,0-1-0.3-1.2-0.8c-0.5-1.5-2.1-2.4-3.6-1.9c-1.1,0.3-1.8,1.2-2,2.3c-0.1,0.6-0.7,1-1.3,1
						c-0.6-0.1-1-0.7-1-1.3l0,0c0.4-2.8,3-4.7,5.8-4.3c2,0.3,3.6,1.7,4.2,3.6c0.2,0.6-0.2,1.2-0.8,1.4C244.3,80,244.2,80,244.1,80
						L244.1,80z"/>
					<path class="st45" d="M243.6,32.9l-25.8-2l2,26.1l36.4-2.8l-0.7-9.5C255.1,38.5,250,33.4,243.6,32.9z"/>
				</g>
			</g>
			<g>
				<g>
					<rect x="193.4" y="286.6" class="st46" width="8" height="21"/>
					<rect x="203.7" y="286.6" class="st46" width="8" height="21"/>
					<path class="st47" d="M189.8,263.2l25.3,0.2c0.5,0,0.9-0.4,0.9-0.9c0,0,0,0,0,0l0.2-20.2c0-6.3-5-11.4-11.2-11.4l-4.5,0
						c-6.3,0-11.4,5-11.4,11.2l-0.2,20.2C188.9,262.8,189.3,263.2,189.8,263.2C189.8,263.2,189.8,263.2,189.8,263.2z"/>
					<path class="st47" d="M219.3,287.3l-33.4,0c-1.5,0-2.8-1.2-2.8-2.8c0-0.2,0-0.5,0.1-0.7l5.8-23h27.2l5.8,23
						c0.4,1.5-0.5,3-2,3.4C219.7,287.3,219.5,287.3,219.3,287.3z"/>
					<line class="st48" x1="193.5" y1="262.1" x2="211.6" y2="262.1"/>
					<circle class="st44" cx="228.4" cy="183.3" r="8.5"/>
					<circle class="st44" cx="215.4" cy="177.3" r="8.5"/>
					<circle class="st44" cx="224" cy="176.1" r="11.8"/>
					<circle class="st0" cx="213.5" cy="187.7" r="10.5"/>
					<g>
						<path class="st46" d="M220.4,258.2c2.2,0.2,4.2-1.4,4.5-3.6c0.1-1-0.2-2-0.7-2.8l-5-6.9c-1.3-1.8-3.8-2.3-5.7-1
							c-1.8,1.3-2.3,3.8-1,5.7c0,0,0,0.1,0.1,0.1l5,6.9C218.2,257.5,219.3,258.1,220.4,258.2z"/>
						<path class="st47" d="M211.6,250.6l-6.2-8.3c-2-2.7-1.5-6.6,1.2-8.6l0,0c2.7-2,6.6-1.5,8.6,1.2l6.2,8.3c0.5,0.6,0.3,1.5-0.3,2
							l-7.5,5.6C212.9,251.4,212,251.3,211.6,250.6L211.6,250.6z"/>
						<path class="st46" d="M211.6,269.5C211.6,269.5,211.6,269.5,211.6,269.5l12.2-12.4c1.6-1.6,1.6-4.2,0-5.8
							c-1.6-1.6-4.2-1.6-5.8,0l-12.1,12.3c-1.6,1.6-1.6,4.2,0,5.8C207.4,271.1,210,271.1,211.6,269.5L211.6,269.5z"/>
						<path class="st46" d="M205.2,260L205.2,260c0.3-0.8,1.3-1.3,2.1-1l3,1.1c0.8,0.3,1.3,1.3,1,2.1l0,0c-0.3,0.8-1.3,1.3-2.1,1
							l-3-1.1C205.3,261.8,204.9,260.8,205.2,260z"/>
					</g>
					<g>
						<path class="st46" d="M184.6,258.3c-2.2,0.3-4.3-1.4-4.5-3.6c-0.1-1,0.1-2,0.7-2.8l4.9-7c1.3-1.8,3.9-2.2,5.7-0.9
							c1.8,1.3,2.2,3.8,1,5.6l-4.9,7C186.8,257.6,185.7,258.2,184.6,258.3z"/>
						<path class="st47" d="M183.5,243.4l6.2-8.4c2-2.7,5.9-3.3,8.6-1.3l0,0c2.7,2,3.3,5.9,1.3,8.6l-6.2,8.4c-0.5,0.6-1.4,0.8-2,0.3
							l-7.6-5.6C183.2,244.9,183,244,183.5,243.4L183.5,243.4z"/>
						<path class="st46" d="M193.5,269.6L193.5,269.6l-12.2-12.3c-1.6-1.6-1.6-4.2,0-5.8s4.2-1.6,5.8,0l0,0l12.2,12.2
							c1.6,1.6,1.5,4.2-0.1,5.8C197.5,271.1,195.1,271.1,193.5,269.6z"/>
						<path class="st46" d="M193.7,262.3L193.7,262.3c-0.3-0.8,0.1-1.8,0.9-2.1l3-1.2c0.8-0.3,1.8,0.1,2.1,0.9l0,0
							c0.3,0.8-0.1,1.8-0.9,2.1l-3,1.2C195,263.6,194,263.1,193.7,262.3z"/>
					</g>
					<path class="st49" d="M202,237.9L202,237.9c-2.5,0-4.5-2.1-4.5-4.6l0,0l0.1-9.4l0,0l9.1,0.1l0,0l-0.1,9.4
						C206.5,235.9,204.5,238,202,237.9z"/>
					<circle class="st49" cx="221.9" cy="216" r="6.5"/>
					<circle class="st49" cx="182.3" cy="215" r="6.5"/>
					<circle class="st46" cx="202.3" cy="212.7" r="21.3"/>
					<path class="st50" d="M205,228c1.8,0,3.6-0.4,5.3-1.2c0.6-0.3,0.9-1,0.7-1.7c-0.3-0.6-1-0.9-1.7-0.7c0,0,0,0-0.1,0
						c-1.8,0.8-3.7,1.1-5.6,0.8c-0.7-0.1-1.3,0.4-1.4,1.1s0.4,1.3,1.1,1.4C203.8,228,204.4,228,205,228z"/>
					<g>
						<circle class="st51" cx="210.7" cy="212" r="2.2"/>
						<circle class="st51" cx="191.5" cy="211.9" r="2.2"/>
					</g>
					<path class="st44" d="M215.3,209.5c0.8,0,1.4-0.7,1.4-1.5c0-0.2,0-0.3-0.1-0.5c-0.8-2.2-3.2-3.3-5.4-2.5
						c-0.8,0.3-1.2,1.1-0.9,1.8c0.3,0.8,1.1,1.2,1.8,0.9c0,0,0,0,0,0c0.7-0.2,1.4,0.1,1.7,0.8C214.1,209.1,214.7,209.5,215.3,209.5z
						"/>
					<path class="st44" d="M188.7,209.2c0.6,0,1.1-0.4,1.4-0.9c0.3-0.7,1-1,1.7-0.8c0,0,0,0,0,0c0.8,0.3,1.6-0.1,1.8-0.9
						c0.2-0.7-0.1-1.5-0.8-1.8c-2.2-0.8-4.6,0.3-5.4,2.4c-0.3,0.7,0.1,1.6,0.8,1.9C188.4,209.2,188.6,209.2,188.7,209.2L188.7,209.2
						z"/>
					<ellipse class="st52" cx="202" cy="219.5" rx="6" ry="2.2"/>
					<circle class="st44" cx="221.9" cy="195.7" r="6.4"/>
					<ellipse class="st44" cx="198.7" cy="184.9" rx="10.6" ry="10.2"/>
					<circle class="st44" cx="212.3" cy="189.2" r="8.5"/>
					<circle class="st44" cx="224.9" cy="204.5" r="5.6"/>
					<circle class="st44" cx="179.5" cy="202.9" r="6.2"/>
					<circle class="st44" cx="185.6" cy="191.8" r="8.5"/>
					<g>
						<path class="st22" d="M187.7,307.6h13.7l0,0v5.3c0,1-0.8,1.7-1.7,1.7l0,0H185c-1,0-1.7-0.8-1.7-1.7l0,0V312
							C183.2,309.6,185.2,307.6,187.7,307.6z"/>
						<path class="st46" d="M187.7,307.6h4.3l0,0v1.4c0,1.2-1,2.1-2.1,2.1l0,0c-1.2,0-2.1-1-2.1-2.1L187.7,307.6L187.7,307.6z"/>
					</g>
					<g>
						<path class="st22" d="M220.1,314.6l-14.7,0c-1,0-1.7-0.8-1.7-1.7l0,0l0-5.3l0,0l13.7,0c2.4,0,4.4,2,4.4,4.4l0,0.9
							C221.9,313.9,221.1,314.6,220.1,314.6z"/>
						<path class="st46" d="M212.8,307.6h4.3l0,0v1.4c0,1.2-1,2.1-2.1,2.1l0,0c-1.2,0-2.1-1-2.1-2.1L212.8,307.6L212.8,307.6z"/>
					</g>
				</g>
				<path class="st44" d="M222.4,208.4h3.3l0,0v6.4c0,0.9-0.7,1.7-1.7,1.7h0l0,0c-0.9,0-1.7-0.7-1.7-1.7v0L222.4,208.4L222.4,208.4z
					"/>
				<path class="st44" d="M178.4,208.4h3.3l0,0v6.4c0,0.9-0.7,1.7-1.7,1.7h0l0,0c-0.9,0-1.7-0.7-1.7-1.7v0L178.4,208.4L178.4,208.4z
					"/>
			</g>
			<g>
				<g>
					<rect x="319.9" y="199.8" class="st23" width="7.5" height="105.9"/>
					<rect x="319.9" y="199.8" class="st53" width="7.5" height="5.5"/>
				</g>
				<path class="st23" d="M307.9,305.7h31.4c5.8,0,10.5,4.7,10.5,10.5v1.8c0,0.8-0.7,1.5-1.5,1.5H299c-0.8,0-1.5-0.7-1.5-1.5v-1.8
					C297.5,310.4,302.2,305.7,307.9,305.7C307.9,305.7,307.9,305.7,307.9,305.7z"/>
				<g>
					<path class="st23" d="M299.8,119.4h47.7c4.3,0,7.8,3.5,7.8,7.8V192c0,4.3-3.5,7.8-7.8,7.8h-47.7c-4.3,0-7.8-3.5-7.8-7.8v-64.8
						C292,122.9,295.5,119.4,299.8,119.4z"/>
					<path class="st54" d="M347,131.2v56.9c0,0.3-0.3,0.6-0.6,0.6h-45.6c-0.3,0-0.6-0.3-0.6-0.6v-56.9c0-0.3,0.3-0.6,0.6-0.6h45.6
						C346.8,130.6,347,130.8,347,131.2z"/>
					<circle class="st53" cx="323.6" cy="194.8" r="1.9"/>
					<path class="st47" d="M323.6,146.3c-10.3,0-12.9,2.6-12.9,12.9s2.6,12.9,12.9,12.9s12.9-2.6,12.9-12.9S333.9,146.3,323.6,146.3
						z M329.6,157l-6.6,6.6c-0.6,0.6-1.5,0.6-2.1,0l-3.2-3.2c-0.6-0.6-0.6-1.5,0-2.1c0.6-0.6,1.5-0.6,2.1,0l2.1,2.1l5.6-5.6
						c0.6-0.6,1.5-0.6,2.1,0C330.2,155.4,330.2,156.3,329.6,157C329.6,156.9,329.6,156.9,329.6,157z"/>
				</g>
			</g>
		</g>
	</g>
</g>
<g>
	<defs>
		<path id="SVGID_7_" d="M424.7,262h290.1c13.7,0,24.7,11.1,24.7,24.7v254.1c0,13.7-11.1,24.7-24.7,24.7H424.7
			c-13.7,0-24.7-11.1-24.7-24.7V286.7C399.9,273.1,411,262,424.7,262z"/>
	</defs>
	<clipPath id="SVGID_8_">
		<use xlink:href="#SVGID_7_"  style="overflow:visible;"/>
	</clipPath>
	<g class="st55">
		<g>
			<g>
				<g>
					<g>
						<path class="st56" d="M613.9,445.3c-0.4,0.6-1.1,1.1-1.8,1.3l-7.4,2.2c-1.8,0.5-3.7-0.5-4.2-2.3c-0.5-1.8,0.5-3.6,2.3-4.2
							l7.4-2.2c1.8-0.5,3.7,0.5,4.2,2.3C614.7,443.4,614.5,444.5,613.9,445.3L613.9,445.3z"/>
						<g>
							<path class="st56" d="M614.8,462c-0.1,0.1-0.1,0.2-0.2,0.2c-2.8,3.7-8.1,4.4-11.8,1.6c-59.7-45.2-46.8-74.8-45.2-78.1l15,7.7
								c0.1-0.1,0.1-0.2,0.2-0.3c-0.1,0.2-7.8,20.9,40.2,57.2C616.6,453.2,617.4,458.3,614.8,462z"/>
							<path class="st57" d="M555.6,418.2l-6.1-25.1c-1.9-7.8,2.9-15.8,10.7-17.7l0,0l0,0c7.8-1.9,15.8,2.9,17.7,10.7l0,0l6.1,25.1
								c0.3,1.2-0.4,2.4-1.7,2.7l-24,5.9C557.1,420.2,555.9,419.4,555.6,418.2L555.6,418.2z"/>
						</g>
					</g>
					<rect x="551.7" y="478.3" class="st58" width="15.9" height="116"/>
					<rect x="525.1" y="478.3" class="st56" width="15" height="116"/>
					<rect x="548.5" y="478.3" class="st59" width="22.3" height="99.2"/>
					<rect x="521.5" y="478.3" class="st59" width="22.3" height="99.2"/>
					<line class="st27" x1="570.8" y1="492.5" x2="521.5" y2="492.5"/>
					<rect x="521.5" y="478.3" class="st59" width="49.3" height="16.6"/>
					<path class="st57" d="M546.7,371.6L546.7,371.6c-16.1,0-29.2,13.1-29.2,29.2l1.1,9.1c1.9,15.7,2.2,31.6,0.7,47.4l-1.8,20.3
						c0,1.4,1.2,2.6,2.6,2.6c0,0,0,0,0,0h53.3c1.4,0,2.6-1.2,2.6-2.6l-1.9-21.4c-1.3-15-1.1-30.1,0.7-45.1l1.2-10.3
						C576,384.7,562.9,371.6,546.7,371.6z"/>
					<line class="st60" x1="530" y1="417.4" x2="565.1" y2="417.4"/>
					<g>
						<path class="st56" d="M513.3,462.9c-0.8,0-1.5-0.3-2.1-0.7l-6-4.7c-1.4-1.2-1.5-3.4-0.3-4.8c1.1-1.3,3.1-1.5,4.5-0.5l6,4.7
							c1.5,1.1,1.7,3.3,0.6,4.7C515.3,462.4,514.4,462.9,513.3,462.9L513.3,462.9z"/>
						<g>
							<path class="st56" d="M500.2,473.3c-0.1,0-0.2,0-0.3,0c-4.7-0.1-8.3-4-8.2-8.7c2.2-74.9,33.9-81.5,37.5-82l2.4,16.7
								c0.1,0,0.2,0,0.3-0.1c-0.2,0.1-21.6,5.8-23.3,65.9C508.5,469.6,504.8,473.3,500.2,473.3z"/>
							<path class="st57" d="M501.7,399.7l16.9-19.6c5.3-6.1,14.5-6.8,20.6-1.5l0,0l0,0c6.1,5.3,6.8,14.5,1.5,20.6l0,0l-16.9,19.6
								c-0.8,0.9-2.2,1-3.2,0.2l-18.7-16.2C500.9,402.1,500.8,400.6,501.7,399.7z"/>
						</g>
					</g>
					<path class="st23" d="M508,320.3h5.2l0,0v29.9c0,1.4-1.2,2.6-2.6,2.6l0,0c-1.4,0-2.6-1.2-2.6-2.6L508,320.3L508,320.3z"/>
					<path class="st23" d="M579.7,320.3h6l0,0v29.5c0,1.7-1.4,3-3,3l0,0c-1.7,0-3-1.4-3-3L579.7,320.3L579.7,320.3L579.7,320.3z"/>
					<path class="st23" d="M517.3,325.4c11.1,13.6,9,33.6-4.6,44.7c-4.2,3.4-9.3,5.7-14.7,6.6l-0.1,0c-1.8,0.3-3.1,2-2.8,3.8
						c0.1,0.9,0.6,1.7,1.3,2.2c14.2,10.4,34,7.3,44.4-6.9c10.4-14.2,7.3-34-6.9-44.4C529,327.9,523.3,325.8,517.3,325.4z"/>
					<path class="st58" d="M538.7,365.8h15.4l0,0v12.4c0,4.3-3.5,7.7-7.7,7.7l0,0c-4.3,0-7.7-3.5-7.7-7.7L538.7,365.8L538.7,365.8z"
						/>
					<path class="st23" d="M546.9,273.7L546.9,273.7c21.5,0,38.9,17.4,38.9,38.9v21.5l0,0H508l0,0v-21.5
						C508,291.1,525.4,273.7,546.9,273.7z"/>
					<circle class="st58" cx="513.3" cy="334.1" r="10.6"/>
					<circle class="st58" cx="579.7" cy="334.1" r="10.6"/>
					<path class="st56" d="M513.3,314.7v24.8c0,18.3,14.9,33.2,33.2,33.2l0,0c18.3,0,33.2-14.9,33.2-33.2c0,0,0,0,0,0v-24.8
						l-17.2-16.1L513.3,314.7z"/>
					<path class="st61" d="M552.4,346.3h-3.8c-0.9,0-1.7-0.7-1.7-1.6c0-0.9,0.7-1.7,1.6-1.7c0,0,0.1,0,0.1,0h3.6v-6.4
						c0-0.9,0.7-1.7,1.6-1.7s1.7,0.7,1.7,1.6c0,0,0,0.1,0,0.1v6.6C555.6,344.9,554.2,346.3,552.4,346.3z"/>
					<path class="st23" d="M562.6,287.1l-52,20.2c0.1,0.3,0.2,0.7,0.3,1c3,9.1,17.5,12.6,32.3,7.7c14.8-4.9,24.4-16.3,21.3-25.4
						C564.1,289.3,563.5,288.1,562.6,287.1z"/>
					<path class="st23" d="M585.5,314.5L561,294.6c-0.1,0.1-0.3,0.3-0.4,0.4c-3.6,4.1-1.3,12.1,5.3,18c6.6,5.9,14.8,7.4,18.5,3.3
						C584.8,315.8,585.2,315.2,585.5,314.5z"/>
					<circle class="st62" cx="509" cy="341.8" r="3.1"/>
					<circle class="st62" cx="584.4" cy="341.8" r="3.1"/>
					<circle class="st23" cx="566.4" cy="334.9" r="3.5"/>
					<circle class="st23" cx="537.7" cy="334.9" r="3.5"/>
					<g>
						<g>
							<path class="st63" d="M558.7,352.6c1.2,0,2.1,0.9,2.2,2.1c0,0.1,0,0.2,0,0.3c-1.3,7.4-8.4,12.2-15.8,10.9
								c-5.5-1-9.9-5.3-10.9-10.9c-0.2-1.2,0.6-2.2,1.8-2.4c0.1,0,0.2,0,0.3,0L558.7,352.6z"/>
							<path class="st34" d="M550,360.7c-3,0.9-5.2,3.1-5.3,5.1c4.6,1,9.3-0.5,12.6-3.9C556,360.4,553.1,359.8,550,360.7z"/>
						</g>
						<path class="st33" d="M558.9,352.5h-22.8c-1.2,0-2.2,0.9-2.2,2.1c0,0.1,0,0.2,0,0.4c0,0.2,0.1,0.4,0.1,0.6
							c0.2,1,1.1,1.6,2.1,1.7h22.7c1,0,1.8-0.7,2.1-1.7c0-0.2,0.1-0.4,0.1-0.6c0.2-1.2-0.6-2.3-1.8-2.4
							C559.2,352.5,559,352.5,558.9,352.5z"/>
					</g>
				</g>
				<path class="st64" d="M526.7,323.9c0,0,3.1-2.9,9.2-2.6"/>
				<path class="st64" d="M568.4,324.1c0,0-3.1-2.9-9.2-2.6"/>
				<g>
					<path class="st65" d="M554.8,400.6h9.6c1.9,0,3.4,1.5,3.4,3.4v5c0,1.9-1.5,3.4-3.4,3.4h-9.6c-1.9,0-3.4-1.5-3.4-3.4v-5
						C551.4,402.1,552.9,400.6,554.8,400.6z"/>
					<g>
						<line class="st66" x1="556" y1="404.7" x2="561.9" y2="404.7"/>
						<line class="st66" x1="556" y1="408.3" x2="559" y2="408.3"/>
					</g>
				</g>
			</g>
			<g>
				<g>
					<g>
						<rect x="491.9" y="550.6" class="st59" width="18.3" height="10.2"/>
						<rect x="502.9" y="543.6" class="st59" width="11" height="60.8"/>
						<rect x="488.7" y="543.6" class="st59" width="11" height="60.8"/>
						<path class="st47" d="M518.8,554.2l-34.8,0.3c-0.7,0-1.3-0.6-1.3-1.3l-0.3-38.8c-0.1-8.6,6.9-15.6,15.5-15.7c0,0,0,0,0,0
							l6.2,0c8.6-0.1,15.6,6.9,15.7,15.5c0,0,0,0,0,0l0.3,38.8C520.1,553.7,519.5,554.2,518.8,554.2
							C518.8,554.2,518.8,554.2,518.8,554.2z"/>
						<circle class="st51" cx="465.7" cy="433.3" r="11.7"/>
						<circle class="st51" cx="483.6" cy="425" r="11.7"/>
						<circle class="st51" cx="471.8" cy="423.5" r="16.2"/>
						<circle class="st0" cx="486.2" cy="439.4" r="14.4"/>
						<path class="st58" d="M495.7,489.4l12.5-0.1l0,0l0.1,12.9c0,3.5-2.8,6.3-6.2,6.3l0,0c-3.5,0-6.3-2.8-6.3-6.2L495.7,489.4
							L495.7,489.4L495.7,489.4z"/>
						<circle class="st58" cx="474.7" cy="478.3" r="9"/>
						<circle class="st58" cx="529.1" cy="476.9" r="9"/>
						
							<ellipse transform="matrix(0.1602 -0.9871 0.9871 0.1602 -46.3718 892.9891)" class="st56" cx="501.6" cy="473.7" rx="29.3" ry="29.3"/>
						<path class="st61" d="M497.5,493.3c-2.5-0.4-4.8-1.4-6.9-2.8c-0.8-0.6-0.9-1.7-0.4-2.4c0.5-0.7,1.6-0.9,2.3-0.4
							c2.2,1.5,4.8,2.4,7.4,2.4c1,0.1,1.7,0.9,1.6,1.9c-0.1,0.9-0.8,1.6-1.7,1.6C499.1,493.5,498.3,493.4,497.5,493.3z"/>
						<g>
							<circle class="st51" cx="492.6" cy="468" r="3.1"/>
							
								<ellipse transform="matrix(0.1602 -0.9871 0.9871 0.1602 -25.8088 905.3344)" class="st51" cx="519.1" cy="467.8" rx="3.1" ry="3.1"/>
						</g>
						<path class="st51" d="M485.6,465.5c-1.1,0-2-0.9-2-2c0-0.2,0-0.5,0.1-0.7c1.1-3,4.4-4.6,7.4-3.5c1,0.4,1.6,1.5,1.2,2.5
							s-1.5,1.6-2.5,1.2c-0.9-0.3-2,0.2-2.3,1.1C487.2,465,486.5,465.5,485.6,465.5z"/>
						<path class="st51" d="M522.1,465.2c-0.8,0-1.6-0.5-1.9-1.3c-0.4-0.9-1.4-1.4-2.3-1.1c0,0,0,0,0,0c-1,0.4-2.2-0.1-2.6-1.2
							c-0.4-1,0.1-2.2,1.2-2.6l0,0c3-1.1,6.3,0.4,7.5,3.4c0.4,1-0.1,2.2-1.2,2.6C522.6,465.1,522.4,465.2,522.1,465.2L522.1,465.2z"
							/>
						<ellipse class="st61" cx="503.9" cy="480.7" rx="8.2" ry="3.1"/>
						<circle class="st51" cx="474.7" cy="450.4" r="8.8"/>
						<ellipse class="st51" cx="506.6" cy="435.6" rx="14.6" ry="14"/>
						<circle class="st51" cx="487.8" cy="441.5" r="11.7"/>
						<circle class="st51" cx="470.5" cy="462.5" r="7.7"/>
						<circle class="st51" cx="533" cy="460.3" r="8.6"/>
						<circle class="st51" cx="524.7" cy="445" r="11.7"/>
						<path class="st51" d="M471.7,479.1L471.7,479.1c-1.3,0-2.3-1-2.3-2.3l0-8.8l0,0l4.6,0l0,0l0,8.8
							C474,478,473,479.1,471.7,479.1z"/>
						<path class="st51" d="M532.3,479.1L532.3,479.1c-1.3,0-2.3-1-2.3-2.3v0l0-8.8l0,0l4.6,0l0,0l0,8.8
							C534.6,478,533.5,479.1,532.3,479.1z"/>
					</g>
					<g>
						<path class="st56" d="M524.8,534.5c2.6,0.3,5-1.6,5.3-4.3c0.1-1.2-0.2-2.4-0.9-3.3l-5.9-8.2c-1.6-2.2-4.6-2.7-6.7-1.1
							c-2.2,1.6-2.7,4.6-1.1,6.7l5.9,8.2C522.2,533.6,523.5,534.3,524.8,534.5z"/>
						<path class="st47" d="M514.4,525.5l-7.4-9.9c-2.4-3.2-1.7-7.8,1.5-10.2l0,0c3.2-2.4,7.8-1.7,10.2,1.5l7.4,9.9
							c0.6,0.8,0.4,1.8-0.3,2.4l-8.9,6.7C516,526.4,514.9,526.3,514.4,525.5L514.4,525.5z"/>
						<path class="st56" d="M514.4,547.9L514.4,547.9l14.4-14.6c1.9-1.9,1.8-5-0.1-6.8c-1.9-1.9-5-1.8-6.8,0.1L507.6,541
							c-1.9,1.9-1.9,4.9,0,6.8C509.5,549.7,512.5,549.7,514.4,547.9z"/>
						<path class="st56" d="M506.8,536.6L506.8,536.6c0.4-1,1.5-1.5,2.5-1.1l3.6,1.3c1,0.4,1.5,1.5,1.1,2.5l0,0
							c-0.4,1-1.5,1.5-2.5,1.1L508,539C507,538.7,506.5,537.6,506.8,536.6z"/>
					</g>
					<g>
						<path class="st56" d="M478.6,533.5c-2.6,0.3-5-1.6-5.3-4.3c-0.1-1.2,0.2-2.4,0.9-3.3l5.8-8.2c1.5-2.2,4.6-2.7,6.7-1.1
							s2.7,4.6,1.1,6.7l-5.8,8.2C481.2,532.6,479.9,533.4,478.6,533.5z"/>
						<path class="st47" d="M477.3,515.8l7.3-9.9c2.4-3.2,6.9-3.9,10.2-1.5l0,0c3.2,2.4,3.9,6.9,1.5,10.2l-7.3,9.9
							c-0.6,0.8-1.6,0.9-2.4,0.4l-9-6.6C476.9,517.7,476.7,516.6,477.3,515.8L477.3,515.8z"/>
						<path class="st56" d="M489.1,546.9L489.1,546.9l-14.5-14.6c-1.9-1.9-1.9-4.9,0-6.8c1.9-1.9,4.9-1.9,6.8,0l0,0l14.4,14.5
							c1.9,1.9,1.9,4.9,0,6.8C494,548.7,491,548.7,489.1,546.9z"/>
						<path class="st56" d="M489.4,538.2L489.4,538.2c-0.4-1,0.1-2.1,1.1-2.5l3.6-1.4c1-0.4,2.1,0.1,2.5,1.1l0,0
							c0.4,1-0.1,2.1-1.1,2.5l-3.6,1.4C490.8,539.7,489.7,539.2,489.4,538.2z"/>
					</g>
				</g>
				<g>
					<path class="st65" d="M503,512.7h9.6c1.9,0,3.4,1.5,3.4,3.4v5c0,1.9-1.5,3.4-3.4,3.4H503c-1.9,0-3.4-1.5-3.4-3.4v-5
						C499.5,514.2,501.1,512.7,503,512.7z"/>
					<g>
						<line class="st66" x1="504.2" y1="516.8" x2="510" y2="516.8"/>
						<line class="st66" x1="504.2" y1="520.4" x2="507.1" y2="520.4"/>
					</g>
				</g>
			</g>
			<g>
				<g>
					<g>
						<path class="st56" d="M627.8,514c-3.2,0.9-5.1,4.2-4.2,7.4c0.7,2.5,2.9,4.3,5.5,4.4c1.1,0.1,25.4,1.9,40.5,34.1
							c1.4,3,5,4.4,8,3c3-1.4,4.4-5,3-8c0,0,0-0.1,0-0.1c-18.3-39.1-49.5-41-50.8-41C629,513.7,628.4,513.8,627.8,514z"/>
						<path class="st59" d="M655.8,541.7l-13.2-8.1c-4.3-2.6-5.6-8.2-3-12.5c0,0,0,0,0,0l0,0c2.6-4.3,8.2-5.6,12.5-3c0,0,0,0,0,0
							l13.2,8.1c1,0.6,1.3,1.9,0.7,2.9l-7.3,11.9C658.1,542,656.8,542.3,655.8,541.7L655.8,541.7z"/>
						<path class="st56" d="M667.8,559.8c0.6-0.2,1.2-0.7,1.5-1.3l3.5-5.9c0.8-1.4,0.3-3.3-1.1-4.1c-1.4-0.8-3.2-0.3-4,1.1l-3.5,5.9
							c-0.8,1.4-0.4,3.3,1.1,4.1C666,560.1,667,560.1,667.8,559.8z"/>
					</g>
					<g>
						<path class="st56" d="M638,514c3.2,0.9,5.1,4.2,4.2,7.4c-0.7,2.5-2.9,4.3-5.5,4.4c-1.1,0.1-25.4,1.9-40.5,34.1
							c-1.4,3-5,4.4-8,3c-3-1.4-4.4-5-3-8c0,0,0-0.1,0-0.1c18.3-39.1,49.5-41,50.8-41C636.7,513.7,637.4,513.8,638,514z"/>
						<path class="st59" d="M600.4,526.1l13.2-8.1c4.3-2.6,9.9-1.3,12.5,3c0,0,0,0,0,0l0,0c2.6,4.3,1.3,9.9-3,12.5c0,0,0,0,0,0
							l-13.2,8.1c-1,0.6-2.3,0.3-2.9-0.7l-7.3-11.9C599.1,528,599.4,526.7,600.4,526.1L600.4,526.1z"/>
						<path class="st56" d="M597.9,559.8c-0.6-0.2-1.2-0.7-1.5-1.3l-3.5-5.9c-0.8-1.4-0.3-3.3,1.1-4.1c1.4-0.8,3.2-0.3,4,1.1
							l3.5,5.9c0.8,1.4,0.4,3.3-1.1,4.1C599.7,560.1,598.8,560.1,597.9,559.8z"/>
					</g>
					<path class="st67" d="M626.3,599.6l-12.2-0.9c-1.4-0.1-2.5-1.3-2.4-2.7l1.7-25l0-1.5l36.5,0.3l0,1.5l1.4,25
						c0.1,1.4-1,2.6-2.4,2.7l-12.2,0.7c-1.4,0.1-2.6-1-2.7-2.4c0,0,0,0,0,0l-0.8-13.6l-3.2,0l-0.9,13.6
						C629,598.6,627.7,599.7,626.3,599.6C626.3,599.6,626.3,599.6,626.3,599.6z"/>
					<path class="st59" d="M650.5,570.9l-37.5-0.3c-0.8,0-1.4-0.6-1.4-1.4v0l0.3-39.1c0.1-9.3,7.6-16.7,16.9-16.7l6.6,0
						c9.3,0.1,16.7,7.6,16.7,16.9l-0.3,39.1C651.8,570.3,651.2,570.9,650.5,570.9z"/>
					<g>
						<path class="st58" d="M632,524.5L632,524.5c-3.7,0-6.7-3.1-6.7-6.8l0.1-13.9l0,0l13.5,0.1l0,0l-0.1,13.9
							C638.8,521.5,635.8,524.5,632,524.5C632,524.5,632,524.5,632,524.5z"/>
						<circle class="st51" cx="629.3" cy="470.4" r="31.4"/>
						<circle class="st51" cx="644.5" cy="473.5" r="23.5"/>
						<circle class="st58" cx="661.6" cy="491.9" r="9.7"/>
						<circle class="st58" cx="602.9" cy="490.4" r="9.7"/>
						<circle class="st56" cx="632.6" cy="487" r="31.6"/>
						<path class="st61" d="M631.6,500.3c2.7,0,5.4-0.6,7.8-1.7c0.9-0.4,1.4-1.6,0.9-2.5c-0.4-0.9-1.6-1.4-2.5-0.9l0,0
							c-2.6,1.2-5.5,1.6-8.3,1.2c-1-0.1-2,0.6-2.1,1.6c-0.1,1,0.6,2,1.6,2.1C629.9,500.3,630.8,500.3,631.6,500.3z"/>
						<g>
							<circle class="st51" cx="643.5" cy="481.6" r="3.3"/>
							<circle class="st51" cx="615" cy="481.4" r="3.3"/>
						</g>
						
							<ellipse transform="matrix(0.9477 -0.3191 0.3191 0.9477 -114.6542 223.8367)" class="st51" cx="625.7" cy="461.8" rx="26.9" ry="10.8"/>
						<path class="st51" d="M650.1,478.5c1.2,0,2.1-1,2.1-2.1c0-0.2,0-0.5-0.1-0.7c-1.2-3.2-4.7-4.9-8-3.7c-1.1,0.4-1.7,1.6-1.3,2.7
							c0.4,1.1,1.6,1.7,2.7,1.3c1-0.4,2.1,0.2,2.5,1.2C648.4,478,649.2,478.5,650.1,478.5z"/>
						<path class="st51" d="M615.7,476.1c0.7,0.5,1.7,0.5,2.4,0c0.9-0.6,2.1-0.4,2.7,0.5c0,0,0,0,0,0c0.7,1,2,1.2,3,0.5
							c1-0.7,1.2-2,0.5-3l0,0c-2-2.8-5.9-3.4-8.7-1.4c-1,0.7-1.2,2-0.5,3C615.3,475.8,615.4,476,615.7,476.1z"/>
						<ellipse class="st61" cx="628.6" cy="488.2" rx="8.9" ry="3.3"/>
					</g>
					<path class="st51" d="M653,451.4c0.9-1.2,2.2-2,3.6-2.3c0.8-0.2,1.5,0.3,1.7,1.1c0.1,0.4,0,0.8-0.3,1.2c-0.6,0.8-1,1.8-1.2,2.8
						c-0.3,1.5-0.2,3,0.5,4.3c0.7,1.4,1.9,2.4,3.3,3c-3.3,1.4-7.2-0.2-8.6-3.5C651.2,455.7,651.5,453.2,653,451.4L653,451.4z"/>
				</g>
				<g>
					<path class="st65" d="M634.9,530.3h9.6c1.9,0,3.4,1.5,3.4,3.4v5c0,1.9-1.5,3.4-3.4,3.4h-9.6c-1.9,0-3.4-1.5-3.4-3.4v-5
						C631.5,531.8,633.1,530.3,634.9,530.3z"/>
					<g>
						<line class="st66" x1="636.2" y1="534.4" x2="642" y2="534.4"/>
						<line class="st66" x1="636.2" y1="538" x2="639.1" y2="538"/>
					</g>
				</g>
			</g>
		</g>
	</g>
</g>
<g>
	<path class="st68" d="M439.6,175.1h117.6c3.5,0,6.3,2.8,6.3,6.3l0,0c0,3.5-2.8,6.3-6.3,6.3H439.6c-3.5,0-6.3-2.8-6.3-6.3l0,0
		C433.3,177.9,436.1,175.1,439.6,175.1z"/>
	<g>
		<defs>
			<path id="SVGID_9_" d="M425.7,8.5h289.6c13.7,0,24.7,11.1,24.7,24.7v179.6c0,13.7-11.1,24.7-24.7,24.7H425.7
				c-13.7,0-24.7-11.1-24.7-24.7V33.2C401,19.6,412.1,8.5,425.7,8.5z"/>
		</defs>
		<clipPath id="SVGID_10_">
			<use xlink:href="#SVGID_9_"  style="overflow:visible;"/>
		</clipPath>
		<g class="st69">
			<g>
				<g>
					<path class="st68" d="M589.9,175.1h101.6c3.5,0,6.3,2.8,6.3,6.3l0,0c0,3.5-2.8,6.3-6.3,6.3H589.9c-3.5,0-6.3-2.8-6.3-6.3l0,0
						C583.6,177.9,586.4,175.1,589.9,175.1z"/>
					<g>
						<path class="st23" d="M702.8,143l-14.9-42.1c-4.1-11.5-14.9-19.1-27.1-19.1h-31c-12.2,0-23,7.7-27.1,19.1L587.8,143
							c-5.3,14.9,2.5,31.3,17.5,36.6c3.1,1.1,6.3,1.7,9.6,1.7h60.9c15.9,0,28.7-12.9,28.7-28.7C704.4,149.3,703.9,146,702.8,143z"/>
						<path class="st70" d="M624.7,116.2H666c5.5,0,9.9,4.4,9.9,9.9v33.3c0,5.5-4.4,9.9-9.9,9.9h-41.2c-5.5,0-9.9-4.4-9.9-9.9v-33.3
							C614.8,120.6,619.2,116.2,624.7,116.2z"/>
						<path class="st70" d="M630.6,90.8h30.2c3.2,0,5.8,2.6,5.8,5.8l0,0c0,3.2-2.6,5.8-5.8,5.8h-30.2c-3.2,0-5.8-2.6-5.8-5.8l0,0
							C624.8,93.4,627.4,90.8,630.6,90.8z"/>
						<path class="st23" d="M630.6,150.1h30.2c3.2,0,5.8,2.6,5.8,5.8l0,0c0,3.2-2.6,5.8-5.8,5.8h-30.2c-3.2,0-5.8-2.6-5.8-5.8l0,0
							C624.8,152.7,627.4,150.1,630.6,150.1z"/>
						<path class="st71" d="M641.6,127.8h4.7c3.2,0,5.8,2.6,5.8,5.8l0,0c0,3.2-2.6,5.8-5.8,5.8h-4.7c-3.2,0-5.8-2.6-5.8-5.8l0,0
							C635.8,130.4,638.4,127.8,641.6,127.8z"/>
					</g>
					<g>
						<path class="st47" d="M660.3,155.6v44.9c0,2.3-1.9,4.1-4.1,4.1l0,0h-20.8c-2.3,0-4.1-1.9-4.1-4.1l0,0v-44.9
							C631.3,155.6,660.7,156,660.3,155.6z"/>
						<circle class="st72" cx="645" cy="189.8" r="8.9"/>
						<path class="st72" d="M639.8,175v-11.4c0-1.1,0.9-2,2-2h0c1.1,0,2,0.9,2,2V175c0,1.1-0.9,2-2,2h0
							C640.7,177,639.8,176.1,639.8,175z"/>
						<path class="st72" d="M647.6,175v-5.7c0-1.1,0.9-2,2-2h0c1.1,0,2,0.9,2,2v5.7c0,1.1-0.9,2-2,2h0
							C648.5,177,647.6,176.1,647.6,175z"/>
						<polyline class="st73" points="644.7,192.7 647,190.2 643.4,186.3 						"/>
					</g>
				</g>
				<g>
					<g>
						<path class="st23" d="M453.1,39.5h97.5c4.3,0,7.7,3.5,7.7,7.7v125.7c0,4.3-3.5,7.7-7.7,7.7h-97.5c-4.3,0-7.7-3.5-7.7-7.7V47.2
							C445.4,43,448.8,39.5,453.1,39.5z"/>
						<path class="st54" d="M463.7,59.9h76.4c1.2,0,2.3,1,2.3,2.3V158c0,1.2-1,2.3-2.3,2.3h-76.4c-1.2,0-2.3-1-2.3-2.3V62.2
							C461.4,60.9,462.4,59.9,463.7,59.9z"/>
						<path class="st74" d="M486.5,46.6h30.8c1.2,0,2.2,1,2.2,2.2v0c0,1.2-1,2.2-2.2,2.2h-30.8c-1.2,0-2.2-1-2.2-2.2v0
							C484.2,47.6,485.2,46.6,486.5,46.6z"/>
						<circle class="st74" cx="501.9" cy="169.9" r="2.4"/>
					</g>
					<path class="st47" d="M476.3,71.3h52.8c0.4,0,0.8,0.4,0.8,0.8V80c0,0.4-0.4,0.8-0.8,0.8h-52.8c-0.4,0-0.8-0.4-0.8-0.8v-7.8
						C475.5,71.7,475.8,71.3,476.3,71.3z"/>
					<path class="st75" d="M476.3,129.1h52.8c0.4,0,0.8,0.4,0.8,0.8v7.8c0,0.4-0.4,0.8-0.8,0.8h-52.8c-0.4,0-0.8-0.4-0.8-0.8v-7.8
						C475.5,129.5,475.8,129.1,476.3,129.1z"/>
					<g>
						<path class="st76" d="M476.7,84.3h13.5c0.7,0,1.2,0.5,1.2,1.2v8.8c0,0.7-0.5,1.2-1.2,1.2h-13.5c-0.7,0-1.2-0.5-1.2-1.2v-8.8
							C475.5,84.8,476,84.3,476.7,84.3z"/>
						<path class="st76" d="M495.7,84.3h13.5c0.7,0,1.2,0.5,1.2,1.2v8.8c0,0.7-0.5,1.2-1.2,1.2h-13.5c-0.7,0-1.2-0.5-1.2-1.2v-8.8
							C494.5,84.8,495,84.3,495.7,84.3z"/>
						<path class="st76" d="M514.7,84.3h13.5c0.7,0,1.2,0.5,1.2,1.2v8.8c0,0.7-0.5,1.2-1.2,1.2h-13.5c-0.7,0-1.2-0.5-1.2-1.2v-8.8
							C513.5,84.8,514,84.3,514.7,84.3z"/>
					</g>
					<g>
						<path class="st76" d="M476.7,99.3h13.5c0.7,0,1.2,0.5,1.2,1.2v8.8c0,0.7-0.5,1.2-1.2,1.2h-13.5c-0.7,0-1.2-0.5-1.2-1.2v-8.8
							C475.5,99.8,476,99.3,476.7,99.3z"/>
						<path class="st76" d="M495.7,99.3h13.5c0.7,0,1.2,0.5,1.2,1.2v8.8c0,0.7-0.5,1.2-1.2,1.2h-13.5c-0.7,0-1.2-0.5-1.2-1.2v-8.8
							C494.5,99.8,495,99.3,495.7,99.3z"/>
						<path class="st76" d="M514.7,99.3h13.5c0.7,0,1.2,0.5,1.2,1.2v8.8c0,0.7-0.5,1.2-1.2,1.2h-13.5c-0.7,0-1.2-0.5-1.2-1.2v-8.8
							C513.5,99.8,514,99.3,514.7,99.3z"/>
					</g>
					<g>
						<path class="st76" d="M476.7,114.2h13.5c0.7,0,1.2,0.5,1.2,1.2v8.8c0,0.7-0.5,1.2-1.2,1.2h-13.5c-0.7,0-1.2-0.5-1.2-1.2v-8.8
							C475.5,114.8,476,114.2,476.7,114.2z"/>
						<path class="st76" d="M495.7,114.2h13.5c0.7,0,1.2,0.5,1.2,1.2v8.8c0,0.7-0.5,1.2-1.2,1.2h-13.5c-0.7,0-1.2-0.5-1.2-1.2v-8.8
							C494.5,114.8,495,114.2,495.7,114.2z"/>
						<path class="st76" d="M514.7,114.2h13.5c0.7,0,1.2,0.5,1.2,1.2v8.8c0,0.7-0.5,1.2-1.2,1.2h-13.5c-0.7,0-1.2-0.5-1.2-1.2v-8.8
							C513.5,114.8,514,114.2,514.7,114.2z"/>
					</g>
					<line class="st77" x1="476" y1="66.8" x2="529.5" y2="66.8"/>
				</g>
				<path class="st42" d="M508.4,158.8c-6.4-1-12.5,3.4-13.5,9.8c0,0,0,0,0,0l-2.3,14.7c-0.1,0.9-1,1.6-1.9,1.4
					c-0.2,0-0.3-0.1-0.5-0.2c-0.7-0.3-1.1-1-1.1-1.7v-64.5c0-6.5-5.3-11.8-11.8-11.8h-1.7c-2,0-3.7,1.7-3.7,3.7c0,0,0,0,0,0v42.7
					c-3.4-3.3-8.8-3.3-12.2,0.1c-1.5,1.6-2.4,3.7-2.5,5.9c-4.4-1.7-9.4,0.4-11.2,4.8c-0.5,1.4-0.7,2.8-0.5,4.3
					c-4.7-0.4-8.9,3.2-9.3,7.9c-0.1,1.2,0.1,2.5,0.5,3.7c1.3,6.7,2.9,13.4,4.8,20c1.4,5.4,3.2,10.7,5.2,15.8
					c1.8,4.4,4.8,8.3,6.2,12.9c1.3,4.9,1.9,9.9,1.8,15c-0.1,6.4-0.7,12.9-0.1,19.3c11.5,0.1,22.9,0,34.4,0v-13.7
					c0-6.2,0.5-12.4,1.4-18.6l0.1-0.6c0.4-2.7,1.6-5.2,3.5-7.2l5.8-6.1c2.2-2.4,3.7-5.3,4.2-8.5l1.9-12.3l0.4-2.8l4.7-30.2
					C511.4,160.7,510.2,159.1,508.4,158.8z"/>
			</g>
		</g>
	</g>
</g>
<g>
	<defs>
		<path id="SVGID_11_" d="M31.4,364.5h321.6c13.7,0,24.7,11.1,24.7,24.7v152.6c0,13.7-11.1,24.7-24.7,24.7H31.4
			c-13.7,0-24.7-11.1-24.7-24.7V389.2C6.7,375.6,17.7,364.5,31.4,364.5z"/>
	</defs>
	<clipPath id="SVGID_12_">
		<use xlink:href="#SVGID_11_"  style="overflow:visible;"/>
	</clipPath>
	<g class="st78">
		<g>
			<path class="st68" d="M48.2,376.7h268.9c5.3,0,9.7,4.3,9.7,9.7v117.2c0,5.3-4.3,9.7-9.7,9.7H48.2c-5.3,0-9.7-4.3-9.7-9.7V386.4
				C38.6,381,42.9,376.7,48.2,376.7z"/>
			<path class="st68" d="M90.6,492.8h153.3l0,0v85.4c0,18.5-15,33.6-33.6,33.6c0,0,0,0,0,0h-86.2c-18.5,0-33.6-15-33.6-33.6l0,0
				L90.6,492.8L90.6,492.8z"/>
			<path class="st23" d="M119.3,495.2h153.3l0,0v85.4c0,18.5-15,33.6-33.6,33.6l0,0h-86.1c-18.5,0-33.6-15-33.6-33.6l0,0V495.2
				L119.3,495.2z"/>
			<path class="st39" d="M194.2,544.6l-29.9,5.5l0,0l-9.9-53.9c-1.5-8.3,4-16.2,12.2-17.7h0l0,0c8.3-1.5,16.2,4,17.7,12.2l0,0
				L194.2,544.6L194.2,544.6z"/>
			<path class="st39" d="M223.2,478.5L223.2,478.5c8.3,1.5,13.7,9.4,12.2,17.7l-9.9,53.9l0,0l-29.9-5.5l0,0l9.9-53.9
				C207,482.5,215,477,223.2,478.5C223.2,478.5,223.2,478.5,223.2,478.5z"/>
			<path class="st79" d="M62.7,389.8h268.9c5.3,0,9.7,4.3,9.7,9.7v117.2c0,5.3-4.3,9.7-9.7,9.7H62.7c-5.3,0-9.7-4.3-9.7-9.7V399.5
				C53.1,394.1,57.4,389.8,62.7,389.8z"/>
			<path class="st80" d="M138.4,468.1h98.4c3,0,5.5,2.5,5.5,5.5v40.1c0,3-2.5,5.5-5.5,5.5h-98.4c-3,0-5.5-2.5-5.5-5.5v-40.1
				C132.9,470.5,135.4,468.1,138.4,468.1z"/>
			<path class="st81" d="M239.9,597.6h-90.2l0,0v-25.9c0-17.5,14.2-31.6,31.6-31.6c0,0,0,0,0,0h27c17.5,0,31.6,14.2,31.6,31.6
				L239.9,597.6L239.9,597.6z"/>
			<path class="st82" d="M144.8,463.3h98.4c3,0,5.5,2.5,5.5,5.5v40.1c0,3-2.5,5.5-5.5,5.5h-98.4c-3,0-5.5-2.5-5.5-5.5v-40.1
				C139.3,465.7,141.8,463.3,144.8,463.3z"/>
			<path class="st83" d="M147.3,470.4h6.4c0.4,0,0.8,0.4,0.8,0.8v6.4c0,0.4-0.4,0.8-0.8,0.8h-6.4c-0.4,0-0.8-0.4-0.8-0.8v-6.4
				C146.5,470.8,146.8,470.4,147.3,470.4z"/>
			<path class="st83" d="M159.7,470.4h6.4c0.4,0,0.8,0.4,0.8,0.8v6.4c0,0.4-0.4,0.8-0.8,0.8h-6.4c-0.4,0-0.8-0.4-0.8-0.8v-6.4
				C158.9,470.8,159.3,470.4,159.7,470.4z"/>
			<path class="st83" d="M172.2,470.4h6.4c0.4,0,0.8,0.4,0.8,0.8v6.4c0,0.4-0.4,0.8-0.8,0.8h-6.4c-0.4,0-0.8-0.4-0.8-0.8v-6.4
				C171.3,470.8,171.7,470.4,172.2,470.4z"/>
			<path class="st83" d="M184.6,470.4h6.4c0.4,0,0.8,0.4,0.8,0.8v6.4c0,0.4-0.4,0.8-0.8,0.8h-6.4c-0.4,0-0.8-0.4-0.8-0.8v-6.4
				C183.8,470.8,184.1,470.4,184.6,470.4z"/>
			<path class="st83" d="M197,470.4h6.4c0.4,0,0.8,0.4,0.8,0.8v6.4c0,0.4-0.4,0.8-0.8,0.8H197c-0.4,0-0.8-0.4-0.8-0.8v-6.4
				C196.2,470.8,196.6,470.4,197,470.4z"/>
			<path class="st83" d="M209.4,470.4h6.4c0.4,0,0.8,0.4,0.8,0.8v6.4c0,0.4-0.4,0.8-0.8,0.8h-6.4c-0.4,0-0.8-0.4-0.8-0.8v-6.4
				C208.6,470.8,209,470.4,209.4,470.4z"/>
			<path class="st83" d="M221.9,470.4h6.4c0.4,0,0.8,0.4,0.8,0.8v6.4c0,0.4-0.4,0.8-0.8,0.8h-6.4c-0.4,0-0.8-0.4-0.8-0.8v-6.4
				C221.1,470.8,221.4,470.4,221.9,470.4z"/>
			<path class="st83" d="M234.3,470.4h6.4c0.4,0,0.8,0.4,0.8,0.8v6.4c0,0.4-0.4,0.8-0.8,0.8h-6.4c-0.4,0-0.8-0.4-0.8-0.8v-6.4
				C233.5,470.8,233.9,470.4,234.3,470.4z"/>
			<path class="st83" d="M147.3,484.8h6.4c0.4,0,0.8,0.4,0.8,0.8v6.4c0,0.4-0.4,0.8-0.8,0.8h-6.4c-0.4,0-0.8-0.4-0.8-0.8v-6.4
				C146.5,485.2,146.8,484.8,147.3,484.8z"/>
			<path class="st83" d="M159.7,484.8h6.4c0.4,0,0.8,0.4,0.8,0.8v6.4c0,0.4-0.4,0.8-0.8,0.8h-6.4c-0.4,0-0.8-0.4-0.8-0.8v-6.4
				C158.9,485.2,159.3,484.8,159.7,484.8z"/>
			<path class="st83" d="M172.2,484.8h6.4c0.4,0,0.8,0.4,0.8,0.8v6.4c0,0.4-0.4,0.8-0.8,0.8h-6.4c-0.4,0-0.8-0.4-0.8-0.8v-6.4
				C171.3,485.2,171.7,484.8,172.2,484.8z"/>
			<path class="st83" d="M184.6,484.8h6.4c0.4,0,0.8,0.4,0.8,0.8v6.4c0,0.4-0.4,0.8-0.8,0.8h-6.4c-0.4,0-0.8-0.4-0.8-0.8v-6.4
				C183.8,485.2,184.1,484.8,184.6,484.8z"/>
			<path class="st83" d="M197,484.8h6.4c0.4,0,0.8,0.4,0.8,0.8v6.4c0,0.4-0.4,0.8-0.8,0.8H197c-0.4,0-0.8-0.4-0.8-0.8v-6.4
				C196.2,485.2,196.6,484.8,197,484.8z"/>
			<path class="st83" d="M209.4,484.8h6.4c0.4,0,0.8,0.4,0.8,0.8v6.4c0,0.4-0.4,0.8-0.8,0.8h-6.4c-0.4,0-0.8-0.4-0.8-0.8v-6.4
				C208.6,485.2,209,484.8,209.4,484.8z"/>
			<path class="st83" d="M221.9,484.8h6.4c0.4,0,0.8,0.4,0.8,0.8v6.4c0,0.4-0.4,0.8-0.8,0.8h-6.4c-0.4,0-0.8-0.4-0.8-0.8v-6.4
				C221.1,485.2,221.4,484.8,221.9,484.8z"/>
			<path class="st83" d="M234.3,484.8h6.4c0.4,0,0.8,0.4,0.8,0.8v6.4c0,0.4-0.4,0.8-0.8,0.8h-6.4c-0.4,0-0.8-0.4-0.8-0.8v-6.4
				C233.5,485.2,233.9,484.8,234.3,484.8z"/>
			<g>
				<path class="st83" d="M147.3,499.2h6.4c0.4,0,0.8,0.4,0.8,0.8v6.4c0,0.4-0.4,0.8-0.8,0.8h-6.4c-0.4,0-0.8-0.4-0.8-0.8V500
					C146.5,499.5,146.8,499.2,147.3,499.2z"/>
				<path class="st83" d="M159.7,499.2h6.4c0.4,0,0.8,0.4,0.8,0.8v6.4c0,0.4-0.4,0.8-0.8,0.8h-6.4c-0.4,0-0.8-0.4-0.8-0.8V500
					C158.9,499.5,159.3,499.2,159.7,499.2z"/>
				<path class="st83" d="M172,499.2h43.9c0.4,0,0.8,0.4,0.8,0.8v6.4c0,0.4-0.4,0.8-0.8,0.8H172c-0.4,0-0.8-0.4-0.8-0.8V500
					C171.2,499.5,171.6,499.2,172,499.2z"/>
				<path class="st83" d="M221.9,499.2h6.4c0.4,0,0.8,0.4,0.8,0.8v6.4c0,0.4-0.4,0.8-0.8,0.8h-6.4c-0.4,0-0.8-0.4-0.8-0.8V500
					C221.1,499.5,221.4,499.2,221.9,499.2z"/>
				<path class="st83" d="M234.3,499.2h6.4c0.4,0,0.8,0.4,0.8,0.8v6.4c0,0.4-0.4,0.8-0.8,0.8h-6.4c-0.4,0-0.8-0.4-0.8-0.8V500
					C233.5,499.5,233.9,499.2,234.3,499.2z"/>
			</g>
			<path class="st84" d="M143.5,406.6h99.4c2.3,0,4.2,1.9,4.2,4.2v48.3c0,2.3-1.9,4.2-4.2,4.2h-99.4c-2.3,0-4.2-1.9-4.2-4.2v-48.3
				C139.3,408.5,141.2,406.6,143.5,406.6z"/>
			<rect x="146.5" y="413.8" class="st47" width="94.2" height="41.5"/>
			<rect x="146.5" y="413.8" class="st85" width="20.8" height="41.5"/>
			<rect x="146.5" y="413.8" class="st0" width="94.2" height="7.2"/>
			<path class="st42" d="M250.3,564.1h-20l0,0v-74.6c0-5.5,4.5-10,10-10l0,0l0,0c5.5,0,10,4.5,10,10l0,0L250.3,564.1L250.3,564.1
				L250.3,564.1z"/>
			<path class="st42" d="M157.7,564.1h-20l0,0v-74.6c0-5.5,4.5-10,10-10l0,0l0,0c5.5,0,10,4.5,10,10l0,0L157.7,564.1L157.7,564.1z"
				/>
			<path class="st81" d="M236.7,597.6L236.7,597.6c-9.7,0-17.6-7.9-17.6-17.6c0,0,0,0,0,0v-33.5l0,0h35.1l0,0V580
				C254.3,589.7,246.4,597.6,236.7,597.6C236.7,597.6,236.7,597.6,236.7,597.6z"/>
			<path class="st81" d="M149.7,597.6L149.7,597.6c-9.7,0-17.6-7.9-17.6-17.6v-33.5l0,0h35.1l0,0V580
				C167.2,589.7,159.4,597.6,149.7,597.6C149.7,597.6,149.7,597.6,149.7,597.6z"/>
			<circle class="st42" cx="195.2" cy="552.1" r="5.6"/>
			<line class="st86" x1="152.5" y1="503.6" x2="161.2" y2="495.6"/>
			<line class="st86" x1="235.5" y1="503.6" x2="226.7" y2="495.6"/>
			<circle class="st68" cx="306.2" cy="489.9" r="13.5"/>
			<g>
				<path class="st83" d="M322.3,480.1l7.1-2.8c1.2-0.5,2.5,0.1,2.9,1.3c0,0,0,0,0,0l0,0c0.5,1.2-0.1,2.5-1.3,2.9c0,0,0,0,0,0
					l-7.1,2.8l0,0L322.3,480.1L322.3,480.1z"/>
				<circle class="st82" cx="311.2" cy="486.4" r="13.5"/>
				<circle class="st87" cx="311.2" cy="486.4" r="9.9"/>
			</g>
			<rect x="176.7" y="444.9" class="st85" width="23.2" height="3.2"/>
			<rect x="207.2" y="444.9" class="st85" width="23.2" height="3.2"/>
			<path class="st0" d="M188.8,426.1c-4.1,0-7.4,3.3-7.4,7.4s3.3,7.4,7.4,7.4c4.1,0,7.4-3.3,7.4-7.4l0,0h-7.4V426.1z"/>
			<g>
				<rect x="210" y="428.9" class="st0" width="2.8" height="11.1"/>
				<rect x="223.8" y="428.9" class="st0" width="2.8" height="11.1"/>
				<rect x="219.2" y="433.5" class="st0" width="2.8" height="6.5"/>
				<rect x="214.6" y="426.1" class="st0" width="2.8" height="13.9"/>
			</g>
			<path class="st23" d="M174.5,618.9L174.5,618.9c12.9,3.3,26.5,3.3,39.4,0l0,0c8.1-2.1,13.7-9.3,13.7-17.7v-16.9
				c0-18.5-15-33.4-33.4-33.4l0,0c-18.5,0-33.4,15-33.4,33.4v16.9C160.8,609.6,166.4,616.8,174.5,618.9z"/>
			<path class="st84" d="M214.5,557.8c4.5,5.8,6.9,13,6.9,20.3V595c0,8.3-5.6,15.6-13.7,17.7l0,0c-12.9,3.3-26.5,3.3-39.4,0l0,0
				c-1.7-0.4-3.4-1.1-4.9-2.1c2.5,4.1,6.4,7.1,11.1,8.3l0,0c12.9,3.3,26.5,3.3,39.4,0l0,0c8.1-2.1,13.7-9.3,13.7-17.7v-16.9
				C227.6,573.9,222.8,564.1,214.5,557.8z"/>
			<circle class="st68" cx="84.8" cy="426.8" r="21.2"/>
			<g>
				<circle class="st82" cx="90" cy="422.4" r="22.2"/>
				<circle class="st87" cx="90" cy="422.4" r="16.6"/>
				<g>
					<path class="st81" d="M91,421.7c-4.1-14.6-19.5-8.9-19.5-8.9s2.4-0.8,5.7,5.7s10.5,5.7,10.5,5.7L91,421.7z"/>
					<path class="st88" d="M87.9,419.2c0,0-4.1,0.4-5.5-6.8s-2.7-5.9-2.7-5.9s10.1-3.2,12.7,7.9S87.9,419.2,87.9,419.2z"/>
					<path class="st88" d="M93,425.3c0,0,4.1-0.6,5.8,6.5s2.9,5.8,2.9,5.8s-9.9,3.6-13-7.4S93,425.3,93,425.3z"/>
					<path class="st88" d="M94.2,417.9c0,0,1.5-3.8,8.6-1.7s6.5,0.4,6.5,0.4s-1.9,10.4-12.9,7.5S94.2,417.9,94.2,417.9z"/>
					<path class="st88" d="M84.5,425.2c0,0-0.1,3.5-6.3,3.8s-5.3,1.5-5.3,1.5s-1.4-8.8,8.2-9.6S84.5,425.2,84.5,425.2z"/>
					<path class="st81" d="M87.7,419.3c0,0,0-6.5,5.7-8.9s4.9-7.3,4.9-7.3s5.7,3.2,4.9,9.7s-8.1,8.1-10.5,8.9S87.7,419.3,87.7,419.3
						z"/>
					<path class="st81" d="M87.2,424.5c1,3.6,4.2,6.2,8,6.3c6.5,0.3,8.4,3.9,8.4,3.9s2.8-16-11.5-14.3S87.2,424.5,87.2,424.5z"/>
					<path class="st81" d="M85,418.4c0,0-8.4,8.4-4.2,15.8s2.1,12.6,2.1,12.6s13.7-6.3,8.4-14.7s-2.1-11.6-2.1-11.6L85,418.4z"/>
				</g>
			</g>
		</g>
	</g>
</g>
</svg>
