<svg width="89px" height="28px" id="Layer_1" data-name="Layer 1" xmlns="http://www.w3.org/2000/svg" viewBox="0 0 89 28">
  <title>Artboard 1</title>
  <path id="path14" d="M85.079,27.3h-81A3.329,3.329,0,0,1,.779,24V4.2A3.265,3.265,0,0,1,4.079.9h81a3.244,3.244,0,0,1,3.2,3.3V24A3.311,3.311,0,0,1,85.079,27.3Z" fill="#fff"/>
  <g>
    <g id="g18">
      <path id="path20" d="M31.525,7.59a1.728,1.728,0,0,1-.5,1.3,1.622,1.622,0,0,1-1.4.7,1.678,1.678,0,0,1-1.4-.6,2.035,2.035,0,0,1-.6-1.5,2.035,2.035,0,0,1,.6-1.5,1.678,1.678,0,0,1,1.4-.6,2.353,2.353,0,0,1,.8.2,2.092,2.092,0,0,1,.6.4l-.3.4a1.606,1.606,0,0,0-1.1-.5,1.5,1.5,0,0,0-1.1.4,1.594,1.594,0,0,0-.4,1.2,1.366,1.366,0,0,0,.4,1.1,1.713,1.713,0,0,0,2.2,0,1.135,1.135,0,0,0,.3-.8h-1.4v-.5h1.9Z"/>
    </g>
    <g id="g22">
      <polygon id="path24" points="34.475 5.99 32.775 5.99 32.775 7.19 34.375 7.19 34.375 7.69 32.775 7.69 32.775 8.99 34.475 8.99 34.475 9.49 32.275 9.49 32.275 5.49 34.475 5.49 34.475 5.99"/>
    </g>
    <g id="g26">
      <polygon id="path28" points="36.615 9.49 36.115 9.49 36.115 5.99 35.015 5.99 35.015 5.49 37.715 5.49 37.715 5.99 36.615 5.99 36.615 9.49"/>
    </g>
    <g id="g30">
      <polygon id="path32" points="39.665 9.49 39.665 5.49 40.165 5.49 40.165 9.49 39.665 9.49"/>
    </g>
    <g id="g34">
      <polygon id="path36" points="42.385 9.49 41.885 9.49 41.885 5.99 40.785 5.99 40.785 5.49 43.485 5.49 43.485 5.99 42.385 5.99 42.385 9.49"/>
    </g>
    <g id="g38">
      <path id="path40" d="M48.535,8.99a2.035,2.035,0,0,1-1.5.6,1.974,1.974,0,0,1-1.4-.6,2.035,2.035,0,0,1-.6-1.5,2.035,2.035,0,0,1,.6-1.5,1.974,1.974,0,0,1,1.4-.6,1.816,1.816,0,0,1,1.4.6,2.035,2.035,0,0,1,.6,1.5A2.456,2.456,0,0,1,48.535,8.99Zm-2.5-.4a1.366,1.366,0,0,0,1.1.4,1.5,1.5,0,0,0,1.1-.4,2.016,2.016,0,0,0,.3-1.1,1.746,1.746,0,0,0-.4-1.2,1.5,1.5,0,0,0-1.1-.4,1.284,1.284,0,0,0-1,.4,1.656,1.656,0,0,0-.5,1.2A1.433,1.433,0,0,0,46.035,8.59Z"/>
    </g>
    <g id="g42">
      <polygon id="path44" points="49.795 9.49 49.795 5.49 50.395 5.49 52.295 8.59 52.295 8.59 52.295 7.79 52.295 5.49 52.795 5.49 52.795 9.49 52.195 9.49 50.295 6.19 50.195 6.19 50.295 6.99 50.295 9.49 49.795 9.49"/>
    </g>
  </g>
  <path id="path46" d="M44.979,15.2a2.8,2.8,0,0,0-2.8,2.8,2.734,2.734,0,0,0,2.8,2.8,2.8,2.8,0,0,0,2.8-2.8A2.86,2.86,0,0,0,44.979,15.2Zm0,4.5a1.667,1.667,0,0,1-1.6-1.7,1.605,1.605,0,0,1,1.6-1.7,1.667,1.667,0,0,1,1.6,1.7A1.737,1.737,0,0,1,44.979,19.7Zm-6.1-4.5a2.8,2.8,0,0,0-2.8,2.8,2.734,2.734,0,0,0,2.8,2.8,2.8,2.8,0,0,0,2.8-2.8A2.734,2.734,0,0,0,38.879,15.2Zm0,4.5a1.667,1.667,0,0,1-1.6-1.7,1.605,1.605,0,0,1,1.6-1.7,1.667,1.667,0,0,1,1.6,1.7A1.605,1.605,0,0,1,38.879,19.7Zm-7.1-3.6v1.2h2.8a2.618,2.618,0,0,1-.6,1.5,2.836,2.836,0,0,1-2.2.9,3.138,3.138,0,0,1-3.1-3.2,3.077,3.077,0,0,1,3.1-3.2,2.927,2.927,0,0,1,2.1.9l.8-.8a3.9,3.9,0,0,0-2.9-1.2,4.354,4.354,0,0,0-4.3,4.4,4.268,4.268,0,0,0,4.3,4.3,3.774,3.774,0,0,0,4-4,1.483,1.483,0,0,0-.1-.7h-3.9Zm29.3.9a2.561,2.561,0,0,0-2.4-1.8,2.634,2.634,0,0,0-2.6,2.8,2.712,2.712,0,0,0,2.7,2.8,2.8,2.8,0,0,0,2.3-1.2l-.9-.6a1.486,1.486,0,0,1-1.4.8,1.291,1.291,0,0,1-1.3-.9l3.7-1.6Zm-3.7,1a1.481,1.481,0,0,1,1.4-1.6.924.924,0,0,1,1,.6Zm-3,2.7h1.2V12.4h-1.2Zm-2-4.8h0a2.09,2.09,0,0,0-1.5-.6,2.7,2.7,0,0,0-2.6,2.8,2.761,2.761,0,0,0,2.6,2.8,1.683,1.683,0,0,0,1.4-.6h0v.3c0,1.1-.6,1.7-1.5,1.7a1.542,1.542,0,0,1-1.4-1l-1.1.4a2.7,2.7,0,0,0,2.4,1.7c1.4,0,2.6-.9,2.6-2.9v-5h-1.1v.4Zm-1.4,3.8a1.59,1.59,0,0,1-1.5-1.7,1.512,1.512,0,1,1,3,0A1.59,1.59,0,0,1,50.979,19.7Zm15.8-7.3h-2.9v8.3h1.2V17.6h1.7a2.663,2.663,0,0,0,2.7-2.6A2.728,2.728,0,0,0,66.779,12.4Zm0,4h-1.7V13.6h1.7a1.4,1.4,0,1,1,0,2.8Zm7.5-1.2a2.308,2.308,0,0,0-2.2,1.3l1.1.5a1.078,1.078,0,0,1,1.1-.6,1.221,1.221,0,0,1,1.3,1.1v.1a3.07,3.07,0,0,0-1.3-.3c-1.2,0-2.3.6-2.3,1.9a1.844,1.844,0,0,0,2,1.8,1.606,1.606,0,0,0,1.5-.8h0v.5h1.3V17.5A2.259,2.259,0,0,0,74.279,15.2Zm-.2,4.5c-.4,0-.9-.2-.9-.7,0-.6.7-.9,1.3-.9a1.8,1.8,0,0,1,1.1.3A1.5,1.5,0,0,1,74.079,19.7Zm6.9-4.3-1.4,3.6h0l-1.4-3.6h-1.4l2.2,5-1.2,2.8h1.3l3.3-7.8Zm-10.9,5.3h1.2V12.4h-1.2Z"/>
  <path d="M21.5,13.1l-3.2-1.8h-.1L8.9,5.8a1.042,1.042,0,0,0-1.3,0h0a1.493,1.493,0,0,0-.3,1V21.4a1.222,1.222,0,0,0,.3.9h0a1.042,1.042,0,0,0,1.3,0l9.5-5.5L21.6,15A1.029,1.029,0,0,0,21.5,13.1Z"/>
  <polygon points="7.7 22.5 7.4 22.1 18.4 10.9 18.8 11.2 7.7 22.5" fill="#fff"/>
  <polygon points="18.4 17.3 7.4 6 7.7 5.7 18.8 16.9 18.4 17.3" fill="#fff"/>
  <path id="path16" d="M85.079,1.4a2.712,2.712,0,0,1,2.7,2.8V24a2.775,2.775,0,0,1-2.7,2.8h-81a2.712,2.712,0,0,1-2.7-2.8V4.2a2.775,2.775,0,0,1,2.7-2.8Zm0-.5h-81a3.265,3.265,0,0,0-3.3,3.3V24a3.311,3.311,0,0,0,3.2,3.3h81a3.244,3.244,0,0,0,3.2-3.3V4.2A3.1,3.1,0,0,0,85.079.9Z"/>
</svg>
