<?xml version="1.0" encoding="utf-8"?>
<!-- Generator: Adobe Illustrator 23.0.1, SVG Export Plug-In . SVG Version: 6.00 Build 0)  -->
<svg version="1.1" id="Layer_1" xmlns="http://www.w3.org/2000/svg" xmlns:xlink="http://www.w3.org/1999/xlink" x="0px" y="0px"
	 viewBox="0 0 745 572" style="enable-background:new 0 0 745 572;" xml:space="preserve">
<style type="text/css">
	.st0{fill:#D31818;}
	.st1{fill:#EAEAEA;}
	.st2{fill:#BABABA;}
	.st3{fill:#D8D8D8;}
	.st4{fill:#F42F2F;}
	.st5{fill:#F2F2F2;}
	.st6{clip-path:url(#SVGID_2_);}
	.st7{fill:#FFAB57;}
	.st8{clip-path:url(#SVGID_4_);}
	.st9{fill:#FFA05F;}
	.st10{clip-path:url(#SVGID_6_);}
	.st11{opacity:0.2;fill:#383838;enable-background:new    ;}
	.st12{fill:#6B6B6B;}
	.st13{fill:#383838;}
	.st14{fill:#64BDFF;}
	.st15{fill:none;stroke:#515151;stroke-width:20.7728;stroke-linecap:round;stroke-miterlimit:10;}
	.st16{fill:#EA5334;}
	.st17{fill:#FFC1B0;}
	.st18{fill:none;stroke:#FFC1B0;stroke-width:20.4319;stroke-linecap:round;stroke-miterlimit:10;}
	.st19{fill:#8C423B;}
	.st20{fill:#A3514D;}
	.st21{fill:none;stroke:#FFC1B0;stroke-width:6.7278;stroke-linecap:round;stroke-miterlimit:10;}
	.st22{fill:#FFEDD7;}
	.st23{fill:#F4D8BA;}
	.st24{fill:#B2937F;}
	.st25{fill:#303030;}
	.st26{fill:#5B4BBC;}
	.st27{fill:#FEC337;}
	.st28{fill:none;stroke:#AA5D52;stroke-width:20.4319;stroke-linecap:round;stroke-miterlimit:10;}
	.st29{fill:none;stroke:#AA5D52;stroke-width:6.7278;stroke-linecap:round;stroke-miterlimit:10;}
	.st30{fill:none;stroke:#413991;stroke-width:18.6495;stroke-linecap:round;stroke-miterlimit:10;}
	.st31{fill:#947BFF;}
	.st32{fill:#AA5D52;}
	.st33{fill:#8C463F;}
	.st34{fill:#EDEDED;}
	.st35{fill:none;stroke:#FFFFFF;stroke-width:18.6495;stroke-linecap:round;stroke-miterlimit:10;}
	.st36{fill:#606060;}
	.st37{fill:#8C8C8C;}
	.st38{clip-path:url(#SVGID_8_);}
	.st39{fill:#EAA48F;}
	.st40{fill:#704035;}
	.st41{fill:#D88E7D;}
	.st42{fill:#A63FEF;}
	.st43{fill:#BC695B;}
	.st44{fill:#1A1A1A;}
	.st45{fill:#F76C66;}
	.st46{fill:#E6E7E8;}
	.st47{fill:#760DD3;}
	.st48{fill:#1E140C;}
	.st49{fill:#4D4D4D;}
	.st50{fill:none;stroke:#DDDDDD;stroke-width:3.8336;stroke-miterlimit:10;}
	.st51{fill:none;stroke:#AA5D52;stroke-width:19.6082;stroke-linecap:round;stroke-miterlimit:10;}
	.st52{fill:none;stroke:#C61414;stroke-width:5.2295;stroke-miterlimit:10;}
	.st53{fill:none;stroke:#C61414;stroke-width:4.5214;stroke-miterlimit:10;}
	.st54{fill:#9E5447;}
	.st55{fill:none;stroke:#FCC846;stroke-width:3.2685;stroke-miterlimit:10;}
	.st56{fill:#683631;}
	.st57{fill:none;stroke:#303030;stroke-width:3.9218;stroke-linecap:round;stroke-miterlimit:10;}
	.st58{fill:none;stroke:#683631;stroke-width:3.9218;stroke-linecap:round;stroke-miterlimit:10;}
	.st59{fill:#115FEA;}
	.st60{fill:none;}
	.st61{fill:#BCDD6B;}
	.st62{fill:none;stroke:#79C43D;stroke-width:5.2295;stroke-miterlimit:10;}
	.st63{fill:#E8E8E8;}
	.st64{clip-path:url(#SVGID_12_);}
	.st65{fill:#AF795F;}
	.st66{fill:#0A408E;}
	.st67{fill:#C6886F;}
	.st68{fill:#895946;}
	.st69{fill:#41352E;}
	.st70{fill:#333333;}
	.st71{fill:#EAAFA9;}
	.st72{fill:#FD7700;}
	.st73{fill:#D8BF8B;}
	.st74{fill:#B59661;}
	.st75{fill:#FFE9E9;}
	.st76{fill:#DD8783;}
	.st77{fill:none;stroke:#EAAFA9;stroke-width:13.9577;stroke-linecap:round;stroke-miterlimit:10;}
	.st78{fill:none;stroke:#EAAFA9;stroke-width:6.9784;stroke-linecap:round;stroke-miterlimit:10;}
	.st79{fill:none;stroke:#FCCAC8;stroke-width:6.9784;stroke-linecap:round;stroke-miterlimit:10;}
	.st80{fill:#79C43D;}
	.st81{fill:#FFBA31;}
	.st82{fill:#156ECE;}
	.st83{clip-path:url(#SVGID_15_);}
	.st84{fill:#D5DBDE;}
	.st85{opacity:0.15;enable-background:new    ;}
	.st86{fill:none;stroke:#515151;stroke-width:18.1525;stroke-linecap:round;stroke-miterlimit:10;}
	.st87{fill:#EDF6FD;}
	.st88{fill:#DFE8EF;}
	.st89{fill:#FFFFFF;}
	.st90{fill:#EFEFEF;}
	.st91{fill:#FC8738;}
	.st92{fill:none;stroke:#FFC1B0;stroke-width:5.8797;stroke-linecap:round;stroke-miterlimit:10;}
	.st93{opacity:0.2;enable-background:new    ;}
	.st94{fill:#816056;}
	.st95{fill:#A0776D;}
	.st96{fill:#75D85D;}
	.st97{fill:#54C634;}
</style>
<title>groups</title>
<g>
	<g>
		<g>
			<g>
				<path class="st0" d="M652.3,68.8h-49.2v0.3v21.3c0,1.8,1.4,3.2,3.2,3.2l0,0h46.4V68.8C652.6,68.8,652.5,68.8,652.3,68.8z"/>
				<path class="st1" d="M673.6,87.6c-1.9-7.3-7.1-18.6-20.9-18.8v24.9h16.1c2.6,0,4.9-2.1,4.9-4.9C673.8,88.4,673.8,88,673.6,87.6z
					"/>
				<path class="st2" d="M603.8,88.3h69.9c1.8,0,3.2,1.4,3.2,3.2l0,0c0,1.8-1.4,3.2-3.2,3.2h-69.9c-1.8,0-3.2-1.4-3.2-3.2l0,0
					C600.6,89.7,602.1,88.3,603.8,88.3z"/>
				<path class="st3" d="M628.8,68.8h16.5l0,0v7.4c0,1.5-1.2,2.7-2.7,2.7h-11.1c-1.5,0-2.7-1.2-2.7-2.7L628.8,68.8L628.8,68.8
					L628.8,68.8z"/>
				<path class="st4" d="M617.8,68.8h-46.2c-1.9,0-3.4,1.5-3.4,3.4l0,0V79v11.5c0,1.8,1.4,3.2,3.2,3.2h46.4V68.8L617.8,68.8z"/>
				<path class="st1" d="M638.6,87.6c-1.9-7.3-7.1-18.6-20.9-18.8v24.9h16.1c2.6,0,4.9-2.1,4.9-4.9C638.8,88.4,638.7,88,638.6,87.6z
					"/>
				<path class="st3" d="M568.8,88.3h70c1.8,0,3.2,1.4,3.2,3.2l0,0c0,1.8-1.4,3.2-3.2,3.2h-70c-1.8,0-3.2-1.4-3.2-3.2l0,0
					C565.5,89.7,567.1,88.3,568.8,88.3z"/>
				<path class="st5" d="M592.9,68.8h16.5l0,0v7.4c0,1.5-1.2,2.7-2.7,2.7h-11.2c-1.5,0-2.7-1.2-2.7-2.7L592.9,68.8L592.9,68.8z"/>
				<g>
					<path class="st0" d="M652.3,68.8h-49.2v0.3v21.3c0,1.8,1.4,3.2,3.2,3.2l0,0h46.4V68.8C652.6,68.8,652.5,68.8,652.3,68.8z"/>
					<path class="st1" d="M673.6,87.6c-1.9-7.3-7.1-18.6-20.9-18.8v24.9h16.1c2.6,0,4.9-2.1,4.9-4.9C673.8,88.4,673.8,88,673.6,87.6
						z"/>
					<path class="st2" d="M603.8,88.3h69.9c1.8,0,3.2,1.4,3.2,3.2l0,0c0,1.8-1.4,3.2-3.2,3.2h-69.9c-1.8,0-3.2-1.4-3.2-3.2l0,0
						C600.6,89.7,602.1,88.3,603.8,88.3z"/>
					<path class="st3" d="M628.8,68.8h16.5l0,0v7.4c0,1.5-1.2,2.7-2.7,2.7h-11.1c-1.5,0-2.7-1.2-2.7-2.7L628.8,68.8L628.8,68.8
						L628.8,68.8z"/>
				</g>
				<g>
					<path class="st4" d="M617.8,68.8h-46.2c-1.9,0-3.4,1.5-3.4,3.4l0,0V79v11.5c0,1.8,1.4,3.2,3.2,3.2h46.4V68.8L617.8,68.8z"/>
					<path class="st1" d="M638.6,87.6c-1.9-7.3-7.1-18.6-20.9-18.8v24.9h16.1c2.6,0,4.9-2.1,4.9-4.9C638.8,88.4,638.7,88,638.6,87.6
						z"/>
					<path class="st3" d="M568.8,88.3h70c1.8,0,3.2,1.4,3.2,3.2l0,0c0,1.8-1.4,3.2-3.2,3.2h-70c-1.8,0-3.2-1.4-3.2-3.2l0,0
						C565.5,89.7,567.1,88.3,568.8,88.3z"/>
					<path class="st5" d="M592.9,68.8h16.5l0,0v7.4c0,1.5-1.2,2.7-2.7,2.7h-11.2c-1.5,0-2.7-1.2-2.7-2.7L592.9,68.8L592.9,68.8z"/>
				</g>
			</g>
		</g>
	</g>
</g>
<g>
	<g>
		<defs>
			<path id="SVGID_1_" d="M65.6,1.2h283.4c15.2,0,27.6,12.4,27.6,27.6v278.4c0,15.2-12.4,27.6-27.6,27.6H65.6
				C50.4,334.7,2,322.3,2,307.1L38,28.7C38,13.4,50.4,1.2,65.6,1.2z"/>
		</defs>
		<clipPath id="SVGID_2_">
			<use xlink:href="#SVGID_1_"  style="overflow:visible;"/>
		</clipPath>
		<g class="st6">
			<rect x="36.3" y="-1.5" class="st7" width="469.3" height="356"/>
		</g>
	</g>
</g>
<g>
	<g>
		<defs>
			<path id="SVGID_3_" d="M425.4,260.7h293.8c13.9,0,25.1,11.3,25.1,25.1l-36,257.8c0,13.9-11.3,25.1-25.1,25.1H425.4
				c-13.9,0-25.1-11.3-25.1-25.1V285.7C400.3,271.9,411.5,260.7,425.4,260.7z"/>
		</defs>
		<clipPath id="SVGID_4_">
			<use xlink:href="#SVGID_3_"  style="overflow:visible;"/>
		</clipPath>
		<g class="st8">
			<polygon class="st7" points="379.7,258.1 762.9,258.1 726.9,574.3 379.7,574.3 			"/>
		</g>
	</g>
</g>
<path class="st9" d="M426.5,2.5h293.3c13.9,0,25.1,11.3,25.1,25.1v182.2c0,13.9-11.3,25.1-25.1,25.1H426.5
	c-13.9,0-25.1-11.3-25.1-25.1V27.5C401.4,13.7,412.7,2.5,426.5,2.5z"/>
<path class="st7" d="M27,363.6h325.7c13.9,0,25.1,11.3,25.1,25.1v154.8c0,13.9-11.3,25.1-25.1,25.1H27c-13.9,0-25.1-11.3-25.1-25.1
	V388.7C1.9,374.9,13.1,363.6,27,363.6z"/>
<g>
	<g>
		<path id="SVGID_9_" class="st9" d="M29.6,1.2h319.4c15.2,0,27.6,12.4,27.6,27.6v278.4c0,15.2-12.4,27.6-27.6,27.6H29.6
			C14.4,334.7,2,322.3,2,307.1V28.7C2,13.4,14.4,1.2,29.6,1.2z"/>
	</g>
	<g>
		<defs>
			<path id="SVGID_5_" d="M29.6,1.2h319.4c15.2,0,27.6,12.4,27.6,27.6v278.4c0,15.2-12.4,27.6-27.6,27.6H29.6
				C14.4,334.7,2,322.3,2,307.1V28.7C2,13.4,14.4,1.2,29.6,1.2z"/>
		</defs>
		<clipPath id="SVGID_6_">
			<use xlink:href="#SVGID_5_"  style="overflow:visible;"/>
		</clipPath>
		<g class="st10">
			<g>
				<path class="st11" d="M60.1,218.7H202c5.4,0,9.8,4.4,9.8,9.8l0,0v80.1c0,19.6-15.8,35.4-35.4,35.4H85.7
					c-19.6,0-35.4-15.8-35.4-35.4v-80.1C50.4,223,54.8,218.7,60.1,218.7L60.1,218.7z"/>
				<path class="st11" d="M268.4,218.6V76.6c0-5.4,4.4-9.8,9.8-9.8l0,0h80.1c19.6,0,35.4,15.8,35.4,35.4V193
					c0,19.5-15.8,35.4-35.4,35.4h-80.1C272.9,228.3,268.4,223.9,268.4,218.6z"/>
				<path class="st11" d="M144.6,79.2l-87,87c-4.3,4.3-11.2,4.3-15.4,0l0,0l-49.4-49.4c-12.4-12.4-12.4-32.5,0-44.9l0,0l57.6-57.6
					c12.4-12.4,32.5-12.4,44.9,0l49.4,49.4C148.9,68.1,148.9,75,144.6,79.2z"/>
				<path class="st12" d="M109.9,198.1L109.9,198.1c8.3-2,16.7,3,18.9,11.4l6.3,25.4l0,0l-30.1,7.5l0,0l-6.3-25.4
					C96.6,208.5,101.6,200.1,109.9,198.1L109.9,198.1z"/>
				<path class="st12" d="M190.4,242.2l-30.1-7.5l0,0l6.3-25.4c2-8.3,10.4-13.4,18.9-11.4l0,0c8.3,2,13.4,10.4,11.4,18.9
					L190.4,242.2L190.4,242.2z"/>
				<path class="st13" d="M77.4,230.1h141.8c5.4,0,9.8,4.4,9.8,9.8l0,0v80.1c0,19.6-15.8,35.4-35.4,35.4h-90.8
					c-19.6,0-35.4-15.8-35.4-35.4V240C67.5,234.5,71.9,230.1,77.4,230.1L77.4,230.1z"/>
				<path class="st14" d="M146.4,282.2l-31.5,5.8l0,0l-10.3-56.7c-1.6-8.7,4.2-17,12.9-18.7l0,0c8.7-1.6,17,4.2,18.7,12.9
					L146.4,282.2L146.4,282.2z"/>
				<path class="st14" d="M177,212.5L177,212.5c8.7,1.6,14.5,9.9,12.9,18.7l0,0l-10.4,56.8l0,0l-31.5-5.8l0,0l10.3-56.7
					C160,216.7,168.3,210.9,177,212.5L177,212.5z"/>
				<path class="st15" d="M85.2,346.6c36.4,29.1,88.1,29.1,124.5,0"/>
				<path class="st16" d="M194.5,338.1H99.5l0,0v-27.2c0-18.4,14.9-33.3,33.3-33.3h28.4c18.4,0,33.3,14.9,33.3,33.3L194.5,338.1
					L194.5,338.1z"/>
				<path class="st17" d="M205.5,302.7h-21l0,0V224c0-5.8,4.7-10.6,10.6-10.6l0,0l0,0c5.8,0,10.6,4.7,10.6,10.6l0,0L205.5,302.7
					L205.5,302.7L205.5,302.7z"/>
				<path class="st16" d="M191.2,338.1L191.2,338.1c-10.2,0-18.5-8.3-18.5-18.5l0,0v-35.3l0,0h37l0,0v35.2
					C209.7,329.7,201.3,338.1,191.2,338.1z"/>
				<path class="st18" d="M95.7,318v-55.3c0-2.1,1.1-4.2,3-5.3l31.7-18.3"/>
				<circle class="st17" cx="147.4" cy="290.1" r="5.9"/>
				<path class="st16" d="M99.5,338.1L99.5,338.1c-10.2,0-18.5-8.3-18.5-18.5l0,0v-35.3l0,0h37l0,0v35.2
					C118,329.7,109.7,338.1,99.5,338.1L99.5,338.1z"/>
				<g>
					<path class="st17" d="M184,334.5h-6.3l0,0v-12.6l0,0h6.3c3.4,0,6.3,2.8,6.3,6.3l0,0C190.3,331.7,187.4,334.5,184,334.5
						L184,334.5z"/>
					<path class="st17" d="M110.9,321.9h6.3l0,0v12.6l0,0h-6.3c-3.4,0-6.3-2.8-6.3-6.3l0,0C104.6,324.8,107.3,321.9,110.9,321.9
						L110.9,321.9z"/>
				</g>
				<path class="st19" d="M126.1,363.7L126.1,363.7c14,3.6,28.6,3.6,42.6,0l0,0c8.7-2.2,14.8-10.1,14.8-19.1v-18.4
					c0-20-16.2-36.1-36.2-36.1l0,0l0,0c-20,0-36.1,16.2-36.1,36.1v18.4C111.3,353.6,117.3,361.4,126.1,363.7z"/>
				<path class="st20" d="M169.4,297.5c4.9,6.3,7.5,14,7.4,22v18.4c0,9-6.1,16.8-14.8,19.1l0,0c-14,3.6-28.6,3.6-42.6,0l0,0
					c-1.8-0.5-3.7-1.2-5.3-2.2c2.6,4.5,7,7.7,12,8.9l0,0c14,3.6,28.6,3.6,42.6,0l0,0c8.7-2.2,14.8-10.1,14.8-19.1v-18.4
					C183.6,314.9,178.3,304.4,169.4,297.5z"/>
				<line class="st21" x1="120.7" y1="250.8" x2="132.6" y2="254.7"/>
				<path class="st19" d="M157.5,160.6h69.9c3,0,5.5,2.4,5.5,5.5v61c0,3-2.4,5.5-5.5,5.5h-69.9c-3,0-5.5-2.4-5.5-5.5v-61
					C152,163.1,154.5,160.6,157.5,160.6z"/>
				<g>
					<g>
						<path class="st22" d="M158.8,167.2h67.3c0.9,0,1.6,0.7,1.6,1.6v55.7c0,0.9-0.7,1.6-1.6,1.6h-67.3c-0.9,0-1.6-0.7-1.6-1.6
							v-55.7C157.3,167.9,158,167.2,158.8,167.2z"/>
						<path class="st23" d="M191.6,167.2h34.8c0.7,0,1.3,0.6,1.3,1.3v56.2c0,0.7-0.6,1.3-1.3,1.3h-34.8l0,0V167.2L191.6,167.2z"/>
					</g>
					<g>
						<path class="st24" d="M199.2,176.2h14.3c1,0,1.8,0.8,1.8,1.8l0,0c0,1-0.8,1.8-1.8,1.8h-14.3c-1,0-1.8-0.8-1.8-1.8l0,0
							C197.4,177,198.2,176.2,199.2,176.2z"/>
						<path class="st24" d="M199.2,183.3h14.3c1,0,1.8,0.8,1.8,1.8l0,0c0,1-0.8,1.8-1.8,1.8h-14.3c-1,0-1.8-0.8-1.8-1.8l0,0
							C197.4,184.1,198.2,183.3,199.2,183.3z"/>
						<path class="st24" d="M199.2,190.5h14.3c1,0,1.8,0.8,1.8,1.8l0,0c0,1-0.8,1.8-1.8,1.8h-14.3c-1,0-1.8-0.8-1.8-1.8l0,0
							C197.4,191.3,198.2,190.5,199.2,190.5z"/>
						<path class="st24" d="M199.2,199.4h20.5c1,0,1.8,0.8,1.8,1.8l0,0c0,1-0.8,1.8-1.8,1.8h-20.5c-1,0-1.8-0.8-1.8-1.8l0,0
							C197.4,200.2,198.2,199.4,199.2,199.4z"/>
						<path class="st24" d="M199.2,206.5h20.5c1,0,1.8,0.8,1.8,1.8l0,0c0,1-0.8,1.8-1.8,1.8h-20.5c-1,0-1.8-0.8-1.8-1.8l0,0
							C197.4,207.3,198.2,206.5,199.2,206.5z"/>
						<path class="st24" d="M199.2,213.6h16c1,0,1.8,0.8,1.8,1.8l0,0c0,1-0.8,1.8-1.8,1.8h-16c-1,0-1.8-0.8-1.8-1.8l0,0
							C197.4,214.4,198.2,213.6,199.2,213.6z"/>
						<path class="st24" d="M165.3,176.2h14.3c1,0,1.8,0.8,1.8,1.8l0,0c0,1-0.8,1.8-1.8,1.8h-14.3c-1,0-1.8-0.8-1.8-1.8l0,0
							C163.5,177,164.3,176.2,165.3,176.2z"/>
						<path class="st24" d="M165.3,183.3h14.3c1,0,1.8,0.8,1.8,1.8l0,0c0,1-0.8,1.8-1.8,1.8h-14.3c-1,0-1.8-0.8-1.8-1.8l0,0
							C163.5,184.1,164.3,183.3,165.3,183.3z"/>
						<path class="st24" d="M165.3,190.5h14.3c1,0,1.8,0.8,1.8,1.8l0,0c0,1-0.8,1.8-1.8,1.8h-14.3c-1,0-1.8-0.8-1.8-1.8l0,0
							C163.5,191.3,164.3,190.5,165.3,190.5z"/>
						<path class="st24" d="M165.3,199.4h20.5c1,0,1.8,0.8,1.8,1.8l0,0c0,1-0.8,1.8-1.8,1.8h-20.5c-1,0-1.8-0.8-1.8-1.8l0,0
							C163.5,200.2,164.3,199.4,165.3,199.4z"/>
						<path class="st24" d="M165.3,206.5h20.5c1,0,1.8,0.8,1.8,1.8l0,0c0,1-0.8,1.8-1.8,1.8h-20.5c-1,0-1.8-0.8-1.8-1.8l0,0
							C163.5,207.3,164.3,206.5,165.3,206.5z"/>
						<path class="st24" d="M165.3,213.6h16c1,0,1.8,0.8,1.8,1.8l0,0c0,1-0.8,1.8-1.8,1.8h-16c-1,0-1.8-0.8-1.8-1.8l0,0
							C163.5,214.4,164.3,213.6,165.3,213.6z"/>
					</g>
				</g>
				<line class="st21" x1="197.8" y1="238.9" x2="207" y2="230.5"/>
				<g>
					<path class="st25" d="M251.4,164L251.4,164c-2-8.3,3-16.7,11.4-18.9l0,0l25.4-6.3l0,0l7.5,30.1l0,0l-25.4,6.3
						C261.9,177.4,253.5,172.3,251.4,164L251.4,164L251.4,164z"/>
					<path class="st25" d="M295.6,106.4l-7.5,30.1l0,0l-25.4-6.3c-8.3-2-13.4-10.4-11.4-18.9l0,0l0,0c2-8.3,10.4-13.4,18.9-11.4l0,0
						L295.6,106.4L295.6,106.4z"/>
					<path class="st26" d="M278.4,198.1V74.9c0-6.1,4.9-11,11-11l0,0h69.8c17.5,0,31.8,14.2,31.8,31.8l0,0v81.6
						c0,17.5-14.2,31.8-31.8,31.8h-69.8C283.3,209,278.4,204.1,278.4,198.1z"/>
					<path class="st27" d="M325.1,138.2l5.2,28.3l0,0l-50.9,9.3c-7.8,1.4-15.3-3.8-16.7-11.6l0,0l0,0c-1.4-7.8,3.8-15.3,11.6-16.7
						L325.1,138.2L325.1,138.2L325.1,138.2z"/>
					<path class="st27" d="M262.6,110.7L262.6,110.7c1.4-7.8,8.9-13,16.7-11.6l50.9,9.3l0,0l-5.2,28.3l0,0l-50.9-9.3
						C266.4,126,261.2,118.5,262.6,110.7z"/>
					<g>
						<path class="st28" d="M360.3,185.9H305c-2.1,0-4.2-1.1-5.3-3l-18.3-31.7"/>
						<line class="st29" x1="293.2" y1="160.9" x2="297" y2="149"/>
					</g>
					<g>
						<path class="st28" d="M360.3,91.9H305c-2.1,0-4.2,1.1-5.3,3l-18.3,31.7"/>
						<line class="st29" x1="293.2" y1="116.9" x2="297" y2="128.8"/>
					</g>
					<path class="st30" d="M383,193.1c26.1-32.7,26.1-79,0-111.8"/>
					<path class="st31" d="M375.3,95v85.3l0,0h-24.4c-16.5,0-29.9-13.4-29.9-29.9v-25.5c0-16.5,13.4-29.9,29.9-29.9L375.3,95
						L375.3,95z"/>
					<path class="st31" d="M375.3,97.9L375.3,97.9c0,9.1-7.4,16.6-16.6,16.6h-31.8l0,0V81.4l0,0h31.8
						C367.9,81.4,375.3,88.8,375.3,97.9L375.3,97.9z"/>
					<path class="st31" d="M375.3,180.3L375.3,180.3c0,9.1-7.4,16.6-16.6,16.6h-31.8l0,0v-33.2l0,0h31.8
						C367.8,163.7,375.3,171.1,375.3,180.3L375.3,180.3z"/>
					<circle class="st32" cx="332.3" cy="137.3" r="5.3"/>
					<g>
						<path class="st33" d="M372.2,104.4v5.7l0,0h-11.4l0,0v-5.7c0-3.1,2.5-5.7,5.7-5.7l0,0l0,0C369.6,98.8,372.2,101.3,372.2,104.4
							L372.2,104.4z"/>
						<path class="st33" d="M360.8,170.1v-5.7l0,0h11.4l0,0v5.7c0,3.1-2.5,5.7-5.7,5.7l0,0l0,0C363.4,175.8,360.8,173.2,360.8,170.1
							L360.8,170.1z"/>
					</g>
					<circle class="st25" cx="406.7" cy="136.8" r="22.1"/>
					<path class="st25" d="M398.4,156.4L398.4,156.4c3.2-12.6,3.2-25.8,0-38.2l0,0c-2-7.8-9-13.3-17.1-13.3h-16.4
						c-18,0-32.5,14.5-32.5,32.5l0,0l0,0c0,18,14.5,32.5,32.5,32.5h16.4C389.2,169.7,396.3,164.2,398.4,156.4z"/>
					<path class="st13" d="M339,117.5c5.7-4.4,12.6-6.7,19.8-6.7h16.4c8.1,0,15.1,5.5,17.1,13.3l0,0c3.2,12.6,3.2,25.8,0,38.2l0,0
						c-0.4,1.6-1.1,3.2-2,4.8c4-2.4,6.9-6.3,8-10.8l0,0c3.2-12.6,3.2-25.8,0-38.2l0,0c-2-7.8-9-13.3-17.1-13.3h-16.4
						C354.6,104.7,345.1,109.5,339,117.5z"/>
				</g>
				<path class="st26" d="M141.2,106.9L141.2,106.9c-4.5,7.3-14,9.7-21.3,5.3L97.5,98.7l0,0l16-26.6l0,0l22.4,13.5
					C143.3,90.1,145.7,99.6,141.2,106.9z"/>
				<path class="st26" d="M69.3,116.3l26.6-16l0,0l13.5,22.4c4.5,7.3,2,16.8-5.3,21.3l0,0c-7.3,4.5-16.8,2-21.3-5.3L69.3,116.3
					L69.3,116.3z"/>
				<path class="st34" d="M146.3,63.7l-87,87c-4.3,4.3-11.2,4.3-15.4,0l-49.4-49.4C-18,89-18,68.9-5.6,56.4L51.9-1.1
					c12.4-12.4,32.5-12.4,44.9,0l0,0l49.4,49.3C150.5,52.5,150.5,59.4,146.3,63.7L146.3,63.7z"/>
				<path class="st13" d="M70.9,73l16.3-23.6l0,0l42.6,29.4c6.5,4.6,8.2,13.5,3.7,20l0,0c-4.6,6.5-13.5,8.2-20,3.7L70.9,73L70.9,73
					L70.9,73z"/>
				<path class="st13" d="M95.6,136.6L95.6,136.6c-6.5,4.6-15.5,2.8-20-3.7l0,0L46.2,90.4l0,0L69.9,74l0,0l29.4,42.6
					C103.9,123.1,102.2,132.1,95.6,136.6z"/>
				<g>
					<path class="st18" d="M79.7,14.4l39.2,39.2c1.5,1.5,2.1,3.8,1.6,5.9L111,94.7"/>
					<line class="st21" x1="109.6" y1="79.6" x2="98.5" y2="85.2"/>
				</g>
				<g>
					<path class="st18" d="M13.3,80.8L52.4,120c1.5,1.5,3.8,2.1,5.9,1.6l35.3-9.5"/>
					<line class="st21" x1="78.5" y1="110.8" x2="84.1" y2="99.6"/>
				</g>
				<path class="st35" d="M68.8-6.8c-41.6,4.7-74.4,37.4-79,79"/>
				<path class="st14" d="M4.9,68.1L65.2,7.7l0,0l17.2,17.2c11.7,11.7,11.7,30.6,0,42.3l0,0L64.4,85.4c-11.7,11.7-30.6,11.7-42.3,0
					L4.9,68.1L4.9,68.1L4.9,68.1z"/>
				<path class="st14" d="M7,65.9L7,65.9c6.5-6.5,17-6.5,23.5,0l0,0l22.4,22.4l0,0l-23.5,23.5l0,0L7,89.5C0.5,83,0.5,72.4,7,65.9
					L7,65.9z"/>
				<path class="st14" d="M65.2,7.7L65.2,7.7c6.5-6.5,17-6.5,23.5,0l0,0l22.4,22.4l0,0L87.6,53.7l0,0L65.2,31.2
					C58.7,24.7,58.7,14.2,65.2,7.7L65.2,7.7z"/>
				<circle class="st17" cx="65.2" cy="68.6" r="5.3"/>
				<g>
					<path class="st17" d="M13.8,63.6l4-4l0,0l8,8l0,0l-4,4c-2.2,2.2-5.8,2.2-8,0l0,0l0,0C11.5,69.4,11.5,65.8,13.8,63.6L13.8,63.6
						L13.8,63.6z"/>
					<path class="st17" d="M68.2,25.2l-4,4l0,0l-8-8l0,0l4-4c2.2-2.2,5.8-2.2,8,0l0,0l0,0C70.4,19.4,70.4,23,68.2,25.2L68.2,25.2z"
						/>
				</g>
				<path class="st36" d="M80.2,13c-2.8-2.8-6.4-4.9-10.2-5.8c-2.4-12-14-19.8-26-17.4c-4.3,0.8-8.2,2.9-11.4,6.1
					c-0.5,0.5-1,1-1.5,1.6C19.9-7.1,7-1.6,2.4,9.7c-1.1,2.8-1.7,5.9-1.6,8.9c-5.3,5.8-7.1,14-4.7,21.5c-4.9,11.2,0.2,24.1,11.4,29
					c3,1.3,6.3,1.9,9.5,1.8c0.3,0.3,0.6,0.6,0.8,0.9c5.9,5.9,14.7,8,22.6,5.3c2.4-0.4,4.8-1.2,6.9-2.3c8.5,1.3,16.9-2.4,21.7-9.6
					c8-4.2,12.7-12.8,11.8-21.8C88.8,34.8,88.5,21.3,80.2,13z"/>
				<path class="st37" d="M80.2,13c-0.3-0.3-0.6-0.5-0.8-0.8c5.2,8.4,4.1,19.2-2.6,26.5c0.9,9-3.8,17.7-11.8,21.8
					c-4.8,7.1-13.2,10.9-21.7,9.6c-2.1,1.2-4.5,1.9-6.9,2.3c-7.9,2.6-16.6,0.6-22.6-5.3c-0.3-0.3-0.6-0.6-0.8-0.9
					c-5.7,0.2-11.3-1.8-15.4-5.6C1.7,67.5,9.1,71.4,17,71.2c0.3,0.3,0.6,0.6,0.8,0.9c5.9,5.9,14.7,8,22.6,5.3
					c2.4-0.4,4.8-1.2,6.9-2.3c8.5,1.3,16.9-2.4,21.7-9.6c8-4.2,12.7-12.8,11.8-21.8C88.8,34.8,88.5,21.3,80.2,13z"/>
			</g>
		</g>
	</g>
</g>
<g>
	<g>
		<path id="SVGID_11_" class="st9" d="M425.4,260.7h293.8c13.9,0,25.1,11.3,25.1,25.1v257.8c0,13.9-11.3,25.1-25.1,25.1H425.4
			c-13.9,0-25.1-11.3-25.1-25.1V285.7C400.3,271.9,411.5,260.7,425.4,260.7z"/>
	</g>
	<g>
		<defs>
			<path id="SVGID_7_" d="M425.4,260.7h293.8c13.9,0,25.1,11.3,25.1,25.1v257.8c0,13.9-11.3,25.1-25.1,25.1H425.4
				c-13.9,0-25.1-11.3-25.1-25.1V285.7C400.3,271.9,411.5,260.7,425.4,260.7z"/>
		</defs>
		<clipPath id="SVGID_8_">
			<use xlink:href="#SVGID_7_"  style="overflow:visible;"/>
		</clipPath>
		<g class="st38">
			<g>
				<g>
					<path class="st39" d="M431.7,529.7c-0.9,0-1.8-0.3-2.5-0.9l-7.3-5.8c-1.7-1.4-1.9-4.1-0.5-5.8c1.4-1.6,3.9-1.9,5.6-0.6l7.3,5.8
						c1.7,1.4,2,4,0.7,5.7C434,529.2,432.9,529.7,431.7,529.7L431.7,529.7z"/>
					<circle class="st40" cx="501" cy="396.6" r="18.8"/>
					<circle class="st40" cx="444.8" cy="396.6" r="18.8"/>
					<path class="st41" d="M520.7,535.9c-2.4,0-4.9-0.9-6.7-2.5l-5.3-4.7c-7.3-6.4-9.5-16.8-5.5-25.6l13.5-29.4
						c0.2-0.4,0.1-0.8-0.1-1.1l-25.7-32.8c-3.4-4.5-2.7-10.9,1.7-14.3c4.5-3.4,10.9-2.7,14.3,1.7c0,0,0,0,0.1,0.1l25.7,32.8
						c5,6.3,6,14.9,2.6,22.1l-13.5,29.4c-0.3,0.6-0.1,1.3,0.4,1.8l5.3,4.7c4.3,3.8,4.7,10.1,0.9,14.4
						C526.4,534.7,523.6,535.9,520.7,535.9L520.7,535.9z"/>
					<path class="st42" d="M502.7,471.7L481.2,449c-6.7-7.1-6.5-18.3,0.6-25l0,0l0,0c7.1-6.7,18.3-6.5,25,0.6l0,0l21.5,22.6
						c1,1.1,1,2.8-0.1,3.9l-21.6,20.6C505.4,472.8,503.7,472.8,502.7,471.7L502.7,471.7z"/>
					<path class="st42" d="M493.3,419.2h-41.7c-9.4,0-17,7.6-17,17l3.3,69.8l-3.3,84.1c0,1.5,1.2,2.7,2.7,2.7l0,0h70.3
						c1.5,0,2.7-1.2,2.7-2.7l0,0l-4.1-84.1l4.1-69.8C510.3,426.8,502.7,419.2,493.3,419.2L493.3,419.2z"/>
					<path class="st41" d="M465.1,408h16.3l0,0v13.2c0,4.6-3.7,8.2-8.2,8.2l0,0l0,0c-4.6,0-8.2-3.7-8.2-8.2l0,0L465.1,408L465.1,408
						z"/>
					<g>
						<path class="st40" d="M473.7,310.3L473.7,310.3c22.8,0,41.3,18.5,41.3,41.3v22.8l0,0h-82.5l0,0v-22.8
							C432.4,328.7,450.9,310.3,473.7,310.3L473.7,310.3z"/>
						<circle class="st41" cx="438" cy="374.4" r="11.3"/>
						<circle class="st41" cx="508.5" cy="374.4" r="11.3"/>
						<path class="st39" d="M438,342.3v37.8c0,19.5,15.8,35.3,35.3,35.3l0,0c19.5,0,35.3-15.8,35.3-35.3v-37.8H438z"/>
						<path class="st40" d="M469.7,339.7h-34.6c6.8,16.4,22.4,28,40.6,28v-17.4c8.1,11,20.9,17.4,34.6,17.4v-28H469.7z"/>
						<g>
							<path class="st40" d="M451.5,366c-1,0-1.8-0.8-1.8-1.8c0-0.8,0.5-1.4,1.2-1.7l8.5-2.8c0.9-0.3,1.9,0.1,2.2,1.1
								c0.3,0.9-0.1,1.9-1.1,2.2c0,0,0,0-0.1,0l-8.5,2.8C451.9,365.9,451.7,366,451.5,366z"/>
							<path class="st40" d="M495,365.8c-0.2,0-0.4,0-0.6-0.1l-8.5-2.8c-0.9-0.3-1.4-1.3-1.1-2.2c0.3-0.9,1.3-1.4,2.2-1.1l8.5,2.8
								c0.9,0.3,1.4,1.3,1.1,2.2C496.4,365.2,495.8,365.8,495,365.8L495,365.8z"/>
							<path class="st43" d="M475,389.3H471c-1,0-1.7-0.8-1.7-1.8c0-0.9,0.8-1.7,1.7-1.7h3.9v-6.8c0-1,0.8-1.8,1.8-1.8
								c1,0,1.7,0.8,1.8,1.8v7C478.4,387.8,476.8,389.3,475,389.3z"/>
							<path class="st43" d="M463.6,375.6c-0.6,0-1.2-0.5-1.4-1.1c-0.4-1.9-2.3-3.1-4.3-2.7c-1.3,0.3-2.4,1.3-2.7,2.7
								c-0.2,0.7-1,1.2-1.7,1s-1.1-0.9-1-1.6c0.8-3.4,4.2-5.6,7.6-4.9c2.4,0.5,4.3,2.4,4.9,4.9c0.2,0.7-0.3,1.5-1.1,1.7
								C463.8,375.6,463.7,375.6,463.6,375.6L463.6,375.6z"/>
							<path class="st43" d="M493.6,375.6c-0.6,0-1.2-0.5-1.4-1.1c-0.4-1.9-2.3-3.1-4.3-2.7c-1.3,0.3-2.4,1.3-2.7,2.7
								c-0.2,0.7-1,1.2-1.7,1c-0.7-0.2-1.1-0.9-1-1.6c0.8-3.4,4.2-5.6,7.6-4.9c2.4,0.5,4.3,2.4,4.9,4.9c0.2,0.7-0.3,1.5-1.1,1.7
								C493.8,375.6,493.7,375.6,493.6,375.6L493.6,375.6z"/>
						</g>
						<g>
							<g>
								<path class="st44" d="M483.7,394.5c1.1,0,2,0.8,2,1.9c0,0.1,0,0.2,0,0.3c-1.2,6.9-7.9,11.5-14.8,10.2
									c-5.2-0.9-9.2-5-10.2-10.2c-0.2-1.1,0.6-2.1,1.6-2.2c0.1,0,0.2,0,0.3,0L483.7,394.5L483.7,394.5z"/>
								<path class="st45" d="M475.6,402.2c-2.8,0.9-4.9,2.8-5,4.8c4.3,0.9,8.7-0.4,11.8-3.7C481.2,401.8,478.5,401.3,475.6,402.2z"
									/>
							</g>
							<path class="st46" d="M483.7,394.5h-21c-1.1,0-2,0.8-2,1.9c0,0.1,0,0.2,0,0.3c0.1,0.7,0.3,1.4,0.6,2.1h23.8
								c0.3-0.7,0.4-1.4,0.6-2.1c0.2-1.1-0.6-2-1.6-2.2C483.9,394.5,483.8,394.5,483.7,394.5z"/>
						</g>
					</g>
					<rect x="448.6" y="475" class="st47" width="49.3" height="4.1"/>
					<path class="st48" d="M439.8,527.1v31.4c0,0.4-0.3,0.7-0.7,0.7l0,0h-47.4c-0.4,0-0.7-0.3-0.7-0.7l0,0v-31.4
						c0-2.5,2-4.6,4.6-4.6l0,0h39.8C437.8,522.6,439.8,524.6,439.8,527.1z"/>
					<path class="st49" d="M425.5,531.9L425.5,531.9c1.4,0,2.5,1.1,2.5,2.5v13c0,1.4-1.1,2.5-2.5,2.5l0,0c-1.4,0-2.5-1.1-2.5-2.5
						v-13.1C423,533,424.1,531.9,425.5,531.9z"/>
					<path class="st39" d="M415.4,537.6c-0.1,0-0.2,0-0.4,0c-5.6-0.2-10-4.9-9.8-10.6c3.1-90.4,41.4-98.3,45.8-98.9l2.7,20.2
						c0.1,0,0.3,0,0.4-0.1c-0.3,0.1-26.1,6.9-28.6,79.4C425.3,533.2,420.8,537.6,415.4,537.6z"/>
					<path class="st42" d="M417.5,448.6l20.6-23.5c6.4-7.3,17.5-8.1,25-1.6l0,0l0,0c7.3,6.4,8.1,17.5,1.6,25l0,0L444.1,472
						c-1,1.1-2.7,1.2-3.9,0.3l-22.5-19.7C416.7,451.5,416.6,449.8,417.5,448.6z"/>
					<path class="st41" d="M462,419.3h22.4c4.5,0,8.1,3.7,8.1,8.1l0,0c0,4.5-3.7,8.1-8.1,8.1H462c-4.5,0-8.1-3.7-8.1-8.1l0,0
						C454,423,457.6,419.3,462,419.3z"/>
					<circle class="st50" cx="458.7" cy="374.2" r="11.5"/>
					<circle class="st50" cx="488.7" cy="374.2" r="11.5"/>
					<line class="st50" x1="470" y1="374.2" x2="477.2" y2="374.2"/>
				</g>
				<g>
					
						<ellipse transform="matrix(0.1602 -0.9871 0.9871 0.1602 52.9106 890.4809)" class="st25" cx="549.8" cy="414.1" rx="18.2" ry="18.2"/>
					<g>
						<path class="st51" d="M617.5,449.3l27.8,29.1c3,3.1,3,8.1,0.2,11.4l-19.3,21.7c-2.1,2.4-2.4,6-0.8,8.7l2.8,4.8"/>
						<path class="st4" d="M614,480.9l-25.5-23.1c-7.9-7.2-8.5-19.6-1.3-27.5l0,0c7.2-7.9,19.6-8.5,27.5-1.3l25.5,23.1
							c1.2,1.1,1.3,3,0.2,4.3l0,0l-22.1,24.3C617,481.9,615.2,482,614,480.9L614,480.9z"/>
					</g>
					<path class="st4" d="M622.1,606.9h-88.6c-3.7,0-6.5-2.9-6.5-6.5l0,0l5.7-76.2l-5.7-60.4c0-28,22.7-50.8,50.8-50.8l0,0
						c28,0,50.8,22.7,50.8,50.8l0,0l-4.5,60.4l4.5,76.2C628.6,603.9,625.7,606.9,622.1,606.9z"/>
					<line class="st52" x1="545.1" y1="481.4" x2="609.7" y2="481.4"/>
					<line class="st53" x1="541.7" y1="556.2" x2="541.7" y2="591.5"/>
					<line class="st53" x1="560" y1="556.2" x2="560" y2="591.5"/>
					<line class="st53" x1="578.3" y1="556.2" x2="578.3" y2="591.5"/>
					<line class="st53" x1="596.5" y1="556.2" x2="596.5" y2="591.5"/>
					<line class="st53" x1="614.9" y1="556.2" x2="614.9" y2="591.5"/>
					<path class="st4" d="M515.2,451.1l25.5-23.1c7.9-7.2,20.3-6.6,27.5,1.3l0,0c7.2,7.9,6.6,20.3-1.3,27.5l-25.5,23.1
						c-1.2,1.1-3.1,1-4.3-0.2L515,455.3C513.9,454.1,514,452.2,515.2,451.1L515.2,451.1z"/>
					<path class="st32" d="M577.8,449.1c16.4,0,30.3-9.1,35.1-21.8c-8.1-8.8-20.8-14.6-35.1-14.6l0,0c-14.3,0-27,5.7-35.1,14.6
						C547.4,440,561.3,449.1,577.8,449.1z"/>
					<path class="st25" d="M535.8,372.7v-17.2c0-23.2,18.8-42,42-42l0,0c23.2,0,42,18.8,42,42v17.2"/>
					<circle class="st54" cx="614.9" cy="376.3" r="11.5"/>
					<ellipse class="st54" cx="541.7" cy="376.3" rx="11.5" ry="11.5"/>
					<path class="st55" d="M537.7,382.8c-2.7,0-5,2.2-5,5s2.2,5,5,5c2.7,0,5-2.2,5-5l0,0"/>
					<path class="st55" d="M617.4,382.8c2.7,0,5,2.2,5,5s-2.2,5-5,5s-5-2.2-5-5l0,0"/>
					<path class="st54" d="M560.9,394.8h33.4l0,0v26.9c0,9.2-7.5,16.7-16.6,16.7l0,0l0,0c-9.2,0-16.6-7.5-16.6-16.6v-27H560.9z"/>
					<path class="st32" d="M548.6,350.2h58c3.7,0,6.5,2.9,6.5,6.5v29.9c0,19.7-15.9,35.5-35.5,35.5l0,0c-19.7,0-35.5-15.9-35.5-35.5
						l0,0v-29.9C542.1,353.2,545,350.2,548.6,350.2L548.6,350.2z"/>
					<path class="st56" d="M583.2,390.8h-12.5c-1.1,0-1.9-0.9-1.9-1.9c0-1.1,0.9-1.9,1.9-1.9l0,0h12.5c1.1,0,1.9,0.9,1.9,1.9
						C585.2,389.9,584.4,390.8,583.2,390.8z"/>
					<circle class="st25" cx="559.8" cy="375.2" r="3.7"/>
					<circle class="st25" cx="594.3" cy="375.2" r="3.7"/>
					<path class="st57" d="M550.7,367.4c0,0,3.9-3.6,11.1-2"/>
					<path class="st57" d="M600.3,367.1c0,0-4.1-3.2-11.2-1.3"/>
					<path class="st58" d="M560,400.9c3.9,4.3,9.3,6.7,15.1,6.7"/>
				</g>
				<rect x="693.9" y="532.2" class="st41" width="16.4" height="120"/>
				<rect x="666.4" y="532.2" class="st39" width="15.5" height="120"/>
				<rect x="690.6" y="532.2" class="st59" width="23" height="102.6"/>
				<rect x="662.7" y="532.2" class="st59" width="23" height="102.6"/>
				<line class="st60" x1="713.6" y1="546.8" x2="662.7" y2="546.8"/>
				<rect x="662.7" y="532.2" class="st59" width="51" height="17.1"/>
				<path class="st61" d="M688.8,421.8L688.8,421.8c-16.7,0-30.2,13.5-30.2,30.2l1.1,9.4c2,16.2,2.2,32.7,0.7,49l-1.9,21
					c0,1.5,1.2,2.7,2.7,2.7l0,0h55.1c1.5,0,2.7-1.2,2.7-2.7l0,0l-1.9-22.1c-1.3-15.5-1.1-31.1,0.7-46.7L719,452
					C719.1,435.3,705.5,421.8,688.8,421.8L688.8,421.8z"/>
				<line class="st62" x1="671.5" y1="469.1" x2="707.8" y2="469.1"/>
				<g>
					<path class="st39" d="M661.2,514.7c-0.8,0.1-1.5-0.1-2.2-0.5l-6.7-4.4c-1.6-1-2.1-3.1-1.1-4.8c1-1.6,3.1-2.1,4.8-1.1
						c0,0,0.1,0,0.1,0.1l6.7,4.4c1.6,1,2,3.2,1,4.9C663.2,514,662.3,514.6,661.2,514.7z"/>
					<g>
						<path class="st39" d="M648.6,526.4c-0.1,0-0.2,0-0.3,0c-4.8,0.3-8.9-3.4-9.2-8.2l0,0c-4.4-77.3,27.7-87,31.3-87.9l4,17
							c0.1,0,0.2-0.1,0.3-0.1c-0.2,0.1-21.7,7.8-18.3,70C656.8,522,653.2,526,648.6,526.4z"/>
						<path class="st61" d="M643.6,450.5l15.7-21.6c4.9-6.8,14.4-8.2,21.1-3.3l0,0c6.8,4.9,8.2,14.4,3.3,21.1l-15.7,21.6
							c-0.7,1-2.2,1.3-3.2,0.5l0,0l-20.7-14.9C643.1,453,642.8,451.6,643.6,450.5L643.6,450.5z"/>
					</g>
				</g>
				<path class="st25" d="M648.8,368.7h5.4l0,0v30.9c0,1.5-1.2,2.6-2.6,2.6l0,0l0,0c-1.5,0-2.6-1.2-2.6-2.6l0,0L648.8,368.7
					L648.8,368.7L648.8,368.7z"/>
				<path class="st25" d="M722.8,368.7h6.3l0,0v30.4c0,1.7-1.4,3.1-3.1,3.1l0,0c-1.7,0-3.1-1.4-3.1-3.1L722.8,368.7L722.8,368.7z"/>
				<path class="st25" d="M714.2,370.6c-8.3,16.1-1.9,35.9,14.2,44.2c5,2.5,10.7,3.9,16.2,3.7h0.1c1.9-0.1,3.6,1.3,3.7,3.2
					c0.1,0.9-0.3,1.8-0.9,2.5c-12.2,13.5-32.9,14.6-46.4,2.4c-13.5-12.2-14.6-32.9-2.4-46.4C702.9,375.6,708.2,372.2,714.2,370.6
					L714.2,370.6z"/>
				<path class="st41" d="M680.5,415.8h15.9l0,0v12.8c0,4.4-3.6,8-8,8l0,0l0,0c-4.4,0-8-3.6-8-8l0,0L680.5,415.8L680.5,415.8z"/>
				<g>
					<path class="st25" d="M689,320.6L689,320.6c22.2,0,40.2,18,40.2,40.2l0,0V383l0,0h-80.3l0,0v-22.2
						C648.8,338.6,666.7,320.6,689,320.6z"/>
					<circle class="st41" cx="654.2" cy="383" r="11"/>
					<circle class="st41" cx="722.8" cy="383" r="11"/>
					<path class="st39" d="M654.2,363v25.7c0,19,15.4,34.4,34.3,34.4l0,0c19,0,34.4-15.4,34.4-34.3l0,0v-25.7l-17.8-16.6L654.2,363z
						"/>
					<g>
						<path class="st25" d="M667.3,374.8c-0.9,0-1.7-0.8-1.7-1.7c0-0.7,0.5-1.4,1.2-1.6l8.3-2.7c0.9-0.3,1.9,0.2,2.2,1.1
							s-0.2,1.9-1.1,2.2l0,0l-8.3,2.7C667.7,374.8,667.4,374.8,667.3,374.8z"/>
						<path class="st25" d="M710.6,373c-0.2,0.1-0.4,0.1-0.5,0.1l-8.7,0.3c-0.9,0-1.7-0.7-1.8-1.6c-0.1-0.9,0.7-1.7,1.6-1.8
							c0,0,0,0,0.1,0l8.7-0.3c0.9,0,1.7,0.7,1.8,1.7C711.7,372,711.3,372.8,710.6,373L710.6,373z"/>
						<path class="st43" d="M690.2,395.7h-4c-0.9,0-1.7-0.8-1.7-1.7c0-0.9,0.8-1.7,1.7-1.7l0,0h3.8v-6.6c0-0.9,0.7-1.7,1.7-1.8
							c0.9,0,1.7,0.7,1.8,1.7v0.1v6.8C693.5,394.3,692,395.7,690.2,395.7z"/>
					</g>
					<g>
						<g>
							<path class="st44" d="M699.8,400.7c1.2,0,2.1,0.9,2.1,2.1c0,0.1,0,0.2,0,0.3c-1.3,7.4-8.5,12.4-15.9,11.1
								c-5.6-1-10-5.4-11.1-11.1c-0.2-1.2,0.6-2.2,1.8-2.4c0.1,0,0.2,0,0.4,0H699.8z"/>
							<path class="st45" d="M691.1,408.9c-3,0.9-5.2,3.1-5.4,5.2c4.7,1,9.4-0.5,12.7-3.9C697.1,408.6,694.1,408,691.1,408.9z"/>
						</g>
						<path class="st46" d="M700.4,400.5h-23.7c-1.2,0-2.2,0.9-2.2,2.2c0,0.1,0,0.2,0,0.4c0.1,0.8,0.4,1.6,0.7,2.3h26.8
							c0.3-0.8,0.5-1.5,0.7-2.3c0.2-1.2-0.7-2.3-1.9-2.5C700.6,400.5,700.5,400.5,700.4,400.5z"/>
					</g>
				</g>
				<path class="st25" d="M705.1,334.4l-56,21.7c0.1,0.4,0.2,0.7,0.3,1.1c3.2,9.8,18.9,13.6,34.8,8.3c15.9-5.3,26.3-17.5,23-27.4
					C706.7,336.8,706,335.5,705.1,334.4z"/>
				<path class="st25" d="M728.9,362.7l-25.4-20.5c-0.2,0.1-0.3,0.3-0.4,0.4c-3.8,4.2-1.3,12.6,5.5,18.7c6.8,6.1,15.3,7.6,19.1,3.4
					C728.2,364.1,728.6,363.4,728.9,362.7z"/>
				<circle class="st63" cx="649.7" cy="390.9" r="3.1"/>
				<circle class="st63" cx="727.8" cy="390.9" r="3.1"/>
				<circle class="st25" cx="707.8" cy="380.3" r="3.7"/>
				<circle class="st25" cx="678" cy="380.3" r="3.7"/>
				<g>
					<path class="st39" d="M431.7,529.7c-0.9,0-1.8-0.3-2.5-0.9l-7.3-5.8c-1.7-1.4-1.9-4.1-0.5-5.8c1.4-1.6,3.9-1.9,5.6-0.6l7.3,5.8
						c1.7,1.4,2,4,0.7,5.7C434,529.2,432.9,529.7,431.7,529.7L431.7,529.7z"/>
					<circle class="st40" cx="501" cy="396.6" r="18.8"/>
					<circle class="st40" cx="444.8" cy="396.6" r="18.8"/>
					<path class="st41" d="M520.7,535.9c-2.4,0-4.9-0.9-6.7-2.5l-5.3-4.7c-7.3-6.4-9.5-16.8-5.5-25.6l13.5-29.4
						c0.2-0.4,0.1-0.8-0.1-1.1l-25.7-32.8c-3.4-4.5-2.7-10.9,1.7-14.3c4.5-3.4,10.9-2.7,14.3,1.7c0,0,0,0,0.1,0.1l25.7,32.8
						c5,6.3,6,14.9,2.6,22.1l-13.5,29.4c-0.3,0.6-0.1,1.3,0.4,1.8l5.3,4.7c4.3,3.8,4.7,10.1,0.9,14.4
						C526.4,534.7,523.6,535.9,520.7,535.9L520.7,535.9z"/>
					<path class="st42" d="M502.7,471.7L481.2,449c-6.7-7.1-6.5-18.3,0.6-25l0,0l0,0c7.1-6.7,18.3-6.5,25,0.6l0,0l21.5,22.6
						c1,1.1,1,2.8-0.1,3.9l-21.6,20.6C505.4,472.8,503.7,472.8,502.7,471.7L502.7,471.7z"/>
					<path class="st42" d="M493.3,419.2h-41.7c-9.4,0-17,7.6-17,17l3.3,69.8l-3.3,84.1c0,1.5,1.2,2.7,2.7,2.7l0,0h70.3
						c1.5,0,2.7-1.2,2.7-2.7l0,0l-4.1-84.1l4.1-69.8C510.3,426.8,502.7,419.2,493.3,419.2L493.3,419.2z"/>
					<path class="st41" d="M465.1,408h16.3l0,0v13.2c0,4.6-3.7,8.2-8.2,8.2l0,0l0,0c-4.6,0-8.2-3.7-8.2-8.2l0,0L465.1,408L465.1,408
						z"/>
					<g>
						<path class="st40" d="M473.7,310.3L473.7,310.3c22.8,0,41.3,18.5,41.3,41.3v22.8l0,0h-82.5l0,0v-22.8
							C432.4,328.7,450.9,310.3,473.7,310.3L473.7,310.3z"/>
						<circle class="st41" cx="438" cy="374.4" r="11.3"/>
						<circle class="st41" cx="508.5" cy="374.4" r="11.3"/>
						<path class="st39" d="M438,342.3v37.8c0,19.5,15.8,35.3,35.3,35.3l0,0c19.5,0,35.3-15.8,35.3-35.3v-37.8H438z"/>
						<path class="st40" d="M469.7,339.7h-34.6c6.8,16.4,22.4,28,40.6,28v-17.4c8.1,11,20.9,17.4,34.6,17.4v-28H469.7z"/>
						<g>
							<path class="st40" d="M451.5,366c-1,0-1.8-0.8-1.8-1.8c0-0.8,0.5-1.4,1.2-1.7l8.5-2.8c0.9-0.3,1.9,0.1,2.2,1.1
								c0.3,0.9-0.1,1.9-1.1,2.2c0,0,0,0-0.1,0l-8.5,2.8C451.9,365.9,451.7,366,451.5,366z"/>
							<path class="st40" d="M495,365.8c-0.2,0-0.4,0-0.6-0.1l-8.5-2.8c-0.9-0.3-1.4-1.3-1.1-2.2c0.3-0.9,1.3-1.4,2.2-1.1l8.5,2.8
								c0.9,0.3,1.4,1.3,1.1,2.2C496.4,365.2,495.8,365.8,495,365.8L495,365.8z"/>
							<path class="st43" d="M475,389.3H471c-1,0-1.7-0.8-1.7-1.8c0-0.9,0.8-1.7,1.7-1.7h3.9v-6.8c0-1,0.8-1.8,1.8-1.8
								c1,0,1.7,0.8,1.8,1.8v7C478.4,387.8,476.8,389.3,475,389.3z"/>
							<path class="st43" d="M463.6,375.6c-0.6,0-1.2-0.5-1.4-1.1c-0.4-1.9-2.3-3.1-4.3-2.7c-1.3,0.3-2.4,1.3-2.7,2.7
								c-0.2,0.7-1,1.2-1.7,1s-1.1-0.9-1-1.6c0.8-3.4,4.2-5.6,7.6-4.9c2.4,0.5,4.3,2.4,4.9,4.9c0.2,0.7-0.3,1.5-1.1,1.7
								C463.8,375.6,463.7,375.6,463.6,375.6L463.6,375.6z"/>
							<path class="st43" d="M493.6,375.6c-0.6,0-1.2-0.5-1.4-1.1c-0.4-1.9-2.3-3.1-4.3-2.7c-1.3,0.3-2.4,1.3-2.7,2.7
								c-0.2,0.7-1,1.2-1.7,1c-0.7-0.2-1.1-0.9-1-1.6c0.8-3.4,4.2-5.6,7.6-4.9c2.4,0.5,4.3,2.4,4.9,4.9c0.2,0.7-0.3,1.5-1.1,1.7
								C493.8,375.6,493.7,375.6,493.6,375.6L493.6,375.6z"/>
						</g>
						<g>
							<g>
								<path class="st44" d="M483.7,394.5c1.1,0,2,0.8,2,1.9c0,0.1,0,0.2,0,0.3c-1.2,6.9-7.9,11.5-14.8,10.2
									c-5.2-0.9-9.2-5-10.2-10.2c-0.2-1.1,0.6-2.1,1.6-2.2c0.1,0,0.2,0,0.3,0L483.7,394.5L483.7,394.5z"/>
								<path class="st45" d="M475.6,402.2c-2.8,0.9-4.9,2.8-5,4.8c4.3,0.9,8.7-0.4,11.8-3.7C481.2,401.8,478.5,401.3,475.6,402.2z"
									/>
							</g>
							<path class="st46" d="M483.7,394.5h-21c-1.1,0-2,0.8-2,1.9c0,0.1,0,0.2,0,0.3c0.1,0.7,0.3,1.4,0.6,2.1h23.8
								c0.3-0.7,0.4-1.4,0.6-2.1c0.2-1.1-0.6-2-1.6-2.2C483.9,394.5,483.8,394.5,483.7,394.5z"/>
						</g>
					</g>
					<rect x="448.6" y="475" class="st47" width="49.3" height="4.1"/>
					<path class="st48" d="M439.8,527.1v31.4c0,0.4-0.3,0.7-0.7,0.7l0,0h-47.4c-0.4,0-0.7-0.3-0.7-0.7l0,0v-31.4
						c0-2.5,2-4.6,4.6-4.6l0,0h39.8C437.8,522.6,439.8,524.6,439.8,527.1z"/>
					<path class="st49" d="M425.5,531.9L425.5,531.9c1.4,0,2.5,1.1,2.5,2.5v13c0,1.4-1.1,2.5-2.5,2.5l0,0c-1.4,0-2.5-1.1-2.5-2.5
						v-13.1C423,533,424.1,531.9,425.5,531.9z"/>
					<path class="st39" d="M415.4,537.6c-0.1,0-0.2,0-0.4,0c-5.6-0.2-10-4.9-9.8-10.6c3.1-90.4,41.4-98.3,45.8-98.9l2.7,20.2
						c0.1,0,0.3,0,0.4-0.1c-0.3,0.1-26.1,6.9-28.6,79.4C425.3,533.2,420.8,537.6,415.4,537.6z"/>
					<path class="st42" d="M417.5,448.6l20.6-23.5c6.4-7.3,17.5-8.1,25-1.6l0,0l0,0c7.3,6.4,8.1,17.5,1.6,25l0,0L444.1,472
						c-1,1.1-2.7,1.2-3.9,0.3l-22.5-19.7C416.7,451.5,416.6,449.8,417.5,448.6z"/>
					<path class="st41" d="M462,419.3h22.4c4.5,0,8.1,3.7,8.1,8.1l0,0c0,4.5-3.7,8.1-8.1,8.1H462c-4.5,0-8.1-3.7-8.1-8.1l0,0
						C454,423,457.6,419.3,462,419.3z"/>
					<circle class="st50" cx="458.7" cy="374.2" r="11.5"/>
					<circle class="st50" cx="488.7" cy="374.2" r="11.5"/>
					<line class="st50" x1="470" y1="374.2" x2="477.2" y2="374.2"/>
				</g>
				<rect x="693.9" y="532.2" class="st41" width="16.4" height="120"/>
				<rect x="666.4" y="532.2" class="st39" width="15.5" height="120"/>
				<rect x="690.6" y="532.2" class="st59" width="23" height="102.6"/>
				<rect x="662.7" y="532.2" class="st59" width="23" height="102.6"/>
				<line class="st60" x1="713.6" y1="546.8" x2="662.7" y2="546.8"/>
				<rect x="662.7" y="532.2" class="st59" width="51" height="17.1"/>
				<path class="st61" d="M688.8,421.8L688.8,421.8c-16.7,0-30.2,13.5-30.2,30.2l1.1,9.4c2,16.2,2.2,32.7,0.7,49l-1.9,21
					c0,1.5,1.2,2.7,2.7,2.7l0,0h55.1c1.5,0,2.7-1.2,2.7-2.7l0,0l-1.9-22.1c-1.3-15.5-1.1-31.1,0.7-46.7L719,452
					C719.1,435.3,705.5,421.8,688.8,421.8L688.8,421.8z"/>
				<line class="st62" x1="671.5" y1="469.1" x2="707.8" y2="469.1"/>
				<g>
					<path class="st39" d="M661.2,514.7c-0.8,0.1-1.5-0.1-2.2-0.5l-6.7-4.4c-1.6-1-2.1-3.1-1.1-4.8c1-1.6,3.1-2.1,4.8-1.1
						c0,0,0.1,0,0.1,0.1l6.7,4.4c1.6,1,2,3.2,1,4.9C663.2,514,662.3,514.6,661.2,514.7z"/>
					<g>
						<path class="st39" d="M648.6,526.4c-0.1,0-0.2,0-0.3,0c-4.8,0.3-8.9-3.4-9.2-8.2l0,0c-4.4-77.3,27.7-87,31.3-87.9l4,17
							c0.1,0,0.2-0.1,0.3-0.1c-0.2,0.1-21.7,7.8-18.3,70C656.8,522,653.2,526,648.6,526.4z"/>
						<path class="st61" d="M643.6,450.5l15.7-21.6c4.9-6.8,14.4-8.2,21.1-3.3l0,0c6.8,4.9,8.2,14.4,3.3,21.1l-15.7,21.6
							c-0.7,1-2.2,1.3-3.2,0.5l0,0l-20.7-14.9C643.1,453,642.8,451.6,643.6,450.5L643.6,450.5z"/>
					</g>
				</g>
				<g>
					<path class="st39" d="M716.4,514.7c0.8,0.1,1.5-0.1,2.2-0.5l6.7-4.4c1.6-1,2.1-3.1,1.1-4.8c-1-1.6-3.1-2.1-4.8-1.1
						c0,0-0.1,0-0.1,0.1l-6.7,4.4c-1.6,1-2,3.2-1,4.9C714.4,514,715.4,514.6,716.4,514.7z"/>
					<g>
						<path class="st39" d="M729,526.4c0.1,0,0.2,0,0.3,0c4.8,0.3,8.9-3.4,9.2-8.2c4.4-77.3-27.7-87-31.3-87.9l-4,17
							c-0.1,0-0.2-0.1-0.3-0.1c0.2,0.1,21.7,7.8,18.3,70C720.8,522,724.4,526,729,526.4z"/>
						<path class="st61" d="M709.5,468.3l-15.7-21.6c-4.9-6.8-3.4-16.2,3.3-21.1l0,0c6.8-4.9,16.2-3.4,21.1,3.3l15.7,21.6
							c0.7,1,0.5,2.5-0.5,3.2l0,0l-20.7,15C711.8,469.5,710.4,469.3,709.5,468.3L709.5,468.3z"/>
					</g>
				</g>
				<path class="st25" d="M648.8,368.7h5.4l0,0v30.9c0,1.5-1.2,2.6-2.6,2.6l0,0l0,0c-1.5,0-2.6-1.2-2.6-2.6l0,0L648.8,368.7
					L648.8,368.7L648.8,368.7z"/>
				<path class="st25" d="M722.8,368.7h6.3l0,0v30.4c0,1.7-1.4,3.1-3.1,3.1l0,0c-1.7,0-3.1-1.4-3.1-3.1L722.8,368.7L722.8,368.7z"/>
				<path class="st41" d="M680.5,415.8h15.9l0,0v12.8c0,4.4-3.6,8-8,8l0,0l0,0c-4.4,0-8-3.6-8-8l0,0L680.5,415.8L680.5,415.8z"/>
				<g>
					<path class="st25" d="M689,320.6L689,320.6c22.2,0,40.2,18,40.2,40.2l0,0V383l0,0h-80.3l0,0v-22.2
						C648.8,338.6,666.7,320.6,689,320.6z"/>
					<circle class="st41" cx="654.2" cy="383" r="11"/>
					<circle class="st41" cx="722.8" cy="383" r="11"/>
					<path class="st39" d="M654.2,363v25.7c0,19,15.4,34.4,34.3,34.4l0,0c19,0,34.4-15.4,34.4-34.3l0,0v-25.7l-17.8-16.6L654.2,363z
						"/>
					<g>
						<path class="st25" d="M663.9,373.5c-0.9-0.3-1.4-1.2-1.2-2.1c0.2-0.7,0.8-1.2,1.6-1.2l8.7-0.3c0.9,0,1.7,0.7,1.8,1.6
							c0,0.9-0.7,1.7-1.6,1.8l-8.7,0.3C664.2,373.6,664,373.6,663.9,373.5z"/>
						<path class="st25" d="M706.5,373.7c0.9-0.2,1.5-1.1,1.3-2.1c-0.2-0.7-0.8-1.2-1.5-1.3l-8.7-0.7c-0.9-0.1-1.8,0.6-1.8,1.6
							c-0.1,0.9,0.6,1.8,1.6,1.8l0,0l8.7,0.7C706.2,373.8,706.3,373.8,706.5,373.7z"/>
						<path class="st43" d="M690.2,395.7h-4c-0.9,0-1.7-0.8-1.7-1.7c0-0.9,0.8-1.7,1.7-1.7l0,0h3.8v-6.6c0-0.9,0.7-1.7,1.7-1.8
							c0.9,0,1.7,0.7,1.8,1.7v0.1v6.8C693.5,394.3,692,395.7,690.2,395.7z"/>
					</g>
					<g>
						<g>
							<path class="st44" d="M699.8,400.7c1.2,0,2.1,0.9,2.1,2.1c0,0.1,0,0.2,0,0.3c-1.3,7.4-8.5,12.4-15.9,11.1
								c-5.6-1-10-5.4-11.1-11.1c-0.2-1.2,0.6-2.2,1.8-2.4c0.1,0,0.2,0,0.4,0H699.8z"/>
							<path class="st45" d="M691.1,408.9c-3,0.9-5.2,3.1-5.4,5.2c4.7,1,9.4-0.5,12.7-3.9C697.1,408.6,694.1,408,691.1,408.9z"/>
						</g>
						<path class="st46" d="M700.4,400.5h-23.7c-1.2,0-2.2,0.9-2.2,2.2c0,0.1,0,0.2,0,0.4c0.1,0.8,0.4,1.6,0.7,2.3h26.8
							c0.3-0.8,0.5-1.5,0.7-2.3c0.2-1.2-0.7-2.3-1.9-2.5C700.6,400.5,700.5,400.5,700.4,400.5z"/>
					</g>
				</g>
				<path class="st25" d="M705.1,334.4l-56,21.7c0.1,0.4,0.2,0.7,0.3,1.1c3.2,9.8,18.9,13.6,34.8,8.3c15.9-5.3,26.3-17.5,23-27.4
					C706.7,336.8,706,335.5,705.1,334.4z"/>
				<path class="st25" d="M728.9,362.7l-25.4-20.5c-0.2,0.1-0.3,0.3-0.4,0.4c-3.8,4.2-1.3,12.6,5.5,18.7c6.8,6.1,15.3,7.6,19.1,3.4
					C728.2,364.1,728.6,363.4,728.9,362.7z"/>
				<circle class="st63" cx="649.7" cy="390.9" r="3.1"/>
				<circle class="st63" cx="727.8" cy="390.9" r="3.1"/>
				<circle class="st25" cx="698.6" cy="380.3" r="3.7"/>
				<circle class="st25" cx="668.9" cy="380.3" r="3.7"/>
			</g>
		</g>
	</g>
</g>
<g>
	<g>
		<path id="SVGID_13_" class="st9" d="M27.3,363.6H353c13.9,0,25.1,11.3,25.1,25.1v154.8c0,13.9-11.3,25.1-25.1,25.1H27.3
			c-13.9,0-25.1-11.3-25.1-25.1V388.7C2.2,374.9,13.5,363.6,27.3,363.6z"/>
	</g>
	<g>
		<defs>
			<path id="SVGID_10_" d="M27.3,363.6H353c13.9,0,25.1,11.3,25.1,25.1v154.8c0,13.9-11.3,25.1-25.1,25.1H27.3
				c-13.9,0-25.1-11.3-25.1-25.1V388.7C2.2,374.9,13.5,363.6,27.3,363.6z"/>
		</defs>
		<clipPath id="SVGID_12_">
			<use xlink:href="#SVGID_10_"  style="overflow:visible;"/>
		</clipPath>
		<g class="st64">
			<g>
				<g>
					<g>
						<g>
							<path class="st65" d="M31.2,529.5c0.5,0,0.9-0.1,1.4-0.2c61.1-14.3,61.3-41.4,61.1-44.4l-14.1,0.8c0-0.1,0-0.2,0-0.3
								c0,0.2-1.1,18.7-50.2,30.1c-3.8,0.9-6.2,4.7-5.3,8.5C24.9,527.3,27.9,529.6,31.2,529.5L31.2,529.5z"/>
							<path class="st65" d="M38.1,518c1.5,0,2.7-1.3,2.7-2.9c0-0.8-0.4-1.5-1-2l-4.9-4.2c-1.2-1-2.9-0.9-4,0.3
								c-1,1.2-0.9,2.9,0.3,4l0,0l4.9,4.2C36.7,517.8,37.4,518,38.1,518z"/>
						</g>
						<path class="st5" d="M126.6,540.1h-44c-1,0-1.9-0.8-1.9-1.9v-63.4c0-6.5,5.3-11.8,11.8-11.8l0,0h24.2
							c6.5,0,11.8,5.3,11.8,11.8l0,0v63.4C128.4,539.3,127.6,540.1,126.6,540.1z"/>
						<rect x="83.7" y="540.1" class="st59" width="41.5" height="83.5"/>
						<rect x="103.1" y="556.2" class="st66" width="2.7" height="67.6"/>
						<rect x="99.8" y="554.3" class="st66" width="9.4" height="2.7"/>
						<path class="st5" d="M72.1,492.7l7-20.5c2.1-6.4,9.1-9.8,15.5-7.6l0,0l0,0c6.4,2.1,9.8,9.1,7.6,15.5l0,0l-7,20.5
							c-0.3,1-1.4,1.5-2.4,1.2l-19.6-6.7C72.3,494.8,71.7,493.7,72.1,492.7L72.1,492.7z"/>
						<g>
							<path class="st65" d="M122.2,547.9c0.1,0,0.2,0,0.2,0.1c3.8,0.9,7.6-1.4,8.5-5.2l0,0c14.9-60.9-9.1-73.3-12-74.6l-5.7,13
								c-0.1,0-0.2-0.1-0.3-0.1c0.2,0.1,16.1,9.4,4.2,58.4C116.4,543.2,118.6,546.9,122.2,547.9z"/>
							<path class="st5" d="M115.4,499.7l-9.3-19.6c-2.9-6.1-0.3-13.4,5.8-16.3l0,0l0,0c6.1-2.9,13.4-0.3,16.3,5.8l9.3,19.6
								c0.4,0.9,0,2-0.9,2.5l-18.7,8.9C116.9,501,115.8,500.6,115.4,499.7z"/>
							<path class="st65" d="M116,538c0.6,0.2,1.2,0.1,1.8-0.1l6-2.4c1.4-0.6,2.1-2.2,1.5-3.7s-2.2-2.1-3.7-1.5l-6,2.4
								c-1.4,0.6-2.1,2.2-1.5,3.7C114.6,537.2,115.2,537.8,116,538z"/>
						</g>
						<path class="st66" d="M125.2,551.1v-2.8c-3.9-1.2-6.8-4.3-7.9-8.1h-2.8C115.7,545.5,119.9,549.8,125.2,551.1z"/>
						<path class="st66" d="M94.4,540.2h-2.8c-1.1,3.9-4.1,6.9-7.9,8.1v2.8C89.1,549.9,93.2,545.6,94.4,540.2z"/>
						<circle class="st65" cx="79.8" cy="433.4" r="7.9"/>
						<circle class="st65" cx="128.7" cy="433.4" r="7.9"/>
						<path class="st65" d="M104.2,474.3L104.2,474.3c-3.3,0-6.1-2.7-6.1-6.1l0,0v-9.8l0,0h12.2l0,0v9.8
							C110.3,471.6,107.5,474.3,104.2,474.3L104.2,474.3z"/>
						<path class="st67" d="M79.8,408.4v8.4v6.6v15.1c0,13.5,11,24.4,24.4,24.4l0,0l0,0c13.5,0,24.4-11,24.4-24.4l0,0v-15.1v-6.7
							v-8.4L79.8,408.4z"/>
						<g>
							<line class="st60" x1="111.8" y1="439.5" x2="102.4" y2="439.5"/>
							<path class="st68" d="M99.4,440.8h9.3c0.7,0,1.3-0.6,1.3-1.3s-0.6-1.3-1.3-1.3l0,0h-9.3c-0.7,0-1.3,0.6-1.3,1.3
								C98.1,440.2,98.6,440.8,99.4,440.8L99.4,440.8z"/>
						</g>
						<circle class="st25" cx="118.3" cy="430.2" r="2.4"/>
						<circle class="st25" cx="94.5" cy="430.2" r="2.4"/>
						<g>
							<g>
								<path class="st69" d="M97.5,445.2c-0.7,0-1.3,0.5-1.3,1.2c0,0.1,0,0.1,0,0.2c0.8,4.5,5.1,7.4,9.5,6.6c3.3-0.6,6-3.2,6.6-6.6
									c0.1-0.7-0.4-1.3-1.1-1.4c-0.1,0-0.1,0-0.2,0L97.5,445.2L97.5,445.2z"/>
								<path class="st45" d="M102.7,450.2c1.8,0.6,3.1,1.8,3.2,3c-2.7,0.6-5.7-0.3-7.6-2.3C99.1,449.8,100.9,449.5,102.7,450.2z"/>
							</g>
							<path class="st46" d="M97.5,445.2h13.6c0.7,0,1.3,0.5,1.3,1.2c0,0.1,0,0.1,0,0.2c-0.1,0.5-0.2,0.9-0.4,1.3H96.7
								c-0.2-0.4-0.3-0.9-0.4-1.3c-0.1-0.7,0.4-1.3,1.1-1.4C97.3,445.2,97.4,445.1,97.5,445.2z"/>
						</g>
						<g>
							<path class="st70" d="M120.1,426.7c0.7,0,1.2-0.5,1.2-1.2c0-0.1,0-0.3-0.1-0.4c-1.1-3-4.6-4.7-7.6-3.6l0,0
								c-0.6,0.2-0.9,0.9-0.7,1.5c0.2,0.6,0.9,0.9,1.5,0.7l0,0c1.8-0.7,3.9,0.3,4.6,2.1l0,0C119.2,426.4,119.6,426.7,120.1,426.7z"
								/>
							<path class="st70" d="M88.1,426.7c0.5,0,0.9-0.3,1.1-0.8c0.7-1.8,2.7-2.7,4.6-2.1c0.6,0.2,1.3-0.1,1.5-0.7
								c0.2-0.6-0.1-1.3-0.7-1.5l0,0c-3-1.1-6.5,0.4-7.6,3.6c-0.2,0.6,0.1,1.3,0.7,1.5C87.9,426.7,88,426.7,88.1,426.7L88.1,426.7z"
								/>
						</g>
						
							<ellipse transform="matrix(0.1547 -0.988 0.988 0.1547 -306.5342 438.7427)" class="st70" cx="103.1" cy="398.5" rx="14.3" ry="24.7"/>
						<circle class="st70" cx="122.2" cy="405.1" r="9.7"/>
						<circle class="st70" cx="83.8" cy="405.1" r="9.7"/>
						<path class="st70" d="M77.6,402h5.1l0,0v28.2c0,1.4-1.1,2.5-2.5,2.5l0,0c-1.4,0-2.5-1.1-2.5-2.5V402L77.6,402L77.6,402z"/>
						<path class="st70" d="M125.1,401.3h5.1l0,0v28.9c0,1.4-1.1,2.5-2.5,2.5l0,0c-1.4,0-2.5-1.1-2.5-2.5V401.3L125.1,401.3z"/>
					</g>
					<path class="st71" d="M359.2,541.8c-0.4-0.2-0.8-0.4-1.2-0.7c-52.2-34.8-42.9-60.3-41.7-63l12.9,5.7c0-0.1,0.1-0.2,0.1-0.3
						c-0.1,0.2-5.5,17.9,36.4,45.9c3.2,2.1,4.2,6.6,1.9,9.8C365.9,541.9,362.3,543,359.2,541.8L359.2,541.8z"/>
					<path class="st72" d="M312.6,498.4l-7-20.5c-2.1-6.4,1.2-13.4,7.6-15.5l0,0l0,0c6.4-2.1,13.4,1.2,15.5,7.6l0,0l7,20.5
						c0.3,1-0.2,2-1.2,2.4l-19.6,6.7C314.1,500,312.9,499.5,312.6,498.4L312.6,498.4z"/>
					<path class="st25" d="M312.6,498.4l-7-20.5c-2.1-6.4,1.2-13.4,7.6-15.5l0,0l0,0c6.4-2.1,13.4,1.2,15.5,7.6l0,0l7,20.5
						c0.3,1-0.2,2-1.2,2.4l-19.6,6.7C314.1,500,312.9,499.5,312.6,498.4L312.6,498.4z"/>
					<g>
						<g>
							<path class="st40" d="M210.6,371.9c-8.9-1.1-17.7,3.6-21.6,11.7H186c-6,0-10.9,4.9-10.9,10.9l0,0v7.5h13.7
								c5,10.6,17.7,15,28.1,9.9c10.6-5,15-17.7,9.9-28.1C223.9,377.3,217.7,372.9,210.6,371.9L210.6,371.9z"/>
							<path class="st71" d="M148.4,536c0.1,0.1,0.1,0.1,0.2,0.2c3,2.8,7.7,2.7,10.7-0.3c45.8-48.4,30.1-72.5,28.2-75.2l-12.1,9
								c-0.1-0.1-0.1-0.2-0.2-0.3c0.1,0.2,9.9,17.2-26.9,56.1C145.6,528.6,145.6,533.1,148.4,536z"/>
							<path class="st4" d="M185.7,452.5h30.7c6.9,0,12.5,5.6,12.5,12.5v67.4c0,1.1-0.9,2-2,2l0,0h-51.7c-1.1,0-2-0.9-2-2l0,0V465
								C173.1,458.2,178.7,452.5,185.7,452.5z"/>
							<g>
								<rect x="175.3" y="534.5" class="st73" width="51.6" height="88.8"/>
								<g>
									<path class="st74" d="M175.4,549.9v-2.9c6.9,0,12.6-5.6,12.6-12.6h2.9C190.9,543,183.9,549.9,175.4,549.9z"/>
									<path class="st74" d="M226.9,549.9c-8.5,0-15.4-6.9-15.4-15.5h2.9c0,6.9,5.6,12.6,12.6,12.6v2.9H226.9z"/>
								</g>
								<rect x="199.6" y="551.4" class="st74" width="2.9" height="71.7"/>
								<rect x="196.1" y="549.5" class="st74" width="10" height="2.9"/>
							</g>
							<path class="st4" d="M168.6,486l3.9-22.7c1.2-7.1,7.9-11.9,15-10.7l0,0c7.1,1.2,11.9,7.9,10.7,15l-3.9,22.7
								c-0.2,1.1-1.2,1.8-2.3,1.6l-21.7-3.7C169.2,488,168.4,487,168.6,486z"/>
							<path class="st4" d="M224.2,491.3L209.1,474c-4.8-5.4-4.2-13.6,1.2-18.4l0,0c5.4-4.8,13.6-4.2,18.4,1.2l0,0l15.1,17.3
								c0.7,0.8,0.6,2.1-0.2,2.8L227,491.5C226.2,492.3,224.9,492.3,224.2,491.3L224.2,491.3z"/>
							<path class="st71" d="M195,447.5h13l0,0V458c0,3.6-2.9,6.5-6.5,6.5l0,0c-3.6,0-6.5-2.9-6.5-6.5L195,447.5L195,447.5z"/>
							<path class="st5" d="M193.4,449.7l-5.4,14.5c-0.4,1,0.1,2.2,1.2,2.5c0.4,0.1,0.7,0.2,1.1,0.1l11.1-2.4L193.4,449.7z"/>
							<path class="st5" d="M209.4,449.7l5.3,14.6c0.4,1-0.2,2.2-1.2,2.5c-0.4,0.1-0.7,0.2-1.1,0.1l-11.2-2.4L209.4,449.7z"/>
							<circle class="st71" cx="228.6" cy="421" r="8.4"/>
							<circle class="st71" cx="175.2" cy="421" r="8.4"/>
							<circle class="st75" cx="201.6" cy="474" r="2.3"/>
							<circle class="st75" cx="201.6" cy="485.2" r="2.3"/>
							<circle class="st75" cx="201.6" cy="474" r="2.3"/>
							<path class="st17" d="M175.6,400.8v29.4c0,14.3,11.7,26,26,26l0,0l0,0c14.3,0,26-11.7,26-26l0,0v-29.4H175.6z"/>
							<path class="st40" d="M184.5,413.9c-0.7,0-1.3-0.6-1.3-1.3c0-0.1,0-0.3,0.1-0.4c1.2-3.2,4.9-5,8.1-3.8l0,0
								c0.6,0.2,1,1,0.7,1.6c-0.2,0.6-1,1-1.6,0.7c-1.9-0.7-4.2,0.3-4.9,2.2l0,0C185.5,413.6,185,413.9,184.5,413.9z"/>
							<path class="st40" d="M218.4,413.9c-0.5,0-1-0.3-1.2-0.8c-0.7-1.9-2.8-2.9-4.9-2.2c-0.6,0.2-1.4-0.1-1.6-0.7
								c-0.2-0.6,0.1-1.4,0.7-1.6l0,0c3.2-1.2,6.9,0.5,8.1,3.8c0.2,0.7-0.1,1.4-0.7,1.6C218.7,413.9,218.6,413.9,218.4,413.9z"/>
							<path class="st40" d="M215.7,431.2L215.7,431.2c0-1-0.8-1.7-1.7-1.7h-24.2c-1,0-1.7,0.8-1.7,1.7l0,0c0,0.9-0.8,1.7-1.7,1.7
								l0,0h-11.1v1.4c0.1,14.4,11.8,26,26.2,25.9l0,0c14.4,0.1,26.1-11.6,26.2-25.9v-1.4h-10C216.5,432.9,215.7,432.2,215.7,431.2z
								"/>
							<g>
								<path class="st69" d="M194.1,435.2h16.9l0,0v4.1c0,4.1-3.2,7.3-7.3,7.3h-7.3c-1.3,0-2.3-1-2.3-2.3V435.2L194.1,435.2z"/>
								<rect x="193.7" y="435.1" class="st46" width="17.7" height="4.4"/>
								<path class="st45" d="M210.1,443c-1.8-1.9-4.9-1.9-6.8-0.1c-0.9,0.9-1.4,2.1-1.4,3.4c0,0.1,0,0.2,0,0.3h1.8
									C206.4,446.6,208.9,445.2,210.1,443z"/>
							</g>
							<path class="st76" d="M204.9,427.7h-6c-0.8,0-1.4-0.6-1.4-1.4c0-0.8,0.6-1.4,1.4-1.4c0,0,0,0,0.1,0h6c0.8,0,1.4,0.6,1.4,1.4
								C206.3,427,205.7,427.7,204.9,427.7L204.9,427.7z"/>
							<rect x="175.3" y="397.7" class="st40" width="4.4" height="37.4"/>
							<rect x="223.2" y="397.7" class="st40" width="4.4" height="37.4"/>
							<g>
								<line class="st77" x1="238.6" y1="499.4" x2="238.6" y2="462.8"/>
								<path class="st71" d="M233.1,447.2h11.1c2.2,0,4.1,1.8,4.1,4.1v11.1c0,2.2-1.8,4.1-4.1,4.1h-11.1c-2.2,0-4.1-1.8-4.1-4.1
									v-11.1C229,449,230.9,447.2,233.1,447.2z"/>
								<line class="st78" x1="235.4" y1="453" x2="235.4" y2="441.5"/>
								<line class="st79" x1="248.6" y1="450.8" x2="237.2" y2="450.8"/>
								<line class="st79" x1="248.6" y1="457.7" x2="237.2" y2="457.7"/>
								<line class="st79" x1="248.6" y1="464.7" x2="237.2" y2="464.7"/>
								<line class="st77" x1="238.6" y1="499.4" x2="238.6" y2="462.8"/>
								<path class="st71" d="M233.1,447.2h11.1c2.2,0,4.1,1.8,4.1,4.1v11.1c0,2.2-1.8,4.1-4.1,4.1h-11.1c-2.2,0-4.1-1.8-4.1-4.1
									v-11.1C229,449,230.9,447.2,233.1,447.2z"/>
								<line class="st78" x1="235.4" y1="453" x2="235.4" y2="441.5"/>
								<line class="st79" x1="248.6" y1="450.8" x2="237.2" y2="450.8"/>
								<line class="st79" x1="248.6" y1="457.7" x2="237.2" y2="457.7"/>
								<line class="st79" x1="248.6" y1="464.7" x2="237.2" y2="464.7"/>
							</g>
							<path class="st71" d="M148.1,519.4c0.5,0.5,1.1,0.8,1.7,0.9l6.8,0.8c1.6,0.2,3.1-0.9,3.3-2.6c0.2-1.6-0.9-3.1-2.6-3.3
								l-6.8-0.8c-1.6-0.2-3.1,0.9-3.3,2.6C147.1,517.8,147.4,518.7,148.1,519.4z"/>
						</g>
						<path class="st76" d="M193.6,418.9c-0.5,0-0.9-0.3-1-0.8c-0.3-1.4-1.7-2.3-3.1-2c-1,0.2-1.7,1-2,2c-0.1,0.5-0.7,0.9-1.2,0.7
							c-0.5-0.1-0.9-0.7-0.8-1.2c0.6-2.5,3-4.2,5.6-3.6c1.7,0.4,3.1,1.8,3.6,3.6c0.1,0.5-0.2,1.1-0.8,1.2
							C193.8,418.9,193.7,418.9,193.6,418.9L193.6,418.9z"/>
						<path class="st76" d="M216.3,418.9c-0.5,0-0.9-0.3-1-0.8c-0.3-1.4-1.7-2.3-3.1-2c-1,0.2-1.7,1-2,2c-0.1,0.5-0.7,0.9-1.2,0.8
							c-0.5-0.1-0.9-0.7-0.8-1.2l0,0c0.6-2.5,3-4.2,5.6-3.6c1.7,0.4,3.1,1.8,3.6,3.6c0.1,0.5-0.2,1.1-0.8,1.2
							C216.4,418.9,216.3,418.9,216.3,418.9L216.3,418.9z"/>
					</g>
					<g>
						<path class="st71" d="M270.1,551.2c0.3-0.3,0.6-0.7,0.9-1.1c33.9-52.8,15.1-72.3,12.9-74.5l-9.5,10.4
							c-0.1-0.1-0.1-0.1-0.2-0.2c0.1,0.1,12.2,14.2-15,56.6c-2.1,3.2-1.1,7.6,2.1,9.7C264,554,267.8,553.6,270.1,551.2L270.1,551.2z
							"/>
						<path class="st72" d="M271.4,490.5l7-20.5c2.1-6.4,9.1-9.8,15.5-7.6l0,0l0,0c6.4,2.1,9.8,9.1,7.6,15.5l0,0l-7,20.5
							c-0.3,1-1.4,1.5-2.4,1.2l-19.6-6.7C271.7,492.6,271.1,491.5,271.4,490.5L271.4,490.5z"/>
						<path class="st72" d="M290,461.5h27.6c6.5,0,11.8,5.3,11.8,11.8l0,0v60.7c0,2.5-2.1,4.7-4.7,4.7h-41.9c-2.5,0-4.7-2.1-4.7-4.7
							l0,0v-60.7C278.2,466.8,283.5,461.5,290,461.5z"/>
						<rect x="283.5" y="538.6" class="st61" width="41.5" height="83.6"/>
						<rect x="302.9" y="554.6" class="st80" width="2.7" height="67.6"/>
						<rect x="299.5" y="552.8" class="st80" width="9.4" height="2.7"/>
						<path class="st80" d="M325,549.6v-2.8c-3.9-1.2-6.8-4.3-7.9-8.1h-2.8C315.5,544.1,319.6,548.3,325,549.6z"/>
						<path class="st80" d="M294.3,538.7h-2.8c-1.1,3.9-4.1,6.9-7.9,8.1v2.8C288.9,548.4,293.1,544.1,294.3,538.7z"/>
						<circle class="st71" cx="280.2" cy="431.9" r="7.9"/>
						<circle class="st71" cx="329" cy="431.9" r="7.9"/>
						<path class="st71" d="M304.5,472.8L304.5,472.8c-3.3,0-6.1-2.7-6.1-6.1l0,0v-9.8l0,0h12.3l0,0v9.8
							C310.7,470,308,472.8,304.5,472.8L304.5,472.8L304.5,472.8z"/>
						<path class="st17" d="M280.2,406.8V422v15.1c0,13.5,11,24.4,24.4,24.4l0,0c13.5,0,24.4-11,24.4-24.4l0,0V422v-15.1H280.2z"/>
						<g>
							<line class="st60" x1="307.1" y1="438" x2="301.8" y2="438"/>
							<path class="st76" d="M301.8,439.3h5.3c0.7,0,1.3-0.6,1.3-1.3s-0.6-1.3-1.3-1.3h-5.3c-0.7,0-1.3,0.5-1.3,1.3
								C300.4,438.7,301,439.3,301.8,439.3C301.7,439.3,301.7,439.3,301.8,439.3L301.8,439.3z"/>
						</g>
						<g>
							<path class="st19" d="M320.5,423.2c0.7,0,1.2-0.5,1.2-1.2c0-0.1,0-0.3-0.1-0.4c-1.1-3-4.6-4.7-7.6-3.6l0,0
								c-0.6,0.2-0.9,0.9-0.7,1.5c0.2,0.6,0.9,0.9,1.5,0.7c1.8-0.7,3.9,0.3,4.6,2.1l0,0C319.5,422.9,320,423.2,320.5,423.2z"/>
							<path class="st19" d="M288.6,423.2c0.5,0,0.9-0.3,1.1-0.8c0.7-1.8,2.7-2.7,4.6-2.1c0.6,0.2,1.3-0.1,1.5-0.7
								c0.2-0.6-0.1-1.3-0.7-1.5l0,0c-3-1.1-6.5,0.4-7.6,3.6c-0.2,0.6,0.1,1.3,0.7,1.5C288.3,423.2,288.4,423.2,288.6,423.2z"/>
						</g>
						<circle class="st19" cx="290.9" cy="393.5" r="18.7"/>
						<path class="st19" d="M277.9,400.4h5.1l0,0v28.2c0,1.4-1.1,2.5-2.5,2.5l0,0c-1.4,0-2.5-1.1-2.5-2.5V400.4L277.9,400.4z"/>
						<path class="st19" d="M325.4,399.7h5.1l0,0v28.9c0,1.4-1.1,2.5-2.5,2.5l0,0c-1.4,0-2.5-1.1-2.5-2.5V399.7L325.4,399.7z"/>
						<g>
							<path class="st69" d="M302.8,442.6h16l0,0v3.9c0,3.9-3,6.9-6.9,6.9l0,0H305c-1.2,0-2.2-1-2.2-2.2V442.6L302.8,442.6z"/>
							<rect x="302.5" y="442.6" class="st46" width="16.6" height="4.2"/>
							<path class="st45" d="M317.9,450c-1.7-1.8-4.6-1.8-6.4-0.1c-0.9,0.8-1.4,2-1.4,3.2c0,0.1,0,0.2,0,0.3h1.7
								C314.5,453.4,316.7,452.1,317.9,450z"/>
						</g>
						<path class="st76" d="M297.6,431.2c-0.5,0-0.9-0.3-1-0.8c-0.3-1.4-1.8-2.3-3.2-2c-1,0.2-1.8,1-2,2c-0.1,0.6-0.7,0.9-1.3,0.8
							c-0.6-0.1-0.9-0.7-0.8-1.3l0,0c0.6-2.6,3.1-4.3,5.8-3.7c1.8,0.4,3.2,1.8,3.7,3.7c0.1,0.6-0.2,1.1-0.8,1.3l0,0
							C297.7,431.2,297.6,431.2,297.6,431.2z"/>
						<path class="st76" d="M317.2,431.2c-0.5,0-0.9-0.3-1-0.8c-0.3-1.4-1.8-2.4-3.2-2c-1,0.2-1.8,1-2,2c-0.1,0.6-0.7,0.9-1.3,0.8
							c-0.6-0.1-0.9-0.7-0.8-1.3c0.6-2.6,3.1-4.3,5.8-3.7c1.8,0.4,3.2,1.8,3.7,3.7c0.1,0.6-0.2,1.1-0.8,1.3l0,0
							C317.4,431.2,317.3,431.2,317.2,431.2z"/>
						<path class="st19" d="M320.1,386.8L296,383v24.8h34.5v-8.9C330.5,392.8,326,387.7,320.1,386.8z"/>
						<g>
							<path class="st19" d="M241.4,554.4l8.1-19.6c0.5-1.2,1.8-1.7,3-1.2l25.5,10.6c1.2,0.5,1.7,1.8,1.2,3l-8.1,19.6
								c-0.5,1.2-1.8,1.7-3,1.2l-25.5-10.6C241.5,557,241,555.6,241.4,554.4z"/>
							<g>
								<path class="st81" d="M251.5,547.1L251.5,547.1c0.5-1.2,1.9-1.8,3.1-1.3l13.4,5.6c1.2,0.5,1.8,1.9,1.3,3.1l0,0
									c-0.5,1.2-1.9,1.8-3.1,1.3l-13.4-5.6C251.6,549.7,251,548.4,251.5,547.1z"/>
								<path class="st81" d="M255.7,556.1L255.7,556.1c-1.2-0.5-1.8-1.9-1.3-3.1l3.3-7.9c0.5-1.2,1.9-1.8,3.1-1.3l0,0
									c1.2,0.5,1.8,1.9,1.3,3.1l-3.3,7.9C258.3,556.1,256.9,556.6,255.7,556.1z"/>
							</g>
						</g>
						<path class="st71" d="M269.7,534.9c-0.2-1.5-1.6-2.6-3.1-2.4c-0.8,0.1-1.5,0.5-1.9,1.2l-3.7,5.3c-0.9,1.3-0.6,3,0.7,4
							s3,0.6,4-0.7l3.7-5.3C269.6,536.2,269.7,535.5,269.7,534.9z"/>
						<path class="st71" d="M270.1,551.2c0.3-0.3,0.6-0.7,0.9-1.1c33.9-52.8,15.1-72.3,12.9-74.5l-9.5,10.4
							c-0.1-0.1-0.1-0.1-0.2-0.2c0.1,0.1,12.2,14.2-15,56.6c-2.1,3.2-1.1,7.6,2.1,9.7C264,554,267.8,553.6,270.1,551.2L270.1,551.2z
							"/>
						<path class="st25" d="M271.4,490.5l7-20.5c2.1-6.4,9.1-9.8,15.5-7.6l0,0l0,0c6.4,2.1,9.8,9.1,7.6,15.5l0,0l-7,20.5
							c-0.3,1-1.4,1.5-2.4,1.2l-19.6-6.7C271.7,492.6,271.1,491.5,271.4,490.5L271.4,490.5z"/>
						<path class="st25" d="M290,461.5h27.6c6.5,0,11.8,5.3,11.8,11.8l0,0v60.7c0,2.5-2.1,4.7-4.7,4.7h-41.9c-2.5,0-4.7-2.1-4.7-4.7
							l0,0v-60.7C278.2,466.8,283.5,461.5,290,461.5z"/>
						<rect x="283.5" y="538.6" class="st14" width="41.5" height="83.6"/>
						<rect x="302.9" y="554.6" class="st82" width="2.7" height="67.6"/>
						<rect x="299.5" y="552.8" class="st82" width="9.4" height="2.7"/>
						<path class="st82" d="M325,549.6v-2.8c-3.9-1.2-6.8-4.3-7.9-8.1h-2.8C315.5,544.1,319.6,548.3,325,549.6z"/>
						<path class="st82" d="M294.3,538.7h-2.8c-1.1,3.9-4.1,6.9-7.9,8.1v2.8C288.9,548.4,293.1,544.1,294.3,538.7z"/>
						<circle class="st71" cx="280.2" cy="431.9" r="7.9"/>
						<circle class="st71" cx="329" cy="431.9" r="7.9"/>
						<path class="st71" d="M304.5,472.8L304.5,472.8c-3.3,0-6.1-2.7-6.1-6.1l0,0v-9.8l0,0h12.3l0,0v9.8
							C310.7,470,308,472.8,304.5,472.8L304.5,472.8L304.5,472.8z"/>
						<path class="st17" d="M280.2,406.8V422v15.1c0,13.5,11,24.4,24.4,24.4l0,0c13.5,0,24.4-11,24.4-24.4l0,0V422v-15.1H280.2z"/>
						<g>
							<line class="st60" x1="307.1" y1="438" x2="301.8" y2="438"/>
							<path class="st76" d="M301.8,439.3h5.3c0.7,0,1.3-0.6,1.3-1.3s-0.6-1.3-1.3-1.3h-5.3c-0.7,0-1.3,0.5-1.3,1.3
								C300.4,438.7,301,439.3,301.8,439.3C301.7,439.3,301.7,439.3,301.8,439.3L301.8,439.3z"/>
						</g>
						<g>
							<path class="st19" d="M320.5,423.2c0.7,0,1.2-0.5,1.2-1.2c0-0.1,0-0.3-0.1-0.4c-1.1-3-4.6-4.7-7.6-3.6l0,0
								c-0.6,0.2-0.9,0.9-0.7,1.5c0.2,0.6,0.9,0.9,1.5,0.7c1.8-0.7,3.9,0.3,4.6,2.1l0,0C319.5,422.9,320,423.2,320.5,423.2z"/>
							<path class="st19" d="M288.6,423.2c0.5,0,0.9-0.3,1.1-0.8c0.7-1.8,2.7-2.7,4.6-2.1c0.6,0.2,1.3-0.1,1.5-0.7
								c0.2-0.6-0.1-1.3-0.7-1.5l0,0c-3-1.1-6.5,0.4-7.6,3.6c-0.2,0.6,0.1,1.3,0.7,1.5C288.3,423.2,288.4,423.2,288.6,423.2z"/>
						</g>
						<circle class="st19" cx="290.9" cy="393.5" r="18.7"/>
						<path class="st19" d="M277.9,400.4h5.1l0,0v28.2c0,1.4-1.1,2.5-2.5,2.5l0,0c-1.4,0-2.5-1.1-2.5-2.5V400.4L277.9,400.4z"/>
						<path class="st19" d="M325.4,399.7h5.1l0,0v28.9c0,1.4-1.1,2.5-2.5,2.5l0,0c-1.4,0-2.5-1.1-2.5-2.5V399.7L325.4,399.7z"/>
						<g>
							<path class="st69" d="M302.8,442.6h16l0,0v3.9c0,3.9-3,6.9-6.9,6.9l0,0H305c-1.2,0-2.2-1-2.2-2.2V442.6L302.8,442.6z"/>
							<rect x="302.5" y="442.6" class="st46" width="16.6" height="4.2"/>
							<path class="st45" d="M317.9,450c-1.7-1.8-4.6-1.8-6.4-0.1c-0.9,0.8-1.4,2-1.4,3.2c0,0.1,0,0.2,0,0.3h1.7
								C314.5,453.4,316.7,452.1,317.9,450z"/>
						</g>
						<path class="st76" d="M297.6,431.2c-0.5,0-0.9-0.3-1-0.8c-0.3-1.4-1.8-2.3-3.2-2c-1,0.2-1.8,1-2,2c-0.1,0.6-0.7,0.9-1.3,0.8
							c-0.6-0.1-0.9-0.7-0.8-1.3l0,0c0.6-2.6,3.1-4.3,5.8-3.7c1.8,0.4,3.2,1.8,3.7,3.7c0.1,0.6-0.2,1.1-0.8,1.3l0,0
							C297.7,431.2,297.6,431.2,297.6,431.2z"/>
						<path class="st76" d="M317.2,431.2c-0.5,0-0.9-0.3-1-0.8c-0.3-1.4-1.8-2.4-3.2-2c-1,0.2-1.8,1-2,2c-0.1,0.6-0.7,0.9-1.3,0.8
							c-0.6-0.1-0.9-0.7-0.8-1.3c0.6-2.6,3.1-4.3,5.8-3.7c1.8,0.4,3.2,1.8,3.7,3.7c0.1,0.6-0.2,1.1-0.8,1.3l0,0
							C317.4,431.2,317.3,431.2,317.2,431.2z"/>
						<path class="st19" d="M320.1,386.8L296,383v24.8h34.5v-8.9C330.5,392.8,326,387.7,320.1,386.8z"/>
						<g>
							<path class="st19" d="M241.4,554.4l8.1-19.6c0.5-1.2,1.8-1.7,3-1.2l25.5,10.6c1.2,0.5,1.7,1.8,1.2,3l-8.1,19.6
								c-0.5,1.2-1.8,1.7-3,1.2l-25.5-10.6C241.5,557,241,555.6,241.4,554.4z"/>
							<g>
								<path class="st81" d="M251.5,547.1L251.5,547.1c0.5-1.2,1.9-1.8,3.1-1.3l13.4,5.6c1.2,0.5,1.8,1.9,1.3,3.1l0,0
									c-0.5,1.2-1.9,1.8-3.1,1.3l-13.4-5.6C251.6,549.7,251,548.4,251.5,547.1z"/>
								<path class="st81" d="M255.7,556.1L255.7,556.1c-1.2-0.5-1.8-1.9-1.3-3.1l3.3-7.9c0.5-1.2,1.9-1.8,3.1-1.3l0,0
									c1.2,0.5,1.8,1.9,1.3,3.1l-3.3,7.9C258.3,556.1,256.9,556.6,255.7,556.1z"/>
							</g>
						</g>
						<path class="st71" d="M269.7,534.9c-0.2-1.5-1.6-2.6-3.1-2.4c-0.8,0.1-1.5,0.5-1.9,1.2l-3.7,5.3c-0.9,1.3-0.6,3,0.7,4
							s3,0.6,4-0.7l3.7-5.3C269.6,536.2,269.7,535.5,269.7,534.9z"/>
					</g>
				</g>
				<path class="st71" d="M353.2,526c0.6,0.3,1.3,0.3,1.9,0.2l6.6-1.7c1.6-0.4,2.6-2,2.2-3.7c-0.4-1.6-2-2.6-3.7-2.2h-0.1l-6.6,1.7
					c-1.6,0.4-2.5,2-2.1,3.7C351.8,524.9,352.4,525.7,353.2,526L353.2,526z"/>
			</g>
		</g>
	</g>
</g>
<g>
	<g>
		<defs>
			<path id="SVGID_14_" d="M426.5,2.5h293.3c13.9,0,25.1,11.3,25.1,25.1v182.2c0,13.9-11.3,25.1-25.1,25.1H426.5
				c-13.9,0-25.1-11.3-25.1-25.1V27.5C401.4,13.7,412.7,2.5,426.5,2.5z"/>
		</defs>
		<clipPath id="SVGID_15_">
			<use xlink:href="#SVGID_14_"  style="overflow:visible;"/>
		</clipPath>
		<g class="st83">
			<g>
				<path class="st11" d="M452.9,52.1h247.5c4.9,0,8.9,4,8.9,8.9v107.8c0,4.9-4,8.9-8.9,8.9H452.9c-4.9,0-8.9-4-8.9-8.9V60.9
					C444.1,56,448.1,52.1,452.9,52.1z"/>
				<path class="st11" d="M491.1,151.3h141.1l0,0v78.6c0,17-13.8,30.9-30.9,30.9h-79.3c-17,0-30.9-13.8-30.9-30.9v-78.6H491.1z"/>
				<path class="st13" d="M517.6,153.5h141.1l0,0v78.6c0,17-13.8,30.9-30.9,30.9h-79.2c-17,0-30.9-13.8-30.9-30.9l0,0V153.5
					L517.6,153.5z"/>
				<path class="st14" d="M586.4,199l-27.6,5.1l0,0l-9-49.6c-1.4-7.6,3.7-14.9,11.3-16.3l0,0l0,0c7.6-1.4,14.9,3.7,16.3,11.3l0,0
					L586.4,199L586.4,199L586.4,199z"/>
				<path class="st14" d="M613.2,138.1L613.2,138.1c7.6,1.4,12.7,8.7,11.3,16.3l0,0l-9,49.6l0,0l-27.6-5.1l0,0l9-49.6
					C598.3,141.8,605.6,136.7,613.2,138.1L613.2,138.1L613.2,138.1z"/>
				<path class="st84" d="M465.4,44.6h247.5c4.9,0,8.9,4,8.9,8.9v119.8c0,4.9-4,8.9-8.9,8.9H465.4c-4.9,0-8.9-4-8.9-8.9V53.4
					C456.6,48.5,460.5,44.6,465.4,44.6z"/>
				<path class="st85" d="M535.1,128.5h90.6c2.8,0,5.1,2.2,5.1,5.1v36.9c0,2.8-2.2,5.1-5.1,5.1h-90.6c-2.8,0-5.1-2.2-5.1-5.1v-36.9
					C530,130.8,532.4,128.5,535.1,128.5z"/>
				<path class="st86" d="M533,255.3c31.9,25.5,77,25.5,108.7,0"/>
				<path class="st16" d="M628.5,247.8h-83.1l0,0v-23.8c0-16.1,13-29.1,29.1-29.1l0,0h24.9c16.1,0,29.1,13,29.1,29.1l0,0V247.8
					L628.5,247.8z"/>
				<path class="st87" d="M541,124.1h90.6c2.8,0,5.1,2.2,5.1,5.1v36.9c0,2.8-2.2,5.1-5.1,5.1H541c-2.8,0-5.1-2.2-5.1-5.1v-36.9
					C535.9,126.3,538.1,124.1,541,124.1z"/>
				<path class="st88" d="M543.3,130.7h5.9c0.4,0,0.7,0.3,0.7,0.7v5.9c0,0.4-0.3,0.7-0.7,0.7h-5.9c-0.4,0-0.7-0.3-0.7-0.7v-5.9
					C542.5,131,542.9,130.7,543.3,130.7z"/>
				<path class="st88" d="M554.7,130.7h5.9c0.4,0,0.7,0.3,0.7,0.7v5.9c0,0.4-0.3,0.7-0.7,0.7h-5.9c-0.4,0-0.7-0.3-0.7-0.7v-5.9
					C554,131,554.3,130.7,554.7,130.7z"/>
				<path class="st88" d="M566.1,130.7h5.9c0.4,0,0.7,0.3,0.7,0.7v5.9c0,0.4-0.3,0.7-0.7,0.7h-5.9c-0.4,0-0.7-0.3-0.7-0.7v-5.9
					C565.4,131,565.7,130.7,566.1,130.7z"/>
				<path class="st88" d="M577.6,130.7h5.9c0.4,0,0.7,0.3,0.7,0.7v5.9c0,0.4-0.3,0.7-0.7,0.7h-5.9c-0.4,0-0.7-0.3-0.7-0.7v-5.9
					C576.9,131,577.2,130.7,577.6,130.7z"/>
				<path class="st88" d="M589.1,130.7h5.9c0.4,0,0.7,0.3,0.7,0.7v5.9c0,0.4-0.3,0.7-0.7,0.7h-5.9c-0.4,0-0.7-0.3-0.7-0.7v-5.9
					C588.4,131,588.7,130.7,589.1,130.7z"/>
				<path class="st88" d="M600.5,130.7h5.9c0.4,0,0.7,0.3,0.7,0.7v5.9c0,0.4-0.3,0.7-0.7,0.7h-5.9c-0.4,0-0.7-0.3-0.7-0.7v-5.9
					C599.7,131,600.1,130.7,600.5,130.7z"/>
				<path class="st88" d="M612,130.7h5.9c0.4,0,0.7,0.3,0.7,0.7v5.9c0,0.4-0.3,0.7-0.7,0.7H612c-0.4,0-0.7-0.3-0.7-0.7v-5.9
					C611.2,131,611.5,130.7,612,130.7z"/>
				<path class="st88" d="M623.4,130.7h5.9c0.4,0,0.7,0.3,0.7,0.7v5.9c0,0.4-0.3,0.7-0.7,0.7h-5.9c-0.4,0-0.7-0.3-0.7-0.7v-5.9
					C622.6,131,623,130.7,623.4,130.7z"/>
				<path class="st88" d="M543.3,143.9h5.9c0.4,0,0.7,0.3,0.7,0.7v5.9c0,0.4-0.3,0.7-0.7,0.7h-5.9c-0.4,0-0.7-0.3-0.7-0.7v-5.9
					C542.5,144.3,542.9,143.9,543.3,143.9z"/>
				<path class="st88" d="M554.7,143.9h5.9c0.4,0,0.7,0.3,0.7,0.7v5.9c0,0.4-0.3,0.7-0.7,0.7h-5.9c-0.4,0-0.7-0.3-0.7-0.7v-5.9
					C554,144.3,554.3,143.9,554.7,143.9z"/>
				<path class="st88" d="M566.1,143.9h5.9c0.4,0,0.7,0.3,0.7,0.7v5.9c0,0.4-0.3,0.7-0.7,0.7h-5.9c-0.4,0-0.7-0.3-0.7-0.7v-5.9
					C565.4,144.3,565.7,143.9,566.1,143.9z"/>
				<path class="st88" d="M577.6,143.9h5.9c0.4,0,0.7,0.3,0.7,0.7v5.9c0,0.4-0.3,0.7-0.7,0.7h-5.9c-0.4,0-0.7-0.3-0.7-0.7v-5.9
					C576.9,144.3,577.2,143.9,577.6,143.9z"/>
				<path class="st88" d="M589.1,143.9h5.9c0.4,0,0.7,0.3,0.7,0.7v5.9c0,0.4-0.3,0.7-0.7,0.7h-5.9c-0.4,0-0.7-0.3-0.7-0.7v-5.9
					C588.4,144.3,588.7,143.9,589.1,143.9z"/>
				<path class="st88" d="M600.5,143.9h5.9c0.4,0,0.7,0.3,0.7,0.7v5.9c0,0.4-0.3,0.7-0.7,0.7h-5.9c-0.4,0-0.7-0.3-0.7-0.7v-5.9
					C599.7,144.3,600.1,143.9,600.5,143.9z"/>
				<path class="st88" d="M612,143.9h5.9c0.4,0,0.7,0.3,0.7,0.7v5.9c0,0.4-0.3,0.7-0.7,0.7H612c-0.4,0-0.7-0.3-0.7-0.7v-5.9
					C611.2,144.3,611.5,143.9,612,143.9z"/>
				<path class="st88" d="M623.4,143.9h5.9c0.4,0,0.7,0.3,0.7,0.7v5.9c0,0.4-0.3,0.7-0.7,0.7h-5.9c-0.4,0-0.7-0.3-0.7-0.7v-5.9
					C622.6,144.3,623,143.9,623.4,143.9z"/>
				<g>
					<path class="st88" d="M543.3,157.2h5.9c0.4,0,0.7,0.3,0.7,0.7v5.9c0,0.4-0.3,0.7-0.7,0.7h-5.9c-0.4,0-0.7-0.3-0.7-0.7v-5.9
						C542.5,157.5,542.9,157.2,543.3,157.2z"/>
					<path class="st88" d="M554.7,157.2h5.9c0.4,0,0.7,0.3,0.7,0.7v5.9c0,0.4-0.3,0.7-0.7,0.7h-5.9c-0.4,0-0.7-0.3-0.7-0.7v-5.9
						C554,157.5,554.3,157.2,554.7,157.2z"/>
					<path class="st88" d="M566,157.2h40.4c0.4,0,0.7,0.3,0.7,0.7v5.9c0,0.4-0.3,0.7-0.7,0.7H566c-0.4,0-0.7-0.3-0.7-0.7v-5.9
						C565.3,157.5,565.6,157.2,566,157.2z"/>
					<path class="st88" d="M612,157.2h5.9c0.4,0,0.7,0.3,0.7,0.7v5.9c0,0.4-0.3,0.7-0.7,0.7H612c-0.4,0-0.7-0.3-0.7-0.7v-5.9
						C611.2,157.5,611.5,157.2,612,157.2z"/>
					<path class="st88" d="M623.4,157.2h5.9c0.4,0,0.7,0.3,0.7,0.7v5.9c0,0.4-0.3,0.7-0.7,0.7h-5.9c-0.4,0-0.7-0.3-0.7-0.7v-5.9
						C622.6,157.5,623,157.2,623.4,157.2z"/>
				</g>
				<path class="st13" d="M539.8,71.9h91.5c2.1,0,3.9,1.7,3.9,3.9v44.4c0,2.1-1.7,3.9-3.9,3.9h-91.5c-2.1,0-3.9-1.7-3.9-3.9V75.8
					C535.9,73.6,537.6,71.9,539.8,71.9z"/>
				<rect x="542.5" y="78.6" class="st89" width="86.7" height="38.2"/>
				<rect x="542.5" y="78.6" class="st90" width="16.4" height="38.2"/>
				<rect x="612.5" y="80.3" class="st90" width="16.7" height="36.4"/>
				<rect x="542.5" y="78.6" class="st91" width="86.7" height="6.6"/>
				<path class="st17" d="M638.1,216.9h-18.4l0,0v-68.7c0-5.1,4.2-9.2,9.2-9.2l0,0l0,0c5.1,0,9.2,4.2,9.2,9.2l0,0L638.1,216.9
					L638.1,216.9L638.1,216.9z"/>
				<path class="st17" d="M552.9,216.9h-18.4l0,0v-68.7c0-5.1,4.2-9.2,9.2-9.2l0,0c5.1,0,9.2,4.2,9.2,9.2l0,0L552.9,216.9
					L552.9,216.9L552.9,216.9z"/>
				<path class="st16" d="M625.6,247.8L625.6,247.8c-8.9,0-16.1-7.2-16.1-16.1v-30.8l0,0h32.4l0,0v30.8
					C641.7,240.6,634.5,247.8,625.6,247.8L625.6,247.8z"/>
				<path class="st16" d="M545.5,247.8L545.5,247.8c-8.9,0-16.1-7.2-16.1-16.1v-30.8l0,0h32.4l0,0v30.8
					C561.7,240.6,554.4,247.8,545.5,247.8L545.5,247.8z"/>
				<circle class="st17" cx="587.3" cy="205.9" r="5.2"/>
				<g>
					<path class="st17" d="M619.3,244.7h-5.5l0,0v-11.1l0,0h5.5c3,0,5.5,2.4,5.5,5.5l0,0C624.9,242.3,622.3,244.7,619.3,244.7
						L619.3,244.7z"/>
					<path class="st17" d="M555.4,233.7h5.5l0,0v11.1l0,0h-5.5c-3,0-5.5-2.4-5.5-5.5l0,0C549.9,236.2,552.3,233.7,555.4,233.7
						L555.4,233.7z"/>
				</g>
				<path class="st19" d="M568.8,270.2L568.8,270.2c12.2,3.1,25.1,3.1,37.2,0l0,0c7.6-1.9,13-8.8,13-16.7v-16
					c0-17.4-14.1-31.5-31.7-31.5l0,0c-17.4,0-31.7,14.1-31.7,31.7l0,0v16C555.8,261.4,561.1,268.3,568.8,270.2z"/>
				<path class="st20" d="M606.6,212.4c4.3,5.5,6.5,12.3,6.5,19.2v16c0,7.9-5.4,14.7-13,16.7l0,0c-12.2,3.1-25.1,3.1-37.2,0l0,0
					c-1.6-0.4-3.1-1.1-4.6-1.9c2.3,3.9,6.1,6.7,10.4,7.8l0,0c12.2,3.1,25.1,3.1,37.2,0l0,0c7.6-1.9,13-8.8,13-16.7v-16
					C619,227.7,614.4,218.4,606.6,212.4z"/>
				<line class="st92" x1="548.1" y1="161.2" x2="556.1" y2="153.8"/>
				<line class="st92" x1="624.5" y1="161.2" x2="616.4" y2="153.8"/>
				<g>
					<path class="st93" d="M675.9,82.2h31.5c1,0,1.8,0.8,1.8,1.8v42.6c0,1-0.8,1.8-1.8,1.8h-31.5c-1,0-1.8-0.8-1.8-1.8V84
						C674.1,83,674.9,82.2,675.9,82.2z"/>
					<path class="st94" d="M681.1,77.8h31.5c1,0,1.8,0.8,1.8,1.8v42.6c0,1-0.8,1.8-1.8,1.8h-31.5c-1,0-1.8-0.8-1.8-1.8V79.6
						C679.3,78.7,680.1,77.8,681.1,77.8z"/>
					<rect x="689.5" y="92.5" class="st95" width="14.7" height="5.2"/>
				</g>
				<circle class="st11" cx="500" cy="142.7" r="12.4"/>
				<g>
					<path class="st88" d="M514.8,133.6l6.5-2.5c1-0.4,2.2,0.1,2.6,1.1l0,0l0,0c0.4,1-0.1,2.2-1.1,2.6l0,0l-6.5,2.5l0,0L514.8,133.6
						L514.8,133.6z"/>
					
						<ellipse transform="matrix(0.3827 -0.9239 0.9239 0.3827 182.786 552.3403)" class="st87" cx="504.7" cy="139.4" rx="12.4" ry="12.4"/>
					<circle class="st94" cx="504.7" cy="139.4" r="9.1"/>
				</g>
				<g>
					<circle class="st91" cx="571.3" cy="96.7" r="5.6"/>
					<g>
						<path class="st89" d="M571.3,97.1L571.3,97.1c1.1,0,1.9,0.9,1.9,1.9v0.7l0,0h-4l0,0v-0.7C569.4,98,570.3,97.1,571.3,97.1
							L571.3,97.1z"/>
						<circle class="st89" cx="571.3" cy="95" r="1.4"/>
					</g>
				</g>
				<g>
					<circle class="st91" cx="586.3" cy="96.7" r="5.6"/>
					<g>
						<path class="st89" d="M586.3,97.1L586.3,97.1c1.1,0,1.9,0.9,1.9,1.9v0.7l0,0h-4l0,0v-0.7C584.4,98,585.2,97.1,586.3,97.1
							L586.3,97.1z"/>
						<circle class="st89" cx="586.3" cy="95" r="1.4"/>
					</g>
				</g>
				<g>
					<circle class="st91" cx="601.3" cy="96.7" r="5.6"/>
					<g>
						<path class="st89" d="M601.3,97.1L601.3,97.1c1.1,0,1.9,0.9,1.9,1.9v0.7l0,0h-4l0,0v-0.7C599.4,98,600.2,97.1,601.3,97.1
							L601.3,97.1z"/>
						<circle class="st89" cx="601.3" cy="95" r="1.4"/>
					</g>
				</g>
				<g>
					<circle class="st91" cx="571.3" cy="112.4" r="5.6"/>
					<g>
						<path class="st89" d="M571.3,112.9L571.3,112.9c1.1,0,1.9,0.9,1.9,1.9v0.7l0,0h-4l0,0v-0.7
							C569.4,113.8,570.3,112.9,571.3,112.9L571.3,112.9z"/>
						<circle class="st89" cx="571.3" cy="110.7" r="1.4"/>
					</g>
				</g>
				<g>
					<circle class="st91" cx="586.3" cy="112.4" r="5.6"/>
					<g>
						<path class="st89" d="M586.3,112.9L586.3,112.9c1.1,0,1.9,0.9,1.9,1.9v0.7l0,0h-4l0,0v-0.7
							C584.4,113.8,585.2,112.9,586.3,112.9L586.3,112.9z"/>
						<circle class="st89" cx="586.3" cy="110.7" r="1.4"/>
					</g>
				</g>
				<g>
					<circle class="st91" cx="601.3" cy="112.4" r="5.6"/>
					<g>
						<path class="st89" d="M601.3,112.9L601.3,112.9c1.1,0,1.9,0.9,1.9,1.9v0.7l0,0h-4l0,0v-0.7
							C599.4,113.8,600.2,112.9,601.3,112.9L601.3,112.9z"/>
						<circle class="st89" cx="601.3" cy="110.7" r="1.4"/>
					</g>
				</g>
				<circle class="st11" cx="481.5" cy="80.8" r="18.3"/>
				<g>
					<circle class="st87" cx="486" cy="77" r="19.1"/>
					<circle class="st94" cx="486" cy="77" r="14.3"/>
					<g>
						<path class="st96" d="M486.9,76.4c-3.4-12.6-16.7-7.7-16.7-7.7s2.1-0.7,4.9,4.9c2.7,5.6,9.1,4.9,9.1,4.9L486.9,76.4z"/>
						<path class="st97" d="M484.3,74.3c0,0-3.6,0.4-4.8-5.8s-2.3-5.2-2.3-5.2s8.6-2.7,11,6.8C490.5,79.7,484.3,74.3,484.3,74.3z"/>
						<path class="st97" d="M488.6,79.6c0,0,3.6-0.5,5,5.7c1.4,6.2,2.5,5.1,2.5,5.1s-8.5,3-11.2-6.4
							C482.4,74.5,488.6,79.6,488.6,79.6z"/>
						<path class="st97" d="M489.8,73.2c0,0,1.3-3.3,7.4-1.5s5.6,0.3,5.6,0.3s-1.6,8.9-11.2,6.5C482,76,489.8,73.2,489.8,73.2z"/>
						<path class="st97" d="M481.3,79.5c0,0-0.1,3-5.5,3.2c-5.4,0.2-4.6,1.3-4.6,1.3s-1.2-7.5,7-8.2
							C486.5,75.1,481.3,79.5,481.3,79.5z"/>
						<path class="st96" d="M484.1,74.3c0,0,0-5.6,4.9-7.7c4.9-2.1,4.2-6.3,4.2-6.3s4.9,2.8,4.2,8.4c-0.7,5.6-7,7-9.1,7.7
							S484.1,74.3,484.1,74.3z"/>
						<path class="st96" d="M483.7,78.9c0.8,3.1,3.7,5.3,6.9,5.5c5.6,0.3,7.2,3.3,7.2,3.3s2.3-13.8-9.9-12.4
							C475.6,76.7,483.7,78.9,483.7,78.9z"/>
						<path class="st96" d="M481.8,73.7c0,0-7.2,7.2-3.7,13.6c3.6,6.4,1.8,10.9,1.8,10.9s11.8-5.5,7.2-12.7
							c-4.6-7.2-1.8-9.9-1.8-9.9L481.8,73.7z"/>
					</g>
				</g>
				<rect x="539.8" y="116.3" class="st13" width="91.4" height="4.3"/>
			</g>
		</g>
	</g>
</g>
</svg>
