<?xml version="1.0" encoding="utf-8"?>
<!-- Generator: Adobe Illustrator 23.0.1, SVG Export Plug-In . SVG Version: 6.00 Build 0)  -->
<svg version="1.1" id="Layer_1" xmlns="http://www.w3.org/2000/svg" xmlns:xlink="http://www.w3.org/1999/xlink" x="0px" y="0px"
	 viewBox="0 0 745 572" style="enable-background:new 0 0 745 572;" xml:space="preserve">
<style type="text/css">
	.st0{fill:#45A7FF;}
	.st1{clip-path:url(#SVGID_1_);}
	.st2{fill:#303030;}
	.st3{fill:#1E1E1E;}
	.st4{fill:#FFD664;}
	.st5{fill:#757575;}
	.st6{fill:none;}
	.st7{fill:#FFFFFF;}
	.st8{fill:#D3D3D3;}
	.st9{fill:#75D85D;}
	.st10{fill:#EFEFEF;}
	.st11{fill:#0080FF;}
	.st12{clip-path:url(#SVGID_3_);}
	.st13{fill:#1E78BA;}
	.st14{fill:#EAEAEA;}
	.st15{fill:#ADADAD;}
	.st16{fill:#282828;}
	.st17{fill:none;stroke:#FF1A1A;stroke-width:4.1016;stroke-linecap:round;stroke-miterlimit:10;}
	.st18{fill:#FFC1B0;}
	.st19{fill:none;stroke:#FF1A1A;stroke-width:1.6397;stroke-linecap:round;stroke-miterlimit:10;}
	.st20{fill:#D8D8D8;}
	.st21{fill:#B7B7B7;}
	.st22{fill:#BCDD6B;}
	.st23{fill:#64BDFF;}
	.st24{fill:#F42F2F;}
	.st25{fill:#7F2626;}
	.st26{fill:#8C423B;}
	.st27{fill:#EAAFA9;}
	.st28{fill:#DD8783;}
	.st29{fill:#41352E;}
	.st30{fill:#E6E7E8;}
	.st31{fill:#F76C66;}
	.st32{fill:none;stroke:#EAAFA9;stroke-width:9.2342;stroke-linecap:round;stroke-miterlimit:10;}
	.st33{fill:none;stroke:#EAAFA9;stroke-width:4.6171;stroke-linecap:round;stroke-miterlimit:10;}
	.st34{fill:none;stroke:#FCCAC8;stroke-width:4.6171;stroke-linecap:round;stroke-miterlimit:10;}
	.st35{clip-path:url(#SVGID_5_);fill:#45A7FF;}
	.st36{clip-path:url(#SVGID_5_);}
	.st37{fill:#AA5D52;}
	.st38{fill:none;stroke:#64BDFF;stroke-width:11.5488;stroke-miterlimit:10;}
	.st39{fill:#F2F2F2;}
	.st40{fill:#9E69B7;}
	.st41{fill:#8C463F;}
	.st42{fill:#683631;}
	.st43{fill:#1A1A1A;}
	.st44{fill:#7C489B;}
	.st45{fill:#D31818;}
	.st46{fill:#E8E8E8;}
	.st47{fill:#FCC846;}
	.st48{fill:none;stroke:#B7B7B7;stroke-width:5.3302;stroke-linecap:round;stroke-miterlimit:10;}
	.st49{fill:#F9974E;}
	.st50{fill:#BA5483;}
	.st51{fill:#79C43D;}
	.st52{fill:#E874A1;}
	.st53{fill:#F98AAF;}
	.st54{fill:#E87498;}
	.st55{fill:#FF94C0;}
	.st56{fill:none;stroke:#8C423B;stroke-width:9.3866;stroke-linecap:round;stroke-miterlimit:10;}
	.st57{fill:#C1C1C1;}
	.st58{fill:#FF5A5A;}
	.st59{fill:#2C8BF2;}
	.st60{clip-path:url(#SVGID_7_);}
	.st61{fill:#DDB797;}
	.st62{fill:none;stroke:#7F605E;stroke-width:5.8942;stroke-linecap:round;stroke-miterlimit:10;}
	.st63{fill:#CE9772;}
	.st64{fill:#EDD0B4;}
	.st65{fill:#333333;}
	.st66{fill:#C4A183;}
	.st67{fill:#C99B79;}
	.st68{fill:#F2C8AD;}
	.st69{fill:#489BFF;}
	.st70{fill:#F9CC3D;}
	.st71{fill:#49557A;}
	.st72{fill:#42991D;}
	.st73{fill:#F9A819;}
	.st74{fill:#494949;}
	.st75{opacity:0.5;fill:url(#SVGID_8_);}
	.st76{fill:#FFD066;}
	.st77{fill:#FFF9F0;}
	.st78{fill:#FFDC78;}
	.st79{fill:#4D545E;}
	.st80{opacity:0.5;fill:url(#SVGID_9_);}
	.st81{opacity:0.5;fill:url(#SVGID_10_);}
	.st82{opacity:0.5;fill:url(#SVGID_11_);}
	.st83{fill:#FF6161;}
	.st84{fill:#D31E1E;}
	.st85{fill:none;stroke:#303030;stroke-width:0.4835;stroke-linecap:round;stroke-miterlimit:10;}
	.st86{fill:#292B2D;}
	.st87{fill:#398AFF;}
	.st88{fill:none;stroke:#FF1A1A;stroke-width:3.7281;stroke-linecap:round;stroke-miterlimit:10;}
</style>
<title>music-stand</title>
<title>music-stand</title>
<g>
	<path class="st0" d="M745,306.5V29.7c0-12.3-10-22.2-22.2-22.2H603.9c-7,0-13.6,3.3-17.8,8.9L412.6,248.8
		c-10,13.5-2.1,32.8,14.4,35.3l292.3,44.4C732.8,330.5,745,320.1,745,306.5z"/>
	<path class="st0" d="M0.6,289.4v255.9c0,12.3,10,22.2,22.2,22.2h124.6c7,0,13.6-3.3,17.8-8.9l158.6-212.4
		c10-13.5,2.1-32.8-14.4-35.3L26.2,267.4C12.7,265.3,0.6,275.7,0.6,289.4z"/>
	<path class="st0" d="M0.6,289.4v255.9c0,12.3,10,22.2,22.2,22.2h124.6c7,0,13.6-3.3,17.8-8.9l158.6-212.4
		c10-13.5,2.1-32.8-14.4-35.3L26.2,267.4C12.7,265.3,0.6,275.7,0.6,289.4z"/>
	<g>
		<defs>
			<path id="SVGID_19_" d="M745,306.5V29.7c0-12.3-10-22.2-22.2-22.2H603.9c-7,0-13.6,3.3-17.8,8.9L412.6,248.8
				c-10,13.5-2.1,32.8,14.4,35.3l292.3,44.4C732.8,330.5,745,320.1,745,306.5z"/>
		</defs>
		<clipPath id="SVGID_1_">
			<use xlink:href="#SVGID_19_"  style="overflow:visible;"/>
		</clipPath>
		<g class="st1">
			<g>
				<g>
					<rect x="620.9" y="112.5" class="st2" width="10.5" height="105.1"/>
					<rect x="620.9" y="112.5" class="st3" width="10.5" height="7.7"/>
				</g>
				<path class="st2" d="M660.5,236.8h-68.8c-1.2,0-2.1-0.9-2.1-2.1v-2.5c0-8.1,6.5-14.6,14.6-14.6H648c8.1,0,14.6,6.5,14.6,14.6
					v2.5C662.6,235.9,661.7,236.8,660.5,236.8z"/>
			</g>
			<g>
				<path class="st2" d="M656.1,113h-60c-2.6,0-4.8-2.1-4.8-4.8V30.9c0-2.6,2.1-4.8,4.8-4.8h60c2.6,0,4.8,2.1,4.8,4.8v77.3
					C660.9,110.8,658.7,113,656.1,113z"/>
				<path class="st4" d="M635.6,33.2h-19c-0.8,0-1.4-0.6-1.4-1.4v0c0-0.8,0.6-1.4,1.4-1.4h19c0.8,0,1.4,0.6,1.4,1.4v0
					C637,32.6,636.4,33.2,635.6,33.2z"/>
				<circle class="st4" cx="626.1" cy="106.4" r="1.5"/>
			</g>
			<path class="st5" d="M649.6,100.4h-47c-0.8,0-1.4-0.6-1.4-1.4V40.1c0-0.8,0.6-1.4,1.4-1.4h47c0.8,0,1.4,0.6,1.4,1.4V99
				C651,99.8,650.4,100.4,649.6,100.4z"/>
			<g>
				<path class="st6" d="M630.2,99V51.2V40.1c0-0.8,0.6-1.4,1.4-1.4h-11c0.8,0,1.4,0.6,1.4,1.4v11.1V99c0,0.8-0.6,1.4-1.4,1.4h11
					C630.8,100.4,630.2,99.8,630.2,99z"/>
				<path class="st7" d="M622,99V51.2h-20.8v5.6c0.6,0.4,1,1.2,1,2c0,0.8-0.4,1.5-1,2v5.4h12.5c1.4,0,2.5,1.1,2.5,2.5
					c0,1.4-1.1,2.5-2.5,2.5h-12.5v28c0,0.8,0.6,1.4,1.4,1.4h18C621.4,100.4,622,99.8,622,99z"/>
				<path class="st0" d="M622,40.1c0-0.8-0.6-1.4-1.4-1.4h-18c-0.8,0-1.4,0.6-1.4,1.4v11.1H622V40.1z"/>
				<path class="st8" d="M602.2,58.7c0-0.8-0.4-1.5-1-2v3.9C601.8,60.2,602.2,59.5,602.2,58.7z"/>
				<path class="st8" d="M616.2,68.6c0-1.4-1.1-2.5-2.5-2.5h-12.5V71h12.5C615.1,71,616.2,69.9,616.2,68.6z"/>
				<path class="st8" d="M612.9,78.4c0-1.4-1.1-2.5-2.5-2.5h-9.2v4.9h9.2C611.7,80.9,612.9,79.8,612.9,78.4z"/>
				<path class="st7" d="M651,99v-8.6c-0.3,0.2-0.7,0.3-1.1,0.3h-11.7c-1.4,0-2.5-1.1-2.5-2.5s1.1-2.5,2.5-2.5h11.7
					c0.4,0,0.8,0.1,1.1,0.3v-5.3c-0.3,0.1-0.5,0.1-0.8,0.1h-11.7c-1.4,0-2.5-1.1-2.5-2.5c0-1.4,1.1-2.5,2.5-2.5h11.7
					c0.3,0,0.6,0.1,0.8,0.1V71h-12.5c-1.4,0-2.5-1.1-2.5-2.5c0-1.4,1.1-2.5,2.5-2.5H651v-4.9h-12.5c-1.4,0-2.5-1.1-2.5-2.5
					s1.1-2.5,2.5-2.5H651v-5.1h-20.8V99c0,0.8,0.6,1.4,1.4,1.4h18C650.4,100.4,651,99.8,651,99z"/>
				<path class="st0" d="M630.2,40.1v11.1H651V40.1c0-0.8-0.6-1.4-1.4-1.4h-18C630.8,38.7,630.2,39.3,630.2,40.1z"/>
				<path class="st8" d="M636,58.7c0,1.4,1.1,2.5,2.5,2.5H651v-4.9h-12.5C637.1,56.3,636,57.4,636,58.7z"/>
				<path class="st8" d="M636,68.6c0,1.4,1.1,2.5,2.5,2.5H651v-4.9h-12.5C637.1,66.1,636,67.2,636,68.6z"/>
				<path class="st8" d="M638.5,75.9c-1.4,0-2.5,1.1-2.5,2.5c0,1.4,1.1,2.5,2.5,2.5h11.7c0.3,0,0.6-0.1,0.8-0.1v-4.6
					c-0.3-0.1-0.5-0.1-0.8-0.1H638.5z"/>
				<path class="st8" d="M638.2,85.8c-1.4,0-2.5,1.1-2.5,2.5s1.1,2.5,2.5,2.5h11.7c0.4,0,0.8-0.1,1.1-0.3V86
					c-0.3-0.2-0.7-0.3-1.1-0.3H638.2z"/>
			</g>
			<path class="st7" d="M581.2,67.1h-12.4v-2.3c0-0.9-1-1.4-1.8-0.9l-9.9,7.3c-0.6,0.4-0.6,1.3,0,1.8l9.9,7.3c0.7,0.5,1.8,0,1.8-0.9
				v-2.3h12.4c0.8,0,1.5-0.7,1.5-1.5v-7C582.7,67.7,582,67.1,581.2,67.1z"/>
			<path class="st7" d="M690.2,67.1h-12.4v-2.3c0-0.9-1-1.4-1.8-0.9l-9.9,7.3c-0.6,0.4-0.6,1.3,0,1.8l9.9,7.3c0.7,0.5,1.8,0,1.8-0.9
				v-2.3h12.4c0.8,0,1.5-0.7,1.5-1.5v-7C691.7,67.7,691,67.1,690.2,67.1z"/>
			<g>
				<path class="st7" d="M735.1,230l-45.4-9l12.1-61.3c0.3-1.7,2-2.8,3.7-2.5l39.2,7.8c1.7,0.3,2.8,2,2.5,3.7L735.1,230z"/>
				<path class="st9" d="M747.1,205.6c0.7-3.7-1.8-7.3-5.6-7.9c-2.7-0.4-5.4,0.9-6.8,3.2l-1.2,2c-4.1,7-11.3,11.9-19.4,12.4
					c-0.2,0-0.3,0-0.5,0c-13.8,0.6-21.5-15.9-13-26.8l3.3-4.1c2-2.5,2.3-6.2,0.3-8.8c-2.9-3.8-8.4-3.6-11.1-0.1l-9.3,11.7l-46.1,4.3
					l-13.2,14.2l-7,31.3c0,0,122,20.7,120.8,20.3C737.5,257.1,744.2,221,747.1,205.6z"/>
				<g>
					<path class="st7" d="M591.2,220.9c6.1-13.4,19.9-33.4,46.5-29.3l-8.3,48l-31.2-5.4C592.2,233.1,588.6,226.5,591.2,220.9z"/>
				</g>
				<g>
					<path class="st10" d="M587.3,223.6l150.5,25.9c3.4,0.6,5.7,3.9,5.1,7.3v0c-0.6,3.4-3.9,5.7-7.3,5.1l-150.5-25.9
						c-3.4-0.6-5.7-3.9-5.1-7.3v0C580.6,225.3,583.8,223,587.3,223.6z"/>
				</g>
				<g>
					<path class="st7" d="M647,206.7L647,206.7c-2.8,0-5-2.4-5-5.1l0.2-12.5c0-2.8,2.4-5,5.1-5l0,0c2.8,0,5,2.4,5,5.1l-0.2,12.5
						C652.1,204.5,649.7,206.8,647,206.7z"/>
					<path class="st7" d="M661.6,206.1L661.6,206.1c-2.8,0-5-2.4-5-5.1l0.2-12.5c0-2.8,2.4-5,5.1-5h0c2.8,0,5,2.4,5,5.1l-0.2,12.5
						C666.7,203.9,664.3,206.2,661.6,206.1z"/>
					<path class="st7" d="M676.3,206.4L676.3,206.4c-2.8,0-5-2.4-5-5.1l0.2-12.5c0-2.8,2.4-5,5.1-5l0,0c2.8,0,5,2.4,5,5.1l-0.2,12.5
						C681.4,204.2,679.1,206.4,676.3,206.4z"/>
				</g>
				<path class="st11" d="M751.2,174.8l-58.4-11.5c-1.8-0.4-3-2.1-2.7-4l43.7-184.2l44.4,80.1l-23.1,117
					C754.8,174,753,175.2,751.2,174.8z"/>
			</g>
			<g>
				<path class="st2" d="M535.2,306h155.3c3.8,0,7-3.1,7-7v-17.8c0-6.9-5.6-12.4-12.4-12.4H540.7c-6.9,0-12.4,5.6-12.4,12.4V299
					C528.3,302.8,531.4,306,535.2,306z"/>
				<path class="st2" d="M537.1,260.8l158.5,24.3l1.4-9.4c0.8-5.2-2.8-10.1-8-10.9L540,241.9c-5.2-0.8-10.1,2.8-10.9,8v0
					C528.3,255.2,531.8,260,537.1,260.8z"/>
			</g>
		</g>
	</g>
	<g>
		<defs>
			<path id="SVGID_21_" d="M1.4,289.4v255.9c0,12.3,10,22.2,22.2,22.2h124.6c7,0,13.6-3.3,17.8-8.9l158.6-212.4
				c10-13.5,2.1-32.8-14.4-35.3L27,267.4C13.5,265.3,1.4,275.7,1.4,289.4z"/>
		</defs>
		<clipPath id="SVGID_2_">
			<use xlink:href="#SVGID_21_"  style="overflow:visible;"/>
		</clipPath>
	</g>
	<g>
		<defs>
			<path id="SVGID_23_" d="M506,8.1H22.2C9.9,8.1,0,18,0,30.3v176.6c0,11,8,20.3,18.9,22l316,48.1c8.1,1.2,16.3-2.1,21.2-8.7
				L523.8,43.6C534.8,29,524.3,8.1,506,8.1z"/>
		</defs>
		<clipPath id="SVGID_3_">
			<use xlink:href="#SVGID_23_"  style="overflow:visible;"/>
		</clipPath>
		<g class="st12">
			<defs>
				<path id="SVGID_25_" d="M506,8.1H22.2C9.9,8.1,0,18,0,30.3v176.6c0,11,8,20.3,18.9,22l316,48.1c8.1,1.2,16.3-2.1,21.2-8.7
					L523.8,43.6C534.8,29,524.3,8.1,506,8.1z"/>
			</defs>
			<use xlink:href="#SVGID_25_"  style="overflow:visible;fill:#45A7FF;"/>
			<clipPath id="SVGID_4_">
				<use xlink:href="#SVGID_25_"  style="overflow:visible;"/>
			</clipPath>
		</g>
		<g class="st12">
			<polygon class="st11" points="-102.8,294.7 443.7,294.7 441.1,188 -105.5,188 			"/>
			<g>
				
					<rect x="328.2" y="218.2" transform="matrix(0.9951 -9.936271e-02 9.936271e-02 0.9951 -20.5182 34.1053)" class="st13" width="7.9" height="9.7"/>
				<g>
					<g>
						<g>
							<rect x="95.1" y="170" class="st2" width="15.1" height="177.1"/>
							<rect x="95.1" y="170" class="st3" width="15.1" height="11.1"/>
						</g>
						<path class="st2" d="M152,374.7H53.3c-1.7,0-3-1.3-3-3v-3.6c0-11.6,9.4-20.9,20.9-20.9H134c11.6,0,20.9,9.4,20.9,20.9v3.6
							C155,373.3,153.6,374.7,152,374.7z"/>
					</g>
					<path class="st14" d="M152.8,173.9h-100c-4.4,0-7.9-3.5-7.9-7.9V37.1c0-4.4,3.5-7.9,7.9-7.9h100c4.4,0,7.9,3.5,7.9,7.9V166
						C160.8,170.3,157.2,173.9,152.8,173.9z"/>
					<path class="st7" d="M142,152.9H63.7c-1.3,0-2.3-1-2.3-2.3V52.4c0-1.3,1-2.3,2.3-2.3H142c1.3,0,2.3,1,2.3,2.3v98.2
						C144.3,151.9,143.3,152.9,142,152.9z"/>
					<path class="st15" d="M118.6,40.9H87c-1.3,0-2.3-1-2.3-2.3v0c0-1.3,1-2.3,2.3-2.3h31.6c1.3,0,2.3,1,2.3,2.3v0
						C120.9,39.9,119.9,40.9,118.6,40.9z"/>
					<circle class="st15" cx="102.8" cy="162.9" r="2.5"/>
					<path class="st0" d="M144.3,70.9h-83V52.4c0-1.3,1-2.3,2.3-2.3H142c1.3,0,2.3,1,2.3,2.3V70.9z"/>
					<path class="st16" d="M128,114.2h-6.9c-1.2,0-2.1,0.9-2.1,2.1v1.9v2.4v6.7c-1.3-1-2.9-1.4-4.7-1.1c-2.3,0.4-4.2,2.3-4.7,4.6
						c-0.7,3.8,2.2,7.1,5.8,7.1c3.1,0,5.7-2.4,5.9-5.5h0v-11.8h6.6c1.2,0,2.1-0.9,2.1-2.1v-2.1C130.1,115.1,129.1,114.2,128,114.2z"
						/>
					<path class="st8" d="M130.5,87.6H75.1c-2.3,0-4.1-1.8-4.1-4.1v0c0-2.3,1.8-4.1,4.1-4.1h55.4c2.3,0,4.1,1.8,4.1,4.1v0
						C134.6,85.7,132.8,87.6,130.5,87.6z"/>
					<path class="st8" d="M130.5,104H75.1c-2.3,0-4.1-1.8-4.1-4.1v0c0-2.3,1.8-4.1,4.1-4.1h55.4c2.3,0,4.1,1.8,4.1,4.1v0
						C134.6,102.1,132.8,104,130.5,104z"/>
					<path class="st8" d="M94.6,120.4H75.1c-2.3,0-4.1-1.8-4.1-4.1v0c0-2.3,1.8-4.1,4.1-4.1h19.5c2.3,0,4.1,1.8,4.1,4.1v0
						C98.7,118.6,96.9,120.4,94.6,120.4z"/>
					<path class="st8" d="M94.2,136.8H74.7c-2.3,0-4.1-1.8-4.1-4.1v0c0-2.3,1.8-4.1,4.1-4.1h19.5c2.3,0,4.1,1.8,4.1,4.1v0
						C98.3,135,96.5,136.8,94.2,136.8z"/>
					<path class="st17" d="M102.5,122.9c-1.7,4.6-1.1,10.1,1.7,14.2c2.6,3.7,6.9,6.2,11.4,6.6c8.3,0.6,15.4-5,19.2-12
						c2.5-4.5,3.3-10.1,1.4-14.9c-4.9-12.5-22.2-9.2-31-3.5"/>
					<path class="st18" d="M116.1,170.2c-6.3-2.3-13.2,0.9-15.5,7.2l-5.2,14.3c-0.4,1.1-1.8,1.5-2.7,0.8c-0.6-0.5-0.9-1.2-0.7-2
						l1.9-9.5l1.9-9.4l9.2-46c1.3-6.5-2.9-12.9-9.5-14.2l-1.8-0.4c-2.1-0.4-4,0.9-4.5,3l-8.6,42.9c-1.9-2.7-5.2-4.3-8.6-3.7
						c-3.7,0.6-6.5,3.4-7.3,6.9c-1.7-1.1-3.9-1.6-6.1-1.3c-4.2,0.6-7.2,4.1-7.5,8.2c-1.2-0.3-2.4-0.4-3.7-0.2
						c-4.8,0.7-8.1,5.3-7.4,10.1c0,7,0.3,14.1,0.8,21.1c0.4,5.7,1,11.4,2.1,17c0.9,4.8,3.2,9.3,3.7,14.2c0.5,5.1-0.2,10.4-1.2,15.4
						c-1.3,6.4-3.3,12.8-4,19.3c11.5,2.4,23.1,4.6,34.6,6.9l2.8-13.8c1.2-6.3,3-12.4,5.2-18.4l0.2-0.6c1-2.6,2.7-4.9,5-6.5l7-5
						c2.7-1.9,4.8-4.6,5.9-7.7l4.4-12l1-2.8l10.7-29.4C118.7,172.8,117.8,170.8,116.1,170.2z"/>
				</g>
				<g>
					<g>
						<g>
							<g>
								<rect x="232.9" y="159.2" class="st2" width="7" height="70.1"/>
								<rect x="232.9" y="159.2" class="st3" width="7" height="5.2"/>
							</g>
							<path class="st2" d="M259.3,242h-45.8c-0.8,0-1.4-0.6-1.4-1.4V239c0-5.4,4.4-9.7,9.7-9.7H251c5.4,0,9.7,4.4,9.7,9.7v1.7
								C260.7,241.4,260.1,242,259.3,242z"/>
						</g>
						<g>
							<path class="st2" d="M256.4,159.5h-40c-1.7,0-3.2-1.4-3.2-3.2v-51.5c0-1.7,1.4-3.2,3.2-3.2h40c1.7,0,3.2,1.4,3.2,3.2v51.5
								C259.5,158.1,258.1,159.5,256.4,159.5z"/>
							<path class="st7" d="M252,151.1h-31.3c-0.5,0-0.9-0.4-0.9-0.9v-39.3c0-0.5,0.4-0.9,0.9-0.9H252c0.5,0,0.9,0.4,0.9,0.9v39.3
								C253,150.7,252.5,151.1,252,151.1z"/>
							<path class="st4" d="M242.7,106.3h-12.6c-0.5,0-0.9-0.4-0.9-0.9l0,0c0-0.5,0.4-0.9,0.9-0.9h12.6c0.5,0,0.9,0.4,0.9,0.9l0,0
								C243.6,105.9,243.2,106.3,242.7,106.3z"/>
							<circle class="st4" cx="236.4" cy="155.1" r="1"/>
							<path class="st0" d="M253,118.3h-33.2v-7.4c0-0.5,0.4-0.9,0.9-0.9H252c0.5,0,0.9,0.4,0.9,0.9V118.3z"/>
							<path class="st16" d="M246.4,135.6h-2.7c-0.5,0-0.8,0.4-0.8,0.8v0.7v0.9v2.7c-0.5-0.4-1.2-0.6-1.9-0.4
								c-0.9,0.2-1.7,0.9-1.9,1.9c-0.3,1.5,0.9,2.8,2.3,2.8c1.3,0,2.3-1,2.4-2.2h0v-4.7h2.6c0.5,0,0.8-0.4,0.8-0.8v-0.8
								C247.3,136,246.9,135.6,246.4,135.6z"/>
							<path class="st8" d="M247.4,125h-22.1c-0.9,0-1.6-0.7-1.6-1.6l0,0c0-0.9,0.7-1.6,1.6-1.6h22.1c0.9,0,1.6,0.7,1.6,1.6l0,0
								C249.1,124.2,248.4,125,247.4,125z"/>
							<path class="st8" d="M247.4,131.5h-22.1c-0.9,0-1.6-0.7-1.6-1.6l0,0c0-0.9,0.7-1.6,1.6-1.6h22.1c0.9,0,1.6,0.7,1.6,1.6l0,0
								C249.1,130.8,248.4,131.5,247.4,131.5z"/>
							<path class="st8" d="M233.1,138.1h-7.8c-0.9,0-1.6-0.7-1.6-1.6l0,0c0-0.9,0.7-1.6,1.6-1.6h7.8c0.9,0,1.6,0.7,1.6,1.6l0,0
								C234.7,137.4,234,138.1,233.1,138.1z"/>
							<path class="st8" d="M232.9,144.6h-7.8c-0.9,0-1.6-0.7-1.6-1.6l0,0c0-0.9,0.7-1.6,1.6-1.6h7.8c0.9,0,1.6,0.7,1.6,1.6l0,0
								C234.6,143.9,233.8,144.6,232.9,144.6z"/>
							<path class="st19" d="M236.2,139.1c-0.7,1.8-0.4,4.1,0.7,5.7c1,1.5,2.7,2.5,4.5,2.6c3.3,0.3,6.1-2,7.7-4.8c1-1.8,1.3-4,0.6-6
								c-1.9-5-8.9-3.7-12.4-1.4"/>
						</g>
					</g>
					<g>
						<g>
							<g>
								<g>
									<path class="st2" d="M316.7,223.9c8.9-0.9,21-2.1,21-2.1l0,0.1l0.9,9.1c0.1,0.8-0.5,1.5-1.3,1.5l-19.8,2l-1.1-10.6
										C316.6,224,316.6,223.9,316.7,223.9z"/>
								</g>
								<g>
									<path class="st20" d="M308.4,232.9c0.5-3.2,2.3-8.2,8.1-8.9l1.1,10.6l-6.9,0.7C309.3,235.4,308.2,234.2,308.4,232.9z"/>
								</g>
								<g>
									<path class="st21" d="M308.4,233.2l29.9-3c0.8-0.1,1.4,0.5,1.5,1.2l0,0c0.1,0.8-0.5,1.4-1.2,1.5l-29.9,3
										c-0.8,0.1-1.4-0.5-1.5-1.2l0,0C307.1,233.9,307.6,233.3,308.4,233.2z"/>
								</g>
								<g>
									<path class="st20" d="M322.5,227.7l6.8-0.7c0.6-0.1,1.1-0.6,1.1-1.3l-0.3-3.2l-9.1,0.9l0.3,3.2
										C321.3,227.3,321.9,227.8,322.5,227.7z"/>
								</g>
							</g>
							<path class="st2" d="M375.5,135.5l-12.7,7.3c-0.8,0.5-1.8,0.2-2.3-0.6l-7.3-12.6c-2.5-4.3-1-9.8,3.3-12.3l0,0
								c4.3-2.5,9.8-1,12.3,3.3l7.3,12.6C376.5,134,376.3,135,375.5,135.5z"/>
							<g>
								<path class="st2" d="M338.8,115.9l20,0c4.7,0,8.5,3.8,8.5,8.5l0,44c0,1.9-1.5,3.4-3.4,3.4l-30.4,0c-1.9,0-3.4-1.5-3.4-3.4
									l0-44C330.2,119.7,334.1,115.9,338.8,115.9z"/>
							</g>
							<g>
								<rect x="336.4" y="171.9" class="st22" width="24.9" height="9.3"/>
								<g>
									<g>
										<g>
											<path class="st2" d="M370.9,234.7c-8.9,0-21.1,0-21.1,0l0,0.1l0,9.2c0,0.8,0.6,1.4,1.4,1.4l19.9,0l0-10.7
												C371,234.7,371,234.7,370.9,234.7z"/>
										</g>
										<g>
											<path class="st20" d="M380.1,242.7c-0.8-3.1-3.1-8-9-8.1l0,10.7l6.9,0C379.4,245.4,380.4,244.1,380.1,242.7z"/>
										</g>
										<g>
											<path class="st21" d="M380.1,243l-30.1,0c-0.8,0-1.4,0.6-1.4,1.4l0,0c0,0.8,0.6,1.4,1.4,1.4l30.1,0
												c0.8,0,1.4-0.6,1.4-1.4v0C381.5,243.7,380.9,243,380.1,243z"/>
										</g>
										<g>
											<path class="st20" d="M365.5,239l-6.8,0c-0.6,0-1.2-0.5-1.2-1.2l0-3.2l9.2,0l0,3.2C366.7,238.5,366.1,239,365.5,239z"/>
										</g>
									</g>
									<g>
										<g>
											<polygon class="st23" points="364.7,234.6 350.1,234.6 349.8,171.8 364.3,171.8 											"/>
										</g>
										<path class="st13" d="M357,171l2.3,0.5c0.2,3.4,2.1,6.4,5,8.1l-0.1,2.6C360.1,180.1,357,175.6,357,171z"/>
									</g>
								</g>
								<g>
									<g>
										<polygon class="st23" points="323.2,220.1 337.2,218.9 333.7,194.2 348.6,171.8 334,171.8 319.5,192.3 										"/>
									</g>
									<path class="st13" d="M341.8,171.9l-2.4,0c-0.9,3.2-3.4,5.8-6.6,6.8l-0.5,2.5C336.8,180.1,340.8,176.4,341.8,171.9z"/>
								</g>
							</g>
							<g>
								<path class="st24" d="M366.7,166c5,0.4,9.4-3.3,9.8-8.2c0.4-5-3.3-9.4-8.2-9.8l-3.4-0.3c-4.5-0.4-7.6-4.7-6.5-9.1
									c0.7-2.7-1-5.4-3.7-6.1s-5.4,1-6.1,3.7l-0.1,0.4c-0.8,3.4-4,5.7-7.5,5.8c-7.9,0-15.7,2.5-19.5,10
									c-3.1,6.1-2.1,13.6,1.2,19.4c5,8.9,15.8,16.3,26.2,12c5.7-2.4,9.5-8,11.5-13.7C361.5,167.4,364,165.8,366.7,166z"/>
								<path class="st7" d="M353.3,160.3l-6-8.3c-0.9-1.2-0.6-2.9,0.6-3.8h0c1.2-0.9,2.9-0.6,3.8,0.6l6,8.3
									c0.9,1.2,0.6,2.9-0.6,3.8l0,0C355.9,161.8,354.2,161.5,353.3,160.3z"/>
								<path class="st7" d="M339.2,172.6l-8-11.2c-0.3-0.4-0.2-1,0.2-1.3l0,0c0.4-0.3,1-0.2,1.3,0.2l8,11.2c0.3,0.4,0.2,1-0.2,1.3
									l0,0C340.1,173.1,339.6,173,339.2,172.6z"/>
								<path class="st25" d="M344.8,167.5l-7-9.7c-0.6-0.8-0.4-2,0.4-2.6l2.4-1.7c0.8-0.6,2-0.4,2.6,0.4l7,9.7
									c0.6,0.8,0.4,2-0.4,2.6l-2.4,1.7C346.5,168.5,345.4,168.3,344.8,167.5z"/>
								<path class="st26" d="M415.9,113.8l-4.4-6.2c-0.7-1-2.1-1.2-3.1-0.5l-10.3,7.4c-0.7,0.5-1.2,1.2-1.5,2l-0.6,1.8
									c-0.3,0.8-0.8,1.5-1.5,2l-41.7,29.9l3.9,5.4l41.6-29.9c0.7-0.5,1.5-0.8,2.4-0.8l1.9,0c0.9,0,1.7-0.3,2.4-0.8l10.3-7.4
									C416.4,116.2,416.7,114.8,415.9,113.8z"/>
								<g>
									<path class="st7" d="M405.8,125.8L405.8,125.8c-0.3-0.4-0.2-1,0.2-1.4l0.8-0.6c0.4-0.3,1-0.2,1.4,0.2l0,0
										c0.3,0.4,0.2,1-0.2,1.4l-0.8,0.6C406.8,126.4,406.2,126.3,405.8,125.8z"/>
									<path class="st7" d="M409.9,122.9L409.9,122.9c-0.3-0.4-0.2-1,0.2-1.4l0.8-0.6c0.4-0.3,1-0.2,1.4,0.2l0,0
										c0.3,0.4,0.2,1-0.2,1.4l-0.8,0.6C410.8,123.5,410.2,123.4,409.9,122.9z"/>
									<path class="st7" d="M414,120L414,120c-0.3-0.4-0.2-1,0.2-1.4l0.8-0.6c0.4-0.3,1-0.2,1.4,0.2v0c0.3,0.4,0.2,1-0.2,1.4
										l-0.8,0.6C414.9,120.5,414.3,120.4,414,120z"/>
								</g>
								<g>
									<path class="st7" d="M396.8,113.2L396.8,113.2c-0.3-0.4-0.2-1,0.2-1.4l0.8-0.6c0.4-0.3,1-0.2,1.4,0.2v0
										c0.3,0.4,0.2,1-0.2,1.4l-0.8,0.6C397.7,113.7,397.1,113.6,396.8,113.2z"/>
									<path class="st7" d="M400.8,110.3L400.8,110.3c-0.3-0.4-0.2-1,0.2-1.4l0.8-0.6c0.4-0.3,1-0.2,1.4,0.2l0,0
										c0.3,0.4,0.2,1-0.2,1.4l-0.8,0.6C401.8,110.8,401.2,110.7,400.8,110.3z"/>
									<path class="st7" d="M404.9,107.4L404.9,107.4c-0.3-0.4-0.2-1,0.2-1.4l0.8-0.6c0.4-0.3,1-0.2,1.4,0.2l0,0
										c0.3,0.4,0.2,1-0.2,1.4l-0.8,0.6C405.8,107.9,405.2,107.8,404.9,107.4z"/>
								</g>
							</g>
							<g>
								<g>
									<g>
										<path class="st27" d="M335.7,176.5c-0.2-0.3-0.3-0.6-0.5-0.9c-16.7-42.3-0.7-53.6,1.2-54.8l5.3,8.7c0,0,0.1,0,0.2-0.1
											c-0.1,0.1-10.6,8.4,2.8,42.4c1,2.6-0.2,5.6-2.9,6.6C339.6,179.3,337,178.5,335.7,176.5z"/>
									</g>
								</g>
								<g>
									<path class="st27" d="M338.7,166.8c-0.3-0.4-0.5-1-0.4-1.6c0.2-1.1,1.3-1.8,2.4-1.6l4.6,0.9c1.1,0.2,1.8,1.3,1.6,2.4
										c-0.2,1.1-1.3,1.8-2.4,1.6l-4.6-0.9C339.4,167.5,338.9,167.2,338.7,166.8z"/>
								</g>
							</g>
							<g>
								<path class="st2" d="M330.4,122l-5.1,14.9c-0.2,0.7,0.1,1.5,0.9,1.7l14.2,4.8c0.7,0.2,1.5-0.1,1.7-0.9l5.1-14.9
									c1.6-4.6-0.9-9.7-5.6-11.3v0C337,114.9,331.9,117.4,330.4,122z"/>
							</g>
							<g>
								<circle class="st27" cx="331.6" cy="94.4" r="5.7"/>
							</g>
							<g>
								<circle class="st27" cx="367.1" cy="94.4" r="5.7"/>
							</g>
							<g>
								<path class="st27" d="M349.3,124L349.3,124c2.4,0,4.4-2,4.4-4.4l0-7.1l-8.9,0l0,7.1C344.9,122,346.9,124,349.3,124z"/>
							</g>
							<path class="st18" d="M331.6,76.2l0,6.1l0,4.8l0,11c0,9.8,7.9,17.7,17.7,17.7h0c9.8,0,17.7-7.9,17.7-17.7l0-11l0-4.8l0-6.1
								L331.6,76.2z"/>
							<g>
								<line class="st27" x1="351.1" y1="98.8" x2="347.3" y2="98.8"/>
								<path class="st28" d="M347.3,99.8l3.8,0c0.5,0,1-0.4,1-1c0-0.5-0.4-1-1-1l-3.8,0c-0.5,0-1,0.4-1,1S346.7,99.8,347.3,99.8z"
									/>
							</g>
							<g>
								<g>
									<path class="st26" d="M360.9,88.1c0.1,0,0.2,0,0.3-0.1c0.5-0.2,0.7-0.7,0.5-1.1c-0.4-1.1-1.2-1.9-2.2-2.4s-2.2-0.5-3.3-0.1
										c-0.5,0.2-0.7,0.7-0.5,1.1c0.2,0.5,0.7,0.7,1.1,0.5c0.6-0.2,1.3-0.2,2,0.1c0.6,0.3,1.1,0.8,1.3,1.4
										C360.2,87.8,360.5,88.1,360.9,88.1z"/>
								</g>
								<g>
									<path class="st26" d="M337.7,88.1c0.4,0,0.7-0.2,0.8-0.6c0.5-1.3,2-2,3.3-1.5c0.5,0.2,1-0.1,1.1-0.5c0.2-0.5-0.1-1-0.5-1.1
										c-2.2-0.8-4.7,0.3-5.5,2.5c-0.2,0.5,0.1,1,0.5,1.1C337.5,88,337.6,88.1,337.7,88.1z"/>
								</g>
							</g>
							<circle class="st26" cx="339.4" cy="66.5" r="13.5"/>
							<path class="st26" d="M331.8,93.8L331.8,93.8c-1,0-1.8-0.8-1.8-1.8l0-20.5l3.7,0l0,20.5C333.6,93,332.8,93.8,331.8,93.8z"/>
							<path class="st26" d="M366.3,93.8L366.3,93.8c-1,0-1.8-0.8-1.8-1.8l0-20.9l3.7,0l0,20.9C368.1,93,367.3,93.8,366.3,93.8z"/>
							<g>
								<path class="st29" d="M354.7,110h-5c-0.9,0-1.6-0.7-1.6-1.6v-6.2h11.6v2.8C359.7,107.7,357.4,110,354.7,110z"/>
								<rect x="347.8" y="102.1" class="st30" width="12.1" height="3"/>
								<path class="st31" d="M359,107.5c-0.6-0.6-1.4-1-2.4-1c-1.8,0-3.3,1.5-3.3,3.3c0,0.1,0,0.2,0,0.2h1.3
									C356.5,110,358.1,109,359,107.5z"/>
							</g>
							<g>
								<path class="st28" d="M344.2,93.8c-0.4,0-0.7-0.2-0.8-0.6c-0.2-0.9-1-1.5-1.9-1.5c-0.9,0-1.7,0.6-1.9,1.5
									c-0.1,0.4-0.5,0.7-0.9,0.6c-0.4-0.1-0.7-0.5-0.6-0.9c0.4-1.6,1.8-2.7,3.4-2.7c1.7,0,3.1,1.1,3.4,2.7
									c0.1,0.4-0.2,0.8-0.6,0.9C344.4,93.8,344.3,93.8,344.2,93.8z"/>
							</g>
							<g>
								<path class="st28" d="M358.5,93.9c-0.4,0-0.7-0.2-0.8-0.6c-0.2-0.9-1-1.5-1.9-1.5c-0.9,0-1.7,0.6-1.9,1.5
									c-0.1,0.4-0.5,0.7-0.9,0.6c-0.4-0.1-0.7-0.5-0.6-0.9c0.4-1.6,1.8-2.7,3.4-2.7c1.7,0,3.1,1.1,3.4,2.7
									c0.1,0.4-0.2,0.8-0.6,0.9C358.6,93.8,358.5,93.9,358.5,93.9z"/>
							</g>
							<path class="st26" d="M360.6,61.6l-17.5-2.7v18h25v-6.5C368.1,66,364.9,62.3,360.6,61.6z"/>
						</g>
						<g>
							<line class="st32" x1="372.1" y1="146.5" x2="372.1" y2="122.3"/>
							<path class="st27" d="M375.9,124.7h-7.3c-1.5,0-2.7-1.2-2.7-2.7v-7.3c0-1.5,1.2-2.7,2.7-2.7h7.3c1.5,0,2.7,1.2,2.7,2.7v7.3
								C378.5,123.5,377.3,124.7,375.9,124.7z"/>
							<line class="st33" x1="370" y1="115.8" x2="370" y2="108.2"/>
							<line class="st34" x1="378.8" y1="114.3" x2="371.2" y2="114.3"/>
							<line class="st34" x1="378.8" y1="118.9" x2="371.2" y2="118.9"/>
							<line class="st34" x1="378.8" y1="123.6" x2="371.2" y2="123.6"/>
							<line class="st32" x1="372.1" y1="146.5" x2="372.1" y2="122.3"/>
							<path class="st27" d="M375.9,124.7h-7.3c-1.5,0-2.7-1.2-2.7-2.7v-7.3c0-1.5,1.2-2.7,2.7-2.7h7.3c1.5,0,2.7,1.2,2.7,2.7v7.3
								C378.5,123.5,377.3,124.7,375.9,124.7z"/>
							<line class="st33" x1="370" y1="115.8" x2="370" y2="108.2"/>
							<line class="st34" x1="378.8" y1="114.3" x2="371.2" y2="114.3"/>
							<line class="st34" x1="378.8" y1="118.9" x2="371.2" y2="118.9"/>
							<line class="st34" x1="378.8" y1="123.6" x2="371.2" y2="123.6"/>
						</g>
					</g>
				</g>
				<g>
					<path class="st7" d="M265.7,57.8c0.1-1.3,0.1-2.6,0-3.9c-0.8-10.8-9.5-19.5-20.3-20.3c-9.6-0.7-18,4.7-21.8,12.8
						c-0.4,0.8-1.1,1.3-2,1.2c0,0,0,0,0,0c-8,0-14.7,5.7-16.2,13.3c-0.1,0.4-0.5,0.8-0.9,0.8h0c-8,0-14.4,6.4-14.4,14.4v0
						c0,8,6.4,14.4,14.4,14.4h57.5c8,0,14.4-6.4,14.4-14.4v0c0-5.6-3.1-10.4-7.7-12.8C266.7,62.3,265.5,60.1,265.7,57.8z"/>
					<path class="st0" d="M251,78l-12.7-15c-0.9-1-2.4-1-3.3,0l-12.7,15c-1.2,1.4-0.2,3.6,1.7,3.6h5.2v11.8c0,1.8,1.4,3.2,3.2,3.2
						h8.6c1.8,0,3.2-1.4,3.2-3.2V81.6h5.2C251.2,81.6,252.2,79.4,251,78z"/>
				</g>
				<g>
					<path class="st2" d="M320.6,250.1h-18.7c-1.6,0-2.9-1.3-2.9-2.9l0,0c0-1.6,1.3-2.9,2.9-2.9h18.7c1.6,0,2.9,1.3,2.9,2.9l0,0
						C323.5,248.8,322.2,250.1,320.6,250.1z"/>
					<path class="st2" d="M322.4,241.7l-19.7,6.2c-1,0.3-2-0.2-2.3-1.2l0,0c-0.3-1,0.2-2,1.2-2.3l19.7-6.2c1-0.3,2,0.2,2.3,1.2v0
						C323.9,240.3,323.4,241.4,322.4,241.7z"/>
				</g>
			</g>
		</g>
	</g>
	<g>
		<defs>
			<path id="SVGID_27_" d="M726.1,366.6l-322.4-49c-8.1-1.2-16.3,2.1-21.2,8.7L229.7,531c-11,14.7-0.5,35.6,17.8,35.6h475.2
				c12.3,0,22.2-10,22.2-22.2V388.6C745,377.6,737,368.3,726.1,366.6z"/>
		</defs>
		<clipPath id="SVGID_5_">
			<use xlink:href="#SVGID_27_"  style="overflow:visible;"/>
		</clipPath>
		<rect x="203.4" y="308" class="st35" width="556" height="288"/>
		<g class="st36">
			<defs>
				<path id="SVGID_29_" d="M725.9,366.6l-321.2-49c-8.1-1.2-16.3,2.1-21.2,8.7L230.7,531c-11,14.7-0.5,35.6,17.8,35.6h474.1
					c12.3,0,22.2-10,22.2-22.2V388.6C744.8,377.6,736.8,368.3,725.9,366.6z"/>
			</defs>
			<clipPath id="SVGID_6_">
				<use xlink:href="#SVGID_29_"  style="overflow:visible;"/>
			</clipPath>
		</g>
		<g class="st36">
			<g>
				<g>
					<path class="st37" d="M559.8,473.7c-0.4,0-0.8-0.2-1.2-0.5l-3.2-3c-0.8-0.7-0.8-2-0.1-2.7c0.7-0.8,2-0.8,2.7-0.1l3.2,3
						c0.8,0.7,0.8,2,0.1,2.7C561,473.6,560.4,473.8,559.8,473.7z"/>
				</g>
				<rect x="580.4" y="510.8" class="st21" width="4.7" height="21.7"/>
				<g>
					<path class="st21" d="M570.2,547l-2.1-2.1c-0.3-0.3-0.3-0.9,0-1.2l14.7-14.7l3.3,3.3L571.5,547
						C571.1,547.3,570.6,547.3,570.2,547z"/>
					<path class="st21" d="M595.4,547.1l2.1-2.1c0.3-0.3,0.3-0.9,0-1.2L582.8,529l-3.3,3.3l14.7,14.7
						C594.5,547.4,595.1,547.4,595.4,547.1z"/>
				</g>
				<circle class="st21" cx="582.8" cy="511.4" r="5.6"/>
				<circle class="st21" cx="670.3" cy="463.4" r="5.6"/>
				<circle class="st21" cx="518.7" cy="498.2" r="5.6"/>
				<path class="st2" d="M601.3,496.5h-37.1c-1.9,0-3.4,1.5-3.4,3.4v8.2c0,1.9,1.5,3.4,3.4,3.4h37.1c1.9,0,3.4-1.5,3.4-3.4v-8.2
					C604.7,498,603.2,496.5,601.3,496.5z"/>
				<g>
					<g>
						<rect x="554.5" y="512.3" class="st37" width="8.5" height="32.7"/>
					</g>
					<path class="st38" d="M558.8,536.4v-36.8c0-4.3,3.5-7.7,7.7-7.7h25.9"/>
					<g>
						<g>
							<path class="st24" d="M543.9,544.8l20,0c0.8,0,1.5,0.7,1.5,1.5l0,2.9l0,5c0,0.8-0.6,1.4-1.4,1.4l-20.1,0L543.9,544.8
								C543.9,544.9,543.9,544.9,543.9,544.8z"/>
						</g>
						<g>
							<path class="st14" d="M534.9,553c0.8-3.2,3.1-8,9-8.1l0,10.8l-7,0C535.5,555.6,534.5,554.3,534.9,553z"/>
						</g>
						<g>
							<path class="st20" d="M534.8,553.3l30.3,0c0.8,0,1.4,0.6,1.4,1.4l0,0c0,0.8-0.6,1.4-1.4,1.4l-30.3,0c-0.8,0-1.4-0.6-1.4-1.4
								l0,0C533.4,553.9,534.1,553.3,534.8,553.3z"/>
						</g>
						<g>
							<path class="st39" d="M548.7,549.2l4.8,0c0.7,0,1.2-0.5,1.2-1.2l0-3.2l-7.2,0l0,3.2C547.5,548.7,548,549.2,548.7,549.2z"/>
						</g>
					</g>
				</g>
				<g>
					<g>
						
							<rect x="603.8" y="512.3" transform="matrix(-1 1.813714e-04 -1.813714e-04 -1 1216.2438 1057.2354)" class="st37" width="8.5" height="32.7"/>
					</g>
					<path class="st38" d="M608.1,536.4v-36.8c0-4.3-3.5-7.7-7.7-7.7h-25.9"/>
					<g>
						<g>
							<path class="st24" d="M622.9,544.9l-20,0c-0.8,0-1.5,0.7-1.5,1.5l0,2.9l0,5c0,0.8,0.6,1.4,1.4,1.4l20.1,0L622.9,544.9
								C622.9,544.9,622.9,544.9,622.9,544.9z"/>
						</g>
						<g>
							<path class="st14" d="M632,553c-0.8-3.2-3.1-8-9-8.1l0,10.8l7,0C631.3,555.7,632.3,554.4,632,553z"/>
						</g>
						<g>
							<path class="st20" d="M632,553.3l-30.3,0c-0.8,0-1.4,0.6-1.4,1.4l0,0c0,0.8,0.6,1.4,1.4,1.4l30.3,0c0.8,0,1.4-0.6,1.4-1.4
								l0,0C633.4,554,632.8,553.3,632,553.3z"/>
						</g>
						<g>
							<path class="st39" d="M618.2,549.3l-4.8,0c-0.7,0-1.2-0.5-1.2-1.2l0-3.2l7.2,0l0,3.2C619.3,548.8,618.8,549.3,618.2,549.3z"
								/>
						</g>
					</g>
				</g>
				<path class="st2" d="M566.1,394.2c2,2.4,3.3,5.3,3.9,8.6c1.8,10.2-5.1,19.9-15.3,21.6c0,0,0,0,0,0c-1.7,0.3-2.3,2.5-0.9,3.5
					c4.2,3,9.6,4.4,15.1,3.2c9.1-2,15.4-10.6,14.6-19.9C582.7,401.8,575,394.8,566.1,394.2z"/>
				<g>
					<path class="st40" d="M592.2,424.3l-17.9,0c-5,0-9,4-9,9l1.5,15.1c1.2,11.6,0.7,23.4-1.3,34.9l-0.2,1.3c0,0.8,0.6,1.4,1.4,1.4
						l33,0c0.8,0,1.4-0.6,1.4-1.4v0c-2.3-12.3-2.9-25-1.5-37.5l1.5-13.8C601.3,428.4,597.2,424.3,592.2,424.3z"/>
				</g>
				<g>
					<path class="st37" d="M583.3,429.9L583.3,429.9c-2.5,0-4.5-2-4.5-4.5l0-7.3l9.1,0l0,7.3C587.9,427.9,585.8,429.9,583.3,429.9z"
						/>
				</g>
				<g>
					<g>
						<path class="st2" d="M583.6,363.8L583.6,363.8c-12.7,0-22.9,10.3-22.9,22.9l0,12.7l45.8,0l0-12.7
							C606.5,374,596.2,363.8,583.6,363.8z"/>
					</g>
					<g>
						<circle class="st41" cx="563.7" cy="399.4" r="6.3"/>
					</g>
					<g>
						<circle class="st41" cx="602.9" cy="399.4" r="6.3"/>
					</g>
					<g>
						<path class="st37" d="M563.7,388l0,14.6c0,10.8,8.8,19.6,19.6,19.6h0c10.8,0,19.6-8.8,19.6-19.6l0-14.6l-10.1-9.5L563.7,388z"
							/>
					</g>
					<g>
						<g>
							<path class="st2" d="M571.2,394.7c-0.4,0-0.8-0.3-0.9-0.7c-0.2-0.5,0.1-1.1,0.6-1.2l4.7-1.6c0.5-0.2,1.1,0.1,1.2,0.6
								c0.2,0.5-0.1,1.1-0.6,1.2l-4.7,1.6C571.4,394.7,571.3,394.7,571.2,394.7z"/>
						</g>
						<g>
							<path class="st2" d="M595.4,394.6c-0.1,0-0.2,0-0.3-0.1l-4.7-1.6c-0.5-0.2-0.8-0.7-0.6-1.2c0.2-0.5,0.7-0.8,1.2-0.6l4.7,1.6
								c0.5,0.2,0.8,0.7,0.6,1.2C596.2,394.3,595.8,394.6,595.4,394.6z"/>
						</g>
						<g>
							<path class="st42" d="M579,400.6c-0.5,0-0.9-0.3-1-0.8c-0.3-1.1-1.3-2-2.5-2c-1.2,0-2.2,0.8-2.5,2c-0.1,0.5-0.6,0.9-1.2,0.7
								c-0.5-0.1-0.9-0.6-0.7-1.2c0.5-2.1,2.3-3.5,4.4-3.5s3.9,1.4,4.4,3.5c0.1,0.5-0.2,1.1-0.7,1.2
								C579.1,400.6,579.1,400.6,579,400.6z"/>
						</g>
						<g>
							<path class="st42" d="M594.5,400.6c-0.5,0-0.9-0.3-1-0.8c-0.3-1.1-1.3-2-2.5-2c-1.2,0-2.2,0.8-2.5,2
								c-0.1,0.5-0.6,0.9-1.2,0.7c-0.5-0.1-0.9-0.6-0.7-1.2c0.5-2.1,2.3-3.5,4.4-3.5c2.1,0,3.9,1.4,4.4,3.5c0.1,0.5-0.2,1.1-0.7,1.2
								C594.6,400.6,594.5,400.6,594.5,400.6z"/>
						</g>
					</g>
					<g>
						<g>
							<g>
								<path class="st43" d="M589.2,410.5c0.7,0,1.2,0.6,1.1,1.3c-0.6,3.3-3.5,5.8-6.9,5.8c-3.5,0-6.3-2.5-6.9-5.8
									c-0.1-0.7,0.4-1.3,1.1-1.3L589.2,410.5z"/>
							</g>
							<g>
								<path class="st31" d="M584.6,414.8c-1.6,0.5-2.7,1.6-2.8,2.6c0.5,0.1,1,0.2,1.5,0.2c2,0,3.8-0.8,5.1-2.2
									C587.7,414.6,586.2,414.3,584.6,414.8z"/>
							</g>
						</g>
						<g>
							<path class="st30" d="M589.2,410.5l-11.7,0c-0.7,0-1.2,0.6-1.1,1.3c0.1,0.4,0.2,0.8,0.3,1.2l13.2,0c0.1-0.4,0.3-0.8,0.3-1.2
								C590.4,411.1,589.8,410.5,589.2,410.5z"/>
						</g>
					</g>
				</g>
				<g>
					<g>
						<path class="st37" d="M627.9,391.2c0.1,0,0.1,0,0.2,0.1c2.5,0.9,3.8,3.7,2.9,6.2c-14.7,40.5-33.2,38.4-35.2,38.1l1.7-9.6
							c0,0-0.1,0-0.2,0c0.1,0,12.8,0.7,24.6-31.8C622.7,391.7,625.4,390.4,627.9,391.2z"/>
					</g>
				</g>
				<g>
					<path class="st40" d="M592.5,424.3l12.8-7.6c0.6-0.4,1.4-0.2,1.8,0.4l7.3,12.2c0.4,0.6,0.2,1.4-0.4,1.8l-12.8,7.6
						c-4,2.4-9.1,1.1-11.5-2.9l0,0C587.2,431.9,588.5,426.7,592.5,424.3z"/>
				</g>
				<path class="st2" d="M592.8,371.7l-31.9,12.4c0,0.2,0.1,0.4,0.2,0.6c1.9,5.6,10.7,7.7,19.8,4.7s15-10,13.1-15.6
					C593.7,373,593.3,372.3,592.8,371.7z"/>
				<path class="st2" d="M606.3,387.8l-14.5-11.7c-0.1,0.1-0.2,0.2-0.3,0.3c-2.1,2.4-0.7,7.1,3.1,10.6c3.9,3.5,8.7,4.4,10.9,2
					C605.9,388.6,606.2,388.2,606.3,387.8z"/>
				<path class="st2" d="M562.2,410.4L562.2,410.4c-0.8,0-1.5-0.7-1.5-1.5l0-17.6l3.1,0l0,17.6C563.7,409.7,563,410.4,562.2,410.4z"
					/>
				<path class="st2" d="M604.7,410.4L604.7,410.4c-1,0-1.8-0.8-1.8-1.8l0-17.4l3.6,0l0,17.4C606.5,409.6,605.7,410.4,604.7,410.4z"
					/>
				<g>
					<path class="st44" d="M575.1,456.4l17.1,0c1.3,0,2.3-1,2.3-2.3l0,0c0-1.3-1-2.3-2.3-2.3l-17.1,0c-1.3,0-2.3,1-2.3,2.3l0,0
						C572.8,455.4,573.8,456.4,575.1,456.4z"/>
				</g>
				<g>
					<line class="st7" x1="580" y1="405.6" x2="587.3" y2="405.6"/>
					<path class="st42" d="M587.3,406.8H580c-0.6,0-1.1-0.5-1.1-1.1s0.5-1.1,1.1-1.1h7.3c0.6,0,1.1,0.5,1.1,1.1
						S587.9,406.8,587.3,406.8z"/>
				</g>
				<g>
					<rect x="620.5" y="518.2" class="st21" width="4.7" height="32"/>
					<g>
						<path class="st21" d="M610.3,564.5l-2.1-2.1c-0.3-0.3-0.3-0.9,0-1.2l14.7-14.7l3.3,3.3l-14.7,14.7
							C611.2,564.8,610.7,564.8,610.3,564.5z"/>
						<path class="st21" d="M635.5,564.6l2.1-2.1c0.3-0.3,0.3-0.9,0-1.2l-14.7-14.7l-3.3,3.3l14.7,14.7
							C634.6,564.9,635.2,564.9,635.5,564.6z"/>
					</g>
					<circle class="st21" cx="622.9" cy="518.8" r="5.6"/>
				</g>
				<g>
					
						<rect x="596" y="494.5" transform="matrix(0.9925 -0.1223 0.1223 0.9925 -57.3318 79.795)" class="st24" width="50.5" height="24.8"/>
					<path class="st21" d="M645.5,493.9l-50.9,6.3c-1.4,0.2-2.7-0.8-2.8-2.2l0,0c-0.2-1.4,0.8-2.7,2.2-2.8l50.9-6.3
						c1.4-0.2,2.7,0.8,2.8,2.2l0,0C647.9,492.4,646.9,493.7,645.5,493.9z"/>
					<path class="st45" d="M608.9,503.5l1.1,9.2c0.2,1.4-0.8,2.7-2.2,2.8l0,0c-1.4,0.2-2.7-0.8-2.8-2.2l-1.1-9.2
						c-0.2-1.4,0.8-2.7,2.2-2.8l0,0C607.5,501.1,608.7,502.1,608.9,503.5z"/>
					<path class="st45" d="M623.2,501.7l1.1,9.2c0.2,1.4-0.8,2.7-2.2,2.8l0,0c-1.4,0.2-2.7-0.8-2.8-2.2l-1.1-9.2
						c-0.2-1.4,0.8-2.7,2.2-2.8l0,0C621.8,499.3,623,500.3,623.2,501.7z"/>
					<path class="st45" d="M638.5,500.1l1.1,9.2c0.2,1.4-0.8,2.7-2.2,2.8l0,0c-1.4,0.2-2.7-0.8-2.8-2.2l-1.1-9.2
						c-0.2-1.4,0.8-2.7,2.2-2.8l0,0C637.1,497.7,638.3,498.7,638.5,500.1z"/>
					<path class="st21" d="M648.5,518.3l-50.9,6.3c-1.4,0.2-2.7-0.8-2.8-2.2l0,0c-0.2-1.4,0.8-2.7,2.2-2.8l50.9-6.3
						c1.4-0.2,2.7,0.8,2.8,2.2l0,0C650.9,516.8,649.9,518.1,648.5,518.3z"/>
					<path class="st46" d="M614.5,497.7l-19.9,2.5c-1.4,0.2-2.7-0.8-2.8-2.2l0,0c-0.2-1.4,0.8-2.7,2.2-2.8l19.9-2.5
						c1.4-0.2,2.7,0.8,2.8,2.2l0,0C616.9,496.2,615.9,497.5,614.5,497.7z"/>
				</g>
				<g>
					<path class="st47" d="M623,402.8l-8.6-29.5c-0.2-0.7,0.2-1.4,0.9-1.7c0.7-0.2,1.4,0.2,1.6,0.8l10.6,28.8
						c0.5,1.3-0.2,2.6-1.4,3.1c-1.3,0.5-2.6-0.2-3.1-1.4C623.1,403,623,402.9,623,402.8z"/>
					
						<ellipse transform="matrix(0.9498 -0.3128 0.3128 0.9498 -84.8723 210.8376)" class="st47" cx="614.7" cy="369.9" rx="1.9" ry="2.4"/>
				</g>
				<g>
					<path class="st47" d="M551.5,467.9l26.9,14.8c0.6,0.4,0.9,1.2,0.5,1.8c-0.3,0.6-1.1,0.9-1.7,0.6l-27.9-12.9
						c-1.2-0.6-1.7-2-1.2-3.2c0.6-1.2,2-1.7,3.2-1.2C551.4,467.9,551.4,467.9,551.5,467.9z"/>
					
						<ellipse transform="matrix(0.4504 -0.8928 0.8928 0.4504 -114.1744 785.1166)" class="st47" cx="580.7" cy="485.3" rx="1.9" ry="2.4"/>
				</g>
				<path class="st37" d="M624.7,396.9c0.1,0.4,0.1,0.9-0.1,1.3l-1.8,4c-0.4,1-1.6,1.4-2.6,1c-1-0.4-1.4-1.6-1-2.6l1.8-4
					c0.4-1,1.6-1.4,2.6-1C624.1,395.8,624.5,396.3,624.7,396.9z"/>
				<g>
					<g>
						<path class="st37" d="M551.8,478.9c-0.1,0-0.1,0-0.2,0c-2.7-0.3-4.5-2.8-4.2-5.4c5.4-42.7,23.9-44.8,26-44.9l0.4,9.7
							c0,0,0.1,0,0.2,0c-0.1,0-12.7,2.1-17,36.4C556.7,477.3,554.4,479.2,551.8,478.9z"/>
					</g>
				</g>
				<g>
					<path class="st40" d="M579,438.8l-10.8,10.3c-0.5,0.5-1.3,0.5-1.8,0l-9.8-10.3c-0.5-0.5-0.5-1.3,0-1.8l10.8-10.3
						c3.4-3.2,8.7-3.1,11.9,0.3h0C582.5,430.3,582.4,435.6,579,438.8z"/>
				</g>
				<g>
					<g>
						<path class="st37" d="M589.5,433.3l-12.4,0c-2.5,0-4.5-2-4.5-4.5l0,0c0-2.5,2-4.5,4.5-4.5l12.4,0c2.5,0,4.5,2,4.5,4.5v0
							C594,431.3,592,433.3,589.5,433.3z"/>
					</g>
				</g>
				<g>
					<line class="st48" x1="518.9" y1="469.9" x2="518.9" y2="550.9"/>
					<g>
						<path class="st21" d="M506.3,566.2l-2.1-2.1c-0.3-0.3-0.3-0.9,0-1.2l14.7-14.7l3.3,3.3l-14.7,14.7
							C507.2,566.6,506.7,566.6,506.3,566.2z"/>
						<path class="st21" d="M531.5,566.3l2.1-2.1c0.3-0.3,0.3-0.9,0-1.2l-14.7-14.7l-3.3,3.3l14.7,14.7
							C530.6,566.7,531.2,566.7,531.5,566.3z"/>
					</g>
					<path class="st47" d="M516.5,480.1l-25.3,5.8c-1.7,0.4-1.4,2.9,0.3,2.9h54.8c1.8,0,2-2.5,0.3-2.9l-25.3-5.8
						C519.7,479.8,518.1,479.8,516.5,480.1z"/>
					<path class="st49" d="M521.3,497.6l25.3-5.8c1.7-0.4,1.4-2.9-0.3-2.9h-54.8c-1.8,0-2,2.5-0.3,2.9l25.3,5.8
						C518.1,498,519.7,498,521.3,497.6z"/>
				</g>
				<line class="st48" x1="670.3" y1="447.3" x2="670.3" y2="548.5"/>
				<g>
					<path class="st21" d="M657.8,563.9l-2.1-2.1c-0.3-0.3-0.3-0.9,0-1.2l14.7-14.7l3.3,3.3L659,563.9
						C658.6,564.2,658.1,564.2,657.8,563.9z"/>
					<path class="st21" d="M682.9,563.9l2.1-2.1c0.3-0.3,0.3-0.9,0-1.2l-14.7-14.7l-3.3,3.3l14.7,14.7
						C682,564.3,682.6,564.3,682.9,563.9z"/>
				</g>
				<path class="st47" d="M666.8,453l-31.6,14.4c-2.1,1-1.1,4.2,1.2,3.7l71.8-14.7c2.3-0.5,2-3.9-0.4-3.9l-34.8-0.8
					C670.9,451.7,668.8,452.1,666.8,453z"/>
			</g>
			<g>
				<g>
					<g>
						<g>
							<g>
								<path class="st27" d="M365.3,518.3c-0.1-0.5-0.1-1-0.1-1.5c1.6-64.9,29-70.8,32.2-71.3l2.1,14.5c0,0,0.1,0,0.3-0.1
									c-0.2,0-18.7,5.1-20,57.3c-0.1,4-3.5,7.2-7.5,7.1C368.8,524.2,365.9,521.6,365.3,518.3z"/>
							</g>
							<g>
								<path class="st27" d="M375.5,508.9c-0.1-0.8,0-1.6,0.6-2.3c1-1.3,2.8-1.5,4.1-0.5l5.3,4.1c1.3,1,1.5,2.8,0.5,4.1
									c-1,1.3-2.8,1.5-4.1,0.5l-5.3-4.1C376,510.2,375.6,509.6,375.5,508.9z"/>
							</g>
						</g>
						<path class="st30" d="M394.2,465.5l-15.5-14.6c-1-0.9-1-2.5-0.1-3.5l14.5-15.4c5-5.3,13.2-5.5,18.5-0.6l0,0
							c5.3,5,5.5,13.2,0.6,18.5l-14.5,15.4C396.7,466.4,395.1,466.4,394.2,465.5z"/>
					</g>
					<path class="st50" d="M441.5,569.7h-44.6c-1.9,0-3.4-1.5-3.4-3.4v-54.6c0-1.9,1.5-3.4,3.4-3.4h44.6c1.9,0,3.4,1.5,3.4,3.4v54.6
						C444.9,568.1,443.4,569.7,441.5,569.7z"/>
					<path class="st2" d="M404.4,389.6c0,0-11.6,16.6-17.8,24.6c-0.9,1.2-0.3,2.9,1.2,3.2c9.2,1.8,18.1-6.9,18.1-6.9L404.4,389.6z"
						/>
					<path class="st2" d="M408.4,393.6c0,0-9,18.1-13.9,26.9c-0.7,1.3,0.2,2.9,1.6,3c9.4,0.5,16.8-9.5,16.8-9.5L408.4,393.6z"/>
					<path class="st2" d="M433.2,388.2c0,0,11.6,16.6,17.8,24.6c0.9,1.2,0.3,2.9-1.2,3.2c-9.2,1.8-18.1-6.9-18.1-6.9L433.2,388.2z"
						/>
					<path class="st2" d="M428.9,390.8c0,0,9.3,17.9,14.4,26.7c0.7,1.3-0.1,2.9-1.6,3c-9.4,0.6-17-9.2-17-9.2L428.9,390.8z"/>
					<g>
						<g>
							<g>
								<path class="st27" d="M521.1,468.2c-0.5,0.2-0.9,0.3-1.4,0.3c-64.4,8.7-74.5-17.5-75.5-20.5l14-4.4c0,0,0-0.1-0.1-0.3
									c0.1,0.2,8,17.6,59.7,10.7c4-0.5,7.7,2.3,8.2,6.3C526.4,463.8,524.3,467.1,521.1,468.2z"/>
							</g>
							<g>
								<path class="st27" d="M510.2,459.7c-0.8,0.3-1.6,0.2-2.4-0.2c-1.4-0.8-1.9-2.6-1.2-4l3.2-5.8c0.8-1.4,2.6-1.9,4-1.2
									c1.4,0.8,1.9,2.6,1.2,4l-3.2,5.8C511.4,459,510.8,459.4,510.2,459.7z"/>
							</g>
						</g>
						<path class="st2" d="M504.7,470.5l-0.7-15.6c-0.1-1.2-1-2.1-2.2-2.1l-9.6,0.1c-1.2,0-2.1,1-2.1,2.2l0.5,15.6
							c0,1.2,1.1,2.2,2.3,2.1l9.8-0.1C503.9,472.6,504.8,471.6,504.7,470.5z"/>
						<path class="st30" d="M464.4,448.1l-11.9,17.6c-0.8,1.1-2.3,1.4-3.4,0.6l-17.5-11.9c-6-4.1-7.5-12.2-3.5-18.2v0
							c4.1-6,12.2-7.5,18.2-3.5l17.5,11.9C464.9,445.4,465.2,447,464.4,448.1z"/>
					</g>
					<g>
						<path class="st30" d="M403.9,428.4l29.1,0c6.9,0,12.4,5.6,12.4,12.4l0,63.9c0,2.7-2.2,4.9-4.9,4.9l-44.1,0
							c-2.7,0-4.9-2.2-4.9-4.9l0-63.9C391.5,434,397.1,428.4,403.9,428.4z"/>
					</g>
					<path class="st51" d="M440.7,521.1l0-3c-4-1.2-7.2-4.5-8.3-8.5l-3,0C430.7,515.3,435.1,519.8,440.7,521.1z"/>
					<path class="st51" d="M408.3,509.7l-3,0c-1.1,4.1-4.3,7.3-8.3,8.5l0,3C402.6,519.8,407,515.3,408.3,509.7z"/>
					<g>
						<circle class="st27" cx="393.4" cy="397.2" r="8.3"/>
					</g>
					<g>
						<circle class="st27" cx="444.9" cy="397.2" r="8.3"/>
					</g>
					<g>
						<path class="st27" d="M419.2,440.2L419.2,440.2c3.6,0,6.4-2.9,6.4-6.4l0-10.4l-12.9,0l0,10.4
							C412.7,437.3,415.6,440.2,419.2,440.2z"/>
					</g>
					<path class="st18" d="M393.5,361.7l0,17.9l0,7l0,15.9c0,14.2,11.5,25.7,25.7,25.7h0c14.2,0,25.7-11.5,25.7-25.7l0-15.9l0-7
						l0-17.9L393.5,361.7z"/>
					<g>
						<line class="st27" x1="414.3" y1="403.9" x2="408.7" y2="403.9"/>
						<path class="st28" d="M408.7,405.3l5.6,0c0.8,0,1.4-0.6,1.4-1.4c0-0.8-0.6-1.4-1.4-1.4l-5.6,0c-0.8,0-1.4,0.6-1.4,1.4
							C407.3,404.6,407.9,405.3,408.7,405.3z"/>
					</g>
					<g>
						<g>
							<path class="st2" d="M432.2,389.7c0.1,0,0.3,0,0.4-0.1c0.7-0.2,1-1,0.7-1.6c-0.6-1.6-1.7-2.8-3.3-3.5s-3.2-0.8-4.8-0.2
								c-0.7,0.2-1,1-0.7,1.6c0.2,0.7,1,1,1.6,0.7c0.9-0.3,1.9-0.3,2.9,0.1c0.9,0.4,1.6,1.2,1.9,2.1
								C431.2,389.3,431.7,389.7,432.2,389.7z"/>
						</g>
						<g>
							<path class="st2" d="M398.6,389.6c0.5,0,1-0.3,1.2-0.8c0.7-1.9,2.9-2.9,4.8-2.2c0.7,0.2,1.4-0.1,1.6-0.7
								c0.2-0.7-0.1-1.4-0.7-1.6c-3.2-1.2-6.8,0.5-8,3.7c-0.2,0.7,0.1,1.4,0.7,1.6C398.3,389.6,398.4,389.6,398.6,389.6z"/>
						</g>
					</g>
					<path class="st2" d="M393.8,396.4L393.8,396.4c-1.5,0-2.7-1.2-2.7-2.7l0-29.7l5.3,0l0,29.7
						C396.4,395.2,395.2,396.4,393.8,396.4z"/>
					<path class="st2" d="M443.8,396.4L443.8,396.4c-1.5,0-2.7-1.2-2.7-2.7l0-30.4l5.3,0l0,30.4
						C446.4,395.2,445.2,396.4,443.8,396.4z"/>
					<g>
						<path class="st29" d="M419.5,420.1h-7.3c-1.3,0-2.3-1-2.3-2.3v-9h16.9v4C426.7,416.8,423.5,420.1,419.5,420.1z"/>
						<rect x="409.5" y="408.7" class="st30" width="17.6" height="4.3"/>
						<path class="st31" d="M425.8,416.4c-0.9-0.9-2.1-1.4-3.4-1.4c-2.6,0-4.8,2.1-4.8,4.8c0,0.1,0,0.2,0,0.4h1.9
							C422.2,420.1,424.5,418.6,425.8,416.4z"/>
					</g>
					<path class="st51" d="M440.7,521.1l0-3c-4-1.2-7.2-4.5-8.3-8.5l-3,0C430.7,515.3,435.1,519.8,440.7,521.1z"/>
					<path class="st51" d="M408.3,509.7l-3,0c-1.1,4.1-4.3,7.3-8.3,8.5l0,3C402.6,519.8,407,515.3,408.3,509.7z"/>
					<path class="st2" d="M425.5,427.9c0,0,1.1,20.6-2.8,34.1c-0.7,2.5-1,5.1-0.7,7.7l4.5,38.9c0.2,1.5,1.5,2.7,3,2.7h9.6
						c4.8,0,8.7-3.9,8.7-8.7v-50.8l-15-23.9L425.5,427.9z"/>
					<path class="st2" d="M412.9,427.9c0,0-1.1,20.6,2.8,34.1c0.7,2.5,1,5.1,0.7,7.7l-4.5,38.9c-0.2,1.5-1.5,2.7-3,2.7h-9.6
						c-4.8,0-8.7-3.9-8.7-8.7l0.9-38.4l14.1-36.3L412.9,427.9z"/>
					<path class="st2" d="M418.8,360.9c0,0,5.3,31.9,44.1,27.6c1.5-0.2,2.4-1.8,1.7-3.1c-7.3-14.3-12.8-41.9-45.1-36.4
						C410.7,354.3,418.8,360.9,418.8,360.9z"/>
					<path class="st2" d="M423.3,357.9c0,0-5.1,31.2-43.2,26.8c-1.3-0.2-2.1-1.6-1.5-2.8c7.1-13.9,12.4-41,43.9-35.5
						C431.1,351.5,423.3,357.9,423.3,357.9z"/>
					<path class="st2" d="M392.6,371.7c0,0-10,17.6-15.4,26.1c-0.8,1.3,0,2.9,1.5,3.1c9.3,1,17.3-8.6,17.3-8.6L392.6,371.7z"/>
					<path class="st2" d="M445.3,372.9c0,0,10,17.6,15.4,26.1c0.8,1.3,0,2.9-1.5,3.1c-9.3,1-17.3-8.6-17.3-8.6L445.3,372.9z"/>
					<path class="st52" d="M428.2,508.6c0-5.3-4.2-7.5-9.3-7.5c-5.1,0-9.3,2.2-9.3,7.5s4.2,9.6,9.3,9.6
						C424,518.2,428.2,513.9,428.2,508.6z"/>
					<g>
						<rect x="397.9" y="507.1" class="st22" width="38.7" height="14.5"/>
						<g>
							<g>
								<path class="st2" d="M366.8,601.1c13.9,0,32.8,0,32.8,0l0,0.2l0,14.2c0,1.2-1,2.2-2.2,2.2l-31,0l0-16.6
									C366.6,601.1,366.7,601.1,366.8,601.1z"/>
							</g>
							<g>
								<path class="st20" d="M352.6,613.7c1.3-4.9,4.8-12.4,13.9-12.5l0,16.6l-10.8,0C353.6,617.7,352,615.7,352.6,613.7z"/>
							</g>
							<g>
								<path class="st21" d="M352.5,614.1l46.7,0c1.2,0,2.1,1,2.1,2.1l0,0c0,1.2-1,2.1-2.1,2.1l-46.7,0c-1.2,0-2.1-1-2.1-2.1l0,0
									C350.4,615.1,351.3,614.1,352.5,614.1z"/>
							</g>
							<g>
								<path class="st20" d="M375.2,607.9l10.6,0c1,0,1.8-0.8,1.8-1.8l0-5l-14.3,0l0,5C373.4,607.1,374.2,607.9,375.2,607.9z"/>
							</g>
						</g>
						<rect x="397.9" y="507.1" class="st22" width="38.7" height="14.5"/>
						<g>
							<g>
								<g>
									<path class="st2" d="M468.3,601.1c-13.9,0-32.8,0-32.8,0l0,0.2l0,14.2c0,1.2,1,2.2,2.2,2.2l31,0l0-16.6
										C468.5,601.1,468.4,601.1,468.3,601.1z"/>
								</g>
								<g>
									<path class="st20" d="M482.5,613.7c-1.3-4.9-4.8-12.4-13.9-12.5l0,16.6l10.8,0C481.5,617.7,483.1,615.7,482.5,613.7z"/>
								</g>
								<g>
									<path class="st21" d="M482.6,614.1l-46.7,0c-1.2,0-2.1,1-2.1,2.1l0,0c0,1.2,1,2.1,2.1,2.1l46.7,0c1.2,0,2.1-1,2.1-2.1l0,0
										C484.8,615.1,483.8,614.1,482.6,614.1z"/>
								</g>
								<g>
									<path class="st20" d="M459.9,607.9l-10.6,0c-1,0-1.8-0.8-1.8-1.8l0-5l14.3,0l0,5C461.7,607.1,460.9,607.9,459.9,607.9z"/>
								</g>
							</g>
							<g>
								<g>
									<polygon class="st22" points="458.2,601 435.6,601 418.4,507 441,507 									"/>
								</g>
								<path class="st51" d="M428.9,507.1l3.7,0c1.4,5,5.3,9,10.3,10.6l0.7,3.9C436.7,519.9,430.5,514.1,428.9,507.1z"/>
							</g>
						</g>
						<g>
							<g>
								<polygon class="st22" points="377,601 399.5,601 416.7,507 394.2,507 								"/>
							</g>
							<path class="st51" d="M406.3,507.1l-3.7,0c-1.4,5-5.3,9-10.3,10.6l-0.7,3.9C398.5,519.9,404.7,514.1,406.3,507.1z"/>
						</g>
						<g>
							<g>
								<path class="st2" d="M366.8,601.1c13.9,0,32.8,0,32.8,0l0,0.2l0,14.2c0,1.2-1,2.2-2.2,2.2l-31,0l0-16.6
									C366.6,601.1,366.7,601.1,366.8,601.1z"/>
							</g>
							<g>
								<path class="st20" d="M352.6,613.7c1.3-4.9,4.8-12.4,13.9-12.5l0,16.6l-10.8,0C353.6,617.7,352,615.7,352.6,613.7z"/>
							</g>
							<g>
								<path class="st21" d="M352.5,614.1l46.7,0c1.2,0,2.1,1,2.1,2.1l0,0c0,1.2-1,2.1-2.1,2.1l-46.7,0c-1.2,0-2.1-1-2.1-2.1l0,0
									C350.4,615.1,351.3,614.1,352.5,614.1z"/>
							</g>
							<g>
								<path class="st20" d="M375.2,607.9l10.6,0c1,0,1.8-0.8,1.8-1.8l0-5l-14.3,0l0,5C373.4,607.1,374.2,607.9,375.2,607.9z"/>
							</g>
						</g>
					</g>
					<path class="st53" d="M440.2,515.9h-41.6c-3.6,0-6.6-3-6.6-6.6v0c0-3.6,3-6.6,6.6-6.6h41.6c3.6,0,6.6,3,6.6,6.6v0
						C446.8,512.9,443.8,515.9,440.2,515.9z"/>
					<g>
						<path class="st54" d="M447.6,530.1l-6.4,3.2c-0.4,0.2-0.8,0-1-0.3l-2-3.9c-0.2-0.4,0-0.8,0.3-1l6.4-3.2c0.4-0.2,0.8,0,1,0.3
							l2,3.9C448.1,529.5,448,529.9,447.6,530.1z"/>
						<g>
							<path class="st55" d="M436.8,529.1c-7.4-13.2-15.1-14.2-15.2-14.2l0.5-10.8c1.4,0.1,13.8,1.2,24.1,19.8
								c0.5,0.8,0.1,1.9-0.7,2.3l-6.6,3.4C438.2,530.2,437.3,529.9,436.8,529.1z"/>
						</g>
					</g>
					<g>
						<path class="st54" d="M389.4,531l6.4,3.2c0.4,0.2,0.8,0,1-0.3l2-3.9c0.2-0.4,0-0.8-0.3-1l-6.4-3.2c-0.4-0.2-0.8,0-1,0.3
							l-2,3.9C388.9,530.3,389,530.8,389.4,531z"/>
						<g>
							<path class="st55" d="M400.2,529.9c7.3-13.2,15-14.2,15.1-14.2l-0.6-10.8c-1.4,0.1-13.8,1.3-24.1,19.9
								c-0.5,0.8-0.1,1.9,0.7,2.3l6.6,3.4C398.8,531,399.8,530.7,400.2,529.9z"/>
						</g>
					</g>
					<line class="st56" x1="405.3" y1="502.9" x2="393.4" y2="500.8"/>
					<g>
						<g>
							<path class="st24" d="M460.4,505c6.2,2,12.9-1.3,14.9-7.5c2-6.2-1.3-12.9-7.5-14.9l-4.2-1.4c-5.6-1.8-8.2-8.3-5.6-13.5
								c1.6-3.2,0.4-7.2-2.8-8.8c-3.2-1.6-7.2-0.4-8.8,2.8l-0.2,0.4c-2.1,4.1-6.7,6.1-11.2,5c-10-2.3-20.6-1.5-27.6,6.9
								c-5.7,6.8-6.7,16.6-4.2,24.9c3.7,12.8,15.2,25.4,29.6,23c8-1.3,14.3-7.3,18.7-13.9C453.3,505.2,457,503.9,460.4,505z"/>
							<path class="st7" d="M445.1,493.8l-5.1-12.3c-0.7-1.8,0.1-3.9,1.9-4.6l0,0c1.8-0.7,3.9,0.1,4.6,1.9l5.1,12.3
								c0.7,1.8-0.1,3.9-1.9,4.6l0,0C447.9,496.5,445.8,495.6,445.1,493.8z"/>
							<path class="st7" d="M423.6,505.2l-6.8-16.6c-0.3-0.6,0-1.3,0.7-1.6l0,0c0.6-0.3,1.3,0,1.6,0.7l6.8,16.6
								c0.3,0.6,0,1.3-0.7,1.6l0,0C424.6,506.1,423.9,505.8,423.6,505.2z"/>
							<path class="st25" d="M432.1,500.4l-5.9-14.4c-0.5-1.2,0.1-2.6,1.3-3.1l3.6-1.5c1.2-0.5,2.6,0.1,3.1,1.3l5.9,14.4
								c0.5,1.2-0.1,2.6-1.3,3.1l-3.6,1.5C434,502.2,432.6,501.7,432.1,500.4z"/>
							<path class="st26" d="M538.1,453.6l-3.8-9.2c-0.6-1.5-2.3-2.2-3.8-1.6l-15.3,6.3c-1,0.4-1.9,1.2-2.5,2.1l-1.3,2.1
								c-0.6,0.9-1.4,1.7-2.5,2.1L447.4,481l3.3,8l61.6-25.4c1-0.4,2.2-0.5,3.3-0.2l2.4,0.6c1.1,0.3,2.2,0.2,3.3-0.2l15.3-6.3
								C538,456.8,538.7,455.1,538.1,453.6z"/>
							<g>
								<path class="st57" d="M521.8,465.8L521.8,465.8c-0.3-0.6,0-1.4,0.7-1.7l1.2-0.5c0.6-0.3,1.4,0,1.7,0.7l0,0
									c0.3,0.6,0,1.4-0.7,1.7l-1.2,0.5C522.8,466.8,522,466.5,521.8,465.8z"/>
								<path class="st57" d="M527.8,463.3L527.8,463.3c-0.3-0.6,0-1.4,0.7-1.7l1.2-0.5c0.6-0.3,1.4,0,1.7,0.7v0
									c0.3,0.6,0,1.4-0.7,1.7l-1.2,0.5C528.8,464.3,528,464,527.8,463.3z"/>
								<path class="st57" d="M533.8,460.9L533.8,460.9c-0.3-0.6,0-1.4,0.7-1.7l1.2-0.5c0.6-0.3,1.4,0,1.7,0.7l0,0
									c0.3,0.6,0,1.4-0.7,1.7l-1.2,0.5C534.8,461.8,534,461.5,533.8,460.9z"/>
							</g>
							<g>
								<path class="st57" d="M514.1,447.2L514.1,447.2c-0.3-0.6,0-1.4,0.7-1.7l1.2-0.5c0.6-0.3,1.4,0,1.7,0.7l0,0
									c0.3,0.6,0,1.4-0.7,1.7l-1.2,0.5C515.1,448.1,514.3,447.8,514.1,447.2z"/>
								<path class="st57" d="M520.1,444.7L520.1,444.7c-0.3-0.6,0-1.4,0.7-1.7l1.2-0.5c0.6-0.3,1.4,0,1.7,0.7l0,0
									c0.3,0.6,0,1.4-0.7,1.7l-1.2,0.5C521.1,445.6,520.3,445.3,520.1,444.7z"/>
								<path class="st57" d="M526.1,442.2L526.1,442.2c-0.3-0.6,0-1.4,0.7-1.7l1.2-0.5c0.6-0.3,1.4,0,1.7,0.7l0,0
									c0.3,0.6,0,1.4-0.7,1.7l-1.2,0.5C527.1,443.2,526.3,442.9,526.1,442.2z"/>
							</g>
						</g>
						<g>
							<path class="st58" d="M460.4,505c6.2,2,12.9-1.3,14.9-7.5c2-6.2-1.3-12.9-7.5-14.9l-4.2-1.4c-5.6-1.8-8.2-8.3-5.6-13.5
								c1.6-3.2,0.4-7.2-2.8-8.8c-3.2-1.6-7.2-0.4-8.8,2.8l-0.2,0.4c-2.1,4.1-6.7,6.1-11.2,5c-10-2.3-20.6-1.5-27.6,6.9
								c-5.7,6.8-6.7,16.6-4.2,24.9c3.7,12.8,15.2,25.4,29.6,23c8-1.3,14.3-7.3,18.7-13.9C453.3,505.2,457,503.9,460.4,505z"/>
							<path class="st7" d="M445.1,493.8l-5.1-12.3c-0.7-1.8,0.1-3.9,1.9-4.6l0,0c1.8-0.7,3.9,0.1,4.6,1.9l5.1,12.3
								c0.7,1.8-0.1,3.9-1.9,4.6l0,0C447.9,496.5,445.8,495.6,445.1,493.8z"/>
							<path class="st7" d="M423.6,505.2l-6.8-16.6c-0.3-0.6,0-1.3,0.7-1.6l0,0c0.6-0.3,1.3,0,1.6,0.7l6.8,16.6
								c0.3,0.6,0,1.3-0.7,1.6l0,0C424.6,506.1,423.9,505.8,423.6,505.2z"/>
							<path class="st25" d="M432.1,500.4l-5.9-14.4c-0.5-1.2,0.1-2.6,1.3-3.1l3.6-1.5c1.2-0.5,2.6,0.1,3.1,1.3l5.9,14.4
								c0.5,1.2-0.1,2.6-1.3,3.1l-3.6,1.5C434,502.2,432.6,501.7,432.1,500.4z"/>
							<path class="st26" d="M538.1,453.6l-3.8-9.2c-0.6-1.5-2.3-2.2-3.8-1.6l-15.3,6.3c-1,0.4-1.9,1.2-2.5,2.1l-1.3,2.1
								c-0.6,0.9-1.4,1.7-2.5,2.1L447.4,481l3.3,8l61.6-25.4c1-0.4,2.2-0.5,3.3-0.2l2.4,0.6c1.1,0.3,2.2,0.2,3.3-0.2l15.3-6.3
								C538,456.8,538.7,455.1,538.1,453.6z"/>
							<g>
								<path class="st57" d="M521.8,465.8L521.8,465.8c-0.3-0.6,0-1.4,0.7-1.7l1.2-0.5c0.6-0.3,1.4,0,1.7,0.7l0,0
									c0.3,0.6,0,1.4-0.7,1.7l-1.2,0.5C522.8,466.8,522,466.5,521.8,465.8z"/>
								<path class="st57" d="M527.8,463.3L527.8,463.3c-0.3-0.6,0-1.4,0.7-1.7l1.2-0.5c0.6-0.3,1.4,0,1.7,0.7v0
									c0.3,0.6,0,1.4-0.7,1.7l-1.2,0.5C528.8,464.3,528,464,527.8,463.3z"/>
								<path class="st57" d="M533.8,460.9L533.8,460.9c-0.3-0.6,0-1.4,0.7-1.7l1.2-0.5c0.6-0.3,1.4,0,1.7,0.7l0,0
									c0.3,0.6,0,1.4-0.7,1.7l-1.2,0.5C534.8,461.8,534,461.5,533.8,460.9z"/>
							</g>
							<g>
								<path class="st57" d="M514.1,447.2L514.1,447.2c-0.3-0.6,0-1.4,0.7-1.7l1.2-0.5c0.6-0.3,1.4,0,1.7,0.7l0,0
									c0.3,0.6,0,1.4-0.7,1.7l-1.2,0.5C515.1,448.1,514.3,447.8,514.1,447.2z"/>
								<path class="st57" d="M520.1,444.7L520.1,444.7c-0.3-0.6,0-1.4,0.7-1.7l1.2-0.5c0.6-0.3,1.4,0,1.7,0.7l0,0
									c0.3,0.6,0,1.4-0.7,1.7l-1.2,0.5C521.1,445.6,520.3,445.3,520.1,444.7z"/>
								<path class="st57" d="M526.1,442.2L526.1,442.2c-0.3-0.6,0-1.4,0.7-1.7l1.2-0.5c0.6-0.3,1.4,0,1.7,0.7l0,0
									c0.3,0.6,0,1.4-0.7,1.7l-1.2,0.5C527.1,443.2,526.3,442.9,526.1,442.2z"/>
							</g>
						</g>
						<line class="st56" x1="453.6" y1="462.1" x2="434.5" y2="430.5"/>
						<circle class="st7" cx="455.1" cy="460" r="2.1"/>
					</g>
					<g>
						<g>
							<circle class="st2" cx="428" cy="394.2" r="2.6"/>
						</g>
						<g>
							<circle class="st2" cx="403.4" cy="394.2" r="2.6"/>
						</g>
					</g>
				</g>
				<g>
					<g>
						<g>
							<rect x="319.6" y="531.8" class="st2" width="6.2" height="87.1"/>
							<rect x="319.6" y="531.8" class="st3" width="6.2" height="4.6"/>
						</g>
						<path class="st2" d="M343,630.3h-40.5c-0.7,0-1.2-0.6-1.2-1.2v-1.5c0-4.7,3.8-8.6,8.6-8.6h25.8c4.7,0,8.6,3.8,8.6,8.6v1.5
							C344.2,629.7,343.7,630.3,343,630.3z"/>
						<g>
							<path class="st2" d="M342.4,531.8h-39.3c-3.5,0-6.4-2.9-6.4-6.4v-53.3c0-3.5,2.9-6.4,6.4-6.4h39.3c3.5,0,6.4,2.9,6.4,6.4
								v53.3C348.8,529,345.9,531.8,342.4,531.8z"/>
							<path class="st59" d="M303.5,522.2v-46.8c0-0.3,0.2-0.5,0.5-0.5h37.5c0.3,0,0.5,0.2,0.5,0.5v46.8c0,0.3-0.2,0.5-0.5,0.5H304
								C303.7,522.7,303.5,522.5,303.5,522.2z"/>
							<circle class="st3" cx="322.7" cy="527.7" r="1.6"/>
						</g>
					</g>
					<path class="st7" d="M322.8,488c-8.5,0-10.7,2.1-10.7,10.6c0,8.5,2.1,10.7,10.6,10.7c8.5,0,10.7-2.1,10.7-10.6
						C333.4,490.2,331.3,488.1,322.8,488z M327.5,501L327.5,501c0,0.8-0.9,1.5-2.1,1.7c-1.2,0.1-2.3-0.4-2.4-1.2
						c-0.1-0.8,0.8-1.6,2.1-1.7c0.4,0,0.8,0,1.1,0.1l0-3.9l-5.4,1.7l0,4.9l0,0c-0.1,0.7-0.9,1.3-2,1.5c-1.2,0.1-2.3-0.4-2.4-1.2
						c-0.1-0.8,0.8-1.6,2.1-1.7c0.4,0,0.8,0,1.1,0.1l0-4.5c0-0.2,0.1-0.6,0.3-0.7c1.1-0.4,6.6-2.1,7.3-2.3c0.2,0,0.4,0.2,0.4,0.3
						L327.5,501z"/>
				</g>
			</g>
		</g>
	</g>
	<g>
		<defs>
			<path id="SVGID_31_" d="M0.6,289.4v255.9c0,12.3,10,22.2,22.2,22.2h124.6c7,0,13.6-3.3,17.8-8.9l158.6-212.4
				c10-13.5,2.1-32.8-14.4-35.3L26.2,267.4C12.7,265.3,0.6,275.7,0.6,289.4z"/>
		</defs>
		<clipPath id="SVGID_7_">
			<use xlink:href="#SVGID_31_"  style="overflow:visible;"/>
		</clipPath>
		<g class="st60">
			<g>
				<g>
					<path class="st7" d="M264.6,400.4h-7.9c-0.2-0.3-0.3-0.6-0.5-0.9c0.4-1.3,0.6-2.7,0.6-4.2c0-8.2-6.6-14.8-14.8-14.8
						c-4.2,0-8,1.8-10.7,4.6c-2-6.6-8.1-11.4-15.3-11.4c-1.8,0-3.5,0.3-5.2,0.9c-3.1-6.4-9.7-10.7-17.2-10.7
						c-10.6,0-19.2,8.6-19.2,19.2c0,2.5,0.5,4.9,1.4,7.2c-3.5,1.8-6.5,4.3-8.9,7.3c-1.8-0.7-3.8-1.1-5.8-1.1
						c-4.1,0-7.8,1.5-10.6,3.9h-7.1c-2.7,0-4.9,2.2-4.9,4.9c0,2.7,2.2,4.9,4.9,4.9h121.3c2.7,0,4.9-2.2,4.9-4.9
						C269.5,402.6,267.3,400.4,264.6,400.4z"/>
				</g>
				<g>
					<path class="st7" d="M27,335.3H32c0.1-0.2,0.2-0.4,0.3-0.6c-0.2-0.8-0.4-1.7-0.4-2.7c0-5.3,4.3-9.5,9.5-9.5
						c2.7,0,5.1,1.1,6.9,2.9c1.3-4.2,5.2-7.3,9.8-7.3c1.2,0,2.3,0.2,3.3,0.6c2-4.1,6.2-6.9,11.1-6.9c6.8,0,12.3,5.5,12.3,12.3
						c0,1.6-0.3,3.2-0.9,4.6c2.2,1.2,4.2,2.8,5.7,4.7c1.2-0.4,2.4-0.7,3.7-0.7c2.6,0,5,1,6.8,2.5h4.5c1.7,0,3.1,1.4,3.1,3.1
						c0,1.7-1.4,3.1-3.1,3.1H27c-1.7,0-3.1-1.4-3.1-3.1C23.9,336.7,25.3,335.3,27,335.3z"/>
				</g>
				<g>
					<path class="st61" d="M207.2,420.3h33.1c0.8,0,1.5-0.7,1.5-1.5v-36.5c0-0.3-0.1-0.7-0.3-0.9l-16.4-10.3c-0.6-0.7-1.7-0.7-2.3,0
						L206,381.4c-0.2,0.3-0.3,0.6-0.3,0.9v36.5C205.7,419.7,206.4,420.3,207.2,420.3z"/>
					<path class="st62" d="M244,384.3l-18.7-13.3c-0.7-0.8-1.9-0.9-2.6,0l-19.2,13.3"/>
					<path class="st61" d="M180.1,427.4l43.4-26c0.3-0.2,0.7-0.2,1,0l43.4,26c0.3,0.2,0.5,0.5,0.5,0.8v27.6c0,0.5-0.4,1-1,1h-86.8
						c-0.5,0-1-0.4-1-1v-27.6C179.6,427.9,179.8,427.6,180.1,427.4z"/>
					<polygon class="st63" points="224,402.7 268.4,429.2 268.4,434.3 224,407.7 179.6,434.3 179.6,429.2 					"/>
					<path class="st62" d="M174.2,429l49.2-29.5c0.4-0.2,0.8-0.2,1.1,0l49.2,29.5"/>
					<path class="st64" d="M203.3,433.5l19.7-11.6c0.3-0.2,0.7-0.2,1,0l20.6,11.6c0.3,0.2,0.5,0.5,0.5,0.9v21.5c0,0.5-0.4,1-1,1
						h-40.3c-0.5,0-1-0.4-1-1v-21.5C202.9,434,203,433.7,203.3,433.5z"/>
					<path class="st65" d="M224,445.2L224,445.2c2.2,0,3.9,1.8,3.9,3.9v7.8h-7.9v-7.8C220.1,447,221.8,445.2,224,445.2z"/>
					<polygon class="st66" points="223.5,422.9 245.1,435.2 245.1,439.1 223.5,426.9 202.9,439 202.9,435.1 					"/>
					<g>
						<path class="st7" d="M223.4,440.2h1.3c0.5,0,0.8-0.4,0.8-0.8v-8.6c0-0.5-0.4-0.8-0.8-0.8h-1.3c-0.5,0-0.8,0.4-0.8,0.8v8.6
							C222.5,439.9,222.9,440.2,223.4,440.2z"/>
						<path class="st7" d="M219.8,433.6v1.3c0,0.5,0.4,0.8,0.8,0.8h6.8c0.5,0,0.8-0.4,0.8-0.8v-1.3c0-0.5-0.4-0.8-0.8-0.8h-6.8
							C220.1,432.7,219.8,433.1,219.8,433.6z"/>
					</g>
					<path class="st62" d="M198.7,434.7l24.1-14.2c0.4-0.2,0.8-0.2,1.2,0l25.2,14.2"/>
					<path class="st67" d="M194.3,448.3h2.3c0.6,0,1.1-0.5,1.1-1.1v-0.7c0-0.6-0.5-1.1-1.1-1.1h-2.3c-0.6,0-1.1,0.5-1.1,1.1v0.7
						C193.2,447.9,193.7,448.3,194.3,448.3z"/>
					<path class="st67" d="M260.1,451.6h2.3c0.6,0,1.1-0.5,1.1-1.1v-0.7c0-0.6-0.5-1.1-1.1-1.1h-2.3c-0.6,0-1.1,0.5-1.1,1.1v0.7
						C259,451.1,259.5,451.6,260.1,451.6z"/>
					<path class="st68" d="M187.3,451.6h2.3c0.6,0,1.1-0.5,1.1-1.1v-0.7c0-0.6-0.5-1.1-1.1-1.1h-2.3c-0.6,0-1.1,0.5-1.1,1.1v0.7
						C186.2,451.1,186.7,451.6,187.3,451.6z"/>
					<path class="st68" d="M255.6,446.9h2.3c0.6,0,1.1-0.5,1.1-1.1V445c0-0.6-0.5-1.1-1.1-1.1h-2.3c-0.6,0-1.1,0.5-1.1,1.1v0.7
						C254.5,446.4,255,446.9,255.6,446.9z"/>
					<path class="st69" d="M219.8,381.3h8.5c0.8,0,1.5,0.7,1.5,1.5v8.5c0,0.8-0.7,1.5-1.5,1.5h-8.5c-0.8,0-1.5-0.7-1.5-1.5v-8.5
						C218.3,382,219,381.3,219.8,381.3z"/>
					<path class="st70" d="M221.2,388.3L221.2,388.3l0.1-2c0-1.5,1.2-2.6,2.6-2.6s2.6,1.2,2.6,2.6v2h0.1c0.5,0,1,0.4,1,1
						c0,0.5-0.4,1-1,1h-5.5c-0.5,0-1-0.4-1-1C220.3,388.8,220.7,388.3,221.2,388.3z"/>
				</g>
			</g>
			<rect x="-0.7" y="456.4" class="st71" width="267.8" height="117.9"/>
			<path class="st72" d="M149.2,457c-0.3-0.3-0.4-0.5-0.7-0.9c0.3-1.7,1.8-3,3.6-3c0.2,0,0.4,0,0.6,0.1c1.3-3.5,4.7-6.1,8.7-6.1
				c3.2,0,6,1.6,7.7,4c1-0.5,2.1-0.8,3.3-0.8c1.1,0,2.2,0.3,3.2,0.8c0.8-3.1,3.5-5.3,6.9-5.3c1.4,0,2.7,0.4,3.9,1.1
				c0.7-1.3,2.2-2.1,3.8-1.9c1.6,0.2,2.8,1.5,3.1,3c0.1,0.9,0,1.7-0.4,2.4c1.7,0.4,3.1,1.5,4,3c0.5-0.2,1-0.4,1.6-0.4
				c2.1,0,3.8,1.8,3.7,3.9c0,0,0,0,0,0H149.2z"/>
			<g>
				<g>
					<path class="st73" d="M143.5,444.9h1.4c0.5,0,1-0.4,1-1v-0.4c0-0.5-0.4-1-1-1h-1.4c-0.5,0-1,0.4-1,1v0.4
						C142.5,444.4,143,444.9,143.5,444.9z"/>
					<path class="st73" d="M166.1,444.9h1.4c0.5,0,1-0.4,1-1v-0.4c0-0.5-0.4-1-1-1h-1.4c-0.5,0-1,0.4-1,1v0.4
						C165.1,444.4,165.6,444.9,166.1,444.9z"/>
					<path class="st74" d="M148.9,454.1H162c0.5,0,0.8-0.4,0.8-0.8l0,0c0-0.5-0.4-0.8-0.8-0.8h-13.1c-0.5,0-0.8,0.4-0.8,0.8l0,0
						C148,453.7,148.4,454.1,148.9,454.1z"/>
					<path class="st2" d="M162.8,457h3c0.3,0,0.5-0.2,0.5-0.5v-4.7h-4v4.7C162.3,456.7,162.5,457,162.8,457z"/>
					<path class="st2" d="M144.9,457h3c0.3,0,0.5-0.2,0.5-0.5v-4.7h-4v4.7C144.4,456.7,144.6,457,144.9,457z"/>
					<g>
						
							<linearGradient id="SVGID_8_" gradientUnits="userSpaceOnUse" x1="2462.3809" y1="433.4285" x2="2462.3809" y2="455.4599" gradientTransform="matrix(-1 0 0 1 2617.9548 0)">
							<stop  offset="0" style="stop-color:#2194F4;stop-opacity:0.5"/>
							<stop  offset="1" style="stop-color:#2194F4;stop-opacity:0"/>
						</linearGradient>
						<path class="st75" d="M148,446.1h15.2c0.9,0,1.6-0.9,1.4-1.8l-1.2-5.6c-0.1-0.7-0.7-1.2-1.4-1.2h-12.7c-0.7,0-1.3,0.5-1.4,1.2
							l-1.2,5.6C146.4,445.3,147.1,446.1,148,446.1z"/>
						<path class="st76" d="M146,446.2c0.5,0.6,1.2,1,2,1h15.2c0.8,0,1.5-0.3,2-1c0.5-0.6,0.7-1.4,0.5-2.1l-1.2-5.6
							c-0.3-1.2-1.3-2-2.5-2h-12.7c-1.2,0-2.2,0.8-2.5,2l-1.2,5.6C145.3,444.8,145.5,445.6,146,446.2z M146.5,444.3l1.2-5.6
							c0.1-0.7,0.7-1.2,1.4-1.2h12.7c0.7,0,1.3,0.5,1.4,1.2l1.2,5.6c0.2,0.9-0.5,1.8-1.4,1.8H148C147,446.1,146.3,445.2,146.5,444.3
							z"/>
						<path class="st47" d="M145.2,451.3h20.2c0.8,0,1.4-0.6,1.4-1.4v-3.2c0-1.5-1.2-2.7-2.7-2.7h-17.5c-1.5,0-2.7,1.2-2.7,2.7v3.2
							C143.8,450.7,144.5,451.3,145.2,451.3z"/>
						<g>
							<circle class="st73" cx="162.6" cy="447.8" r="2.1"/>
							<circle class="st77" cx="162.6" cy="447.8" r="1.3"/>
						</g>
						<g>
							<circle class="st73" cx="148" cy="447.8" r="2.1"/>
							<circle class="st77" cx="148" cy="447.8" r="1.3"/>
						</g>
						<path class="st78" d="M156.7,451.1c0,0,0,0.1,0,0.1H154c0,0,0-0.1,0-0.1c0-3.6-2.7-6.6-6.2-7v-0.3c0-0.6,0.5-1,1-1h12.9
							c0.6,0,1,0.5,1,1v0.3C159.4,444.6,156.7,447.5,156.7,451.1z"/>
						<path class="st79" d="M151.6,451.7h7.4c0.5,0,0.8-0.4,0.8-0.8v-2.4c0-0.5-0.4-0.8-0.8-0.8h-7.4c-0.5,0-0.8,0.4-0.8,0.8v2.4
							C150.7,451.3,151.1,451.7,151.6,451.7z"/>
						<g>
							<circle class="st77" cx="155.3" cy="449.1" r="1"/>
							<g>
								<path class="st77" d="M156.6,449.6h0.7c0.5,0,0.9-0.4,0.9-0.9v0h-1.6V449.6z"/>
								<path class="st77" d="M154,449.6h-0.7c-0.5,0-0.9-0.4-0.9-0.9v0h1.6V449.6z"/>
							</g>
						</g>
						<path class="st21" d="M144,453.2h22.8c0.3,0,0.6-0.3,0.6-0.6V451c0-0.3-0.3-0.6-0.6-0.6H144c-0.3,0-0.6,0.3-0.6,0.6v1.6
							C143.4,452.9,143.7,453.2,144,453.2z"/>
					</g>
					<path class="st74" d="M148.9,454.1H162c0.5,0,0.8-0.4,0.8-0.8l0,0c0-0.5-0.4-0.8-0.8-0.8h-13.1c-0.5,0-0.8,0.4-0.8,0.8l0,0
						C148,453.7,148.4,454.1,148.9,454.1z"/>
					<path class="st2" d="M162.8,457h3c0.3,0,0.5-0.2,0.5-0.5v-4.7h-4v4.7C162.3,456.7,162.5,457,162.8,457z"/>
					<path class="st2" d="M144.9,457h3c0.3,0,0.5-0.2,0.5-0.5v-4.7h-4v4.7C144.4,456.7,144.6,457,144.9,457z"/>
					<g>
						
							<linearGradient id="SVGID_9_" gradientUnits="userSpaceOnUse" x1="2462.1392" y1="439.6337" x2="2462.1392" y2="461.6651" gradientTransform="matrix(-1 0 0 1 2617.9548 0)">
							<stop  offset="0" style="stop-color:#2194F4;stop-opacity:0.5"/>
							<stop  offset="1" style="stop-color:#2194F4;stop-opacity:0"/>
						</linearGradient>
						<path class="st80" d="M148.2,452.4h15.2c0.9,0,1.6-0.9,1.4-1.8l-1.2-5.6c-0.1-0.7-0.7-1.2-1.4-1.2h-12.7
							c-0.7,0-1.3,0.5-1.4,1.2l-1.2,5.6C146.6,451.5,147.3,452.4,148.2,452.4z"/>
						<path class="st76" d="M146,446.2c0.5,0.6,1.2,1,2,1h15.2c0.8,0,1.5-0.3,2-1c0.5-0.6,0.7-1.4,0.5-2.1l-1.2-5.6
							c-0.3-1.2-1.3-2-2.5-2h-12.7c-1.2,0-2.2,0.8-2.5,2l-1.2,5.6C145.3,444.8,145.5,445.6,146,446.2z M146.5,444.3l1.2-5.6
							c0.1-0.7,0.7-1.2,1.4-1.2h12.7c0.7,0,1.3,0.5,1.4,1.2l1.2,5.6c0.2,0.9-0.5,1.8-1.4,1.8H148C147,446.1,146.3,445.2,146.5,444.3
							z"/>
						<path class="st47" d="M145.2,451.3h20.2c0.8,0,1.4-0.6,1.4-1.4v-3.2c0-1.5-1.2-2.7-2.7-2.7h-17.5c-1.5,0-2.7,1.2-2.7,2.7v3.2
							C143.8,450.7,144.5,451.3,145.2,451.3z"/>
						<g>
							<circle class="st73" cx="162.6" cy="447.8" r="2.1"/>
							<circle class="st77" cx="162.6" cy="447.8" r="1.3"/>
						</g>
						<g>
							<circle class="st73" cx="148" cy="447.8" r="2.1"/>
							<circle class="st77" cx="148" cy="447.8" r="1.3"/>
						</g>
						<path class="st78" d="M156.7,451.1c0,0,0,0.1,0,0.1H154c0,0,0-0.1,0-0.1c0-3.6-2.7-6.6-6.2-7v-0.3c0-0.6,0.5-1,1-1h12.9
							c0.6,0,1,0.5,1,1v0.3C159.4,444.6,156.7,447.5,156.7,451.1z"/>
						<path class="st79" d="M151.6,451.7h7.4c0.5,0,0.8-0.4,0.8-0.8v-2.4c0-0.5-0.4-0.8-0.8-0.8h-7.4c-0.5,0-0.8,0.4-0.8,0.8v2.4
							C150.7,451.3,151.1,451.7,151.6,451.7z"/>
						<g>
							<circle class="st77" cx="155.3" cy="449.1" r="1"/>
							<g>
								<path class="st77" d="M156.6,449.6h0.7c0.5,0,0.9-0.4,0.9-0.9v0h-1.6V449.6z"/>
								<path class="st77" d="M154,449.6h-0.7c-0.5,0-0.9-0.4-0.9-0.9v0h1.6V449.6z"/>
							</g>
						</g>
						<path class="st21" d="M144,453.2h22.8c0.3,0,0.6-0.3,0.6-0.6V451c0-0.3-0.3-0.6-0.6-0.6H144c-0.3,0-0.6,0.3-0.6,0.6v1.6
							C143.4,452.9,143.7,453.2,144,453.2z"/>
					</g>
				</g>
				<path class="st24" d="M112.9,444.9h1.4c0.5,0,1-0.4,1-1v-0.4c0-0.5-0.4-1-1-1h-1.4c-0.5,0-1,0.4-1,1v0.4
					C111.9,444.4,112.4,444.9,112.9,444.9z"/>
				<path class="st24" d="M137.5,444.9h1.4c0.5,0,1-0.4,1-1v-0.4c0-0.5-0.4-1-1-1h-1.4c-0.5,0-1,0.4-1,1v0.4
					C136.5,444.4,136.9,444.9,137.5,444.9z"/>
				<path class="st74" d="M118.2,454.1h15.2c0.5,0,0.8-0.4,0.8-0.8l0,0c0-0.5-0.4-0.8-0.8-0.8h-15.2c-0.5,0-0.8,0.4-0.8,0.8l0,0
					C117.4,453.7,117.8,454.1,118.2,454.1z"/>
				<path class="st2" d="M134.2,457h3c0.3,0,0.5-0.2,0.5-0.5v-4.7h-4v4.7C133.7,456.7,133.9,457,134.2,457z"/>
				<path class="st2" d="M114.3,457h3c0.3,0,0.5-0.2,0.5-0.5v-4.7h-4v4.7C113.8,456.7,114,457,114.3,457z"/>
				
					<linearGradient id="SVGID_10_" gradientUnits="userSpaceOnUse" x1="2491.9968" y1="433.4285" x2="2491.9968" y2="455.4599" gradientTransform="matrix(-1 0 0 1 2617.9548 0)">
					<stop  offset="0" style="stop-color:#2194F4;stop-opacity:0.5"/>
					<stop  offset="1" style="stop-color:#2194F4;stop-opacity:0"/>
				</linearGradient>
				<path class="st81" d="M117.4,446.1h17.2c0.9,0,1.6-0.9,1.4-1.8l-1.2-5.6c-0.1-0.7-0.7-1.2-1.4-1.2h-14.7c-0.7,0-1.3,0.5-1.4,1.2
					l-1.2,5.6C115.7,445.3,116.4,446.1,117.4,446.1z"/>
				<path class="st76" d="M115.4,446.2c0.5,0.6,1.2,1,2,1h17.2c0.8,0,1.5-0.3,2-1c0.5-0.6,0.7-1.4,0.5-2.1l-1.2-5.6
					c-0.3-1.2-1.3-2-2.5-2h-14.7c-1.2,0-2.2,0.8-2.5,2l-1.2,5.6C114.7,444.8,114.9,445.6,115.4,446.2z M115.9,444.3l1.2-5.6
					c0.1-0.7,0.7-1.2,1.4-1.2h14.7c0.7,0,1.3,0.5,1.4,1.2l1.2,5.6c0.2,0.9-0.5,1.8-1.4,1.8h-17.2
					C116.4,446.1,115.7,445.2,115.9,444.3z"/>
				<path class="st47" d="M114.6,451.3h22.3c0.8,0,1.4-0.6,1.4-1.4v-3.2c0-1.5-1.2-2.7-2.7-2.7h-19.5c-1.5,0-2.7,1.2-2.7,2.7v3.2
					C113.2,450.7,113.8,451.3,114.6,451.3z"/>
				<g>
					<circle class="st73" cx="133.9" cy="447.8" r="2.1"/>
					<circle class="st77" cx="133.9" cy="447.8" r="1.3"/>
				</g>
				<g>
					<circle class="st73" cx="117.4" cy="447.8" r="2.1"/>
					<circle class="st77" cx="117.4" cy="447.8" r="1.3"/>
				</g>
				<path class="st78" d="M128,451.1c0,0,0,0.1,0,0.1h-4.7c0,0,0-0.1,0-0.1c0-3.6-2.7-6.6-6.2-7v-0.3c0-0.6,0.5-1,1-1h14.9
					c0.6,0,1,0.5,1,1v0.3C130.7,444.6,128,447.5,128,451.1z"/>
				<path class="st79" d="M120.9,451.7h9.5c0.5,0,0.8-0.4,0.8-0.8v-2.4c0-0.5-0.4-0.8-0.8-0.8h-9.5c-0.5,0-0.8,0.4-0.8,0.8v2.4
					C120.1,451.3,120.5,451.7,120.9,451.7z"/>
				<g>
					<path class="st77" d="M123.7,449.1c0-0.5,2.5-1,3-1c0.5,0,1,0.4,1,1c0,0.5-0.4,1-1,1C126.1,450.1,123.7,449.7,123.7,449.1z"/>
					<g>
						<path class="st77" d="M128,449.6h0.7c0.5,0,0.9-0.4,0.9-0.9v0H128V449.6z"/>
						<path class="st77" d="M123.3,449.6h-0.7c-0.5,0-0.9-0.4-0.9-0.9v0h1.6V449.6z"/>
					</g>
				</g>
				<path class="st21" d="M113.4,453.2h24.8c0.3,0,0.6-0.3,0.6-0.6V451c0-0.3-0.3-0.6-0.6-0.6h-24.8c-0.3,0-0.6,0.3-0.6,0.6v1.6
					C112.8,452.9,113,453.2,113.4,453.2z"/>
				<path class="st74" d="M118.2,454.1h15.2c0.5,0,0.8-0.4,0.8-0.8l0,0c0-0.5-0.4-0.8-0.8-0.8h-15.2c-0.5,0-0.8,0.4-0.8,0.8l0,0
					C117.4,453.7,117.8,454.1,118.2,454.1z"/>
				<path class="st2" d="M134.2,457h3c0.3,0,0.5-0.2,0.5-0.5v-4.7h-4v4.7C133.7,456.7,133.9,457,134.2,457z"/>
				<path class="st2" d="M114.3,457h3c0.3,0,0.5-0.2,0.5-0.5v-4.7h-4v4.7C113.8,456.7,114,457,114.3,457z"/>
				
					<linearGradient id="SVGID_11_" gradientUnits="userSpaceOnUse" x1="2491.7549" y1="439.6337" x2="2491.7549" y2="461.6651" gradientTransform="matrix(-1 0 0 1 2617.9548 0)">
					<stop  offset="0" style="stop-color:#2194F4;stop-opacity:0.5"/>
					<stop  offset="1" style="stop-color:#2194F4;stop-opacity:0"/>
				</linearGradient>
				<path class="st82" d="M117.6,452.4h17.2c0.9,0,1.6-0.9,1.4-1.8l-1.2-5.6c-0.1-0.7-0.7-1.2-1.4-1.2h-14.7c-0.7,0-1.3,0.5-1.4,1.2
					l-1.2,5.6C116,451.5,116.7,452.4,117.6,452.4z"/>
				<path class="st83" d="M115.4,446.2c0.5,0.6,1.2,1,2,1h17.2c0.8,0,1.5-0.3,2-1c0.5-0.6,0.7-1.4,0.5-2.1l-1.2-5.6
					c-0.3-1.2-1.3-2-2.5-2h-14.7c-1.2,0-2.2,0.8-2.5,2l-1.2,5.6C114.7,444.8,114.9,445.6,115.4,446.2z M115.9,444.3l1.2-5.6
					c0.1-0.7,0.7-1.2,1.4-1.2h14.7c0.7,0,1.3,0.5,1.4,1.2l1.2,5.6c0.2,0.9-0.5,1.8-1.4,1.8h-17.2
					C116.4,446.1,115.7,445.2,115.9,444.3z"/>
				<path class="st24" d="M114.6,451.3h22.3c0.8,0,1.4-0.6,1.4-1.4v-3.2c0-1.5-1.2-2.7-2.7-2.7h-19.5c-1.5,0-2.7,1.2-2.7,2.7v3.2
					C113.2,450.7,113.8,451.3,114.6,451.3z"/>
				<g>
					<circle class="st84" cx="133.9" cy="447.8" r="2.1"/>
					<circle class="st77" cx="133.9" cy="447.8" r="1.3"/>
				</g>
				<g>
					<circle class="st84" cx="117.4" cy="447.8" r="2.1"/>
					<circle class="st77" cx="117.4" cy="447.8" r="1.3"/>
				</g>
				<path class="st83" d="M128,451.1c0,0,0,0.1,0,0.1h-4.7c0,0,0-0.1,0-0.1c0-3.6-2.7-6.6-6.2-7v-0.3c0-0.6,0.5-1,1-1h14.9
					c0.6,0,1,0.5,1,1v0.3C130.7,444.6,128,447.5,128,451.1z"/>
				<path class="st79" d="M120.9,451.7h9.5c0.5,0,0.8-0.4,0.8-0.8v-2.4c0-0.5-0.4-0.8-0.8-0.8h-9.5c-0.5,0-0.8,0.4-0.8,0.8v2.4
					C120.1,451.3,120.5,451.7,120.9,451.7z"/>
				<path class="st84" d="M113.4,453.2h24.8c0.3,0,0.6-0.3,0.6-0.6V451c0-0.3-0.3-0.6-0.6-0.6h-24.8c-0.3,0-0.6,0.3-0.6,0.6v1.6
					C112.8,452.9,113,453.2,113.4,453.2z"/>
				<line class="st85" x1="130.2" y1="449.5" x2="121.1" y2="449.5"/>
				<line class="st85" x1="130.2" y1="448.6" x2="121.1" y2="448.6"/>
			</g>
		</g>
		<g class="st60">
			<g>
				<path class="st37" d="M117.1,439.6l-15.8-14.5l32.1-35c4-4.4,10.8-4.7,15.2-0.7h0c4.4,4,4.7,10.8,0.7,15.2L117.1,439.6z"/>
				<path class="st37" d="M97,417.7l13-17.1l42,32c2.4,1.8,2.9,5.3,1,7.7h0c-5.3,7-15.4,8.4-22.4,3L97,417.7z"/>
				<path class="st37" d="M110.4,441.3l21.5-0.3l6.1,11.1c0.8,1.4,1.2,2.9,1.2,4.5l0.4,27.5c0,2.5-2,4.5-4.4,4.5h0
					c-7.2,0.1-13.1-5.7-13.2-12.9l-0.2-18.6L110.4,441.3z"/>
				<g>
					<g>
						<path class="st86" d="M118.5,508.2L118.5,508.2c-26.9,4.8-54.6,1.4-79.6-9.5l0,0c-3.4-1.5-5.4-5-4.9-8.7l14.1-117.8
							c0.4-3.7,3.2-6.6,6.9-7.2l0,0c26.9-4.8,54.6-1.4,79.6,9.5l0,0c3.4,1.5,5.4,5,4.9,8.7l-14.1,117.8
							C125,504.6,122.2,507.6,118.5,508.2z"/>
						<path class="st87" d="M114.6,486.2l-66.6-8c-1.5-0.2-2.6-1.6-2.4-3.1l10.3-85.9c0.2-1.5,1.6-2.6,3.1-2.4l66.6,8
							c1.5,0.2,2.6,1.6,2.4,3.1l-10.3,85.9C117.5,485.3,116.1,486.4,114.6,486.2z"/>
						<path class="st4" d="M112.1,385.1l-37.8-4.5c-1.5-0.2-2.6-1.5-2.4-3.1l0,0c0.2-1.5,1.5-2.6,3.1-2.4l37.8,4.5
							c1.5,0.2,2.6,1.5,2.4,3.1l0,0C115,384.2,113.6,385.3,112.1,385.1z"/>
					</g>
				</g>
				<g>
					<path class="st7" d="M117.4,487L46.6,479c-1.2-0.1-2-1.2-1.9-2.3l10-88.7c0.1-1.2,1.2-2,2.3-1.9l70.7,7.9
						c1.2,0.1,2,1.2,1.9,2.3l-10,88.7C119.5,486.3,118.5,487.1,117.4,487z"/>
					<path class="st0" d="M127.8,413.1l-74.9-8.4l1.9-16.7c0.1-1.2,1.2-2,2.3-1.9l70.7,7.9c1.2,0.1,2,1.2,1.9,2.3L127.8,413.1z"/>
					<path class="st16" d="M108.6,450.5l-6.2-0.7c-1-0.1-2,0.6-2.1,1.7l-0.2,1.7l-0.2,2.1l-0.7,6.1c-1-1-2.5-1.6-4.1-1.5
						c-2.2,0.2-4,1.7-4.7,3.7c-1,3.3,1.2,6.6,4.5,7c2.8,0.3,5.4-1.6,5.9-4.4l0,0l1.2-10.7l5.9,0.7c1,0.1,2-0.6,2.1-1.7l0.2-1.9
						C110.4,451.6,109.7,450.6,108.6,450.5z"/>
					<path class="st8" d="M113.6,426.8l-50-5.6c-2-0.2-3.5-2.1-3.3-4.1l0,0c0.2-2,2.1-3.5,4.1-3.3l50,5.6c2,0.2,3.5,2.1,3.3,4.1l0,0
						C117.5,425.5,115.7,427,113.6,426.8z"/>
					<path class="st8" d="M112,441.6l-50-5.6c-2-0.2-3.5-2.1-3.3-4.1h0c0.2-2,2.1-3.5,4.1-3.3l50,5.6c2,0.2,3.5,2.1,3.3,4.1l0,0
						C115.8,440.4,114,441.8,112,441.6z"/>
					<path class="st8" d="M77.9,452.8l-17.6-2c-2-0.2-3.5-2.1-3.3-4.1h0c0.2-2,2.1-3.5,4.1-3.3l17.6,2c2,0.2,3.5,2.1,3.3,4.1l0,0
						C81.8,451.5,79.9,453,77.9,452.8z"/>
					<path class="st8" d="M75.8,467.6l-17.6-2c-2-0.2-3.5-2.1-3.3-4.1l0,0c0.2-2,2.1-3.5,4.1-3.3l17.6,2c2,0.2,3.5,2.1,3.3,4.1l0,0
						C79.7,466.3,77.9,467.8,75.8,467.6z"/>
					<path class="st88" d="M84.7,455.8c-2,4-2,9.1,0.1,13c1.9,3.6,5.6,6.3,9.6,7.1c7.5,1.4,14.4-2.9,18.6-8.9
						c2.7-3.8,4-8.8,2.8-13.3c-3.1-11.8-19.1-10.6-27.7-6.3"/>
				</g>
			</g>
			<path class="st37" d="M34,490l7.2-25.3l15.4-29.7c4.3-8,1.3-17.9-6.6-22.2l-2.1-1.1c-1.1-0.6-2.5-0.2-3.1,0.9l-24.5,45.4
				c-2.3,4.3-3.3,9.1-2.8,13.9c0,0,3.5,37.8,3.5,37.8c0.2,3.6-21.6,34.1-23.4,37.4c-2.6,4.8-5.3,10.1-5.8,15.7
				c-1.1,12,5.7,25.2,12.5,34.7c1.3,1.8,2.6,3.6,4.5,4.7c3.6,2.1,8.2,1.3,11.8-0.8c14.9-9,33.6-52.5,41.3-66.8
				c0.2-0.4,0.4-0.7,0.6-1.1l0.2-0.3c2.2-3.4,5.4-6,9.3-7.5c6.7-2.5,13.6-7,19.8-13c0.7-0.7,1.3-1.4,2-2c2.8-3.1,5.3-6.3,7.3-9.6
				L34,490z"/>
			<path class="st86" d="M34,490c-0.4,3.7,1.6,7.2,4.9,8.7l0,0c25,11,52.7,14.3,79.6,9.5l0,0c3.6-0.6,6.4-3.6,6.9-7.2L34,490z"/>
			<circle class="st4" cx="79.7" cy="495.3" r="3"/>
		</g>
	</g>
</g>
</svg>
