<svg width="798" height="552" viewBox="0 0 798 552" fill="none" xmlns="http://www.w3.org/2000/svg">
<g clip-path="url(#clip0)">
<path d="M630.252 253.64C600.892 324.759 559.471 395.912 521.454 444.755C482.004 494.371 442.191 518.439 384.297 520.377C327.308 522.027 261.205 508.516 201.585 496.112C141.89 482.148 90.5615 470.275 60.3516 435.211C30.8193 401.515 22.5575 342.678 53.5022 267.57C83.5416 194.017 159.345 105.593 281.483 65.48C401.964 23.9936 529.424 42.7022 591.216 82.6129C656.777 123.226 658.782 183.102 630.252 253.64Z" fill="url(#paint0_linear)"/>
<g clip-path="url(#clip1)">
<path d="M496.396 470.657C475.497 459.811 453.191 452.982 430.282 448.362C407.373 443.944 384.062 441.935 360.55 441.734C337.039 441.734 313.728 443.743 290.819 448.362C267.91 452.781 245.805 459.811 224.705 470.657L224.102 470.858C218.073 473.87 210.638 471.661 207.623 465.635C205.413 461.217 206.016 455.995 208.829 452.379C217.671 441.132 228.925 431.893 240.781 424.26C252.637 416.628 265.499 410.603 278.561 405.983C304.886 396.543 332.618 392.325 360.349 392.325C387.88 392.325 415.813 396.744 442.138 405.983C455.2 410.603 468.062 416.628 479.918 424.26C491.774 431.893 503.028 441.132 511.87 452.379C516.09 457.601 515.085 465.435 509.86 469.652C506.042 472.665 500.817 473.067 496.597 470.858L496.396 470.657Z" fill="url(#paint1_linear)"/>
<path d="M595.668 405.18H125.432C118.198 405.18 112.169 399.154 112.169 391.924V138.651C112.169 131.421 118.198 125.395 125.432 125.395H595.668C602.902 125.395 608.931 131.421 608.931 138.651V391.924C608.931 399.154 603.103 405.18 595.668 405.18Z" fill="#282828"/>
<path d="M580.998 152.309H140.102V378.266H580.998V152.309Z" fill="url(#paint2_linear)"/>
</g>
<path fill-rule="evenodd" clip-rule="evenodd" d="M330.283 275.243L306.132 326.48L306.118 326.508C300.716 337.791 283.526 335.794 281.475 323.005L281.474 322.997L273.592 273.293L293.811 270.138L297.91 295.988L311.743 266.641L330.283 275.243Z" fill="#1E2635"/>
<path fill-rule="evenodd" clip-rule="evenodd" d="M373.938 256.868C378.119 253.046 384.655 253.283 388.539 257.397L421.585 292.402L417.753 278.105C416.297 272.677 419.59 267.115 425.107 265.683C430.624 264.251 436.276 267.491 437.731 272.92L444.954 299.865C444.955 299.871 444.956 299.876 444.958 299.882C449.297 315.95 430.164 327.965 417.161 317.455L416.623 317.02L373.401 271.235C369.517 267.121 369.758 260.689 373.938 256.868ZM424.982 305.078C424.985 305.086 424.987 305.095 424.989 305.103L424.986 305.091L424.982 305.078Z" fill="#1E2635"/>
<path d="M422.495 287.414L438.129 279.096C439.674 278.234 440.292 276.324 439.427 274.722L437.511 271.21C436.646 269.669 434.73 269.053 433.124 269.916L417.49 278.234C415.945 279.096 415.327 281.006 416.192 282.608L418.108 286.12C418.973 287.661 420.95 288.215 422.495 287.414Z" fill="#35425D"/>
<path d="M439.817 282.558C441.59 281.633 442.246 279.386 441.327 277.601L437.06 269.538C436.141 267.754 433.908 267.093 432.136 268.018C430.363 268.944 429.707 271.191 430.626 272.975L434.893 281.038C435.812 282.822 438.045 283.483 439.817 282.558Z" fill="white"/>
<path d="M434.32 269.905L421.233 278.257C418.615 279.914 415.104 279.149 413.444 276.535L405.145 263.467C403.485 260.853 404.251 257.347 406.869 255.689L419.956 247.338C422.574 245.68 426.085 246.445 427.745 249.059L436.108 262.128C437.704 264.742 436.938 268.248 434.32 269.905Z" fill="#965042"/>
<path d="M418.608 267.741C417.027 269.799 414.108 270.11 412.101 268.489L400.242 258.761C398.235 257.14 397.931 254.146 399.512 252.089C401.093 250.031 404.012 249.719 406.019 251.34L417.878 261.068C419.885 262.69 420.25 265.683 418.608 267.741Z" fill="#965042"/>
<path d="M437.095 273.796L432.711 276.612C430.92 277.738 428.574 277.237 427.462 275.423L413.507 253.273C412.395 251.459 412.889 249.081 414.68 247.955L419.064 245.139C420.855 244.013 423.201 244.514 424.313 246.328L438.268 268.478C439.38 270.292 438.886 272.67 437.095 273.796Z" fill="url(#paint3_linear)"/>
<path d="M412.436 255.11C420.13 255.11 426.368 248.873 426.368 241.178C426.368 233.483 420.13 227.246 412.436 227.246C404.741 227.246 398.503 233.483 398.503 241.178C398.503 248.873 404.741 255.11 412.436 255.11Z" fill="url(#paint4_linear)"/>
<path d="M424.637 247.424L413.877 254.993L415.547 257.993L426.368 250.424L424.637 247.424Z" fill="url(#paint5_linear)"/>
<path d="M437.358 279.885C436.825 280.284 436.115 280.085 435.759 279.486L433.094 274.764L435.049 273.367L437.714 278.089C438.069 278.688 437.891 279.486 437.358 279.885Z" fill="black"/>
<path d="M430.866 252.047L417.468 260.145C415.183 261.535 412.198 260.87 410.801 258.755C409.341 256.579 410.039 253.739 412.262 252.409L425.66 244.311C427.945 242.921 430.93 243.586 432.327 245.701C433.787 247.816 433.089 250.717 430.866 252.047Z" fill="url(#paint6_linear)"/>
<path d="M434.67 260.204L421.273 268.752C418.987 270.219 416.002 269.518 414.605 267.285C413.145 264.988 413.843 261.99 416.066 260.587L429.464 252.038C431.75 250.571 434.734 251.273 436.131 253.505C437.591 255.738 436.893 258.737 434.67 260.204Z" fill="url(#paint7_linear)"/>
<path d="M438.554 268.381L425.723 276.48C423.534 277.87 420.676 277.205 419.338 275.09C417.939 272.914 418.608 270.073 420.737 268.744L433.567 260.645C435.757 259.255 438.615 259.92 439.952 262.035C441.351 264.151 440.743 266.991 438.554 268.381Z" fill="url(#paint8_linear)"/>
<path d="M356.845 251.267H352.662C331.244 251.267 313.948 268.509 313.948 289.72V373.758C313.948 376.177 315.884 378.1 318.319 378.1H391.25C393.685 378.1 395.621 376.177 395.621 373.758V289.72C395.558 268.447 378.2 251.267 356.845 251.267Z" fill="url(#paint9_linear)"/>
<path d="M346.764 253.762C342.19 255.921 337.678 252.281 333.166 254.687V269.558C333.166 281.221 342.622 290.662 354.304 290.662C365.986 290.662 375.443 281.221 375.443 269.558V254.255L354.304 250.306L346.764 253.762Z" fill="#CCCCCC"/>
<path fill-rule="evenodd" clip-rule="evenodd" d="M304.34 291.077C304.34 264.881 325.726 243.58 352.211 243.58H356.398C382.8 243.58 404.269 264.8 404.269 291.077V365.5C404.269 370.502 400.182 374.557 395.141 374.557C390.1 374.557 386.013 370.502 386.013 365.5V291.077C386.013 274.822 372.737 261.693 356.398 261.693H352.211C335.828 261.693 322.596 274.865 322.596 291.077V365.5C322.596 370.502 318.509 374.557 313.468 374.557C308.427 374.557 304.34 370.502 304.34 365.5V291.077Z" fill="#1E2635"/>
<path d="M354.304 281.053C346.893 281.053 340.852 274.996 340.852 267.565V238.776H367.756V267.565C367.756 275.058 361.777 281.053 354.304 281.053Z" fill="url(#paint10_radial)"/>
<path d="M318.272 232.05C324.906 232.05 330.283 226.673 330.283 220.039C330.283 213.406 324.906 208.029 318.272 208.029C311.639 208.029 306.262 213.406 306.262 220.039C306.262 226.673 311.639 232.05 318.272 232.05Z" fill="#965042"/>
<path d="M390.336 232.05C396.97 232.05 402.347 226.673 402.347 220.039C402.347 213.406 396.97 208.029 390.336 208.029C383.703 208.029 378.326 213.406 378.326 220.039C378.326 226.673 383.703 232.05 390.336 232.05Z" fill="#965042"/>
<path d="M379.035 254.789L361.019 261.622C356.842 263.189 352.291 263.189 348.115 261.622L330.473 254.852C323.428 252.156 318.753 245.386 318.753 237.801V200.063C318.753 180.065 334.899 163.829 354.785 163.829C374.671 163.829 390.817 180.065 390.817 200.063V237.675C390.755 245.26 386.079 252.093 379.035 254.789Z" fill="url(#paint11_radial)"/>
<path d="M359.087 231.089H349.522C347.426 231.089 345.657 229.395 345.657 227.246C345.657 225.161 347.36 223.402 349.522 223.402H359.087C361.183 223.402 362.952 225.096 362.952 227.246C362.952 229.33 361.249 231.089 359.087 231.089Z" fill="#6D3A3A"/>
<path d="M363.477 245.225C367.036 244.209 370.473 243.91 373.05 244.209C375.014 240.981 375.443 237.335 375.443 234.645C375.443 232.732 373.357 231.477 371.577 232.314V234.884C371.577 236.319 370.78 237.574 369.491 238.232C364.643 240.623 359.366 242.057 353.966 242.356L353.353 242.416C351.757 242.536 350.284 241.639 349.609 240.204L348.996 238.829C348.934 238.829 348.873 238.829 348.75 238.889L348.014 238.949C346.173 239.188 345.13 241.101 345.928 242.715C347.278 245.285 349.671 248.633 353.659 250.306C355.623 248.453 359.182 246.481 363.477 245.225Z" fill="#420D06"/>
<path d="M352.988 242.608L353.615 242.546C359.129 242.171 364.519 240.734 369.469 238.235C370.785 237.548 371.6 236.173 371.6 234.736V232.05C364.331 235.611 356.56 237.923 348.539 238.86L349.166 240.297C349.792 241.796 351.359 242.733 352.988 242.608Z" fill="url(#paint12_linear)"/>
<path d="M363.721 251.551C368.717 250.235 371.728 247.602 373.522 244.657C370.831 244.343 367.244 244.657 363.529 245.722C358.981 247.038 355.265 249.044 353.344 251.112C356.098 252.303 359.493 252.679 363.721 251.551Z" fill="#DB4977"/>
<path d="M336.529 208.989C339.055 208.989 341.452 209.927 343.201 211.677C343.913 212.364 343.913 213.551 343.201 214.239C342.488 214.926 341.257 214.926 340.545 214.239C339.444 213.176 338.083 212.614 336.529 212.614C335.039 212.614 333.614 213.176 332.513 214.239C331.8 214.926 330.569 214.926 329.857 214.239C329.144 213.551 329.144 212.364 329.857 211.677C331.606 209.927 334.002 208.989 336.529 208.989Z" fill="#6B312E"/>
<path d="M372.08 208.989C374.607 208.989 377.003 209.927 378.752 211.677C379.465 212.364 379.465 213.551 378.752 214.239C378.04 214.926 376.809 214.926 376.097 214.239C374.995 213.176 373.635 212.614 372.08 212.614C370.591 212.614 369.165 213.176 368.064 214.239C367.352 214.926 366.121 214.926 365.408 214.239C364.696 213.551 364.696 212.364 365.408 211.677C367.222 209.927 369.554 208.989 372.08 208.989Z" fill="#6B312E"/>
<path opacity="0.6" d="M326.296 208.034V185.127C345.122 188.717 364.385 188.717 383.212 185.127V208.034C383.212 210.077 384.895 211.81 387.014 211.81C389.071 211.81 390.817 210.139 390.817 208.034V199.614C390.817 179.864 374.671 163.829 354.785 163.829C334.899 163.829 318.753 179.864 318.753 199.614V208.095C318.753 210.139 320.436 211.872 322.556 211.872C324.613 211.81 326.296 210.139 326.296 208.034Z" fill="url(#paint13_linear)"/>
<path fill-rule="evenodd" clip-rule="evenodd" d="M327.767 206.308C326.556 206.308 325.573 207.317 325.573 208.561V213.73C325.573 217.91 328.855 221.28 332.925 221.28H340.008C344.062 221.28 347.373 217.921 347.484 213.704V208.561C347.484 207.317 346.501 206.308 345.29 206.308H327.767ZM321.635 208.561C321.635 205.083 324.381 202.264 327.767 202.264H345.29C348.676 202.264 351.422 205.083 351.422 208.561V213.754L351.421 213.779C351.272 220.145 346.262 225.324 340.008 225.324H332.925C326.68 225.324 321.635 220.143 321.635 213.73V208.561Z" fill="black"/>
<path fill-rule="evenodd" clip-rule="evenodd" d="M363.319 206.14C362.108 206.14 361.125 207.107 361.125 208.299V213.252C361.125 217.258 364.407 220.487 368.476 220.487H375.56C379.613 220.487 382.925 217.268 383.035 213.228V208.299C383.035 207.107 382.053 206.14 380.841 206.14H363.319ZM357.187 208.299C357.187 204.966 359.933 202.264 363.319 202.264H380.841C384.228 202.264 386.973 204.966 386.973 208.299V213.276L386.973 213.299C386.824 219.4 381.813 224.363 375.56 224.363H368.476C362.232 224.363 357.187 219.398 357.187 213.252V208.299Z" fill="black"/>
<path fill-rule="evenodd" clip-rule="evenodd" d="M347.578 210.911C347.578 209.319 348.961 208.029 350.666 208.029H357.942C359.648 208.029 361.03 209.319 361.03 210.911C361.03 212.503 359.648 213.794 357.942 213.794H350.666C348.961 213.794 347.578 212.503 347.578 210.911Z" fill="black"/>
<path d="M325.479 209.95H318.811C317.689 209.95 316.831 209.027 316.831 207.972V205.203C316.831 204.082 317.755 203.224 318.811 203.224H325.479V209.95Z" fill="black"/>
<path d="M384.091 209.95H390.017C391.015 209.95 391.778 209.027 391.778 207.972V205.203C391.778 204.082 390.956 203.224 390.017 203.224H384.091V209.95Z" fill="black"/>
<path d="M287.13 268.809L277.153 270.379C272.257 271.133 267.671 267.741 266.928 262.778L264.945 249.837L292.645 245.502L294.628 258.443C295.372 263.343 292.025 267.992 287.13 268.809Z" fill="url(#paint14_linear)"/>
<path d="M293.639 260.876L302.885 252.348C304.661 250.745 304.844 247.924 303.252 246.065C301.721 244.205 299.027 244.013 297.251 245.68L288.005 254.207L293.639 260.876Z" fill="url(#paint15_linear)"/>
<path d="M273.592 250.792L266.061 240.553C264.617 238.581 261.918 238.2 259.972 239.663C258.027 241.125 257.65 243.86 259.094 245.832L266.626 256.071L273.592 250.792Z" fill="url(#paint16_linear)"/>
<path d="M280.319 249.435L274.269 231.22C273.528 228.936 271.121 227.666 268.837 228.428C266.615 229.19 265.38 231.665 266.121 234.013L272.17 252.228L280.319 249.435Z" fill="url(#paint17_linear)"/>
<path d="M288.005 248.017L285.074 229.046C284.7 226.643 282.517 224.999 280.146 225.378C277.776 225.758 276.155 227.971 276.529 230.374L279.46 249.345L288.005 248.017Z" fill="url(#paint18_linear)"/>
<path d="M293.733 251.267L295.667 232.146C295.917 229.74 294.232 227.587 291.861 227.27C289.49 227.017 287.369 228.727 287.057 231.133L285.123 250.254L293.733 251.267Z" fill="url(#paint19_linear)"/>
<path d="M288.102 256.535L274.088 257.973C272.409 258.169 270.924 256.927 270.73 255.163C270.536 253.463 271.763 251.96 273.507 251.764L287.52 250.327C289.2 250.13 290.685 251.372 290.879 253.137C291.008 254.836 289.781 256.339 288.102 256.535Z" fill="#8C483E"/>
<path d="M293.154 275.362L274.688 278.138C273.061 278.379 271.496 277.293 271.246 275.724L270.745 272.768C270.494 271.199 271.621 269.691 273.249 269.45L291.714 266.674C293.341 266.433 294.906 267.519 295.157 269.088L295.657 272.044C295.908 273.673 294.781 275.121 293.154 275.362Z" fill="#35425D"/>
<path d="M281.277 262.797C281.023 262.797 280.769 262.733 280.516 262.668C278.992 262.218 278.104 260.672 278.484 259.127C280.642 251.143 287.053 250.306 287.307 250.306L287.942 256.101H288.005C287.688 256.165 285.085 256.68 284.006 260.672C283.689 261.96 282.547 262.797 281.277 262.797Z" fill="#8C483E"/>
<path d="M169.34 190.733C172.789 190.733 175.585 187.937 175.585 184.487C175.585 181.038 172.789 178.242 169.34 178.242C165.89 178.242 163.094 181.038 163.094 184.487C163.094 187.937 165.89 190.733 169.34 190.733Z" fill="white"/>
<path d="M205.607 186.89H183.037C181.587 186.89 180.39 185.803 180.39 184.488C180.39 183.172 181.587 182.085 183.037 182.085H205.607C207.057 182.085 208.254 183.172 208.254 184.488C208.254 185.86 207.057 186.89 205.607 186.89Z" fill="white"/>
<rect x="139.931" y="345" width="441" height="34" fill="#484848"/>
<rect x="175.931" y="359" width="369" height="7" rx="3.5" fill="#282828"/>
<rect x="175.931" y="359" width="95" height="7" rx="3.5" fill="#60B1FF"/>
<circle cx="268.931" cy="362" r="8" fill="#7B7B7B"/>
<g filter="url(#filter0_d)">
<rect x="538.931" y="82" width="223" height="361" rx="20" fill="url(#paint20_linear)"/>
</g>
<path d="M562.945 184.894C564.573 184.894 565.892 183.574 565.892 181.947C565.892 180.319 564.573 179 562.945 179C561.318 179 559.999 180.319 559.999 181.947C559.999 183.574 561.318 184.894 562.945 184.894Z" fill="#60B1FF"/>
<path d="M566.409 193.011H559.482C558.603 193.011 557.931 192.287 557.931 191.46C557.931 188.668 560.205 186.445 562.945 186.445C565.737 186.445 567.96 188.72 567.96 191.46C568.012 192.339 567.288 193.011 566.409 193.011Z" fill="#60B1FF"/>
<path d="M562.945 334.894C564.573 334.894 565.892 333.574 565.892 331.947C565.892 330.319 564.573 329 562.945 329C561.318 329 559.999 330.319 559.999 331.947C559.999 333.574 561.318 334.894 562.945 334.894Z" fill="#60B1FF"/>
<path d="M566.409 343.011H559.482C558.603 343.011 557.931 342.287 557.931 341.46C557.931 338.668 560.205 336.445 562.945 336.445C565.737 336.445 567.96 338.72 567.96 341.46C568.012 342.339 567.288 343.011 566.409 343.011Z" fill="#60B1FF"/>
<path d="M562.945 235.894C564.573 235.894 565.892 234.574 565.892 232.947C565.892 231.319 564.573 230 562.945 230C561.318 230 559.999 231.319 559.999 232.947C559.999 234.574 561.318 235.894 562.945 235.894Z" fill="#60B1FF"/>
<path d="M566.409 244.011H559.482C558.603 244.011 557.931 243.287 557.931 242.46C557.931 239.668 560.205 237.445 562.945 237.445C565.737 237.445 567.96 239.72 567.96 242.46C568.012 243.339 567.288 244.011 566.409 244.011Z" fill="#60B1FF"/>
<path d="M562.945 286.894C564.573 286.894 565.892 285.574 565.892 283.947C565.892 282.319 564.573 281 562.945 281C561.318 281 559.999 282.319 559.999 283.947C559.999 285.574 561.318 286.894 562.945 286.894Z" fill="#60B1FF"/>
<path d="M566.409 295.011H559.482C558.603 295.011 557.931 294.287 557.931 293.46C557.931 290.668 560.205 288.445 562.945 288.445C565.737 288.445 567.96 290.72 567.96 293.46C568.012 294.339 567.288 295.011 566.409 295.011Z" fill="#60B1FF"/>
<path d="M562.945 379.894C564.573 379.894 565.892 378.574 565.892 376.947C565.892 375.319 564.573 374 562.945 374C561.318 374 559.999 375.319 559.999 376.947C559.999 378.574 561.318 379.894 562.945 379.894Z" fill="#60B1FF"/>
<path d="M566.409 388.011H559.482C558.603 388.011 557.931 387.287 557.931 386.46C557.931 383.668 560.205 381.445 562.945 381.445C565.737 381.445 567.96 383.72 567.96 386.46C568.012 387.339 567.288 388.011 566.409 388.011Z" fill="#60B1FF"/>
<path d="M738.431 170H584.43C581.382 170 578.931 172.42 578.931 175.43V194.699C578.931 197.708 581.382 200.129 584.43 200.129H588.515V203.293C588.515 204.566 589.866 205.403 591.029 204.814L600.582 200.098H738.431C741.48 200.098 743.931 197.677 743.931 194.668V175.43C743.931 172.42 741.448 170 738.431 170Z" fill="#B8CDEC"/>
<path d="M737.431 319.99L584.43 320C581.382 320 578.931 322.42 578.931 325.43V344.699C578.931 347.708 581.382 350.128 584.43 350.128H588.515V353.293C588.515 354.566 589.866 355.403 591.029 354.814L600.582 350.097L737.431 350.088C740.48 350.088 742.931 347.668 742.931 344.658V325.42C742.931 322.41 740.448 319.99 737.431 319.99Z" fill="#D5E4F9"/>
<path d="M697.431 221H583.43C580.382 221 577.931 223.42 577.931 226.43V245.699C577.931 248.708 580.382 251.129 583.43 251.129H587.515V254.293C587.515 255.566 588.866 256.403 590.029 255.814L599.582 251.098H697.431C700.48 251.098 702.931 248.677 702.931 245.668V226.43C702.931 223.42 700.448 221 697.431 221Z" fill="#D5E4F9"/>
<path d="M697.431 272H583.43C580.382 272 577.931 274.42 577.931 277.43V296.699C577.931 299.708 580.382 302.129 583.43 302.129H587.515V305.293C587.515 306.566 588.866 307.403 590.029 306.814L599.582 302.098H697.431C700.48 302.098 702.931 299.677 702.931 296.668V277.43C702.931 274.42 700.448 272 697.431 272Z" fill="#B8CDEC"/>
<path d="M697.431 365H583.43C580.382 365 577.931 367.42 577.931 370.43V389.699C577.931 392.708 580.382 395.129 583.43 395.129H587.515V398.293C587.515 399.566 588.866 400.403 590.029 399.814L599.582 395.098H697.431C700.48 395.098 702.931 392.677 702.931 389.668V370.43C702.931 367.42 700.448 365 697.431 365Z" fill="#B8CDEC"/>
<rect x="620.931" y="109" width="62" height="38" rx="15" fill="#EC1D1D"/>
<path d="M660.431 126.634C661.097 127.019 661.097 127.981 660.431 128.366L647.681 135.727C647.014 136.112 646.181 135.631 646.181 134.861L646.181 120.139C646.181 119.369 647.014 118.888 647.681 119.273L660.431 126.634Z" fill="white"/>
</g>
<defs>
<filter id="filter0_d" x="518.931" y="66" width="263" height="401" filterUnits="userSpaceOnUse" color-interpolation-filters="sRGB">
<feFlood flood-opacity="0" result="BackgroundImageFix"/>
<feColorMatrix in="SourceAlpha" type="matrix" values="0 0 0 0 0 0 0 0 0 0 0 0 0 0 0 0 0 0 127 0"/>
<feOffset dy="4"/>
<feGaussianBlur stdDeviation="10"/>
<feColorMatrix type="matrix" values="0 0 0 0 0 0 0 0 0 0 0 0 0 0 0 0 0 0 0.1 0"/>
<feBlend mode="normal" in2="BackgroundImageFix" result="effect1_dropShadow"/>
<feBlend mode="normal" in="SourceGraphic" in2="effect1_dropShadow" result="shape"/>
</filter>
<linearGradient id="paint0_linear" x1="288.016" y1="63.2808" x2="431.008" y2="512.88" gradientUnits="userSpaceOnUse">
<stop stop-color="#2BBBBB" stop-opacity="0.8"/>
<stop offset="1" stop-color="#0093D5" stop-opacity="0"/>
</linearGradient>
<linearGradient id="paint1_linear" x1="360.596" y1="411.153" x2="360.596" y2="468.274" gradientUnits="userSpaceOnUse">
<stop/>
<stop offset="1" stop-color="#333333"/>
</linearGradient>
<linearGradient id="paint2_linear" x1="140.034" y1="152.299" x2="581.066" y2="378.1" gradientUnits="userSpaceOnUse">
<stop stop-color="#61AFFF"/>
<stop offset="1" stop-color="#5CD68D"/>
</linearGradient>
<linearGradient id="paint3_linear" x1="420.508" y1="264.372" x2="431.368" y2="257.542" gradientUnits="userSpaceOnUse">
<stop/>
<stop offset="1" stop-color="#1A1A1A"/>
</linearGradient>
<linearGradient id="paint4_linear" x1="399.818" y1="247.078" x2="425.091" y2="235.226" gradientUnits="userSpaceOnUse">
<stop stop-color="#4D4D4D"/>
<stop offset="1" stop-color="#1A1A1A"/>
</linearGradient>
<linearGradient id="paint5_linear" x1="414.71" y1="256.494" x2="426.088" y2="249.919" gradientUnits="userSpaceOnUse">
<stop/>
<stop offset="1" stop-color="#1A1A1A"/>
</linearGradient>
<linearGradient id="paint6_linear" x1="416.723" y1="244.994" x2="425.44" y2="259.366" gradientUnits="userSpaceOnUse">
<stop stop-color="#AA6F5B"/>
<stop offset="1" stop-color="#965042"/>
</linearGradient>
<linearGradient id="paint7_linear" x1="422.503" y1="255.854" x2="429.1" y2="266.157" gradientUnits="userSpaceOnUse">
<stop stop-color="#AA6F5B"/>
<stop offset="1" stop-color="#965042"/>
</linearGradient>
<linearGradient id="paint8_linear" x1="426.254" y1="263.23" x2="433.529" y2="274.718" gradientUnits="userSpaceOnUse">
<stop stop-color="#AA6F5B"/>
<stop offset="1" stop-color="#965042"/>
</linearGradient>
<linearGradient id="paint9_linear" x1="354.731" y1="273.375" x2="354.731" y2="374.82" gradientUnits="userSpaceOnUse">
<stop stop-color="white"/>
<stop offset="1" stop-color="#CCCCCC"/>
</linearGradient>
<radialGradient id="paint10_radial" cx="0" cy="0" r="1" gradientUnits="userSpaceOnUse" gradientTransform="translate(355.288 279.898) scale(24.4139 24.4809)">
<stop stop-color="#965042"/>
<stop offset="1" stop-color="#713F39"/>
</radialGradient>
<radialGradient id="paint11_radial" cx="0" cy="0" r="1" gradientUnits="userSpaceOnUse" gradientTransform="translate(367.621 210.464) scale(104.588 105.172)">
<stop stop-color="#965042"/>
<stop offset="1" stop-color="#823F39"/>
</radialGradient>
<linearGradient id="paint12_linear" x1="361.347" y1="240.088" x2="360.178" y2="235.985" gradientUnits="userSpaceOnUse">
<stop offset="0.6097" stop-color="#F2F2F2"/>
<stop offset="0.8149" stop-color="#E6E6E6"/>
</linearGradient>
<linearGradient id="paint13_linear" x1="354.766" y1="123.041" x2="354.766" y2="219.613" gradientUnits="userSpaceOnUse">
<stop stop-color="#603813"/>
<stop offset="0.6572" stop-color="#B3B3B3"/>
<stop offset="1"/>
</linearGradient>
<linearGradient id="paint14_linear" x1="285.049" y1="227.854" x2="278.318" y2="262.314" gradientUnits="userSpaceOnUse">
<stop stop-color="#AA6F5B"/>
<stop offset="1" stop-color="#965042"/>
</linearGradient>
<linearGradient id="paint15_linear" x1="300.135" y1="230.336" x2="293.057" y2="265.42" gradientUnits="userSpaceOnUse">
<stop stop-color="#AA6F5B"/>
<stop offset="1" stop-color="#965042"/>
</linearGradient>
<linearGradient id="paint16_linear" x1="270.032" y1="225.054" x2="263.221" y2="259.942" gradientUnits="userSpaceOnUse">
<stop stop-color="#AA6F5B"/>
<stop offset="1" stop-color="#965042"/>
</linearGradient>
<linearGradient id="paint17_linear" x1="275.867" y1="225.997" x2="268.978" y2="260.774" gradientUnits="userSpaceOnUse">
<stop stop-color="#AA6F5B"/>
<stop offset="1" stop-color="#965042"/>
</linearGradient>
<linearGradient id="paint18_linear" x1="284.293" y1="227.721" x2="277.517" y2="262.409" gradientUnits="userSpaceOnUse">
<stop stop-color="#AA6F5B"/>
<stop offset="1" stop-color="#965042"/>
</linearGradient>
<linearGradient id="paint19_linear" x1="292.614" y1="229.649" x2="285.825" y2="264.377" gradientUnits="userSpaceOnUse">
<stop stop-color="#AA6F5B"/>
<stop offset="1" stop-color="#965042"/>
</linearGradient>
<linearGradient id="paint20_linear" x1="538.931" y1="117.492" x2="678.528" y2="392.105" gradientUnits="userSpaceOnUse">
<stop stop-color="white"/>
<stop offset="1" stop-color="white" stop-opacity="0.9"/>
</linearGradient>
<clipPath id="clip0">
<rect width="798" height="552" fill="white"/>
</clipPath>
<clipPath id="clip1">
<rect width="496.762" height="346.868" fill="white" transform="translate(112.169 125.395)"/>
</clipPath>
</defs>
</svg>
