<?xml version="1.0" encoding="utf-8"?>
<!-- Generator: Adobe Illustrator 23.0.1, SVG Export Plug-In . SVG Version: 6.00 Build 0)  -->
<svg version="1.1" id="Layer_1" xmlns="http://www.w3.org/2000/svg" xmlns:xlink="http://www.w3.org/1999/xlink" x="0px" y="0px"
	 viewBox="0 0 745 572" style="enable-background:new 0 0 745 572;" xml:space="preserve">
<style type="text/css">
	.st0{clip-path:url(#SVGID_2_);}
	.st1{fill:#45A7FF;}
	.st2{fill:#F49684;}
	.st3{fill:#C9318C;}
	.st4{fill:#FFAF9C;}
	.st5{fill:#EAA48F;}
	.st6{fill:#F42F2F;}
	.st7{fill:#064CBC;}
	.st8{fill:#D31818;}
	.st9{fill:#E553A3;}
	.st10{fill:#FFFFFF;}
	.st11{fill:#FC9A86;}
	.st12{fill:#303030;}
	.st13{fill:#F98F80;}
	.st14{fill:#DD816F;}
	.st15{fill:#512720;}
	.st16{fill:#FF69AD;}
	.st17{fill:#D88E7D;}
	.st18{fill:#DB2882;}
	.st19{fill:#A63FEF;}
	.st20{fill:#704035;}
	.st21{fill:#BC695B;}
	.st22{fill:#1A1A1A;}
	.st23{fill:#F76C66;}
	.st24{fill:#E6E7E8;}
	.st25{fill:#760DD3;}
	.st26{fill:#C17956;}
	.st27{fill:#AA5D52;}
	.st28{fill:#333333;}
	.st29{fill:#D8BF8B;}
	.st30{fill:#B59661;}
	.st31{fill:#75D353;}
	.st32{fill:#EAEAEA;}
	.st33{fill:#D8D8D8;}
	.st34{fill:#F2F2F2;}
	.st35{fill:#FFC9C0;}
	.st36{fill:#009345;}
	.st37{fill:#FFC338;}
	.st38{fill:#A86145;}
	.st39{fill:#492420;}
	.st40{fill:#93523B;}
	.st41{fill:#9E5447;}
	.st42{fill:#683631;}
	.st43{fill:#41352E;}
	.st44{fill:#FFE9E9;}
	.st45{fill:#1E140C;}
	.st46{fill:#4D4D4D;}
	.st47{fill:#603813;}
	.st48{fill:#EA5334;}
	.st49{clip-path:url(#SVGID_4_);}
	.st50{opacity:0.2;fill:#383838;enable-background:new    ;}
	.st51{fill:#383838;}
	.st52{fill:#64BDFF;}
	.st53{fill:#D5DBDE;}
	.st54{opacity:0.15;enable-background:new    ;}
	.st55{fill:#EDF6FD;}
	.st56{fill:#DFE8EF;}
	.st57{fill:#EFEFEF;}
	.st58{fill:#C7E0FF;}
	.st59{fill:#2E83FF;}
	.st60{fill:#FFC1B0;}
	.st61{fill:#8C423B;}
	.st62{fill:#A3514D;}
	.st63{fill:none;stroke:#FFC1B0;stroke-width:7.5532;stroke-linecap:round;stroke-miterlimit:10;}
	.st64{opacity:0.2;enable-background:new    ;}
	.st65{fill:#816056;}
	.st66{fill:#A0776D;}
	.st67{fill:#75D85D;}
	.st68{fill:#54C634;}
	.st69{clip-path:url(#SVGID_6_);}
	.st70{fill:#DDB797;}
	.st71{fill:none;stroke:#7F605E;stroke-width:10.0118;stroke-linecap:round;stroke-miterlimit:10;}
	.st72{fill:#CE9772;}
	.st73{fill:#EDD0B4;}
	.st74{fill:#C4A183;}
	.st75{fill:#C99B79;}
	.st76{fill:#F2C8AD;}
	.st77{fill:#489BFF;}
	.st78{fill:#F9CC3D;}
	.st79{fill:#49557A;}
	.st80{fill:#42991D;}
	.st81{fill:#F9A819;}
	.st82{fill:#494949;}
	.st83{opacity:0.5;fill:url(#SVGID_7_);enable-background:new    ;}
	.st84{fill:#FFD066;}
	.st85{fill:#FCC846;}
	.st86{fill:#FFF9F0;}
	.st87{fill:#FFDC78;}
	.st88{fill:#4D545E;}
	.st89{fill:#B7B7B7;}
	.st90{opacity:0.5;fill:url(#SVGID_8_);enable-background:new    ;}
	.st91{opacity:0.5;fill:url(#SVGID_9_);enable-background:new    ;}
	.st92{opacity:0.5;fill:url(#SVGID_10_);enable-background:new    ;}
	.st93{fill:#FF6161;}
	.st94{fill:#D31E1E;}
	.st95{fill:none;stroke:#303030;stroke-width:0.8213;stroke-linecap:round;stroke-miterlimit:10;}
	.st96{clip-path:url(#SVGID_12_);}
	.st97{fill:#EAAFA9;}
	.st98{fill:#DD8783;}
	.st99{fill:none;stroke:#EAAFA9;stroke-width:20.5865;stroke-linecap:round;stroke-miterlimit:10;}
	.st100{fill:none;stroke:#EAAFA9;stroke-width:10.2933;stroke-linecap:round;stroke-miterlimit:10;}
	.st101{fill:none;stroke:#FCCAC8;stroke-width:10.2933;stroke-linecap:round;stroke-miterlimit:10;}
	.st102{fill:#156ECE;}
	.st103{fill:#FEC337;}
</style>
<title>people</title>
<g>
	<g>
		<g>
			<defs>
				<path id="SVGID_1_" d="M743.6,151.8V21.5c0-12-9.7-21.7-21.7-21.7H143c-19,0-28.8,22.6-15.8,36.5L338,261.5
					c5.4,5.8,13.6,8.2,21.3,6.2l368.1-94.9C736.9,170.3,743.6,161.7,743.6,151.8z"/>
			</defs>
			<clipPath id="SVGID_2_">
				<use xlink:href="#SVGID_1_"  style="overflow:visible;"/>
			</clipPath>
			<g class="st0">
				<rect x="60.6" y="-29.8" class="st1" width="757.3" height="366.9"/>
				<rect x="573.7" y="237.5" class="st2" width="16.3" height="57.5"/>
				<path class="st2" d="M558,303h30.1c1.1,0,1.9-0.9,1.9-1.9c0,0,0,0,0,0v-10.5h-24.6c-5.2,0-9.4,4.2-9.4,9.4v1.1
					C556.1,302.1,556.9,303,558,303C558,303,558,303,558,303z"/>
				<path class="st3" d="M581.9,298.7c-4.5,0-8.2-3.7-8.2-8.2l0,0h-8.3c-5.2,0-9.4,4.2-9.4,9.4v1.1c0,1.1,0.9,1.9,1.9,1.9
					c0,0,0,0,0,0h30.1c1.1,0,1.9-0.9,1.9-1.9c0,0,0,0,0,0v-10.5C590,295,586.4,298.7,581.9,298.7z"/>
				<path class="st4" d="M509.4,185.7c-4,0-7.3-3.3-7.3-7.3c0-3.5,2.5-6.5,5.8-7.1c51-10.3,52.8-29.3,52.8-29.5c0,0.1,0,0.2,0,0.3
					l14.6-0.4c0.1,3.1-1,31.1-64.5,44C510.4,185.6,509.9,185.7,509.4,185.7z"/>
				<path class="st4" d="M516.8,174.1c-0.7,0-1.4-0.3-2-0.8l-4.9-4.5c-1.2-1.1-1.3-2.9-0.3-4.1c1.1-1.2,2.9-1.3,4.1-0.3
					c0,0,0,0,0.1,0l4.9,4.5c1.2,1.1,1.3,2.9,0.2,4.1C518.4,173.7,517.7,174.1,516.8,174.1L516.8,174.1z"/>
				<path class="st5" d="M319.8,200.2c-0.7,0-1.3-0.2-1.8-0.6l-5.2-4.1c-1.3-1-1.5-2.8-0.5-4.1c1-1.3,2.8-1.5,4.1-0.5
					c0,0,0,0,0.1,0.1l5.2,4.1c1.3,1,1.5,2.8,0.5,4.1C321.6,199.8,320.7,200.2,319.8,200.2z"/>
				<path class="st6" d="M552.7,142.5l15.4-16.2c4.8-5.1,12.8-5.3,17.9-0.4l0,0c5.1,4.8,5.3,12.8,0.4,17.9L571,160
					c-0.7,0.8-2,0.8-2.7,0.1l-15.5-14.8C552,144.6,551.9,143.3,552.7,142.5L552.7,142.5L552.7,142.5z"/>
				<rect x="595.8" y="237.5" class="st4" width="16.3" height="57.5"/>
				<rect x="573.7" y="237.5" class="st7" width="16.3" height="37.2"/>
				<rect x="595.8" y="237.5" class="st7" width="16.3" height="37.2"/>
				<path class="st4" d="M580.2,303h30.1c1.1,0,1.9-0.9,1.9-1.9c0,0,0,0,0,0v-10.5h-24.6c-5.2,0-9.4,4.2-9.4,9.4v1.1
					C578.2,302.1,579.1,303,580.2,303z"/>
				<path class="st6" d="M577.4,122.1h29.9c6.7,0,12.2,5.5,12.2,12.2l-2.4,50l2.4,60.2c0,1.1-0.9,1.9-1.9,1.9l0,0h-50.3
					c-1.1,0-1.9-0.9-1.9-1.9l0,0l2.9-60.2l-2.9-50C565.3,127.5,570.7,122.1,577.4,122.1C577.4,122.1,577.4,122.1,577.4,122.1z"/>
				<rect x="576.6" y="162.1" class="st8" width="30.1" height="2.9"/>
				<path class="st9" d="M604,298.7c-4.5,0-8.2-3.7-8.2-8.2l0,0h-8.2c-5.2,0-9.4,4.2-9.4,9.4v1.1c0,1.1,0.9,1.9,1.9,1.9c0,0,0,0,0,0
					h30.1c1.1,0,1.9-0.9,1.9-1.9c0,0,0,0,0,0v-10.5C612.2,295,608.5,298.7,604,298.7C604,298.7,604,298.7,604,298.7z"/>
				<path class="st4" d="M619.2,216.3c-0.4,0-0.8,0-1.3-0.1c-4-0.7-6.6-4.5-5.9-8.4c8.9-51.3-8.2-59.8-8.3-59.9
					c0.1,0,0.2,0.1,0.3,0.1l4.9-13.7c3,1.1,28.6,12.2,17.5,76.1C625.8,213.7,622.7,216.3,619.2,216.3z"/>
				<path class="st4" d="M609.2,205.3c-1.6,0-2.9-1.3-2.9-2.9c0-1.1,0.6-2.1,1.6-2.6l5.9-3c1.4-0.7,3.2-0.1,3.9,1.3
					c0.7,1.4,0.1,3.2-1.3,3.9l-5.9,3C610.1,205.2,609.7,205.3,609.2,205.3z"/>
				<path class="st6" d="M607.4,160.8l-11-19.5c-3.4-6.1-1.3-13.8,4.8-17.2l0,0c6.1-3.4,13.8-1.3,17.2,4.8l11,19.5
					c0.5,0.9,0.2,2.1-0.7,2.6l0,0l-18.7,10.5C609.2,162,608,161.7,607.4,160.8C607.4,160.8,607.4,160.8,607.4,160.8z"/>
				<circle class="st10" cx="618.8" cy="99.1" r="12.3"/>
				<circle class="st10" cx="571" cy="99.1" r="12.3"/>
				<circle class="st10" cx="606.5" cy="106.8" r="12.3"/>
				<circle class="st10" cx="583.5" cy="106.8" r="12.3"/>
				<circle class="st10" cx="624" cy="85.4" r="12.3"/>
				<circle class="st10" cx="567.3" cy="87.1" r="15.4"/>
				<circle class="st10" cx="571.4" cy="67.1" r="15.4"/>
				<path class="st11" d="M599.8,133.8h-16c-3.2,0-5.8-2.6-5.8-5.8v0c0-3.2,2.6-5.8,5.8-5.8h16c3.2,0,5.8,2.6,5.8,5.8v0
					C605.6,131.2,603,133.8,599.8,133.8z"/>
				<path class="st11" d="M591.8,129.4L591.8,129.4c-3.2,0-5.9-2.6-5.9-5.9v-9.4l0,0h11.7l0,0v9.4
					C597.7,126.8,595,129.4,591.8,129.4C591.8,129.4,591.8,129.4,591.8,129.4z"/>
				<circle class="st11" cx="617.1" cy="90" r="8.1"/>
				<circle class="st11" cx="566.5" cy="90" r="8.1"/>
				<path class="st4" d="M591.8,56.5L591.8,56.5c13.9,0,25.3,11.3,25.3,25.3v12.4c0,13.9-11.3,25.3-25.3,25.3h0
					c-13.9,0-25.3-11.3-25.3-25.3V81.7C566.5,67.8,577.9,56.5,591.8,56.5z"/>
				<circle class="st12" cx="574.3" cy="87.6" r="2.6"/>
				<circle class="st12" cx="598.8" cy="87.6" r="2.6"/>
				<path class="st13" d="M575.5,95.7c-2.3,0-4.5-1.2-5.6-3.2c-0.4-0.6-0.2-1.3,0.4-1.7c0.6-0.4,1.3-0.2,1.7,0.4c0,0,0,0.1,0.1,0.1
					c1.1,1.9,3.6,2.6,5.5,1.5c0.6-0.4,1.1-0.9,1.5-1.5c0.3-0.6,1.1-0.8,1.7-0.5c0.6,0.3,0.8,1.1,0.5,1.7
					C580,94.5,577.8,95.7,575.5,95.7z"/>
				<path class="st13" d="M600.1,95.7c-2.3,0-4.5-1.2-5.6-3.2c-0.4-0.6-0.2-1.3,0.4-1.7c0.6-0.4,1.3-0.2,1.7,0.4c0,0,0,0,0,0.1
					c1.1,1.9,3.6,2.6,5.5,1.5c0.6-0.4,1.1-0.9,1.5-1.5c0.3-0.6,1.1-0.8,1.7-0.5c0.6,0.3,0.8,1.1,0.5,1.7
					C604.5,94.5,602.4,95.7,600.1,95.7z"/>
				<path class="st12" d="M570.2,84c-0.7,0-1.2-0.6-1.2-1.2c0-0.1,0-0.3,0.1-0.4c1.2-3.2,4.7-4.8,7.9-3.6c0.6,0.3,0.9,1,0.7,1.6
					c-0.2,0.6-0.9,0.9-1.5,0.7c-1.9-0.7-4,0.3-4.7,2.2C571.1,83.7,570.7,84,570.2,84z"/>
				<path class="st12" d="M603.2,84c-0.5,0-1-0.3-1.2-0.8c-0.7-1.9-2.8-2.9-4.7-2.2c-0.6,0.2-1.4-0.1-1.6-0.7s0.1-1.4,0.7-1.6
					c3.2-1.2,6.7,0.5,7.9,3.6c0.2,0.6-0.1,1.4-0.7,1.6C603.5,84,603.3,84,603.2,84L603.2,84z"/>
				<circle class="st10" cx="592.3" cy="61.5" r="12.3"/>
				<circle class="st10" cx="574.6" cy="58.2" r="12.3"/>
				<circle class="st10" cx="611.7" cy="54.9" r="14.8"/>
				<circle class="st10" cx="589.7" cy="51.9" r="15"/>
				<circle class="st10" cx="623" cy="70.5" r="12.3"/>
				<circle class="st10" cx="608.8" cy="64.9" r="8.9"/>
				<circle class="st10" cx="619.5" cy="76.5" r="8.9"/>
				<path class="st14" d="M587.9,101.3h-2.9c-1.3,0-2.4-1.1-2.4-2.4v-5c0-0.7,0.5-1.3,1.2-1.3c0.7,0,1.3,0.5,1.3,1.2c0,0,0,0,0,0.1
					v4.8h2.7c0.7,0,1.3,0.5,1.3,1.2C589.3,100.7,588.7,101.3,587.9,101.3C588,101.3,588,101.3,587.9,101.3L587.9,101.3z"/>
				<path class="st14" d="M589.4,110.3c-2.9,0-5.8-0.9-8.2-2.5c-0.6-0.4-0.8-1.2-0.4-1.8c0.4-0.6,1.2-0.8,1.8-0.4c0,0,0,0,0,0
					c4.1,2.8,9.5,2.8,13.6,0c0.6-0.4,1.4-0.2,1.8,0.4c0.4,0.6,0.2,1.3-0.3,1.7C595.2,109.5,592.3,110.3,589.4,110.3z"/>
				<circle class="st15" cx="330.1" cy="45.2" r="24.3"/>
				<circle class="st16" cx="340.6" cy="54.9" r="14.9"/>
				<rect x="351.4" y="236.4" class="st17" width="16.3" height="57.5"/>
				<path class="st17" d="M383.4,301.9h-30.1c-1.1,0-1.9-0.9-1.9-1.9c0,0,0,0,0,0v-10.5H376c5.2,0,9.4,4.2,9.4,9.4c0,0,0,0,0,0v1.1
					C385.4,301,384.5,301.9,383.4,301.9z"/>
				<path class="st18" d="M348.2,298h36.8c1.1,0,2,0.9,2,2l0,0c0,1.1-0.9,2-2,2h-36.8c-1.1,0-2-0.9-2-2l0,0
					C346.2,298.9,347.1,298,348.2,298z"/>
				<path class="st17" d="M383.6,204.6c-1.8,0-3.5-0.6-4.8-1.8l-3.8-3.4c-5.2-4.6-6.8-12-3.9-18.3l9.6-21c0.1-0.3,0.1-0.6-0.1-0.8
					l-18.4-23.5c-2.5-3.2-1.9-7.8,1.2-10.2c3.2-2.5,7.8-1.9,10.2,1.2l18.4,23.5c3.6,4.5,4.3,10.6,1.9,15.9l-9.6,21
					c-0.2,0.4-0.1,1,0.3,1.3l3.8,3.4c3,2.7,3.3,7.3,0.7,10.3C387.7,203.7,385.7,204.6,383.6,204.6L383.6,204.6z"/>
				<path class="st19" d="M370.7,158.6l-15.4-16.2c-4.8-5.1-4.6-13.1,0.4-17.9l0,0l0,0c5.1-4.8,13.1-4.6,17.9,0.4l0,0l15.4,16.2
					c0.7,0.8,0.7,2-0.1,2.8l-15.5,14.8C372.7,159.4,371.4,159.4,370.7,158.6z"/>
				<rect x="329.2" y="236.4" class="st5" width="16.3" height="57.5"/>
				<path class="st5" d="M361.3,301.9h-30.1c-1.1,0-1.9-0.9-1.9-1.9c0,0,0,0,0,0v-10.5h24.6c5.2,0,9.4,4.2,9.4,9.4c0,0,0,0,0,0v1.1
					C363.2,301,362.3,301.9,361.3,301.9z"/>
				<path class="st19" d="M364,121h-29.9c-6.7,0-12.2,5.5-12.2,12.2l2.4,50l-2.4,60.2c0,1.1,0.9,1.9,1.9,1.9l0,0h50.3
					c1.1,0,1.9-0.9,1.9-1.9c0,0,0,0,0,0l-2.9-60.2l2.9-50C376.2,126.5,370.7,121,364,121L364,121z"/>
				<path class="st17" d="M343.8,113h11.7l0,0v9.4c0,3.2-2.6,5.9-5.9,5.9l0,0c-3.2,0-5.9-2.6-5.9-5.9L343.8,113L343.8,113z"/>
				<path class="st20" d="M349.9,43L349.9,43c16.3,0,29.5,13.2,29.5,29.5c0,0,0,0,0,0v16.4l0,0h-59.1l0,0V72.6
					C320.4,56.2,333.6,43,349.9,43L349.9,43L349.9,43z"/>
				<circle class="st17" cx="324.4" cy="88.9" r="8.1"/>
				<circle class="st17" cx="374.9" cy="88.9" r="8.1"/>
				<path class="st5" d="M324.4,66v27.1c0,13.9,11.3,25.3,25.3,25.3l0,0c13.9,0,25.2-11.3,25.2-25.3V66H324.4z"/>
				<path class="st20" d="M347.9,64.8h-23.5c4.8,11,15.6,18.1,27.6,18.1V71.6c5.7,7.2,14.4,11.3,23.5,11.3V64.8H347.9z"/>
				<path class="st20" d="M334,82.9c-0.7,0-1.3-0.6-1.3-1.3c0-0.5,0.4-1,0.9-1.2l6.1-2c0.7-0.2,1.4,0.1,1.6,0.8s-0.1,1.4-0.8,1.6
					l0,0l-6.1,2C334.3,82.9,334.2,82.9,334,82.9z"/>
				<path class="st20" d="M365.2,82.8c-0.1,0-0.3,0-0.4-0.1l-6.1-2c-0.7-0.2-1-0.9-0.8-1.6s0.9-1,1.6-0.8l0,0l6.1,2
					c0.7,0.2,1,0.9,0.8,1.6C366.2,82.4,365.8,82.8,365.2,82.8z"/>
				<path class="st21" d="M350.9,99.6H348c-0.7,0-1.3-0.6-1.2-1.3c0-0.7,0.6-1.2,1.2-1.2h2.7v-4.8c0-0.7,0.6-1.3,1.3-1.2
					c0.7,0,1.2,0.6,1.2,1.2v5C353.3,98.5,352.2,99.6,350.9,99.6z"/>
				<path class="st21" d="M344,90.5c-0.6,0-1.1-0.4-1.2-1c-0.4-1.7-2.1-2.8-3.9-2.5c-1.2,0.3-2.2,1.2-2.5,2.5
					c-0.2,0.7-0.9,1.1-1.5,0.9c-0.7-0.2-1.1-0.8-0.9-1.5c0.7-3.1,3.8-5.1,6.9-4.4c2.2,0.5,3.9,2.2,4.4,4.4c0.2,0.7-0.3,1.4-1,1.5
					C344.2,90.5,344.1,90.5,344,90.5z"/>
				<path class="st21" d="M364,90.5c-0.6,0-1.1-0.4-1.2-1c-0.4-1.7-2.1-2.8-3.9-2.5c-1.2,0.3-2.2,1.2-2.5,2.5
					c-0.2,0.7-0.9,1.1-1.5,0.9c-0.7-0.2-1.1-0.8-0.9-1.5c0.7-3.1,3.8-5.1,6.9-4.4c2.2,0.5,3.9,2.2,4.4,4.4c0.2,0.7-0.3,1.4-1,1.5
					C364.2,90.5,364.1,90.5,364,90.5z"/>
				<path class="st22" d="M357.1,103.3c0.8,0,1.4,0.6,1.4,1.4c0,0.1,0,0.2,0,0.2c-0.9,4.9-5.6,8.2-10.6,7.3
					c-3.7-0.7-6.6-3.6-7.3-7.3c-0.1-0.8,0.4-1.5,1.2-1.6c0.1,0,0.2,0,0.2,0H357.1z"/>
				<path class="st23" d="M351.3,108.8c-2,0.6-3.5,2.1-3.6,3.4c3.1,0.7,6.3-0.3,8.4-2.6C355.3,108.6,353.3,108.2,351.3,108.8z"/>
				<path class="st24" d="M357.1,103.3h-15c-0.8,0-1.4,0.6-1.4,1.4c0,0.1,0,0.2,0,0.2c0.1,0.5,0.2,1,0.4,1.5h17.1
					c0.2-0.5,0.3-1,0.4-1.5c0.1-0.8-0.4-1.5-1.2-1.6C357.3,103.3,357.2,103.3,357.1,103.3z"/>
				<path class="st16" d="M326.9,298h36.8c1.1,0,2,0.9,2,2l0,0c0,1.1-0.9,2-2,2h-36.8c-1.1,0-2-0.9-2-2l0,0
					C324.9,298.9,325.8,298,326.9,298z"/>
				<path class="st16" d="M353.3,300.9c-1.1,0-1.9-0.9-1.9-2c0-0.3,0.1-0.6,0.2-0.8c1.9-4,5.7-6.7,10.1-7c1.1-0.1,2,0.7,2.1,1.8
					c0.1,1.1-0.7,2-1.8,2.1c-3,0.3-5.6,2.1-6.9,4.8C354.8,300.4,354.1,300.9,353.3,300.9z"/>
				<path class="st18" d="M375.2,300.9c-1.1,0-1.9-0.9-1.9-2c0-0.3,0.1-0.6,0.2-0.8c1.9-4,5.7-6.7,10.1-7c1.1-0.1,2,0.7,2.1,1.8
					c0.1,1.1-0.7,2-1.8,2.1l0,0c-3,0.3-5.6,2.1-6.9,4.8C376.6,300.4,376,300.9,375.2,300.9z"/>
				<rect x="332" y="161" class="st25" width="35.3" height="2.9"/>
				<path class="st26" d="M370.3,238.9c-2.4,0-4.4-2-4.4-4.4c0-1.9,1.2-3.6,3-4.2c0.8-0.3,17.4-6.3,21.6-31.6c0.4-2.4,2.7-4,5.1-3.5
					c2.3,0.4,3.9,2.6,3.6,5c-5.2,30.9-26.6,38.2-27.5,38.5C371.2,238.8,370.7,238.9,370.3,238.9z"/>
				<path class="st27" d="M511.3,187.5c-0.5,0-1,0-1.5-0.1c-63.5-12.9-64.6-40.8-64.5-44l14.6,0.4c0-0.1,0-0.2,0-0.3
					c0,0.2,1.8,19.2,52.8,29.6c4,0.8,6.5,4.7,5.7,8.6C517.8,185.1,514.8,187.5,511.3,187.5L511.3,187.5z"/>
				<path class="st27" d="M503.9,175.9c-1.6,0-2.9-1.3-2.9-2.9c0-0.8,0.3-1.6,1-2.2l4.9-4.5c1.2-1.1,3-1,4.1,0.2s1,3-0.2,4.1
					c0,0,0,0,0,0l-4.9,4.5C505.3,175.7,504.6,175.9,503.9,175.9z"/>
				<path class="st27" d="M392.8,206.3c-0.1,0-0.2,0-0.3,0c-4-0.1-7.2-3.5-7-7.5c0,0,0,0,0,0c2.2-64.8,29.7-70.4,32.8-70.8l2,14.5
					c0.1,0,0.2,0,0.3-0.1c-0.2,0-18.7,4.9-20.5,56.9C400,203.2,396.7,206.3,392.8,206.3z"/>
				<path class="st28" d="M418.8,121.5h29.9c6.7,0,12.2,5.5,12.2,12.2v65.5c0,1.1-0.9,1.9-1.9,1.9h-50.3c-1.1,0-1.9-0.9-1.9-1.9
					v-65.5C406.6,127,412.1,121.5,418.8,121.5z"/>
				<rect x="408.7" y="201.2" class="st29" width="50.2" height="86.3"/>
				<path class="st30" d="M408.8,216.2v-2.8c6.7,0,12.2-5.5,12.2-12.2h2.8C423.8,209.5,417.1,216.2,408.8,216.2z"/>
				<path class="st30" d="M458.8,216.2c-8.3,0-15-6.7-15-15h2.8c0,6.7,5.5,12.2,12.2,12.2V216.2z"/>
				<rect x="432.4" y="217.7" class="st30" width="2.8" height="69.8"/>
				<rect x="428.9" y="215.8" class="st30" width="9.7" height="2.8"/>
				<path class="st31" d="M402.3,287.5h30.1v13.2c0,1.1-0.9,2-2,2l0,0H402v-15.2C402.1,287.5,402.2,287.5,402.3,287.5z"/>
				<path class="st32" d="M389.2,299c1.2-4.5,4.4-11.4,12.8-11.5v15.2h-9.9c-1.6,0-3-1.3-3-3C389.1,299.5,389.1,299.3,389.2,299z"/>
				<path class="st33" d="M432,303.4h-42.8c-1.1,0-2-0.9-2-2l0,0c0-1.1,0.9-2,2-2H432c1.1,0,2,0.9,2,2l0,0
					C433.9,302.5,433,303.4,432,303.4z"/>
				<path class="st34" d="M419.7,293.7H410c-0.9,0-1.7-0.7-1.7-1.7v0v-4.5l0,0h13.1l0,0v4.5C421.4,293,420.6,293.7,419.7,293.7z"/>
				<path class="st31" d="M465.3,287.5h-30.1v13.2c0,1.1,0.9,2,2,2l0,0h28.4v-15.2C465.5,287.5,465.4,287.5,465.3,287.5z"/>
				<path class="st32" d="M478.4,299c-1.2-4.5-4.4-11.4-12.8-11.5v15.2h9.9c1.6,0,3-1.3,3-3C478.5,299.5,478.5,299.3,478.4,299z"/>
				<path class="st33" d="M435.6,299.4h42.8c1.1,0,2,0.9,2,2l0,0c0,1.1-0.9,2-2,2h-42.8c-1.1,0-2-0.9-2-2l0,0
					C433.7,300.3,434.6,299.4,435.6,299.4z"/>
				<path class="st34" d="M446.2,287.5h13.1l0,0v4.5c0,0.9-0.7,1.7-1.7,1.7h0h-9.7c-0.9,0-1.7-0.7-1.7-1.7v0L446.2,287.5
					L446.2,287.5z"/>
				
					<rect x="362.1" y="278.8" transform="matrix(0.9962 -8.745132e-02 8.745132e-02 0.9962 -23.9004 33.0378)" class="st35" width="6.1" height="21"/>
				<path class="st28" d="M381.4,301.1c0-1.9-1.2-3.6-3-4.2l-8.1-2.9l-0.2-0.4c-0.2-0.5-0.8-0.8-1.3-0.6c-0.5,0.2-0.8,0.8-0.6,1.3
					l0.2,0.5c0.6,1.6-0.1,3.3-1.7,4c-0.4,0.1-0.7,0.2-1.1,0.2l0,0c-0.8,0-1.6-0.2-2.3-0.6c-0.4-0.2-0.9-0.1-1.2,0.3
					c-0.1,0.1-0.1,0.3-0.1,0.4l0,3c0,0.5,0.4,0.9,1,0.9l16.5-0.1C380.5,303,381.4,302.2,381.4,301.1
					C381.4,301.1,381.4,301.1,381.4,301.1L381.4,301.1z"/>
				
					<rect x="338.6" y="286.5" transform="matrix(7.302418e-02 -0.9973 0.9973 7.302418e-02 34.8353 616.5246)" class="st26" width="21" height="6.1"/>
				<path class="st36" d="M361.1,291.4l8.9-0.6c1-0.1,1.8-1,1.7-2c0,0,0,0,0,0l-1.3-18.1l0-1.1l-26.4,0.2l0,1.1l-1,18.1
					c-0.1,1,0.7,1.9,1.7,1.9l8.9,0.5c1,0.1,1.9-0.7,1.9-1.7c0,0,0,0,0,0l0.5-9.9l2.3,0l0.7,9.9C359.2,290.7,360.1,291.5,361.1,291.4
					z"/>
				<path class="st28" d="M352.5,299.3c0-0.5-0.4-0.9-0.9-0.9c-0.2,0-0.3,0-0.4,0.1c-0.7,0.4-1.5,0.6-2.3,0.6l0,0
					c-1.7,0-3.1-1.4-3.1-3c0-0.4,0.1-0.8,0.2-1.1l0.2-0.5c0.2-0.5-0.1-1.1-0.6-1.3c-0.5-0.2-1.1,0.1-1.3,0.6l-0.2,0.4l-8.1,3
					c-1.8,0.7-3,2.4-3,4.3l0,0c0,1.1,0.9,1.9,1.9,1.9c0,0,0,0,0,0l16.5-0.1c0.5,0,0.9-0.4,0.9-1c0,0,0,0,0,0L352.5,299.3z"/>
				<path class="st37" d="M354.5,229l4.8,0c6.7,0,12.2,5.4,12.3,12.1l0.2,28.3c0,0.5-0.4,1-1,1c0,0,0,0,0,0l-27.2,0.2
					c-0.5,0-1-0.4-1-1c0,0,0,0,0,0l-0.2-28.3C342.3,234.6,347.8,229.1,354.5,229L354.5,229z"/>
				<path class="st26" d="M334,256.1c-2.4,0-4.4-2-4.4-4.4c0-1.1,0.4-2.1,1.1-2.9l6.1-6.8c1.6-1.8,4.4-2,6.2-0.3
					c1.8,1.6,2,4.4,0.3,6.2l-6.1,6.8C336.4,255.6,335.2,256.1,334,256.1z"/>
				<path class="st37" d="M334.6,240l7.6-8.2c2.5-2.7,6.7-2.8,9.3-0.3l0,0c2.7,2.5,2.8,6.7,0.3,9.3l-7.6,8.2
					c-0.6,0.6-1.6,0.7-2.2,0.1l-7.4-6.9C334.1,241.6,334.1,240.6,334.6,240z"/>
				<path class="st26" d="M352.5,256.6h-0.1l-18.5-0.5c-2.4-0.1-4.3-2.1-4.3-4.5c0.1-2.4,2.1-4.3,4.5-4.3l0,0l18.5,0.5
					c2.4,0.1,4.3,2.1,4.3,4.5C356.9,254.7,354.9,256.6,352.5,256.6L352.5,256.6z"/>
				<path class="st26" d="M347.3,250.7L347.3,250.7c-0.9-0.4-1.2-1.5-0.8-2.3l1.5-3.2c0.4-0.9,1.5-1.2,2.3-0.8l0,0
					c0.9,0.4,1.2,1.5,0.8,2.3l-1.5,3.2C349.2,250.8,348.2,251.1,347.3,250.7z"/>
				<path class="st37" d="M382.4,235.4l-9.7,5.6c-3.2,1.8-7.2,0.7-9-2.4l0,0c-1.8-3.2-0.7-7.2,2.4-9l9.7-5.6
					c0.7-0.4,1.7-0.2,2.1,0.6c0,0,0,0,0,0l5.1,8.8C383.4,234,383.2,235,382.4,235.4L382.4,235.4z"/>
				<path class="st38" d="M351.9,222.1l9.8-0.1l0,0l0.1,10.1c0,2.7-2.2,4.9-4.9,4.9l0,0c-2.7,0-4.9-2.2-4.9-4.9L351.9,222.1
					L351.9,222.1L351.9,222.1z"/>
				<circle class="st39" cx="359" cy="197.8" r="22.7"/>
				<circle class="st39" cx="347.9" cy="200" r="17"/>
				<circle class="st38" cx="335.5" cy="213.4" r="7"/>
				<circle class="st38" cx="378" cy="212.3" r="7"/>
				<circle class="st26" cx="356.5" cy="209.8" r="22.9"/>
				<path class="st40" d="M357.2,219.5c-2,0-3.9-0.4-5.7-1.2c-0.7-0.3-1-1.1-0.6-1.8c0.3-0.7,1.1-1,1.8-0.7c1.9,0.9,4,1.2,6,0.9
					c0.7-0.1,1.4,0.4,1.6,1.1c0.1,0.7-0.4,1.4-1.1,1.6c0,0,0,0-0.1,0C358.5,219.5,357.9,219.5,357.2,219.5z"/>
				<circle class="st39" cx="348.6" cy="205.9" r="2.4"/>
				<circle class="st39" cx="369.3" cy="205.8" r="2.4"/>
				
					<ellipse transform="matrix(0.3191 -0.9477 0.9477 0.3191 64.5809 473.0446)" class="st39" cx="361.5" cy="191.6" rx="7.8" ry="19.5"/>
				<path class="st39" d="M343.9,203.7c-0.9,0-1.6-0.7-1.6-1.6c0-0.2,0-0.4,0.1-0.5c0.8-2.3,3.4-3.6,5.8-2.7c0.8,0.3,1.2,1.2,1,2
					s-1.2,1.2-2,1c0,0,0,0,0,0c-0.7-0.3-1.5,0.1-1.8,0.8C345.1,203.3,344.5,203.7,343.9,203.7z"/>
				<path class="st39" d="M373,203.4c-0.6,0-1.2-0.4-1.5-1c-0.3-0.7-1.1-1.1-1.8-0.8c-0.8,0.3-1.7-0.1-2-0.9c-0.3-0.8,0.1-1.7,0.9-2
					c2.3-0.9,4.9,0.3,5.8,2.6c0.3,0.8-0.1,1.7-0.9,2C373.4,203.4,373.2,203.4,373,203.4L373,203.4z"/>
				<ellipse class="st38" cx="359.4" cy="210.7" rx="6.4" ry="2.4"/>
				<path class="st28" d="M394.4,142.7l14.7-16.8c4.6-5.3,12.6-5.8,17.9-1.2l0,0c5.3,4.6,5.8,12.6,1.2,17.9l0,0l-14.7,16.8
					c-0.7,0.8-1.9,0.9-2.7,0.2l-16.1-14.1C393.7,144.7,393.7,143.5,394.4,142.7L394.4,142.7z"/>
				<path class="st28" d="M444.3,159.8l-7.9-21c-2.5-6.5,0.9-13.8,7.4-16.3l0,0l0,0c6.5-2.5,13.8,0.9,16.3,7.4l7.9,21
					c0.4,1-0.1,2.1-1.1,2.5l-20,7.5C445.8,161.3,444.6,160.8,444.3,159.8z"/>
				<path class="st41" d="M427.8,116.6h12.6l0,0v10.2c0,3.5-2.8,6.3-6.3,6.3l0,0c-3.5,0-6.3-2.8-6.3-6.3L427.8,116.6L427.8,116.6
					L427.8,116.6z"/>
				<path class="st34" d="M426.4,118.8l-5.3,14.2c-0.4,1,0.1,2.1,1.1,2.5c0.4,0.1,0.7,0.2,1.1,0.1l10.8-2.4L426.4,118.8z"/>
				<path class="st34" d="M441.9,118.8L447,133c0.4,1-0.2,2.1-1.2,2.5c-0.3,0.1-0.7,0.2-1.1,0.1l-10.8-2.4L441.9,118.8z"/>
				<path class="st12" d="M404.4,83.8V71.6c0-16.5,13.4-29.8,29.8-29.8l0,0c16.5,0,29.8,13.4,29.8,29.8v12.3"/>
				<circle class="st41" cx="460.5" cy="90.9" r="8.2"/>
				<circle class="st41" cx="408.6" cy="90.9" r="8.2"/>
				<path class="st27" d="M434.1,123.5L434.1,123.5c-13.9,0-25.3-11.3-25.3-25.3V71.7c0-1.4,1.2-2.6,2.6-2.6c0.2,0,0.4,0,0.6,0.1
					l0,0c14.6,3.3,29.7,3.3,44.2,0l0,0c1.4-0.3,2.8,0.6,3.1,1.9c0,0.2,0.1,0.4,0.1,0.6v26.6C459.3,112.2,448,123.5,434.1,123.5z"/>
				<path class="st42" d="M438.1,101.2h-8.8c-0.8,0-1.4-0.7-1.3-1.4c0-0.7,0.6-1.3,1.3-1.3h8.8c0.8,0,1.4,0.7,1.3,1.4
					C439.4,100.6,438.8,101.2,438.1,101.2z"/>
				<circle class="st12" cx="423.8" cy="87.6" r="2.6"/>
				<circle class="st12" cx="448.3" cy="87.6" r="2.6"/>
				<path class="st43" d="M441.1,107.3c0.7,0,1.3,0.6,1.3,1.3c0,0.1,0,0.1,0,0.2c-0.8,4.6-5.3,7.6-9.9,6.8c-3.5-0.6-6.2-3.3-6.8-6.8
					c-0.1-0.7,0.4-1.4,1.1-1.5c0.1,0,0.1,0,0.2,0H441.1z"/>
				<path class="st23" d="M435.6,112.4c-1.9,0.6-3.2,1.9-3.3,3.2c0.6,0.1,1.2,0.2,1.7,0.2c2.3,0,4.5-0.9,6.1-2.6
					C439.4,112.2,437.5,111.8,435.6,112.4z"/>
				<path class="st24" d="M441.1,107.2h-14c-0.7,0-1.3,0.6-1.3,1.3c0,0.1,0,0.1,0,0.2c0.1,0.5,0.2,0.9,0.4,1.4H442
					c0.2-0.5,0.3-0.9,0.4-1.4c0.1-0.7-0.4-1.4-1.1-1.5C441.2,107.2,441.2,107.2,441.1,107.2z"/>
				<path class="st12" d="M417.7,84c-0.7,0-1.2-0.6-1.2-1.2c0-0.1,0-0.3,0.1-0.4c1.2-3.2,4.7-4.8,7.9-3.6c0.6,0.2,1,0.9,0.7,1.6
					s-0.9,1-1.6,0.7c-1.9-0.7-4,0.3-4.7,2.2c0,0,0,0,0,0C418.7,83.7,418.2,84,417.7,84z"/>
				<path class="st12" d="M450.7,84c-0.5,0-1-0.3-1.2-0.8c-0.7-1.9-2.8-2.9-4.7-2.2c-0.6,0.2-1.4-0.1-1.6-0.7
					c-0.2-0.6,0.1-1.4,0.7-1.6c3.2-1.2,6.7,0.5,7.9,3.6c0.2,0.6-0.1,1.4-0.7,1.6C451,84,450.8,84,450.7,84L450.7,84z"/>
				<path class="st27" d="M403.9,197.5c-0.7,0-1.3-0.2-1.8-0.6l-5.2-4.1c-1.3-1-1.5-2.8-0.5-4.1c1-1.3,2.8-1.5,4.1-0.5l0,0l5.2,4.1
					c1.3,1,1.5,2.8,0.5,4.1C405.7,197.1,404.8,197.5,403.9,197.5L403.9,197.5z"/>
				<circle class="st44" cx="434.2" cy="142.5" r="2.2"/>
				<circle class="st44" cx="434.2" cy="153.2" r="2.2"/>
				<path class="st39" d="M341.8,184c-0.7-0.8-1.6-1.4-2.6-1.7c-0.6-0.1-1.1,0.2-1.2,0.8c-0.1,0.3,0,0.6,0.2,0.8
					c0.4,0.6,0.7,1.3,0.9,2c0.2,1.1,0.1,2.2-0.4,3.1c-0.5,1-1.4,1.7-2.4,2.2c2.4,1,5.2-0.1,6.2-2.5
					C343.1,187.2,342.8,185.4,341.8,184L341.8,184z"/>
				<circle class="st10" cx="584.8" cy="123.5" r="2"/>
				<circle class="st10" cx="589.1" cy="126.3" r="2"/>
				<circle class="st10" cx="594.4" cy="126.3" r="2"/>
				<circle class="st10" cx="598.8" cy="123.5" r="2"/>
				<path class="st45" d="M325.7,198.3v22.5c0,0.3-0.2,0.5-0.5,0.5l0,0h-34c-0.3,0-0.5-0.2-0.5-0.5l0,0v-22.5c0-1.8,1.5-3.3,3.3-3.3
					c0,0,0,0,0,0h28.5C324.2,195,325.6,196.5,325.7,198.3C325.7,198.3,325.7,198.3,325.7,198.3z"/>
				<path class="st46" d="M315.4,201.7L315.4,201.7c1,0,1.8,0.8,1.8,1.8v9.3c0,1-0.8,1.8-1.8,1.8l0,0c-1,0-1.8-0.8-1.8-1.8v-9.3
					C313.6,202.5,314.4,201.7,315.4,201.7z"/>
				<path class="st5" d="M308.2,205.8c-0.1,0-0.2,0-0.3,0c-4-0.1-7.2-3.5-7-7.5c2.2-64.8,29.7-70.4,32.8-70.8l2,14.5
					c0.1,0,0.2,0,0.3-0.1c-0.2,0-18.7,4.9-20.5,56.9C315.3,202.7,312.1,205.8,308.2,205.8z"/>
				<path class="st19" d="M309.7,142.1l14.7-16.8c4.6-5.3,12.6-5.8,17.9-1.2l0,0c5.3,4.6,5.8,12.6,1.2,17.9l0,0l-14.7,16.8
					c-0.7,0.8-1.9,0.9-2.7,0.2l-16.1-14.1C309.1,144.2,309,142.9,309.7,142.1L309.7,142.1z"/>
				<path class="st17" d="M341.6,121.1h16c3.2,0,5.8,2.6,5.8,5.8v0c0,3.2-2.6,5.8-5.8,5.8h-16c-3.2,0-5.8-2.6-5.8-5.8v0
					C335.8,123.7,338.4,121.1,341.6,121.1z"/>
				<path class="st47" d="M595.4,131.8h-2.3v-2.3c0-0.4-0.3-0.7-0.7-0.7l0,0h-1.3c-0.4,0-0.7,0.3-0.7,0.7c0,0,0,0,0,0v2.3h-2.3
					c-0.4,0-0.7,0.3-0.7,0.7c0,0,0,0,0,0v1.3c0,0.4,0.3,0.7,0.7,0.7l0,0h2.3v4.5c0,0.4,0.3,0.7,0.7,0.7l0,0h1.3
					c0.4,0,0.7-0.3,0.7-0.7c0,0,0,0,0,0v-4.5h2.3c0.4,0,0.7-0.3,0.7-0.7c0,0,0,0,0,0v-1.3C596.1,132.2,595.8,131.8,595.4,131.8
					C595.4,131.8,595.4,131.8,595.4,131.8z"/>
				<rect x="573.7" y="237.5" class="st2" width="16.3" height="57.5"/>
				<path class="st2" d="M558,303h30.1c1.1,0,1.9-0.9,1.9-1.9c0,0,0,0,0,0v-10.5h-24.6c-5.2,0-9.4,4.2-9.4,9.4v1.1
					C556.1,302.1,556.9,303,558,303C558,303,558,303,558,303z"/>
				<path class="st3" d="M581.9,298.7c-4.5,0-8.2-3.7-8.2-8.2l0,0h-8.3c-5.2,0-9.4,4.2-9.4,9.4v1.1c0,1.1,0.9,1.9,1.9,1.9
					c0,0,0,0,0,0h30.1c1.1,0,1.9-0.9,1.9-1.9c0,0,0,0,0,0v-10.5C590,295,586.4,298.7,581.9,298.7z"/>
				<path class="st4" d="M509.4,185.7c-4,0-7.3-3.3-7.3-7.3c0-3.5,2.5-6.5,5.8-7.1c51-10.3,52.8-29.3,52.8-29.5c0,0.1,0,0.2,0,0.3
					l14.6-0.4c0.1,3.1-1,31.1-64.5,44C510.4,185.6,509.9,185.7,509.4,185.7z"/>
				<path class="st4" d="M516.8,174.1c-0.7,0-1.4-0.3-2-0.8l-4.9-4.5c-1.2-1.1-1.3-2.9-0.3-4.1c1.1-1.2,2.9-1.3,4.1-0.3
					c0,0,0,0,0.1,0l4.9,4.5c1.2,1.1,1.3,2.9,0.2,4.1C518.4,173.7,517.7,174.1,516.8,174.1L516.8,174.1z"/>
				<path class="st5" d="M319.8,200.2c-0.7,0-1.3-0.2-1.8-0.6l-5.2-4.1c-1.3-1-1.5-2.8-0.5-4.1c1-1.3,2.8-1.5,4.1-0.5
					c0,0,0,0,0.1,0.1l5.2,4.1c1.3,1,1.5,2.8,0.5,4.1C321.6,199.8,320.7,200.2,319.8,200.2z"/>
				<path class="st48" d="M552.7,142.5l15.4-16.2c4.8-5.1,12.8-5.3,17.9-0.4l0,0c5.1,4.8,5.3,12.8,0.4,17.9L571,160
					c-0.7,0.8-2,0.8-2.7,0.1l-15.5-14.8C552,144.6,551.9,143.3,552.7,142.5L552.7,142.5L552.7,142.5z"/>
				<rect x="595.8" y="237.5" class="st4" width="16.3" height="57.5"/>
				<rect x="573.7" y="237.5" class="st7" width="16.3" height="37.2"/>
				<rect x="595.8" y="237.5" class="st7" width="16.3" height="37.2"/>
				<path class="st4" d="M580.2,303h30.1c1.1,0,1.9-0.9,1.9-1.9c0,0,0,0,0,0v-10.5h-24.6c-5.2,0-9.4,4.2-9.4,9.4v1.1
					C578.2,302.1,579.1,303,580.2,303z"/>
				<path class="st48" d="M577.4,122.1h29.9c6.7,0,12.2,5.5,12.2,12.2l-2.4,50l2.4,60.2c0,1.1-0.9,1.9-1.9,1.9l0,0h-50.3
					c-1.1,0-1.9-0.9-1.9-1.9l0,0l2.9-60.2l-2.9-50C565.3,127.5,570.7,122.1,577.4,122.1C577.4,122.1,577.4,122.1,577.4,122.1z"/>
				<rect x="576.6" y="162.1" class="st8" width="30.1" height="2.9"/>
				<path class="st9" d="M604,298.7c-4.5,0-8.2-3.7-8.2-8.2l0,0h-8.2c-5.2,0-9.4,4.2-9.4,9.4v1.1c0,1.1,0.9,1.9,1.9,1.9c0,0,0,0,0,0
					h30.1c1.1,0,1.9-0.9,1.9-1.9c0,0,0,0,0,0v-10.5C612.2,295,608.5,298.7,604,298.7C604,298.7,604,298.7,604,298.7z"/>
				<path class="st4" d="M619.2,216.3c-0.4,0-0.8,0-1.3-0.1c-4-0.7-6.6-4.5-5.9-8.4c8.9-51.3-8.2-59.8-8.3-59.9
					c0.1,0,0.2,0.1,0.3,0.1l4.9-13.7c3,1.1,28.6,12.2,17.5,76.1C625.8,213.7,622.7,216.3,619.2,216.3z"/>
				<path class="st4" d="M609.2,205.3c-1.6,0-2.9-1.3-2.9-2.9c0-1.1,0.6-2.1,1.6-2.6l5.9-3c1.4-0.7,3.2-0.1,3.9,1.3
					c0.7,1.4,0.1,3.2-1.3,3.9l-5.9,3C610.1,205.2,609.7,205.3,609.2,205.3z"/>
				<path class="st48" d="M607.4,160.8l-11-19.5c-3.4-6.1-1.3-13.8,4.8-17.2l0,0c6.1-3.4,13.8-1.3,17.2,4.8l11,19.5
					c0.5,0.9,0.2,2.1-0.7,2.6l0,0l-18.7,10.5C609.2,162,608,161.7,607.4,160.8C607.4,160.8,607.4,160.8,607.4,160.8z"/>
				<circle class="st10" cx="618.8" cy="99.1" r="12.3"/>
				<circle class="st10" cx="571" cy="99.1" r="12.3"/>
				<circle class="st10" cx="606.5" cy="106.8" r="12.3"/>
				<circle class="st10" cx="583.5" cy="106.8" r="12.3"/>
				<circle class="st10" cx="624" cy="85.4" r="12.3"/>
				<circle class="st10" cx="567.3" cy="87.1" r="15.4"/>
				<circle class="st10" cx="571.4" cy="67.1" r="15.4"/>
				<path class="st11" d="M599.8,133.8h-16c-3.2,0-5.8-2.6-5.8-5.8v0c0-3.2,2.6-5.8,5.8-5.8h16c3.2,0,5.8,2.6,5.8,5.8v0
					C605.6,131.2,603,133.8,599.8,133.8z"/>
				<path class="st11" d="M591.8,129.4L591.8,129.4c-3.2,0-5.9-2.6-5.9-5.9v-9.4l0,0h11.7l0,0v9.4
					C597.7,126.8,595,129.4,591.8,129.4C591.8,129.4,591.8,129.4,591.8,129.4z"/>
				<circle class="st11" cx="617.1" cy="90" r="8.1"/>
				<circle class="st11" cx="566.5" cy="90" r="8.1"/>
				<path class="st4" d="M591.8,56.5L591.8,56.5c13.9,0,25.3,11.3,25.3,25.3v12.4c0,13.9-11.3,25.3-25.3,25.3h0
					c-13.9,0-25.3-11.3-25.3-25.3V81.7C566.5,67.8,577.9,56.5,591.8,56.5z"/>
				<circle class="st12" cx="574.3" cy="87.6" r="2.6"/>
				<circle class="st12" cx="598.8" cy="87.6" r="2.6"/>
				<path class="st13" d="M575.5,95.7c-2.3,0-4.5-1.2-5.6-3.2c-0.4-0.6-0.2-1.3,0.4-1.7c0.6-0.4,1.3-0.2,1.7,0.4c0,0,0,0.1,0.1,0.1
					c1.1,1.9,3.6,2.6,5.5,1.5c0.6-0.4,1.1-0.9,1.5-1.5c0.3-0.6,1.1-0.8,1.7-0.5c0.6,0.3,0.8,1.1,0.5,1.7
					C580,94.5,577.8,95.7,575.5,95.7z"/>
				<path class="st13" d="M600.1,95.7c-2.3,0-4.5-1.2-5.6-3.2c-0.4-0.6-0.2-1.3,0.4-1.7c0.6-0.4,1.3-0.2,1.7,0.4c0,0,0,0,0,0.1
					c1.1,1.9,3.6,2.6,5.5,1.5c0.6-0.4,1.1-0.9,1.5-1.5c0.3-0.6,1.1-0.8,1.7-0.5c0.6,0.3,0.8,1.1,0.5,1.7
					C604.5,94.5,602.4,95.7,600.1,95.7z"/>
				<path class="st12" d="M570.2,84c-0.7,0-1.2-0.6-1.2-1.2c0-0.1,0-0.3,0.1-0.4c1.2-3.2,4.7-4.8,7.9-3.6c0.6,0.3,0.9,1,0.7,1.6
					c-0.2,0.6-0.9,0.9-1.5,0.7c-1.9-0.7-4,0.3-4.7,2.2C571.1,83.7,570.7,84,570.2,84z"/>
				<path class="st12" d="M603.2,84c-0.5,0-1-0.3-1.2-0.8c-0.7-1.9-2.8-2.9-4.7-2.2c-0.6,0.2-1.4-0.1-1.6-0.7s0.1-1.4,0.7-1.6
					c3.2-1.2,6.7,0.5,7.9,3.6c0.2,0.6-0.1,1.4-0.7,1.6C603.5,84,603.3,84,603.2,84L603.2,84z"/>
				<circle class="st10" cx="592.3" cy="61.5" r="12.3"/>
				<circle class="st10" cx="574.6" cy="58.2" r="12.3"/>
				<circle class="st10" cx="611.7" cy="54.9" r="14.8"/>
				<circle class="st10" cx="589.7" cy="51.9" r="15"/>
				<circle class="st10" cx="623" cy="70.5" r="12.3"/>
				<circle class="st10" cx="608.8" cy="64.9" r="8.9"/>
				<circle class="st10" cx="619.5" cy="76.5" r="8.9"/>
				<path class="st14" d="M587.9,101.3h-2.9c-1.3,0-2.4-1.1-2.4-2.4v-5c0-0.7,0.5-1.3,1.2-1.3c0.7,0,1.3,0.5,1.3,1.2c0,0,0,0,0,0.1
					v4.8h2.7c0.7,0,1.3,0.5,1.3,1.2C589.3,100.7,588.7,101.3,587.9,101.3C588,101.3,588,101.3,587.9,101.3L587.9,101.3z"/>
				<path class="st14" d="M589.4,110.3c-2.9,0-5.8-0.9-8.2-2.5c-0.6-0.4-0.8-1.2-0.4-1.8c0.4-0.6,1.2-0.8,1.8-0.4c0,0,0,0,0,0
					c4.1,2.8,9.5,2.8,13.6,0c0.6-0.4,1.4-0.2,1.8,0.4c0.4,0.6,0.2,1.3-0.3,1.7C595.2,109.5,592.3,110.3,589.4,110.3z"/>
				<circle class="st15" cx="330.1" cy="45.2" r="24.3"/>
				<circle class="st16" cx="340.6" cy="54.9" r="14.9"/>
				<rect x="351.4" y="236.4" class="st17" width="16.3" height="57.5"/>
				<path class="st17" d="M383.4,301.9h-30.1c-1.1,0-1.9-0.9-1.9-1.9c0,0,0,0,0,0v-10.5H376c5.2,0,9.4,4.2,9.4,9.4c0,0,0,0,0,0v1.1
					C385.4,301,384.5,301.9,383.4,301.9z"/>
				<path class="st18" d="M348.2,298h36.8c1.1,0,2,0.9,2,2l0,0c0,1.1-0.9,2-2,2h-36.8c-1.1,0-2-0.9-2-2l0,0
					C346.2,298.9,347.1,298,348.2,298z"/>
				<path class="st17" d="M383.6,204.6c-1.8,0-3.5-0.6-4.8-1.8l-3.8-3.4c-5.2-4.6-6.8-12-3.9-18.3l9.6-21c0.1-0.3,0.1-0.6-0.1-0.8
					l-18.4-23.5c-2.5-3.2-1.9-7.8,1.2-10.2c3.2-2.5,7.8-1.9,10.2,1.2l18.4,23.5c3.6,4.5,4.3,10.6,1.9,15.9l-9.6,21
					c-0.2,0.4-0.1,1,0.3,1.3l3.8,3.4c3,2.7,3.3,7.3,0.7,10.3C387.7,203.7,385.7,204.6,383.6,204.6L383.6,204.6z"/>
				<path class="st19" d="M370.7,158.6l-15.4-16.2c-4.8-5.1-4.6-13.1,0.4-17.9l0,0l0,0c5.1-4.8,13.1-4.6,17.9,0.4l0,0l15.4,16.2
					c0.7,0.8,0.7,2-0.1,2.8l-15.5,14.8C372.7,159.4,371.4,159.4,370.7,158.6z"/>
				<rect x="329.2" y="236.4" class="st5" width="16.3" height="57.5"/>
				<path class="st5" d="M361.3,301.9h-30.1c-1.1,0-1.9-0.9-1.9-1.9c0,0,0,0,0,0v-10.5h24.6c5.2,0,9.4,4.2,9.4,9.4c0,0,0,0,0,0v1.1
					C363.2,301,362.3,301.9,361.3,301.9z"/>
				<path class="st19" d="M364,121h-29.9c-6.7,0-12.2,5.5-12.2,12.2l2.4,50l-2.4,60.2c0,1.1,0.9,1.9,1.9,1.9l0,0h50.3
					c1.1,0,1.9-0.9,1.9-1.9c0,0,0,0,0,0l-2.9-60.2l2.9-50C376.2,126.5,370.7,121,364,121L364,121z"/>
				<path class="st17" d="M343.8,113h11.7l0,0v9.4c0,3.2-2.6,5.9-5.9,5.9l0,0c-3.2,0-5.9-2.6-5.9-5.9L343.8,113L343.8,113z"/>
				<path class="st20" d="M349.9,43L349.9,43c16.3,0,29.5,13.2,29.5,29.5c0,0,0,0,0,0v16.4l0,0h-59.1l0,0V72.6
					C320.4,56.2,333.6,43,349.9,43L349.9,43L349.9,43z"/>
				<circle class="st17" cx="324.4" cy="88.9" r="8.1"/>
				<circle class="st17" cx="374.9" cy="88.9" r="8.1"/>
				<path class="st5" d="M324.4,66v27.1c0,13.9,11.3,25.3,25.3,25.3l0,0c13.9,0,25.2-11.3,25.2-25.3V66H324.4z"/>
				<path class="st20" d="M347.9,64.8h-23.5c4.8,11,15.6,18.1,27.6,18.1V71.6c5.7,7.2,14.4,11.3,23.5,11.3V64.8H347.9z"/>
				<path class="st20" d="M334,82.9c-0.7,0-1.3-0.6-1.3-1.3c0-0.5,0.4-1,0.9-1.2l6.1-2c0.7-0.2,1.4,0.1,1.6,0.8s-0.1,1.4-0.8,1.6
					l0,0l-6.1,2C334.3,82.9,334.2,82.9,334,82.9z"/>
				<path class="st20" d="M365.2,82.8c-0.1,0-0.3,0-0.4-0.1l-6.1-2c-0.7-0.2-1-0.9-0.8-1.6s0.9-1,1.6-0.8l0,0l6.1,2
					c0.7,0.2,1,0.9,0.8,1.6C366.2,82.4,365.8,82.8,365.2,82.8z"/>
				<path class="st21" d="M350.9,99.6H348c-0.7,0-1.3-0.6-1.2-1.3c0-0.7,0.6-1.2,1.2-1.2h2.7v-4.8c0-0.7,0.6-1.3,1.3-1.2
					c0.7,0,1.2,0.6,1.2,1.2v5C353.3,98.5,352.2,99.6,350.9,99.6z"/>
				<path class="st21" d="M344,90.5c-0.6,0-1.1-0.4-1.2-1c-0.4-1.7-2.1-2.8-3.9-2.5c-1.2,0.3-2.2,1.2-2.5,2.5
					c-0.2,0.7-0.9,1.1-1.5,0.9c-0.7-0.2-1.1-0.8-0.9-1.5c0.7-3.1,3.8-5.1,6.9-4.4c2.2,0.5,3.9,2.2,4.4,4.4c0.2,0.7-0.3,1.4-1,1.5
					C344.2,90.5,344.1,90.5,344,90.5z"/>
				<path class="st21" d="M364,90.5c-0.6,0-1.1-0.4-1.2-1c-0.4-1.7-2.1-2.8-3.9-2.5c-1.2,0.3-2.2,1.2-2.5,2.5
					c-0.2,0.7-0.9,1.1-1.5,0.9c-0.7-0.2-1.1-0.8-0.9-1.5c0.7-3.1,3.8-5.1,6.9-4.4c2.2,0.5,3.9,2.2,4.4,4.4c0.2,0.7-0.3,1.4-1,1.5
					C364.2,90.5,364.1,90.5,364,90.5z"/>
				<path class="st22" d="M357.1,103.3c0.8,0,1.4,0.6,1.4,1.4c0,0.1,0,0.2,0,0.2c-0.9,4.9-5.6,8.2-10.6,7.3
					c-3.7-0.7-6.6-3.6-7.3-7.3c-0.1-0.8,0.4-1.5,1.2-1.6c0.1,0,0.2,0,0.2,0H357.1z"/>
				<path class="st23" d="M351.3,108.8c-2,0.6-3.5,2.1-3.6,3.4c3.1,0.7,6.3-0.3,8.4-2.6C355.3,108.6,353.3,108.2,351.3,108.8z"/>
				<path class="st24" d="M357.1,103.3h-15c-0.8,0-1.4,0.6-1.4,1.4c0,0.1,0,0.2,0,0.2c0.1,0.5,0.2,1,0.4,1.5h17.1
					c0.2-0.5,0.3-1,0.4-1.5c0.1-0.8-0.4-1.5-1.2-1.6C357.3,103.3,357.2,103.3,357.1,103.3z"/>
				<path class="st16" d="M326.9,298h36.8c1.1,0,2,0.9,2,2l0,0c0,1.1-0.9,2-2,2h-36.8c-1.1,0-2-0.9-2-2l0,0
					C324.9,298.9,325.8,298,326.9,298z"/>
				<path class="st16" d="M353.3,300.9c-1.1,0-1.9-0.9-1.9-2c0-0.3,0.1-0.6,0.2-0.8c1.9-4,5.7-6.7,10.1-7c1.1-0.1,2,0.7,2.1,1.8
					c0.1,1.1-0.7,2-1.8,2.1c-3,0.3-5.6,2.1-6.9,4.8C354.8,300.4,354.1,300.9,353.3,300.9z"/>
				<path class="st18" d="M375.2,300.9c-1.1,0-1.9-0.9-1.9-2c0-0.3,0.1-0.6,0.2-0.8c1.9-4,5.7-6.7,10.1-7c1.1-0.1,2,0.7,2.1,1.8
					c0.1,1.1-0.7,2-1.8,2.1l0,0c-3,0.3-5.6,2.1-6.9,4.8C376.6,300.4,376,300.9,375.2,300.9z"/>
				<rect x="332" y="161" class="st25" width="35.3" height="2.9"/>
				<path class="st26" d="M370.3,238.9c-2.4,0-4.4-2-4.4-4.4c0-1.9,1.2-3.6,3-4.2c0.8-0.3,17.4-6.3,21.6-31.6c0.4-2.4,2.7-4,5.1-3.5
					c2.3,0.4,3.9,2.6,3.6,5c-5.2,30.9-26.6,38.2-27.5,38.5C371.2,238.8,370.7,238.9,370.3,238.9z"/>
				<path class="st27" d="M511.3,187.5c-0.5,0-1,0-1.5-0.1c-63.5-12.9-64.6-40.8-64.5-44l14.6,0.4c0-0.1,0-0.2,0-0.3
					c0,0.2,1.8,19.2,52.8,29.6c4,0.8,6.5,4.7,5.7,8.6C517.8,185.1,514.8,187.5,511.3,187.5L511.3,187.5z"/>
				<path class="st27" d="M503.9,175.9c-1.6,0-2.9-1.3-2.9-2.9c0-0.8,0.3-1.6,1-2.2l4.9-4.5c1.2-1.1,3-1,4.1,0.2s1,3-0.2,4.1
					c0,0,0,0,0,0l-4.9,4.5C505.3,175.7,504.6,175.9,503.9,175.9z"/>
				<path class="st27" d="M392.8,206.3c-0.1,0-0.2,0-0.3,0c-4-0.1-7.2-3.5-7-7.5c0,0,0,0,0,0c2.2-64.8,29.7-70.4,32.8-70.8l2,14.5
					c0.1,0,0.2,0,0.3-0.1c-0.2,0-18.7,4.9-20.5,56.9C400,203.2,396.7,206.3,392.8,206.3z"/>
				<path class="st28" d="M418.8,121.5h29.9c6.7,0,12.2,5.5,12.2,12.2v65.5c0,1.1-0.9,1.9-1.9,1.9h-50.3c-1.1,0-1.9-0.9-1.9-1.9
					v-65.5C406.6,127,412.1,121.5,418.8,121.5z"/>
				<rect x="408.7" y="201.2" class="st29" width="50.2" height="86.3"/>
				<path class="st30" d="M408.8,216.2v-2.8c6.7,0,12.2-5.5,12.2-12.2h2.8C423.8,209.5,417.1,216.2,408.8,216.2z"/>
				<path class="st30" d="M458.8,216.2c-8.3,0-15-6.7-15-15h2.8c0,6.7,5.5,12.2,12.2,12.2V216.2z"/>
				<rect x="432.4" y="217.7" class="st30" width="2.8" height="69.8"/>
				<rect x="428.9" y="215.8" class="st30" width="9.7" height="2.8"/>
				<path class="st31" d="M402.3,287.5h30.1v13.2c0,1.1-0.9,2-2,2l0,0H402v-15.2C402.1,287.5,402.2,287.5,402.3,287.5z"/>
				<path class="st32" d="M389.2,299c1.2-4.5,4.4-11.4,12.8-11.5v15.2h-9.9c-1.6,0-3-1.3-3-3C389.1,299.5,389.1,299.3,389.2,299z"/>
				<path class="st33" d="M432,303.4h-42.8c-1.1,0-2-0.9-2-2l0,0c0-1.1,0.9-2,2-2H432c1.1,0,2,0.9,2,2l0,0
					C433.9,302.5,433,303.4,432,303.4z"/>
				<path class="st34" d="M419.7,293.7H410c-0.9,0-1.7-0.7-1.7-1.7v0v-4.5l0,0h13.1l0,0v4.5C421.4,293,420.6,293.7,419.7,293.7z"/>
				<path class="st31" d="M465.3,287.5h-30.1v13.2c0,1.1,0.9,2,2,2l0,0h28.4v-15.2C465.5,287.5,465.4,287.5,465.3,287.5z"/>
				<path class="st32" d="M478.4,299c-1.2-4.5-4.4-11.4-12.8-11.5v15.2h9.9c1.6,0,3-1.3,3-3C478.5,299.5,478.5,299.3,478.4,299z"/>
				<path class="st33" d="M435.6,299.4h42.8c1.1,0,2,0.9,2,2l0,0c0,1.1-0.9,2-2,2h-42.8c-1.1,0-2-0.9-2-2l0,0
					C433.7,300.3,434.6,299.4,435.6,299.4z"/>
				<path class="st34" d="M446.2,287.5h13.1l0,0v4.5c0,0.9-0.7,1.7-1.7,1.7h0h-9.7c-0.9,0-1.7-0.7-1.7-1.7v0L446.2,287.5
					L446.2,287.5z"/>
				
					<rect x="362.1" y="278.8" transform="matrix(0.9962 -8.745132e-02 8.745132e-02 0.9962 -23.9004 33.0378)" class="st35" width="6.1" height="21"/>
				<path class="st28" d="M381.4,301.1c0-1.9-1.2-3.6-3-4.2l-8.1-2.9l-0.2-0.4c-0.2-0.5-0.8-0.8-1.3-0.6c-0.5,0.2-0.8,0.8-0.6,1.3
					l0.2,0.5c0.6,1.6-0.1,3.3-1.7,4c-0.4,0.1-0.7,0.2-1.1,0.2l0,0c-0.8,0-1.6-0.2-2.3-0.6c-0.4-0.2-0.9-0.1-1.2,0.3
					c-0.1,0.1-0.1,0.3-0.1,0.4l0,3c0,0.5,0.4,0.9,1,0.9l16.5-0.1C380.5,303,381.4,302.2,381.4,301.1
					C381.4,301.1,381.4,301.1,381.4,301.1L381.4,301.1z"/>
				
					<rect x="338.6" y="286.5" transform="matrix(7.302418e-02 -0.9973 0.9973 7.302418e-02 34.8353 616.5246)" class="st26" width="21" height="6.1"/>
				<path class="st36" d="M361.1,291.4l8.9-0.6c1-0.1,1.8-1,1.7-2c0,0,0,0,0,0l-1.3-18.1l0-1.1l-26.4,0.2l0,1.1l-1,18.1
					c-0.1,1,0.7,1.9,1.7,1.9l8.9,0.5c1,0.1,1.9-0.7,1.9-1.7c0,0,0,0,0,0l0.5-9.9l2.3,0l0.7,9.9C359.2,290.7,360.1,291.5,361.1,291.4
					z"/>
				<path class="st28" d="M352.5,299.3c0-0.5-0.4-0.9-0.9-0.9c-0.2,0-0.3,0-0.4,0.1c-0.7,0.4-1.5,0.6-2.3,0.6l0,0
					c-1.7,0-3.1-1.4-3.1-3c0-0.4,0.1-0.8,0.2-1.1l0.2-0.5c0.2-0.5-0.1-1.1-0.6-1.3c-0.5-0.2-1.1,0.1-1.3,0.6l-0.2,0.4l-8.1,3
					c-1.8,0.7-3,2.4-3,4.3l0,0c0,1.1,0.9,1.9,1.9,1.9c0,0,0,0,0,0l16.5-0.1c0.5,0,0.9-0.4,0.9-1c0,0,0,0,0,0L352.5,299.3z"/>
				<path class="st37" d="M354.5,229l4.8,0c6.7,0,12.2,5.4,12.3,12.1l0.2,28.3c0,0.5-0.4,1-1,1c0,0,0,0,0,0l-27.2,0.2
					c-0.5,0-1-0.4-1-1c0,0,0,0,0,0l-0.2-28.3C342.3,234.6,347.8,229.1,354.5,229L354.5,229z"/>
				<path class="st26" d="M334,256.1c-2.4,0-4.4-2-4.4-4.4c0-1.1,0.4-2.1,1.1-2.9l6.1-6.8c1.6-1.8,4.4-2,6.2-0.3
					c1.8,1.6,2,4.4,0.3,6.2l-6.1,6.8C336.4,255.6,335.2,256.1,334,256.1z"/>
				<path class="st37" d="M334.6,240l7.6-8.2c2.5-2.7,6.7-2.8,9.3-0.3l0,0c2.7,2.5,2.8,6.7,0.3,9.3l-7.6,8.2
					c-0.6,0.6-1.6,0.7-2.2,0.1l-7.4-6.9C334.1,241.6,334.1,240.6,334.6,240z"/>
				<path class="st26" d="M352.5,256.6h-0.1l-18.5-0.5c-2.4-0.1-4.3-2.1-4.3-4.5c0.1-2.4,2.1-4.3,4.5-4.3l0,0l18.5,0.5
					c2.4,0.1,4.3,2.1,4.3,4.5C356.9,254.7,354.9,256.6,352.5,256.6L352.5,256.6z"/>
				<path class="st26" d="M347.3,250.7L347.3,250.7c-0.9-0.4-1.2-1.5-0.8-2.3l1.5-3.2c0.4-0.9,1.5-1.2,2.3-0.8l0,0
					c0.9,0.4,1.2,1.5,0.8,2.3l-1.5,3.2C349.2,250.8,348.2,251.1,347.3,250.7z"/>
				<path class="st37" d="M382.4,235.4l-9.7,5.6c-3.2,1.8-7.2,0.7-9-2.4l0,0c-1.8-3.2-0.7-7.2,2.4-9l9.7-5.6
					c0.7-0.4,1.7-0.2,2.1,0.6c0,0,0,0,0,0l5.1,8.8C383.4,234,383.2,235,382.4,235.4L382.4,235.4z"/>
				<path class="st38" d="M351.9,222.1l9.8-0.1l0,0l0.1,10.1c0,2.7-2.2,4.9-4.9,4.9l0,0c-2.7,0-4.9-2.2-4.9-4.9L351.9,222.1
					L351.9,222.1L351.9,222.1z"/>
				<circle class="st39" cx="359" cy="197.8" r="22.7"/>
				<circle class="st39" cx="347.9" cy="200" r="17"/>
				<circle class="st38" cx="335.5" cy="213.4" r="7"/>
				<circle class="st38" cx="378" cy="212.3" r="7"/>
				<circle class="st26" cx="356.5" cy="209.8" r="22.9"/>
				<path class="st40" d="M357.2,219.5c-2,0-3.9-0.4-5.7-1.2c-0.7-0.3-1-1.1-0.6-1.8c0.3-0.7,1.1-1,1.8-0.7c1.9,0.9,4,1.2,6,0.9
					c0.7-0.1,1.4,0.4,1.6,1.1c0.1,0.7-0.4,1.4-1.1,1.6c0,0,0,0-0.1,0C358.5,219.5,357.9,219.5,357.2,219.5z"/>
				<circle class="st39" cx="348.6" cy="205.9" r="2.4"/>
				<circle class="st39" cx="369.3" cy="205.8" r="2.4"/>
				
					<ellipse transform="matrix(0.3191 -0.9477 0.9477 0.3191 64.5809 473.0446)" class="st39" cx="361.5" cy="191.6" rx="7.8" ry="19.5"/>
				<path class="st39" d="M343.9,203.7c-0.9,0-1.6-0.7-1.6-1.6c0-0.2,0-0.4,0.1-0.5c0.8-2.3,3.4-3.6,5.8-2.7c0.8,0.3,1.2,1.2,1,2
					s-1.2,1.2-2,1c0,0,0,0,0,0c-0.7-0.3-1.5,0.1-1.8,0.8C345.1,203.3,344.5,203.7,343.9,203.7z"/>
				<path class="st39" d="M373,203.4c-0.6,0-1.2-0.4-1.5-1c-0.3-0.7-1.1-1.1-1.8-0.8c-0.8,0.3-1.7-0.1-2-0.9c-0.3-0.8,0.1-1.7,0.9-2
					c2.3-0.9,4.9,0.3,5.8,2.6c0.3,0.8-0.1,1.7-0.9,2C373.4,203.4,373.2,203.4,373,203.4L373,203.4z"/>
				<ellipse class="st38" cx="359.4" cy="210.7" rx="6.4" ry="2.4"/>
				<path class="st28" d="M394.4,142.7l14.7-16.8c4.6-5.3,12.6-5.8,17.9-1.2l0,0c5.3,4.6,5.8,12.6,1.2,17.9l0,0l-14.7,16.8
					c-0.7,0.8-1.9,0.9-2.7,0.2l-16.1-14.1C393.7,144.7,393.7,143.5,394.4,142.7L394.4,142.7z"/>
				<path class="st28" d="M444.3,159.8l-7.9-21c-2.5-6.5,0.9-13.8,7.4-16.3l0,0l0,0c6.5-2.5,13.8,0.9,16.3,7.4l7.9,21
					c0.4,1-0.1,2.1-1.1,2.5l-20,7.5C445.8,161.3,444.6,160.8,444.3,159.8z"/>
				<path class="st41" d="M427.8,116.6h12.6l0,0v10.2c0,3.5-2.8,6.3-6.3,6.3l0,0c-3.5,0-6.3-2.8-6.3-6.3L427.8,116.6L427.8,116.6
					L427.8,116.6z"/>
				<path class="st34" d="M426.4,118.8l-5.3,14.2c-0.4,1,0.1,2.1,1.1,2.5c0.4,0.1,0.7,0.2,1.1,0.1l10.8-2.4L426.4,118.8z"/>
				<path class="st34" d="M441.9,118.8L447,133c0.4,1-0.2,2.1-1.2,2.5c-0.3,0.1-0.7,0.2-1.1,0.1l-10.8-2.4L441.9,118.8z"/>
				<path class="st12" d="M404.4,83.8V71.6c0-16.5,13.4-29.8,29.8-29.8l0,0c16.5,0,29.8,13.4,29.8,29.8v12.3"/>
				<circle class="st41" cx="460.5" cy="90.9" r="8.2"/>
				<circle class="st41" cx="408.6" cy="90.9" r="8.2"/>
				<path class="st27" d="M434.1,123.5L434.1,123.5c-13.9,0-25.3-11.3-25.3-25.3V71.7c0-1.4,1.2-2.6,2.6-2.6c0.2,0,0.4,0,0.6,0.1
					l0,0c14.6,3.3,29.7,3.3,44.2,0l0,0c1.4-0.3,2.8,0.6,3.1,1.9c0,0.2,0.1,0.4,0.1,0.6v26.6C459.3,112.2,448,123.5,434.1,123.5z"/>
				<path class="st42" d="M438.1,101.2h-8.8c-0.8,0-1.4-0.7-1.3-1.4c0-0.7,0.6-1.3,1.3-1.3h8.8c0.8,0,1.4,0.7,1.3,1.4
					C439.4,100.6,438.8,101.2,438.1,101.2z"/>
				<circle class="st12" cx="423.8" cy="87.6" r="2.6"/>
				<circle class="st12" cx="448.3" cy="87.6" r="2.6"/>
				<path class="st43" d="M441.1,107.3c0.7,0,1.3,0.6,1.3,1.3c0,0.1,0,0.1,0,0.2c-0.8,4.6-5.3,7.6-9.9,6.8c-3.5-0.6-6.2-3.3-6.8-6.8
					c-0.1-0.7,0.4-1.4,1.1-1.5c0.1,0,0.1,0,0.2,0H441.1z"/>
				<path class="st23" d="M435.6,112.4c-1.9,0.6-3.2,1.9-3.3,3.2c0.6,0.1,1.2,0.2,1.7,0.2c2.3,0,4.5-0.9,6.1-2.6
					C439.4,112.2,437.5,111.8,435.6,112.4z"/>
				<path class="st24" d="M441.1,107.2h-14c-0.7,0-1.3,0.6-1.3,1.3c0,0.1,0,0.1,0,0.2c0.1,0.5,0.2,0.9,0.4,1.4H442
					c0.2-0.5,0.3-0.9,0.4-1.4c0.1-0.7-0.4-1.4-1.1-1.5C441.2,107.2,441.2,107.2,441.1,107.2z"/>
				<path class="st12" d="M417.7,84c-0.7,0-1.2-0.6-1.2-1.2c0-0.1,0-0.3,0.1-0.4c1.2-3.2,4.7-4.8,7.9-3.6c0.6,0.2,1,0.9,0.7,1.6
					s-0.9,1-1.6,0.7c-1.9-0.7-4,0.3-4.7,2.2c0,0,0,0,0,0C418.7,83.7,418.2,84,417.7,84z"/>
				<path class="st12" d="M450.7,84c-0.5,0-1-0.3-1.2-0.8c-0.7-1.9-2.8-2.9-4.7-2.2c-0.6,0.2-1.4-0.1-1.6-0.7
					c-0.2-0.6,0.1-1.4,0.7-1.6c3.2-1.2,6.7,0.5,7.9,3.6c0.2,0.6-0.1,1.4-0.7,1.6C451,84,450.8,84,450.7,84L450.7,84z"/>
				<path class="st27" d="M403.9,197.5c-0.7,0-1.3-0.2-1.8-0.6l-5.2-4.1c-1.3-1-1.5-2.8-0.5-4.1c1-1.3,2.8-1.5,4.1-0.5l0,0l5.2,4.1
					c1.3,1,1.5,2.8,0.5,4.1C405.7,197.1,404.8,197.5,403.9,197.5L403.9,197.5z"/>
				<circle class="st44" cx="434.2" cy="142.5" r="2.2"/>
				<circle class="st44" cx="434.2" cy="153.2" r="2.2"/>
				<path class="st39" d="M341.8,184c-0.7-0.8-1.6-1.4-2.6-1.7c-0.6-0.1-1.1,0.2-1.2,0.8c-0.1,0.3,0,0.6,0.2,0.8
					c0.4,0.6,0.7,1.3,0.9,2c0.2,1.1,0.1,2.2-0.4,3.1c-0.5,1-1.4,1.7-2.4,2.2c2.4,1,5.2-0.1,6.2-2.5
					C343.1,187.2,342.8,185.4,341.8,184L341.8,184z"/>
				<circle class="st10" cx="584.8" cy="123.5" r="2"/>
				<circle class="st10" cx="589.1" cy="126.3" r="2"/>
				<circle class="st10" cx="594.4" cy="126.3" r="2"/>
				<circle class="st10" cx="598.8" cy="123.5" r="2"/>
				<path class="st45" d="M325.7,198.3v22.5c0,0.3-0.2,0.5-0.5,0.5l0,0h-34c-0.3,0-0.5-0.2-0.5-0.5l0,0v-22.5c0-1.8,1.5-3.3,3.3-3.3
					c0,0,0,0,0,0h28.5C324.2,195,325.6,196.5,325.7,198.3C325.7,198.3,325.7,198.3,325.7,198.3z"/>
				<path class="st46" d="M315.4,201.7L315.4,201.7c1,0,1.8,0.8,1.8,1.8v9.3c0,1-0.8,1.8-1.8,1.8l0,0c-1,0-1.8-0.8-1.8-1.8v-9.3
					C313.6,202.5,314.4,201.7,315.4,201.7z"/>
				<path class="st5" d="M308.2,205.8c-0.1,0-0.2,0-0.3,0c-4-0.1-7.2-3.5-7-7.5c2.2-64.8,29.7-70.4,32.8-70.8l2,14.5
					c0.1,0,0.2,0,0.3-0.1c-0.2,0-18.7,4.9-20.5,56.9C315.3,202.7,312.1,205.8,308.2,205.8z"/>
				<path class="st19" d="M309.7,142.1l14.7-16.8c4.6-5.3,12.6-5.8,17.9-1.2l0,0c5.3,4.6,5.8,12.6,1.2,17.9l0,0l-14.7,16.8
					c-0.7,0.8-1.9,0.9-2.7,0.2l-16.1-14.1C309.1,144.2,309,142.9,309.7,142.1L309.7,142.1z"/>
				<path class="st17" d="M341.6,121.1h16c3.2,0,5.8,2.6,5.8,5.8v0c0,3.2-2.6,5.8-5.8,5.8h-16c-3.2,0-5.8-2.6-5.8-5.8v0
					C335.8,123.7,338.4,121.1,341.6,121.1z"/>
				<path class="st47" d="M595.4,131.8h-2.3v-2.3c0-0.4-0.3-0.7-0.7-0.7l0,0h-1.3c-0.4,0-0.7,0.3-0.7,0.7c0,0,0,0,0,0v2.3h-2.3
					c-0.4,0-0.7,0.3-0.7,0.7c0,0,0,0,0,0v1.3c0,0.4,0.3,0.7,0.7,0.7l0,0h2.3v4.5c0,0.4,0.3,0.7,0.7,0.7l0,0h1.3
					c0.4,0,0.7-0.3,0.7-0.7c0,0,0,0,0,0v-4.5h2.3c0.4,0,0.7-0.3,0.7-0.7c0,0,0,0,0,0v-1.3C596.1,132.2,595.8,131.8,595.4,131.8
					C595.4,131.8,595.4,131.8,595.4,131.8z"/>
			</g>
		</g>
		<g>
			<defs>
				<path id="SVGID_3_" d="M1.4,403.7v135.5c0,17.6,14.3,31.9,31.9,31.9c0,0,0,0,0,0h458.3c28,0,42.4-33.4,23.3-53.8L323,312.4
					c-8-8.6-20-12-31.4-9.1L25.3,372.8C11.2,376.5,1.4,389.2,1.4,403.7z"/>
			</defs>
			<clipPath id="SVGID_4_">
				<use xlink:href="#SVGID_3_"  style="overflow:visible;"/>
			</clipPath>
			<g class="st49">
				<rect x="-37.6" y="284.4" class="st1" width="596.9" height="303"/>
				<path class="st50" d="M58,344.8h318c6.3,0,11.4,5.1,11.4,11.4v138.6c0,6.3-5.1,11.4-11.4,11.4H58c-6.3,0-11.4-5.1-11.4-11.4
					V356.3C46.6,350,51.7,344.8,58,344.8z"/>
				<path class="st50" d="M107,472.3h181.3l0,0v101c0,21.9-17.8,39.7-39.7,39.7H146.7c-21.9,0-39.7-17.8-39.7-39.7L107,472.3
					L107,472.3z"/>
				<path class="st51" d="M141,475.1h181.3l0,0v101c0,21.9-17.8,39.7-39.7,39.7H180.7c-21.9,0-39.7-17.8-39.7-39.7V475.1L141,475.1z
					"/>
				<path class="st52" d="M229.5,533.5l-35.4,6.5l0,0l-11.7-63.7c-1.8-9.8,4.7-19.2,14.5-20.9l0,0c9.8-1.8,19.2,4.7,20.9,14.5
					L229.5,533.5L229.5,533.5z"/>
				<path class="st52" d="M263.9,455.4L263.9,455.4c9.8,1.8,16.2,11.2,14.5,20.9L266.7,540l0,0l-35.4-6.5l0,0l11.7-63.7
					C244.7,460.1,254.1,453.6,263.9,455.4z"/>
				<path class="st53" d="M74.1,335.2h318c6.3,0,11.4,5.1,11.4,11.4v153.9c0,6.3-5.1,11.4-11.4,11.4h-318c-6.3,0-11.4-5.1-11.4-11.4
					V346.6C62.6,340.3,67.7,335.2,74.1,335.2z"/>
				<path class="st54" d="M163.6,443h116.3c3.6,0,6.5,2.9,6.5,6.5V497c0,3.6-2.9,6.5-6.5,6.5H163.6c-3.6,0-6.5-2.9-6.5-6.5v-47.4
					C157,446,160,443,163.6,443z"/>
				<path class="st48" d="M283.6,596.3H176.9l0,0v-30.6c0-20.7,16.7-37.4,37.4-37.4h0h31.9c20.7,0,37.4,16.7,37.4,37.4l0,0V596.3
					L283.6,596.3z"/>
				<path class="st55" d="M171.1,437.4h116.3c3.6,0,6.5,2.9,6.5,6.5v47.4c0,3.6-2.9,6.5-6.5,6.5H171.1c-3.6,0-6.5-2.9-6.5-6.5v-47.4
					C164.6,440.3,167.5,437.4,171.1,437.4z"/>
				<path class="st56" d="M174.1,445.9h7.5c0.5,0,1,0.4,1,1v7.5c0,0.5-0.4,1-1,1h-7.5c-0.5,0-1-0.4-1-1v-7.5
					C173.1,446.3,173.5,445.9,174.1,445.9z"/>
				<path class="st56" d="M188.8,445.9h7.5c0.5,0,1,0.4,1,1v7.5c0,0.5-0.4,1-1,1h-7.5c-0.5,0-1-0.4-1-1v-7.5
					C187.8,446.3,188.2,445.9,188.8,445.9z"/>
				<path class="st56" d="M203.5,445.9h7.5c0.5,0,1,0.4,1,1v7.5c0,0.5-0.4,1-1,1h-7.5c-0.5,0-1-0.4-1-1v-7.5
					C202.5,446.3,202.9,445.9,203.5,445.9z"/>
				<path class="st56" d="M218.2,445.9h7.5c0.5,0,1,0.4,1,1v7.5c0,0.5-0.4,1-1,1h-7.5c-0.5,0-1-0.4-1-1v-7.5
					C217.2,446.3,217.6,445.9,218.2,445.9z"/>
				<path class="st56" d="M232.9,445.9h7.5c0.5,0,1,0.4,1,1v7.5c0,0.5-0.4,1-1,1h-7.5c-0.5,0-1-0.4-1-1v-7.5
					C231.9,446.3,232.3,445.9,232.9,445.9z"/>
				<path class="st56" d="M247.6,445.9h7.5c0.5,0,1,0.4,1,1v7.5c0,0.5-0.4,1-1,1h-7.5c-0.5,0-1-0.4-1-1v-7.5
					C246.6,446.3,247,445.9,247.6,445.9z"/>
				<path class="st56" d="M262.3,445.9h7.5c0.5,0,1,0.4,1,1v7.5c0,0.5-0.4,1-1,1h-7.5c-0.5,0-1-0.4-1-1v-7.5
					C261.3,446.3,261.7,445.9,262.3,445.9z"/>
				<path class="st56" d="M277,445.9h7.5c0.5,0,1,0.4,1,1v7.5c0,0.5-0.4,1-1,1H277c-0.5,0-1-0.4-1-1v-7.5
					C276,446.3,276.4,445.9,277,445.9z"/>
				<path class="st56" d="M174.1,462.9h7.5c0.5,0,1,0.4,1,1v7.5c0,0.5-0.4,1-1,1h-7.5c-0.5,0-1-0.4-1-1v-7.5
					C173.1,463.3,173.5,462.9,174.1,462.9z"/>
				<path class="st56" d="M188.8,462.9h7.5c0.5,0,1,0.4,1,1v7.5c0,0.5-0.4,1-1,1h-7.5c-0.5,0-1-0.4-1-1v-7.5
					C187.8,463.3,188.2,462.9,188.8,462.9z"/>
				<path class="st56" d="M203.5,462.9h7.5c0.5,0,1,0.4,1,1v7.5c0,0.5-0.4,1-1,1h-7.5c-0.5,0-1-0.4-1-1v-7.5
					C202.5,463.3,202.9,462.9,203.5,462.9z"/>
				<path class="st56" d="M218.2,462.9h7.5c0.5,0,1,0.4,1,1v7.5c0,0.5-0.4,1-1,1h-7.5c-0.5,0-1-0.4-1-1v-7.5
					C217.2,463.3,217.6,462.9,218.2,462.9z"/>
				<path class="st56" d="M232.9,462.9h7.5c0.5,0,1,0.4,1,1v7.5c0,0.5-0.4,1-1,1h-7.5c-0.5,0-1-0.4-1-1v-7.5
					C231.9,463.3,232.3,462.9,232.9,462.9z"/>
				<path class="st56" d="M247.6,462.9h7.5c0.5,0,1,0.4,1,1v7.5c0,0.5-0.4,1-1,1h-7.5c-0.5,0-1-0.4-1-1v-7.5
					C246.6,463.3,247,462.9,247.6,462.9z"/>
				<path class="st56" d="M262.3,462.9h7.5c0.5,0,1,0.4,1,1v7.5c0,0.5-0.4,1-1,1h-7.5c-0.5,0-1-0.4-1-1v-7.5
					C261.3,463.3,261.7,462.9,262.3,462.9z"/>
				<path class="st56" d="M277,462.9h7.5c0.5,0,1,0.4,1,1v7.5c0,0.5-0.4,1-1,1H277c-0.5,0-1-0.4-1-1v-7.5
					C276,463.3,276.4,462.9,277,462.9z"/>
				<path class="st56" d="M174.1,479.9h7.5c0.5,0,1,0.4,1,1v7.5c0,0.5-0.4,1-1,1h-7.5c-0.5,0-1-0.4-1-1v-7.5
					C173.1,480.3,173.5,479.9,174.1,479.9z"/>
				<path class="st56" d="M188.8,479.9h7.5c0.5,0,1,0.4,1,1v7.5c0,0.5-0.4,1-1,1h-7.5c-0.5,0-1-0.4-1-1v-7.5
					C187.8,480.3,188.2,479.9,188.8,479.9z"/>
				<path class="st56" d="M203.3,479.9h51.9c0.5,0,1,0.4,1,1v7.5c0,0.5-0.4,1-1,1h-51.9c-0.5,0-1-0.4-1-1v-7.5
					C202.4,480.3,202.8,479.9,203.3,479.9z"/>
				<path class="st56" d="M262.3,479.9h7.5c0.5,0,1,0.4,1,1v7.5c0,0.5-0.4,1-1,1h-7.5c-0.5,0-1-0.4-1-1v-7.5
					C261.3,480.3,261.7,479.9,262.3,479.9z"/>
				<path class="st56" d="M277,479.9h7.5c0.5,0,1,0.4,1,1v7.5c0,0.5-0.4,1-1,1H277c-0.5,0-1-0.4-1-1v-7.5
					C276,480.3,276.4,479.9,277,479.9z"/>
				<path class="st51" d="M169.6,370.3h117.5c2.7,0,5,2.2,5,5v57.1c0,2.7-2.2,5-5,5H169.6c-2.7,0-5-2.2-5-5v-57.1
					C164.6,372.6,166.8,370.3,169.6,370.3z"/>
				<rect x="173.1" y="378.8" class="st10" width="111.4" height="49.1"/>
				<rect x="173.1" y="378.8" class="st57" width="24.5" height="49.1"/>
				<rect x="263" y="381.1" class="st58" width="21.5" height="46.8"/>
				<rect x="173.1" y="378.8" class="st59" width="111.4" height="8.5"/>
				<path class="st60" d="M295.8,556.6h-23.6l0,0v-88.3c0-6.5,5.3-11.8,11.8-11.8h0l0,0c6.5,0,11.8,5.3,11.8,11.8c0,0,0,0,0,0V556.6
					L295.8,556.6z"/>
				<path class="st60" d="M186.3,556.6h-23.6l0,0v-88.3c0-6.5,5.3-11.8,11.8-11.8c0,0,0,0,0,0l0,0c6.5,0,11.8,5.3,11.8,11.8
					c0,0,0,0,0,0V556.6L186.3,556.6z"/>
				<path class="st48" d="M279.8,596.3L279.8,596.3c-11.5,0-20.8-9.3-20.8-20.8v-39.7l0,0h41.5l0,0v39.7
					C300.6,587,291.3,596.3,279.8,596.3L279.8,596.3z"/>
				<path class="st48" d="M176.9,596.3L176.9,596.3c-11.5,0-20.8-9.3-20.8-20.8l0,0v-39.7l0,0h41.5l0,0v39.7
					C197.6,587,188.3,596.3,176.9,596.3z"/>
				<circle class="st60" cx="230.7" cy="542.5" r="6.6"/>
				<path class="st60" d="M271.8,592.4h-7.1l0,0v-14.2l0,0h7.1c3.9,0,7.1,3.2,7.1,7.1l0,0C278.8,589.2,275.7,592.4,271.8,592.4z"/>
				<path class="st60" d="M189.6,578.2h7.1l0,0v14.2l0,0h-7.1c-3.9,0-7.1-3.2-7.1-7.1l0,0C182.5,581.4,185.7,578.2,189.6,578.2z"/>
				<path class="st61" d="M206.8,625.1L206.8,625.1c15.7,4,32.2,4,47.9,0l0,0c9.8-2.5,16.7-11.3,16.7-21.5v-20.6
					c0-22.4-18.2-40.6-40.6-40.6l0,0c-22.4,0-40.6,18.2-40.6,40.6v20.6C190.1,613.7,197,622.6,206.8,625.1z"/>
				<path class="st62" d="M255.4,550.8c5.4,7.1,8.4,15.8,8.4,24.7v20.6c0,10.1-6.9,19-16.7,21.5l0,0c-15.7,4-32.2,4-47.9,0l0,0
					c-2.1-0.5-4.1-1.4-5.9-2.5c3,5,7.8,8.6,13.5,10l0,0c15.7,4,32.2,4,47.9,0l0,0c9.8-2.5,16.7-11.3,16.7-21.5v-20.6
					C271.3,570.4,265.4,558.5,255.4,550.8z"/>
				<line class="st63" x1="180.2" y1="485.1" x2="190.6" y2="475.6"/>
				<line class="st63" x1="278.4" y1="485.1" x2="268" y2="475.6"/>
				<path class="st64" d="M344.5,383.6H385c1.3,0,2.4,1.1,2.4,2.4v54.7c0,1.3-1.1,2.4-2.4,2.4h-40.5c-1.3,0-2.4-1.1-2.4-2.4v-54.7
					C342.1,384.6,343.2,383.6,344.5,383.6z"/>
				<path class="st65" d="M351.1,377.9h40.5c1.3,0,2.4,1.1,2.4,2.4V435c0,1.3-1.1,2.4-2.4,2.4h-40.5c-1.3,0-2.4-1.1-2.4-2.4v-54.7
					C348.7,379,349.8,377.9,351.1,377.9z"/>
				<rect x="361.9" y="396.8" class="st66" width="18.9" height="6.6"/>
				<circle class="st50" cx="118.4" cy="461.2" r="15.9"/>
				<path class="st56" d="M137.5,449.6l8.4-3.3c1.4-0.5,2.9,0.1,3.4,1.5l0,0l0,0c0.5,1.4-0.1,2.9-1.5,3.4h0l-8.4,3.3l0,0
					L137.5,449.6L137.5,449.6z"/>
				<circle class="st55" cx="124.4" cy="457" r="15.9"/>
				<circle class="st65" cx="124.4" cy="457" r="11.7"/>
				<rect x="210.4" y="394.9" class="st57" width="40.3" height="10.4"/>
				<rect x="210.4" y="416.2" class="st57" width="30.5" height="3.8"/>
				<rect x="210.4" y="409.1" class="st57" width="30.5" height="3.8"/>
				<circle class="st59" cx="185.3" cy="399.5" r="7.2"/>
				<path class="st10" d="M185.3,400L185.3,400c1.4,0,2.5,1.1,2.5,2.5v1l0,0h-5.1l0,0v-1C182.8,401.1,183.9,400,185.3,400z"/>
				<circle class="st10" cx="185.3" cy="397.2" r="1.8"/>
				<circle class="st50" cx="94.8" cy="381.8" r="23.5"/>
				
					<ellipse transform="matrix(7.088903e-02 -0.9975 0.9975 7.088903e-02 -282.6637 450.5128)" class="st55" cx="100.5" cy="377" rx="24.5" ry="24.5"/>
				<circle class="st65" cx="100.5" cy="377" r="18.4"/>
				<path class="st67" d="M101.6,376.2c-4.5-16.2-21.5-9.9-21.5-9.9s2.7-0.9,6.3,6.3c3.6,7.2,11.7,6.3,11.7,6.3L101.6,376.2z"/>
				<path class="st68" d="M98.2,373.5c0,0-4.6,0.5-6.1-7.5c-1.6-8-3-6.6-3-6.6s11.1-3.5,14.1,8.8S98.2,373.5,98.2,373.5z"/>
				<path class="st68" d="M103.9,380.2c0,0,4.5-0.7,6.4,7.2c1.9,7.9,3.3,6.5,3.3,6.5s-11,3.9-14.4-8.2
					C95.8,373.6,103.9,380.2,103.9,380.2z"/>
				<path class="st68" d="M105.2,372c0,0,1.7-4.3,9.5-1.9c7.8,2.4,7.2,0.4,7.2,0.4s-2.1,11.5-14.3,8.3S105.2,372,105.2,372z"/>
				<path class="st68" d="M94.5,380c0,0-0.2,3.9-7,4.2c-6.8,0.3-5.9,1.7-5.9,1.7s-1.5-9.7,9-10.6S94.5,380,94.5,380z"/>
				<path class="st67" d="M98,373.5c0,0,0-7.2,6.3-9.9s5.4-8.1,5.4-8.1s6.3,3.6,5.4,10.8c-0.9,7.2-9,9-11.7,9.9
					C100.7,377.1,98,373.5,98,373.5z"/>
				<path class="st67" d="M97.4,379.3c1.1,4,4.7,6.8,8.8,7c7.2,0.3,9.3,4.3,9.3,4.3s3-17.7-12.8-15.9
					C86.9,376.6,97.4,379.3,97.4,379.3z"/>
				<path class="st67" d="M95.1,372.6c0,0-9.3,9.3-4.7,17.5c4.7,8.1,2.3,14,2.3,14s15.1-7,9.3-16.3c-5.8-9.3-2.3-12.8-2.3-12.8
					L95.1,372.6z"/>
			</g>
		</g>
		<path class="st1" d="M42.9-0.1H17.6c-9,0-16.2,7.3-16.2,16.2l0,0v314.3c0,9,7.3,16.2,16.2,16.2c1.4,0,2.8-0.2,4.1-0.5l260.8-68.3
			c8.7-2.3,13.9-11.1,11.6-19.8c-0.7-2.6-2-5-3.9-7L63.6,8.8C58.3,3.1,50.8-0.1,42.9-0.1z"/>
		<g>
			<defs>
				<path id="SVGID_5_" d="M42.9-0.1H17.3c-9,0-16.2,7.3-16.2,16.2l0,0v314.3c0,9,7.3,16.2,16.2,16.2c1.4,0,2.8-0.2,4.1-0.5
					l261.1-68.3c8.7-2.3,13.9-11.1,11.6-19.8c-0.7-2.6-2-5-3.9-7L63.6,8.8C58.3,3.1,50.8-0.1,42.9-0.1z"/>
			</defs>
			<clipPath id="SVGID_6_">
				<use xlink:href="#SVGID_5_"  style="overflow:visible;"/>
			</clipPath>
			<g class="st69">
				<path class="st10" d="M14.3,185.1H26c0.2-0.5,0.5-0.9,0.8-1.3c-3.4-11.7,3.2-23.9,14.9-27.3c7.9-2.3,16.4-0.1,22.1,5.9
					c3.7-12.5,16.9-19.7,29.5-16c0.3,0.1,0.7,0.2,1,0.3c7-14.2,24.1-20,38.2-13.1c13.4,6.6,19.5,22.4,13.9,36.3
					c5.1,2.7,9.6,6.4,13.3,10.9c8.3-3.2,17.7-1.5,24.5,4.3h10.5c4,0,7.2,3.3,7.2,7.3c0,3.9-3.2,7.1-7.2,7.2H14.3
					c-4,0-7.3-3.2-7.3-7.2c0-4,3.2-7.3,7.2-7.3C14.2,185.1,14.2,185.1,14.3,185.1z"/>
				<path class="st10" d="M-30.1,82.7h8.6c0.2-0.3,0.4-0.7,0.6-1c-0.4-1.5-0.7-3-0.7-4.5c0-8.9,7.2-16.1,16.1-16.2
					c4.4,0,8.6,1.8,11.6,5c2.7-9.2,12.4-14.4,21.6-11.7c0.2,0.1,0.5,0.1,0.7,0.2c5.1-10.4,17.6-14.7,28-9.6
					c9.8,4.8,14.3,16.4,10.2,26.6c3.7,2,7.1,4.7,9.7,8c6.1-2.3,13-1.1,17.9,3.1h7.7c2.9,0,5.3,2.4,5.3,5.3c0,2.9-2.4,5.3-5.3,5.3
					H-30.1c-2.9,0-5.3-2.4-5.3-5.3l0,0C-35.4,85-33,82.7-30.1,82.7z"/>
				<path class="st70" d="M97.6,198.2H41.3c-1.4,0-2.5-1.1-2.5-2.5v-62c0-0.6,0.2-1.1,0.5-1.6l27.8-17.5c0.9-1.1,2.4-1.3,3.5-0.4
					c0.1,0.1,0.3,0.2,0.4,0.4l28.5,17.5c0.4,0.4,0.6,1,0.6,1.6v62C100.1,197.1,99,198.2,97.6,198.2
					C97.6,198.2,97.6,198.2,97.6,198.2z"/>
				<path class="st71" d="M35,137.1l31.8-22.5c1-1.2,2.8-1.4,4-0.5c0.2,0.1,0.3,0.3,0.4,0.4l32.6,22.5"/>
				<path class="st70" d="M143.7,210.3l-73.8-44.2c-0.5-0.3-1.2-0.3-1.7,0l-73.7,44.2c-0.5,0.3-0.8,0.8-0.8,1.4v46.9
					c0,0.9,0.7,1.7,1.7,1.7h147.5c0.9,0,1.7-0.7,1.7-1.7v-46.9C144.5,211.1,144.2,210.6,143.7,210.3z"/>
				<polygon class="st72" points="69.1,168.2 -6.3,213.4 -6.3,221.9 69.1,176.7 144.5,221.9 144.5,213.4 				"/>
				<path class="st71" d="M153.7,212.9l-83.6-50.1c-0.6-0.4-1.3-0.4-1.9,0l-83.6,50.1"/>
				<path class="st73" d="M104.1,220.6l-33.5-19.8c-0.5-0.3-1.2-0.3-1.7,0l-35,19.8c-0.5,0.3-0.8,0.9-0.8,1.5v36.5
					c0,0.9,0.7,1.7,1.7,1.7h68.4c0.9,0,1.7-0.7,1.7-1.7V222C105,221.4,104.7,220.9,104.1,220.6z"/>
				<path class="st28" d="M69.1,240.5L69.1,240.5c3.7,0,6.7,3,6.7,6.7l0,0v13.3l0,0H62.4l0,0v-13.3
					C62.4,243.5,65.4,240.5,69.1,240.5C69.1,240.5,69.1,240.5,69.1,240.5z"/>
				<polygon class="st74" points="69.9,202.6 33.2,223.4 33.2,230.1 69.9,209.3 105,230 105,223.3 				"/>
				<path class="st10" d="M68,214.6h2.1c0.8,0,1.4,0.6,1.4,1.4v14.6c0,0.8-0.6,1.4-1.4,1.4H68c-0.8,0-1.4-0.6-1.4-1.4V216
					C66.6,215.2,67.2,214.6,68,214.6z"/>
				<path class="st10" d="M61.9,222.8v-2.1c0-0.8,0.6-1.4,1.4-1.4h11.6c0.8,0,1.4,0.6,1.4,1.4v2.1c0,0.8-0.6,1.4-1.4,1.4H63.3
					C62.5,224.2,61.9,223.6,61.9,222.8z"/>
				<path class="st71" d="M112,222.7l-41-24.2c-0.6-0.4-1.4-0.4-2,0l-42.8,24.2"/>
				<path class="st75" d="M115.5,240.8h3.9c1,0,1.9,0.8,1.9,1.9v1.3c0,1-0.8,1.9-1.9,1.9h-3.9c-1,0-1.9-0.8-1.9-1.9v-1.3
					C113.7,241.6,114.5,240.8,115.5,240.8z"/>
				<path class="st75" d="M3.7,246.3h3.9c1,0,1.9,0.8,1.9,1.9v1.3c0,1-0.8,1.9-1.9,1.9H3.7c-1,0-1.9-0.8-1.9-1.9v-1.3
					C1.8,247.2,2.7,246.3,3.7,246.3z"/>
				<path class="st76" d="M127.4,246.3h3.9c1,0,1.9,0.8,1.9,1.9v1.3c0,1-0.8,1.9-1.9,1.9h-3.9c-1,0-1.9-0.8-1.9-1.9v-1.3
					C125.5,247.2,126.4,246.3,127.4,246.3z"/>
				<path class="st76" d="M11.4,238.3h3.9c1,0,1.9,0.8,1.9,1.9v1.3c0,1-0.8,1.9-1.9,1.9h-3.9c-1,0-1.9-0.8-1.9-1.9v-1.3
					C9.5,239.1,10.4,238.3,11.4,238.3z"/>
				<path class="st77" d="M61.9,132h14.4c1.4,0,2.5,1.1,2.5,2.5v14.4c0,1.4-1.1,2.5-2.5,2.5H61.9c-1.4,0-2.5-1.1-2.5-2.5v-14.4
					C59.4,133.1,60.5,132,61.9,132z"/>
				<path class="st78" d="M73.7,143.9h-0.2v-3.3c-0.1-2.5-2.1-4.5-4.6-4.4c-2.4,0.1-4.3,2-4.4,4.4v3.3h-0.2c-0.9,0-1.7,0.7-1.7,1.7
					c0,0.9,0.7,1.7,1.7,1.7h9.3c0.9,0,1.7-0.7,1.7-1.7C75.4,144.6,74.7,143.9,73.7,143.9L73.7,143.9z"/>
				<rect x="-18.1" y="259.5" class="st79" width="323" height="97.1"/>
				<path class="st80" d="M196.2,260.5l1.2-1.5c-0.5-3-3.1-5.1-6.2-5.1c-0.3,0-0.7,0-1,0.1c-3.1-8.2-12.2-12.4-20.4-9.3
					c-3,1.1-5.7,3.2-7.5,5.8c-3.4-1.8-7.6-1.9-11-0.1c-1.6-6.4-8.2-10.3-14.6-8.7c-1.3,0.3-2.5,0.9-3.6,1.6c-1.7-3-5.5-4.1-8.5-2.4
					s-4.1,5.5-2.4,8.5c-2.9,0.7-5.3,2.5-6.7,5.1c-3.1-1.5-6.8-0.1-8.3,3c-0.4,0.9-0.6,2-0.6,3l0,0H196.2z"/>
				<path class="st81" d="M203.3,235.9h2.4c0.9,0,1.7,0.8,1.7,1.7v0.6c0,0.9-0.7,1.7-1.7,1.7h-2.4c-0.9,0-1.7-0.8-1.7-1.7v-0.6
					C201.7,236.7,202.4,235.9,203.3,235.9z"/>
				<path class="st81" d="M165,235.9h2.4c0.9,0,1.7,0.8,1.7,1.7v0.6c0,0.9-0.7,1.7-1.7,1.7H165c-0.9,0-1.7-0.8-1.7-1.7v-0.6
					C163.3,236.7,164.1,235.9,165,235.9z"/>
				<path class="st82" d="M174.3,252.7h22.3c0.8,0,1.4,0.6,1.4,1.4l0,0c0,0.8-0.6,1.4-1.4,1.4h-22.3c-0.8,0-1.4-0.6-1.4-1.4l0,0
					C172.9,253.4,173.6,252.7,174.3,252.7z"/>
				<path class="st12" d="M167,251.7h6.9l0,0v7.9c0,0.5-0.4,0.9-0.9,0.9h0h-5.1c-0.5,0-0.9-0.4-0.9-0.9l0,0V251.7L167,251.7z"/>
				<path class="st12" d="M197.4,251.7h6.9l0,0v7.9c0,0.5-0.4,0.9-0.9,0.9h0h-5.1c-0.5,0-0.9-0.4-0.9-0.9l0,0L197.4,251.7
					L197.4,251.7z"/>
				
					<linearGradient id="SVGID_7_" gradientUnits="userSpaceOnUse" x1="185.2765" y1="351.4016" x2="185.2765" y2="313.9802" gradientTransform="matrix(1 0 0 -1 0 571.888)">
					<stop  offset="0" style="stop-color:#2194F4;stop-opacity:0.5"/>
					<stop  offset="1" style="stop-color:#2194F4;stop-opacity:0"/>
				</linearGradient>
				<path class="st83" d="M198.2,242.1h-25.8c-1.4,0-2.5-1.1-2.5-2.5c0-0.2,0-0.4,0.1-0.5l2.1-9.6c0.2-1.2,1.3-2,2.4-2h21.6
					c1.2,0,2.2,0.8,2.4,2l2.1,9.6c0.3,1.4-0.6,2.7-1.9,3C198.5,242.1,198.3,242.1,198.2,242.1z"/>
				<path class="st84" d="M202.4,238.5l-2.1-9.6c-0.4-2-2.2-3.4-4.2-3.4h-21.6c-2,0-3.8,1.4-4.2,3.4l-2.1,9.6
					c-0.5,2.3,1,4.7,3.3,5.2c0.3,0.1,0.6,0.1,0.9,0.1h25.8c2.4,0,4.3-1.9,4.3-4.3C202.5,239.1,202.5,238.8,202.4,238.5z M198.2,242
					h-25.8c-1.4,0-2.5-1.1-2.5-2.5c0-0.2,0-0.4,0.1-0.5l2.1-9.6c0.2-1.2,1.3-2,2.4-2h21.6c1.2,0,2.2,0.8,2.4,2l2.1,9.6
					c0.3,1.4-0.6,2.7-1.9,3C198.5,241.9,198.4,242,198.2,242z"/>
				<path class="st85" d="M170.8,238.5h29.8c2.5,0,4.6,2.1,4.6,4.6l0,0v5.4c0,1.3-1,2.3-2.3,2.3h-34.4c-1.3,0-2.3-1-2.3-2.3v-5.4
					C166.2,240.5,168.2,238.5,170.8,238.5L170.8,238.5z"/>
				<circle class="st81" cx="173.4" cy="244.8" r="3.6"/>
				<circle class="st86" cx="173.4" cy="244.8" r="2.3"/>
				<circle class="st81" cx="198.1" cy="244.8" r="3.6"/>
				<circle class="st86" cx="198.1" cy="244.8" r="2.3"/>
				<path class="st87" d="M183.4,250.6c0,0.1,0,0.1,0,0.2h4.5c0-0.1,0-0.1,0-0.2c0-6.1,4.5-11.2,10.5-11.9v-0.4c0-1-0.8-1.8-1.8-1.8
					h-22c-1,0-1.8,0.8-1.8,1.8v0v0.4C178.9,239.4,183.4,244.5,183.4,250.6z"/>
				<path class="st88" d="M179.4,244.5h12.7c0.8,0,1.4,0.6,1.4,1.4v4.2c0,0.8-0.6,1.4-1.4,1.4h-12.7c-0.8,0-1.4-0.6-1.4-1.4v-4.2
					C178,245.1,178.7,244.5,179.4,244.5z"/>
				<circle class="st86" cx="185.8" cy="247.1" r="1.7"/>
				<path class="st86" d="M180.8,246.3h2.7l0,0v1.6l0,0h-1.2C181.5,247.9,180.8,247.2,180.8,246.3L180.8,246.3L180.8,246.3z"/>
				<path class="st86" d="M189.2,247.9H188l0,0v-1.6l0,0h2.7l0,0v0.1C190.7,247.2,190,247.9,189.2,247.9
					C189.2,247.9,189.2,247.9,189.2,247.9z"/>
				<path class="st89" d="M166.3,249.3h38.6c0.6,0,1,0.5,1,1v2.7c0,0.6-0.5,1-1,1h-38.6c-0.6,0-1-0.5-1-1v-2.7
					C165.3,249.8,165.7,249.3,166.3,249.3z"/>
				<path class="st82" d="M174.3,252.7h22.3c0.8,0,1.4,0.6,1.4,1.4l0,0c0,0.8-0.6,1.4-1.4,1.4h-22.3c-0.8,0-1.4-0.6-1.4-1.4l0,0
					C172.9,253.4,173.6,252.7,174.3,252.7z"/>
				<path class="st12" d="M167,251.7h6.9l0,0v7.9c0,0.5-0.4,0.9-0.9,0.9h0h-5.1c-0.5,0-0.9-0.4-0.9-0.9l0,0V251.7L167,251.7z"/>
				<path class="st12" d="M197.4,251.7h6.9l0,0v7.9c0,0.5-0.4,0.9-0.9,0.9h0h-5.1c-0.5,0-0.9-0.4-0.9-0.9l0,0L197.4,251.7
					L197.4,251.7z"/>
				
					<linearGradient id="SVGID_8_" gradientUnits="userSpaceOnUse" x1="184.8663" y1="340.8616" x2="184.8663" y2="303.4402" gradientTransform="matrix(1 0 0 -1 0 571.888)">
					<stop  offset="0" style="stop-color:#2194F4;stop-opacity:0.5"/>
					<stop  offset="1" style="stop-color:#2194F4;stop-opacity:0"/>
				</linearGradient>
				<path class="st90" d="M197.7,252.6H172c-1.4,0-2.5-1.1-2.5-2.5c0-0.2,0-0.4,0.1-0.5l2.1-9.6c0.2-1.2,1.3-2,2.4-2h21.6
					c1.2,0,2.2,0.8,2.4,2l2.1,9.6c0.3,1.4-0.6,2.7-1.9,3C198.1,252.6,197.9,252.6,197.7,252.6z"/>
				<path class="st84" d="M202.4,238.5l-2.1-9.6c-0.4-2-2.2-3.4-4.2-3.4h-21.6c-2,0-3.8,1.4-4.2,3.4l-2.1,9.6
					c-0.5,2.3,1,4.7,3.3,5.2c0.3,0.1,0.6,0.1,0.9,0.1h25.8c2.4,0,4.3-1.9,4.3-4.3C202.5,239.1,202.5,238.8,202.4,238.5z M198.2,242
					h-25.8c-1.4,0-2.5-1.1-2.5-2.5c0-0.2,0-0.4,0.1-0.5l2.1-9.6c0.2-1.2,1.3-2,2.4-2h21.6c1.2,0,2.2,0.8,2.4,2l2.1,9.6
					c0.3,1.4-0.6,2.7-1.9,3C198.5,241.9,198.4,242,198.2,242z"/>
				<path class="st85" d="M170.8,238.5h29.8c2.5,0,4.6,2.1,4.6,4.6l0,0v5.4c0,1.3-1,2.3-2.3,2.3h-34.4c-1.3,0-2.3-1-2.3-2.3v-5.4
					C166.2,240.5,168.2,238.5,170.8,238.5L170.8,238.5z"/>
				<circle class="st81" cx="173.4" cy="244.8" r="3.6"/>
				<circle class="st86" cx="173.4" cy="244.8" r="2.3"/>
				<circle class="st81" cx="198.1" cy="244.8" r="3.6"/>
				<circle class="st86" cx="198.1" cy="244.8" r="2.3"/>
				<path class="st87" d="M183.4,250.6c0,0.1,0,0.1,0,0.2h4.5c0-0.1,0-0.1,0-0.2c0-6.1,4.5-11.2,10.5-11.9v-0.4c0-1-0.8-1.8-1.8-1.8
					h-22c-1,0-1.8,0.8-1.8,1.8v0v0.4C178.9,239.4,183.4,244.5,183.4,250.6z"/>
				<path class="st88" d="M179.4,244.5h12.7c0.8,0,1.4,0.6,1.4,1.4v4.2c0,0.8-0.6,1.4-1.4,1.4h-12.7c-0.8,0-1.4-0.6-1.4-1.4v-4.2
					C178,245.1,178.7,244.5,179.4,244.5z"/>
				<circle class="st86" cx="185.8" cy="247.1" r="1.7"/>
				<path class="st86" d="M180.8,246.3h2.7l0,0v1.6l0,0h-1.2C181.5,247.9,180.8,247.2,180.8,246.3L180.8,246.3L180.8,246.3z"/>
				<path class="st86" d="M189.2,247.9H188l0,0v-1.6l0,0h2.7l0,0v0.1C190.7,247.2,190,247.9,189.2,247.9
					C189.2,247.9,189.2,247.9,189.2,247.9z"/>
				<path class="st89" d="M166.3,249.3h38.6c0.6,0,1,0.5,1,1v2.7c0,0.6-0.5,1-1,1h-38.6c-0.6,0-1-0.5-1-1v-2.7
					C165.3,249.8,165.7,249.3,166.3,249.3z"/>
				<path class="st6" d="M255.3,235.9h2.4c0.9,0,1.7,0.8,1.7,1.7v0.6c0,0.9-0.8,1.7-1.7,1.7h-2.4c-0.9,0-1.7-0.8-1.7-1.7v-0.6
					C253.7,236.7,254.4,235.9,255.3,235.9z"/>
				<path class="st6" d="M213.6,235.9h2.4c0.9,0,1.7,0.8,1.7,1.7v0.6c0,0.9-0.8,1.7-1.7,1.7h-2.4c-0.9,0-1.7-0.8-1.7-1.7v-0.6
					C211.9,236.7,212.7,235.9,213.6,235.9z"/>
				<path class="st82" d="M222.9,252.7h25.8c0.8,0,1.4,0.6,1.4,1.4l0,0c0,0.8-0.6,1.4-1.4,1.4h-25.8c-0.8,0-1.4-0.6-1.4-1.4l0,0
					C221.5,253.4,222.2,252.7,222.9,252.7z"/>
				<path class="st12" d="M215.6,251.7h6.9l0,0v7.9c0,0.5-0.4,0.9-0.9,0.9h0h-5.1c-0.5,0-0.9-0.4-0.9-0.9l0,0L215.6,251.7
					L215.6,251.7z"/>
				<path class="st12" d="M249.4,251.7h6.9l0,0v7.9c0,0.5-0.4,0.9-0.9,0.9h0h-5.1c-0.5,0-0.9-0.4-0.9-0.9l0,0L249.4,251.7
					L249.4,251.7z"/>
				
					<linearGradient id="SVGID_9_" gradientUnits="userSpaceOnUse" x1="235.5804" y1="351.4016" x2="235.5804" y2="313.9802" gradientTransform="matrix(1 0 0 -1 0 571.888)">
					<stop  offset="0" style="stop-color:#2194F4;stop-opacity:0.5"/>
					<stop  offset="1" style="stop-color:#2194F4;stop-opacity:0"/>
				</linearGradient>
				<path class="st91" d="M250.2,242.1H221c-1.4,0-2.5-1.1-2.5-2.5c0-0.2,0-0.4,0.1-0.5l2.1-9.6c0.2-1.2,1.3-2,2.4-2h25
					c1.2,0,2.2,0.8,2.4,2l2.1,9.6c0.3,1.4-0.6,2.7-1.9,3C250.5,242.1,250.4,242.1,250.2,242.1z"/>
				<path class="st84" d="M254.4,238.5l-2.1-9.6c-0.4-2-2.2-3.4-4.2-3.4h-25c-2,0-3.8,1.4-4.2,3.4l-2.1,9.6c-0.5,2.3,1,4.7,3.3,5.2
					c0.3,0.1,0.6,0.1,0.9,0.1h29.2c2.4,0,4.3-1.9,4.3-4.3C254.5,239.1,254.5,238.8,254.4,238.5L254.4,238.5z M250.2,242H221
					c-1.4,0-2.5-1.1-2.5-2.5c0-0.2,0-0.4,0.1-0.5l2.1-9.6c0.2-1.2,1.3-2,2.4-2h25c1.2,0,2.2,0.8,2.4,2l2.1,9.6
					c0.3,1.4-0.6,2.7-1.9,3C250.6,241.9,250.4,242,250.2,242z"/>
				<path class="st85" d="M219.4,238.5h33.2c2.5,0,4.6,2.1,4.6,4.6v5.4c0,1.3-1,2.3-2.3,2.3l0,0h-37.8c-1.3,0-2.3-1-2.3-2.3v-5.4
					C214.8,240.5,216.8,238.5,219.4,238.5z"/>
				<circle class="st81" cx="222" cy="244.8" r="3.6"/>
				<circle class="st86" cx="222" cy="244.8" r="2.3"/>
				<circle class="st81" cx="250.1" cy="244.8" r="3.6"/>
				<circle class="st86" cx="250.1" cy="244.8" r="2.3"/>
				<path class="st87" d="M232,250.6c0,0.1,0,0.1,0,0.2h7.9c0-0.1,0-0.1,0-0.2c0-6.1,4.5-11.2,10.5-11.9v-0.4c0-1-0.8-1.8-1.8-1.8h0
					h-25.4c-1,0-1.8,0.8-1.8,1.8v0v0.4C227.5,239.4,232,244.5,232,250.6z"/>
				<path class="st88" d="M228,244.5h16.1c0.8,0,1.4,0.6,1.4,1.4v4.2c0,0.8-0.6,1.4-1.4,1.4H228c-0.8,0-1.4-0.6-1.4-1.4v-4.2
					C226.6,245.1,227.3,244.5,228,244.5z"/>
				<path class="st86" d="M239.5,247.1c0-0.9-4.2-1.7-5.1-1.7c-0.9,0-1.7,0.7-1.7,1.6c0,0.9,0.7,1.7,1.6,1.7c0,0,0.1,0,0.1,0
					C235.3,248.8,239.5,248,239.5,247.1z"/>
				<path class="st86" d="M229.4,246.3h2.7l0,0v1.6l0,0h-1.2C230.1,247.9,229.4,247.2,229.4,246.3L229.4,246.3L229.4,246.3z"/>
				<path class="st86" d="M241.2,247.9H240l0,0v-1.6l0,0h2.7l0,0v0.1C242.7,247.2,242,247.9,241.2,247.9
					C241.2,247.9,241.2,247.9,241.2,247.9z"/>
				<path class="st89" d="M214.9,249.3H257c0.6,0,1,0.5,1,1v2.7c0,0.6-0.5,1-1,1h-42.1c-0.6,0-1-0.5-1-1v-2.7
					C213.9,249.8,214.3,249.3,214.9,249.3z"/>
				<path class="st82" d="M222.9,252.7h25.8c0.8,0,1.4,0.6,1.4,1.4l0,0c0,0.8-0.6,1.4-1.4,1.4h-25.8c-0.8,0-1.4-0.6-1.4-1.4l0,0
					C221.5,253.4,222.2,252.7,222.9,252.7z"/>
				<path class="st12" d="M215.6,251.7h6.9l0,0v7.9c0,0.5-0.4,0.9-0.9,0.9h0h-5.1c-0.5,0-0.9-0.4-0.9-0.9l0,0L215.6,251.7
					L215.6,251.7z"/>
				<path class="st12" d="M249.4,251.7h6.9l0,0v7.9c0,0.5-0.4,0.9-0.9,0.9h0h-5.1c-0.5,0-0.9-0.4-0.9-0.9l0,0L249.4,251.7
					L249.4,251.7z"/>
				
					<linearGradient id="SVGID_10_" gradientUnits="userSpaceOnUse" x1="235.1698" y1="340.8616" x2="235.1698" y2="303.4402" gradientTransform="matrix(1 0 0 -1 0 571.888)">
					<stop  offset="0" style="stop-color:#2194F4;stop-opacity:0.5"/>
					<stop  offset="1" style="stop-color:#2194F4;stop-opacity:0"/>
				</linearGradient>
				<path class="st92" d="M249.8,252.6h-29.2c-1.4,0-2.5-1.1-2.5-2.5c0-0.2,0-0.4,0.1-0.5l2.1-9.6c0.2-1.2,1.3-2,2.4-2h25
					c1.2,0,2.2,0.8,2.4,2l2.1,9.6c0.3,1.4-0.6,2.7-1.9,3C250.1,252.6,249.9,252.6,249.8,252.6z"/>
				<path class="st93" d="M254.4,238.5l-2.1-9.6c-0.4-2-2.2-3.4-4.2-3.4h-25c-2,0-3.8,1.4-4.2,3.4l-2.1,9.6c-0.5,2.3,1,4.7,3.3,5.2
					c0.3,0.1,0.6,0.1,0.9,0.1h29.2c2.4,0,4.3-1.9,4.3-4.3C254.5,239.1,254.5,238.8,254.4,238.5L254.4,238.5z M250.2,242H221
					c-1.4,0-2.5-1.1-2.5-2.5c0-0.2,0-0.4,0.1-0.5l2.1-9.6c0.2-1.2,1.3-2,2.4-2h25c1.2,0,2.2,0.8,2.4,2l2.1,9.6
					c0.3,1.4-0.6,2.7-1.9,3C250.6,241.9,250.4,242,250.2,242z"/>
				<path class="st6" d="M219.4,238.5h33.2c2.5,0,4.6,2.1,4.6,4.6v5.4c0,1.3-1,2.3-2.3,2.3l0,0h-37.8c-1.3,0-2.3-1-2.3-2.3v-5.4
					C214.8,240.5,216.8,238.5,219.4,238.5z"/>
				<circle class="st94" cx="222" cy="244.8" r="3.6"/>
				<circle class="st86" cx="222" cy="244.8" r="2.3"/>
				<circle class="st94" cx="250.1" cy="244.8" r="3.6"/>
				<circle class="st86" cx="250.1" cy="244.8" r="2.3"/>
				<path class="st93" d="M232,250.6c0,0.1,0,0.1,0,0.2h7.9c0-0.1,0-0.1,0-0.2c0-6.1,4.5-11.2,10.5-11.9v-0.4c0-1-0.8-1.8-1.8-1.8h0
					h-25.4c-1,0-1.8,0.8-1.8,1.8v0v0.4C227.5,239.4,232,244.5,232,250.6z"/>
				<path class="st88" d="M228,244.5h16.1c0.8,0,1.4,0.6,1.4,1.4v4.2c0,0.8-0.6,1.4-1.4,1.4H228c-0.8,0-1.4-0.6-1.4-1.4v-4.2
					C226.6,245.1,227.3,244.5,228,244.5z"/>
				<path class="st94" d="M214.9,249.3H257c0.6,0,1,0.5,1,1v2.7c0,0.6-0.5,1-1,1h-42.1c-0.6,0-1-0.5-1-1v-2.7
					C213.9,249.8,214.3,249.3,214.9,249.3z"/>
				<line class="st95" x1="228.4" y1="247.8" x2="243.8" y2="247.8"/>
				<line class="st95" x1="228.4" y1="246.2" x2="243.8" y2="246.2"/>
			</g>
		</g>
		<path class="st1" d="M721.8,199.7l-344.9,89.4c-9.2,2.4-14.7,11.8-12.3,21.1c0.7,2.8,2.1,5.3,4.1,7.4l222,237.1
			c8.6,9.2,20.6,14.4,33.2,14.4h102.4c9.5,0,17.3-7.7,17.3-17.3c0,0,0,0,0,0V216.5c0-9.5-7.7-17.3-17.3-17.3
			C724.7,199.2,723.2,199.4,721.8,199.7z"/>
		<g>
			<defs>
				<path id="SVGID_11_" d="M721.8,199.7l-344.9,89.4c-9.2,2.4-14.7,11.8-12.3,21.1c0.7,2.8,2.1,5.3,4.1,7.4l222,237.1
					c8.6,9.2,20.6,14.4,33.2,14.4h102.4c9.5,0,17.3-7.7,17.3-17.3c0,0,0,0,0,0V216.5c0-9.5-7.7-17.3-17.3-17.3
					C724.7,199.2,723.2,199.4,721.8,199.7z"/>
			</defs>
			<clipPath id="SVGID_12_">
				<use xlink:href="#SVGID_11_"  style="overflow:visible;"/>
			</clipPath>
			<g class="st96">
				<path class="st20" d="M670.9,242.9c-13.2-1.7-26.1,5.2-31.9,17.2h-4.3c-8.9,0-16.1,7.2-16.1,16.1c0,0,0,0,0,0v11h20.2
					c7.4,15.5,26,22.1,41.5,14.7c15.5-7.4,22.1-26,14.7-41.5C690.4,250.8,681.3,244.2,670.9,242.9L670.9,242.9z"/>
				<path class="st97" d="M579.1,484.9c0.1,0.1,0.2,0.2,0.3,0.3c4.4,4.2,11.4,4,15.6-0.4c67.6-71.4,44.5-107,41.6-110.8l-17.7,13.2
					c-0.1-0.1-0.2-0.2-0.3-0.4c0.2,0.2,14.6,25.4-39.7,82.7C574.8,473.8,574.9,480.6,579.1,484.9z"/>
				<path class="st48" d="M634.1,361.8h45.3c10.2,0,18.5,8.3,18.5,18.5c0,0,0,0,0,0v82.4c0,1.6-1.3,3-3,3l0,0h-76.3
					c-1.6,0-3-1.3-3-3l0,0v-82.4C615.6,370,623.9,361.8,634.1,361.8C634.1,361.8,634.1,361.8,634.1,361.8z"/>
				<rect x="618.8" y="465.6" class="st29" width="76.2" height="124.9"/>
				<path class="st30" d="M618.9,488.4v-4.3c10.2,0,18.5-8.3,18.5-18.5h4.3C641.7,478.2,631.5,488.4,618.9,488.4z"/>
				<path class="st30" d="M694.8,488.4c-12.6,0-22.8-10.2-22.8-22.8h4.3c0,10.2,8.3,18.5,18.5,18.5V488.4z"/>
				<rect x="654.7" y="490.7" class="st30" width="4.3" height="99.8"/>
				<rect x="649.5" y="487.8" class="st30" width="14.8" height="4.3"/>
				<path class="st48" d="M608.9,411l5.7-33.5c1.8-10.4,11.7-17.5,22.1-15.7l0,0l0,0c10.4,1.8,17.5,11.7,15.7,22.1l0,0l-5.7,33.5
					c-0.3,1.6-1.8,2.7-3.4,2.4l0,0l-32-5.4C609.7,414.1,608.6,412.6,608.9,411L608.9,411z"/>
				<path class="st48" d="M690.9,419.1l-22.4-25.5c-7-8-6.2-20.1,1.8-27.1v0l0,0c8-7,20.1-6.2,27.1,1.8c0,0,0,0,0,0l22.4,25.5
					c1.1,1.2,0.9,3.1-0.3,4.2l0,0L695,419.3C693.8,420.4,691.9,420.3,690.9,419.1C690.9,419.1,690.9,419.1,690.9,419.1z"/>
				<path class="st97" d="M647.7,354.3h19.1l0,0v15.4c0,5.3-4.3,9.6-9.6,9.6l0,0l0,0c-5.3,0-9.6-4.3-9.6-9.6v0V354.3L647.7,354.3z"
					/>
				<path class="st34" d="M645.6,357.7l-8,21.5c-0.6,1.5,0.2,3.2,1.7,3.8c0.5,0.2,1.1,0.2,1.7,0.1l16.4-3.6L645.6,357.7z"/>
				<path class="st34" d="M669.1,357.7l7.8,21.5c0.6,1.5-0.2,3.2-1.8,3.8c-0.5,0.2-1.1,0.2-1.6,0.1l-16.4-3.6L669.1,357.7z"/>
				<circle class="st97" cx="697.4" cy="315.4" r="12.4"/>
				<circle class="st97" cx="618.6" cy="315.4" r="12.4"/>
				<circle class="st44" cx="657.5" cy="393.5" r="3.4"/>
				<circle class="st44" cx="657.5" cy="409.8" r="3.4"/>
				<circle class="st44" cx="657.5" cy="393.5" r="3.4"/>
				<path class="st60" d="M619.2,285.4v43.4c0,21.1,17.1,38.3,38.3,38.3l0,0l0,0c21.1,0,38.3-17.1,38.3-38.3l0,0v-43.4H619.2z"/>
				<path class="st20" d="M632.3,304.8c-1,0-1.9-0.8-1.9-1.9c0-0.2,0-0.4,0.1-0.6c1.8-4.8,7.1-7.3,12-5.5c0,0,0,0,0,0
					c1,0.4,1.4,1.5,1.1,2.4c-0.4,0.9-1.4,1.4-2.4,1.1c-2.9-1.1-6.1,0.4-7.1,3.3c0,0,0,0,0,0C633.8,304.3,633.1,304.8,632.3,304.8z"
					/>
				<path class="st20" d="M682.4,304.8c-0.8,0-1.5-0.5-1.8-1.2c-1.1-2.9-4.3-4.3-7.1-3.3c-1,0.4-2.1-0.2-2.4-1.1
					c-0.3-1,0.1-2,1.1-2.4c4.8-1.8,10.2,0.7,12,5.5c0.4,1-0.1,2.1-1.1,2.4C682.8,304.8,682.6,304.8,682.4,304.8L682.4,304.8z"/>
				<path class="st20" d="M678.3,330.3L678.3,330.3c0-1.4-1.2-2.6-2.6-2.6c0,0,0,0,0,0H640c-1.4,0-2.6,1.1-2.6,2.6l0,0
					c0,1.4-1.2,2.6-2.6,2.6c0,0,0,0,0,0h-16.3v2.1c0.1,21.2,17.4,38.3,38.6,38.2l0,0c21.2,0.1,38.5-17,38.6-38.2v-2.1h-14.8
					C679.5,332.9,678.4,331.7,678.3,330.3C678.3,330.3,678.3,330.3,678.3,330.3z"/>
				<path class="st43" d="M646.5,336.3h25l0,0v5.9c0,5.9-4.8,10.8-10.8,10.8c0,0,0,0,0,0H650c-1.9,0-3.4-1.5-3.4-3.4V336.3
					L646.5,336.3z"/>
				<rect x="646" y="336.1" class="st24" width="26" height="6.4"/>
				<path class="st23" d="M670.1,347.6c-2.7-2.8-7.2-2.9-10-0.2c-1.4,1.3-2.1,3.2-2.1,5.1c0,0.2,0,0.3,0,0.5h2.7
					C664.6,353,668.2,350.9,670.1,347.6z"/>
				<path class="st98" d="M662.4,325.2h-8.8c-1.1,0-2.1-0.9-2.1-2.1c0-1.1,0.9-2.1,2.1-2.1c0,0,0,0,0,0h8.8c1.1,0,2.1,0.9,2.1,2.1
					C664.5,324.2,663.5,325.2,662.4,325.2z"/>
				<rect x="618.7" y="280.9" class="st20" width="6.4" height="55.2"/>
				<rect x="689.4" y="280.9" class="st20" width="6.4" height="55.2"/>
				<line class="st99" x1="712.1" y1="430.8" x2="712.1" y2="376.9"/>
				<path class="st97" d="M704.1,354h16.4c3.3,0,6,2.7,6,6v16.4c0,3.3-2.7,6-6,6h-16.4c-3.3,0-6-2.7-6-6v-16.4
					C698.1,356.6,700.8,354,704.1,354z"/>
				<line class="st100" x1="707.4" y1="362.4" x2="707.4" y2="345.6"/>
				<line class="st101" x1="726.9" y1="359.1" x2="710.1" y2="359.1"/>
				<line class="st101" x1="726.9" y1="369.4" x2="710.1" y2="369.4"/>
				<line class="st101" x1="726.9" y1="379.7" x2="710.1" y2="379.7"/>
				<line class="st99" x1="712.1" y1="430.8" x2="712.1" y2="376.9"/>
				<path class="st97" d="M704.1,354h16.4c3.3,0,6,2.7,6,6v16.4c0,3.3-2.7,6-6,6h-16.4c-3.3,0-6-2.7-6-6v-16.4
					C698.1,356.6,700.8,354,704.1,354z"/>
				<line class="st100" x1="707.4" y1="362.4" x2="707.4" y2="345.6"/>
				<line class="st101" x1="726.9" y1="359.1" x2="710.1" y2="359.1"/>
				<line class="st101" x1="726.9" y1="369.4" x2="710.1" y2="369.4"/>
				<line class="st101" x1="726.9" y1="379.7" x2="710.1" y2="379.7"/>
				<path class="st97" d="M578.6,460.4c0.7,0.7,1.6,1.2,2.6,1.3l10,1.2c2.4,0.3,4.6-1.4,4.9-3.8c0.3-2.4-1.4-4.6-3.8-4.9l-10-1.2
					c-2.4-0.3-4.6,1.4-4.9,3.8C577.2,458.1,577.6,459.4,578.6,460.4L578.6,460.4z"/>
				<path class="st98" d="M645.9,312.2c-0.7,0-1.3-0.5-1.5-1.2c-0.5-2.1-2.5-3.4-4.6-2.9c-1.5,0.3-2.6,1.5-2.9,2.9
					c-0.2,0.8-1,1.3-1.8,1.1c-0.8-0.2-1.3-1-1.1-1.8c0.8-3.7,4.5-6.1,8.3-5.2c2.6,0.6,4.6,2.6,5.2,5.2c0.2,0.8-0.3,1.6-1.2,1.8
					C646.1,312.2,646,312.2,645.9,312.2z"/>
				<path class="st98" d="M679.1,312.2c-0.7,0-1.3-0.5-1.5-1.2c-0.5-2.1-2.5-3.4-4.6-2.9c-1.5,0.3-2.6,1.5-2.9,2.9
					c-0.2,0.8-1,1.3-1.8,1.1c-0.8-0.2-1.3-1-1.1-1.8c0.8-3.7,4.5-6.1,8.3-5.2c2.6,0.6,4.6,2.6,5.2,5.2c0.2,0.8-0.3,1.6-1.2,1.8
					c0,0,0,0,0,0C679.4,312.2,679.3,312.2,679.1,312.2z"/>
				<path class="st12" d="M563.2,336.1c-11.8,14.6-9.6,35.9,5,47.7c4.5,3.7,9.9,6.1,15.7,7.1l0.1,0c2,0.3,3.3,2.1,3,4.1
					c-0.1,0.9-0.6,1.8-1.4,2.3c-15.1,11.1-36.4,7.8-47.4-7.4c-11.1-15.1-7.8-36.4,7.4-47.4C550.7,338.8,556.8,336.5,563.2,336.1
					L563.2,336.1z"/>
				<rect x="509.8" y="491" class="st17" width="16.3" height="103.4"/>
				<rect x="538" y="491" class="st5" width="15.4" height="103.4"/>
				<rect x="506.5" y="491" class="st102" width="22.9" height="88"/>
				<rect x="534.3" y="491" class="st102" width="22.9" height="88"/>
				<rect x="506.5" y="491" class="st102" width="50.7" height="14.6"/>
				<path class="st103" d="M515.8,390.7h32.4c9,0,16.4,7.3,16.4,16.4l-2.8,27.4c-2.1,21.1-1.3,33.4,2.4,54.2l0.4,2.3
					c0,1.4-1.2,2.6-2.6,2.6l-59.9,0c-1.4,0-2.6-1.2-2.6-2.6l0,0c4.3-22.4,5.2-36.3,2.7-59l-2.7-25
					C499.5,398,506.8,390.7,515.8,390.7z"/>
				<path class="st17" d="M532,400.8L532,400.8c-4.5,0-8.2-3.7-8.2-8.2l0-13.3l0,0l16.5,0l0,0l0,13.3
					C540.3,397.1,536.6,400.8,532,400.8C532,400.8,532,400.8,532,400.8z"/>
				<path class="st12" d="M573.1,345.5l-83,0l0,0l0-23c0-22.9,18.6-41.5,41.5-41.5l0,0c22.9,0,41.5,18.6,41.5,41.5v0L573.1,345.5
					L573.1,345.5z"/>
				<circle class="st17" cx="567.5" cy="345.5" r="11.3"/>
				<circle class="st17" cx="496.5" cy="345.5" r="11.3"/>
				<path class="st5" d="M567.5,324.8v26.5c0,19.6-15.9,35.5-35.5,35.5l0,0c-19.6,0-35.5-15.9-35.5-35.5l0,0v-26.5l18.4-17.2
					L567.5,324.8z"/>
				<path class="st12" d="M553.9,336.9c1,0,1.8-0.8,1.8-1.8c0-0.8-0.5-1.5-1.2-1.7l-8.6-2.9c-0.9-0.3-2,0.2-2.3,1.1
					c-0.3,0.9,0.2,2,1.1,2.3c0,0,0,0,0.1,0l8.6,2.9C553.5,336.9,553.7,336.9,553.9,336.9z"/>
				<path class="st12" d="M510.1,336.8c0.2,0,0.4,0,0.6-0.1l8.6-2.9c0.9-0.3,1.4-1.3,1.1-2.3c-0.3-0.9-1.3-1.4-2.3-1.1l-8.6,2.9
					c-0.9,0.3-1.4,1.3-1.1,2.3C508.6,336.3,509.3,336.8,510.1,336.8L510.1,336.8z"/>
				<path class="st21" d="M530.3,360.5h4c1,0,1.8-0.8,1.8-1.8s-0.8-1.8-1.8-1.8h-3.8v-6.8c0-1-0.8-1.8-1.8-1.7c-1,0-1.7,0.8-1.7,1.7
					v7C526.9,359,528.4,360.5,530.3,360.5z"/>
				<path class="st21" d="M539.8,347.6c0.8,0,1.6-0.6,1.7-1.4c0.6-2.5,3-4,5.5-3.4c1.7,0.4,3,1.7,3.4,3.4c0.2,1,1.1,1.6,2.1,1.4
					c1-0.2,1.6-1.1,1.4-2.1c0,0,0,0,0-0.1c-1-4.4-5.3-7.1-9.7-6.2c-3.1,0.7-5.5,3.1-6.2,6.2c-0.2,1,0.4,1.9,1.4,2.1c0,0,0,0,0,0
					C539.6,347.6,539.7,347.6,539.8,347.6z"/>
				<path class="st21" d="M511.8,347.6c0.8,0,1.6-0.6,1.7-1.4c0.6-2.5,3-4,5.4-3.4c1.7,0.4,3.1,1.7,3.4,3.4c0.2,1,1.1,1.6,2.1,1.4
					c1-0.2,1.6-1.1,1.4-2.1c0,0,0,0,0-0.1c-1-4.4-5.3-7.1-9.7-6.2c-3.1,0.7-5.5,3.1-6.2,6.2c-0.2,1,0.4,1.9,1.4,2.1c0,0,0,0,0,0
					C511.6,347.6,511.7,347.6,511.8,347.6z"/>
				<path class="st22" d="M521.4,365.7c-1.1,0-2,0.9-2,2c0,0.1,0,0.2,0,0.3c1.3,6.9,7.9,11.5,14.9,10.3c5.2-1,9.3-5,10.3-10.3
					c0.2-1.1-0.6-2.1-1.7-2.3c-0.1,0-0.2,0-0.3,0H521.4z"/>
				<path class="st23" d="M529.7,373.4c2.9,0.9,4.9,2.9,5,4.8c-4.3,0.9-8.8-0.4-11.8-3.6C524,373.1,526.8,372.5,529.7,373.4z"/>
				<path class="st24" d="M521.4,365.6h21.1c1.1,0,2,0.8,2,1.9c0,0.1,0,0.2,0,0.3c-0.1,0.7-0.3,1.4-0.6,2.1h-24
					c-0.3-0.7-0.5-1.4-0.6-2.1c-0.2-1.1,0.6-2.1,1.7-2.2C521.2,365.6,521.3,365.6,521.4,365.6z"/>
				<path class="st5" d="M574.6,480.2c0.8-0.1,1.5-0.4,2.1-1l5.8-5.5c1.4-1.3,1.5-3.5,0.2-5c-1.3-1.4-3.5-1.5-5-0.2c0,0,0,0-0.1,0.1
					l-5.8,5.5c-1.4,1.3-1.5,3.6-0.1,5C572.5,479.9,573.5,480.3,574.6,480.2z"/>
				<path class="st5" d="M589.2,489.7c0.1,0,0.2,0,0.3,0c4.8-0.6,8.2-5,7.6-9.8c0,0,0,0,0,0c-9.8-77.4-43.4-81.2-47.1-81.3
					l-0.8,17.6c-0.1,0-0.2,0-0.4,0c0.2,0,23,3.8,30.9,66C580.3,486.7,584.5,490.1,589.2,489.7z"/>
				<path class="st103" d="M559.3,435.5l-19.5-18.6c-6.1-5.8-6.3-15.4-0.5-21.5l0,0l0,0c5.8-6.1,15.4-6.3,21.5-0.5l0,0l19.5,18.6
					c0.9,0.9,1,2.4,0.1,3.3l-17.8,18.7C561.7,436.4,560.3,436.4,559.3,435.5z"/>
				<path class="st5" d="M451.2,330.7c-0.1,0-0.2,0.1-0.3,0.1c-4.6,1.7-6.9,6.7-5.3,11.3c0,0,0,0,0,0c26.6,73.4,60.2,69.7,63.9,69
					l-3.1-17.3c0.1,0,0.2,0,0.4-0.1c-0.2,0-23.2,1.3-44.6-57.6C460.6,331.6,455.8,329.2,451.2,330.7z"/>
				<path class="st103" d="M492.3,376.9l23.2,13.8c7.2,4.3,9.6,13.7,5.3,20.9l0,0c-4.3,7.2-13.7,9.6-20.9,5.3c0,0,0,0,0,0L476.7,403
					c-1.1-0.7-1.5-2.1-0.8-3.2l0,0l13.2-22.1C489.8,376.6,491.2,376.2,492.3,376.9L492.3,376.9L492.3,376.9z"/>
				<path class="st17" d="M543.3,406.9l-22.5,0c-4.5,0-8.1-3.6-8.1-8.1v0c0-4.5,3.6-8.1,8.1-8.1l22.5,0c4.5,0,8.1,3.6,8.1,8.1v0
					C551.4,403.3,547.8,406.9,543.3,406.9z"/>
				<path class="st12" d="M514.9,295.3l57.9,22.5c-0.1,0.4-0.2,0.8-0.3,1.1c-3.4,10.2-19.5,14-35.9,8.6
					c-16.5-5.5-27.1-18.1-23.7-28.3C513.2,297.7,513.9,296.4,514.9,295.3z"/>
				<path class="st12" d="M490.3,324.5l26.2-21.2c0.2,0.1,0.3,0.3,0.5,0.5c3.9,4.3,1.3,12.9-5.7,19.2c-7,6.3-15.9,7.9-19.7,3.6
					C491,326,490.6,325.3,490.3,324.5z"/>
				<path class="st12" d="M570.3,365.4L570.3,365.4c-1.5,0-2.8-1.2-2.8-2.8l0,0l0-31.9l0,0l5.5,0l0,0l0,31.9
					C573.1,364.1,571.9,365.4,570.3,365.4z"/>
				<path class="st12" d="M493.3,365.4L493.3,365.4c-1.8,0-3.2-1.4-3.2-3.2v0l0-31.5l0,0l6.5,0l0,0l0,31.5
					C496.5,364,495.1,365.4,493.3,365.4z"/>
				<path class="st5" d="M463.1,347.3c0.8-0.1,1.5-0.4,2.1-1l5.8-5.5c1.4-1.3,1.5-3.5,0.2-5c-1.3-1.4-3.5-1.5-5-0.2c0,0,0,0-0.1,0.1
					l-5.8,5.5c-1.4,1.3-1.5,3.6-0.1,5C460.9,347,462,347.4,463.1,347.3L463.1,347.3z"/>
			</g>
		</g>
	</g>
</g>
</svg>
