<svg width="606" height="491" viewBox="0 0 606 491" fill="none" xmlns="http://www.w3.org/2000/svg">
<path d="M514.608 369.584C451.614 399.761 380.46 422.639 325.147 432.524C268.398 442.062 226.914 434.135 186.662 400.295C147.196 366.81 110.783 317.559 78.0726 272.991C46.2597 227.325 18.8237 188.149 19.7216 146.141C20.2461 105.469 50.3903 60.7416 116.875 28.8345C181.805 -2.57245 286.652 -16.2332 393.442 30.8445C499.947 75.9885 574.618 165.998 592.094 230.451C611.687 297.665 576.689 339.296 514.608 369.584Z" fill="url(#paint0_linear)"/>
<path d="M55.8587 346.767C32.9423 269.068 58.1988 188.602 114.202 137.375" stroke="url(#paint1_linear)" stroke-width="5" stroke-linecap="round" stroke-linejoin="round" stroke-dasharray="10 15"/>
<path d="M556.266 351.641C576.35 273.162 548.193 193.665 490.369 144.502" stroke="url(#paint2_linear)" stroke-width="5" stroke-linecap="round" stroke-linejoin="round" stroke-dasharray="10 15"/>
<g filter="url(#filter0_di)">
<rect x="127" y="85" width="348" height="286" rx="30" fill="url(#paint3_linear)"/>
</g>
<g filter="url(#filter1_d)">
<rect x="163" y="132" width="95" height="65" rx="10" fill="url(#paint4_linear)"/>
</g>
<path d="M220.226 169.154H201.052C200.565 169.154 200.217 168.776 200.217 168.329V147.517C200.217 147.311 200.287 147.139 200.391 147.002L209.821 141.095C210.169 140.683 210.795 140.683 211.143 141.095L220.852 146.968C220.991 147.105 221.026 147.311 221.026 147.483V168.295C221.061 168.81 220.678 169.154 220.226 169.154Z" fill="#DDB797"/>
<path d="M198.895 148.616L209.717 141.061C210.1 140.58 210.83 140.58 211.248 141.061L222.348 148.616" stroke="#7F605E" stroke-width="4.8" stroke-miterlimit="10" stroke-linecap="round"/>
<path d="M235.884 173.206L210.795 158.37C210.621 158.267 210.378 158.267 210.204 158.37L185.08 173.206C184.906 173.309 184.802 173.481 184.802 173.687V189.45C184.802 189.76 185.045 190 185.359 190H235.571C235.884 190 236.128 189.76 236.128 189.45V173.687C236.163 173.481 236.058 173.309 235.884 173.206Z" fill="#DDB797"/>
<path d="M210.482 159.091L184.802 174.271V177.121L210.482 161.941L236.163 177.121V174.271L210.482 159.091Z" fill="#CE9772"/>
<path d="M239.295 174.099L210.83 157.271C210.622 157.133 210.378 157.133 210.169 157.271L181.705 174.099" stroke="#7F605E" stroke-width="4.8" stroke-miterlimit="10" stroke-linecap="round"/>
<path d="M222.453 176.675L211.039 170.046C210.865 169.943 210.656 169.943 210.482 170.046L198.582 176.709C198.408 176.812 198.303 176.984 198.303 177.19V189.451C198.303 189.76 198.547 190 198.86 190H222.174C222.487 190 222.731 189.76 222.731 189.451V177.156C222.731 176.984 222.627 176.778 222.453 176.675Z" fill="#EDD0B4"/>
<path d="M210.482 184.059C209.23 184.059 208.22 185.055 208.22 186.291V190H212.779V186.291C212.779 185.055 211.77 184.059 210.482 184.059Z" fill="#7F605E"/>
<path d="M210.795 170.665L198.268 177.636V179.869L210.795 172.897L222.731 179.834V177.602L210.795 170.665Z" fill="#C4A183"/>
<path d="M210.865 181.208H210.134C209.856 181.208 209.647 181.002 209.647 180.727V175.816C209.647 175.541 209.856 175.335 210.134 175.335H210.865C211.144 175.335 211.352 175.541 211.352 175.816V180.727C211.318 181.002 211.109 181.208 210.865 181.208Z" fill="white"/>
<path d="M212.953 177.396V178.117C212.953 178.392 212.744 178.598 212.466 178.598H208.534C208.255 178.598 208.047 178.392 208.047 178.117V177.396C208.047 177.121 208.255 176.915 208.534 176.915H212.466C212.744 176.95 212.953 177.156 212.953 177.396Z" fill="white"/>
<path d="M225.097 177.396L211.143 169.257C210.935 169.119 210.656 169.119 210.447 169.257L195.902 177.396" stroke="#7F605E" stroke-width="4.8" stroke-miterlimit="10" stroke-linecap="round"/>
<path d="M227.672 185.158H226.35C226.002 185.158 225.724 184.883 225.724 184.539V184.127C225.724 183.784 226.002 183.509 226.35 183.509H227.672C228.02 183.509 228.299 183.784 228.299 184.127V184.539C228.299 184.883 228.02 185.158 227.672 185.158Z" fill="#C99B79"/>
<path d="M189.569 187.012H188.247C187.899 187.012 187.62 186.737 187.62 186.394V185.982C187.62 185.638 187.899 185.364 188.247 185.364H189.569C189.917 185.364 190.195 185.638 190.195 185.982V186.394C190.23 186.737 189.952 187.012 189.569 187.012Z" fill="#C99B79"/>
<path d="M231.709 187.012H230.386C230.038 187.012 229.76 186.737 229.76 186.394V185.982C229.76 185.638 230.038 185.364 230.386 185.364H231.709C232.057 185.364 232.335 185.638 232.335 185.982V186.394C232.335 186.737 232.057 187.012 231.709 187.012Z" fill="#F2C8AD"/>
<path d="M192.214 184.299H190.891C190.543 184.299 190.265 184.024 190.265 183.681V183.269C190.265 182.925 190.543 182.651 190.891 182.651H192.214C192.562 182.651 192.84 182.925 192.84 183.269V183.681C192.84 184.024 192.562 184.299 192.214 184.299Z" fill="#F2C8AD"/>
<path d="M212.918 146.899H208.047C207.559 146.899 207.211 147.277 207.211 147.723V152.531C207.211 153.012 207.594 153.356 208.047 153.356H212.918C213.405 153.356 213.753 152.978 213.753 152.531V147.723C213.788 147.277 213.405 146.899 212.918 146.899Z" fill="#489BFF"/>
<path d="M212.083 150.917H212.013V149.784C212.013 148.96 211.318 148.273 210.482 148.273C209.647 148.273 208.951 148.96 208.951 149.784V150.917H208.882C208.569 150.917 208.325 151.158 208.325 151.467C208.325 151.776 208.569 152.016 208.882 152.016H212.048C212.361 152.016 212.605 151.776 212.605 151.467C212.64 151.158 212.396 150.917 212.083 150.917Z" fill="#F9CC3D"/>
<rect x="163" y="218" width="279" height="29" rx="8" fill="white"/>
<g filter="url(#filter2_i)">
<rect x="411.414" y="228.904" width="16.2337" height="7.14473" rx="3.57236" fill="#DEE3EA"/>
</g>
<rect x="173" y="229" width="48" height="7" rx="3.5" fill="#F2F5F7"/>
<rect x="338" y="174" width="167" height="29" rx="8" fill="white"/>
<g filter="url(#filter3_i)">
<rect x="474" y="184.904" width="16.2337" height="7.14473" rx="3.57236" fill="#DEE3EA"/>
</g>
<rect x="348" y="185" width="48" height="7" rx="3.5" fill="#F2F5F7"/>
<rect x="274" y="132" width="167" height="29" rx="8" fill="white"/>
<g filter="url(#filter4_i)">
<rect x="410" y="142.904" width="16.2337" height="7.14473" rx="3.57236" fill="#DEE3EA"/>
</g>
<rect x="284" y="143" width="48" height="7" rx="3.5" fill="#F2F5F7"/>
<rect x="163" y="254" width="279" height="29" rx="8" fill="white"/>
<g filter="url(#filter5_i)">
<rect x="411.414" y="264.904" width="16.2337" height="7.14473" rx="3.57236" fill="#DEE3EA"/>
</g>
<rect x="173" y="265" width="48" height="7" rx="3.5" fill="#F2F5F7"/>
<rect x="163" y="295" width="279" height="47" rx="8" fill="white"/>
<rect x="173" y="309" width="48" height="7" rx="3.5" fill="#F2F5F7"/>
<rect x="173" y="322" width="89" height="7" rx="3.5" fill="#F2F5F7"/>
<g filter="url(#filter6_i)">
<rect x="304" y="309" width="33" height="18" rx="5" fill="#DBE2EC"/>
</g>
<rect x="320" y="311" width="15" height="14" rx="4" fill="white"/>
<g clip-path="url(#clip0)">
<mask id="mask0" mask-type="alpha" maskUnits="userSpaceOnUse" x="109" y="165" width="584" height="423">
<path d="M109.656 587.896H692.258V165.62H109.656V587.896Z" fill="white"/>
</mask>
<g mask="url(#mask0)">
<path d="M514.767 487.89C479.749 491.957 444.251 491.957 409.232 487.89C402.277 487.172 397 481.191 397 474.252V290.748C397 283.57 402.277 277.828 409.232 277.11C444.251 273.043 479.749 273.043 514.767 277.11C521.723 277.828 527 283.57 527 290.748V474.492C527 481.191 521.723 487.172 514.767 487.89Z" fill="#181818"/>
</g>
<mask id="mask1" mask-type="alpha" maskUnits="userSpaceOnUse" x="109" y="165" width="584" height="423">
<path d="M109.656 587.896H692.258V165.62H109.656V587.896Z" fill="white"/>
</mask>
<g mask="url(#mask1)">
<path d="M408.513 456.069H515.487C516.446 456.069 517.406 455.112 517.406 454.155V310.605C517.406 309.648 516.446 308.691 515.487 308.691H408.513C407.553 308.691 406.594 309.648 406.594 310.605V454.155C406.594 455.352 407.553 456.069 408.513 456.069Z" fill="white"/>
</g>
<mask id="mask2" mask-type="alpha" maskUnits="userSpaceOnUse" x="109" y="165" width="584" height="423">
<path d="M109.656 587.896H692.258V165.62H109.656V587.896Z" fill="white"/>
</mask>
<g mask="url(#mask2)">
<path d="M466.796 292.422C466.796 289.791 464.638 287.637 461.999 287.637C459.361 287.637 457.202 289.791 457.202 292.422C457.202 295.054 459.361 297.207 461.999 297.207C464.638 297.207 466.796 295.054 466.796 292.422Z" fill="black"/>
<path d="M517.406 331.659V310.845C517.406 309.888 516.446 308.931 515.487 308.931H408.513C407.553 308.931 406.594 309.888 406.594 310.845V331.659H517.406Z" fill="url(#paint5_linear)"/>
<path d="M427.701 324.96H414.029C412.83 324.96 411.631 324.003 411.631 322.568C411.631 321.372 412.59 320.175 414.029 320.175H427.701C428.9 320.175 430.099 321.132 430.099 322.568C430.099 324.003 429.14 324.96 427.701 324.96Z" fill="white"/>
<path d="M507.572 324.96H500.616C499.417 324.96 498.217 324.003 498.217 322.568C498.217 321.372 499.177 320.175 500.616 320.175H507.572C508.771 320.175 509.97 321.132 509.97 322.568C509.97 324.003 508.771 324.96 507.572 324.96Z" fill="white"/>
</g>
<path d="M493.18 388.362C493.18 413.244 486.944 419.464 462 419.464C437.055 419.464 430.819 413.244 430.819 388.362C430.819 363.48 437.055 357.259 462 357.259C486.944 357.259 493.18 363.48 493.18 388.362Z" fill="url(#paint6_linear)"/>
<path d="M474.232 403.195C474.232 403.674 473.753 404.152 473.273 404.152H467.037C466.557 404.152 466.077 403.674 466.077 403.195C466.077 403.195 466.077 402.477 466.077 397.692C466.077 394.343 464.398 391.711 462 389.558C459.601 391.711 457.922 394.582 457.922 397.692C457.922 402.477 457.922 403.195 457.922 403.195C457.922 403.674 457.443 404.152 456.963 404.152H450.727C450.247 404.152 449.767 403.674 449.767 403.195C449.767 403.195 449.048 383.098 449.767 382.38L461.04 372.81C461.76 372.332 462.479 372.332 463.199 372.81L474.472 382.38C474.952 383.098 474.232 403.195 474.232 403.195Z" fill="white"/>
</g>
<g clip-path="url(#clip1)">
<path d="M337.274 469.013H71.2371V313.142C71.2371 301.927 80.143 293 91.3326 293H317.179C328.368 293 337.274 301.927 337.274 313.142V469.013Z" fill="#181818"/>
<path d="M312.155 443.836H96.3564C94.9863 443.836 93.8445 442.692 93.8445 441.318V320.695C93.8445 319.322 94.9863 318.177 96.3564 318.177H312.155C313.525 318.177 314.667 319.322 314.667 320.695V441.318C314.667 442.692 313.525 443.836 312.155 443.836Z" fill="white"/>
<path d="M352.346 456.425H244.333C241.592 456.425 239.309 458.714 239.309 461.46C239.309 464.207 237.025 466.496 234.285 466.496H174.227C171.486 466.496 169.203 464.207 169.203 461.46C169.203 458.714 166.919 456.425 164.179 456.425H53.6535C51.5983 456.425 49.9998 458.027 49.9998 460.087V469.929C49.9998 475.422 54.5669 480 60.0475 480H345.952C351.433 480 356 475.422 356 469.929V460.087C356 458.027 354.401 456.425 352.346 456.425Z" fill="url(#paint7_linear)"/>
<path d="M203.228 309.48C205.246 309.48 206.882 307.84 206.882 305.818C206.882 303.795 205.246 302.155 203.228 302.155C201.21 302.155 199.574 303.795 199.574 305.818C199.574 307.84 201.21 309.48 203.228 309.48Z" fill="black"/>
<path d="M314.667 340.608H93.8445V320.695C93.8445 319.322 94.9863 318.177 96.3564 318.177H312.155C313.525 318.177 314.667 319.322 314.667 320.695V340.608Z" fill="url(#paint8_linear)"/>
<path d="M240.907 397.83H165.321C158.47 397.83 152.99 392.337 152.99 385.47V361.437C152.99 354.57 158.47 349.077 165.321 349.077H240.907C247.758 349.077 253.239 354.57 253.239 361.437V385.47C253.239 392.337 247.758 397.83 240.907 397.83Z" fill="#6ECFFF"/>
<path d="M214.646 364.87H190.897C190.212 364.87 189.755 364.412 189.755 363.726V337.633C189.755 337.404 189.755 337.175 189.984 336.946L201.63 329.622C202.087 329.164 202.772 329.164 203.228 329.622L215.331 336.946C215.56 337.175 215.56 337.404 215.56 337.633V363.726C215.788 364.412 215.331 364.87 214.646 364.87Z" fill="#DDB797"/>
<path fill-rule="evenodd" clip-rule="evenodd" d="M202.778 332.33L190.084 341.387C188.769 342.325 186.942 342.02 186.004 340.705C185.066 339.39 185.371 337.563 186.686 336.625L199.845 327.236C201.426 325.529 204.102 325.525 205.689 327.225L219.067 336.612C220.389 337.539 220.709 339.364 219.781 340.686C218.853 342.008 217.029 342.328 215.707 341.401L202.778 332.33Z" fill="#7F605E"/>
<path d="M234.057 369.906L203 351.137C202.772 350.908 202.543 350.908 202.315 351.137L171.258 369.906C171.03 370.135 171.03 370.364 171.03 370.592V390.505C171.03 390.963 171.258 391.192 171.715 391.192H233.829C234.285 391.192 234.514 390.963 234.514 390.505V370.592C234.514 370.135 234.285 369.906 234.057 369.906Z" fill="#DDB797"/>
<path d="M202.772 352.053L170.802 371.279V374.712L202.772 355.715L234.513 374.712V371.279L202.772 352.053Z" fill="#CE9772"/>
<path fill-rule="evenodd" clip-rule="evenodd" d="M204.7 347.373L239.903 368.543C241.288 369.376 241.735 371.173 240.902 372.558C240.07 373.942 238.273 374.389 236.888 373.557L202.541 352.901L168.422 373.331C167.036 374.161 165.24 373.71 164.41 372.324C163.58 370.938 164.031 369.142 165.417 368.312L200.678 347.198L200.776 347.149C201.086 346.994 201.77 346.667 202.629 346.667C203.501 346.667 204.194 346.986 204.7 347.373Z" fill="#7F605E"/>
<path d="M217.387 374.255L203.228 366.015C203 365.786 202.772 365.786 202.543 366.015L187.7 374.483C187.472 374.712 187.243 374.941 187.243 375.17V390.505C187.243 390.963 187.472 391.192 187.928 391.192H216.702C217.158 391.192 217.387 390.963 217.387 390.505V375.17C217.843 374.483 217.615 374.255 217.387 374.255Z" fill="#EDD0B4"/>
<path d="M202.772 383.41C201.173 383.41 200.031 384.783 200.031 386.157V390.734H205.74V386.157C205.512 384.783 204.142 383.41 202.772 383.41Z" fill="#7F605E"/>
<path d="M203 366.701L187.472 375.399V378.146L203 369.448L217.844 378.146V375.399L203 366.701Z" fill="#C4A183"/>
<path d="M203.229 379.977H202.315C202.087 379.977 201.63 379.748 201.63 379.29V373.11C201.63 372.881 201.858 372.423 202.315 372.423H203.229C203.457 372.423 203.914 372.652 203.914 373.11V379.29C203.685 379.748 203.457 379.977 203.229 379.977Z" fill="white"/>
<path d="M205.741 375.17V376.086C205.741 376.315 205.512 376.772 205.056 376.772H200.26C200.032 376.772 199.575 376.543 199.575 376.086V375.17C199.575 374.941 199.803 374.483 200.26 374.483H205.056C205.512 374.483 205.741 374.712 205.741 375.17Z" fill="white"/>
<path fill-rule="evenodd" clip-rule="evenodd" d="M205.13 362.462L222.305 372.655C223.694 373.479 224.152 375.274 223.327 376.663C222.503 378.052 220.708 378.51 219.319 377.685L202.981 367.989L185.953 377.71C184.551 378.511 182.764 378.023 181.963 376.62C181.162 375.217 181.65 373.431 183.053 372.63L200.899 362.441C201.596 361.939 202.378 361.774 203 361.774C203.631 361.774 204.426 361.944 205.13 362.462Z" fill="#7F605E"/>
<path d="M224.009 384.783H222.411C221.954 384.783 221.726 384.326 221.726 384.097V383.639C221.726 383.181 222.182 382.952 222.411 382.952H224.009C224.466 382.952 224.694 383.41 224.694 383.639V384.097C224.694 384.554 224.466 384.783 224.009 384.783Z" fill="#C99B79"/>
<path d="M176.739 387.301H175.141C174.684 387.301 174.456 386.843 174.456 386.614V386.157C174.456 385.699 174.912 385.47 175.141 385.47H176.739C177.196 385.47 177.424 385.928 177.424 386.157V386.614C177.653 386.843 177.196 387.301 176.739 387.301Z" fill="#C99B79"/>
<path d="M228.805 387.301H227.206C226.75 387.301 226.521 386.843 226.521 386.614V386.157C226.521 385.699 226.978 385.47 227.206 385.47H228.805C229.262 385.47 229.49 385.928 229.49 386.157V386.614C229.718 386.843 229.262 387.301 228.805 387.301Z" fill="#F2C8AD"/>
<path d="M179.936 383.868H178.337C177.881 383.868 177.652 383.41 177.652 383.181V382.723C177.652 382.266 178.109 382.037 178.337 382.037H179.936C180.393 382.037 180.621 382.494 180.621 382.723V383.181C180.849 383.41 180.393 383.868 179.936 383.868Z" fill="#F2C8AD"/>
<path d="M205.74 336.717H199.803C199.118 336.717 198.661 337.175 198.661 337.862V343.813C198.661 344.499 199.118 344.957 199.803 344.957H205.74C206.425 344.957 206.882 344.499 206.882 343.813V337.862C206.654 337.175 206.197 336.717 205.74 336.717Z" fill="#31BFF7"/>
<path d="M204.599 341.753V340.379C204.599 339.235 203.685 338.548 202.772 338.548C201.63 338.548 200.945 339.464 200.945 340.379V341.753C200.488 341.753 200.26 341.982 200.26 342.439C200.26 342.897 200.488 343.126 200.945 343.126H204.827C205.284 343.126 205.512 342.897 205.512 342.439C205.284 342.211 205.056 341.753 204.599 341.753Z" fill="#F7B03E"/>
<path d="M223.781 414.996H156.415C154.36 414.996 152.99 413.394 152.99 411.563V411.105C152.99 409.045 154.588 407.672 156.415 407.672H223.781C225.836 407.672 227.206 409.274 227.206 411.105V411.563C227.206 413.394 225.607 414.996 223.781 414.996Z" fill="#E6E6E6"/>
<path d="M248.9 414.996H238.395C236.34 414.996 234.97 413.394 234.97 411.563V411.105C234.97 409.045 236.568 407.672 238.395 407.672H248.9C250.955 407.672 252.325 409.274 252.325 411.105V411.563C252.554 413.394 250.955 414.996 248.9 414.996Z" fill="#E6E6E6"/>
<path d="M223.781 432.163H156.415C154.36 432.163 152.99 430.561 152.99 428.729V428.272C152.99 426.212 154.588 424.838 156.415 424.838H223.781C225.836 424.838 227.206 426.441 227.206 428.272V428.729C227.206 430.561 225.607 432.163 223.781 432.163Z" fill="#E6E6E6"/>
<path d="M248.9 432.163H238.395C236.34 432.163 234.97 430.561 234.97 428.729V428.272C234.97 426.212 236.568 424.838 238.395 424.838H248.9C250.955 424.838 252.325 426.441 252.325 428.272V428.729C252.554 430.561 250.955 432.163 248.9 432.163Z" fill="#E6E6E6"/>
</g>
<mask id="path-78-inside-1" fill="white">
<rect x="328" y="165" width="186" height="49" rx="2"/>
</mask>
<rect x="328" y="165" width="186" height="49" rx="2" stroke="#4BCFFC" stroke-width="8" mask="url(#path-78-inside-1)"/>
<rect x="329" y="204" width="9" height="9" fill="#4BCFFC"/>
<g clip-path="url(#clip2)">
<path d="M508.809 211.052C508.809 210.716 508.857 210.573 508.857 210.381C508.857 206.881 508.857 203.382 508.857 199.835C508.857 199.356 508.905 198.828 509 198.349C509.286 197.055 510.571 196.048 512 195.952C513.333 195.856 514.619 196.671 515.095 197.917C515.238 198.301 515.333 198.732 515.333 199.116C515.381 200.41 515.333 201.704 515.333 202.999C515.333 203.19 515.333 203.382 515.381 203.574C515.762 203.526 516.048 203.43 516.333 203.43C517.476 203.334 518.428 203.718 519.143 204.581C519.333 204.772 519.428 204.964 519.809 204.82C521.857 203.862 524 205.3 524.286 207.025C524.286 207.169 524.381 207.265 524.381 207.217C525.286 207.265 526.095 207.217 526.857 207.409C528.143 207.744 529 209.039 529 210.381C529 214.168 529 217.955 529 221.742C529 222.077 528.857 222.413 528.667 222.7C527.952 223.755 527.238 224.762 526.524 225.768C526.333 226.056 526.238 226.391 526.238 226.727C526.19 227.973 526.238 229.22 526.238 230.514C526.238 231.425 525.857 231.808 524.952 231.856C523.952 231.856 523 231.856 522 231.856C518.857 231.856 515.667 231.856 512.524 231.856C511.238 231.856 510.905 231.521 510.905 230.226C510.905 229.028 510.905 227.83 510.905 226.631C510.905 226.296 510.762 225.96 510.619 225.672C508.476 222.605 506.428 219.345 504.381 216.133C504.095 215.702 503.809 215.222 503.524 214.791C502.667 213.401 502.905 211.675 504.095 210.668C505.381 209.566 507.048 209.614 508.333 210.716C508.428 210.812 508.571 210.908 508.809 211.052ZM510.905 207.025C510.905 209.518 510.905 211.963 510.905 214.455C510.905 215.222 510.667 215.606 510.19 215.75C509.571 215.893 509.19 215.606 508.905 215.079C508.333 214.216 507.762 213.353 507.19 212.49C506.809 211.915 506.143 211.723 505.619 212.059C505.048 212.394 504.905 213.017 505.19 213.64C505.286 213.88 505.381 214.024 505.476 214.216C507.762 217.763 510 221.262 512.286 224.81C512.714 225.433 512.905 226.056 512.857 226.823C512.809 227.638 512.857 228.453 512.857 229.268C512.809 229.795 513.048 229.891 513.524 229.891C516.857 229.891 520.19 229.891 523.524 229.891C524.048 229.891 524.238 229.795 524.19 229.22C524.143 228.213 524.143 227.206 524.19 226.2C524.19 225.864 524.333 225.433 524.524 225.145C525.19 224.091 525.952 223.084 526.667 222.029C526.857 221.742 526.952 221.406 526.952 221.071C526.952 217.763 526.952 214.455 526.952 211.1C526.952 210.812 526.905 210.525 526.857 210.237C526.667 209.518 526.143 209.182 525.428 209.278C524.809 209.374 524.381 209.854 524.381 210.573C524.381 211.34 524.381 212.154 524.381 212.921C524.381 213.64 523.905 214.12 523.333 214.072C522.762 214.024 522.381 213.593 522.381 212.874C522.381 211.34 522.381 209.806 522.381 208.32C522.381 208.128 522.381 207.936 522.381 207.744C522.286 207.073 521.809 206.594 521.19 206.594C520.524 206.594 520.095 206.977 519.952 207.696C519.905 207.888 519.905 208.128 519.905 208.32C519.905 209.326 519.905 210.381 519.905 211.387C519.905 212.059 519.476 212.538 518.905 212.538C518.333 212.538 517.952 212.059 517.905 211.387C517.905 210.093 517.905 208.751 517.905 207.457C517.905 207.169 517.905 206.834 517.857 206.546C517.762 205.827 517.286 205.491 516.619 205.491C515.952 205.539 515.524 205.923 515.476 206.594C515.476 206.786 515.476 206.929 515.476 207.121C515.476 208.463 515.476 209.806 515.476 211.148C515.476 211.435 515.476 211.771 515.333 212.059C515.143 212.49 514.714 212.682 514.238 212.586C513.714 212.442 513.476 212.107 513.476 211.435C513.476 207.505 513.476 203.622 513.476 199.691C513.476 199.499 513.476 199.308 513.476 199.116C513.381 198.541 512.952 198.109 512.428 198.013C511.905 197.917 511.333 198.205 511.143 198.684C511.048 198.972 511 199.308 511 199.643C510.905 202.136 510.905 204.581 510.905 207.025Z" fill="black"/>
<path d="M510.905 207.025C510.905 204.581 510.905 202.088 510.905 199.643C510.905 199.308 510.952 198.972 511.047 198.684C511.238 198.205 511.809 197.965 512.333 198.013C512.857 198.109 513.285 198.541 513.381 199.116C513.428 199.308 513.381 199.499 513.381 199.691C513.381 203.622 513.381 207.505 513.381 211.435C513.381 212.107 513.619 212.49 514.143 212.586C514.619 212.682 515 212.49 515.238 212.059C515.381 211.819 515.381 211.483 515.381 211.196C515.381 209.854 515.381 208.511 515.381 207.169C515.381 206.977 515.381 206.834 515.381 206.642C515.476 205.971 515.905 205.539 516.524 205.539C517.19 205.491 517.666 205.875 517.762 206.594C517.809 206.881 517.809 207.217 517.809 207.505C517.809 208.799 517.809 210.141 517.809 211.435C517.809 212.154 518.19 212.586 518.809 212.586C519.381 212.586 519.809 212.107 519.809 211.435C519.809 210.429 519.809 209.374 519.809 208.368C519.809 208.176 519.809 207.936 519.857 207.744C519.952 207.025 520.428 206.642 521.095 206.642C521.714 206.642 522.19 207.121 522.285 207.792C522.333 207.984 522.285 208.176 522.285 208.368C522.285 209.901 522.285 211.435 522.285 212.921C522.285 213.64 522.666 214.072 523.238 214.12C523.857 214.168 524.285 213.688 524.285 212.969C524.285 212.202 524.285 211.387 524.285 210.621C524.285 209.949 524.714 209.422 525.333 209.326C526.047 209.23 526.571 209.566 526.762 210.285C526.809 210.573 526.857 210.86 526.857 211.148C526.857 214.455 526.857 217.763 526.857 221.119C526.857 221.454 526.762 221.79 526.571 222.077C525.857 223.132 525.143 224.138 524.428 225.193C524.238 225.481 524.095 225.864 524.095 226.248C524.047 227.254 524.047 228.261 524.095 229.268C524.143 229.843 523.905 229.939 523.428 229.939C520.095 229.939 516.762 229.939 513.428 229.939C512.952 229.939 512.762 229.843 512.762 229.316C512.809 228.501 512.714 227.686 512.762 226.871C512.809 226.104 512.571 225.481 512.19 224.858C510.047 221.262 507.762 217.715 505.476 214.216C505.381 214.024 505.238 213.88 505.143 213.688C504.857 213.065 505 212.442 505.571 212.107C506.095 211.819 506.762 211.963 507.143 212.538C507.714 213.401 508.285 214.264 508.857 215.126C509.19 215.606 509.571 215.941 510.143 215.798C510.666 215.654 510.857 215.27 510.857 214.503C510.905 212.011 510.905 209.518 510.905 207.025Z" fill="white"/>
</g>
<defs>
<filter id="filter0_di" x="88.9998" y="79" width="388" height="326" filterUnits="userSpaceOnUse" color-interpolation-filters="sRGB">
<feFlood flood-opacity="0" result="BackgroundImageFix"/>
<feColorMatrix in="SourceAlpha" type="matrix" values="0 0 0 0 0 0 0 0 0 0 0 0 0 0 0 0 0 0 127 0"/>
<feOffset dx="-18" dy="14"/>
<feGaussianBlur stdDeviation="10"/>
<feColorMatrix type="matrix" values="0 0 0 0 0 0 0 0 0 0 0 0 0 0 0 0 0 0 0.1 0"/>
<feBlend mode="normal" in2="BackgroundImageFix" result="effect1_dropShadow"/>
<feBlend mode="normal" in="SourceGraphic" in2="effect1_dropShadow" result="shape"/>
<feColorMatrix in="SourceAlpha" type="matrix" values="0 0 0 0 0 0 0 0 0 0 0 0 0 0 0 0 0 0 127 0" result="hardAlpha"/>
<feOffset/>
<feGaussianBlur stdDeviation="10"/>
<feComposite in2="hardAlpha" operator="arithmetic" k2="-1" k3="1"/>
<feColorMatrix type="matrix" values="0 0 0 0 1 0 0 0 0 1 0 0 0 0 1 0 0 0 1 0"/>
<feBlend mode="normal" in2="shape" result="effect2_innerShadow"/>
</filter>
<filter id="filter1_d" x="148" y="132" width="125" height="95" filterUnits="userSpaceOnUse" color-interpolation-filters="sRGB">
<feFlood flood-opacity="0" result="BackgroundImageFix"/>
<feColorMatrix in="SourceAlpha" type="matrix" values="0 0 0 0 0 0 0 0 0 0 0 0 0 0 0 0 0 0 127 0"/>
<feOffset dy="15"/>
<feGaussianBlur stdDeviation="7.5"/>
<feColorMatrix type="matrix" values="0 0 0 0 0.211765 0 0 0 0 0.533333 0 0 0 0 0.968627 0 0 0 0.3 0"/>
<feBlend mode="normal" in2="BackgroundImageFix" result="effect1_dropShadow"/>
<feBlend mode="normal" in="SourceGraphic" in2="effect1_dropShadow" result="shape"/>
</filter>
<filter id="filter2_i" x="411.414" y="228.904" width="16.2337" height="11.1447" filterUnits="userSpaceOnUse" color-interpolation-filters="sRGB">
<feFlood flood-opacity="0" result="BackgroundImageFix"/>
<feBlend mode="normal" in="SourceGraphic" in2="BackgroundImageFix" result="shape"/>
<feColorMatrix in="SourceAlpha" type="matrix" values="0 0 0 0 0 0 0 0 0 0 0 0 0 0 0 0 0 0 127 0" result="hardAlpha"/>
<feOffset dy="4"/>
<feGaussianBlur stdDeviation="2"/>
<feComposite in2="hardAlpha" operator="arithmetic" k2="-1" k3="1"/>
<feColorMatrix type="matrix" values="0 0 0 0 0 0 0 0 0 0 0 0 0 0 0 0 0 0 0.05 0"/>
<feBlend mode="normal" in2="shape" result="effect1_innerShadow"/>
</filter>
<filter id="filter3_i" x="474" y="184.904" width="16.2337" height="11.1447" filterUnits="userSpaceOnUse" color-interpolation-filters="sRGB">
<feFlood flood-opacity="0" result="BackgroundImageFix"/>
<feBlend mode="normal" in="SourceGraphic" in2="BackgroundImageFix" result="shape"/>
<feColorMatrix in="SourceAlpha" type="matrix" values="0 0 0 0 0 0 0 0 0 0 0 0 0 0 0 0 0 0 127 0" result="hardAlpha"/>
<feOffset dy="4"/>
<feGaussianBlur stdDeviation="2"/>
<feComposite in2="hardAlpha" operator="arithmetic" k2="-1" k3="1"/>
<feColorMatrix type="matrix" values="0 0 0 0 0 0 0 0 0 0 0 0 0 0 0 0 0 0 0.05 0"/>
<feBlend mode="normal" in2="shape" result="effect1_innerShadow"/>
</filter>
<filter id="filter4_i" x="410" y="142.904" width="16.2337" height="11.1447" filterUnits="userSpaceOnUse" color-interpolation-filters="sRGB">
<feFlood flood-opacity="0" result="BackgroundImageFix"/>
<feBlend mode="normal" in="SourceGraphic" in2="BackgroundImageFix" result="shape"/>
<feColorMatrix in="SourceAlpha" type="matrix" values="0 0 0 0 0 0 0 0 0 0 0 0 0 0 0 0 0 0 127 0" result="hardAlpha"/>
<feOffset dy="4"/>
<feGaussianBlur stdDeviation="2"/>
<feComposite in2="hardAlpha" operator="arithmetic" k2="-1" k3="1"/>
<feColorMatrix type="matrix" values="0 0 0 0 0 0 0 0 0 0 0 0 0 0 0 0 0 0 0.05 0"/>
<feBlend mode="normal" in2="shape" result="effect1_innerShadow"/>
</filter>
<filter id="filter5_i" x="411.414" y="264.904" width="16.2337" height="11.1447" filterUnits="userSpaceOnUse" color-interpolation-filters="sRGB">
<feFlood flood-opacity="0" result="BackgroundImageFix"/>
<feBlend mode="normal" in="SourceGraphic" in2="BackgroundImageFix" result="shape"/>
<feColorMatrix in="SourceAlpha" type="matrix" values="0 0 0 0 0 0 0 0 0 0 0 0 0 0 0 0 0 0 127 0" result="hardAlpha"/>
<feOffset dy="4"/>
<feGaussianBlur stdDeviation="2"/>
<feComposite in2="hardAlpha" operator="arithmetic" k2="-1" k3="1"/>
<feColorMatrix type="matrix" values="0 0 0 0 0 0 0 0 0 0 0 0 0 0 0 0 0 0 0.05 0"/>
<feBlend mode="normal" in2="shape" result="effect1_innerShadow"/>
</filter>
<filter id="filter6_i" x="304" y="309" width="33" height="21" filterUnits="userSpaceOnUse" color-interpolation-filters="sRGB">
<feFlood flood-opacity="0" result="BackgroundImageFix"/>
<feBlend mode="normal" in="SourceGraphic" in2="BackgroundImageFix" result="shape"/>
<feColorMatrix in="SourceAlpha" type="matrix" values="0 0 0 0 0 0 0 0 0 0 0 0 0 0 0 0 0 0 127 0" result="hardAlpha"/>
<feOffset dy="3"/>
<feGaussianBlur stdDeviation="1.5"/>
<feComposite in2="hardAlpha" operator="arithmetic" k2="-1" k3="1"/>
<feColorMatrix type="matrix" values="0 0 0 0 0 0 0 0 0 0 0 0 0 0 0 0 0 0 0.05 0"/>
<feBlend mode="normal" in2="shape" result="effect1_innerShadow"/>
</filter>
<linearGradient id="paint0_linear" x1="399.186" y1="33.326" x2="222.741" y2="423.594" gradientUnits="userSpaceOnUse">
<stop stop-color="#3EAEFF" stop-opacity="0.8"/>
<stop offset="0.833333" stop-color="#0093D5" stop-opacity="0"/>
</linearGradient>
<linearGradient id="paint1_linear" x1="58.9575" y1="153.669" x2="84.9998" y2="328" gradientUnits="userSpaceOnUse">
<stop stop-color="#3B8CFA"/>
<stop offset="1" stop-color="white" stop-opacity="0"/>
</linearGradient>
<linearGradient id="paint2_linear" x1="546.169" y1="158.782" x2="526.789" y2="327.128" gradientUnits="userSpaceOnUse">
<stop stop-color="#3B8CFA"/>
<stop offset="1" stop-color="white" stop-opacity="0"/>
</linearGradient>
<linearGradient id="paint3_linear" x1="127" y1="228" x2="402.914" y2="228" gradientUnits="userSpaceOnUse">
<stop stop-color="#FEFEFF"/>
<stop offset="1" stop-color="#ECF2FC" stop-opacity="0.9"/>
</linearGradient>
<linearGradient id="paint4_linear" x1="211" y1="132" x2="211" y2="197" gradientUnits="userSpaceOnUse">
<stop stop-color="#42D2FF" stop-opacity="0.9"/>
<stop offset="1" stop-color="#27B2ED"/>
</linearGradient>
<linearGradient id="paint5_linear" x1="406.71" y1="320.27" x2="517.407" y2="320.27" gradientUnits="userSpaceOnUse">
<stop stop-color="#42A5F5"/>
<stop offset="1" stop-color="#66BB6A"/>
</linearGradient>
<linearGradient id="paint6_linear" x1="437.157" y1="363.556" x2="486.835" y2="413.359" gradientUnits="userSpaceOnUse">
<stop stop-color="#42A5F5"/>
<stop offset="1" stop-color="#66BB6A"/>
</linearGradient>
<linearGradient id="paint7_linear" x1="203" y1="450" x2="203" y2="501" gradientUnits="userSpaceOnUse">
<stop stop-color="#EAF4FB"/>
<stop offset="1" stop-color="#B0BBC2"/>
</linearGradient>
<linearGradient id="paint8_linear" x1="93.9061" y1="329.333" x2="314.692" y2="329.333" gradientUnits="userSpaceOnUse">
<stop stop-color="#42A5F5"/>
<stop offset="1" stop-color="#66BB6A"/>
</linearGradient>
<clipPath id="clip0">
<rect width="130" height="217" fill="white" transform="translate(397 274)"/>
</clipPath>
<clipPath id="clip1">
<rect width="306" height="187" fill="white" transform="translate(49.9998 293)"/>
</clipPath>
<clipPath id="clip2">
<rect width="26" height="36" fill="white" transform="translate(503 196)"/>
</clipPath>
</defs>
</svg>
