<svg id="Layer_1" data-name="Layer 1" xmlns="http://www.w3.org/2000/svg" xmlns:xlink="http://www.w3.org/1999/xlink" viewBox="0 0 445 394">
  <defs>
    <linearGradient id="linear-gradient" x1="-928.631" y1="-167.488" x2="-927.831" y2="-166.688" gradientTransform="translate(80906.255 14827.551) scale(86.73 86.644)" gradientUnits="userSpaceOnUse">
      <stop offset="0" stop-color="#6bb13d"/>
      <stop offset="1" stop-color="#64952f"/>
    </linearGradient>
    <linearGradient id="linear-gradient-2" x1="-571.632" y1="-167.501" x2="-570.773" y2="-166.643" gradientTransform="translate(49463.244 14805.973) scale(86.517)" gradientUnits="userSpaceOnUse">
      <stop offset="0" stop-color="#a76ebd"/>
      <stop offset="1" stop-color="#875d95"/>
    </linearGradient>
    <linearGradient id="linear-gradient-3" x1="-571.651" y1="-330.562" x2="-570.849" y2="-329.629" gradientTransform="translate(49742.806 28906) scale(87)" gradientUnits="userSpaceOnUse">
      <stop offset="0" stop-color="#ff962d"/>
      <stop offset="1" stop-color="#fc7638"/>
    </linearGradient>
    <linearGradient id="linear-gradient-4" x1="-571.714" y1="-474.084" x2="-570.713" y2="-474.084" gradientTransform="translate(49463.244 41059.778) scale(86.517)" gradientUnits="userSpaceOnUse">
      <stop offset="0" stop-color="#f4c326"/>
      <stop offset="1" stop-color="#f2b326"/>
    </linearGradient>
    <linearGradient id="linear-gradient-5" x1="-738.31" y1="-342.094" x2="-737.553" y2="-341.207" gradientTransform="translate(86084.796 38711.724) scale(116.354 112.753)" gradientUnits="userSpaceOnUse">
      <stop offset="0" stop-color="#32a0f0"/>
      <stop offset="1" stop-color="#3f75e5"/>
    </linearGradient>
    <linearGradient id="linear-gradient-6" x1="365.888" y1="384.312" x2="435.313" y2="314.888" gradientTransform="matrix(1, 0, 0, -1, 0.396, 394)" gradientUnits="userSpaceOnUse">
      <stop offset="0" stop-color="#43b39c"/>
      <stop offset="1" stop-color="#46948d"/>
    </linearGradient>
    <linearGradient id="New_Gradient_Swatch_4" data-name="New Gradient Swatch 4" x1="366.642" y1="153.008" x2="435.401" y2="221.767" gradientUnits="userSpaceOnUse">
      <stop offset="0" stop-color="#f25437"/>
      <stop offset="1" stop-color="#cd4e39"/>
    </linearGradient>
  </defs>
  <title>Artboard 1</title>
  <g id="Page-1">
    <g id="People-Page">
      <g id="FREE-Pricing-">
        <g id="option-2">
          <g id="System-graphic">
            <path id="Path-2" d="M86.4,188h276" fill="none" stroke="#dcecf7" stroke-width="7" stroke-dasharray="15 9"/>
            <path id="Path-2-2" data-name="Path-2" d="M356.4,350H262.7c-8.2,0-16.3-8.9-16.3-18.6V242" fill="none" stroke="#dcecf7" stroke-width="7" stroke-dasharray="15 9"/>
            <path id="Path-2-Copy-2" d="M87.4,350h93.7c8.2,0,16.3-8.9,16.3-18.6V242" fill="none" stroke="#dcecf7" stroke-width="7" stroke-dasharray="15 9"/>
            <path id="Path-2-3" data-name="Path-2" d="M356.4,34H262.7c-8.2,0-16.3,8.9-16.3,18.6V142" fill="none" stroke="#dcecf7" stroke-width="7" stroke-dasharray="15 9"/>
            <path id="Path-2-Copy-2-2" data-name="Path-2-Copy-2" d="M87.4,34h93.7c8.2,0,16.3,8.9,16.3,18.6V142" fill="none" stroke="#dcecf7" stroke-width="7" stroke-dasharray="15 9"/>
            <g id="Services-Logo">
              <path id="Fill-4" d="M400.8,307.1c-34.7,0-43.4,8.6-43.4,43.3s8.7,43.3,43.4,43.3,43.4-8.7,43.4-43.3C444.1,315.7,435.5,307.1,400.8,307.1Z" fill-rule="evenodd" fill="url(#linear-gradient)"/>
              <path id="Fill-15" d="M385.6,335.5a4.653,4.653,0,0,1-4.6,4.6,4.6,4.6,0,1,1,0-9.2A4.653,4.653,0,0,1,385.6,335.5Zm0,15a4.6,4.6,0,1,1-4.6-4.6A4.588,4.588,0,0,1,385.6,350.5Zm0,14.9A4.653,4.653,0,0,1,381,370a4.6,4.6,0,1,1,0-9.2A4.653,4.653,0,0,1,385.6,365.4Zm37-27.8a2.051,2.051,0,0,1-2.1,2.1H392.7a2.051,2.051,0,0,1-2.1-2.1v-4.1a2.051,2.051,0,0,1,2.1-2.1h27.7a2.051,2.051,0,0,1,2.1,2.1v4.1Zm0,14.9a2.051,2.051,0,0,1-2.1,2.1H392.7a2.051,2.051,0,0,1-2.1-2.1v-4.1a2.051,2.051,0,0,1,2.1-2.1h27.7a2.051,2.051,0,0,1,2.1,2.1v4.1Zm0,15a2.051,2.051,0,0,1-2.1,2.1H392.7a2.051,2.051,0,0,1-2.1-2.1v-4.1a2.051,2.051,0,0,1,2.1-2.1h27.7a2.051,2.051,0,0,1,2.1,2.1v4.1Z" fill="#fff" fill-rule="evenodd"/>
            </g>
            <g id="Check-Ins-Logo">
              <path id="Fill-1" d="M43.7,307.2C9.1,307.2.4,315.8.4,350.4s8.7,43.3,43.3,43.3S87,385,87,350.4C86.9,315.8,78.3,307.2,43.7,307.2Z" fill-rule="evenodd" fill="url(#linear-gradient-2)"/>
              <path id="Fill-44" d="M63.7,342.8,41.4,365.1a4.951,4.951,0,0,1-7.1,0L23.6,354.4a5.02,5.02,0,0,1,7.1-7.1l7.1,7.1,18.7-18.7a4.951,4.951,0,0,1,7.1,0,5.041,5.041,0,0,1,.1,7.1" fill="#fff" fill-rule="evenodd"/>
            </g>
            <g id="Groups-Logo">
              <path id="Fill-1-2" data-name="Fill-1" d="M43.9,144C9.1,144,.4,152.7.4,187.5S9.1,231,43.9,231s43.5-8.7,43.5-43.5S78.7,144,43.9,144Z" fill-rule="evenodd" fill="url(#linear-gradient-3)"/>
              <path id="Fill-17" d="M65.3,200.8a8.237,8.237,0,0,1-8.2,8.2,8.133,8.133,0,0,1-7.5-5H38.1a8.133,8.133,0,0,1-7.5,5,8.237,8.237,0,0,1-8.2-8.2,8.133,8.133,0,0,1,5-7.5V181.7a8.133,8.133,0,0,1-5-7.5,8.237,8.237,0,0,1,8.2-8.2,8.133,8.133,0,0,1,7.5,5H49.6a8.133,8.133,0,0,1,7.5-5,8.237,8.237,0,0,1,8.2,8.2,8.133,8.133,0,0,1-5,7.5v11.5a8.222,8.222,0,0,1,5,7.6M49.7,177.4H38.1a8.216,8.216,0,0,1-4.3,4.3v11.5a8.216,8.216,0,0,1,4.3,4.3H49.6a8.216,8.216,0,0,1,4.3-4.3V181.7a7.713,7.713,0,0,1-4.2-4.3" fill="#fff" fill-rule="evenodd"/>
            </g>
            <g id="Giving-Logo">
              <path id="Fill-1-3" data-name="Fill-1" d="M42.6.3C8.9.5.4,9.3.4,43.6c0,34.6,8.7,43.3,43.3,43.3S87,78.2,87,43.6C86.9,9.3,78.4.5,44.7.3Z" fill-rule="evenodd" fill="url(#linear-gradient-4)"/>
              <path id="Fill-4-2" data-name="Fill-4" d="M44.9,60a2.1,2.1,0,0,1-2.6,0c-5.5-3.9-26-19.5-14.2-29.7,4-3.5,10.2-2.9,14,.9l1.5,1.5,1.5-1.5a10.351,10.351,0,0,1,14-.9C70.9,40.5,50.4,56.1,44.9,60" fill="#fff" fill-rule="evenodd"/>
            </g>
            <g id="People-Logo">
              <path id="Fill-1-4" data-name="Fill-1" d="M223.6,133.6c-46.6,0-58.2,11.3-58.2,56.4s11.6,56.4,58.2,56.4c46.5,0,58.2-11.3,58.2-56.4S270.1,133.6,223.6,133.6Z" fill-rule="evenodd" fill="url(#linear-gradient-5)"/>
              <path id="Fill-19" d="M214.5,167.2a10.6,10.6,0,1,1-10.9,10.6,10.736,10.736,0,0,1,10.9-10.6" fill="#fff" fill-rule="evenodd"/>
              <path id="Fill-21" d="M228,212H200.9a3.031,3.031,0,0,1-3.1-3v-6.7a9.9,9.9,0,0,1,10-9.7h13.3a9.84,9.84,0,0,1,10,9.7V209a3.1,3.1,0,0,1-3.1,3" fill="#fff" fill-rule="evenodd"/>
              <path id="Fill-23" d="M239.7,173.5a7.905,7.905,0,1,1-8.2,7.9,8.114,8.114,0,0,1,8.2-7.9" fill="#fff" fill-rule="evenodd"/>
              <path id="Fill-25" d="M248,205.5H237.5a3.031,3.031,0,0,1-3.1-3v-.3a11.814,11.814,0,0,0-1.1-5,4.875,4.875,0,0,0-.3-.7l-.3-.6a2.177,2.177,0,0,0-.5-.8,6.106,6.106,0,0,1,4.9-2.5h8a5.913,5.913,0,0,1,6,5.8v4.1a3.1,3.1,0,0,1-3.1,3" fill="#fff" fill-rule="evenodd"/>
            </g>
            <g>
              <path d="M444.4,44.4c0,34.7-8.7,43.4-43.4,43.4s-43.4-8.7-43.4-43.4S366.3,1,401,1,444.4,9.7,444.4,44.4Z" fill="url(#linear-gradient-6)"/>
              <path d="M377,49.1a2.117,2.117,0,0,0,0,3.1l3,3a1.048,1.048,0,0,0,1.2.1,6.394,6.394,0,0,1,7.9,1,6.661,6.661,0,0,1,1,7.9,1.048,1.048,0,0,0,.1,1.2l3,3a2.117,2.117,0,0,0,3.1,0l8.6-8.6a.668.668,0,0,0,0-1L386.6,40.5a.668.668,0,0,0-1,0Zm48-12.5-3.1-3.1a1.049,1.049,0,0,0-1.2-.1,6.43,6.43,0,0,1-8.8-8.8,1.048,1.048,0,0,0-.1-1.2l-3-3a2.118,2.118,0,0,0-3.1,0L390.1,36a.668.668,0,0,0,0,1l18.3,18.3a.668.668,0,0,0,1,0L425,39.7A2.116,2.116,0,0,0,425,36.6Z" fill="#fff"/>
            </g>
            <path d="M401.021,144.413c-34.379,0-42.974,8.595-42.974,42.974s8.595,42.974,42.974,42.974S444,221.767,444,187.387,435.4,144.413,401.021,144.413Z" fill="url(#New_Gradient_Swatch_4)"/>
            <path d="M419.025,171.913h-3.892V168.9a2.382,2.382,0,0,0-2.382-2.381h-1.135a2.382,2.382,0,0,0-2.382,2.381v3.015H392.809V168.9a2.382,2.382,0,0,0-2.381-2.381h-1.136a2.381,2.381,0,0,0-2.381,2.381v3.015h-3.893a2.516,2.516,0,0,0-2.516,2.516v30.519a2.516,2.516,0,0,0,2.516,2.515h36.007a2.516,2.516,0,0,0,2.516-2.515V174.429A2.516,2.516,0,0,0,419.025,171.913Zm-3.892,28.927H386.911V183.049h28.222Z" fill="#fff"/>
          </g>
        </g>
      </g>
    </g>
  </g>
</svg>
