<svg width="698" height="720" viewBox="0 0 698 720" fill="none" xmlns="http://www.w3.org/2000/svg">
<g clip-path="url(#clip0)">
<path fill-rule="evenodd" clip-rule="evenodd" d="M537.56 118.517C526.528 110.094 510.757 112.209 502.334 123.241L420.5 230L389.072 112.71L423.548 63.0876C465.193 8.54342 543.169 -1.9137 597.714 39.7309C652.258 81.3756 662.715 159.352 621.07 213.896L352.734 565.351C344.907 575.602 346.872 590.257 357.123 598.084C367.375 605.911 382.03 603.945 389.857 593.694L521.631 421.102C528.334 412.323 540.885 410.64 549.664 417.343L612.554 465.359L468.643 653.847C427.594 707.611 350.734 717.918 296.97 676.87C243.207 635.821 232.899 558.961 273.948 505.197L542.284 153.743C550.707 142.711 548.592 126.94 537.56 118.517Z" fill="url(#paint0_linear)" fill-opacity="0.4"/>
<g opacity="0.3">
<mask id="mask0" mask-type="alpha" maskUnits="userSpaceOnUse" x="171" y="391" width="114" height="114">
<circle cx="227.987" cy="447.833" r="36.1583" transform="rotate(-15 227.987 447.833)" stroke="url(#paint1_linear)" stroke-width="20"/>
</mask>
<g mask="url(#mask0)">
<rect x="149.841" y="450.454" width="140.783" height="69.2374" transform="rotate(-15 149.841 450.454)" fill="url(#paint2_linear)"/>
</g>
</g>
<g opacity="0.8" filter="url(#filter0_di)">
<rect x="22.3784" y="174.04" width="276.917" height="228.577" rx="30" transform="rotate(-15 22.3784 174.04)" fill="url(#paint3_radial)"/>
</g>
<g filter="url(#filter1_di)">
<rect x="61.5347" y="130.307" width="321.018" height="339.48" rx="30" transform="rotate(-15 61.5347 130.307)" fill="url(#paint4_radial)"/>
</g>
<rect x="210.23" y="169.26" width="207.313" height="30.0939" rx="8" transform="rotate(-15 210.23 169.26)" fill="white"/>
<rect x="222.635" y="215.554" width="207.313" height="31.2085" rx="8" transform="rotate(-15 222.635 215.554)" fill="white"/>
<rect x="96.5078" y="316.307" width="306.66" height="30.7685" rx="8" transform="rotate(-15 96.5078 316.307)" fill="white"/>
<rect x="108.984" y="362.869" width="306.66" height="77.947" rx="8" transform="rotate(-15 108.984 362.869)" fill="white"/>
<g filter="url(#filter2_i)">
<rect x="284.79" y="330.627" width="38.8376" height="21.538" rx="5" transform="rotate(-15 284.79 330.627)" fill="#DEE3EA"/>
</g>
<rect x="304.229" y="328.698" width="16.7188" height="15.6042" rx="3" transform="rotate(-15 304.229 328.698)" fill="white"/>
<g filter="url(#filter3_i)">
<rect x="287.741" y="275.684" width="21.538" height="10.2562" rx="5" transform="rotate(-15 287.741 275.684)" fill="#DEE3EA"/>
</g>
<rect x="240.947" y="221.33" width="66.6652" height="10.2562" rx="5" transform="rotate(-15 240.947 221.33)" fill="url(#paint5_linear)"/>
<rect x="228.47" y="174.768" width="66.6652" height="10.2562" rx="5" transform="rotate(-15 228.47 174.768)" fill="url(#paint6_linear)"/>
<rect x="126.57" y="373.022" width="108.716" height="15.3843" rx="5" transform="rotate(-15 126.57 373.022)" fill="url(#paint7_linear)"/>
<rect x="132.941" y="396.798" width="108.716" height="15.3843" rx="5" transform="rotate(-15 132.941 396.798)" fill="url(#paint8_linear)"/>
<g filter="url(#filter4_d)">
<rect x="280.188" y="54.7305" width="103.587" height="49.2297" rx="10" transform="rotate(-15 280.188 54.7305)" fill="url(#paint9_linear)"/>
</g>
<g filter="url(#filter5_d)">
<rect x="338.515" y="46.5344" width="38.9735" height="34.871" rx="5" transform="rotate(-15 338.515 46.5344)" fill="white"/>
</g>
<g filter="url(#filter6_d)">
<path d="M325.053 59.6977L315.782 75.9854L306.767 70.7071" stroke="white" stroke-width="6"/>
</g>
<g clip-path="url(#clip1)">
<path d="M613.852 568.217L458.859 609.747C436.122 615.84 412.601 602.343 406.541 579.728L325.912 278.818C319.852 256.203 333.474 232.754 356.211 226.662L511.204 185.132C534.115 178.993 557.462 192.535 563.522 215.151L644.151 516.06C650.211 538.676 636.762 562.078 613.852 568.217Z" fill="url(#paint10_radial)"/>
<path d="M515.876 202.568L488.626 209.87C485.849 210.614 483.836 212.819 483.268 215.561L481.126 226.312C480.281 230.794 476.937 234.281 472.424 235.49L453.332 240.606L434.066 245.768L415.148 250.837C410.809 252 405.995 250.699 403.022 247.24L395.792 239C393.929 236.909 390.91 236.053 388.306 236.75L360.883 244.098C347.692 247.633 339.973 261.173 343.442 274.121L424.07 575.031C427.586 588.151 441.169 595.799 454.186 592.311L609.179 550.781C622.37 547.246 630.09 533.706 626.62 520.758L545.992 219.848C542.65 206.681 529.067 199.034 515.876 202.568Z" fill="white"/>
<g filter="url(#filter7_d)">
<rect x="384.214" y="281.38" width="143.416" height="100.164" rx="15" transform="rotate(-15 384.214 281.38)" fill="url(#paint11_linear)"/>
</g>
<path d="M469.986 308.837C470.063 309.124 469.865 309.424 469.552 309.508L466.136 310.399C465.811 310.486 465.489 310.325 465.415 310.049C465.415 310.049 465.332 309.689 464.687 307.282C464.252 305.659 462.941 304.566 461.373 303.814C460.387 305.238 459.801 306.852 460.236 308.475C460.881 310.881 460.99 311.235 460.99 311.235C461.064 311.511 460.865 311.811 460.54 311.898L457.136 312.835C456.824 312.919 456.502 312.758 456.424 312.47C456.424 312.47 453.345 302.646 453.646 302.257L458.606 295.831C458.873 295.475 459.381 295.339 459.79 295.514L467.286 298.602C467.286 298.602 467.286 298.602 467.273 298.605C467.75 298.823 469.986 308.837 469.986 308.837Z" fill="white"/>
<rect x="450.145" y="335.27" width="38.9484" height="4.43651" rx="2.21825" transform="rotate(-15 450.145 335.27)" fill="white"/>
<circle cx="461.473" cy="304.196" r="15.9445" transform="rotate(-15 461.473 304.196)" stroke="white" stroke-width="3"/>
</g>
<g clip-path="url(#clip2)">
<path d="M576.86 182.493C582.971 205.297 578.801 212.518 555.997 218.629C533.193 224.739 525.987 220.542 519.883 197.76C513.772 174.956 517.942 167.734 540.746 161.624C563.55 155.513 570.75 159.689 576.86 182.493Z" fill="url(#paint12_linear)"/>
<path d="M563.187 200.752C563.331 201.288 563.017 201.831 562.503 201.968L556.882 203.429C556.346 203.572 555.803 203.259 555.666 202.745C555.666 202.745 555.509 202.075 554.31 197.6C553.501 194.581 551.267 192.495 548.623 191.023C547.064 193.598 546.178 196.543 546.987 199.562C548.186 204.037 548.386 204.695 548.386 204.695C548.523 205.209 548.21 205.752 547.674 205.896L542.076 207.442C541.562 207.579 541.019 207.266 540.876 206.731C540.876 206.731 535.239 188.435 535.717 187.734L543.603 176.142C544.028 175.501 544.863 175.277 545.552 175.62L558.157 181.721C558.157 181.721 558.157 181.721 558.135 181.727C558.938 182.154 563.187 200.752 563.187 200.752Z" fill="white"/>
</g>
<g filter="url(#filter8_d)">
<rect x="55.916" y="191.635" width="143.416" height="100.164" rx="15" transform="rotate(-15 55.916 191.635)" fill="url(#paint13_linear)"/>
</g>
<path d="M141.688 219.091C141.765 219.379 141.567 219.679 141.254 219.763L137.838 220.653C137.513 220.741 137.191 220.58 137.117 220.304C137.117 220.304 137.034 219.943 136.389 217.537C135.954 215.913 134.643 214.821 133.074 214.069C132.089 215.493 131.503 217.106 131.938 218.73C132.583 221.136 132.691 221.489 132.691 221.489C132.765 221.766 132.567 222.066 132.241 222.153L128.838 223.09C128.525 223.173 128.203 223.013 128.126 222.725C128.126 222.725 125.047 212.9 125.347 212.511L130.308 206.085C130.575 205.73 131.083 205.594 131.492 205.768L138.987 208.856C138.987 208.856 138.987 208.856 138.974 208.86C139.451 209.078 141.688 219.091 141.688 219.091Z" fill="white"/>
<rect x="121.847" y="245.524" width="38.9484" height="4.43651" rx="2.21825" transform="rotate(-15 121.847 245.524)" fill="white"/>
<circle cx="133.174" cy="214.451" r="15.9444" transform="rotate(-15 133.174 214.451)" stroke="white" stroke-width="3"/>
<g filter="url(#filter9_d)">
<rect x="391.56" y="404.344" width="186.243" height="63.2649" rx="8" transform="rotate(-15 391.56 404.344)" fill="white"/>
</g>
<rect x="413.071" y="415.355" width="102.959" height="10.7707" rx="5" transform="rotate(-15 413.071 415.355)" fill="url(#paint14_linear)"/>
<g filter="url(#filter10_i)">
<rect x="535.415" y="382.834" width="22.7674" height="11.4228" rx="5" transform="rotate(-15 535.415 382.834)" fill="#DEE3EA"/>
</g>
<rect x="418.302" y="434.876" width="70.4341" height="10.7707" rx="5" transform="rotate(-15 418.302 434.876)" fill="url(#paint15_linear)"/>
<g filter="url(#filter11_d)">
<rect x="412.548" y="484.507" width="186.243" height="63.2649" rx="8" transform="rotate(-15 412.548 484.507)" fill="white"/>
</g>
<rect x="434.06" y="495.518" width="102.959" height="10.7707" rx="5" transform="rotate(-15 434.06 495.518)" fill="url(#paint16_linear)"/>
<g filter="url(#filter12_i)">
<rect x="556.403" y="462.997" width="22.7674" height="11.4228" rx="5" transform="rotate(-15 556.403 462.997)" fill="#DEE3EA"/>
</g>
<rect x="439.29" y="515.039" width="70.4341" height="10.7707" rx="5" transform="rotate(-15 439.29 515.039)" fill="url(#paint17_linear)"/>
</g>
<defs>
<filter id="filter0_di" x="2.37842" y="92.3683" width="366.641" height="332.46" filterUnits="userSpaceOnUse" color-interpolation-filters="sRGB">
<feFlood flood-opacity="0" result="BackgroundImageFix"/>
<feColorMatrix in="SourceAlpha" type="matrix" values="0 0 0 0 0 0 0 0 0 0 0 0 0 0 0 0 0 0 127 0"/>
<feOffset dy="10"/>
<feGaussianBlur stdDeviation="10"/>
<feColorMatrix type="matrix" values="0 0 0 0 0 0 0 0 0 0 0 0 0 0 0 0 0 0 0.15 0"/>
<feBlend mode="normal" in2="BackgroundImageFix" result="effect1_dropShadow"/>
<feBlend mode="normal" in="SourceGraphic" in2="effect1_dropShadow" result="shape"/>
<feColorMatrix in="SourceAlpha" type="matrix" values="0 0 0 0 0 0 0 0 0 0 0 0 0 0 0 0 0 0 127 0" result="hardAlpha"/>
<feOffset/>
<feGaussianBlur stdDeviation="5"/>
<feComposite in2="hardAlpha" operator="arithmetic" k2="-1" k3="1"/>
<feColorMatrix type="matrix" values="0 0 0 0 1 0 0 0 0 1 0 0 0 0 1 0 0 0 1 0"/>
<feBlend mode="overlay" in2="shape" result="effect2_innerShadow"/>
</filter>
<filter id="filter1_di" x="16.5347" y="26.2217" width="447.944" height="460.998" filterUnits="userSpaceOnUse" color-interpolation-filters="sRGB">
<feFlood flood-opacity="0" result="BackgroundImageFix"/>
<feColorMatrix in="SourceAlpha" type="matrix" values="0 0 0 0 0 0 0 0 0 0 0 0 0 0 0 0 0 0 127 0"/>
<feOffset dx="-20" dy="4"/>
<feGaussianBlur stdDeviation="12.5"/>
<feColorMatrix type="matrix" values="0 0 0 0 0 0 0 0 0 0 0 0 0 0 0 0 0 0 0.1 0"/>
<feBlend mode="normal" in2="BackgroundImageFix" result="effect1_dropShadow"/>
<feBlend mode="normal" in="SourceGraphic" in2="effect1_dropShadow" result="shape"/>
<feColorMatrix in="SourceAlpha" type="matrix" values="0 0 0 0 0 0 0 0 0 0 0 0 0 0 0 0 0 0 127 0" result="hardAlpha"/>
<feOffset/>
<feGaussianBlur stdDeviation="40"/>
<feComposite in2="hardAlpha" operator="arithmetic" k2="-1" k3="1"/>
<feColorMatrix type="matrix" values="0 0 0 0 1 0 0 0 0 1 0 0 0 0 1 0 0 0 1 0"/>
<feBlend mode="normal" in2="shape" result="effect2_innerShadow"/>
</filter>
<filter id="filter2_i" x="284.79" y="320.575" width="43.0887" height="33.856" filterUnits="userSpaceOnUse" color-interpolation-filters="sRGB">
<feFlood flood-opacity="0" result="BackgroundImageFix"/>
<feBlend mode="normal" in="SourceGraphic" in2="BackgroundImageFix" result="shape"/>
<feColorMatrix in="SourceAlpha" type="matrix" values="0 0 0 0 0 0 0 0 0 0 0 0 0 0 0 0 0 0 127 0" result="hardAlpha"/>
<feOffset dy="4"/>
<feGaussianBlur stdDeviation="1.5"/>
<feComposite in2="hardAlpha" operator="arithmetic" k2="-1" k3="1"/>
<feColorMatrix type="matrix" values="0 0 0 0 0 0 0 0 0 0 0 0 0 0 0 0 0 0 0.05 0"/>
<feBlend mode="normal" in2="shape" result="effect1_innerShadow"/>
</filter>
<filter id="filter3_i" x="287.741" y="270.11" width="23.4586" height="18.4811" filterUnits="userSpaceOnUse" color-interpolation-filters="sRGB">
<feFlood flood-opacity="0" result="BackgroundImageFix"/>
<feBlend mode="normal" in="SourceGraphic" in2="BackgroundImageFix" result="shape"/>
<feColorMatrix in="SourceAlpha" type="matrix" values="0 0 0 0 0 0 0 0 0 0 0 0 0 0 0 0 0 0 127 0" result="hardAlpha"/>
<feOffset dy="4"/>
<feGaussianBlur stdDeviation="1.5"/>
<feComposite in2="hardAlpha" operator="arithmetic" k2="-1" k3="1"/>
<feColorMatrix type="matrix" values="0 0 0 0 0 0 0 0 0 0 0 0 0 0 0 0 0 0 0.05 0"/>
<feBlend mode="normal" in2="shape" result="effect1_innerShadow"/>
</filter>
<filter id="filter4_d" x="253.188" y="27.92" width="142.799" height="104.363" filterUnits="userSpaceOnUse" color-interpolation-filters="sRGB">
<feFlood flood-opacity="0" result="BackgroundImageFix"/>
<feColorMatrix in="SourceAlpha" type="matrix" values="0 0 0 0 0 0 0 0 0 0 0 0 0 0 0 0 0 0 127 0"/>
<feOffset dx="-12" dy="15"/>
<feGaussianBlur stdDeviation="7.5"/>
<feColorMatrix type="matrix" values="0 0 0 0 0.196078 0 0 0 0 0.521569 0 0 0 0 0.960784 0 0 0 0.3 0"/>
<feBlend mode="normal" in2="BackgroundImageFix" result="effect1_dropShadow"/>
<feBlend mode="normal" in="SourceGraphic" in2="effect1_dropShadow" result="shape"/>
</filter>
<filter id="filter5_d" x="323.515" y="36.4474" width="76.6708" height="73.7699" filterUnits="userSpaceOnUse" color-interpolation-filters="sRGB">
<feFlood flood-opacity="0" result="BackgroundImageFix"/>
<feColorMatrix in="SourceAlpha" type="matrix" values="0 0 0 0 0 0 0 0 0 0 0 0 0 0 0 0 0 0 127 0"/>
<feOffset dy="15"/>
<feGaussianBlur stdDeviation="7.5"/>
<feColorMatrix type="matrix" values="0 0 0 0 0.211765 0 0 0 0 0.533333 0 0 0 0 0.968627 0 0 0 0.2 0"/>
<feBlend mode="normal" in2="BackgroundImageFix" result="effect1_dropShadow"/>
<feBlend mode="normal" in="SourceGraphic" in2="effect1_dropShadow" result="shape"/>
</filter>
<filter id="filter6_d" x="298.632" y="57.1089" width="37.0378" height="34.4523" filterUnits="userSpaceOnUse" color-interpolation-filters="sRGB">
<feFlood flood-opacity="0" result="BackgroundImageFix"/>
<feColorMatrix in="SourceAlpha" type="matrix" values="0 0 0 0 0 0 0 0 0 0 0 0 0 0 0 0 0 0 127 0"/>
<feOffset dy="5"/>
<feGaussianBlur stdDeviation="2"/>
<feColorMatrix type="matrix" values="0 0 0 0 0 0 0 0 0 0 0 0 0 0 0 0 0 0 0.1 0"/>
<feBlend mode="normal" in2="BackgroundImageFix" result="effect1_dropShadow"/>
<feBlend mode="normal" in="SourceGraphic" in2="effect1_dropShadow" result="shape"/>
</filter>
<filter id="filter7_d" x="359.582" y="247.629" width="187.719" height="157.135" filterUnits="userSpaceOnUse" color-interpolation-filters="sRGB">
<feFlood flood-opacity="0" result="BackgroundImageFix"/>
<feColorMatrix in="SourceAlpha" type="matrix" values="0 0 0 0 0 0 0 0 0 0 0 0 0 0 0 0 0 0 127 0"/>
<feOffset dx="-13" dy="15"/>
<feGaussianBlur stdDeviation="7.5"/>
<feColorMatrix type="matrix" values="0 0 0 0 0.211765 0 0 0 0 0.533333 0 0 0 0 0.968627 0 0 0 0.2 0"/>
<feBlend mode="normal" in2="BackgroundImageFix" result="effect1_dropShadow"/>
<feBlend mode="normal" in="SourceGraphic" in2="effect1_dropShadow" result="shape"/>
</filter>
<filter id="filter8_d" x="27.916" y="154.516" width="194.454" height="163.87" filterUnits="userSpaceOnUse" color-interpolation-filters="sRGB">
<feFlood flood-opacity="0" result="BackgroundImageFix"/>
<feColorMatrix in="SourceAlpha" type="matrix" values="0 0 0 0 0 0 0 0 0 0 0 0 0 0 0 0 0 0 127 0"/>
<feOffset dx="-13" dy="15"/>
<feGaussianBlur stdDeviation="7.5"/>
<feColorMatrix type="matrix" values="0 0 0 0 0.211765 0 0 0 0 0.533333 0 0 0 0 0.968627 0 0 0 0.2 0"/>
<feBlend mode="normal" in2="BackgroundImageFix" result="effect1_dropShadow"/>
<feBlend mode="normal" in="SourceGraphic" in2="effect1_dropShadow" result="shape"/>
</filter>
<filter id="filter9_d" x="371.56" y="355.141" width="236.271" height="149.312" filterUnits="userSpaceOnUse" color-interpolation-filters="sRGB">
<feFlood flood-opacity="0" result="BackgroundImageFix"/>
<feColorMatrix in="SourceAlpha" type="matrix" values="0 0 0 0 0 0 0 0 0 0 0 0 0 0 0 0 0 0 127 0"/>
<feOffset dy="19"/>
<feGaussianBlur stdDeviation="10"/>
<feColorMatrix type="matrix" values="0 0 0 0 0 0 0 0 0 0 0 0 0 0 0 0 0 0 0.1 0"/>
<feBlend mode="normal" in2="BackgroundImageFix" result="effect1_dropShadow"/>
<feBlend mode="normal" in="SourceGraphic" in2="effect1_dropShadow" result="shape"/>
</filter>
<filter id="filter10_i" x="535.415" y="376.941" width="24.9481" height="20.9262" filterUnits="userSpaceOnUse" color-interpolation-filters="sRGB">
<feFlood flood-opacity="0" result="BackgroundImageFix"/>
<feBlend mode="normal" in="SourceGraphic" in2="BackgroundImageFix" result="shape"/>
<feColorMatrix in="SourceAlpha" type="matrix" values="0 0 0 0 0 0 0 0 0 0 0 0 0 0 0 0 0 0 127 0" result="hardAlpha"/>
<feOffset dy="4"/>
<feGaussianBlur stdDeviation="2"/>
<feComposite in2="hardAlpha" operator="arithmetic" k2="-1" k3="1"/>
<feColorMatrix type="matrix" values="0 0 0 0 0 0 0 0 0 0 0 0 0 0 0 0 0 0 0.05 0"/>
<feBlend mode="normal" in2="shape" result="effect1_innerShadow"/>
</filter>
<filter id="filter11_d" x="392.548" y="435.304" width="236.271" height="149.312" filterUnits="userSpaceOnUse" color-interpolation-filters="sRGB">
<feFlood flood-opacity="0" result="BackgroundImageFix"/>
<feColorMatrix in="SourceAlpha" type="matrix" values="0 0 0 0 0 0 0 0 0 0 0 0 0 0 0 0 0 0 127 0"/>
<feOffset dy="19"/>
<feGaussianBlur stdDeviation="10"/>
<feColorMatrix type="matrix" values="0 0 0 0 0 0 0 0 0 0 0 0 0 0 0 0 0 0 0.1 0"/>
<feBlend mode="normal" in2="BackgroundImageFix" result="effect1_dropShadow"/>
<feBlend mode="normal" in="SourceGraphic" in2="effect1_dropShadow" result="shape"/>
</filter>
<filter id="filter12_i" x="556.403" y="457.105" width="24.9481" height="20.9262" filterUnits="userSpaceOnUse" color-interpolation-filters="sRGB">
<feFlood flood-opacity="0" result="BackgroundImageFix"/>
<feBlend mode="normal" in="SourceGraphic" in2="BackgroundImageFix" result="shape"/>
<feColorMatrix in="SourceAlpha" type="matrix" values="0 0 0 0 0 0 0 0 0 0 0 0 0 0 0 0 0 0 127 0" result="hardAlpha"/>
<feOffset dy="4"/>
<feGaussianBlur stdDeviation="2"/>
<feComposite in2="hardAlpha" operator="arithmetic" k2="-1" k3="1"/>
<feColorMatrix type="matrix" values="0 0 0 0 0 0 0 0 0 0 0 0 0 0 0 0 0 0 0.05 0"/>
<feBlend mode="normal" in2="shape" result="effect1_innerShadow"/>
</filter>
<linearGradient id="paint0_linear" x1="521.146" y1="14.7327" x2="405.828" y2="685.401" gradientUnits="userSpaceOnUse">
<stop/>
<stop offset="0.348958" stop-color="#5D6A67"/>
<stop offset="0.65625" stop-color="#2DCDA7"/>
<stop offset="1" stop-color="#4090FE"/>
</linearGradient>
<linearGradient id="paint1_linear" x1="227.987" y1="401.675" x2="227.987" y2="493.991" gradientUnits="userSpaceOnUse">
<stop stop-color="#49C17F"/>
<stop offset="1" stop-color="#36ABFF"/>
</linearGradient>
<linearGradient id="paint2_linear" x1="220.233" y1="450.454" x2="220.233" y2="519.691" gradientUnits="userSpaceOnUse">
<stop stop-color="#41A2D8"/>
<stop offset="1" stop-color="#49C17F"/>
</linearGradient>
<radialGradient id="paint3_radial" cx="0" cy="0" r="1" gradientUnits="userSpaceOnUse" gradientTransform="translate(160.837 288.328) rotate(90) scale(114.288 138.458)">
<stop stop-color="#EEF7FF"/>
<stop offset="0.869792" stop-color="white"/>
</radialGradient>
<radialGradient id="paint4_radial" cx="0" cy="0" r="1" gradientUnits="userSpaceOnUse" gradientTransform="translate(222.044 300.047) rotate(90) scale(169.74 160.509)">
<stop stop-color="white"/>
<stop offset="1" stop-color="#F8FBFF" stop-opacity="0.75"/>
</radialGradient>
<linearGradient id="paint5_linear" x1="240.947" y1="226.213" x2="315.788" y2="226.213" gradientUnits="userSpaceOnUse">
<stop stop-color="#F8F8F8"/>
<stop offset="1" stop-color="#F8F8F8"/>
</linearGradient>
<linearGradient id="paint6_linear" x1="228.47" y1="179.652" x2="303.311" y2="179.652" gradientUnits="userSpaceOnUse">
<stop stop-color="#F8F8F8"/>
<stop offset="1" stop-color="#F8F8F8"/>
</linearGradient>
<linearGradient id="paint7_linear" x1="126.57" y1="380.347" x2="248.618" y2="380.347" gradientUnits="userSpaceOnUse">
<stop stop-color="#F8F8F8"/>
<stop offset="1" stop-color="#F8F8F8"/>
</linearGradient>
<linearGradient id="paint8_linear" x1="132.941" y1="404.124" x2="254.989" y2="404.124" gradientUnits="userSpaceOnUse">
<stop stop-color="#F8F8F8"/>
<stop offset="1" stop-color="#F8F8F8"/>
</linearGradient>
<linearGradient id="paint9_linear" x1="280.188" y1="79.3453" x2="383.776" y2="79.3453" gradientUnits="userSpaceOnUse">
<stop stop-color="#4292FF"/>
<stop offset="1" stop-color="#277BED"/>
</linearGradient>
<radialGradient id="paint10_radial" cx="0" cy="0" r="1" gradientUnits="userSpaceOnUse" gradientTransform="translate(399.46 274.579) rotate(47.1512) scale(372.165 372.527)">
<stop stop-color="#555555"/>
<stop offset="1" stop-color="#343434"/>
</radialGradient>
<linearGradient id="paint11_linear" x1="384.214" y1="331.462" x2="527.631" y2="331.462" gradientUnits="userSpaceOnUse">
<stop stop-color="#4292FF" stop-opacity="0.9"/>
<stop offset="1" stop-color="#277BED"/>
</linearGradient>
<linearGradient id="paint12_linear" x1="496.886" y1="204.014" x2="563.725" y2="242.595" gradientUnits="userSpaceOnUse">
<stop stop-color="#01B1FC"/>
<stop offset="1" stop-color="#57CA78"/>
</linearGradient>
<linearGradient id="paint13_linear" x1="55.916" y1="241.717" x2="199.332" y2="241.717" gradientUnits="userSpaceOnUse">
<stop stop-color="#4292FF" stop-opacity="0.9"/>
<stop offset="1" stop-color="#277BED"/>
</linearGradient>
<linearGradient id="paint14_linear" x1="413.071" y1="420.484" x2="528.657" y2="420.484" gradientUnits="userSpaceOnUse">
<stop stop-color="#F8F8F8"/>
<stop offset="1" stop-color="#EFF3F5"/>
</linearGradient>
<linearGradient id="paint15_linear" x1="418.302" y1="440.005" x2="497.374" y2="440.005" gradientUnits="userSpaceOnUse">
<stop stop-color="#F8F8F8"/>
<stop offset="1" stop-color="#EFF3F5"/>
</linearGradient>
<linearGradient id="paint16_linear" x1="434.06" y1="500.647" x2="549.646" y2="500.647" gradientUnits="userSpaceOnUse">
<stop stop-color="#F8F8F8"/>
<stop offset="1" stop-color="#EFF3F5"/>
</linearGradient>
<linearGradient id="paint17_linear" x1="439.29" y1="520.168" x2="518.362" y2="520.168" gradientUnits="userSpaceOnUse">
<stop stop-color="#F8F8F8"/>
<stop offset="1" stop-color="#EFF3F5"/>
</linearGradient>
<clipPath id="clip0">
<rect width="698" height="720" fill="white"/>
</clipPath>
<clipPath id="clip1">
<rect width="245.992" height="396.599" fill="white" transform="translate(314.903 237.73) rotate(-15)"/>
</clipPath>
<clipPath id="clip2">
<rect width="58.9879" height="58.9879" fill="white" transform="translate(512.246 169.26) rotate(-15)"/>
</clipPath>
</defs>
</svg>
