<?xml version="1.0" encoding="utf-8"?>
<!-- Generator: Adobe Illustrator 23.0.1, SVG Export Plug-In . SVG Version: 6.00 Build 0)  -->
<svg version="1.1" id="Layer_1" xmlns="http://www.w3.org/2000/svg" xmlns:xlink="http://www.w3.org/1999/xlink" x="0px" y="0px"
	 viewBox="0 0 745 572" style="enable-background:new 0 0 745 572;" xml:space="preserve">
<style type="text/css">
	.st0{fill:#42DBBE;}
	.st1{fill:#45A7FF;}
	.st2{clip-path:url(#SVGID_2_);}
	.st3{fill:#FFFFFF;}
	.st4{opacity:0.2;fill:#383838;enable-background:new    ;}
	.st5{fill:#E5C098;}
	.st6{fill:#0C935C;}
	.st7{fill:#AA5D52;}
	.st8{fill:#8C453E;}
	.st9{fill:none;stroke:#D8B691;stroke-width:14.1837;stroke-linecap:round;stroke-miterlimit:10;}
	.st10{fill:#3D2D2D;}
	.st11{fill:#D8B691;}
	.st12{fill:none;stroke:#D8B691;stroke-width:9.4036;stroke-linecap:round;stroke-miterlimit:10;}
	.st13{clip-path:url(#SVGID_4_);}
	.st14{fill:#383838;}
	.st15{fill:#F3F5F9;}
	.st16{fill:#1DB78F;}
	.st17{fill:#E2E2E2;}
	.st18{fill:#03877D;}
	.st19{clip-path:url(#SVGID_6_);}
	.st20{fill:#303030;}
	.st21{fill:#D31818;}
	.st22{fill:#EAEAEA;}
	.st23{fill:#BABABA;}
	.st24{fill:#D8D8D8;}
	.st25{fill:#F42F2F;}
	.st26{fill:#F2F2F2;}
	.st27{fill:#115FEA;}
	.st28{fill:#9E69B7;}
	.st29{fill:#8C463F;}
	.st30{fill:#683631;}
	.st31{fill:#1A1A1A;}
	.st32{fill:#F76C66;}
	.st33{fill:#E6E7E8;}
	.st34{fill:#7C489B;}
	.st35{fill:#D6D7D8;}
	.st36{fill:#D8BF8B;}
	.st37{fill:#B59661;}
	.st38{fill:#F27130;}
	.st39{fill:none;stroke:#9E5447;stroke-width:7.6368;stroke-linecap:round;stroke-miterlimit:10;}
	.st40{fill:#A3A3A3;}
	.st41{fill:#F1C36B;}
	.st42{fill:none;stroke:#AA5D52;stroke-width:19.0935;stroke-linecap:round;stroke-miterlimit:10;}
	.st43{fill:none;stroke:#AA5D52;stroke-width:7.6368;stroke-linecap:round;stroke-miterlimit:10;}
	.st44{fill:#FFE9E9;}
	.st45{fill:none;stroke:#FFC338;stroke-width:3.1851;stroke-miterlimit:10;}
	.st46{fill:#1E1B1B;}
	.st47{fill:#603A2C;}
	.st48{fill:#7F4F3C;}
	.st49{fill:#9E5447;}
	.st50{fill:#66241B;}
	.st51{fill:#EA9D8B;}
	.st52{fill:none;stroke:#D6D7D8;stroke-width:4.6767;stroke-miterlimit:10;}
	.st53{fill:none;stroke:#D6D7D8;stroke-width:4.6767;stroke-miterlimit:10;stroke-dasharray:10.1841,10.1841;}
	.st54{fill:#FEC337;}
	.st55{clip-path:url(#SVGID_8_);}
	.st56{fill:#3A3630;}
	.st57{fill:#DBAE3E;}
	.st58{fill:#BA4B2D;}
	.st59{fill:#EDC658;}
	.st60{fill:#FFECD4;}
	.st61{fill:#FFDD88;}
	.st62{fill:none;stroke:#8E3420;stroke-width:2.3162;stroke-linecap:round;stroke-miterlimit:10;}
	.st63{fill:none;stroke:#B78B29;stroke-width:2.3162;stroke-linecap:round;stroke-miterlimit:10;}
	.st64{fill:#202020;}
	.st65{fill:#933E21;}
	.st66{fill:#F9DC93;}
	.st67{fill:none;stroke:#231F20;stroke-width:2.3162;stroke-miterlimit:10;}
	.st68{fill:none;stroke:#493630;stroke-width:2.3162;stroke-linecap:round;stroke-miterlimit:10;}
	.st69{fill:#493630;}
	.st70{fill:#7C766D;}
	.st71{fill:none;stroke:#49443C;stroke-width:2.1475;stroke-linecap:round;stroke-miterlimit:10;}
	.st72{fill:none;stroke:#3A3630;stroke-width:2.7883;stroke-linecap:round;stroke-miterlimit:10;}
	.st73{fill:#A5A4A4;}
	.st74{fill:#514D47;}
	.st75{fill:#49443C;}
	.st76{fill:#9B948C;}
	.st77{opacity:0.1;fill:#CAF4FF;enable-background:new    ;}
	.st78{opacity:0.5;}
	.st79{fill:none;stroke:#FFFFFF;stroke-width:5.9071;stroke-miterlimit:10;}
	.st80{fill:#EDA515;}
	.st81{fill:#333333;}
	.st82{fill:#46A7FF;}
	.st83{fill:#DFE8EF;}
	.st84{fill:#898989;}
	.st85{fill:#FFCE6C;}
	.st86{fill:#AAAAAA;}
	.st87{fill:none;stroke:#474747;stroke-width:4.7631;stroke-linecap:round;stroke-miterlimit:10;}
</style>
<title>registrations</title>
<path class="st0" d="M743,303.8v-278c0-12.3-10-22.3-22.3-22.3c0,0,0,0,0,0H605c-7.1,0-13.7,3.3-17.9,9L412.8,245.9
	c-7.4,9.9-5.3,23.9,4.5,31.3c2.9,2.2,6.4,3.6,10,4.2l290,44.6c12.2,1.9,23.6-6.5,25.5-18.7C742.9,306.1,743,304.9,743,303.8z"/>
<path class="st0" d="M724.1,364.2L403.9,315c-8.2-1.3-16.4,2.1-21.3,8.7L229,529.3c-7.4,9.9-5.4,23.9,4.5,31.3
	c3.9,2.9,8.6,4.4,13.4,4.4h473.8c12.3,0,22.3-10,22.3-22.3c0,0,0,0,0,0V386.3C743.1,375.3,735,365.9,724.1,364.2z"/>
<path class="st0" d="M-0.3,286.6v257c0,12.3,10,22.3,22.3,22.3c0,0,0,0,0,0h125.1c7.1,0,13.7-3.3,17.9-9l159.3-213.3
	c7.4-9.9,5.4-23.9-4.5-31.3c-2.9-2.2-6.4-3.6-10-4.2L25.5,264.5C13.3,262.6,1.8,271,0,283.2C-0.2,284.3-0.3,285.5-0.3,286.6z"/>
<path class="st1" d="M506.6,4.1H23.3C11,4.1,1,14.1,1,26.4v177.4c0,11,8.1,20.4,19,22.1l314.7,48.4c8.2,1.3,16.4-2.1,21.3-8.7
	L524.5,39.8c7.4-9.9,5.4-23.9-4.5-31.3C516.1,5.6,511.4,4.1,506.6,4.1z"/>
<g>
	<defs>
		<path id="SVGID_1_" d="M506.6,4.1H23.3C11,4.1,1,14.1,1,26.4v177.4c0,11,8.1,20.4,19,22.1l314.7,48.4c8.2,1.3,16.4-2.1,21.3-8.7
			L524.5,39.8c7.4-9.9,5.4-23.9-4.5-31.3C516.1,5.6,511.4,4.1,506.6,4.1z"/>
	</defs>
	<clipPath id="SVGID_2_">
		<use xlink:href="#SVGID_1_"  style="overflow:visible;"/>
	</clipPath>
	<g class="st2">
		<g>
			<path class="st3" d="M20.8,59.6h8.1c0.2-0.3,0.4-0.6,0.5-0.9c-2.4-8.1,2.3-16.6,10.4-19c5.5-1.6,11.4,0,15.4,4.1
				C57.8,35,67,30,75.7,32.6c0.2,0.1,0.5,0.1,0.7,0.2c4.8-9.9,16.7-13.9,26.6-9.1c9.4,4.6,13.6,15.6,9.7,25.3
				c3.6,1.9,6.7,4.5,9.2,7.6c5.8-2.2,12.3-1.1,17,3h7.3c2.8,0,5,2.3,5,5c0,2.8-2.3,5-5,5H20.8c-2.8,0-5-2.3-5-5
				C15.8,61.8,18,59.6,20.8,59.6z"/>
			<path class="st3" d="M113.4,139.8h24.1c0.5-0.9,1.1-1.9,1.6-2.8c-7.1-24,6.7-49.2,30.7-56.2c16.2-4.8,33.8-0.1,45.5,12.1
				c7.7-25.8,34.8-40.5,60.6-32.8c0.7,0.2,1.3,0.4,2,0.6c14.3-29.1,49.5-41.2,78.7-26.9c27.6,13.6,40.1,46.2,28.6,74.7
				c10.5,5.6,19.8,13.2,27.3,22.5c17.1-6.5,36.5-3.2,50.4,8.8h21.6c8.2,0,14.9,6.7,14.9,14.9c0,8.2-6.7,14.9-14.9,14.9H113.4
				c-8.2,0-14.9-6.7-14.9-14.9C98.5,146.5,105.1,139.8,113.4,139.8L113.4,139.8z"/>
			<g>
				<path class="st0" d="M-27.4,187l134.6-45.1c30.2-10.1,62.8-10.1,92.9,0.1l55.6,18.7c31.7,10.7,66.2,10.1,97.6-1.6l0,0
					c34.3-12.8,72.1-12.2,106,1.6l60.5,24.6l-19.4,116.4l-291,18.6l-222.3-19.4L-27.4,187z"/>
				<path class="st4" d="M204.5,196h42.3c1.1,0,2,0.9,2,2v0c0,1.1-0.9,2-2,2h-42.3c-1.1,0-2-0.9-2-2v0
					C202.5,196.9,203.4,196,204.5,196z"/>
				<g>
					<path class="st5" d="M243.9,185.8h6.6l0,0v12.8c0,0.7-0.6,1.4-1.4,1.4l0,0h-3.9c-0.7,0-1.4-0.6-1.4-1.4l0,0V185.8L243.9,185.8z
						"/>
					<path class="st6" d="M243.8,141c0.8-1.9,3-2.8,4.9-2c0.9,0.4,1.6,1.1,2,2l11.6,27.1c2.6,6.1,1.2,13.2-3.5,17.9l0,0
						c-6.4,6.4-16.7,6.4-23.1,0l0,0c-4.7-4.7-6.1-11.8-3.5-17.9L243.8,141"/>
				</g>
				<path class="st4" d="M377.7,186.1h42.3c1.1,0,2,0.9,2,2v0c0,1.1-0.9,2-2,2h-42.3c-1.1,0-2-0.9-2-2v0
					C375.8,187,376.7,186.1,377.7,186.1z"/>
				<g>
					<path class="st5" d="M415.5,176.2h6.6l0,0V189c0,0.7-0.6,1.4-1.4,1.4l0,0h-3.9c-0.7,0-1.4-0.6-1.4-1.4l0,0V176.2L415.5,176.2z"
						/>
					<path class="st6" d="M415.4,131.5c0.8-1.9,3-2.8,4.9-2c0.9,0.4,1.6,1.1,2,2l11.6,27.1c2.6,6.1,1.2,13.2-3.5,17.9l0,0
						c-6.4,6.4-16.7,6.4-23.1,0l0,0c-4.7-4.7-6.1-11.8-3.5-17.9L415.4,131.5"/>
				</g>
				<path class="st4" d="M67.6,168.4H110c1.1,0,2,0.9,2,2v0c0,1.1-0.9,2-2,2H67.6c-1.1,0-2-0.9-2-2v0
					C65.7,169.3,66.5,168.4,67.6,168.4z"/>
				<g>
					<path class="st5" d="M105.3,158.2h6.6l0,0V171c0,0.7-0.6,1.4-1.4,1.4l0,0h-3.9c-0.7,0-1.4-0.6-1.4-1.4l0,0L105.3,158.2
						L105.3,158.2z"/>
					<path class="st6" d="M105.2,113.5c0.8-1.9,3-2.8,4.9-2c0.9,0.4,1.6,1.1,2,2l11.6,27.1c2.6,6.1,1.2,13.2-3.5,17.9l0,0
						c-6.4,6.4-16.7,6.4-23.1,0l0,0c-4.7-4.7-6.1-11.8-3.5-17.9L105.2,113.5"/>
				</g>
				<path class="st4" d="M-3.3,183.2h42.3c1.1,0,2,0.9,2,2v0c0,1.1-0.9,2-2,2H-3.3c-1.1,0-2-0.9-2-2v0
					C-5.2,184.1-4.4,183.2-3.3,183.2z"/>
				<g>
					<path class="st5" d="M34.5,172.8h6.6l0,0v12.8c0,0.7-0.6,1.4-1.4,1.4c0,0,0,0,0,0h-3.9c-0.7,0-1.4-0.6-1.4-1.4l0,0V172.8
						L34.5,172.8z"/>
					<path class="st6" d="M34.4,128.1c0.8-1.9,3-2.8,4.9-2c0.9,0.4,1.6,1.1,2,2l11.6,27.1c2.6,6.1,1.2,13.2-3.5,17.9l0,0
						c-6.4,6.4-16.7,6.4-23.1,0c0,0,0,0,0,0l0,0c-4.7-4.7-6.1-11.8-3.5-17.9L34.4,128.1"/>
				</g>
			</g>
			<path class="st4" d="M291.4,227.5h100.1c4.9,0,8.9,4,8.9,8.9v0c0,4.9-4,8.9-8.9,8.9H291.4c-4.9,0-8.9-4-8.9-8.9v0
				C282.5,231.5,286.5,227.5,291.4,227.5z"/>
			<path class="st4" d="M97.2,189.1h72.3c3.5,0,6.4,2.9,6.4,6.4l0,0c0,3.5-2.9,6.4-6.4,6.4H97.2c-3.5,0-6.4-2.9-6.4-6.4l0,0
				C90.8,192,93.7,189.1,97.2,189.1z"/>
			<g>
				<path class="st7" d="M440.7,242.5h-118c-4.2,0-7.7-3.4-7.7-7.7v-63.3l66.7-39l66.7,39v63.3C448.3,239.1,444.9,242.5,440.7,242.5
					z"/>
				<polygon class="st8" points="381.7,132.6 315,171.6 315,187.2 381.7,148.2 448.3,187.2 448.3,171.6 				"/>
				<path class="st9" d="M298,173.8l78.5-46c3.2-1.9,7.1-1.9,10.3,0l78.5,46"/>
				<path class="st8" d="M404.7,206.3h31.2c1.4,0,2.5,1.1,2.5,2.5v0c0,1.4-1.1,2.5-2.5,2.5h-31.2c-1.4,0-2.5-1.1-2.5-2.5v0
					C402.2,207.4,403.4,206.3,404.7,206.3z"/>
				<path class="st8" d="M352.3,180.1h31.2c1.4,0,2.5,1.1,2.5,2.5v0c0,1.4-1.1,2.5-2.5,2.5h-31.2c-1.4,0-2.5-1.1-2.5-2.5v0
					C349.8,181.2,350.9,180.1,352.3,180.1z"/>
				<path class="st8" d="M344.5,165.2h23.4c1.4,0,2.5,1.1,2.5,2.5v0c0,1.4-1.1,2.5-2.5,2.5h-23.4c-1.4,0-2.5-1.1-2.5-2.5v0
					C342,166.3,343.1,165.2,344.5,165.2z"/>
				<path class="st8" d="M382,165.2h47.5c1.4,0,2.5,1.1,2.5,2.5v0c0,1.4-1.1,2.5-2.5,2.5H382c-1.4,0-2.5-1.1-2.5-2.5v0
					C379.6,166.3,380.7,165.2,382,165.2z"/>
				<path class="st8" d="M420.3,220.5h14.2c1.4,0,2.5,1.1,2.5,2.5v0c0,1.4-1.1,2.5-2.5,2.5h-14.2c-1.4,0-2.5-1.1-2.5-2.5v0
					C417.9,221.6,419,220.5,420.3,220.5z"/>
				<path class="st8" d="M393.4,180.1h14.2c1.4,0,2.5,1.1,2.5,2.5v0c0,1.4-1.1,2.5-2.5,2.5h-14.2c-1.4,0-2.5-1.1-2.5-2.5v0
					C390.9,181.2,392,180.1,393.4,180.1z"/>
				<path class="st8" d="M406.9,220.5h4.3c1.4,0,2.5,1.1,2.5,2.5v0c0,1.4-1.1,2.5-2.5,2.5h-4.3c-1.4,0-2.5-1.1-2.5-2.5v0
					C404.4,221.6,405.5,220.5,406.9,220.5z"/>
				<path class="st8" d="M326,228.3h14.2c1.4,0,2.5,1.1,2.5,2.5v0c0,1.4-1.1,2.5-2.5,2.5H326c-1.4,0-2.5-1.1-2.5-2.5v0
					C323.5,229.4,324.6,228.3,326,228.3z"/>
				<path class="st10" d="M371,194.3h22.2c1.9,0,3.5,1.5,3.5,3.5v34.2c0,1.9-1.5,3.5-3.5,3.5H371c-1.9,0-3.5-1.5-3.5-3.5v-34.2
					C367.5,195.8,369,194.3,371,194.3z"/>
				<path class="st11" d="M360.2,233.4h42.9c1.5,0,2.7,1.2,2.7,2.7l0,0v8.5c0,0.5-0.4,0.9-0.9,0.9h-46.4c-0.5,0-0.9-0.4-0.9-0.9V236
					C357.6,234.5,358.8,233.4,360.2,233.4L360.2,233.4z"/>
				<g>
					<path class="st3" d="M333.2,192.3h14.4c3.3,0,5.9,2.6,5.9,5.9v0v14.4c0,3.3-2.6,5.9-5.9,5.9l0,0h-14.4c-3.3,0-5.9-2.6-5.9-5.9
						l0,0v-14.4C327.3,195,329.9,192.3,333.2,192.3z"/>
					<path class="st8" d="M347.6,194.1c2.3,0,4.1,1.9,4.1,4.1v14.4c0,2.3-1.9,4.1-4.1,4.1h-14.4c-2.3,0-4.1-1.9-4.1-4.1v-14.4
						c0-2.3,1.9-4.1,4.1-4.1H347.6 M347.6,190.5h-14.4c-4.2,0-7.7,3.4-7.7,7.7v14.4c0,4.2,3.4,7.7,7.7,7.7h14.4
						c4.2,0,7.7-3.4,7.7-7.7v-14.4C355.3,194,351.8,190.5,347.6,190.5L347.6,190.5z"/>
				</g>
				<g>
					<path class="st8" d="M337.9,216.8v-22.7c0-1.4,1.1-2.5,2.5-2.5h0c1.4,0,2.5,1.1,2.5,2.5v22.7c0,1.4-1.1,2.5-2.5,2.5h0
						C339,219.3,337.9,218.1,337.9,216.8z"/>
					<path class="st8" d="M351.7,207.9H329c-1.4,0-2.5-1.1-2.5-2.5v0c0-1.4,1.1-2.5,2.5-2.5h22.7c1.4,0,2.5,1.1,2.5,2.5v0
						C354.2,206.8,353.1,207.9,351.7,207.9z"/>
				</g>
			</g>
			<g>
				<path class="st7" d="M200.9,200.2h-78.2c-2.8,0-5.1-2.3-5.1-5.1c0,0,0,0,0,0v-41.9l44.2-25.9l44.2,25.9v41.9
					C206,197.9,203.7,200.2,200.9,200.2z"/>
				<polygon class="st8" points="161.8,127.3 117.6,153.2 117.6,163.5 161.8,137.7 206,163.5 206,153.2 				"/>
				<path class="st12" d="M106.3,154.7l52.1-30.5c2.1-1.2,4.7-1.2,6.8,0l52.1,30.5"/>
				<path class="st8" d="M177.1,176.2h20.7c0.9,0,1.6,0.7,1.6,1.6v0c0,0.9-0.7,1.6-1.6,1.6h-20.7c-0.9,0-1.6-0.7-1.6-1.6v0
					C175.4,177,176.2,176.2,177.1,176.2z"/>
				<path class="st8" d="M142.3,158.8H163c0.9,0,1.6,0.7,1.6,1.6v0c0,0.9-0.7,1.6-1.6,1.6h-20.7c-0.9,0-1.6-0.7-1.6-1.6v0
					C140.6,159.6,141.4,158.8,142.3,158.8z"/>
				<path class="st8" d="M137.1,148.9h15.5c0.9,0,1.6,0.7,1.6,1.6v0c0,0.9-0.7,1.6-1.6,1.6h-15.5c-0.9,0-1.6-0.7-1.6-1.6v0
					C135.5,149.7,136.2,148.9,137.1,148.9z"/>
				<path class="st8" d="M162,148.9h31.5c0.9,0,1.6,0.7,1.6,1.6v0c0,0.9-0.7,1.6-1.6,1.6H162c-0.9,0-1.6-0.7-1.6-1.6v0
					C160.4,149.7,161.1,148.9,162,148.9z"/>
				<path class="st8" d="M187.4,185.6h9.4c0.9,0,1.6,0.7,1.6,1.6v0c0,0.9-0.7,1.6-1.6,1.6h-9.4c-0.9,0-1.6-0.7-1.6-1.6v0
					C185.8,186.4,186.5,185.6,187.4,185.6z"/>
				<path class="st8" d="M169.5,158.8h9.4c0.9,0,1.6,0.7,1.6,1.6v0c0,0.9-0.7,1.6-1.6,1.6h-9.4c-0.9,0-1.6-0.7-1.6-1.6v0
					C167.9,159.6,168.6,158.8,169.5,158.8z"/>
				<path class="st8" d="M178.5,185.6h2.8c0.9,0,1.6,0.7,1.6,1.6v0c0,0.9-0.7,1.6-1.6,1.6h-2.8c-0.9,0-1.6-0.7-1.6-1.6v0
					C176.8,186.4,177.6,185.6,178.5,185.6z"/>
				<path class="st8" d="M124.9,190.8h9.4c0.9,0,1.6,0.7,1.6,1.6v0c0,0.9-0.7,1.6-1.6,1.6h-9.4c-0.9,0-1.6-0.7-1.6-1.6v0
					C123.2,191.5,124,190.8,124.9,190.8z"/>
				<path class="st10" d="M154.7,168.2h14.7c1.3,0,2.3,1,2.3,2.3v22.7c0,1.3-1,2.3-2.3,2.3h-14.7c-1.3,0-2.3-1-2.3-2.3v-22.7
					C152.4,169.3,153.4,168.2,154.7,168.2z"/>
				<path class="st11" d="M147.6,194.2H176c1,0,1.8,0.8,1.8,1.8c0,0,0,0,0,0v5.6c0,0.3-0.3,0.6-0.6,0.6c0,0,0,0,0,0h-30.8
					c-0.3,0-0.6-0.3-0.6-0.6c0,0,0,0,0,0v-5.6C145.8,194.9,146.6,194.2,147.6,194.2C147.6,194.2,147.6,194.2,147.6,194.2z"/>
				<g>
					<path class="st3" d="M129.6,166.9h9.6c2.2,0,3.9,1.8,3.9,3.9v9.6c0,2.2-1.8,3.9-3.9,3.9h-9.6c-2.2,0-3.9-1.8-3.9-3.9v-9.6
						C125.7,168.7,127.5,166.9,129.6,166.9L129.6,166.9z"/>
					<path class="st8" d="M139.2,168.1c1.5,0,2.7,1.2,2.7,2.7c0,0,0,0,0,0v9.6c0,1.5-1.2,2.7-2.7,2.7h-9.6c-1.5,0-2.7-1.2-2.7-2.7
						v-9.6c0-1.5,1.2-2.7,2.7-2.7c0,0,0,0,0,0L139.2,168.1 M139.2,165.8h-9.6c-2.8,0-5.1,2.3-5.1,5.1v9.6c0,2.8,2.3,5.1,5.1,5.1h9.6
						c2.8,0,5.1-2.3,5.1-5.1v-9.6C144.3,168,142,165.8,139.2,165.8z"/>
				</g>
				<g>
					<path class="st8" d="M132.8,183.2v-15c0-0.9,0.7-1.6,1.6-1.6h0c0.9,0,1.6,0.7,1.6,1.6v15c0,0.9-0.7,1.6-1.6,1.6h0
						C133.5,184.8,132.8,184.1,132.8,183.2z"/>
					<path class="st8" d="M141.9,177.3h-15c-0.9,0-1.6-0.7-1.6-1.6v0c0-0.9,0.7-1.6,1.6-1.6h15c0.9,0,1.6,0.7,1.6,1.6v0
						C143.6,176.5,142.8,177.3,141.9,177.3z"/>
				</g>
			</g>
		</g>
	</g>
</g>
<g>
	<defs>
		<path id="SVGID_3_" d="M-0.3,286.6v257c0,12.3,10,22.3,22.3,22.3c0,0,0,0,0,0h125.1c7.1,0,13.7-3.3,17.9-9l159.3-213.3
			c7.4-9.9,5.4-23.9-4.5-31.3c-2.9-2.2-6.4-3.6-10-4.2L25.5,264.5C13.3,262.6,1.8,271,0,283.2C-0.2,284.3-0.3,285.5-0.3,286.6z"/>
	</defs>
	<clipPath id="SVGID_4_">
		<use xlink:href="#SVGID_3_"  style="overflow:visible;"/>
	</clipPath>
	<g class="st13">
		<g>
			<g>
				<path class="st7" d="M198.5,370.4L198.5,370.4c5.8,5.3,6.2,14.4,0.9,20.2l0,0l-42.8,46.6l0,0l-21-19.3l0,0l42.8-46.6
					C183.6,365.5,192.7,365.1,198.5,370.4z"/>
				<path class="st7" d="M204.4,438.2L204.4,438.2c-7.1,9.3-20.4,11.1-29.8,4c0,0,0,0,0,0l-44.8-34.1l0,0l17.3-22.7l0,0l55.8,42.6
					C206.2,430.4,206.8,435,204.4,438.2C204.4,438.2,204.4,438.2,204.4,438.2z"/>
				<path class="st7" d="M147.7,439.4l28.6-0.4l8.1,14.7c1,1.8,1.6,3.9,1.6,6l0.5,36.6c0,3.3-2.6,6-5.9,6l0,0
					c-9.6,0.1-17.5-7.6-17.6-17.1l-0.3-24.7L147.7,439.4z"/>
				<path class="st14" d="M81.9,306l97.1,12.5c7.8,1,13.3,8.1,12.3,16l-22.4,174.4c-1,7.8-8.1,13.3-16,12.3l-97.1-12.5
					c-7.8-1-13.3-8.1-12.3-16l22.4-174.4C66.9,310.5,74.1,305,81.9,306z"/>
				<path class="st15" d="M182.9,333.5l-22.3,174.4c-0.4,3.2-3.3,5.4-6.5,5l-97.1-12.4c-3.2-0.4-5.4-3.3-5-6.5l22.3-174.4
					c0.4-3.2,3.3-5.4,6.5-5l97.1,12.4C181.1,327.4,183.3,330.3,182.9,333.5z"/>
				
					<rect x="96.1" y="439.8" transform="matrix(0.1273 -0.9919 0.9919 0.1273 -401.4195 541.011)" class="st14" width="21.3" height="117.6"/>
				<path class="st16" d="M179.9,357l3-23.6c0.4-3.2-1.8-6.1-5-6.5l-97.1-12.5c-3.2-0.4-6.1,1.8-6.5,5l-3,23.6L179.9,357z"/>
			</g>
			<path class="st16" d="M79.4,451.7l63.5,8.2c1.2,0.2,2,1.2,1.9,2.4l-1.7,13.4c-0.2,1.2-1.2,2-2.4,1.9l-63.5-8.2
				c-1.2-0.2-2-1.2-1.9-2.4l1.7-13.4C77.1,452.3,78.2,451.5,79.4,451.7z"/>
			<path class="st7" d="M54,454.8c0,0,28.9,5.1,35.6,62.3s-44,22.4-44,22.4l-11.5-27.4L54,454.8z"/>
			<path class="st7" d="M50.8,508l4.8-37.4l5.7-11.2c-0.1-0.1-0.2-0.2-0.3-0.3l15.1-28c5.7-10.6,1.8-23.8-8.8-29.5c0,0,0,0,0,0
				l-2.8-1.5c-1.5-0.8-3.4-0.2-4.2,1.2l-32.5,60.3c-3.1,5.7-4.4,12.1-3.8,18.5c0,0,4.7,50.2,4.7,50.2c0.3,4.9-9.1,15.3-11.5,19.8
				c-3.5,6.4-7,13.5-7.7,20.9c-1.4,16,7.6,33.5,16.6,46.2c1.6,2.5,3.6,4.6,6,6.2c4.7,2.8,10.9,1.8,15.6-1
				c19.9-12,25.1-39.8,35.3-58.9c0.3-0.5,0.6-1,0.9-1.5l0.3-0.4c2.9-4.6,7.2-8.1,12.3-9.9c9.9-3.9,18.8-9.8,26.3-17.3
				c4.7-4.6,8.8-9.8,12.3-15.4L50.8,508z"/>
			<g>
				<circle class="st17" cx="119.1" cy="401.8" r="29.5"/>
				<path class="st18" d="M127.1,416.1c-1.9,1.4-4.3,2.2-6.7,2.3l-0.5,3c-0.3,1.8-1.9,3-3.7,2.7c0,0,0,0,0,0l0,0
					c-1.8-0.3-3-1.9-2.7-3.7c0,0,0,0,0,0l0.4-2.9c-2.5-0.7-4.8-2.1-6.5-4.1c-0.5-0.6-1-1.3-1.3-2c-0.9-1.7-0.2-3.8,1.5-4.7
					c0.4-0.2,0.9-0.3,1.4-0.4l0.5,0c1.5-0.1,2.9,0.8,3.4,2.2c0.7,2,2.4,3.3,5,3.6c1.2,0.3,2.5,0.1,3.6-0.4c0.9-0.5,1.5-1.4,1.6-2.4
					c0.1-0.7,0-1.5-0.4-2.1c-0.6-0.7-1.3-1.3-2.2-1.6l-5.9-2.6c-2.1-0.9-3.9-2.2-5.4-4c-1.3-1.8-1.8-4-1.3-6.1
					c0.3-2.3,1.4-4.5,3.2-6c1.9-1.5,4.3-2.3,6.7-2.3l0.3-2c0.3-1.8,1.9-3,3.7-2.7c0,0,0,0,0,0l0,0c1.8,0.3,3,1.9,2.7,3.7
					c0,0,0,0,0,0l-0.3,2.1c2.2,0.7,4.1,2.1,5.5,3.9c0.4,0.5,0.7,1,0.9,1.5c0.9,1.7,0.2,3.8-1.5,4.6c-0.4,0.2-0.9,0.4-1.4,0.4l0,0
					c-1.5,0.1-2.8-0.8-3.4-2.1c-0.2-0.6-0.6-1.1-1-1.5c-0.9-0.9-2.1-1.5-3.4-1.7c-1.1-0.2-2.2,0-3.1,0.4c-0.9,0.5-1.5,1.3-1.6,2.4
					c-0.2,1.5,0.5,2.6,2.2,3.4l6.4,3c2.1,0.9,3.9,2.3,5.2,4.1c1.1,1.8,1.5,3.9,1.1,5.9C130.2,412.5,129,414.7,127.1,416.1z"/>
			</g>
		</g>
	</g>
</g>
<g>
	<defs>
		<path id="SVGID_5_" d="M743,303.8v-278c0-12.3-10-22.3-22.3-22.3c0,0,0,0,0,0H605c-7.1,0-13.7,3.3-17.9,9L412.8,245.9
			c-7.4,9.9-5.3,23.9,4.5,31.3c2.9,2.2,6.4,3.6,10,4.2l290,44.6c12.2,1.9,23.6-6.5,25.5-18.7C742.9,306.1,743,304.9,743,303.8z"/>
	</defs>
	<clipPath id="SVGID_6_">
		<use xlink:href="#SVGID_5_"  style="overflow:visible;"/>
	</clipPath>
	<g class="st19">
		<g>
			<g>
				<g>
					<g>
						<path class="st20" d="M614.8,137.4c6.4,7.9,5.2,19.5-2.7,25.9c-2.5,2-5.4,3.3-8.5,3.9l0,0c-1.1,0.2-1.8,1.1-1.6,2.2
							c0.1,0.5,0.4,1,0.8,1.3c8.2,6,19.7,4.2,25.7-4c6-8.2,4.2-19.7-4-25.7C621.6,138.9,618.2,137.7,614.8,137.4L614.8,137.4z"/>
						<rect x="634.9" y="226.4" class="st7" width="8.9" height="64.8"/>
						<g>
							<path class="st21" d="M653.7,290.8h-21v0.1v9.1c0,0.8,0.6,1.4,1.4,1.4c0,0,0,0,0,0h19.8v-10.6
								C653.9,290.8,653.8,290.8,653.7,290.8z"/>
							<path class="st22" d="M662.8,298.8c-0.8-3.1-3-7.9-8.9-8v10.6h6.9c1.1,0,2.1-0.9,2.1-2.1C662.9,299.2,662.9,299,662.8,298.8z
								"/>
							<path class="st23" d="M633,299.1h29.8c0.8,0,1.4,0.6,1.4,1.4v0c0,0.8-0.6,1.4-1.4,1.4H633c-0.8,0-1.4-0.6-1.4-1.4v0
								C631.7,299.7,632.3,299.1,633,299.1z"/>
							<path class="st24" d="M643.7,290.8h7.1l0,0v3.2c0,0.6-0.5,1.2-1.2,1.2h-4.7c-0.6,0-1.2-0.5-1.2-1.2L643.7,290.8L643.7,290.8
								L643.7,290.8z"/>
						</g>
						<rect x="620.1" y="226.4" class="st7" width="8.4" height="64.8"/>
						<g>
							<path class="st25" d="M639,290.8h-19.7c-0.8,0-1.5,0.7-1.5,1.5v7.7c0,0.8,0.6,1.4,1.4,1.4H639L639,290.8L639,290.8z"/>
							<path class="st22" d="M647.9,298.8c-0.8-3.1-3-7.9-8.9-8v10.6h6.9c1.1,0,2.1-0.9,2.1-2.1C648,299.2,647.9,299,647.9,298.8z"
								/>
							<path class="st24" d="M618.1,299.1h29.8c0.8,0,1.4,0.6,1.4,1.4v0c0,0.8-0.6,1.4-1.4,1.4h-29.8c-0.8,0-1.4-0.6-1.4-1.4v0
								C616.7,299.7,617.4,299.1,618.1,299.1z"/>
							<path class="st26" d="M628.4,290.8h7.1l0,0v3.2c0,0.6-0.5,1.2-1.2,1.2h-4.7c-0.6,0-1.2-0.5-1.2-1.2L628.4,290.8L628.4,290.8z
								"/>
						</g>
						<rect x="618" y="226.4" class="st27" width="27.5" height="7.9"/>
						<path class="st28" d="M640.5,167h-17.6c-4.9,0-8.9,4-8.9,8.9c0,0,0,0,0,0l1.5,14.9c1.2,11.4-3.8,57.9-5.8,69.3l-0.2,1.3
							c0,0.8,0.6,1.4,1.4,1.4l43.1,0c0.8,0,1.4-0.6,1.4-1.4l0,0c-2.3-12.2-8.9-59.5-7.5-71.8l1.5-13.6
							C649.4,171,645.4,167,640.5,167C640.5,167,640.5,167,640.5,167z"/>
						<path class="st7" d="M627.2,160.9h8.9l0,0v7.2c0,2.5-2,4.5-4.5,4.5l0,0l0,0c-2.5,0-4.5-2-4.5-4.5l0,0L627.2,160.9L627.2,160.9
							z"/>
						<g>
							<path class="st20" d="M631.9,107.5L631.9,107.5c12.4,0,22.5,10.1,22.5,22.5c0,0,0,0,0,0v12.5l0,0h-45.1l0,0V130
								C609.4,117.6,619.5,107.5,631.9,107.5C631.9,107.5,631.9,107.5,631.9,107.5z"/>
							<circle class="st29" cx="612.4" cy="142.5" r="6.2"/>
							<circle class="st29" cx="651" cy="142.5" r="6.2"/>
							<path class="st7" d="M612.4,131.3v14.4c0,10.6,8.6,19.3,19.3,19.3l0,0c10.6,0,19.3-8.6,19.3-19.3v-14.4l-10-9.4L612.4,131.3z
								"/>
							<g>
								<path class="st20" d="M619.8,137.9c-0.5,0-1-0.4-1-1c0-0.4,0.3-0.8,0.7-0.9l4.7-1.6c0.5-0.2,1.1,0.1,1.2,0.6
									c0.2,0.5-0.1,1.1-0.6,1.2l-4.7,1.6C620,137.9,619.9,137.9,619.8,137.9z"/>
								<path class="st20" d="M643.6,137.8c-0.1,0-0.2,0-0.3-0.1l-4.7-1.6c-0.5-0.2-0.8-0.7-0.6-1.2c0.2-0.5,0.7-0.8,1.2-0.6l0,0
									l4.7,1.6c0.5,0.2,0.8,0.7,0.6,1.2C644.4,137.5,644,137.8,643.6,137.8L643.6,137.8z"/>
								<path class="st30" d="M627.4,143.7c-0.5,0-0.8-0.3-0.9-0.8c-0.3-1.3-1.6-2.2-3-1.9c-0.9,0.2-1.7,0.9-1.9,1.9
									c-0.1,0.5-0.6,0.9-1.2,0.7c-0.5-0.1-0.8-0.6-0.7-1.2c0.5-2.4,2.9-3.9,5.3-3.3c1.7,0.4,3,1.7,3.3,3.3c0.1,0.5-0.2,1-0.7,1.2
									C627.6,143.7,627.5,143.7,627.4,143.7L627.4,143.7z"/>
								<path class="st30" d="M642.6,143.7c-0.5,0-0.8-0.3-0.9-0.8c-0.3-1.3-1.6-2.2-3-1.9c-0.9,0.2-1.7,0.9-1.9,1.9
									c-0.1,0.5-0.6,0.9-1.2,0.7s-0.9-0.6-0.7-1.2c0.5-2.4,2.9-3.9,5.3-3.3c1.7,0.4,3,1.7,3.3,3.3c0.1,0.5-0.2,1-0.7,1.2
									c0,0,0,0,0,0C642.8,143.7,642.7,143.7,642.6,143.7z"/>
							</g>
							<g>
								<g>
									<path class="st31" d="M637.4,153.5c0.6,0,1.1,0.5,1.1,1.1c0,0.1,0,0.1,0,0.2c-0.7,3.8-4.3,6.3-8.1,5.6
										c-2.8-0.5-5.1-2.7-5.6-5.6c-0.1-0.6,0.3-1.1,0.9-1.2c0.1,0,0.1,0,0.2,0H637.4z"/>
									<path class="st32" d="M633,157.7c-1.6,0.5-2.6,1.6-2.7,2.6c2.3,0.5,4.8-0.2,6.4-2C636,157.5,634.5,157.2,633,157.7z"/>
								</g>
								<path class="st33" d="M637.4,153.4H626c-0.6,0-1.1,0.5-1.1,1.1c0,0.1,0,0.1,0,0.2c0.1,0.4,0.2,0.8,0.3,1.2h13
									c0.1-0.4,0.2-0.8,0.3-1.2c0.1-0.6-0.3-1.1-0.9-1.2C637.6,153.5,637.5,153.4,637.4,153.4z"/>
							</g>
						</g>
						<path class="st7" d="M608.6,215.6c-0.4,0-0.8-0.2-1.1-0.5l-3.1-3c-0.8-0.7-0.8-1.9-0.1-2.7c0.7-0.8,1.9-0.8,2.7-0.1l0,0l3.1,3
							c0.8,0.7,0.8,1.9,0.1,2.7C609.7,215.5,609.2,215.7,608.6,215.6L608.6,215.6z"/>
						<path class="st7" d="M600.6,220.8c-0.1,0-0.1,0-0.2,0c-2.6-0.3-4.5-2.7-4.1-5.3c5.3-42,23.5-44.1,25.6-44.2l0.4,9.5
							c0.1,0,0.1,0,0.2,0c-0.1,0-12.5,2.1-16.8,35.8C605.5,219.2,603.2,221,600.6,220.8z"/>
						<path class="st28" d="M605.5,179.4l10.6-10.1c3.3-3.1,8.5-3,11.7,0.3l0,0c3.1,3.3,3,8.5-0.3,11.7l-10.6,10.1
							c-0.5,0.5-1.3,0.5-1.8,0c0,0,0,0,0,0l-9.6-10.1C604.9,180.7,605,179.9,605.5,179.4L605.5,179.4z"/>
						<path class="st7" d="M675.5,134.5c0.1,0,0.1,0,0.2,0.1c2.5,0.9,3.8,3.6,2.9,6.1c0,0,0,0,0,0c-14.5,39.8-32.7,37.8-34.7,37.4
							l1.7-9.4c-0.1,0-0.1,0-0.2,0c0.1,0,12.6,0.7,24.2-31.3C670.5,135,673.1,133.7,675.5,134.5z"/>
						<path class="st28" d="M661.7,173.8l-12.6,7.5c-3.9,2.3-9,1.1-11.3-2.9l0,0c-2.3-3.9-1.1-9,2.9-11.3l12.6-7.5
							c0.6-0.4,1.4-0.2,1.7,0.4c0,0,0,0,0,0l7.2,12C662.5,172.6,662.3,173.4,661.7,173.8L661.7,173.8z"/>
						<path class="st7" d="M625.6,167h12.2c2.4,0,4.4,2,4.4,4.4v0c0,2.4-2,4.4-4.4,4.4h-12.2c-2.4,0-4.4-2-4.4-4.4v0
							C621.2,169,623.1,167,625.6,167z"/>
						<path class="st20" d="M641,115.2l-31.4,12.2c0,0.2,0.1,0.4,0.2,0.6c1.8,5.5,10.6,7.6,19.5,4.6c8.9-3,14.7-9.8,12.9-15.4
							C641.9,116.6,641.5,115.9,641,115.2z"/>
						<path class="st20" d="M654.3,131.1l-14.2-11.5c-0.1,0.1-0.2,0.2-0.2,0.2c-2.1,2.4-0.7,7,3.1,10.4s8.6,4.3,10.7,1.9
							C653.9,131.9,654.2,131.5,654.3,131.1z"/>
						<path class="st20" d="M609.4,134.5h3l0,0v17.3c0,0.8-0.7,1.5-1.5,1.5l0,0c-0.8,0-1.5-0.7-1.5-1.5V134.5L609.4,134.5z"/>
						<path class="st20" d="M651,134.5h3.5l0,0v17.1c0,1-0.8,1.8-1.8,1.8l0,0c-1,0-1.8-0.8-1.8-1.8L651,134.5L651,134.5L651,134.5z"
							/>
						<path class="st7" d="M666.7,138.6c0.4,0.2,0.7,0.5,0.9,0.8l2.1,3.8c0.5,0.9,0.2,2.1-0.8,2.6c-0.9,0.5-2.1,0.2-2.6-0.8
							l-2.1-3.8c-0.5-0.9-0.2-2.1,0.8-2.6C665.6,138.5,666.2,138.4,666.7,138.6L666.7,138.6z"/>
						<rect x="621.3" y="194.2" class="st34" width="21.3" height="2.9"/>
						<path class="st30" d="M635.6,149.8h-7.2c-0.6,0-1.1-0.5-1.1-1.1c0-0.6,0.5-1.1,1.1-1.1c0,0,0,0,0.1,0h7.2
							c0.6,0,1.1,0.5,1.1,1.1C636.6,149.3,636.2,149.7,635.6,149.8z"/>
					</g>
					<path class="st20" d="M614.8,137.4c6.4,7.9,5.2,19.5-2.7,25.9c-2.5,2-5.4,3.3-8.5,3.9l0,0c-1.1,0.2-1.8,1.1-1.6,2.2
						c0.1,0.5,0.4,1,0.8,1.3c8.2,6,19.7,4.2,25.7-4c6-8.2,4.2-19.7-4-25.7C621.6,138.9,618.2,137.7,614.8,137.4L614.8,137.4z"/>
					<rect x="634.9" y="226.4" class="st7" width="8.9" height="64.8"/>
					<g>
						<path class="st21" d="M653.7,290.8h-21v0.1v9.1c0,0.8,0.6,1.4,1.4,1.4c0,0,0,0,0,0h19.8v-10.6
							C653.9,290.8,653.8,290.8,653.7,290.8z"/>
						<path class="st22" d="M662.8,298.8c-0.8-3.1-3-7.9-8.9-8v10.6h6.9c1.1,0,2.1-0.9,2.1-2.1C662.9,299.2,662.9,299,662.8,298.8z"
							/>
						<path class="st23" d="M633,299.1h29.8c0.8,0,1.4,0.6,1.4,1.4v0c0,0.8-0.6,1.4-1.4,1.4H633c-0.8,0-1.4-0.6-1.4-1.4v0
							C631.7,299.7,632.3,299.1,633,299.1z"/>
						<path class="st24" d="M643.7,290.8h7.1l0,0v3.2c0,0.6-0.5,1.2-1.2,1.2h-4.7c-0.6,0-1.2-0.5-1.2-1.2L643.7,290.8L643.7,290.8
							L643.7,290.8z"/>
					</g>
					<rect x="620.1" y="226.4" class="st7" width="8.4" height="64.8"/>
					<rect x="634.7" y="226.4" class="st20" width="9.1" height="55.4"/>
					<rect x="619.8" y="226.4" class="st20" width="8.9" height="55.4"/>
					<g>
						<path class="st25" d="M639,290.8h-19.7c-0.8,0-1.5,0.7-1.5,1.5v7.7c0,0.8,0.6,1.4,1.4,1.4H639L639,290.8L639,290.8z"/>
						<path class="st22" d="M647.9,298.8c-0.8-3.1-3-7.9-8.9-8v10.6h6.9c1.1,0,2.1-0.9,2.1-2.1C648,299.2,647.9,299,647.9,298.8z"/>
						<path class="st24" d="M618.1,299.1h29.8c0.8,0,1.4,0.6,1.4,1.4v0c0,0.8-0.6,1.4-1.4,1.4h-29.8c-0.8,0-1.4-0.6-1.4-1.4v0
							C616.7,299.7,617.4,299.1,618.1,299.1z"/>
						<path class="st26" d="M628.4,290.8h7.1l0,0v3.2c0,0.6-0.5,1.2-1.2,1.2h-4.7c-0.6,0-1.2-0.5-1.2-1.2L628.4,290.8L628.4,290.8z"
							/>
					</g>
					<rect x="618" y="226.4" class="st27" width="27.5" height="7.9"/>
					<path class="st3" d="M640.5,167h-17.6c-4.9,0-8.9,4-8.9,8.9c0,0,0,0,0,0l1.5,14.9c1.2,11.4-3.8,57.9-5.8,69.3l-0.2,1.3
						c0,0.8,0.6,1.4,1.4,1.4l43.1,0c0.8,0,1.4-0.6,1.4-1.4l0,0c-2.3-12.2-8.9-59.5-7.5-71.8l1.5-13.6C649.4,171,645.4,167,640.5,167
						C640.5,167,640.5,167,640.5,167z"/>
					<path class="st7" d="M627.2,160.9h8.9l0,0v7.2c0,2.5-2,4.5-4.5,4.5l0,0l0,0c-2.5,0-4.5-2-4.5-4.5l0,0L627.2,160.9L627.2,160.9z
						"/>
					<g>
						<path class="st20" d="M631.9,107.5L631.9,107.5c12.4,0,22.5,10.1,22.5,22.5c0,0,0,0,0,0v12.5l0,0h-45.1l0,0V130
							C609.4,117.6,619.5,107.5,631.9,107.5C631.9,107.5,631.9,107.5,631.9,107.5z"/>
						<circle class="st29" cx="612.4" cy="142.5" r="6.2"/>
						<circle class="st29" cx="651" cy="142.5" r="6.2"/>
						<path class="st7" d="M612.4,131.3v14.4c0,10.6,8.6,19.3,19.3,19.3l0,0c10.6,0,19.3-8.6,19.3-19.3v-14.4l-10-9.4L612.4,131.3z"
							/>
						<g>
							<path class="st20" d="M619.8,137.9c-0.5,0-1-0.4-1-1c0-0.4,0.3-0.8,0.7-0.9l4.7-1.6c0.5-0.2,1.1,0.1,1.2,0.6
								c0.2,0.5-0.1,1.1-0.6,1.2l-4.7,1.6C620,137.9,619.9,137.9,619.8,137.9z"/>
							<path class="st20" d="M643.6,137.8c-0.1,0-0.2,0-0.3-0.1l-4.7-1.6c-0.5-0.2-0.8-0.7-0.6-1.2c0.2-0.5,0.7-0.8,1.2-0.6l0,0
								l4.7,1.6c0.5,0.2,0.8,0.7,0.6,1.2C644.4,137.5,644,137.8,643.6,137.8L643.6,137.8z"/>
							<path class="st30" d="M627.4,143.7c-0.5,0-0.8-0.3-0.9-0.8c-0.3-1.3-1.6-2.2-3-1.9c-0.9,0.2-1.7,0.9-1.9,1.9
								c-0.1,0.5-0.6,0.9-1.2,0.7c-0.5-0.1-0.8-0.6-0.7-1.2c0.5-2.4,2.9-3.9,5.3-3.3c1.7,0.4,3,1.7,3.3,3.3c0.1,0.5-0.2,1-0.7,1.2
								C627.6,143.7,627.5,143.7,627.4,143.7L627.4,143.7z"/>
							<path class="st30" d="M642.6,143.7c-0.5,0-0.8-0.3-0.9-0.8c-0.3-1.3-1.6-2.2-3-1.9c-0.9,0.2-1.7,0.9-1.9,1.9
								c-0.1,0.5-0.6,0.9-1.2,0.7s-0.9-0.6-0.7-1.2c0.5-2.4,2.9-3.9,5.3-3.3c1.7,0.4,3,1.7,3.3,3.3c0.1,0.5-0.2,1-0.7,1.2
								c0,0,0,0,0,0C642.8,143.7,642.7,143.7,642.6,143.7z"/>
						</g>
						<g>
							<g>
								<path class="st31" d="M637.4,153.5c0.6,0,1.1,0.5,1.1,1.1c0,0.1,0,0.1,0,0.2c-0.7,3.8-4.3,6.3-8.1,5.6
									c-2.8-0.5-5.1-2.7-5.6-5.6c-0.1-0.6,0.3-1.1,0.9-1.2c0.1,0,0.1,0,0.2,0H637.4z"/>
								<path class="st32" d="M633,157.7c-1.6,0.5-2.6,1.6-2.7,2.6c2.3,0.5,4.8-0.2,6.4-2C636,157.5,634.5,157.2,633,157.7z"/>
							</g>
							<path class="st33" d="M637.4,153.4H626c-0.6,0-1.1,0.5-1.1,1.1c0,0.1,0,0.1,0,0.2c0.1,0.4,0.2,0.8,0.3,1.2h13
								c0.1-0.4,0.2-0.8,0.3-1.2c0.1-0.6-0.3-1.1-0.9-1.2C637.6,153.5,637.5,153.4,637.4,153.4z"/>
						</g>
					</g>
					<path class="st7" d="M608.6,215.6c-0.4,0-0.8-0.2-1.1-0.5l-3.1-3c-0.8-0.7-0.8-1.9-0.1-2.7c0.7-0.8,1.9-0.8,2.7-0.1l0,0l3.1,3
						c0.8,0.7,0.8,1.9,0.1,2.7C609.7,215.5,609.2,215.7,608.6,215.6L608.6,215.6z"/>
					<path class="st7" d="M600.6,220.8c-0.1,0-0.1,0-0.2,0c-2.6-0.3-4.5-2.7-4.1-5.3c5.3-42,23.5-44.1,25.6-44.2l0.4,9.5
						c0.1,0,0.1,0,0.2,0c-0.1,0-12.5,2.1-16.8,35.8C605.5,219.2,603.2,221,600.6,220.8z"/>
					<path class="st3" d="M627.5,181.3l-10.6,10.1c-0.5,0.5-1.3,0.5-1.8,0l-9.6-10.1c-0.5-0.5-0.5-1.3,0-1.8c0,0,0,0,0,0l10.6-10.1
						c3.3-3.1,8.5-3,11.7,0.3l0,0C630.9,172.9,630.8,178.2,627.5,181.3z"/>
					<path class="st7" d="M675.5,134.5c0.1,0,0.1,0,0.2,0.1c2.5,0.9,3.8,3.6,2.9,6.1c0,0,0,0,0,0c-14.5,39.8-32.7,37.8-34.7,37.4
						l1.7-9.4c-0.1,0-0.1,0-0.2,0c0.1,0,12.6,0.7,24.2-31.3C670.5,135,673.1,133.7,675.5,134.5z"/>
					<path class="st3" d="M640.7,167.1l12.6-7.5c0.6-0.4,1.4-0.2,1.7,0.4l7.2,12c0.4,0.6,0.2,1.4-0.4,1.7c0,0,0,0,0,0l-12.6,7.5
						c-3.9,2.3-9,1.1-11.3-2.9c0,0,0,0,0,0l0,0C635.5,174.5,636.8,169.4,640.7,167.1C640.7,167.1,640.7,167.1,640.7,167.1z"/>
					<path class="st7" d="M625.6,167h12.2c2.4,0,4.4,2,4.4,4.4v0c0,2.4-2,4.4-4.4,4.4h-12.2c-2.4,0-4.4-2-4.4-4.4v0
						C621.2,169,623.1,167,625.6,167z"/>
					<path class="st20" d="M641,115.2l-31.4,12.2c0,0.2,0.1,0.4,0.2,0.6c1.8,5.5,10.6,7.6,19.5,4.6c8.9-3,14.7-9.8,12.9-15.4
						C641.9,116.6,641.5,115.9,641,115.2z"/>
					<path class="st20" d="M654.3,131.1l-14.2-11.5c-0.1,0.1-0.2,0.2-0.2,0.2c-2.1,2.4-0.7,7,3.1,10.4s8.6,4.3,10.7,1.9
						C653.9,131.9,654.2,131.5,654.3,131.1z"/>
					<path class="st20" d="M609.4,134.5h3l0,0v17.3c0,0.8-0.7,1.5-1.5,1.5l0,0c-0.8,0-1.5-0.7-1.5-1.5V134.5L609.4,134.5z"/>
					<path class="st20" d="M651,134.5h3.5l0,0v17.1c0,1-0.8,1.8-1.8,1.8l0,0c-1,0-1.8-0.8-1.8-1.8L651,134.5L651,134.5L651,134.5z"
						/>
					<rect x="621.3" y="194.2" class="st35" width="21.3" height="2.9"/>
					<path class="st30" d="M635.6,149.8h-7.2c-0.6,0-1.1-0.5-1.1-1.1c0-0.6,0.5-1.1,1.1-1.1c0,0,0,0,0.1,0h7.2
						c0.6,0,1.1,0.5,1.1,1.1C636.6,149.3,636.2,149.7,635.6,149.8z"/>
				</g>
				<circle class="st3" cx="609.4" cy="147.4" r="1.8"/>
				<circle class="st3" cx="655.1" cy="147.4" r="1.8"/>
			</g>
			<g>
				<g>
					<rect x="690.1" y="210.9" class="st36" width="54.5" height="73.8"/>
					<g>
						<path class="st37" d="M690.1,227.3v-3.1c7.3,0,13.2-5.9,13.2-13.2h3.1C706.5,219.9,699.2,227.2,690.1,227.3z"/>
						<path class="st37" d="M744.4,227.3c-9,0-16.3-7.3-16.3-16.3h3.1c0,7.3,5.9,13.2,13.2,13.2L744.4,227.3z"/>
					</g>
					<rect x="715.8" y="228.9" class="st37" width="3.1" height="55.8"/>
					<rect x="712" y="226.8" class="st37" width="10.6" height="3.1"/>
				</g>
				<g>
					<path class="st38" d="M683.1,284.7h32.7v14.3c0,1.2-1,2.2-2.2,2.2c0,0,0,0,0,0h-30.8v-16.5C682.9,284.7,683,284.7,683.1,284.7z
						"/>
					<path class="st22" d="M668.9,297.2c1.3-4.8,4.7-12.3,13.9-12.5v16.5H672c-1.8,0-3.2-1.4-3.2-3.2
						C668.8,297.8,668.9,297.5,668.9,297.2z"/>
					<path class="st24" d="M715.3,301.9h-46.5c-1.2,0-2.1-1-2.1-2.1l0,0c0-1.2,1-2.1,2.1-2.1h46.5c1.2,0,2.1,1,2.1,2.1l0,0
						C717.4,301,716.5,301.9,715.3,301.9z"/>
					<path class="st26" d="M702,291.5h-10.6c-1,0-1.8-0.8-1.8-1.8l0,0v-4.9l0,0h14.2l0,0v4.9C703.8,290.7,703,291.5,702,291.5
						C702,291.5,702,291.5,702,291.5z"/>
				</g>
				<g>
					<path class="st38" d="M751.5,284.7h-32.7v14.3c0,1.2,1,2.2,2.2,2.2l0,0h30.8v-16.5C751.7,284.7,751.6,284.7,751.5,284.7z"/>
					<path class="st24" d="M719.3,297.7h46.5c1.2,0,2.1,1,2.1,2.1l0,0c0,1.2-1,2.1-2.1,2.1h-46.5c-1.2,0-2.1-1-2.1-2.1l0,0
						C717.2,298.6,718.1,297.7,719.3,297.7z"/>
					<path class="st26" d="M730.8,284.7H745l0,0v4.9c0,1-0.8,1.8-1.8,1.8l0,0h-10.6c-1,0-1.8-0.8-1.8-1.8l0,0V284.7L730.8,284.7z"/>
				</g>
				<path class="st20" d="M766.8,177.7l-24,11.6l0,0l-15.2-31.5c-3.2-6.6-0.4-14.6,6.2-17.8l0,0c6.6-3.2,14.6-0.4,17.8,6.2
					c0,0,0,0,0,0L766.8,177.7L766.8,177.7z"/>
				<path class="st20" d="M699.3,139.9L699.3,139.9c6.6,3.2,9.4,11.2,6.2,17.8l-15.2,31.5l0,0l-24-11.6l0,0l15.2-31.5
					C684.7,139.5,692.7,136.7,699.3,139.9z"/>
				<path class="st20" d="M693.9,138.6h45.7c7.4,0,13.5,6,13.5,13.5c0,0,0,0,0,0v46.8l0,0h-72.7l0,0v-46.8
					C680.4,144.7,686.4,138.6,693.9,138.6z"/>
				<path class="st39" d="M703.8,171.9c0,0-5.6,5.4-7.8,12.4"/>
				<path class="st39" d="M729.3,171.9c0,0,5.6,5.4,7.8,12.4"/>
				<path class="st40" d="M720,161.1c0-1.9-1.5-3.5-3.4-3.6c-1.9,0-3.5,1.5-3.6,3.4c0,0,0,0.1,0,0.1h-2.1c-1.1,0-2,0.9-2,2v2.4H724
					V163c0-1.1-0.9-2-2-2c0,0,0,0,0,0H720z"/>
				<path class="st41" d="M703.8,162.8h25.3c1.1,0,1.9,0.9,1.9,1.9V197c0,1.1-0.9,1.9-1.9,1.9h-25.3c-1.1,0-1.9-0.9-1.9-1.9v-32.3
					C701.9,163.6,702.7,162.8,703.8,162.8z"/>
				<g>
					<path class="st42" d="M674.3,182.4c0,0,8.1,1.8,25.3,1.8"/>
					<path class="st43" d="M694.1,178.4c0,0,7.7,0.9,14.6-1.7"/>
					<path class="st43" d="M695.7,185.5c0,0,7.7,0.9,14.6-1.7"/>
					<path class="st43" d="M693.6,188.2c0,0,7.4,2.5,14.6,1.4"/>
				</g>
				<g>
					<path class="st42" d="M758.8,182.4c0,0-8.1,1.8-25.3,1.8"/>
					<path class="st43" d="M739.1,178.4c0,0-7.7,0.9-14.6-1.7"/>
					<path class="st43" d="M737.5,185.5c0,0-7.7,0.9-14.6-1.7"/>
					<path class="st43" d="M739.5,188.2c0,0-7.4,2.5-14.6,1.4"/>
				</g>
				<path class="st20" d="M766.8,177.7l-24,11.6l0,0l-15.2-31.5c-3.2-6.6-0.4-14.6,6.2-17.8l0,0c6.6-3.2,14.6-0.4,17.8,6.2
					c0,0,0,0,0,0L766.8,177.7L766.8,177.7z"/>
				<path class="st20" d="M699.3,139.9L699.3,139.9c6.6,3.2,9.4,11.2,6.2,17.8l-15.2,31.5l0,0l-24-11.6l0,0l15.2-31.5
					C684.7,139.5,692.7,136.7,699.3,139.9z"/>
				<path class="st20" d="M693.9,138.6h45.7c7.4,0,13.5,6,13.5,13.5c0,0,0,0,0,0v60.6l0,0h-72.7l0,0v-60.6
					C680.4,144.7,686.4,138.6,693.9,138.6z"/>
				<g>
					<path class="st39" d="M695.6,204.6c0,0-7.2-3-14.5-2.3"/>
					<g>
						<path class="st42" d="M674.2,181.7c0,0,1.6,8.1,8.4,23.9"/>
						<path class="st43" d="M685.8,198.3c0,0,2.2,7.5,7.4,12.7"/>
						<path class="st43" d="M679.8,202.6c0,0,2.2,7.5,7.4,12.7"/>
						<path class="st43" d="M676.5,201.8c0,0,0.6,7.8,4.5,14"/>
					</g>
				</g>
				<g>
					<path class="st39" d="M737.5,205.3c0,0,7.2-3,14.5-2.3"/>
					<g>
						<path class="st42" d="M758.9,182.4c0,0-1.6,8.1-8.4,23.9"/>
						<path class="st43" d="M747.4,198.9c0,0-2.2,7.5-7.4,12.7"/>
						<path class="st43" d="M753.3,203.2c0,0-2.2,7.5-7.4,12.7"/>
					</g>
				</g>
				<circle class="st44" cx="716.7" cy="172.3" r="2.5"/>
				<circle class="st44" cx="716.7" cy="182" r="2.5"/>
				<path class="st28" d="M705.4,102.5l21.6,0.2c0.4,0,0.8-0.3,0.8-0.8c0,0,0,0,0,0l0.2-17.3c0-5.3-4.3-9.7-9.6-9.8c0,0,0,0,0,0
					l-3.8,0c-5.3,0-9.7,4.3-9.8,9.6c0,0,0,0,0,0l-0.2,17.3C704.6,102.2,704.9,102.5,705.4,102.5z"/>
				<line class="st45" x1="709.5" y1="97" x2="723.1" y2="97"/>
				<g>
					<circle class="st46" cx="743.5" cy="40.2" r="7.3"/>
					<circle class="st46" cx="734.2" cy="30.9" r="7.3"/>
					<circle class="st46" cx="743" cy="32.3" r="10.1"/>
					<circle class="st28" cx="730.1" cy="40.6" r="8.9"/>
				</g>
				<g>
					<circle class="st46" cx="696.3" cy="28.5" r="7.3"/>
					<circle class="st46" cx="690.4" cy="40.2" r="7.3"/>
					<circle class="st46" cx="690.5" cy="32.7" r="10.1"/>
					<circle class="st28" cx="701" cy="41" r="8.9"/>
				</g>
				<path class="st47" d="M715.7,80.9L715.7,80.9c-2.1,0-3.9-1.8-3.9-3.9c0,0,0,0,0,0l0.1-8l0,0l7.8,0.1l0,0l-0.1,8
					C719.6,79.2,717.9,80.9,715.7,80.9z"/>
				<circle class="st47" cx="732.8" cy="62.1" r="5.6"/>
				<circle class="st47" cx="699" cy="61.3" r="5.6"/>
				<circle class="st48" cx="716.1" cy="59.3" r="18.2"/>
				<path class="st46" d="M727.1,56.6c0.1,0,0.3,0,0.4-0.1c0.6-0.2,1-0.9,0.7-1.6c0,0,0,0,0,0c-0.7-1.9-2.7-2.8-4.6-2.2
					c-0.6,0.2-1,0.9-0.7,1.6c0.2,0.6,0.9,1,1.6,0.7l0,0c0.6-0.2,1.2,0.1,1.4,0.7C726.1,56.2,726.6,56.6,727.1,56.6z"/>
				<path class="st46" d="M704.4,56.4c0.5,0,1-0.3,1.2-0.8c0.2-0.6,0.9-0.9,1.5-0.7c0.6,0.2,1.4-0.1,1.6-0.7
					c0.2-0.6-0.1-1.4-0.7-1.6l0,0c-1.9-0.7-3.9,0.2-4.6,2.1c-0.2,0.6,0.1,1.4,0.7,1.6C704.1,56.3,704.3,56.4,704.4,56.4L704.4,56.4z
					"/>
				<ellipse class="st47" cx="715.8" cy="64.4" rx="5.1" ry="1.9"/>
				<circle class="st46" cx="732.8" cy="44.8" r="5.5"/>
				<ellipse class="st46" cx="713.7" cy="36.9" rx="9.8" ry="9.4"/>
				<circle class="st46" cx="724.6" cy="39.3" r="7.3"/>
				<circle class="st46" cx="729.9" cy="40.8" r="7.3"/>
				<circle class="st46" cx="735.4" cy="52.7" r="5.1"/>
				<circle class="st46" cx="697" cy="52" r="5.7"/>
				<circle class="st46" cx="701.7" cy="41.5" r="7.3"/>
				<g>
					
						<rect x="735.7" y="124.8" transform="matrix(0.7735 -0.6338 0.6338 0.7735 80.9168 500.1429)" class="st48" width="9.1" height="24"/>
					<path class="st28" d="M764,143.4L751,154c-0.8,0.7-2.1,0.6-2.8-0.3c0,0,0,0,0,0l-3.9-4.7l0,0l12.2-10c2.2-1.8,5.4-1.5,7.1,0.7
						l0,0l0.6,0.8C765,141.4,764.8,142.7,764,143.4z"/>
				</g>
				<g>
					
						<rect x="680.4" y="132.3" transform="matrix(0.6338 -0.7735 0.7735 0.6338 147.73 585.7209)" class="st48" width="24" height="9.1"/>
					<g>
						<path class="st28" d="M676.2,139.1l12.2,10l0,0l-3.9,4.7c-0.7,0.8-1.9,1-2.8,0.3l0,0l-13-10.7c-0.8-0.7-1-1.9-0.3-2.8
							c0,0,0,0,0,0l0.6-0.8C670.8,137.6,674,137.3,676.2,139.1L676.2,139.1L676.2,139.1z"/>
						<path class="st48" d="M675.8,144L675.8,144c-1-0.9-1.2-2.4-0.3-3.5v0l1-1.2l0,0l3.8,3.1l0,0l-1,1.2
							C678.4,144.7,676.9,144.9,675.8,144z"/>
					</g>
				</g>
				<path class="st46" d="M733.2,55.7h2.8l0,0v5.5c0,0.8-0.6,1.4-1.4,1.4l0,0l0,0c-0.8,0-1.4-0.6-1.4-1.4v0L733.2,55.7L733.2,55.7
					L733.2,55.7z"/>
				<path class="st46" d="M695.6,55.7h2.8l0,0v5.5c0,0.8-0.6,1.4-1.4,1.4l0,0l0,0c-0.8,0-1.4-0.6-1.4-1.4V55.7L695.6,55.7z"/>
				<g>
					<g>
						<path class="st31" d="M720.7,68.2c0.5,0,1,0.4,1,0.9c0,0.1,0,0.1,0,0.2c-0.6,3.3-3.8,5.5-7.1,4.9c-2.5-0.5-4.4-2.4-4.9-4.9
							c-0.1-0.5,0.3-1,0.8-1.1c0.1,0,0.1,0,0.2,0H720.7z"/>
						<path class="st32" d="M716.8,71.9c-1.2,0.2-2.1,1.1-2.4,2.3c2,0.4,4.2-0.2,5.6-1.7C719.1,71.6,717.9,71.4,716.8,71.9z"/>
					</g>
					<path class="st33" d="M720.9,68.2h-10.5c-0.5,0-1,0.4-1,1c0,0.1,0,0.1,0,0.2c0.1,0.4,0.2,0.7,0.3,1.1h11.9
						c0.1-0.3,0.2-0.7,0.3-1.1c0.1-0.5-0.3-1-0.8-1.1C721,68.2,720.9,68.2,720.9,68.2z"/>
				</g>
				<g>
					<path class="st49" d="M704.7,130.6h23.4l0,0v18.8c0,6.5-5.2,11.7-11.7,11.7l0,0l0,0c-6.5,0-11.7-5.2-11.7-11.7c0,0,0,0,0,0
						L704.7,130.6L704.7,130.6z"/>
					<path class="st20" d="M691.9,126.2v-10.1c0-13.5,11-24.5,24.5-24.5c0,0,0,0,0,0l0,0c13.5,0,24.5,11,24.5,24.5c0,0,0,0,0,0v10.1
						"/>
					<circle class="st49" cx="738.1" cy="128.3" r="6.7"/>
					<circle class="st49" cx="695.4" cy="128.3" r="6.7"/>
					<path class="st7" d="M695.6,113.1h41.5l0,0V146c0,5.1-4.1,9.2-9.2,9.2l0,0h-23.2c-5.1,0-9.2-4.1-9.2-9.2l0,0V113.1L695.6,113.1
						z"/>
					<path class="st30" d="M719.7,136.8h-7.3c-0.6,0-1.1-0.5-1.2-1.1c0-0.6,0.5-1.1,1.1-1.2c0,0,0,0,0.1,0h7.3
						c0.6,0,1.1,0.5,1.1,1.2C720.8,136.3,720.3,136.8,719.7,136.8z"/>
					<circle class="st20" cx="705.9" cy="127.7" r="2.1"/>
					<circle class="st20" cx="726.1" cy="127.7" r="2.1"/>
					<g>
						<path class="st50" d="M708.4,140.5h13.2c1.6,0,3,1.3,3,3c0,0,0,0,0,0v4.1l0,0h-16.1l0,0V140.5L708.4,140.5z"/>
						<path class="st32" d="M723.4,145.6c0-2.2-1.8-4-4-4c-2.2,0-4,1.8-4,4H723.4z"/>
						<path class="st3" d="M713.8,144.3h10.7l0,0v3.3l0,0h-12.8l0,0v-1.2C711.7,145.2,712.7,144.3,713.8,144.3z"/>
					</g>
					<path class="st30" d="M730,127.3h-28c-0.6,0-1.1-0.5-1.2-1.1c0-0.6,0.5-1.1,1.1-1.2c0,0,0,0,0.1,0h28c0.6,0,1.1,0.5,1.1,1.2
						C731.1,126.8,730.6,127.3,730,127.3z"/>
				</g>
				<g>
					<path class="st49" d="M704.7,130.6h23.4l0,0v18.8c0,6.5-5.2,11.7-11.7,11.7l0,0l0,0c-6.5,0-11.7-5.2-11.7-11.7c0,0,0,0,0,0
						L704.7,130.6L704.7,130.6z"/>
					<path class="st26" d="M708,146l-5.9,15.8c-0.4,1.1,0.2,2.4,1.3,2.8c0.4,0.1,0.8,0.2,1.2,0.1l12-2.7L708,146z"/>
					<path class="st26" d="M725.3,146l5.8,15.8c0.4,1.1-0.2,2.4-1.3,2.8c-0.4,0.1-0.8,0.2-1.2,0.1l-12.1-2.7L725.3,146z"/>
					<path class="st20" d="M691.9,126.2v-10.1c0-13.5,11-24.5,24.5-24.5c0,0,0,0,0,0l0,0c13.5,0,24.5,11,24.5,24.5c0,0,0,0,0,0v10.1
						"/>
					<circle class="st49" cx="738.1" cy="128.3" r="6.7"/>
					<circle class="st49" cx="695.4" cy="128.3" r="6.7"/>
					<path class="st7" d="M695.6,113.1h41.5l0,0V146c0,5.1-4.1,9.2-9.2,9.2l0,0h-23.2c-5.1,0-9.2-4.1-9.2-9.2l0,0V113.1L695.6,113.1
						z"/>
					<path class="st30" d="M719.7,131h-7.3c-0.6,0-1.1-0.5-1.2-1.1c0-0.6,0.5-1.1,1.1-1.2c0,0,0,0,0.1,0h7.3c0.6,0,1.1,0.5,1.1,1.2
						C720.8,130.5,720.3,131,719.7,131z"/>
					<circle class="st20" cx="705.9" cy="122.5" r="2.1"/>
					<circle class="st20" cx="726.1" cy="122.5" r="2.1"/>
				</g>
				<g>
					<circle class="st46" cx="708.2" cy="61.3" r="1.8"/>
					<circle class="st46" cx="723.5" cy="61.2" r="1.8"/>
				</g>
				<g>
					<g>
						<path class="st31" d="M723.4,135.7c0.7,0,1.3,0.5,1.3,1.3c0,0.1,0,0.1,0,0.2c-0.8,4.4-5,7.3-9.4,6.5c-3.3-0.6-5.9-3.2-6.5-6.5
							c-0.1-0.7,0.4-1.3,1.1-1.4c0.1,0,0.1,0,0.2,0H723.4z"/>
						<path class="st32" d="M718.1,140.6c-1.8,0.6-3.1,1.8-3.2,3c0.6,0.1,1.1,0.2,1.7,0.2c2.2,0,4.3-0.9,5.8-2.5
							C721.7,140.4,720,140.1,718.1,140.6z"/>
					</g>
					<path class="st33" d="M723.7,135.6h-14.1c-0.7,0-1.3,0.6-1.3,1.3c0,0.1,0,0.1,0,0.2c0.1,0.5,0.2,1,0.4,1.4h15.9
						c0.2-0.5,0.3-0.9,0.4-1.4c0.1-0.7-0.4-1.4-1.1-1.5C723.8,135.6,723.7,135.6,723.7,135.6z"/>
				</g>
				<g>
					<path class="st48" d="M731.5,98.2c1.9,0.2,3.6-1.2,3.8-3.1c0.1-0.9-0.1-1.7-0.6-2.4l-4.2-5.9c-1.1-1.6-3.3-1.9-4.9-0.8
						c-1.6,1.1-1.9,3.3-0.8,4.9c0,0,0,0,0,0.1l4.2,5.9C729.6,97.6,730.5,98.1,731.5,98.2z"/>
					<path class="st28" d="M724,91.8l-5.3-7.1c-1.7-2.3-1.3-5.6,1.1-7.4l0,0c2.3-1.7,5.6-1.3,7.4,1.1l5.3,7.1
						c0.4,0.5,0.3,1.3-0.2,1.7v0l-6.4,4.8C725.1,92.4,724.4,92.3,724,91.8L724,91.8L724,91.8z"/>
					<path class="st48" d="M724,107.9L724,107.9l10.4-10.6c1.4-1.4,1.4-3.6,0-4.9s-3.6-1.4-4.9,0c0,0,0,0-0.1,0.1L719.1,103
						c-1.3,1.4-1.3,3.6,0,4.9C720.5,109.2,722.6,109.2,724,107.9z"/>
					<path class="st48" d="M718.5,99.7L718.5,99.7c0.3-0.7,1.1-1.1,1.8-0.8l2.6,1c0.7,0.3,1.1,1.1,0.8,1.8l0,0
						c-0.3,0.7-1.1,1.1-1.8,0.8l-2.6-1C718.6,101.3,718.3,100.5,718.5,99.7z"/>
				</g>
				<g>
					<path class="st48" d="M700.9,98.3c-1.9,0.2-3.6-1.2-3.9-3.1c-0.1-0.9,0.1-1.7,0.6-2.4l4.2-5.9c1.1-1.6,3.3-2,4.8-0.9
						c1.6,1.1,2,3.3,0.9,4.8c0,0,0,0,0,0l-4.2,5.9C702.8,97.7,701.9,98.2,700.9,98.3z"/>
					<path class="st28" d="M700,85.5l5.3-7.2c1.7-2.3,5-2.8,7.4-1.1l0,0c2.3,1.7,2.8,5,1.1,7.4l-5.3,7.2c-0.4,0.5-1.2,0.7-1.7,0.3v0
						l-6.5-4.8C699.7,86.9,699.5,86.1,700,85.5L700,85.5L700,85.5z"/>
					<path class="st48" d="M708.5,108L708.5,108L698,97.4c-1.4-1.4-1.4-3.6,0-4.9s3.6-1.4,4.9,0l10.4,10.5c1.4,1.4,1.4,3.6,0,4.9
						C712,109.2,709.8,109.3,708.5,108L708.5,108z"/>
					<path class="st48" d="M708.7,101.7L708.7,101.7c-0.3-0.7,0.1-1.5,0.8-1.8l2.6-1c0.7-0.3,1.5,0.1,1.8,0.8l0,0
						c0.3,0.7-0.1,1.5-0.8,1.8l-2.6,1C709.7,102.8,708.9,102.4,708.7,101.7z"/>
				</g>
			</g>
		</g>
		<g>
			<path class="st51" d="M513.4,240.8v19.4c0,4.6,2.9,8.7,7.3,10.2l5.2,1.8l-12.5,6.8l-17.1-11.4v-16.1L513.4,240.8z"/>
			<path class="st51" d="M549.3,352.5c0-4.7,1.4-9.3,4.1-13.2l7.1-10.2v-0.5c0,0-47.6-51.7-47.8-52.5s-0.6-55.3-0.6-55.3l51.6,10.2
				l4.2,15.9c2.1,8.1,10.4,12.9,18.5,10.8l0.7-0.2c2.4-0.6,3.8-3.1,3.2-5.4l-8.6-32.9c-0.9-3.4-3.7-6-7.1-6.7l-62.5-12.4
				c-8-1.6-16,3.3-18.2,11.2l-15.6,55.3c-1.3,4.7-1.2,9.6,0.3,14.2l17.1,53.1c2.2,6.7,3.4,13.6,3.7,20.7l1.1,26h49.1L549.3,352.5z"
				/>
			<g>
				<path class="st3" d="M556.9,153.9c-1,0-1.9,0.7-2,1.7c-1,8-8.2,13.7-16.2,12.7c-6.7-0.8-11.9-6-12.7-12.7c-0.1-1-1-1.8-2-1.7
					h-11.6c-1.1,0-2,0.9-2,2v106.1c0,1.1,0.9,2,2,2H524c1,0,1.9-0.7,2-1.7c1-8,8.2-13.7,16.2-12.7c6.7,0.8,11.9,6,12.7,12.7
					c0.1,1,1,1.8,2,1.7h11.6c1.1,0,2-0.9,2-2c0,0,0,0,0,0V155.9c0-1.1-0.9-2-2-2c0,0,0,0,0,0L556.9,153.9z"/>
				<g>
					<line class="st52" x1="510.3" y1="191.6" x2="515" y2="191.6"/>
					<line class="st53" x1="525.2" y1="191.6" x2="560.8" y2="191.6"/>
					<line class="st52" x1="565.9" y1="191.6" x2="570.6" y2="191.6"/>
				</g>
			</g>
			<path class="st54" d="M542.1,209.3l3.5,7l7.8,1.1c1,0.1,1.7,1.1,1.6,2.1c-0.1,0.4-0.3,0.8-0.5,1.1l-5.6,5.5l1.3,7.7
				c0.2,1-0.5,2-1.5,2.2c-0.4,0.1-0.8,0-1.2-0.2l-6.9-3.7l-6.9,3.7c-0.9,0.5-2.1,0.1-2.5-0.8c-0.2-0.4-0.3-0.8-0.2-1.2l1.3-7.7
				l-5.6-5.5c-0.7-0.7-0.8-1.9,0-2.7c0.3-0.3,0.7-0.5,1.1-0.5l7.8-1.1l3.5-7c0.5-0.9,1.6-1.3,2.5-0.9
				C541.7,208.6,542,208.9,542.1,209.3z"/>
			<path class="st51" d="M560.9,226.7c-11.3,0-20.4,9.1-20.5,20.4c0,0,0,0,0,0v25.7c0,1.6-1.3,2.9-2.9,2.9c-0.3,0-0.6,0-0.9-0.1
				l-28.4-9.1v87h32.2v26.9h8.8v-28c0-4.7,1.4-9.3,4.1-13.2l8.3-11.9c3.2-4.6,4.9-10.1,4.9-15.7v-79.3
				C566.6,229.3,564,226.7,560.9,226.7z"/>
		</g>
	</g>
</g>
<g>
	<defs>
		<path id="SVGID_7_" d="M724.1,364.2L403.9,315c-8.2-1.3-16.4,2.1-21.3,8.7L229,529.3c-7.4,9.9-5.4,23.9,4.5,31.3
			c3.9,2.9,8.6,4.4,13.4,4.4h473.8c12.3,0,22.3-10,22.3-22.3c0,0,0,0,0,0V386.3C743.1,375.3,735,365.9,724.1,364.2z"/>
	</defs>
	<clipPath id="SVGID_8_">
		<use xlink:href="#SVGID_7_"  style="overflow:visible;"/>
	</clipPath>
	<g class="st55">
		<g>
			<g>
				<g>
					<polygon class="st56" points="411.5,336.8 411.5,322.8 365.2,322.8 365.2,340.1 385.5,340.1 364.6,366.6 364.6,381.1 
						411.5,381.1 411.5,363.8 390.2,363.8 					"/>
					<path class="st56" d="M461.9,328.3c-4.6-4.6-11-7-19.3-7c-8.2,0-14.7,2.4-19.3,7c-5.9,5.4-8.9,13.3-8.9,23.6
						c0,10.1,3,18,8.8,23.6c4.6,4.7,11.1,7,19.3,7c8.2,0,14.7-2.4,19.3-7c5.8-5.6,8.8-13.5,8.8-23.6
						C470.7,341.6,467.7,333.6,461.9,328.3z M449.1,362.2c-1.5,2-4,3.1-6.5,3c-2.5,0.1-5-1-6.6-3c-1.8-2.2-2.7-5.7-2.7-10.3
						s0.9-8.1,2.7-10.3c1.6-2,4-3.1,6.6-3c2.5-0.1,4.9,1,6.5,3c1.8,2.3,2.7,5.7,2.7,10.3C451.8,356.4,450.9,359.9,449.1,362.2
						L449.1,362.2z"/>
					<path class="st56" d="M521.6,329.1c-4.6-4.6-11-7-19.3-7c-8.2,0-14.7,2.4-19.3,7c-5.9,5.4-8.9,13.3-8.9,23.6
						c0,10.1,3,18,8.8,23.6c4.6,4.7,11.1,7,19.3,7c8.2,0,14.7-2.4,19.3-7c5.8-5.6,8.8-13.5,8.8-23.6
						C530.4,342.4,527.5,334.5,521.6,329.1z M508.8,363c-1.5,2-4,3.1-6.5,3c-2.5,0.1-5-1-6.6-3c-1.8-2.3-2.7-5.7-2.7-10.3
						s0.9-8.1,2.7-10.3c1.6-2,4-3.1,6.6-3c2.5-0.1,4.9,1,6.5,3c1.8,2.3,2.7,5.7,2.7,10.3C511.5,357.3,510.6,360.8,508.8,363z"/>
				</g>
				<g>
					<g>
						<path class="st57" d="M396.6,521.5c-3.9,0-7.7-1-11.1-3l-9.3-5.3c-1.4-0.8-2-2.5-1.3-3.9c0.7-1.5,2.5-2.1,4-1.4
							c0.1,0,0.1,0.1,0.2,0.1l9.4,5.4c7,4,15.9,2.3,21-4c0.9-1.2,2.5-1.5,3.8-0.7l0,0c1.4,0.8,1.9,2.6,1.1,4.1
							c-0.1,0.1-0.2,0.3-0.2,0.4c-3,3.7-7,6.4-11.6,7.6C400.6,521.3,398.6,521.5,396.6,521.5z"/>
						<path class="st58" d="M410.1,504.2l6.7-3.5c0.6-0.3,1.3-0.1,1.6,0.5c0.1,0.2,0.1,0.4,0.1,0.6l-0.3,7.6
							c-0.1,3.1-2.7,5.4-5.8,5.3c-1,0-1.9-0.3-2.7-0.9l0,0c-2.6-1.6-3.3-5.1-1.7-7.7C408.5,505.3,409.2,504.6,410.1,504.2z"/>
					</g>
					<g>
						<path class="st59" d="M340.6,477.4l-2.4,45.8c-0.2,1.2,0.7,2.3,1.9,2.5c0.1,0,0.2,0,0.3,0h45.9c1.2,0,2.2-1,2.2-2.2
							c0-0.1,0-0.2,0-0.3l-2.4-45.8H340.6z"/>
						<path class="st60" d="M352.6,477.4l-1.1,45.8c-0.1,1.3,0.4,2.5,1,2.5h21.7c0.6,0,1.1-1.2,1-2.5l-1.1-45.8H352.6z"/>
					</g>
					<g>
						<path class="st61" d="M369.6,525.8c-1.3,0-2.4-1.1-2.4-2.4c0-0.5,0.2-1,0.5-1.4c2.5-3,6.2-4.7,10.1-4.8c4,0,5.8,2.3,6.4,5.8
							c0.2,1.3-0.7,2.6-2,2.8c-0.1,0-0.3,0-0.4,0L369.6,525.8z"/>
						<path class="st61" d="M354.7,525.8c1.3,0,2.4-1.1,2.4-2.4c0-0.5-0.2-1-0.5-1.4c-2.5-3-6.2-4.7-10.1-4.8c-4,0-5.8,2.3-6.4,5.8
							c-0.2,1.3,0.7,2.6,2,2.8c0.1,0,0.3,0,0.4,0L354.7,525.8z"/>
					</g>
					<g>
						<path class="st58" d="M399.9,432.7c-10.2-11.2-24.7-14.5-36.6-9.6c-11.8-5-26.3-1.7-36.6,9.6c-13.5,14.9-14.4,38.1-1.9,51.8
							c8.3,9.1,24.5,16.4,38.5,15.9c14,0.5,30.2-6.8,38.5-15.9C414.3,470.7,413.4,447.5,399.9,432.7z"/>
						<g>
							<line class="st62" x1="336.9" y1="471" x2="328.2" y2="473.9"/>
							<line class="st62" x1="339.7" y1="476.1" x2="333.3" y2="480.3"/>
							<line class="st62" x1="335.4" y1="464.9" x2="328.7" y2="465.7"/>
						</g>
						<g>
							<line class="st62" x1="388.2" y1="471" x2="397" y2="473.9"/>
							<line class="st62" x1="385.4" y1="476.1" x2="391.9" y2="480.3"/>
							<line class="st62" x1="389.8" y1="464.9" x2="396.4" y2="465.7"/>
						</g>
						<g>
							<g>
								<path class="st59" d="M393.8,455.7c-4.4,3.7-10,2.3-13.7-2.2c-3.7-4.4-4.1-10.2,0.3-13.9s12.6-4.4,16.3,0
									S398.2,451.9,393.8,455.7z"/>
								<path class="st63" d="M382.3,447.4c0,0,3.9-6.4,11.2-3.6"/>
							</g>
							<g>
								<path class="st59" d="M333,455.7c4.4,3.7,10,2.3,13.7-2.2c3.7-4.4,4.1-10.2-0.3-13.9c-4.4-3.7-12.6-4.4-16.3,0
									S328.5,451.9,333,455.7z"/>
								<path class="st63" d="M344.5,447.4c0,0-3.9-6.4-11.2-3.6"/>
							</g>
						</g>
						<path class="st59" d="M391.1,461.9c0-15.3-12.4-24.5-27.8-24.5c-15.3,0-27.8,9.2-27.8,24.5c0,15.3,12.4,30.9,27.8,30.9
							C378.7,492.8,391.1,477.2,391.1,461.9z"/>
						<circle class="st64" cx="349" cy="460.3" r="2.6"/>
						<circle class="st64" cx="378.2" cy="460.3" r="2.6"/>
						<g>
							<g>
								<circle class="st65" cx="347.7" cy="476.7" r="0.7"/>
								<circle class="st65" cx="349.4" cy="479.7" r="0.7"/>
							</g>
							<circle class="st65" cx="350.8" cy="476.9" r="0.7"/>
						</g>
						<g>
							<g>
								<circle class="st65" cx="379.8" cy="476.7" r="0.7"/>
								<circle class="st65" cx="378" cy="479.7" r="0.7"/>
							</g>
							<circle class="st65" cx="376.7" cy="476.9" r="0.7"/>
						</g>
						<path class="st66" d="M363.3,438.4c-7.6,0-14.4,2.2-19.4,6.3l4.3,3.4c6.1,4.9,9.7,12.3,9.7,20.1v5.5h10.9v-5.5
							c0-7.8,3.6-15.3,9.7-20.1l4.2-3.4C377.8,440.7,370.9,438.4,363.3,438.4z"/>
						<line class="st67" x1="363.4" y1="476.6" x2="363.5" y2="480.9"/>
						<path class="st58" d="M379.1,434.9l-3.2,2.8c-7.2,6.3-18,6.3-25.2,0l-3.2-2.8"/>
						<g>
							<path class="st68" d="M363.3,478.8c0,3.7-3,6.7-6.7,6.7c-1.8,0-3.5-0.7-4.7-2"/>
							<path class="st68" d="M363.5,478.8c0,3.7,3,6.7,6.7,6.7c1.8,0,3.5-0.7,4.7-2"/>
						</g>
						<line class="st68" x1="344.1" y1="455.1" x2="351.8" y2="453.3"/>
						<line class="st68" x1="383" y1="455.1" x2="375.3" y2="453.3"/>
						<path class="st69" d="M366.8,472.7H360c-1.1,0-2,0.9-2,2l0,0c0,1.1,0.9,2,2,2c0,0,0,0,0,0h1.6l1.3,1.5
							c0.2,0.3,0.7,0.3,0.9,0.1c0,0,0,0,0.1-0.1l1.3-1.5h1.6c1.1,0,2-0.9,2-2l0,0C368.9,473.7,367.9,472.7,366.8,472.7z"/>
					</g>
				</g>
				<g>
					<g>
						<path class="st56" d="M493.1,481.2l-4.5,30.2c-1,6.6,3.6,12.8,10.2,13.8c0.6,0.1,1.2,0.1,1.8,0.1h39.6
							c6.7,0,12.2-5.4,12.2-12.2c0-0.6,0-1.2-0.1-1.8l-4.5-30.2L493.1,481.2z"/>
						<polygon class="st70" points="503.3,481.9 500.3,525.4 540.5,525.4 537.1,481.5 						"/>
						<path class="st71" d="M521.8,517.9c-1.4,0-2.5-1.1-2.6-2.5s1.1-2.5,2.5-2.6c0,0,0.1,0,0.1,0"/>
						<path class="st72" d="M515.2,502.8c-5.7,4.1-13.6,2.9-17.8-2.8c0,0,0,0,0,0"/>
						<path class="st72" d="M525.3,502.8c5.7,4.1,13.6,2.9,17.8-2.8c0,0,0,0,0,0"/>
					</g>
					<path class="st73" d="M548.2,511.9L548.2,511.9c-2.9,3-7.6,3.1-10.8,0.4l-0.9-0.8c-1.1-0.9-1.3-2.5-0.6-3.7l1.4-2.5
						c0.3-0.5,0.1-1.1-0.4-1.4c0,0-0.1,0-0.1,0l-1.4-0.6c-1.5-0.5-2.4-2.1-2-3.7l0,0c0.4-1.4,1.8-2.2,3.2-2l6.3,1.1l8.7,9.2
						L548.2,511.9z"/>
					<path class="st73" d="M492.3,511.9L492.3,511.9c2.9,3,7.6,3.1,10.8,0.4l0.9-0.8c1.1-0.9,1.3-2.5,0.6-3.7l-1.4-2.5
						c-0.3-0.5-0.1-1.1,0.4-1.4c0,0,0.1,0,0.1,0l1.4-0.6c1.5-0.5,2.4-2.1,2-3.7l0,0c-0.4-1.4-1.8-2.2-3.2-2l-6.3,1.1l-8.7,9.2
						L492.3,511.9z"/>
					<path class="st74" d="M486.5,481l-4.4,6.9c-4.2,6.6-2.6,15.3,3.6,19.9l3.5,2.7c3.4,2.5,8.2,1.9,10.8-1.4l0,0
						c2.6-3.4,2.1-8.3-1.3-10.9c-0.2-0.1-0.4-0.3-0.6-0.4l-2.9-1.9c-0.6-0.4-0.7-1.1-0.4-1.7c0,0,0,0,0,0l3.6-5.1
						c2.3-3.3,1.6-7.8-1.7-10.1c-0.1-0.1-0.2-0.1-0.3-0.2l0,0C493.1,476.6,488.6,477.6,486.5,481z"/>
					<path class="st74" d="M553.5,481l4.4,6.9c4.2,6.6,2.6,15.3-3.6,19.9l-3.5,2.7c-3.4,2.5-8.2,1.9-10.8-1.4l0,0
						c-2.6-3.4-2.1-8.3,1.3-10.9c0.2-0.1,0.4-0.3,0.6-0.4l2.9-1.9c0.6-0.4,0.7-1.1,0.4-1.7c0,0,0,0,0,0l-3.6-5.1
						c-2.3-3.3-1.6-7.8,1.7-10.1c0.1-0.1,0.2-0.1,0.3-0.2l0,0C546.9,476.6,551.3,477.6,553.5,481z"/>
					<g>
						<circle class="st70" cx="486.5" cy="465.3" r="7.5"/>
						<circle class="st70" cx="554" cy="465.3" r="7.5"/>
						<path class="st75" d="M533.5,422.2l0.4-5.8c0-0.6-0.4-1.2-1.1-1.2c-0.1,0-0.3,0-0.4,0l-7.5,2c-0.2-0.6-0.6-1.5-1.1-2.9
							c-0.2-0.6-0.9-0.9-1.5-0.7c-15.3,5.5-20.2,11.5-20.2,11.5l0,0c-10.9,8.1-18.2,22.7-18.3,36.1c0.1,20,16.3,36.1,36.2,36
							c19.8-0.1,35.9-16.1,36-35.9C556.2,446,546.8,429.3,533.5,422.2z"/>
						<path class="st70" d="M537.9,464.3c1.9-2.4,2.9-5.4,2.8-8.4c-0.1-6.8-5.1-12.3-11.1-12.3c-1.1,0-2.3,0.2-3.3,0.6
							c-3.9,1.4-8.1,1.4-12,0c-1.1-0.4-2.2-0.6-3.3-0.6c-6-0.1-11.1,5.4-11.1,12.2c-0.1,3.1,0.9,6,2.8,8.4c1.2,1.5,0.9,3.6-0.5,4.8
							c-3,2.4-4.8,5.4-4.8,8.7c0,7.8,10.2,14.2,22.9,14.2c12.7,0,23-6.3,23-14.2c0-3.3-1.8-6.3-4.8-8.7
							C537,467.9,536.8,465.8,537.9,464.3z"/>
						<circle class="st64" cx="511.7" cy="459.3" r="3.1"/>
						<circle class="st64" cx="529.6" cy="459.3" r="3.1"/>
						<path class="st72" d="M512.5,471.8c-0.7-0.5-1.1-1.3-1.2-2.1c0-2.4,4.3-4.4,9.6-4.4s9.5,2,9.5,4.4c-0.1,1-0.7,1.9-1.6,2.4"/>
						<line class="st72" x1="541.3" y1="453.6" x2="532" y2="451.5"/>
						<line class="st72" x1="500.7" y1="453.6" x2="509.9" y2="451.5"/>
						<g>
							<path class="st64" d="M515.2,476.5h19.4l0,0v4.6c0,4.6-3.7,8.4-8.4,8.4l0,0h-8.4c-1.5,0-2.7-1.2-2.7-2.7c0,0,0,0,0,0
								L515.2,476.5L515.2,476.5z"/>
							<path class="st33" d="M515.9,476.4H534c0.6,0,1,0.5,1,1v1.8c0,1.2-1,2.2-2.2,2.2H517c-1.2,0-2.2-1-2.2-2.2v-1.8
								C514.9,476.9,515.3,476.4,515.9,476.4C515.9,476.4,515.9,476.4,515.9,476.4z"/>
							<path class="st32" d="M533.6,485.3c-2.1-2.2-5.6-2.2-7.7-0.1c-1.1,1-1.7,2.5-1.7,3.9c0,0.1,0,0.3,0,0.4h2.1
								C529.3,489.5,532.1,487.9,533.6,485.3z"/>
						</g>
					</g>
					<path class="st76" d="M510.8,527.6c1.6,0,2.9-1.3,2.9-2.9c0-0.6-0.2-1.2-0.6-1.7c-2.6-3.5-7.8-5.8-12.1-5.8c-4.8,0-7,2.8-7.7,7
						c-0.3,1.6,0.8,3.1,2.4,3.3c0.2,0,0.3,0,0.5,0L510.8,527.6z"/>
					<path class="st76" d="M529.7,527.6c-1.6,0-2.9-1.3-2.9-2.9c0-0.6,0.2-1.2,0.6-1.7c2.6-3.5,7.8-5.8,12.1-5.8c4.8,0,7,2.8,7.7,7
						c0.3,1.6-0.8,3.1-2.4,3.3c-0.2,0-0.3,0-0.5,0L529.7,527.6z"/>
				</g>
				<rect x="446.7" y="395.7" class="st77" width="149.6" height="122.1"/>
				<g class="st78">
					<line class="st79" x1="564.7" y1="420" x2="534.1" y2="450.7"/>
					<line class="st79" x1="572.7" y1="428.7" x2="553.6" y2="447.9"/>
				</g>
				<rect x="288.2" y="395.7" class="st77" width="149.6" height="122.1"/>
				<g>
					<rect x="428.5" y="385.9" class="st56" width="28.6" height="139.8"/>
					<rect x="269.5" y="385.9" class="st56" width="28.6" height="139.8"/>
					<rect x="587.5" y="385.9" class="st56" width="28.6" height="139.8"/>
				</g>
				<g>
					<path class="st36" d="M264.6,378H621c4.9,0,8.9,4,8.9,8.9v0c0,4.9-4,8.9-8.9,8.9H264.6c-4.9,0-8.9-4-8.9-8.9v0
						C255.8,382,259.7,378,264.6,378z"/>
					<path class="st36" d="M264.6,517.8H621c4.9,0,8.9,4,8.9,8.9v0c0,4.9-4,8.9-8.9,8.9H264.6c-4.9,0-8.9-4-8.9-8.9v0
						C255.8,521.8,259.7,517.8,264.6,517.8z"/>
				</g>
				<g class="st78">
					<line class="st79" x1="406.2" y1="420" x2="375.6" y2="450.7"/>
					<line class="st79" x1="414.2" y1="428.7" x2="395.1" y2="447.9"/>
				</g>
			</g>
			<g>
				<path class="st80" d="M553.8,485.9h25.1l0,0v7.1l0,0h-29.8l0,0v-2.5C549.2,488,551.3,485.9,553.8,485.9L553.8,485.9z"/>
				<path class="st54" d="M593.1,431.2h201.2c6.9,0,12.6,5.6,12.6,12.6v93c0,6.9-5.6,12.6-12.6,12.6H593.1
					c-6.9,0-12.6-5.6-12.6-12.6v-93C580.5,436.8,586.1,431.2,593.1,431.2z"/>
				<path class="st54" d="M548.3,490.2h258.6l0,0v59.1l0,0H536.4l0,0v-47.2C536.4,495.6,541.7,490.2,548.3,490.2z"/>
				<path class="st54" d="M569.7,431.2h225.5c6.4,0,11.7,5.2,11.7,11.7v0c0,6.4-5.2,11.7-11.7,11.7H569.7c-6.4,0-11.7-5.2-11.7-11.7
					v0C558,436.4,563.3,431.2,569.7,431.2z"/>
				<path class="st81" d="M526.2,531h290c3.1,0,5.6,2.5,5.6,5.6V552c0,3.1-2.5,5.6-5.6,5.6h-290c-3.1,0-5.6-2.5-5.6-5.6v-15.3
					C520.6,533.6,523.1,531,526.2,531z"/>
				<path class="st82" d="M632.5,454.5h23.8c2.8,0,5.1,2.3,5.1,5.1v25.5c0,2.8-2.3,5.1-5.1,5.1h-23.8c-2.8,0-5.1-2.3-5.1-5.1v-25.5
					C627.3,456.8,629.6,454.5,632.5,454.5z"/>
				<path class="st82" d="M680.9,454.5h23.8c2.8,0,5.1,2.3,5.1,5.1v25.5c0,2.8-2.3,5.1-5.1,5.1h-23.8c-2.8,0-5.1-2.3-5.1-5.1v-25.5
					C675.8,456.8,678.1,454.5,680.9,454.5z"/>
				<path class="st82" d="M729.4,454.5h23.8c2.8,0,5.1,2.3,5.1,5.1v25.5c0,2.8-2.3,5.1-5.1,5.1h-23.8c-2.8,0-5.1-2.3-5.1-5.1v-25.5
					C724.3,456.8,726.6,454.5,729.4,454.5z"/>
				<g>
					<circle class="st81" cx="593" cy="549.3" r="28.3"/>
					<circle class="st83" cx="593" cy="549.3" r="12.5"/>
				</g>
				<circle class="st81" cx="762.8" cy="549.3" r="28.3"/>
				<rect x="623.8" y="469.9" class="st54" width="42.4" height="5"/>
				<rect x="670.4" y="470.3" class="st54" width="42.4" height="5"/>
				<rect x="549.7" y="512.7" class="st81" width="257.2" height="5"/>
				<rect x="549.7" y="503.6" class="st81" width="257.2" height="5"/>
				<rect x="719.5" y="470.3" class="st54" width="42.4" height="5"/>
				<path class="st84" d="M534.6,506.9h15.3c2.2,0,4,1.8,4,4V531l0,0h-21.4l0,0v-22C532.5,507.8,533.4,506.9,534.6,506.9z"/>
				<path class="st3" d="M544.1,500.6h17.1c1.9,0,3.5,1.6,3.5,3.5v12.8c0,1.9-1.6,3.5-3.5,3.5h-17.1c-1.9,0-3.5-1.6-3.5-3.5v-12.8
					C540.7,502.2,542.2,500.6,544.1,500.6z"/>
				<rect x="607.2" y="469.3" class="st80" width="177.2" height="6"/>
				<path class="st85" d="M646.2,434.7H782c1.6,0,3,1.3,3,3l0,0c0,1.6-1.3,3-3,3H646.2c-1.6,0-3-1.3-3-3l0,0
					C643.2,436.1,644.6,434.7,646.2,434.7z"/>
				<path class="st85" d="M605.7,434.7h25c1.6,0,3,1.3,3,3l0,0c0,1.6-1.3,3-3,3h-25c-1.6,0-3-1.3-3-3l0,0
					C602.7,436.1,604.1,434.7,605.7,434.7z"/>
				<path class="st86" d="M532.5,512.1h2.4c1.3,0,2.4,1.1,2.4,2.4v0c0,1.3-1.1,2.4-2.4,2.4h-2.4c-1.3,0-2.4-1.1-2.4-2.4v0
					C530.1,513.2,531.2,512.1,532.5,512.1z"/>
				<path class="st86" d="M532.5,520.5h4.8c1.3,0,2.4,1.1,2.4,2.4v0c0,1.3-1.1,2.4-2.4,2.4h-4.8c-1.3,0-2.4-1.1-2.4-2.4v0
					C530.1,521.5,531.2,520.5,532.5,520.5z"/>
				<g>
					<path class="st87" d="M615.8,549.3c0-1.3-0.1-2.6-0.3-3.9c-0.3-1.6-0.7-3.2-1.4-4.8"/>
					<path class="st87" d="M608.7,532.7c-4.2-4-9.9-6.3-15.7-6.3"/>
				</g>
				<circle class="st3" cx="593" cy="549.3" r="5.4"/>
				<path class="st82" d="M578.8,454.5h30c2.3,0,4.2,1.9,4.2,4.2l0,0v27.4c0,2.3-1.9,4.2-4.2,4.2l0,0h-30l0,0V454.5L578.8,454.5z"/>
			</g>
		</g>
	</g>
</g>
</svg>
