<?xml version="1.0" encoding="utf-8"?>
<!-- Generator: Adobe Illustrator 23.0.1, SVG Export Plug-In . SVG Version: 6.00 Build 0)  -->
<svg version="1.1" id="Layer_1" xmlns="http://www.w3.org/2000/svg" xmlns:xlink="http://www.w3.org/1999/xlink" x="0px" y="0px"
	 viewBox="0 0 745 572" style="enable-background:new 0 0 745 572;" xml:space="preserve">
<style type="text/css">
	.st0{clip-path:url(#SVGID_2_);}
	.st1{fill:#7CC94F;}
	.st2{opacity:0.2;fill:#383838;enable-background:new    ;}
	.st3{fill:#383838;}
	.st4{fill:#64BDFF;}
	.st5{fill:#D5DBDE;}
	.st6{opacity:0.15;enable-background:new    ;}
	.st7{fill:none;stroke:#515151;stroke-width:23.0562;stroke-linecap:round;stroke-miterlimit:10;}
	.st8{fill:#EA5334;}
	.st9{fill:#EDF6FD;}
	.st10{fill:#DFE8EF;}
	.st11{fill:#FFFFFF;}
	.st12{fill:#EFEFEF;}
	.st13{fill:#75D85D;}
	.st14{fill:#FFC1B0;}
	.st15{fill:#8C423B;}
	.st16{fill:#A3514D;}
	.st17{fill:none;stroke:#FFC1B0;stroke-width:7.4678;stroke-linecap:round;stroke-miterlimit:10;}
	.st18{opacity:0.2;enable-background:new    ;}
	.st19{fill:#816056;}
	.st20{fill:#A0776D;}
	.st21{fill:#292B2D;}
	.st22{fill:#398AFF;}
	.st23{fill:#FFD664;}
	.st24{clip-path:url(#SVGID_4_);}
	.st25{clip-path:url(#SVGID_6_);}
	.st26{fill:url(#SVGID_7_);}
	.st27{fill:#1E1E1E;}
	.st28{fill:none;stroke:#1E1E1E;stroke-width:5.7148;stroke-linecap:round;stroke-miterlimit:10;}
	.st29{fill:url(#SVGID_8_);}
	.st30{fill:#75D353;}
	.st31{fill:#EAEAEA;}
	.st32{fill:#D8D8D8;}
	.st33{fill:#F2F2F2;}
	.st34{fill:none;stroke:#D8BF8B;stroke-width:14.1579;stroke-miterlimit:10;}
	.st35{fill:#AA5D52;}
	.st36{fill:#333333;}
	.st37{fill:#FFE9E9;}
	.st38{fill:#B280CE;}
	.st39{fill:#C1C1C1;}
	.st40{fill:#9E5447;}
	.st41{fill:#303030;}
	.st42{fill:none;}
	.st43{fill:#683631;}
	.st44{fill:#41352E;}
	.st45{fill:#F76C66;}
	.st46{fill:#E6E7E8;}
	.st47{fill:#B7B7B7;}
	.st48{fill:none;stroke:#4194E0;stroke-width:8.8843;stroke-miterlimit:10;}
	.st49{fill:#9E69B7;}
	.st50{fill:#8C463F;}
	.st51{fill:#1A1A1A;}
	.st52{fill:#7C489B;}
	.st53{fill:#F42F2F;}
	.st54{fill:#D31818;}
	.st55{fill:#E8E8E8;}
	.st56{fill:#FCC846;}
	.st57{fill:none;stroke:#B7B7B7;stroke-width:4.1005;stroke-linecap:round;stroke-miterlimit:10;}
	.st58{fill:#F9974E;}
	.st59{fill:#F49684;}
	.st60{fill:#FFAF9C;}
	.st61{fill:#4194E0;}
	.st62{fill:#FC9A86;}
	.st63{fill:#DD816F;}
	.st64{fill:#603813;}
	.st65{fill:#939393;}
	.st66{fill:#BCDD6B;}
	.st67{fill:#1E78BA;}
	.st68{fill:none;stroke:#EAAFA9;stroke-width:14.0883;stroke-linecap:round;stroke-miterlimit:10;}
	.st69{fill:#EAAFA9;}
	.st70{fill:none;stroke:#EAAFA9;stroke-width:7.0442;stroke-linecap:round;stroke-miterlimit:10;}
	.st71{fill:#7F2626;}
	.st72{fill:#DD8783;}
	.st73{fill:none;stroke:#FCCAC8;stroke-width:7.0442;stroke-linecap:round;stroke-miterlimit:10;}
	.st74{fill:#4DC12D;}
	.st75{clip-path:url(#SVGID_10_);}
	.st76{fill:#49557A;}
	.st77{fill:#F9A819;}
	.st78{fill:#494949;}
	.st79{opacity:0.5;fill:url(#SVGID_11_);enable-background:new    ;}
	.st80{fill:#FFD066;}
	.st81{fill:#FFF9F0;}
	.st82{fill:#FFDC78;}
	.st83{fill:#4D545E;}
	.st84{opacity:0.5;fill:url(#SVGID_12_);enable-background:new    ;}
	.st85{opacity:0.5;fill:url(#SVGID_13_);enable-background:new    ;}
	.st86{opacity:0.5;fill:url(#SVGID_14_);enable-background:new    ;}
	.st87{fill:#FF6161;}
	.st88{fill:#D31E1E;}
	.st89{fill:none;stroke:#303030;stroke-width:1.5107;stroke-linecap:round;stroke-miterlimit:10;}
	.st90{fill:#BABABA;}
	.st91{fill:#115FEA;}
	.st92{fill:#FC8738;}
	.st93{fill:none;stroke:#FFFFFF;stroke-width:5.0522;stroke-miterlimit:10;}
	.st94{clip-path:url(#SVGID_16_);}
	.st95{fill:#3EA3DB;}
	.st96{fill:#FFC338;}
	.st97{fill:#D8BF8B;}
	.st98{fill:#B59661;}
	.st99{fill:#606060;}
	.st100{fill:none;stroke:#EAAFA9;stroke-width:20.0651;stroke-linecap:round;stroke-miterlimit:10;}
	.st101{fill:none;stroke:#EAAFA9;stroke-width:10.0325;stroke-linecap:round;stroke-miterlimit:10;}
	.st102{fill:#A3A3A3;}
	.st103{fill:none;stroke:#E5E5E5;stroke-width:1.9041;stroke-linecap:round;stroke-miterlimit:10;}
	.st104{fill:#3D3D3D;}
	.st105{fill:none;stroke:#FCCAC8;stroke-width:10.0325;stroke-linecap:round;stroke-miterlimit:10;}
</style>
<title>services</title>
<g>
	<g>
		<g>
			<defs>
				<path id="SVGID_1_" d="M742.9,153.4V23.1c0-12-9.7-21.7-21.7-21.7c0,0,0,0,0,0H142.3c-19,0-28.8,22.6-15.8,36.5l210.8,225.2
					c5.4,5.8,13.6,8.2,21.3,6.2l368.1-94.9C736.2,171.9,742.9,163.3,742.9,153.4z"/>
			</defs>
			<clipPath id="SVGID_2_">
				<use xlink:href="#SVGID_1_"  style="overflow:visible;"/>
			</clipPath>
			<g class="st0">
				<polygon class="st1" points="62.6,-28.5 788.4,-28.5 784,351.5 62.6,351.5 				"/>
				<path class="st2" d="M288.4-10.7h314.4c6.2,0,11.3,5.1,11.3,11.3v137c0,6.2-5.1,11.3-11.3,11.3H288.4c-6.2,0-11.3-5.1-11.3-11.3
					V0.6C277.1-5.7,282.1-10.7,288.4-10.7z"/>
				<path class="st2" d="M336.8,115.3H516l0,0v99.8c0,21.7-17.6,39.2-39.2,39.2c0,0,0,0,0,0H376c-21.7,0-39.2-17.6-39.2-39.2l0,0
					V115.3L336.8,115.3z"/>
				<path class="st3" d="M370.4,118.1h179.2l0,0v99.8c0,21.7-17.6,39.2-39.2,39.2c0,0,0,0,0,0H409.6c-21.7,0-39.2-17.6-39.2-39.2
					l0,0V118.1L370.4,118.1z"/>
				<path class="st4" d="M457.9,175.8l-35,6.4l0,0l-11.5-63c-1.8-9.7,4.6-18.9,14.3-20.7l0,0c9.7-1.8,18.9,4.6,20.7,14.3
					L457.9,175.8L457.9,175.8z"/>
				<path class="st4" d="M491.9,98.6L491.9,98.6c9.7,1.8,16.1,11,14.3,20.7l-11.5,63l0,0l-35-6.4l0,0l11.5-63
					C472.9,103.2,482.2,96.8,491.9,98.6z"/>
				<path class="st5" d="M304.2-20.3h314.4c6.2,0,11.3,5.1,11.3,11.3v152.2c0,6.2-5.1,11.3-11.3,11.3H304.2
					c-6.2,0-11.3-5.1-11.3-11.3V-9C292.9-15.2,298-20.3,304.2-20.3z"/>
				<path class="st6" d="M392.7,86.4h115c3.6,0,6.4,2.9,6.4,6.4v46.9c0,3.6-2.9,6.4-6.4,6.4h-115c-3.6,0-6.4-2.9-6.4-6.4V92.8
					C386.3,89.2,389.1,86.4,392.7,86.4z"/>
				<path class="st7" d="M390,247.4c40.4,32.3,97.8,32.3,138.2,0"/>
				<path class="st8" d="M511.4,237.9H405.9l0,0v-30.2c0-20.4,16.6-37,37-37h31.5c20.4,0,37,16.6,37,37v0L511.4,237.9L511.4,237.9z"
					/>
				<path class="st9" d="M400.2,80.8h115c3.6,0,6.4,2.9,6.4,6.4v46.9c0,3.6-2.9,6.4-6.4,6.4h-115c-3.6,0-6.4-2.9-6.4-6.4V87.2
					C393.7,83.6,396.6,80.8,400.2,80.8z"/>
				<path class="st10" d="M403.1,89.2h7.4c0.5,0,0.9,0.4,0.9,0.9v7.4c0,0.5-0.4,0.9-0.9,0.9h-7.4c-0.5,0-0.9-0.4-0.9-0.9v-7.4
					C402.1,89.6,402.6,89.2,403.1,89.2z"/>
				<path class="st10" d="M417.6,89.2h7.4c0.5,0,0.9,0.4,0.9,0.9v7.4c0,0.5-0.4,0.9-0.9,0.9h-7.4c-0.5,0-0.9-0.4-0.9-0.9v-7.4
					C416.7,89.6,417.1,89.2,417.6,89.2z"/>
				<path class="st10" d="M432.2,89.2h7.4c0.5,0,0.9,0.4,0.9,0.9v7.4c0,0.5-0.4,0.9-0.9,0.9h-7.4c-0.5,0-0.9-0.4-0.9-0.9v-7.4
					C431.2,89.6,431.6,89.2,432.2,89.2z"/>
				<path class="st10" d="M446.7,89.2h7.4c0.5,0,0.9,0.4,0.9,0.9v7.4c0,0.5-0.4,0.9-0.9,0.9h-7.4c-0.5,0-0.9-0.4-0.9-0.9v-7.4
					C445.7,89.6,446.2,89.2,446.7,89.2z"/>
				<path class="st10" d="M461.2,89.2h7.4c0.5,0,0.9,0.4,0.9,0.9v7.4c0,0.5-0.4,0.9-0.9,0.9h-7.4c-0.5,0-0.9-0.4-0.9-0.9v-7.4
					C460.3,89.6,460.7,89.2,461.2,89.2z"/>
				<path class="st10" d="M475.8,89.2h7.4c0.5,0,0.9,0.4,0.9,0.9v7.4c0,0.5-0.4,0.9-0.9,0.9h-7.4c-0.5,0-0.9-0.4-0.9-0.9v-7.4
					C474.8,89.6,475.2,89.2,475.8,89.2z"/>
				<path class="st10" d="M490.3,89.2h7.4c0.5,0,0.9,0.4,0.9,0.9v7.4c0,0.5-0.4,0.9-0.9,0.9h-7.4c-0.5,0-0.9-0.4-0.9-0.9v-7.4
					C489.4,89.6,489.8,89.2,490.3,89.2z"/>
				<path class="st10" d="M504.8,89.2h7.4c0.5,0,0.9,0.4,0.9,0.9v7.4c0,0.5-0.4,0.9-0.9,0.9h-7.4c-0.5,0-0.9-0.4-0.9-0.9v-7.4
					C503.9,89.6,504.3,89.2,504.8,89.2z"/>
				<path class="st10" d="M403.1,106h7.4c0.5,0,0.9,0.4,0.9,0.9v7.4c0,0.5-0.4,0.9-0.9,0.9h-7.4c-0.5,0-0.9-0.4-0.9-0.9v-7.4
					C402.1,106.4,402.6,106,403.1,106z"/>
				<path class="st10" d="M417.6,106h7.4c0.5,0,0.9,0.4,0.9,0.9v7.4c0,0.5-0.4,0.9-0.9,0.9h-7.4c-0.5,0-0.9-0.4-0.9-0.9v-7.4
					C416.7,106.4,417.1,106,417.6,106z"/>
				<path class="st10" d="M432.2,106h7.4c0.5,0,0.9,0.4,0.9,0.9v7.4c0,0.5-0.4,0.9-0.9,0.9h-7.4c-0.5,0-0.9-0.4-0.9-0.9v-7.4
					C431.2,106.4,431.6,106,432.2,106z"/>
				<path class="st10" d="M446.7,106h7.4c0.5,0,0.9,0.4,0.9,0.9v7.4c0,0.5-0.4,0.9-0.9,0.9h-7.4c-0.5,0-0.9-0.4-0.9-0.9v-7.4
					C445.7,106.4,446.2,106,446.7,106z"/>
				<path class="st10" d="M461.2,106h7.4c0.5,0,0.9,0.4,0.9,0.9v7.4c0,0.5-0.4,0.9-0.9,0.9h-7.4c-0.5,0-0.9-0.4-0.9-0.9v-7.4
					C460.3,106.4,460.7,106,461.2,106z"/>
				<path class="st10" d="M475.8,106h7.4c0.5,0,0.9,0.4,0.9,0.9v7.4c0,0.5-0.4,0.9-0.9,0.9h-7.4c-0.5,0-0.9-0.4-0.9-0.9v-7.4
					C474.8,106.4,475.2,106,475.8,106z"/>
				<path class="st10" d="M490.3,106h7.4c0.5,0,0.9,0.4,0.9,0.9v7.4c0,0.5-0.4,0.9-0.9,0.9h-7.4c-0.5,0-0.9-0.4-0.9-0.9v-7.4
					C489.4,106.4,489.8,106,490.3,106z"/>
				<path class="st10" d="M504.8,106h7.4c0.5,0,0.9,0.4,0.9,0.9v7.4c0,0.5-0.4,0.9-0.9,0.9h-7.4c-0.5,0-0.9-0.4-0.9-0.9v-7.4
					C503.9,106.4,504.3,106,504.8,106z"/>
				<path class="st10" d="M403.1,122.8h7.4c0.5,0,0.9,0.4,0.9,0.9v7.4c0,0.5-0.4,0.9-0.9,0.9h-7.4c-0.5,0-0.9-0.4-0.9-0.9v-7.4
					C402.1,123.2,402.6,122.8,403.1,122.8z"/>
				<path class="st10" d="M417.6,122.8h7.4c0.5,0,0.9,0.4,0.9,0.9v7.4c0,0.5-0.4,0.9-0.9,0.9h-7.4c-0.5,0-0.9-0.4-0.9-0.9v-7.4
					C416.7,123.2,417.1,122.8,417.6,122.8z"/>
				<path class="st10" d="M432,122.8h51.3c0.5,0,0.9,0.4,0.9,0.9v7.4c0,0.5-0.4,0.9-0.9,0.9H432c-0.5,0-0.9-0.4-0.9-0.9v-7.4
					C431.1,123.2,431.5,122.8,432,122.8z"/>
				<path class="st10" d="M490.3,122.8h7.4c0.5,0,0.9,0.4,0.9,0.9v7.4c0,0.5-0.4,0.9-0.9,0.9h-7.4c-0.5,0-0.9-0.4-0.9-0.9v-7.4
					C489.4,123.2,489.8,122.8,490.3,122.8z"/>
				<path class="st10" d="M504.8,122.8h7.4c0.5,0,0.9,0.4,0.9,0.9v7.4c0,0.5-0.4,0.9-0.9,0.9h-7.4c-0.5,0-0.9-0.4-0.9-0.9v-7.4
					C503.9,123.2,504.3,122.8,504.8,122.8z"/>
				<path class="st3" d="M398.7,14.5h116.2c2.7,0,4.9,2.2,4.9,4.9v56.4c0,2.7-2.2,4.9-4.9,4.9H398.7c-2.7,0-4.9-2.2-4.9-4.9V19.4
					C393.7,16.7,395.9,14.5,398.7,14.5z"/>
				<rect x="402.1" y="22.9" class="st11" width="110.1" height="48.5"/>
				<rect x="402.1" y="22.9" class="st12" width="24.3" height="48.5"/>
				<rect x="402.1" y="22.9" class="st13" width="110.1" height="8.4"/>
				<path class="st14" d="M523.5,198.7h-23.3l0,0v-87.3c0-6.4,5.2-11.7,11.7-11.7l0,0l0,0c6.4,0,11.7,5.2,11.7,11.7c0,0,0,0,0,0
					L523.5,198.7L523.5,198.7z"/>
				<path class="st14" d="M415.2,198.7h-23.3l0,0v-87.3c0-6.4,5.2-11.7,11.7-11.7l0,0l0,0c6.4,0,11.7,5.2,11.7,11.7c0,0,0,0,0,0
					L415.2,198.7L415.2,198.7L415.2,198.7z"/>
				<path class="st8" d="M507.6,237.9L507.6,237.9c-11.3,0-20.5-9.2-20.5-20.5v0v-39.2l0,0h41.1l0,0v39.2
					C528.2,228.7,519,237.9,507.6,237.9C507.6,237.9,507.6,237.9,507.6,237.9z"/>
				<path class="st8" d="M405.9,237.9L405.9,237.9c-11.3,0-20.5-9.2-20.5-20.5v0v-39.2l0,0h41.1l0,0v39.2
					C426.4,228.7,417.2,237.9,405.9,237.9C405.9,237.9,405.9,237.9,405.9,237.9z"/>
				<circle class="st14" cx="459.1" cy="184.7" r="6.5"/>
				<path class="st14" d="M499.7,234h-7l0,0v-14l0,0h7c3.9,0,7,3.1,7,7l0,0C506.7,230.9,503.6,234,499.7,234L499.7,234z"/>
				<path class="st14" d="M418.5,220h7l0,0v14l0,0h-7c-3.9,0-7-3.1-7-7l0,0C411.5,223.1,414.6,220,418.5,220L418.5,220z"/>
				<path class="st15" d="M435.4,266.3L435.4,266.3c15.5,4,31.8,4,47.3,0l0,0c9.7-2.5,16.5-11.2,16.5-21.2v-20.3
					c0-22.2-18-40.1-40.1-40.1c0,0,0,0,0,0l0,0c-22.2,0-40.1,18-40.1,40.1l0,0v20.3C418.9,255.1,425.7,263.9,435.4,266.3z"/>
				<path class="st16" d="M483.5,192.9c5.4,7,8.3,15.6,8.3,24.4v20.3c0,10-6.8,18.7-16.5,21.2l0,0c-15.5,4-31.8,4-47.3,0l0,0
					c-2.1-0.5-4-1.4-5.9-2.5c3,4.9,7.7,8.5,13.3,9.9l0,0c15.5,4,31.8,4,47.3,0l0,0c9.7-2.5,16.5-11.2,16.5-21.2v-20.3
					C499.2,212.3,493.4,200.5,483.5,192.9z"/>
				<line class="st17" x1="409.1" y1="127.9" x2="419.4" y2="118.6"/>
				<line class="st17" x1="506.2" y1="127.9" x2="496" y2="118.6"/>
				<path class="st18" d="M571.6,27.6h40.1c1.3,0,2.4,1.1,2.4,2.4V84c0,1.3-1.1,2.4-2.4,2.4h-40.1c-1.3,0-2.4-1.1-2.4-2.4V29.9
					C569.2,28.6,570.3,27.6,571.6,27.6z"/>
				<path class="st19" d="M578.1,22h40.1c1.3,0,2.4,1.1,2.4,2.4v54.1c0,1.3-1.1,2.4-2.4,2.4h-40.1c-1.3,0-2.4-1.1-2.4-2.4V24.3
					C575.8,23,576.8,22,578.1,22z"/>
				<rect x="588.8" y="40.6" class="st20" width="18.7" height="6.5"/>
				<circle class="st2" cx="348.1" cy="104.3" r="15.7"/>
				<path class="st10" d="M366.9,92.9l8.3-3.3c1.3-0.5,2.9,0.1,3.4,1.5c0,0,0,0,0,0l0,0c0.5,1.3-0.1,2.9-1.5,3.4l0,0l-8.3,3.3l0,0
					L366.9,92.9L366.9,92.9z"/>
				<circle class="st9" cx="354" cy="100.2" r="15.7"/>
				<circle class="st19" cx="354" cy="100.2" r="11.5"/>
				<path class="st13" d="M446.7,60.2h15.9c0.9,0,1.6,0.7,1.6,1.6V65c0,0.9-0.7,1.6-1.6,1.6h-15.9c-0.9,0-1.6-0.7-1.6-1.6v-3.2
					C445.1,60.9,445.8,60.2,446.7,60.2z"/>
				<path class="st8" d="M468.6,60.2h15.9c0.9,0,1.6,0.7,1.6,1.6V65c0,0.9-0.7,1.6-1.6,1.6h-15.9c-0.9,0-1.6-0.7-1.6-1.6v-3.2
					C467,60.9,467.7,60.2,468.6,60.2z"/>
				<rect x="445.1" y="38.8" class="st12" width="41.1" height="10.3"/>
				<rect x="445.1" y="52.8" class="st12" width="27.1" height="3.7"/>
				<path class="st18" d="M576.1,101.5L576.1,101.5c-7.4-5.3-16.3-8.3-25.4-8.6l0,0c-1.2,0-2.3,0.7-2.7,1.9l-12.7,37.6
					c-0.4,1.2,0,2.5,1,3.2l0,0c7.4,5.3,16.3,8.3,25.4,8.6c1.2,0,2.3-0.7,2.7-1.9l12.7-37.6C577.5,103.5,577.1,102.2,576.1,101.5z"/>
				<path class="st21" d="M567.2,143.3L567.2,143.3c-9.1-0.3-18-3.3-25.4-8.6l0,0c-1-0.7-1.4-2-1-3.2l12.7-37.6
					c0.4-1.2,1.5-1.9,2.7-1.9l0,0c9.1,0.3,18,3.3,25.4,8.6l0,0c1,0.7,1.4,2,1,3.2L570,141.4C569.6,142.6,568.5,143.3,567.2,143.3z"
					/>
				<path class="st22" d="M556.1,99.5l21.3,7.2c0.5,0.2,0.8,0.7,0.6,1.2l-9.3,27.4c-0.2,0.5-0.7,0.8-1.2,0.6l-21.3-7.2
					c-0.5-0.2-0.8-0.7-0.6-1.2l9.3-27.4C555,99.5,555.6,99.3,556.1,99.5z"/>
				<circle class="st23" cx="555.4" cy="136.4" r="1"/>
				<path class="st23" d="M562.1,96.7l12.1,4.1c0.5,0.2,0.7,0.7,0.6,1.2l0,0c-0.2,0.5-0.7,0.7-1.2,0.6l-12.1-4.1
					c-0.5-0.2-0.7-0.7-0.6-1.2l0,0C561.1,96.8,561.6,96.5,562.1,96.7L562.1,96.7z"/>
			</g>
		</g>
		<g>
			<defs>
				<path id="SVGID_3_" d="M0.8,408.3v131.2c0,17.6,14.3,31.9,31.9,31.9h460.5c28,0,42.4-29.1,23.3-49.5L324.6,317
					c-8-8.6-20.1-12-31.4-9.1L24.7,377.4C10.6,381.1,0.8,393.8,0.8,408.3z"/>
			</defs>
			<clipPath id="SVGID_4_">
				<use xlink:href="#SVGID_3_"  style="overflow:visible;"/>
			</clipPath>
			<g class="st24">
				<rect x="-85.6" y="200.1" class="st1" width="906.8" height="492.7"/>
				<g>
					<defs>
						<rect id="SVGID_5_" x="0.8" y="211.9" width="466.6" height="445"/>
					</defs>
					<clipPath id="SVGID_6_">
						<use xlink:href="#SVGID_5_"  style="overflow:visible;"/>
					</clipPath>
					<g class="st25">
						
							<linearGradient id="SVGID_7_" gradientUnits="userSpaceOnUse" x1="388.5791" y1="-133.8059" x2="720.8804" y2="-471.2999" gradientTransform="matrix(0.9344 0.3563 0.3563 -0.9344 -307.6205 -124.8791)">
							<stop  offset="0.296" style="stop-color:#FFE896"/>
							<stop  offset="0.359" style="stop-color:#FFE999;stop-opacity:0.975"/>
							<stop  offset="0.448" style="stop-color:#FFEAA0;stop-opacity:0.903"/>
							<stop  offset="0.552" style="stop-color:#FFEDAD;stop-opacity:0.786"/>
							<stop  offset="0.668" style="stop-color:#FFF1BE;stop-opacity:0.622"/>
							<stop  offset="0.793" style="stop-color:#FFF6D4;stop-opacity:0.412"/>
							<stop  offset="0.924" style="stop-color:#FFFBEE;stop-opacity:0.16"/>
							<stop  offset="1" style="stop-color:#FFFFFF;stop-opacity:0"/>
						</linearGradient>
						<polygon class="st26" points="17.2,260 -70.9,694.8 467,449.9 56.5,248.8 						"/>
						<path class="st27" d="M18.8,220.4L18.8,220.4c7.2-3.2,15.7,0,18.9,7.2c0,0,0,0,0,0l9.3,20.8l0,0L21,260.1l0,0l-9.3-20.8
							C8.4,232.1,11.6,223.6,18.8,220.4C18.8,220.4,18.8,220.4,18.8,220.4z"/>
						<line class="st28" x1="17.9" y1="261.5" x2="49.9" y2="247.1"/>
						<line class="st28" x1="16.6" y1="262" x2="9.1" y2="282.2"/>
						<line class="st28" x1="49.9" y1="247.1" x2="69.9" y2="255"/>
						<path class="st27" d="M56.6,269.7l-26.7,12c-2,0.9-4.3,0-5.2-2c-0.1-0.3-0.2-0.6-0.3-0.9l-2.8-15.7c-0.3-1.8,0.6-3.6,2.3-4.3
							l19.2-8.6c1.6-0.7,3.5-0.3,4.6,1.1L58,263.6c1.4,1.7,1.2,4.2-0.5,5.6C57.3,269.4,56.9,269.6,56.6,269.7z"/>
						
							<linearGradient id="SVGID_8_" gradientUnits="userSpaceOnUse" x1="3260.4458" y1="825.507" x2="3489.5696" y2="592.8031" gradientTransform="matrix(-0.919 0.393 -0.393 -0.919 3778.0471 -309.9131)">
							<stop  offset="0" style="stop-color:#2194F4"/>
							<stop  offset="0.822" style="stop-color:#FFFFFF;stop-opacity:0"/>
						</linearGradient>
						<polygon class="st29" points="454.1,298.6 568.3,612 107.5,422.7 414.4,289 						"/>
						<path class="st27" d="M393,220.5L393,220.5c7.4,2.8,11,11.1,8.2,18.5l-8.2,21.3l0,0L366.3,250l0,0l8.2-21.3
							C377.4,221.3,385.6,217.7,393,220.5L393,220.5z"/>
						<line class="st28" x1="363.2" y1="248.8" x2="395.8" y2="261.4"/>
						<line class="st28" x1="361.8" y1="248.3" x2="342.2" y2="257.1"/>
						<line class="st28" x1="395.8" y1="261.4" x2="404.4" y2="281.1"/>
						<path class="st27" d="M384.5,282.1l-27.3-10.6c-2-0.8-3.1-3.1-2.3-5.1c0.1-0.3,0.3-0.6,0.4-0.8l9.1-13.1c1-1.5,3-2.1,4.7-1.4
							l19.6,7.6c1.6,0.6,2.7,2.3,2.5,4l-1.4,16c-0.2,2.2-2.1,3.8-4.3,3.6C385.2,282.3,384.9,282.2,384.5,282.1z"/>
					</g>
				</g>
				<path class="st30" d="M138.3,497.8l-1-18.6h0.1l8.1-0.4c0.7,0,1.3,0.5,1.3,1.2l0.9,17.6l-9.4,0.5
					C138.3,497.9,138.3,497.8,138.3,497.8z"/>
				<path class="st31" d="M145.8,505.5c-2.8-0.6-7.2-2.3-7.5-7.5l9.4-0.5l0.3,6.1c0.1,1-0.7,1.9-1.7,1.9
					C146.1,505.5,146,505.5,145.8,505.5z"/>
				<path class="st32" d="M147.1,478.9l1.4,26.5c0,0.7-0.5,1.2-1.2,1.3l0,0c-0.7,0-1.2-0.5-1.3-1.2l-1.4-26.5c0-0.7,0.5-1.2,1.2-1.3
					l0,0C146.5,477.7,147.1,478.2,147.1,478.9z"/>
				<path class="st33" d="M141.6,486.8l0.3,6c0,0.6-0.4,1.1-1,1.1l-2.8,0.1l0,0l-0.4-8.1l0,0l2.8-0.1
					C141.1,485.8,141.5,486.2,141.6,486.8C141.6,486.8,141.6,486.8,141.6,486.8z"/>
				<path class="st30" d="M61.3,495.4l16.2,9.3l-0.1,0.1l-4,7c-0.3,0.6-1.1,0.8-1.7,0.5c0,0,0,0,0,0l-15.3-8.7l4.7-8.2
					C61.2,495.3,61.3,495.4,61.3,495.4z"/>
				<path class="st31" d="M50.8,497.6c2-2,5.8-4.8,10.4-2.3l-4.7,8.2l-5.3-3c-0.9-0.5-1.2-1.6-0.7-2.5
					C50.6,497.8,50.7,497.7,50.8,497.6z"/>
				<path class="st32" d="M72.4,513.1l-23-13.2c-0.6-0.3-0.8-1.1-0.5-1.7l0,0c0.3-0.6,1.1-0.8,1.7-0.5l23,13.2
					c0.6,0.3,0.8,1.1,0.5,1.7l0,0C73.7,513.2,73,513.4,72.4,513.1z"/>
				<path class="st33" d="M68.8,504.1l-5.2-3c-0.5-0.3-0.7-0.9-0.4-1.4l1.4-2.4l0,0l7,4l0,0l-1.4,2.4
					C69.9,504.2,69.3,504.4,68.8,504.1z"/>
				<path class="st34" d="M116.5,457.3l-23.7,10.8c-2.3,1-4.2,2.8-5.4,5l-15.6,28.5"/>
				<path class="st34" d="M119,456.9L107.5,484c-0.6,1.4,0.1,3,1.4,3.6c0.4,0.2,0.8,0.2,1.2,0.2l27.7-1.4"/>
				<path class="st35" d="M60.1,446.4c0.3,0.1,0.6,0.1,0.9,0.1c40.1,1.4,44.7-15.3,45.1-17.2l-8.8-1.9c0-0.1,0-0.1,0-0.2
					c0,0.1-3.8,11.3-36,10.2c-2.5-0.1-4.6,1.9-4.7,4.4C56.6,444,58,445.9,60.1,446.4L60.1,446.4z"/>
				<path class="st35" d="M66.2,440.4c1,0.2,1.9-0.4,2.2-1.3c0.1-0.5,0-1-0.3-1.4l-2.3-3.4c-0.6-0.8-1.7-1-2.5-0.5
					c-0.8,0.6-1,1.7-0.5,2.5l2.3,3.4C65.4,440.1,65.8,440.3,66.2,440.4z"/>
				<path class="st36" d="M125.7,460.7l-31.1-0.9c-0.7,0-1.2-0.6-1.2-1.2l1.2-40.5c0.1-4.2,3.6-7.4,7.7-7.3l18.5,0.5
					c4.2,0.1,7.4,3.6,7.3,7.7l-1.2,40.5C126.9,460.2,126.4,460.7,125.7,460.7L125.7,460.7z"/>
				<path class="st36" d="M89.9,428.5l5.2-12.8c1.6-4,6.2-5.9,10.2-4.3l0,0c4,1.6,5.9,6.2,4.3,10.2l-5.2,12.8
					c-0.3,0.6-1,0.9-1.6,0.7l-12.3-5C89.9,429.9,89.6,429.1,89.9,428.5z"/>
				<circle class="st37" cx="110.9" cy="423.9" r="1.4"/>
				<circle class="st37" cx="110.7" cy="430.6" r="1.4"/>
				<path class="st38" d="M85.6,462.8c-4.3,1.3-8.8-1.1-10.1-5.3s1.1-8.8,5.3-10.1l2.9-0.9c3.5-1.1,5.4-4.8,4.4-8.2
					c-0.1-0.3-0.2-0.6-0.4-0.9c-1.1-2.2-0.2-4.9,2.1-6s4.9-0.2,6,2.1l0.1,0.3c1.4,2.8,4.5,4.3,7.6,3.6c6.9-1.5,14.1-0.8,18.9,5.1
					c3.8,4.8,4.3,11.4,2.6,17.1c-2.7,8.7-10.7,17.2-20.6,15.4c-5.4-1-9.7-5.2-12.6-9.7C90.5,463,87.9,462.1,85.6,462.8z"/>
				<path class="st11" d="M99.9,447l-3.6,8.3c-0.5,1.2-2,1.8-3.2,1.3l0,0c-1.2-0.5-1.8-2-1.3-3.2l3.6-8.3c0.5-1.2,2-1.8,3.2-1.3h0
					C99.8,444.3,100.4,445.7,99.9,447z"/>
				<path class="st11" d="M115.7,452.1l-4.9,11.3c-0.2,0.4-0.7,0.6-1.1,0.4h0c-0.4-0.2-0.6-0.7-0.4-1.1l4.9-11.3
					c0.2-0.4,0.7-0.6,1.1-0.4h0C115.7,451.2,115.9,451.7,115.7,452.1z"/>
				<path class="st36" d="M109.3,450.2L105,460c-0.4,0.8-1.3,1.2-2.2,0.9l-2.4-1.1c-0.8-0.4-1.2-1.3-0.9-2.2l4.3-9.8
					c0.4-0.8,1.3-1.2,2.2-0.9l2.4,1.1C109.3,448.4,109.7,449.4,109.3,450.2z"/>
				<path class="st36" d="M33,426.6l2.7-6.2c0.4-1,1.6-1.5,2.6-1l10.4,4.5c0.7,0.3,1.3,0.8,1.7,1.5l0.9,1.5c0.4,0.7,1,1.2,1.7,1.5
					l41.9,18.2l-2.4,5.5l-41.9-18.2c-0.7-0.3-1.5-0.4-2.2-0.2l-1.7,0.4c-0.7,0.2-1.5,0.1-2.2-0.2L34,429.2
					C33,428.7,32.6,427.6,33,426.6C33,426.6,33,426.6,33,426.6z"/>
				<path class="st39" d="M44,435.1L44,435.1c-0.2,0.4-0.7,0.6-1.1,0.5l-0.8-0.3c-0.4-0.2-0.6-0.7-0.5-1.1l0,0
					c0.2-0.4,0.7-0.6,1.1-0.5l0.8,0.3C44,434.2,44.2,434.7,44,435.1z"/>
				<path class="st39" d="M40,433.4L40,433.4c-0.2,0.4-0.7,0.6-1.1,0.5l-0.8-0.3c-0.4-0.2-0.6-0.7-0.5-1.1l0,0
					c0.2-0.4,0.7-0.6,1.1-0.5l0.8,0.3C40,432.4,40.2,432.9,40,433.4z"/>
				<path class="st39" d="M35.9,431.6L35.9,431.6c-0.2,0.4-0.7,0.6-1.1,0.5l-0.8-0.3c-0.4-0.2-0.6-0.7-0.5-1.1l0,0
					c0.2-0.4,0.7-0.6,1.1-0.5l0.8,0.3C35.9,430.6,36.1,431.1,35.9,431.6z"/>
				<path class="st39" d="M49.6,422.4L49.6,422.4c-0.2,0.4-0.7,0.6-1.1,0.5l-0.8-0.3c-0.4-0.2-0.6-0.7-0.5-1.1l0,0
					c0.2-0.4,0.7-0.6,1.1-0.5l0.8,0.3C49.5,421.5,49.7,422,49.6,422.4z"/>
				<path class="st39" d="M45.5,420.7L45.5,420.7c-0.2,0.4-0.7,0.6-1.1,0.5l-0.8-0.3c-0.4-0.2-0.6-0.7-0.5-1.1l0,0
					c0.2-0.4,0.7-0.6,1.1-0.5l0.8,0.3C45.5,419.7,45.7,420.2,45.5,420.7z"/>
				<path class="st39" d="M41.4,418.9L41.4,418.9c-0.2,0.4-0.7,0.6-1.1,0.5l-0.8-0.3c-0.4-0.2-0.6-0.7-0.5-1.1l0,0
					c0.2-0.4,0.7-0.6,1.1-0.5l0.8,0.3C41.4,417.9,41.6,418.5,41.4,418.9z"/>
				<path class="st35" d="M144.5,461.4l0.2,0c2.5-0.3,4.2-2.6,3.9-5.1c0,0,0,0,0,0c-5.3-39.8-22.5-41.6-24.5-41.6l-0.4,9
					c-0.1,0-0.1,0-0.2,0c0.1,0,11.8,1.9,16.1,33.8C139.9,460,142.1,461.7,144.5,461.4z"/>
				<path class="st36" d="M129,433.7l-10.1-9.5c-3.2-3-3.3-7.9-0.3-11.1l0,0c3-3.2,7.9-3.3,11.1-0.4c0,0,0,0,0,0l10.1,9.5
					c0.5,0.5,0.5,1.2,0.1,1.7c0,0,0,0,0,0l-9.1,9.7C130.2,434.2,129.5,434.2,129,433.7L129,433.7z"/>
				<path class="st35" d="M137.1,456.7c0.4,0,0.8-0.2,1.1-0.5l3-2.9c0.7-0.7,0.7-1.8,0-2.6s-1.8-0.7-2.6,0l-3,2.9
					c-0.7,0.7-0.7,1.8,0,2.6C136,456.6,136.6,456.8,137.1,456.7z"/>
				<path class="st40" d="M111.1,418.1L111.1,418.1c-2.2-0.1-3.9-1.9-3.8-4l0,0l0.2-6.3l0,0l7.8,0.2l0,0l-0.2,6.3
					C115.1,416.5,113.3,418.2,111.1,418.1L111.1,418.1L111.1,418.1z"/>
				<path class="st33" d="M116.2,409.5l3,8.8c0.2,0.6-0.1,1.3-0.8,1.5c-0.2,0.1-0.5,0.1-0.7,0l-6.6-1.7L116.2,409.5z"/>
				<path class="st33" d="M106.6,409.2l-3.4,8.7c-0.2,0.6,0.1,1.3,0.7,1.6c0.2,0.1,0.4,0.1,0.7,0.1l6.7-1.3L106.6,409.2z"/>
				<path class="st41" d="M130.4,388.2l0.2-7.6c0.3-10.2-7.7-18.7-17.9-19c0,0,0,0,0,0l0,0c-10.2-0.3-18.7,7.7-19,17.9l-0.2,7.6"/>
				<circle class="st40" cx="95.5" cy="391.6" r="5"/>
				<circle class="st40" cx="127.7" cy="392.5" r="5"/>
				<path class="st35" d="M111.3,412.2L111.3,412.2c8.6,0.3,15.8-6.5,16.1-15.2c0,0,0,0,0,0l0.5-16.5c0-0.9-0.7-1.6-1.5-1.6
					c-0.1,0-0.2,0-0.3,0l0,0c-9.1,1.8-18.4,1.5-27.4-0.8l0,0c-0.9-0.2-1.7,0.3-1.9,1.1c0,0.1,0,0.2,0,0.3l-0.5,16.5
					C95.9,404.8,102.7,412,111.3,412.2z"/>
				<line class="st42" x1="114.7" y1="397.6" x2="109.2" y2="397.5"/>
				<path class="st43" d="M109.2,398.3l5.5,0.2c0.5,0,0.9-0.4,0.9-0.8c0-0.5-0.4-0.9-0.8-0.9l0,0l-5.5-0.2c-0.5,0-0.9,0.4-0.9,0.8
					C108.4,397.9,108.8,398.3,109.2,398.3z"/>
				<circle class="st41" cx="118.3" cy="390.2" r="1.6"/>
				<circle class="st41" cx="103.1" cy="389.7" r="1.6"/>
				<path class="st44" d="M107.3,402c-0.5,0-0.8,0.3-0.9,0.8c0,0,0,0.1,0,0.1c0.4,2.9,3.1,4.8,6,4.4c2.2-0.3,3.9-2,4.3-4.1
					c0.1-0.4-0.2-0.9-0.7-1c0,0-0.1,0-0.1,0L107.3,402z"/>
				<path class="st45" d="M110.5,405.3c1,0.2,1.8,1,2,2c-1.8,0.3-3.6-0.3-4.8-1.6C108.5,405,109.6,404.9,110.5,405.3z"/>
				<path class="st46" d="M107.3,402l8.7,0.3c0.4,0,0.8,0.4,0.8,0.8c0,0,0,0.1,0,0.1c-0.1,0.3-0.2,0.6-0.3,0.9l-9.8-0.3
					c-0.1-0.3-0.2-0.6-0.2-0.9c-0.1-0.4,0.3-0.8,0.7-0.9C107.2,402,107.2,402,107.3,402z"/>
				<path class="st41" d="M122.2,388.1c0.4,0,0.8-0.3,0.8-0.7c0-0.1,0-0.2,0-0.3c-0.7-2-2.8-3.1-4.8-2.4c-0.4,0.1-0.6,0.6-0.5,1
					c0.1,0.4,0.6,0.6,1,0.5c0,0,0,0,0,0c1.2-0.4,2.5,0.2,2.9,1.4c0,0,0,0,0,0C121.6,387.9,121.8,388.1,122.2,388.1z"/>
				<path class="st41" d="M101.8,387.5c0.3,0,0.6-0.2,0.7-0.5c0.5-1.2,1.8-1.7,2.9-1.3c0.4,0.2,0.8,0,1-0.4c0.2-0.4,0-0.8-0.4-1
					c0,0,0,0,0,0c-1.9-0.8-4.2,0.2-4.9,2.1c-0.2,0.4,0,0.8,0.4,1C101.6,387.5,101.7,387.5,101.8,387.5L101.8,387.5z"/>
				<path class="st35" d="M69.6,542.4c-0.3,0-0.6-0.2-0.9-0.4l-2.5-2.3c-0.6-0.6-0.6-1.5-0.1-2.1s1.5-0.6,2.1-0.1l2.5,2.3
					c0.6,0.6,0.6,1.5,0,2.1C70.5,542.2,70.1,542.4,69.6,542.4L69.6,542.4z"/>
				<rect x="85.4" y="570.9" class="st47" width="3.6" height="16.7"/>
				<path class="st47" d="M87.3,584.8l2.6,2.6l0,0l-11.3,11.3c-0.3,0.3-0.7,0.3-0.9,0c0,0,0,0,0,0l-1.6-1.6c-0.3-0.3-0.3-0.7,0-0.9
					l0,0L87.3,584.8L87.3,584.8z"/>
				<path class="st47" d="M98.6,597.1l-1.6,1.6c-0.3,0.3-0.7,0.3-0.9,0l0,0l-11.3-11.3l0,0l2.6-2.6l0,0l11.3,11.3
					C98.9,596.5,98.9,596.9,98.6,597.1z"/>
				<circle class="st47" cx="87.3" cy="571.3" r="4.3"/>
				<circle class="st47" cx="154.6" cy="534.4" r="4.3"/>
				<circle class="st47" cx="37.9" cy="561.2" r="4.3"/>
				<path class="st41" d="M73,559.9h28.5c1.4,0,2.6,1.2,2.6,2.6v6.3c0,1.4-1.2,2.6-2.6,2.6H73c-1.4,0-2.6-1.2-2.6-2.6v-6.3
					C70.4,561,71.6,559.9,73,559.9z"/>
				<rect x="65.5" y="572" class="st35" width="6.5" height="25.2"/>
				<path class="st48" d="M68.8,590.5v-28.3c0-3.3,2.7-5.9,5.9-5.9h19.9"/>
				<rect x="103.6" y="572" class="st35" width="6.5" height="25.2"/>
				<path class="st48" d="M106.7,590.6v-28.3c0-3.3-2.7-5.9-5.9-5.9H80.9"/>
				<path class="st41" d="M74.4,481.2c5,6.2,4.1,15.2-2.1,20.3c-1.9,1.6-4.2,2.6-6.6,3l0,0c-0.8,0.1-1.4,0.9-1.3,1.7
					c0.1,0.4,0.3,0.8,0.6,1c6.4,4.7,15.4,3.3,20.1-3.1c4.7-6.4,3.3-15.4-3.1-20.1C79.8,482.3,77.2,481.4,74.4,481.2z"/>
				<path class="st49" d="M94.5,504.4H80.8c-3.8,0-7,3.1-7,6.9c0,0,0,0,0,0l1.2,11.6c0.9,8.9,0.6,18-1,26.8l-0.2,1
					c0,0.6,0.5,1.1,1.1,1.1h25.4c0.6,0,1.1-0.5,1.1-1.1l0,0c-1.8-9.5-2.2-19.2-1.1-28.8l1.2-10.6C101.5,507.5,98.4,504.4,94.5,504.4
					z"/>
				<path class="st35" d="M84.2,499.5h7l0,0v5.6c0,1.9-1.6,3.5-3.5,3.5l0,0c-1.9,0-3.5-1.6-3.5-3.5L84.2,499.5L84.2,499.5z"/>
				<path class="st41" d="M87.9,457.8L87.9,457.8c9.7,0,17.6,7.9,17.6,17.6v9.8l0,0H70.2l0,0v-9.8C70.2,465.7,78.1,457.8,87.9,457.8
					C87.9,457.8,87.9,457.8,87.9,457.8z"/>
				<circle class="st50" cx="72.6" cy="485.2" r="4.8"/>
				<circle class="st50" cx="102.7" cy="485.2" r="4.8"/>
				<path class="st35" d="M72.6,476.4v11.2c0,8.3,6.7,15.1,15,15.1c0,0,0,0,0,0l0,0c8.3,0,15.1-6.7,15.1-15c0,0,0,0,0,0v-11.2
					l-7.8-7.3L72.6,476.4z"/>
				<path class="st41" d="M78.4,481.6c-0.4,0-0.8-0.3-0.8-0.8c0-0.3,0.2-0.6,0.5-0.7l3.6-1.2c0.4-0.1,0.8,0.1,1,0.5
					c0.1,0.4-0.1,0.8-0.5,1c0,0,0,0,0,0l-3.6,1.2C78.5,481.5,78.5,481.6,78.4,481.6z"/>
				<path class="st41" d="M97,481.5c-0.1,0-0.2,0-0.2,0l-3.6-1.2c-0.4-0.1-0.6-0.6-0.5-1c0.1-0.4,0.5-0.6,0.9-0.5l3.6,1.2
					c0.4,0.1,0.6,0.6,0.5,1C97.6,481.3,97.3,481.5,97,481.5L97,481.5z"/>
				<path class="st43" d="M84.4,486.1c-0.4,0-0.7-0.2-0.7-0.6c-0.2-1-1.3-1.7-2.3-1.5c-0.7,0.2-1.3,0.7-1.5,1.5
					c-0.1,0.4-0.5,0.7-0.9,0.6c-0.4-0.1-0.7-0.5-0.6-0.9c0.4-1.9,2.3-3,4.1-2.6c1.3,0.3,2.3,1.3,2.6,2.6c0.1,0.4-0.2,0.8-0.6,0.9
					c0,0,0,0,0,0C84.5,486.1,84.4,486.1,84.4,486.1z"/>
				<path class="st43" d="M96.2,486.1c-0.4,0-0.7-0.2-0.7-0.6c-0.2-1-1.3-1.7-2.3-1.5c-0.7,0.2-1.3,0.7-1.5,1.5
					c-0.1,0.4-0.5,0.7-0.9,0.6c-0.4-0.1-0.7-0.5-0.6-0.9c0.4-1.9,2.3-3,4.1-2.6c1.3,0.3,2.3,1.3,2.6,2.6c0.1,0.4-0.2,0.8-0.6,0.9
					c0,0,0,0,0,0C96.4,486.1,96.3,486.1,96.2,486.1z"/>
				<path class="st51" d="M92.2,493.8c0.5,0,0.9,0.4,0.9,0.8c0,0,0,0.1,0,0.1c-0.5,2.9-3.4,4.9-6.3,4.4c-2.2-0.4-4-2.1-4.4-4.4
					c-0.1-0.5,0.2-0.9,0.7-1c0,0,0.1,0,0.1,0L92.2,493.8z"/>
				<path class="st45" d="M88.7,497c-1,0.2-1.9,1-2.1,2c1.8,0.4,3.7-0.2,5-1.5C90.8,496.8,89.7,496.6,88.7,497z"/>
				<path class="st46" d="M92.2,493.7h-9c-0.5,0-0.8,0.4-0.9,0.8c0,0,0,0.1,0,0.1c0.1,0.3,0.1,0.6,0.2,0.9h10.2
					c0.1-0.3,0.2-0.6,0.3-0.9c0.1-0.5-0.3-0.9-0.7-1C92.3,493.7,92.2,493.7,92.2,493.7z"/>
				<path class="st35" d="M122,478.9c0,0,0.1,0,0.1,0c1.9,0.7,2.9,2.8,2.2,4.8C113,514.9,98.8,513.3,97.2,513l1.3-7.3
					c-0.1,0-0.1,0-0.2,0c0.1,0,9.9,0.6,18.9-24.5C118,479.3,120,478.3,122,478.9z"/>
				<path class="st49" d="M111.2,509.6l-9.8,5.9c-3.1,1.8-7,0.8-8.9-2.2l0,0c-1.8-3.1-0.8-7,2.2-8.9l9.8-5.9
					c0.5-0.3,1.1-0.1,1.4,0.3l5.6,9.4C111.8,508.7,111.6,509.3,111.2,509.6z"/>
				<path class="st41" d="M95,463.9l-24.6,9.5c0,0.2,0.1,0.3,0.1,0.5c1.4,4.3,8.3,5.9,15.3,3.6s11.5-7.7,10.1-12
					C95.7,464.9,95.4,464.3,95,463.9z"/>
				<path class="st41" d="M105.4,476.3l-11.1-9c-0.1,0.1-0.1,0.1-0.2,0.2c-1.7,1.8-0.6,5.5,2.4,8.2c3,2.7,6.7,3.3,8.4,1.5
					C105.1,476.9,105.3,476.6,105.4,476.3z"/>
				<path class="st41" d="M70.2,478.9h2.4l0,0v13.6c0,0.6-0.5,1.2-1.2,1.2l0,0l0,0c-0.6,0-1.2-0.5-1.2-1.2l0,0L70.2,478.9
					L70.2,478.9L70.2,478.9z"/>
				<path class="st41" d="M102.7,478.9h2.7l0,0v13.4c0,0.8-0.6,1.4-1.4,1.4l0,0c-0.8,0-1.4-0.6-1.4-1.4L102.7,478.9L102.7,478.9z"/>
				<path class="st52" d="M81.3,525.6h13.2c1,0,1.7,0.8,1.7,1.7v0c0,1-0.8,1.7-1.7,1.7H81.3c-1,0-1.7-0.8-1.7-1.7v0
					C79.6,526.3,80.4,525.6,81.3,525.6z"/>
				<path class="st43" d="M90.7,490.8h-5.6c-0.5,0-0.9-0.4-0.9-0.9s0.4-0.9,0.9-0.9h5.6c0.5,0,0.9,0.4,0.9,0.9
					S91.2,490.8,90.7,490.8z"/>
				<rect x="116.3" y="576.6" class="st47" width="3.6" height="24.6"/>
				<circle class="st47" cx="118.1" cy="577" r="4.3"/>
				
					<rect x="97.4" y="558.3" transform="matrix(0.9925 -0.1223 0.1223 0.9925 -68.5828 18.5602)" class="st53" width="38.9" height="19"/>
				<path class="st47" d="M95.9,558.8L135,554c1.1-0.1,2.1,0.6,2.2,1.7c0,0,0,0,0,0l0,0c0.1,1.1-0.6,2.1-1.7,2.2l-39.1,4.8
					c-1.1,0.1-2.1-0.6-2.2-1.7l0,0C94.1,559.9,94.8,558.9,95.9,558.8z"/>
				<path class="st54" d="M104.3,572.9l-0.9-7.1c-0.1-1.1,0.6-2.1,1.7-2.2l0,0c1.1-0.1,2.1,0.6,2.2,1.7l0.9,7.1
					c0.1,1.1-0.6,2.1-1.7,2.2l0,0C105.5,574.7,104.5,573.9,104.3,572.9z"/>
				<path class="st54" d="M115.3,571.5l-0.9-7.1c-0.1-1.1,0.6-2.1,1.7-2.2l0,0c1.1-0.1,2.1,0.6,2.2,1.7l0.9,7.1
					c0.1,1.1-0.6,2.1-1.7,2.2l0,0C116.5,573.3,115.5,572.6,115.3,571.5z"/>
				<path class="st54" d="M127.1,570.2l-0.9-7.1c-0.1-1.1,0.6-2.1,1.7-2.2l0,0c1.1-0.1,2.1,0.6,2.2,1.7l0.9,7.1
					c0.1,1.1-0.6,2.1-1.7,2.2l0,0C128.2,572.1,127.2,571.3,127.1,570.2z"/>
				<path class="st47" d="M98.2,577.6l39.1-4.8c1.1-0.1,2.1,0.6,2.2,1.7l0,0c0.1,1.1-0.6,2.1-1.7,2.2l-39.1,4.8
					c-1.1,0.1-2.1-0.6-2.2-1.7l0,0C96.4,578.7,97.1,577.7,98.2,577.6z"/>
				<path class="st55" d="M95.9,558.8l15.3-1.9c1.1-0.1,2.1,0.6,2.2,1.7l0,0c0.1,1.1-0.6,2.1-1.7,2.2l-15.3,1.9
					c-1.1,0.1-2.1-0.6-2.2-1.7l0,0C94.1,559.9,94.8,558.9,95.9,558.8L95.9,558.8z"/>
				<path class="st56" d="M118.2,487.8l-6.6-22.7c-0.2-0.5,0.2-1.1,0.7-1.3c0.5-0.2,1.1,0.1,1.3,0.6l8.2,22.2c0.4,1-0.1,2-1.1,2.4
					c-1,0.4-2-0.1-2.4-1.1l0,0C118.3,487.9,118.2,487.9,118.2,487.8z"/>
				
					<ellipse transform="matrix(0.9498 -0.3128 0.3128 0.9498 -139.0677 58.1841)" class="st56" cx="111.8" cy="462.5" rx="1.5" ry="1.8"/>
				<path class="st56" d="M63.2,537.9l20.7,11.4c0.5,0.3,0.7,0.9,0.4,1.4c-0.3,0.5-0.9,0.7-1.3,0.4l-21.5-9.9
					c-0.9-0.4-1.3-1.5-0.9-2.5c0.4-0.9,1.5-1.3,2.5-0.9C63.1,537.9,63.2,537.9,63.2,537.9z"/>
				
					<ellipse transform="matrix(0.4504 -0.8928 0.8928 0.4504 -445.119 379.4103)" class="st56" cx="85.6" cy="551.3" rx="1.5" ry="1.8"/>
				<path class="st35" d="M119.5,483.2c0.1,0.3,0.1,0.7-0.1,1l-1.4,3.1c-0.3,0.7-1.2,1.1-2,0.7c-0.7-0.3-1.1-1.2-0.8-1.9l1.4-3.1
					c0.3-0.8,1.2-1.1,2-0.8C119.1,482.4,119.4,482.8,119.5,483.2z"/>
				<path class="st35" d="M63.4,546.4l-0.1,0c-2-0.3-3.5-2.1-3.2-4.2c0,0,0,0,0,0c4.2-32.9,18.4-34.5,20-34.5l0.3,7.5
					c0.1,0,0.1,0,0.2,0c-0.1,0-9.7,1.6-13.1,28C67.2,545.1,65.4,546.5,63.4,546.4z"/>
				<path class="st49" d="M67.2,514l8.3-7.9c2.6-2.5,6.7-2.4,9.1,0.2l0,0c2.5,2.6,2.4,6.7-0.2,9.1c0,0,0,0,0,0l-8.3,7.9
					c-0.4,0.4-1,0.4-1.4,0l-7.5-7.9C66.8,515,66.8,514.4,67.2,514C67.2,514,67.2,514,67.2,514z"/>
				<path class="st35" d="M82.9,504.4h9.6c1.9,0,3.5,1.5,3.5,3.5l0,0c0,1.9-1.5,3.5-3.5,3.5h-9.6c-1.9,0-3.5-1.5-3.5-3.5l0,0
					C79.4,505.9,81,504.4,82.9,504.4z"/>
				<line class="st57" x1="38.1" y1="539.4" x2="38.1" y2="601.8"/>
				<path class="st56" d="M36.3,547.3l-19.5,4.5c-0.6,0.1-1,0.7-0.9,1.4c0.1,0.5,0.6,0.9,1.1,0.9h42.1c0.6,0,1.1-0.5,1.1-1.1
					c0-0.5-0.4-1-0.9-1.1L40,547.3C38.8,547,37.5,547,36.3,547.3z"/>
				<path class="st58" d="M40,560.8l19.5-4.5c0.6-0.1,1-0.8,0.9-1.4c-0.1-0.5-0.6-0.9-1.1-0.9H17.1c-0.6,0-1.1,0.5-1.1,1.1
					c0,0.5,0.4,1,0.9,1.1l19.5,4.5C37.5,561,38.8,561,40,560.8z"/>
				<line class="st57" x1="154.6" y1="522.1" x2="154.6" y2="599.9"/>
				<path class="st56" d="M151.9,526.4l-24.3,11.1c-0.8,0.3-1.1,1.3-0.8,2c0.3,0.6,1,1,1.7,0.9l55.3-11.3c0.8-0.2,1.4-1,1.2-1.8
					c-0.1-0.7-0.7-1.2-1.5-1.2l-26.7-0.6C155.1,525.4,153.4,525.7,151.9,526.4z"/>
				<rect x="354.7" y="561.3" class="st59" width="13.3" height="46.7"/>
				<path class="st60" d="M302.4,519.2c-3.3,0-5.9-2.7-5.9-5.9c0-2.8,2-5.2,4.8-5.8c41.5-8.4,42.9-23.9,42.9-24c0,0.1,0,0.2,0,0.2
					l11.9-0.3c0.1,2.6-0.8,25.3-52.5,35.8C303.2,519.1,302.8,519.2,302.4,519.2z"/>
				<path class="st60" d="M308.4,509.7c-0.6,0-1.2-0.2-1.6-0.6l-4-3.6c-1-0.9-1-2.4-0.2-3.4c0.9-1,2.4-1,3.4-0.2l4,3.6
					c1,0.9,1,2.4,0.2,3.4C309.7,509.5,309.1,509.7,308.4,509.7z"/>
				<path class="st53" d="M337.6,484.1l12.6-13.2c3.9-4.1,10.4-4.3,14.5-0.4l0,0c4.1,3.9,4.3,10.4,0.4,14.5l-12.6,13.2
					c-0.6,0.6-1.6,0.7-2.2,0.1l-12.6-12C337,485.7,337,484.7,337.6,484.1L337.6,484.1z"/>
				<rect x="372.7" y="561.3" class="st60" width="13.3" height="46.7"/>
				<rect x="354.7" y="561.3" class="st61" width="13.3" height="30.3"/>
				<rect x="372.7" y="561.3" class="st61" width="13.3" height="30.3"/>
				<path class="st53" d="M357.7,467.5H382c5.5,0,9.9,4.4,9.9,9.9l-2,40.7l2,49c0,0.9-0.7,1.6-1.6,1.6h-40.9c-0.9,0-1.6-0.7-1.6-1.6
					l2.4-49l-2.4-40.7C347.8,471.9,352.2,467.5,357.7,467.5C357.7,467.5,357.7,467.5,357.7,467.5z"/>
				<path class="st54" d="M358.9,500h20.8c1,0,1.9,0.8,1.9,1.9v0c0,1-0.8,1.9-1.9,1.9h-20.8c-1,0-1.9-0.8-1.9-1.9v0
					C357.1,500.8,357.9,500,358.9,500z"/>
				<path class="st60" d="M391.7,544.1c-3.3,0-5.9-2.7-5.9-5.9c0-0.3,0-0.7,0.1-1c7.3-41.7-6.6-48.7-6.8-48.7c0.1,0,0.2,0.1,0.2,0.1
					l4-11.2c2.4,0.9,23.3,9.9,14.2,61.9C397,542,394.6,544.1,391.7,544.1z"/>
				<path class="st60" d="M383.6,535.1c-1.3,0-2.4-1.1-2.4-2.4c0-0.9,0.5-1.7,1.3-2.1l4.8-2.4c1.2-0.6,2.6-0.1,3.2,1.1
					c0.6,1.2,0.1,2.6-1.1,3.1l-4.8,2.4C384.3,535,383.9,535.1,383.6,535.1z"/>
				<path class="st53" d="M382.1,498.9l-8.9-15.9c-2.8-5-1-11.2,3.9-14l0,0c5-2.8,11.2-1,14,3.9l8.9,15.9c0.4,0.8,0.2,1.7-0.6,2.2
					l-15.2,8.5C383.5,499.9,382.6,499.7,382.1,498.9z"/>
				<circle class="st11" cx="391.3" cy="448.7" r="10"/>
				<circle class="st11" cx="352.5" cy="448.7" r="10"/>
				<circle class="st11" cx="381.4" cy="455" r="10"/>
				<circle class="st11" cx="362.7" cy="455" r="10"/>
				<circle class="st11" cx="395.6" cy="437.6" r="10"/>
				<circle class="st11" cx="349.5" cy="439" r="12.5"/>
				<circle class="st11" cx="352.8" cy="422.7" r="12.5"/>
				<path class="st62" d="M375.9,477h-13c-2.6,0-4.7-2.1-4.7-4.7v0c0-2.6,2.1-4.7,4.7-4.7h13c2.6,0,4.7,2.1,4.7,4.7v0
					C380.6,474.8,378.5,477,375.9,477z"/>
				<path class="st62" d="M369.4,473.4L369.4,473.4c-2.6,0-4.8-2.1-4.8-4.8c0,0,0,0,0,0v-7.7l0,0h9.5l0,0v7.7
					C374.2,471.3,372,473.4,369.4,473.4C369.4,473.4,369.4,473.4,369.4,473.4L369.4,473.4z"/>
				<circle class="st62" cx="390" cy="441.4" r="6.6"/>
				<circle class="st62" cx="348.9" cy="441.4" r="6.6"/>
				<path class="st60" d="M369.4,414.1L369.4,414.1c11.3,0,20.5,9.2,20.5,20.5v10.1c0,11.3-9.2,20.5-20.5,20.5h0
					c-11.3,0-20.5-9.2-20.5-20.5v-10.1C348.9,423.3,358.1,414.1,369.4,414.1z"/>
				<path class="st63" d="M356.2,443.4c-1.9,0-3.6-1-4.6-2.6c-0.3-0.5-0.2-1.1,0.3-1.4c0.5-0.3,1.1-0.2,1.4,0.3c0,0,0.1,0.1,0.1,0.1
					c0.9,1.6,2.9,2.1,4.5,1.2c0.5-0.3,0.9-0.7,1.2-1.2c0.2-0.5,0.8-0.7,1.4-0.5c0.5,0.2,0.7,0.8,0.5,1.4c0,0,0,0.1-0.1,0.1
					C359.8,442.4,358,443.4,356.2,443.4z"/>
				<path class="st63" d="M376.1,443.4c-1.9,0-3.6-1-4.6-2.6c-0.3-0.5-0.2-1.1,0.3-1.4c0.5-0.3,1.1-0.2,1.4,0.3c0,0,0.1,0.1,0.1,0.1
					c0.9,1.6,2.9,2.1,4.5,1.2c0.5-0.3,0.9-0.7,1.2-1.2c0.2-0.5,0.8-0.7,1.4-0.5c0.5,0.2,0.7,0.8,0.5,1.4c0,0,0,0.1-0.1,0.1
					C379.7,442.4,378,443.4,376.1,443.4z"/>
				<path class="st41" d="M351.8,436.5c-0.6,0-1-0.5-1-1c0-0.1,0-0.2,0.1-0.3c1-2.6,3.8-3.9,6.4-3c0.5,0.2,0.8,0.7,0.7,1.3
					c-0.2,0.5-0.7,0.8-1.3,0.7c0,0-0.1,0-0.1,0c-1.5-0.6-3.3,0.2-3.8,1.8C352.6,436.2,352.2,436.5,351.8,436.5z"/>
				<path class="st41" d="M378.7,436.5c-0.4,0-0.8-0.3-0.9-0.7c-0.6-1.5-2.3-2.3-3.8-1.8c-0.5,0.2-1.1-0.1-1.3-0.7
					c-0.1-0.5,0.1-1,0.6-1.2c2.6-1,5.5,0.4,6.4,3c0.2,0.5-0.1,1.1-0.6,1.3C378.9,436.5,378.8,436.5,378.7,436.5L378.7,436.5z"/>
				<circle class="st11" cx="369.8" cy="418.2" r="10"/>
				<circle class="st11" cx="355.4" cy="415.5" r="10"/>
				<circle class="st11" cx="385.6" cy="412.8" r="12.1"/>
				<circle class="st11" cx="367.7" cy="410.4" r="12.2"/>
				<circle class="st11" cx="394.8" cy="425.5" r="10"/>
				<circle class="st11" cx="383.2" cy="420.9" r="7.3"/>
				<circle class="st11" cx="391.9" cy="430.3" r="7.3"/>
				<path class="st63" d="M366.3,450.6h-2.3c-1.1,0-2-0.9-2-2v-4.1c0-0.6,0.5-1,1-1s1,0.5,1,1v3.9h2.2c0.6,0,1,0.5,1,1.1
					C367.3,450.1,366.8,450.6,366.3,450.6L366.3,450.6z"/>
				<circle class="st11" cx="363.7" cy="468.6" r="1.6"/>
				<circle class="st11" cx="367.2" cy="470.9" r="1.6"/>
				<circle class="st11" cx="371.6" cy="470.9" r="1.6"/>
				<circle class="st11" cx="375.1" cy="468.6" r="1.6"/>
				<path class="st64" d="M372.3,475.4h-1.8v-1.8c0-0.3-0.3-0.6-0.6-0.6h-1c-0.3,0-0.6,0.3-0.6,0.6v1.8h-1.8c-0.3,0-0.6,0.3-0.6,0.6
					v1c0,0.3,0.3,0.6,0.6,0.6h1.8v3.7c0,0.3,0.3,0.6,0.6,0.6h1c0.3,0,0.6-0.3,0.6-0.6v-3.7h1.8c0.3,0,0.6-0.3,0.6-0.6v-1
					C372.9,475.6,372.7,475.4,372.3,475.4L372.3,475.4z"/>
				<path class="st44" d="M365,453.4h11.3l0,0v2.7c0,2.7-2.2,4.9-4.9,4.9h0h-4.9c-0.9,0-1.5-0.7-1.5-1.5v0L365,453.4L365,453.4z"/>
				<rect x="364.8" y="453.4" class="st46" width="11.7" height="2.9"/>
				<path class="st45" d="M375.7,458.6c-1.2-1.3-3.2-1.3-4.5-0.1c-0.6,0.6-1,1.4-1,2.3c0,0.1,0,0.2,0,0.2h1.2
					C373.2,461,374.8,460.1,375.7,458.6z"/>
				<rect x="315.9" y="479.9" class="st41" width="5" height="127.2"/>
				<rect x="315.9" y="477.1" class="st27" width="5" height="10.2"/>
				<circle class="st47" cx="330.6" cy="468.3" r="8"/>
				<path class="st41" d="M322.5,469.3l4.1,6l0,0L310,486.7c-0.6,0.4-1.5,0.3-2-0.4l0,0l-2.5-3.7c-0.4-0.6-0.3-1.5,0.4-2l0,0
					L322.5,469.3L322.5,469.3z"/>
				<circle class="st65" cx="332" cy="465.5" r="2"/>
				<path class="st41" d="M226.8,461.9L226.8,461.9c6-3.5,13.7-1.4,17.1,4.6l0,0l10.2,17.6c0.6,1.1,0.3,2.6-0.9,3.2c0,0,0,0,0,0
					l-17.7,10.2c-1.1,0.6-2.6,0.3-3.2-0.9l0,0l-10.2-17.6C218.8,473.1,220.8,465.4,226.8,461.9L226.8,461.9z"/>
				<path class="st41" d="M202.2,460h27.9c6.6,0,11.9,5.3,11.9,11.9l0,0l0,61.3c0,2.6-2.1,4.7-4.7,4.7l-42.3,0
					c-2.6,0-4.7-2.1-4.7-4.7l0-61.3C190.3,465.4,195.6,460,202.2,460z"/>
				<rect x="198.9" y="538" class="st66" width="34.7" height="13"/>
				<polygon class="st61" points="253,622.3 232.8,622.3 217.3,537.9 237.6,537.9 				"/>
				<path class="st67" d="M226.7,538h3.3c1.3,4.5,4.8,8.1,9.3,9.5l0.7,3.5C233.7,549.5,228.1,544.3,226.7,538z"/>
				<polygon class="st61" points="180.2,622.3 200.4,622.3 215.8,537.9 195.6,537.9 				"/>
				<path class="st67" d="M206.4,538h-3.3c-1.3,4.5-4.8,8.1-9.3,9.5l-0.7,3.5C199.5,549.5,205,544.3,206.4,538z"/>
				<line class="st68" x1="242.6" y1="501.8" x2="272.8" y2="480.6"/>
				<path class="st69" d="M282.3,467.1l6.4,9.2c1.3,1.8,0.8,4.4-1,5.7l-9.2,6.4c-1.8,1.3-4.4,0.8-5.7-1l-6.4-9.2
					c-1.3-1.8-0.8-4.4,1-5.7l9.2-6.4C278.4,464.8,281,465.2,282.3,467.1z"/>
				<line class="st70" x1="279.1" y1="472.3" x2="288.5" y2="465.7"/>
				<path class="st53" d="M241.1,529.8c7,0.6,13.1-4.6,13.6-11.5c0.6-6.9-4.5-13-11.4-13.6l-4.7-0.4c-5.7-0.5-9.9-5.5-9.4-11.2
					c0-0.5,0.1-1.1,0.3-1.6c0.9-3.8-1.4-7.6-5.1-8.5s-7.6,1.4-8.5,5.1l-0.1,0.5c-1.2,4.8-5.5,8.1-10.4,8c-11,0-21.9,3.5-27.2,13.9
					c-4.3,8.5-2.9,18.9,1.7,27.1c7,12.4,22,22.7,36.5,16.7c8-3.3,13.2-11.2,16.1-19C233.8,531.7,237.3,529.5,241.1,529.8z"/>
				<path class="st11" d="M220.3,505.9l8.3,11.6c1.2,1.7,0.8,4.1-0.9,5.3l0,0c-1.7,1.2-4.1,0.8-5.3-0.9l-8.3-11.6
					c-1.2-1.7-0.8-4.1,0.9-5.3l0,0C216.7,503.8,219.1,504.2,220.3,505.9z"/>
				<path class="st11" d="M193.8,521.8l11.2,15.6c0.4,0.6,0.3,1.4-0.3,1.8l0,0c-0.6,0.4-1.4,0.3-1.8-0.3l-11.2-15.6
					c-0.4-0.6-0.3-1.4,0.3-1.8l0,0C192.6,521.1,193.4,521.3,193.8,521.8z"/>
				<path class="st71" d="M208.3,513.2l9.7,13.6c0.8,1.2,0.6,2.8-0.6,3.6l-3.4,2.4c-1.2,0.8-2.8,0.6-3.6-0.6l-9.7-13.6
					c-0.8-1.2-0.6-2.8,0.6-3.6l3.4-2.4C205.8,511.8,207.4,512,208.3,513.2z"/>
				<path class="st15" d="M309.6,457.1l-6.2-8.6c-1-1.4-2.9-1.7-4.3-0.7c0,0,0,0,0,0l-14.4,10.3c-1,0.7-1.7,1.7-2.1,2.8l-0.8,2.5
					c-0.4,1.1-1.1,2.1-2.1,2.8l-58,41.6l5.4,7.6l58-41.6c1-0.7,2.2-1.1,3.4-1.1l2.7,0c1.2,0,2.4-0.3,3.4-1.1l14.4-10.3
					C310.3,460.5,310.6,458.5,309.6,457.1C309.6,457.1,309.6,457.1,309.6,457.1z"/>
				<path class="st11" d="M298.8,471.7L298.8,471.7c0.4,0.6,0.3,1.5-0.3,1.9l-1.1,0.8c-0.6,0.4-1.5,0.3-1.9-0.3l0,0
					c-0.4-0.6-0.3-1.5,0.3-1.9l1.1-0.8C297.6,471,298.4,471.1,298.8,471.7z"/>
				<path class="st11" d="M304.5,467.4L304.5,467.4c0.4,0.6,0.3,1.5-0.3,1.9l-1.1,0.8c-0.6,0.4-1.5,0.3-1.9-0.3l0,0
					c-0.4-0.6-0.3-1.5,0.3-1.9l1.1-0.8C303.3,466.7,304.1,466.8,304.5,467.4z"/>
				<path class="st11" d="M310.2,463.4L310.2,463.4c0.4,0.6,0.3,1.5-0.3,1.9l-1.1,0.8c-0.6,0.4-1.5,0.3-1.9-0.3l0,0
					c-0.4-0.6-0.3-1.5,0.3-1.9l1.1-0.8C308.9,462.6,309.7,462.8,310.2,463.4z"/>
				<path class="st11" d="M286.3,453.9L286.3,453.9c0.4,0.6,0.3,1.5-0.3,1.9l-1.1,0.8c-0.6,0.4-1.5,0.3-1.9-0.3l0,0
					c-0.4-0.6-0.3-1.5,0.3-1.9l1.1-0.8C285,453.2,285.9,453.3,286.3,453.9z"/>
				<path class="st11" d="M291.9,449.9L291.9,449.9c0.4,0.6,0.3,1.5-0.3,1.9l-1.1,0.8c-0.6,0.4-1.5,0.3-1.9-0.3l0,0
					c-0.4-0.6-0.3-1.5,0.3-1.9l1.1-0.8C290.7,449.1,291.5,449.2,291.9,449.9z"/>
				<path class="st11" d="M297.6,445.8L297.6,445.8c0.4,0.6,0.3,1.5-0.3,1.9l-1.1,0.8c-0.6,0.4-1.5,0.3-1.9-0.3l0,0
					c-0.4-0.6-0.3-1.5,0.3-1.9l1.1-0.8C296.3,445.1,297.1,445.2,297.6,445.8z"/>
				<path class="st69" d="M197.9,544.4c-0.3-0.4-0.5-0.8-0.7-1.3c-23.3-58.9-0.9-74.7,1.7-76.3l7.4,12.2c0.1,0,0.2-0.1,0.2-0.2
					c-0.2,0.1-14.8,11.7,3.9,59c1.4,3.7-0.4,7.8-4,9.3C203.4,548.4,199.8,547.2,197.9,544.4L197.9,544.4z"/>
				<path class="st69" d="M202,531c-0.9-1.3-0.7-3.1,0.6-4c0.6-0.5,1.5-0.7,2.3-0.5l6.4,1.2c1.6,0.3,2.6,1.8,2.3,3.3
					c-0.3,1.6-1.8,2.6-3.3,2.3c0,0,0,0-0.1,0l-6.4-1.2C203.1,531.9,202.4,531.5,202,531z"/>
				<path class="st41" d="M183.4,489.3l7-20.7c2.2-6.5,9.2-9.9,15.7-7.7l0,0c6.5,2.2,9.9,9.2,7.7,15.7l-7,20.7
					c-0.3,1-1.4,1.5-2.4,1.2l-19.8-6.7C183.6,491.4,183.1,490.3,183.4,489.3C183.4,489.3,183.4,489.3,183.4,489.3z"/>
				<circle class="st69" cx="192.2" cy="430.1" r="8"/>
				<circle class="st69" cx="241.6" cy="430.1" r="8"/>
				<path class="st69" d="M216.8,471.3L216.8,471.3c-3.4,0-6.2-2.8-6.2-6.2l0,0l0-9.9l0,0l12.3,0l0,0l0,9.9
					C223,468.6,220.3,471.3,216.8,471.3L216.8,471.3L216.8,471.3z"/>
				<path class="st14" d="M192.2,404.7V420v15.3c0,13.6,11,24.7,24.7,24.7c0,0,0,0,0,0l0,0c13.6,0,24.7-11,24.7-24.7V420v-15.2
					L192.2,404.7z"/>
				<line class="st42" x1="219.3" y1="436.3" x2="214" y2="436.3"/>
				<path class="st72" d="M214,437.6h5.3c0.7,0,1.3-0.6,1.3-1.3s-0.6-1.3-1.3-1.3H214c-0.7,0-1.3,0.6-1.3,1.3S213.3,437.6,214,437.6
					z"/>
				<path class="st15" d="M233,421.3c0.7,0,1.2-0.5,1.2-1.2c0-0.1,0-0.3-0.1-0.4c-1.1-3.1-4.6-4.7-7.7-3.6c-0.6,0.3-0.9,1-0.7,1.6
					c0.2,0.6,0.9,0.9,1.5,0.7c1.9-0.7,3.9,0.3,4.6,2.1c0,0,0,0,0,0C232,421,232.5,421.3,233,421.3z"/>
				<path class="st15" d="M200.7,421.3c0.5,0,1-0.3,1.1-0.8c0.7-1.9,2.7-2.8,4.6-2.1c0.6,0.2,1.3-0.1,1.5-0.8
					c0.2-0.6-0.1-1.2-0.7-1.5c-3.1-1.1-6.6,0.4-7.7,3.5c-0.2,0.6,0.1,1.3,0.7,1.6C200.4,421.2,200.6,421.3,200.7,421.3z"/>
				<circle class="st15" cx="203.1" cy="391.3" r="18.9"/>
				<path class="st15" d="M189.9,398.3h5.1l0,0v28.5c0,1.4-1.1,2.6-2.6,2.6c0,0,0,0,0,0l0,0c-1.4,0-2.6-1.1-2.6-2.6l0,0V398.3
					L189.9,398.3z"/>
				<path class="st15" d="M237.9,397.6h5.1l0,0v29.2c0,1.4-1.1,2.6-2.6,2.6c0,0,0,0,0,0l0,0c-1.4,0-2.6-1.1-2.6-2.6l0,0V397.6
					L237.9,397.6z"/>
				<path class="st44" d="M215.1,441h16.2l0,0v3.9c0,3.9-3.1,7-7,7h-7c-1.2,0-2.2-1-2.2-2.2l0,0L215.1,441L215.1,441z"/>
				<rect x="214.8" y="440.9" class="st46" width="16.9" height="4.2"/>
				<path class="st45" d="M230.4,448.3c-1.8-1.8-4.6-1.9-6.5-0.1c-0.9,0.9-1.4,2-1.4,3.3c0,0.1,0,0.2,0,0.3h1.8
					C226.8,451.8,229.1,450.5,230.4,448.3z"/>
				<path class="st72" d="M209.8,429.3c-0.5,0-0.9-0.4-1.1-0.8c-0.3-1.5-1.8-2.4-3.3-2.1c-1,0.2-1.8,1-2.1,2.1
					c-0.1,0.6-0.7,0.9-1.3,0.8c-0.6-0.1-0.9-0.7-0.8-1.3c0.6-2.6,3.2-4.3,5.9-3.7c1.8,0.4,3.3,1.9,3.7,3.7c0.1,0.6-0.2,1.2-0.8,1.3
					C210,429.3,209.9,429.3,209.8,429.3L209.8,429.3z"/>
				<path class="st72" d="M229.6,429.3c-0.5,0-0.9-0.4-1.1-0.8c-0.3-1.5-1.8-2.4-3.3-2.1c-1,0.2-1.8,1-2.1,2.1
					c-0.1,0.6-0.7,0.9-1.3,0.8c-0.6-0.1-0.9-0.7-0.8-1.3c0.6-2.6,3.2-4.3,5.9-3.7c1.8,0.4,3.3,1.9,3.7,3.7c0.1,0.6-0.2,1.2-0.8,1.3
					c0,0,0,0,0,0C229.8,429.3,229.7,429.3,229.6,429.3z"/>
				<path class="st15" d="M232.6,384.5l-24.4-3.8v25H243v-9.1C243,390.6,238.6,385.4,232.6,384.5z"/>
				<line class="st73" x1="288.6" y1="481.9" x2="282" y2="472.5"/>
				<line class="st73" x1="282.8" y1="486" x2="276.2" y2="476.5"/>
				<line class="st73" x1="277.1" y1="490" x2="270.5" y2="480.6"/>
				<rect x="291" y="550.8" class="st41" width="7" height="98.4"/>
				<rect x="291" y="550.8" class="st27" width="7" height="5.2"/>
				<path class="st41" d="M272.3,476.1h44.4c4,0,7.2,3.2,7.2,7.2v60.3c0,4-3.2,7.2-7.2,7.2h-44.4c-4,0-7.2-3.2-7.2-7.2v-60.3
					C265,479.4,268.3,476.1,272.3,476.1z"/>
				<path class="st74" d="M316.2,487v52.9c0,0.3-0.2,0.6-0.6,0.6h-42.4c-0.3,0-0.6-0.2-0.6-0.6V487c0-0.3,0.2-0.6,0.6-0.6h42.4
					C315.9,486.5,316.2,486.7,316.2,487z"/>
				<circle class="st27" cx="294.4" cy="546.1" r="1.8"/>
				<path class="st11" d="M294.4,502.5c-8.8,0-11,2.2-11,11c0,8.8,2.2,11,11,11s11-2.2,11-11C305.4,504.7,303.2,502.5,294.4,502.5z
					 M289.5,518.5c-0.6,0-1.2-0.5-1.2-1.2c0-0.6,0.5-1.2,1.2-1.2c0.6,0,1.2,0.5,1.2,1.2C290.6,517.9,290.1,518.5,289.5,518.5
					L289.5,518.5z M289.5,514.7c-0.6,0-1.2-0.5-1.2-1.2c0-0.6,0.5-1.2,1.2-1.2c0.6,0,1.2,0.5,1.2,1.2
					C290.6,514.1,290.1,514.7,289.5,514.7L289.5,514.7z M289.5,510.9c-0.6,0-1.2-0.5-1.2-1.2s0.5-1.2,1.2-1.2c0.6,0,1.2,0.5,1.2,1.2
					S290.1,510.9,289.5,510.9L289.5,510.9z M300,517.8c0,0.3-0.2,0.5-0.5,0.5h-7c-0.3,0-0.5-0.2-0.5-0.5v-1c0-0.3,0.2-0.5,0.5-0.5h7
					c0.3,0,0.5,0.2,0.5,0.5V517.8z M300,514c0,0.3-0.2,0.5-0.5,0.5h-7c-0.3,0-0.5-0.2-0.5-0.5v-1c0-0.3,0.2-0.5,0.5-0.5h7
					c0.3,0,0.5,0.2,0.5,0.5V514z M300,510.2c0,0.3-0.2,0.5-0.5,0.5c0,0,0,0,0,0h-7c-0.3,0-0.5-0.2-0.5-0.5c0,0,0,0,0,0v-1
					c0-0.3,0.2-0.5,0.5-0.5c0,0,0,0,0,0h7c0.3,0,0.5,0.2,0.5,0.5c0,0,0,0,0,0V510.2z"/>
				<rect x="171.6" y="460.5" class="st41" width="7" height="178"/>
				<rect x="171.6" y="456.7" class="st27" width="7" height="14.3"/>
				<circle class="st47" cx="192.2" cy="444.3" r="11.3"/>
				<path class="st41" d="M180.9,445.7l5.8,8.4l0,0l-23.3,15.9c-0.9,0.6-2.1,0.4-2.8-0.5l-3.5-5.1c-0.6-0.9-0.4-2.1,0.5-2.8
					L180.9,445.7L180.9,445.7L180.9,445.7z"/>
				<circle class="st65" cx="194.2" cy="440.4" r="2.9"/>
			</g>
		</g>
		<path class="st1" d="M721.3,201.4l-347.1,89.4c-9.2,2.4-14.8,11.8-12.3,21.1c0.7,2.8,2.1,5.3,4.1,7.4l222,237.1
			c8.6,9.2,20.6,14.4,33.2,14.4h104.6c9.5,0,17.3-7.7,17.3-17.3V218.1c0-9.5-7.7-17.3-17.3-17.3C724.2,200.8,722.7,201,721.3,201.4z
			"/>
		<path class="st1" d="M42.2,5.5H16.9c-9,0-16.2,7.3-16.2,16.2V336c0,9,7.3,16.2,16.2,16.2c1.4,0,2.8-0.2,4.1-0.5l260.9-68.3
			c8.7-2.3,13.9-11.1,11.6-19.8c-0.7-2.6-2-5-3.9-7L62.9,14.5C57.5,8.8,50,5.5,42.2,5.5z"/>
		<path class="st11" d="M568.8,113.3c0.2-0.7-0.2-1.5-0.9-1.7c0,0,0,0,0,0L566,111l-2.5-0.8l-0.8,2.6l-1.5,4.9
			c-0.3-0.2-0.7-0.4-1.1-0.5c-2-0.6-4,0.1-4.5,1.6c-0.5,1.5,0.8,3.3,2.8,3.9s4-0.1,4.5-1.6l2.3-7.5l1.9,0.6
			C567.8,114.5,568.6,114.1,568.8,113.3C568.8,113.3,568.8,113.3,568.8,113.3L568.8,113.3z"/>
		<g>
			<defs>
				<path id="SVGID_9_" d="M42.5,5.9H17.2C8.2,5.9,1,13.2,1,22.1c0,0,0,0,0,0v314.3c0,9,7.3,16.2,16.2,16.2c1.4,0,2.8-0.2,4.1-0.5
					l260.9-68.3c8.7-2.3,13.9-11.1,11.6-19.8c-0.7-2.6-2-5-3.9-7L63.2,14.9C57.9,9.1,50.4,5.9,42.5,5.9z"/>
			</defs>
			<clipPath id="SVGID_10_">
				<use xlink:href="#SVGID_9_"  style="overflow:visible;"/>
			</clipPath>
			<g class="st75">
				<rect x="-42" y="222.7" class="st76" width="362.3" height="172.2"/>
				<path class="st77" d="M169.6,204.3h4.4c1.7,0,3.1,1.4,3.1,3.1v1.1c0,1.7-1.4,3.1-3.1,3.1h-4.4c-1.7,0-3.1-1.4-3.1-3.1v-1.1
					C166.5,205.7,167.9,204.3,169.6,204.3z"/>
				<path class="st77" d="M99.1,204.3h4.4c1.7,0,3.1,1.4,3.1,3.1v1.1c0,1.7-1.4,3.1-3.1,3.1h-4.4c-1.7,0-3.1-1.4-3.1-3.1v-1.1
					C96,205.7,97.4,204.3,99.1,204.3z"/>
				<path class="st78" d="M116.3,235.3h41.1c1.4,0,2.6,1.2,2.6,2.6v0c0,1.4-1.2,2.6-2.6,2.6h-41.1c-1.4,0-2.6-1.2-2.6-2.6v0
					C113.7,236.4,114.8,235.3,116.3,235.3z"/>
				<path class="st41" d="M102.8,233.3h12.6l0,0v14.6c0,0.9-0.7,1.6-1.6,1.6c0,0,0,0,0,0h-9.4c-0.9,0-1.6-0.7-1.6-1.6l0,0V233.3
					L102.8,233.3z"/>
				<path class="st41" d="M158.6,233.3h12.6l0,0v14.6c0,0.9-0.7,1.6-1.6,1.6h0h-9.4c-0.9,0-1.6-0.7-1.6-1.6v0L158.6,233.3
					L158.6,233.3z"/>
				
					<linearGradient id="SVGID_11_" gradientUnits="userSpaceOnUse" x1="136.3847" y1="396.8313" x2="136.3847" y2="327.9955" gradientTransform="matrix(1 0 0 -1 0 572.744)">
					<stop  offset="0" style="stop-color:#2194F4;stop-opacity:0.5"/>
					<stop  offset="1" style="stop-color:#2194F4;stop-opacity:0"/>
				</linearGradient>
				<path class="st79" d="M160.1,215.7h-47.4c-2.5,0-4.6-2.1-4.6-4.6c0-0.3,0-0.7,0.1-1l3.8-17.6c0.5-2.1,2.3-3.6,4.5-3.6h39.7
					c2.2,0,4,1.5,4.5,3.6l3.8,17.6c0.5,2.5-1,4.9-3.5,5.5C160.7,215.6,160.4,215.7,160.1,215.7z"/>
				<path class="st80" d="M167.9,209.1l-3.8-17.6c-0.8-3.7-4.1-6.3-7.8-6.3h-39.7c-3.8,0-7,2.6-7.8,6.3l-3.8,17.6
					c-0.9,4.3,1.8,8.6,6.1,9.5c0.6,0.1,1.1,0.2,1.7,0.2h47.4c4.4,0,8-3.6,8-8C168.1,210.2,168,209.7,167.9,209.1L167.9,209.1z
					 M160.1,215.4h-47.4c-2.5,0-4.6-2.1-4.6-4.6c0-0.3,0-0.7,0.1-1l3.8-17.6c0.5-2.1,2.3-3.6,4.5-3.6h39.7c2.2,0,4,1.5,4.5,3.6
					l3.8,17.6c0.5,2.5-1,4.9-3.5,5.5C160.8,215.4,160.5,215.4,160.1,215.4z"/>
				<path class="st56" d="M109.8,209h54.8c4.7,0,8.5,3.8,8.5,8.5v9.9c0,2.4-1.9,4.3-4.3,4.3h-63.2c-2.4,0-4.3-1.9-4.3-4.3v-9.9
					C101.3,212.8,105.1,209,109.8,209C109.7,209,109.8,209,109.8,209z"/>
				<circle class="st77" cx="114.6" cy="220.7" r="6.7"/>
				<circle class="st81" cx="114.6" cy="220.7" r="4.2"/>
				<circle class="st77" cx="159.9" cy="220.7" r="6.7"/>
				<circle class="st81" cx="159.9" cy="220.7" r="4.2"/>
				<path class="st82" d="M133,231.3c0,0.1,0,0.2,0,0.4h8.3c0-0.1,0-0.2,0-0.4c0-11.1,8.3-20.5,19.3-21.9v-0.8
					c0-1.8-1.5-3.3-3.3-3.3h-40.4c-1.8,0-3.3,1.5-3.3,3.3v0.8C124.7,210.7,133,220.1,133,231.3z"/>
				<path class="st83" d="M125.6,220.1h23.3c1.4,0,2.6,1.2,2.6,2.6v7.6c0,1.4-1.2,2.6-2.6,2.6h-23.3c-1.4,0-2.6-1.2-2.6-2.6v-7.6
					C123,221.3,124.2,220.1,125.6,220.1z"/>
				<circle class="st81" cx="137.3" cy="224.9" r="3.1"/>
				<path class="st81" d="M128.2,223.5h4.9l0,0v2.9l0,0H131c-1.5,0-2.8-1.2-2.8-2.8v0V223.5L128.2,223.5z"/>
				<path class="st81" d="M143.6,226.3h-2.2l0,0v-2.9l0,0h4.9l0,0v0.1C146.4,225.1,145.1,226.3,143.6,226.3L143.6,226.3z"/>
				<path class="st47" d="M101.5,228.9h71.1c1.1,0,1.9,0.9,1.9,1.9v5c0,1.1-0.9,1.9-1.9,1.9h-71.1c-1.1,0-1.9-0.9-1.9-1.9v-5
					C99.6,229.8,100.4,228.9,101.5,228.9z"/>
				<path class="st78" d="M116.3,235.3h41.1c1.4,0,2.6,1.2,2.6,2.6v0c0,1.4-1.2,2.6-2.6,2.6h-41.1c-1.4,0-2.6-1.2-2.6-2.6v0
					C113.7,236.4,114.8,235.3,116.3,235.3z"/>
				<path class="st41" d="M102.8,233.3h12.6l0,0v14.6c0,0.9-0.7,1.6-1.6,1.6c0,0,0,0,0,0h-9.4c-0.9,0-1.6-0.7-1.6-1.6l0,0V233.3
					L102.8,233.3z"/>
				<path class="st41" d="M158.6,233.3h12.6l0,0v14.6c0,0.9-0.7,1.6-1.6,1.6h0h-9.4c-0.9,0-1.6-0.7-1.6-1.6v0L158.6,233.3
					L158.6,233.3z"/>
				
					<linearGradient id="SVGID_12_" gradientUnits="userSpaceOnUse" x1="135.6295" y1="377.4431" x2="135.6295" y2="308.6073" gradientTransform="matrix(1 0 0 -1 0 572.744)">
					<stop  offset="0" style="stop-color:#2194F4;stop-opacity:0.5"/>
					<stop  offset="1" style="stop-color:#2194F4;stop-opacity:0"/>
				</linearGradient>
				<path class="st84" d="M159.3,235h-47.4c-2.5,0-4.6-2.1-4.6-4.6c0-0.3,0-0.7,0.1-1l3.8-17.6c0.5-2.1,2.3-3.6,4.5-3.6h39.7
					c2.2,0,4,1.5,4.5,3.6l3.8,17.6c0.5,2.5-1,4.9-3.5,5.5C160,235,159.7,235,159.3,235z"/>
				<path class="st80" d="M167.9,209.1l-3.8-17.6c-0.8-3.7-4.1-6.3-7.8-6.3h-39.7c-3.8,0-7,2.6-7.8,6.3l-3.8,17.6
					c-0.9,4.3,1.8,8.6,6.1,9.5c0.6,0.1,1.1,0.2,1.7,0.2h47.4c4.4,0,8-3.6,8-8C168.1,210.2,168,209.7,167.9,209.1L167.9,209.1z
					 M160.1,215.4h-47.4c-2.5,0-4.6-2.1-4.6-4.6c0-0.3,0-0.7,0.1-1l3.8-17.6c0.5-2.1,2.3-3.6,4.5-3.6h39.7c2.2,0,4,1.5,4.5,3.6
					l3.8,17.6c0.5,2.5-1,4.9-3.5,5.5C160.8,215.4,160.5,215.4,160.1,215.4z"/>
				<path class="st56" d="M109.8,209h54.8c4.7,0,8.5,3.8,8.5,8.5v9.9c0,2.4-1.9,4.3-4.3,4.3h-63.2c-2.4,0-4.3-1.9-4.3-4.3v-9.9
					C101.3,212.8,105.1,209,109.8,209C109.7,209,109.8,209,109.8,209z"/>
				<circle class="st77" cx="114.6" cy="220.7" r="6.7"/>
				<circle class="st81" cx="114.6" cy="220.7" r="4.2"/>
				<circle class="st77" cx="159.9" cy="220.7" r="6.7"/>
				<circle class="st81" cx="159.9" cy="220.7" r="4.2"/>
				<path class="st82" d="M133,231.3c0,0.1,0,0.2,0,0.4h8.3c0-0.1,0-0.2,0-0.4c0-11.1,8.3-20.5,19.3-21.9v-0.8
					c0-1.8-1.5-3.3-3.3-3.3h-40.4c-1.8,0-3.3,1.5-3.3,3.3v0.8C124.7,210.7,133,220.1,133,231.3z"/>
				<path class="st83" d="M125.6,220.1h23.3c1.4,0,2.6,1.2,2.6,2.6v7.6c0,1.4-1.2,2.6-2.6,2.6h-23.3c-1.4,0-2.6-1.2-2.6-2.6v-7.6
					C123,221.3,124.2,220.1,125.6,220.1z"/>
				<circle class="st81" cx="137.3" cy="224.9" r="3.1"/>
				<path class="st81" d="M128.2,223.5h4.9l0,0v2.9l0,0H131c-1.5,0-2.8-1.2-2.8-2.8v0V223.5L128.2,223.5z"/>
				<path class="st81" d="M143.6,226.3h-2.2l0,0v-2.9l0,0h4.9l0,0v0.1C146.4,225.1,145.1,226.3,143.6,226.3L143.6,226.3z"/>
				<path class="st47" d="M101.5,228.9h71.1c1.1,0,1.9,0.9,1.9,1.9v5c0,1.1-0.9,1.9-1.9,1.9h-71.1c-1.1,0-1.9-0.9-1.9-1.9v-5
					C99.6,229.8,100.4,228.9,101.5,228.9z"/>
				<path class="st53" d="M265.3,204.3h4.4c1.7,0,3.1,1.4,3.1,3.1v1.1c0,1.7-1.4,3.1-3.1,3.1h-4.4c-1.7,0-3.1-1.4-3.1-3.1v-1.1
					C262.2,205.7,263.6,204.3,265.3,204.3z"/>
				<path class="st53" d="M188.5,204.3h4.4c1.7,0,3.1,1.4,3.1,3.1v1.1c0,1.7-1.4,3.1-3.1,3.1h-4.4c-1.7,0-3.1-1.4-3.1-3.1v-1.1
					C185.4,205.7,186.8,204.3,188.5,204.3z"/>
				<path class="st78" d="M205.6,235.3H253c1.4,0,2.6,1.2,2.6,2.6v0c0,1.4-1.2,2.6-2.6,2.6h-47.4c-1.4,0-2.6-1.2-2.6-2.6v0
					C203.1,236.4,204.2,235.3,205.6,235.3z"/>
				<path class="st41" d="M192.2,233.3h12.6l0,0v14.6c0,0.9-0.7,1.6-1.6,1.6h0h-9.4c-0.9,0-1.6-0.7-1.6-1.6v0L192.2,233.3
					L192.2,233.3z"/>
				<path class="st41" d="M254.3,233.3h12.7l0,0v14.6c0,0.9-0.7,1.6-1.6,1.6l0,0h-9.4c-0.9,0-1.6-0.7-1.6-1.6v0L254.3,233.3
					L254.3,233.3z"/>
				
					<linearGradient id="SVGID_13_" gradientUnits="userSpaceOnUse" x1="228.9141" y1="396.8313" x2="228.9141" y2="327.9955" gradientTransform="matrix(1 0 0 -1 0 572.744)">
					<stop  offset="0" style="stop-color:#2194F4;stop-opacity:0.5"/>
					<stop  offset="1" style="stop-color:#2194F4;stop-opacity:0"/>
				</linearGradient>
				<path class="st85" d="M255.8,215.7h-53.7c-2.5,0-4.6-2.1-4.6-4.6c0-0.3,0-0.7,0.1-1l3.8-17.6c0.5-2.1,2.3-3.6,4.5-3.6h46
					c2.2,0,4,1.5,4.5,3.6l3.8,17.6c0.5,2.5-1,4.9-3.5,5.5C256.4,215.6,256.1,215.7,255.8,215.7z"/>
				<path class="st80" d="M263.6,209.1l-3.8-17.6c-0.8-3.7-4.1-6.3-7.8-6.3h-46c-3.8,0-7,2.6-7.8,6.3l-3.8,17.6
					c-0.9,4.3,1.8,8.6,6.1,9.5c0.6,0.1,1.1,0.2,1.7,0.2h53.7c4.4,0,8-3.6,8-8C263.8,210.2,263.7,209.7,263.6,209.1L263.6,209.1z
					 M255.8,215.4h-53.7c-2.5,0-4.6-2.1-4.6-4.6c0-0.3,0-0.7,0.1-1l3.8-17.6c0.5-2.1,2.3-3.6,4.5-3.6h46c2.2,0,4,1.5,4.5,3.6
					l3.8,17.6c0.5,2.5-1,4.9-3.5,5.5C256.5,215.4,256.1,215.4,255.8,215.4z"/>
				<path class="st56" d="M199.1,209h61.1c4.7,0,8.5,3.8,8.5,8.5v9.9c0,2.4-1.9,4.3-4.3,4.3l0,0h-69.5c-2.4,0-4.3-1.9-4.3-4.3v-9.9
					C190.6,212.8,194.4,209,199.1,209C199.1,209,199.1,209,199.1,209z"/>
				<circle class="st77" cx="204" cy="220.7" r="6.7"/>
				<circle class="st81" cx="204" cy="220.7" r="4.2"/>
				<circle class="st77" cx="255.6" cy="220.7" r="6.7"/>
				
					<ellipse transform="matrix(0.1602 -0.9871 0.9871 0.1602 -3.1747 437.6488)" class="st81" cx="255.6" cy="220.7" rx="4.2" ry="4.2"/>
				<path class="st82" d="M222.4,231.3c0,0.1,0,0.2,0,0.4H237c0-0.1,0-0.2,0-0.4c0-11.1,8.3-20.5,19.3-21.9v-0.8
					c0-1.8-1.5-3.3-3.3-3.3c0,0,0,0,0,0h-46.7c-1.8,0-3.3,1.5-3.3,3.3c0,0,0,0,0,0v0.8C214.1,210.7,222.4,220.1,222.4,231.3z"/>
				<path class="st83" d="M215,220.1h29.6c1.4,0,2.6,1.2,2.6,2.6v7.6c0,1.4-1.2,2.6-2.6,2.6H215c-1.4,0-2.6-1.2-2.6-2.6v-7.6
					C212.4,221.3,213.6,220.1,215,220.1z"/>
				<path class="st81" d="M236,224.9c0-1.7-7.7-3.1-9.4-3.1c-1.7,0-3.1,1.3-3.1,3c0,1.7,1.3,3.1,3,3.1c0,0,0.1,0,0.1,0
					C228.4,228,236,226.6,236,224.9z"/>
				<path class="st81" d="M217.6,223.5h4.9l0,0v2.9l0,0h-2.2c-1.5,0-2.8-1.2-2.8-2.8v0V223.5L217.6,223.5z"/>
				<path class="st81" d="M239.3,226.3h-2.2l0,0v-2.9l0,0h4.9l0,0v0.1C242,225.1,240.8,226.3,239.3,226.3
					C239.3,226.3,239.3,226.3,239.3,226.3z"/>
				<path class="st47" d="M190.9,228.9h77.4c1.1,0,1.9,0.9,1.9,1.9v5c0,1.1-0.9,1.9-1.9,1.9h-77.4c-1.1,0-1.9-0.9-1.9-1.9v-5
					C189,229.8,189.8,228.9,190.9,228.9z"/>
				<path class="st78" d="M205.6,235.3H253c1.4,0,2.6,1.2,2.6,2.6v0c0,1.4-1.2,2.6-2.6,2.6h-47.4c-1.4,0-2.6-1.2-2.6-2.6v0
					C203.1,236.4,204.2,235.3,205.6,235.3z"/>
				<path class="st41" d="M192.2,233.3h12.6l0,0v14.6c0,0.9-0.7,1.6-1.6,1.6h0h-9.4c-0.9,0-1.6-0.7-1.6-1.6v0L192.2,233.3
					L192.2,233.3z"/>
				<path class="st41" d="M254.3,233.3h12.7l0,0v14.6c0,0.9-0.7,1.6-1.6,1.6l0,0h-9.4c-0.9,0-1.6-0.7-1.6-1.6v0L254.3,233.3
					L254.3,233.3z"/>
				
					<linearGradient id="SVGID_14_" gradientUnits="userSpaceOnUse" x1="228.1592" y1="377.4431" x2="228.1592" y2="308.6073" gradientTransform="matrix(1 0 0 -1 0 572.744)">
					<stop  offset="0" style="stop-color:#2194F4;stop-opacity:0.5"/>
					<stop  offset="1" style="stop-color:#2194F4;stop-opacity:0"/>
				</linearGradient>
				<path class="st86" d="M255,235h-53.7c-2.5,0-4.6-2.1-4.6-4.6c0-0.3,0-0.7,0.1-1l3.8-17.6c0.5-2.1,2.3-3.6,4.5-3.6h46
					c2.2,0,4,1.5,4.5,3.6l3.8,17.6c0.5,2.5-1,4.9-3.5,5.5C255.7,235,255.3,235,255,235z"/>
				<path class="st87" d="M263.6,209.1l-3.8-17.6c-0.8-3.7-4.1-6.3-7.8-6.3h-46c-3.8,0-7,2.6-7.8,6.3l-3.8,17.6
					c-0.9,4.3,1.8,8.6,6.1,9.5c0.6,0.1,1.1,0.2,1.7,0.2h53.7c4.4,0,8-3.6,8-8C263.8,210.2,263.7,209.7,263.6,209.1L263.6,209.1z
					 M255.8,215.4h-53.7c-2.5,0-4.6-2.1-4.6-4.6c0-0.3,0-0.7,0.1-1l3.8-17.6c0.5-2.1,2.3-3.6,4.5-3.6h46c2.2,0,4,1.5,4.5,3.6
					l3.8,17.6c0.5,2.5-1,4.9-3.5,5.5C256.5,215.4,256.1,215.4,255.8,215.4z"/>
				<path class="st53" d="M199.1,209h61.1c4.7,0,8.5,3.8,8.5,8.5v9.9c0,2.4-1.9,4.3-4.3,4.3l0,0h-69.5c-2.4,0-4.3-1.9-4.3-4.3v-9.9
					C190.6,212.8,194.4,209,199.1,209C199.1,209,199.1,209,199.1,209z"/>
				<circle class="st88" cx="204" cy="220.7" r="6.7"/>
				<circle class="st81" cx="204" cy="220.7" r="4.2"/>
				<circle class="st88" cx="255.6" cy="220.7" r="6.7"/>
				
					<ellipse transform="matrix(0.1602 -0.9871 0.9871 0.1602 -3.1747 437.6488)" class="st81" cx="255.6" cy="220.7" rx="4.2" ry="4.2"/>
				<path class="st87" d="M222.4,231.3c0,0.1,0,0.2,0,0.4H237c0-0.1,0-0.2,0-0.4c0-11.1,8.3-20.5,19.3-21.9v-0.8
					c0-1.8-1.5-3.3-3.3-3.3c0,0,0,0,0,0h-46.7c-1.8,0-3.3,1.5-3.3,3.3c0,0,0,0,0,0v0.8C214.1,210.7,222.4,220.1,222.4,231.3z"/>
				<path class="st83" d="M215,220.1h29.6c1.4,0,2.6,1.2,2.6,2.6v7.6c0,1.4-1.2,2.6-2.6,2.6H215c-1.4,0-2.6-1.2-2.6-2.6v-7.6
					C212.4,221.3,213.6,220.1,215,220.1z"/>
				<path class="st88" d="M190.9,228.9h77.4c1.1,0,1.9,0.9,1.9,1.9v5c0,1.1-0.9,1.9-1.9,1.9h-77.4c-1.1,0-1.9-0.9-1.9-1.9v-5
					C189,229.8,189.8,228.9,190.9,228.9z"/>
				<line class="st89" x1="215.6" y1="226.2" x2="244.1" y2="226.2"/>
				<line class="st89" x1="215.6" y1="223.2" x2="244.1" y2="223.2"/>
				<path class="st41" d="M29.8,129c3.7,4.6,6.2,10.1,7.2,15.9c3.2,18.8-9.4,36.7-28.2,39.9l-0.1,0c-2,0.3-3.4,2.2-3.1,4.1
					c0.1,1,0.7,1.8,1.4,2.4c15.4,11.3,37,7.9,48.3-7.5s7.9-37-7.5-48.3C42.6,131.7,36.3,129.4,29.8,129z"/>
				<rect x="67.5" y="295.9" class="st35" width="16.6" height="121.5"/>
				<path class="st54" d="M102.9,416.8H63.6v0.2v17.1c0,1.4,1.2,2.6,2.6,2.6l37.1,0v-19.9C103.2,416.8,103,416.8,102.9,416.8z"/>
				<path class="st31" d="M120,431.9c-1.5-5.8-5.7-14.8-16.7-15v19.9h12.9c2.1,0,3.9-1.7,3.9-3.9C120.1,432.5,120.1,432.2,120,431.9
					z"/>
				<path class="st90" d="M64.1,432.4h56c1.4,0,2.6,1.2,2.6,2.6v0c0,1.4-1.2,2.6-2.6,2.6h-56c-1.4,0-2.6-1.2-2.6-2.6v0
					C61.5,433.6,62.7,432.4,64.1,432.4z"/>
				<path class="st32" d="M84.2,416.8h13.3l0,0v5.9c0,1.2-1,2.2-2.2,2.2l0,0h-8.9c-1.2,0-2.2-1-2.2-2.2l0,0V416.8L84.2,416.8z"/>
				<rect x="39.7" y="295.9" class="st35" width="15.7" height="121.5"/>
				<rect x="64.2" y="295.9" class="st91" width="23.4" height="103.9"/>
				<rect x="35.9" y="295.9" class="st91" width="23.4" height="103.9"/>
				<path class="st53" d="M75.3,416.8l-36.9,0c-1.5,0-2.8,1.2-2.8,2.8c0,0,0,0,0,0v14.5c0,1.4,1.2,2.6,2.6,2.6c0,0,0,0,0,0l37.1,0
					L75.3,416.8L75.3,416.8z"/>
				<path class="st31" d="M92,431.9c-1.5-5.8-5.7-14.8-16.7-15v19.9h12.9c2.1,0,3.9-1.7,3.9-3.9C92.1,432.5,92,432.2,92,431.9z"/>
				<path class="st32" d="M36.1,432.4h56c1.4,0,2.6,1.2,2.6,2.6v0c0,1.4-1.2,2.6-2.6,2.6h-56c-1.4,0-2.6-1.2-2.6-2.6v0
					C33.5,433.6,34.7,432.4,36.1,432.4z"/>
				<path class="st33" d="M55.4,416.8h13.3l0,0v5.9c0,1.2-1,2.2-2.2,2.2l0,0h-8.9c-1.2,0-2.2-1-2.2-2.2l0,0L55.4,416.8
					C55.4,416.8,55.4,416.8,55.4,416.8z"/>
				<rect x="35.9" y="295.9" class="st91" width="51.6" height="14.8"/>
				<path class="st49" d="M78,184.5l-33,0c-9.2,0-16.7,7.5-16.7,16.7c0,0,0,0,0,0l2.8,27.9c2.2,21.5,1.4,43.1-2.4,64.4l-0.4,2.4
					c0,1.5,1.2,2.7,2.7,2.7c0,0,0,0,0,0l61,0c1.5,0,2.7-1.2,2.7-2.7c0,0,0,0,0,0l0,0c-4.3-22.8-5.3-46.1-2.8-69.2l2.8-25.4
					C94.7,192,87.3,184.5,78,184.5C78,184.5,78,184.5,78,184.5z"/>
				<path class="st35" d="M53.2,173h16.8l0,0v13.5c0,4.6-3.8,8.4-8.4,8.4l0,0l0,0c-4.6,0-8.4-3.8-8.4-8.4l0,0L53.2,173
					C53.2,173,53.2,173,53.2,173z"/>
				<path class="st41" d="M62,72.8L62,72.8c23.4,0,42.3,18.9,42.3,42.3v23.4l0,0H19.7l0,0v-23.4C19.7,91.7,38.6,72.8,62,72.8
					C62,72.8,62,72.8,62,72.8z"/>
				<circle class="st50" cx="25.4" cy="138.5" r="11.5"/>
				<circle class="st50" cx="97.7" cy="138.5" r="11.5"/>
				<path class="st35" d="M25.4,117.4v27c0,20,16.2,36.1,36.1,36.2l0,0c20,0,36.1-16.2,36.2-36.1l0-27L79,99.9L25.4,117.4z"/>
				<path class="st41" d="M39.2,129.8c-1,0-1.8-0.8-1.8-1.8c0-0.8,0.5-1.5,1.2-1.7l8.8-2.9c0.9-0.3,2,0.2,2.3,1.1
					c0.3,0.9-0.2,2-1.1,2.3c0,0-0.1,0-0.1,0l-8.8,2.9C39.6,129.8,39.4,129.8,39.2,129.8z"/>
				<path class="st41" d="M83.9,129.7c-0.2,0-0.4,0-0.6-0.1l-8.8-2.9c-1-0.3-1.5-1.3-1.2-2.3c0.3-1,1.3-1.5,2.3-1.2c0,0,0,0,0.1,0
					l8.8,2.9c1,0.3,1.5,1.4,1.2,2.3C85.4,129.2,84.7,129.7,83.9,129.7z"/>
				<path class="st43" d="M53.6,140.7c-0.9,0-1.6-0.6-1.8-1.4c-0.6-2.5-3.1-4.1-5.6-3.5c-1.7,0.4-3.1,1.8-3.5,3.5
					c-0.2,1-1.2,1.6-2.2,1.4c-1-0.2-1.6-1.2-1.4-2.2c1-4.5,5.4-7.3,9.9-6.3c3.1,0.7,5.6,3.1,6.3,6.3c0.2,1-0.4,2-1.4,2.2
					C53.8,140.7,53.7,140.7,53.6,140.7L53.6,140.7z"/>
				<path class="st43" d="M82.1,140.7c-0.9,0-1.6-0.6-1.8-1.4c-0.6-2.5-3.1-4.1-5.6-3.5c-1.7,0.4-3.1,1.8-3.5,3.5
					c-0.2,1-1.2,1.6-2.2,1.4c-1-0.2-1.6-1.2-1.4-2.2c1-4.5,5.4-7.3,9.9-6.3c3.1,0.7,5.6,3.1,6.3,6.3c0.2,1-0.4,2-1.4,2.2
					C82.4,140.7,82.3,140.7,82.1,140.7L82.1,140.7z"/>
				<path class="st51" d="M72.3,159.1c1.1,0,2.1,0.9,2.1,2c0,0.1,0,0.2,0,0.3c-1.3,7.1-8.1,11.8-15.2,10.5c-5.3-1-9.5-5.1-10.5-10.5
					c-0.2-1.1,0.6-2.2,1.7-2.3c0.1,0,0.2,0,0.3,0L72.3,159.1z"/>
				<path class="st45" d="M64,166.9c-2.9,0.9-5,2.9-5.1,4.9c4.4,0.9,9-0.5,12.1-3.7C69.7,166.6,66.9,166,64,166.9z"/>
				<path class="st46" d="M72.3,159H50.8c-1.1,0-2,0.9-2.1,2c0,0.1,0,0.2,0,0.3c0.1,0.7,0.3,1.5,0.6,2.2h24.4
					c0.3-0.7,0.5-1.4,0.6-2.2c0.2-1.1-0.6-2.1-1.7-2.3C72.6,159,72.4,159,72.3,159z"/>
				<path class="st35" d="M18.2,275.7c-0.8-0.1-1.6-0.4-2.1-1l-5.9-5.6c-1.4-1.3-1.5-3.6-0.2-5.1s3.6-1.5,5.1-0.2c0,0,0,0,0.1,0.1
					l5.9,5.6c1.4,1.4,1.5,3.6,0.1,5.1C20.4,275.4,19.3,275.8,18.2,275.7L18.2,275.7z"/>
				<path class="st35" d="M3.3,285.4c-0.1,0-0.2,0-0.3,0c-4.9-0.6-8.4-5.1-7.8-10c0,0,0,0,0,0c10-78.9,44.2-82.7,48-82.9l0.8,17.9
					c0.1,0,0.2,0,0.4,0c-0.2,0-23.4,3.9-31.4,67.3C12.4,282.4,8.1,285.8,3.3,285.4z"/>
				<path class="st49" d="M12.4,207.7l19.9-18.9c6.2-5.9,16-5.7,21.9,0.6l0,0l0,0c5.9,6.2,5.7,16-0.6,21.9h0l-19.9,18.9
					c-1,0.9-2.5,0.9-3.4-0.1l-18.1-19C11.4,210.2,11.4,208.6,12.4,207.7L12.4,207.7z"/>
				<path class="st35" d="M143.8,123.4c0.1,0,0.2,0.1,0.3,0.1c4.6,1.7,7,6.8,5.4,11.5c-27.1,74.7-61.3,70.9-65.1,70.3l3.1-17.6
					c-0.1,0-0.2,0-0.4-0.1c0.2,0,23.7,1.3,45.5-58.7C134.3,124.3,139.2,121.9,143.8,123.4z"/>
				<path class="st49" d="M117.9,197.1l-23.6,14.1c-7.4,4.4-16.9,2-21.3-5.4c0,0,0,0,0,0l0,0c-4.4-7.4-2-16.9,5.4-21.3l0,0
					l23.6-14.1c1.1-0.7,2.6-0.3,3.3,0.8l13.5,22.6C119.4,195,119.1,196.5,117.9,197.1C117.9,197.1,117.9,197.1,117.9,197.1z"/>
				<path class="st35" d="M50.1,184.5H73c4.6,0,8.3,3.7,8.3,8.3l0,0c0,4.6-3.7,8.3-8.3,8.3H50.1c-4.6,0-8.3-3.7-8.3-8.3l0,0
					C41.8,188.2,45.5,184.5,50.1,184.5z"/>
				<path class="st41" d="M79,87.3l-59,22.9c0.1,0.4,0.2,0.8,0.3,1.2c3.4,10.4,19.8,14.3,36.6,8.7s27.6-18.5,24.2-28.8
					C80.7,89.8,80,88.5,79,87.3z"/>
				<path class="st41" d="M104,117.2L77.3,95.5c-0.2,0.1-0.3,0.3-0.5,0.5c-4,4.4-1.4,13.2,5.8,19.6c7.1,6.4,16.2,8,20.1,3.6
					C103.3,118.6,103.7,117.9,104,117.2z"/>
				<path class="st41" d="M19.7,123.4h5.6l0,0V156c0,1.6-1.3,2.8-2.8,2.8l0,0c-1.6,0-2.8-1.3-2.8-2.8L19.7,123.4L19.7,123.4z"/>
				<path class="st41" d="M97.7,123.4h6.6l0,0v32.1c0,1.8-1.5,3.3-3.3,3.3l0,0c-1.8,0-3.3-1.5-3.3-3.3
					C97.7,155.5,97.7,123.4,97.7,123.4z"/>
				<path class="st35" d="M127.3,131.3c0.7,0.3,1.4,0.9,1.7,1.6l3.9,7.2c1,1.7,0.4,3.9-1.4,4.9c-1.7,1-3.9,0.4-4.9-1.4
					c0,0,0,0,0-0.1l-3.9-7.2c-1-1.7-0.3-3.9,1.4-4.9C125.1,130.9,126.3,130.8,127.3,131.3L127.3,131.3z"/>
				<rect x="42.1" y="235.4" class="st52" width="39.9" height="5.5"/>
				<path class="st43" d="M68.8,152.1H55.3c-1.2,0-2.1-1-2-2.1c0-1.1,0.9-2,2-2h13.5c1.2,0,2.1,0.9,2.1,2
					C71,151.1,70.1,152.1,68.8,152.1C68.9,152.1,68.9,152.1,68.8,152.1z"/>
				<path class="st41" d="M29.8,129c3.7,4.6,6.2,10.1,7.2,15.9c3.2,18.8-9.4,36.7-28.2,39.9l-0.1,0c-2,0.3-3.4,2.2-3.1,4.1
					c0.1,1,0.7,1.8,1.4,2.4c15.4,11.3,37,7.9,48.3-7.5s7.9-37-7.5-48.3C42.6,131.7,36.3,129.4,29.8,129z"/>
				<rect x="67.5" y="295.9" class="st35" width="16.6" height="121.5"/>
				<path class="st54" d="M102.9,416.8H63.6v0.2v17.1c0,1.4,1.2,2.6,2.6,2.6l37.1,0v-19.9C103.2,416.8,103,416.8,102.9,416.8z"/>
				<path class="st31" d="M120,431.9c-1.5-5.8-5.7-14.8-16.7-15v19.9h12.9c2.1,0,3.9-1.7,3.9-3.9C120.1,432.5,120.1,432.2,120,431.9
					z"/>
				<path class="st90" d="M64.1,432.4h56c1.4,0,2.6,1.2,2.6,2.6v0c0,1.4-1.2,2.6-2.6,2.6h-56c-1.4,0-2.6-1.2-2.6-2.6v0
					C61.5,433.6,62.7,432.4,64.1,432.4z"/>
				<path class="st32" d="M84.2,416.8h13.3l0,0v5.9c0,1.2-1,2.2-2.2,2.2l0,0h-8.9c-1.2,0-2.2-1-2.2-2.2l0,0V416.8L84.2,416.8z"/>
				<rect x="39.7" y="295.9" class="st35" width="15.7" height="121.5"/>
				<rect x="64.2" y="295.9" class="st91" width="23.4" height="103.9"/>
				<rect x="35.9" y="295.9" class="st91" width="23.4" height="103.9"/>
				<path class="st53" d="M75.3,416.8l-36.9,0c-1.5,0-2.8,1.2-2.8,2.8c0,0,0,0,0,0v14.5c0,1.4,1.2,2.6,2.6,2.6c0,0,0,0,0,0l37.1,0
					L75.3,416.8L75.3,416.8z"/>
				<path class="st31" d="M92,431.9c-1.5-5.8-5.7-14.8-16.7-15v19.9h12.9c2.1,0,3.9-1.7,3.9-3.9C92.1,432.5,92,432.2,92,431.9z"/>
				<path class="st32" d="M36.1,432.4h56c1.4,0,2.6,1.2,2.6,2.6v0c0,1.4-1.2,2.6-2.6,2.6h-56c-1.4,0-2.6-1.2-2.6-2.6v0
					C33.5,433.6,34.7,432.4,36.1,432.4z"/>
				<path class="st33" d="M55.4,416.8h13.3l0,0v5.9c0,1.2-1,2.2-2.2,2.2l0,0h-8.9c-1.2,0-2.2-1-2.2-2.2l0,0L55.4,416.8
					C55.4,416.8,55.4,416.8,55.4,416.8z"/>
				<rect x="35.9" y="295.9" class="st91" width="51.6" height="14.8"/>
				<path class="st49" d="M78,184.5l-33,0c-9.2,0-16.7,7.5-16.7,16.7c0,0,0,0,0,0l2.8,27.9c2.2,21.5,1.4,43.1-2.4,64.4l-0.4,2.4
					c0,1.5,1.2,2.7,2.7,2.7c0,0,0,0,0,0l61,0c1.5,0,2.7-1.2,2.7-2.7c0,0,0,0,0,0l0,0c-4.3-22.8-5.3-46.1-2.8-69.2l2.8-25.4
					C94.7,192,87.3,184.5,78,184.5C78,184.5,78,184.5,78,184.5z"/>
				<path class="st35" d="M53.2,173h16.8l0,0v13.5c0,4.6-3.8,8.4-8.4,8.4l0,0l0,0c-4.6,0-8.4-3.8-8.4-8.4l0,0L53.2,173
					C53.2,173,53.2,173,53.2,173z"/>
				<path class="st41" d="M62,72.8L62,72.8c23.4,0,42.3,18.9,42.3,42.3v23.4l0,0H19.7l0,0v-23.4C19.7,91.7,38.6,72.8,62,72.8
					C62,72.8,62,72.8,62,72.8z"/>
				<circle class="st50" cx="25.4" cy="138.5" r="11.5"/>
				<circle class="st50" cx="97.7" cy="138.5" r="11.5"/>
				<path class="st35" d="M25.4,117.4v27c0,20,16.2,36.1,36.1,36.2l0,0c20,0,36.1-16.2,36.2-36.1l0-27L79,99.9L25.4,117.4z"/>
				<path class="st41" d="M39.2,129.8c-1,0-1.8-0.8-1.8-1.8c0-0.8,0.5-1.5,1.2-1.7l8.8-2.9c0.9-0.3,2,0.2,2.3,1.1
					c0.3,0.9-0.2,2-1.1,2.3c0,0-0.1,0-0.1,0l-8.8,2.9C39.6,129.8,39.4,129.8,39.2,129.8z"/>
				<path class="st41" d="M83.9,129.7c-0.2,0-0.4,0-0.6-0.1l-8.8-2.9c-1-0.3-1.5-1.3-1.2-2.3c0.3-1,1.3-1.5,2.3-1.2c0,0,0,0,0.1,0
					l8.8,2.9c1,0.3,1.5,1.4,1.2,2.3C85.4,129.2,84.7,129.7,83.9,129.7z"/>
				<path class="st43" d="M53.6,140.7c-0.9,0-1.6-0.6-1.8-1.4c-0.6-2.5-3.1-4.1-5.6-3.5c-1.7,0.4-3.1,1.8-3.5,3.5
					c-0.2,1-1.2,1.6-2.2,1.4c-1-0.2-1.6-1.2-1.4-2.2c1-4.5,5.4-7.3,9.9-6.3c3.1,0.7,5.6,3.1,6.3,6.3c0.2,1-0.4,2-1.4,2.2
					C53.8,140.7,53.7,140.7,53.6,140.7L53.6,140.7z"/>
				<path class="st43" d="M82.1,140.7c-0.9,0-1.6-0.6-1.8-1.4c-0.6-2.5-3.1-4.1-5.6-3.5c-1.7,0.4-3.1,1.8-3.5,3.5
					c-0.2,1-1.2,1.6-2.2,1.4c-1-0.2-1.6-1.2-1.4-2.2c1-4.5,5.4-7.3,9.9-6.3c3.1,0.7,5.6,3.1,6.3,6.3c0.2,1-0.4,2-1.4,2.2
					C82.4,140.7,82.3,140.7,82.1,140.7L82.1,140.7z"/>
				<path class="st51" d="M72.3,159.1c1.1,0,2.1,0.9,2.1,2c0,0.1,0,0.2,0,0.3c-1.3,7.1-8.1,11.8-15.2,10.5c-5.3-1-9.5-5.1-10.5-10.5
					c-0.2-1.1,0.6-2.2,1.7-2.3c0.1,0,0.2,0,0.3,0L72.3,159.1z"/>
				<path class="st45" d="M64,166.9c-2.9,0.9-5,2.9-5.1,4.9c4.4,0.9,9-0.5,12.1-3.7C69.7,166.6,66.9,166,64,166.9z"/>
				<path class="st46" d="M72.3,159H50.8c-1.1,0-2,0.9-2.1,2c0,0.1,0,0.2,0,0.3c0.1,0.7,0.3,1.5,0.6,2.2h24.4
					c0.3-0.7,0.5-1.4,0.6-2.2c0.2-1.1-0.6-2.1-1.7-2.3C72.6,159,72.4,159,72.3,159z"/>
				<path class="st35" d="M18.2,275.7c-0.8-0.1-1.6-0.4-2.1-1l-5.9-5.6c-1.4-1.3-1.5-3.6-0.2-5.1s3.6-1.5,5.1-0.2c0,0,0,0,0.1,0.1
					l5.9,5.6c1.4,1.4,1.5,3.6,0.1,5.1C20.4,275.4,19.3,275.8,18.2,275.7L18.2,275.7z"/>
				<path class="st35" d="M3.3,285.4c-0.1,0-0.2,0-0.3,0c-4.9-0.6-8.4-5.1-7.8-10c0,0,0,0,0,0c10-78.9,44.2-82.7,48-82.9l0.8,17.9
					c0.1,0,0.2,0,0.4,0c-0.2,0-23.4,3.9-31.4,67.3C12.4,282.4,8.1,285.8,3.3,285.4z"/>
				<path class="st49" d="M12.4,207.7l19.9-18.9c6.2-5.9,16-5.7,21.9,0.6l0,0l0,0c5.9,6.2,5.7,16-0.6,21.9h0l-19.9,18.9
					c-1,0.9-2.5,0.9-3.4-0.1l-18.1-19C11.4,210.2,11.4,208.6,12.4,207.7L12.4,207.7z"/>
				<path class="st35" d="M143.8,123.4c0.1,0,0.2,0.1,0.3,0.1c4.6,1.7,7,6.8,5.4,11.5c-27.1,74.7-61.3,70.9-65.1,70.3l3.1-17.6
					c-0.1,0-0.2,0-0.4-0.1c0.2,0,23.7,1.3,45.5-58.7C134.3,124.3,139.2,121.9,143.8,123.4z"/>
				<path class="st49" d="M117.9,197.1l-23.6,14.1c-7.4,4.4-16.9,2-21.3-5.4c0,0,0,0,0,0l0,0c-4.4-7.4-2-16.9,5.4-21.3l0,0
					l23.6-14.1c1.1-0.7,2.6-0.3,3.3,0.8l13.5,22.6C119.4,195,119.1,196.5,117.9,197.1C117.9,197.1,117.9,197.1,117.9,197.1z"/>
				<path class="st35" d="M50.1,184.5H73c4.6,0,8.3,3.7,8.3,8.3l0,0c0,4.6-3.7,8.3-8.3,8.3H50.1c-4.6,0-8.3-3.7-8.3-8.3l0,0
					C41.8,188.2,45.5,184.5,50.1,184.5z"/>
				<path class="st41" d="M79,87.3l-59,22.9c0.1,0.4,0.2,0.8,0.3,1.2c3.4,10.4,19.8,14.3,36.6,8.7s27.6-18.5,24.2-28.8
					C80.7,89.8,80,88.5,79,87.3z"/>
				<path class="st41" d="M104,117.2L77.3,95.5c-0.2,0.1-0.3,0.3-0.5,0.5c-4,4.4-1.4,13.2,5.8,19.6c7.1,6.4,16.2,8,20.1,3.6
					C103.3,118.6,103.7,117.9,104,117.2z"/>
				<path class="st41" d="M19.7,123.4h5.6l0,0V156c0,1.6-1.3,2.8-2.8,2.8l0,0c-1.6,0-2.8-1.3-2.8-2.8L19.7,123.4L19.7,123.4z"/>
				<path class="st41" d="M97.7,123.4h6.6l0,0v32.1c0,1.8-1.5,3.3-3.3,3.3l0,0c-1.8,0-3.3-1.5-3.3-3.3
					C97.7,155.5,97.7,123.4,97.7,123.4z"/>
				<path class="st35" d="M127.3,131.3c0.7,0.3,1.4,0.9,1.7,1.6l3.9,7.2c1,1.7,0.4,3.9-1.4,4.9c-1.7,1-3.9,0.4-4.9-1.4
					c0,0,0,0,0-0.1l-3.9-7.2c-1-1.7-0.3-3.9,1.4-4.9C125.1,130.9,126.3,130.8,127.3,131.3L127.3,131.3z"/>
				<rect x="42.1" y="235.4" class="st52" width="39.9" height="5.5"/>
				<path class="st43" d="M68.8,152.1H55.3c-1.2,0-2.1-1-2-2.1c0-1.1,0.9-2,2-2h13.5c1.2,0,2.1,0.9,2.1,2
					C71,151.1,70.1,152.1,68.8,152.1C68.9,152.1,68.9,152.1,68.8,152.1z"/>
				<path class="st92" d="M34.5,183.7h17l0,0v112.4c0,3.2-2.6,5.8-5.8,5.8H34.5c-4.6,0-8.2-3.7-8.2-8.2V192
					C26.2,187.4,29.9,183.7,34.5,183.7C34.5,183.7,34.5,183.7,34.5,183.7z"/>
				<path class="st92" d="M88.7,302H77.5c-3.2,0-5.8-2.6-5.8-5.8c0,0,0,0,0,0V183.7l0,0h17c4.6,0,8.2,3.7,8.2,8.2v101.7
					C97,298.3,93.3,302,88.7,302L88.7,302z"/>
				<line class="st93" x1="41.9" y1="183.7" x2="41.9" y2="302"/>
				<line class="st93" x1="81.3" y1="183.7" x2="81.3" y2="302"/>
			</g>
		</g>
		<g>
			<defs>
				<path id="SVGID_15_" d="M721.3,201.4l-347.1,89.4c-9.2,2.4-14.8,11.8-12.3,21.1c0.7,2.8,2.1,5.3,4.1,7.4l222,237.1
					c8.6,9.2,20.6,14.4,33.2,14.4h104.6c9.5,0,17.3-7.7,17.3-17.3V218.1c0-9.5-7.7-17.3-17.3-17.3
					C724.2,200.8,722.7,201,721.3,201.4z"/>
			</defs>
			<clipPath id="SVGID_16_">
				<use xlink:href="#SVGID_15_"  style="overflow:visible;"/>
			</clipPath>
			<g class="st94">
				<circle class="st2" cx="488" cy="350.8" r="45"/>
				<circle class="st95" cx="497.1" cy="344.7" r="45"/>
				
					<ellipse transform="matrix(0.1602 -0.9871 0.9871 0.1602 77.1824 780.1769)" class="st11" cx="497.1" cy="344.7" rx="35" ry="35"/>
				<path class="st96" d="M494.8,327.3L494.8,327.3c2.2,0,3.9,1.8,3.9,3.9v17.9c0,2.2-1.8,3.9-3.9,3.9h0c-2.2,0-3.9-1.8-3.9-3.9
					v-17.9C490.9,329.1,492.7,327.3,494.8,327.3z"/>
				<path class="st96" d="M490.9,349.2L490.9,349.2c0-2.2,1.8-3.9,3.9-3.9h17.9c2.2,0,3.9,1.8,3.9,3.9v0c0,2.2-1.8,3.9-3.9,3.9
					h-17.9C492.7,353.1,490.9,351.3,490.9,349.2z"/>
				<rect x="612.8" y="471.3" class="st97" width="74.2" height="122.5"/>
				<path class="st98" d="M613,495.6v-4.2c10,0,18-8.1,18-18h4.2C635.2,485.6,625.2,495.6,613,495.6z"/>
				<path class="st98" d="M687,495.6c-12.3,0-22.2-10-22.2-22.2h4.2c0,10,8.1,18,18,18L687,495.6z"/>
				<rect x="647.9" y="499.8" class="st98" width="4.2" height="94"/>
				<rect x="642.8" y="495" class="st98" width="14.4" height="4.2"/>
				<path class="st99" d="M663.6,259c-12.9-1.7-25.4,5.1-31.1,16.7h-4.2c-8.6,0-15.6,7-15.6,15.6c0,0,0,0,0,0v10.7h19.7
					c7.2,15.1,25.3,21.5,40.4,14.3c15.1-7.2,21.5-25.3,14.3-40.4C682.6,266.7,673.8,260.3,663.6,259L663.6,259z"/>
				<path class="st14" d="M526.2,452.2c0,0.1,0.1,0.2,0.1,0.4c1.5,5.8,7.5,9.2,13.2,7.6c92.5-24.8,91.5-66.2,91.1-70.8l-21.5,1.9
					c0-0.1,0-0.3,0-0.4c0,0.3-0.8,28.5-75.2,48.5C528.4,440.9,524.9,446.5,526.2,452.2z"/>
				<path class="st36" d="M627.8,374.8h44.1c9.9,0,18,8.1,18,18l0,0v77.7c0,1.6-1.3,2.9-2.9,2.9h-74.4c-1.6,0-2.9-1.3-2.9-2.9v-77.7
					C609.8,382.9,617.8,374.8,627.8,374.8z"/>
				<path class="st36" d="M588.7,406l21.8-24.9c6.8-7.8,18.6-8.6,26.4-1.8l0,0c7.8,6.8,8.6,18.6,1.8,26.4l0,0l-21.8,24.9
					c-1,1.2-2.9,1.3-4.1,0.3L589,410.1C587.8,409.1,587.6,407.2,588.7,406z"/>
				<path class="st36" d="M683.1,430.7l-21.8-24.9c-6.8-7.8-6-19.6,1.8-26.4l0,0c7.8-6.8,19.6-6,26.4,1.8l0,0l21.8,24.9
					c1,1.2,0.9,3-0.3,4.1l-23.8,20.8C686,432,684.2,431.9,683.1,430.7z"/>
				<path class="st69" d="M641.1,367.6h18.7l0,0v15c0,5.2-4.2,9.3-9.3,9.3l0,0c-5.2,0-9.3-4.2-9.3-9.3V367.6L641.1,367.6z"/>
				<path class="st33" d="M639,370.9l-7.8,20.9c-0.6,1.5,0.2,3.1,1.7,3.7c0.5,0.2,1.1,0.2,1.6,0.1l15.9-3.5L639,370.9z"/>
				<path class="st33" d="M661.9,370.9l7.6,20.9c0.5,1.5-0.2,3.1-1.7,3.7c-0.5,0.2-1.1,0.2-1.6,0.1l-16-3.6L661.9,370.9z"/>
				<circle class="st14" cx="689.5" cy="329.6" r="12.1"/>
				<circle class="st14" cx="612.7" cy="329.6" r="12.1"/>
				<circle class="st37" cx="650.6" cy="405.7" r="3.3"/>
				<circle class="st37" cx="650.6" cy="421.7" r="3.3"/>
				<circle class="st37" cx="650.6" cy="405.7" r="3.3"/>
				<path class="st14" d="M613.2,300.3v42.3c0,20.6,16.7,37.3,37.3,37.3l0,0l0,0c20.6,0,37.3-16.7,37.3-37.3c0,0,0,0,0,0v-42.3
					H613.2z"/>
				<circle class="st41" cx="631.7" cy="326.1" r="3.8"/>
				<circle class="st41" cx="668" cy="326.1" r="3.8"/>
				<path class="st99" d="M626,319.3c-1,0-1.8-0.8-1.8-1.8c0-0.2,0-0.4,0.1-0.6c1.7-4.7,7-7.1,11.6-5.4c0,0,0,0,0,0
					c0.9,0.4,1.4,1.4,1.1,2.4c-0.4,0.9-1.4,1.4-2.4,1.1l0,0c-2.8-1-5.9,0.4-6.9,3.2c0,0,0,0,0,0C627.5,318.8,626.8,319.3,626,319.3z
					"/>
				<path class="st99" d="M674.8,319.3c-0.8,0-1.5-0.5-1.7-1.2c-1-2.8-4.1-4.2-6.9-3.2c-0.9,0.4-2-0.1-2.4-1.1
					c-0.4-0.9,0.1-2,1.1-2.4l0,0c4.7-1.7,9.9,0.7,11.7,5.4c0.4,0.9-0.1,2-1.1,2.4C675.3,319.3,675,319.3,674.8,319.3L674.8,319.3z"
					/>
				<path class="st99" d="M670.9,344.2L670.9,344.2c0-1.4-1.1-2.5-2.5-2.5c0,0,0,0,0,0h-34.8c-1.4,0-2.5,1.1-2.5,2.5c0,0,0,0,0,0
					l0,0c0,1.4-1.1,2.5-2.5,2.5c0,0,0,0,0,0h-15.9v2c0.1,20.7,16.9,37.3,37.6,37.2c0,0,0,0,0,0l0,0c20.7,0.1,37.5-16.6,37.6-37.2v-2
					h-14.5C672,346.7,670.9,345.5,670.9,344.2C670.9,344.2,670.9,344.2,670.9,344.2z"/>
				<path class="st44" d="M639.9,350h24.3l0,0v5.8c0,5.8-4.7,10.5-10.5,10.5h-10.5c-1.8,0-3.3-1.5-3.3-3.3L639.9,350L639.9,350z"/>
				<rect x="639.4" y="349.8" class="st46" width="25.3" height="6.3"/>
				<path class="st45" d="M662.9,361c-2.6-2.7-7-2.8-9.7-0.2c-1.3,1.3-2.1,3.1-2.1,4.9c0,0.2,0,0.3,0,0.5h2.7
					C657.5,366.3,661,364.3,662.9,361z"/>
				<path class="st72" d="M655.4,339.2h-8.6c-1.1,0-2-1-2-2.1c0-1.1,0.9-2,2-2h8.6c1.1,0,2,0.9,2.1,2
					C657.5,338.2,656.6,339.1,655.4,339.2C655.4,339.2,655.4,339.2,655.4,339.2z"/>
				<rect x="612.7" y="296.1" class="st99" width="6.2" height="53.8"/>
				<rect x="681.7" y="296.1" class="st99" width="6.2" height="53.8"/>
				<path class="st14" d="M538.3,431.6c0.2,0.9,0.7,1.8,1.5,2.4l7.7,6.1c1.8,1.5,4.6,1.2,6.1-0.6c1.5-1.8,1.2-4.6-0.6-6.1
					c0,0-0.1,0-0.1-0.1l-7.7-6.1c-1.9-1.5-4.6-1.2-6.1,0.7C538.3,429,538,430.3,538.3,431.6L538.3,431.6z"/>
				<line class="st100" x1="704.7" y1="449.9" x2="683.6" y2="418"/>
				<path class="st69" d="M664.7,403.6l13.3-8.8c2.7-1.8,6.3-1,8,1.7l8.8,13.3c1.8,2.7,1,6.3-1.7,8l-13.3,8.8c-2.7,1.8-6.3,1-8-1.7
					l-8.8-13.3C661.3,409,662.1,405.4,664.7,403.6z"/>
				<line class="st101" x1="672" y1="408.7" x2="662.9" y2="395"/>
				<line class="st100" x1="704.7" y1="449.9" x2="683.6" y2="418"/>
				<line class="st101" x1="672" y1="408.7" x2="662.9" y2="395"/>
				<path class="st36" d="M690.7,425.6L690.7,425.6c0.4-0.3,1-0.2,1.3,0.3l4.4,6.7c0.3,0.4,0.2,1-0.3,1.3l0,0
					c-0.4,0.3-1,0.2-1.3-0.3l-4.4-6.7C690.1,426.5,690.2,425.9,690.7,425.6z"/>
				<path class="st36" d="M684,427.1l10.7-7.1l0,0l2.6,3.9c0.6,0.9,0.3,2-0.5,2.6l-7.6,5c-0.9,0.6-2,0.3-2.6-0.5L684,427.1
					L684,427.1z"/>
				<circle class="st102" cx="663.7" cy="384.6" r="16.1"/>
				<path class="st103" d="M674.1,376.9c-1-1.5-2.3-2.7-3.8-3.7"/>
				<path class="st103" d="M665.3,371.5c-2.8-0.3-5.7,0.4-8.1,1.9"/>
				<path class="st104" d="M664.2,400.6l13.9-9.2l0,0l18.8,28.5c0.4,0.6,0.2,1.5-0.4,1.9l0,0l-11.7,7.7c-0.6,0.4-1.5,0.2-1.9-0.4
					c0,0,0,0,0,0L664.2,400.6L664.2,400.6z"/>
				<line class="st105" x1="686.1" y1="395.6" x2="672.4" y2="404.6"/>
				<line class="st105" x1="691.6" y1="404" x2="677.9" y2="413"/>
				<line class="st105" x1="697.1" y1="412.4" x2="683.4" y2="421.4"/>
			</g>
		</g>
	</g>
</g>
</svg>
