<svg id="Layer_1" data-name="Layer 1" xmlns="http://www.w3.org/2000/svg" viewBox="0 0 80 80">
  <title>Artboard 1</title>
  <g>
    <path d="M10.3,53.6v1.04a9.726,9.726,0,0,0,3.9,7.782h51.61a9.726,9.726,0,0,0,3.9-7.782V53.6H10.3Z" fill="#fff"/>
    <path d="M41.018,27.379H69.7V25.356a9.718,9.718,0,0,0-2.509-6.513H41.018Z" fill="#fff"/>
    <rect x="41.018" y="36.141" width="28.683" height="8.7" fill="#fff"/>
    <rect x="41.018" y="44.842" width="28.683" height="8.763" fill="#d71f2a"/>
    <rect x="41.018" y="27.379" width="28.683" height="8.763" fill="#d71f2a"/>
    <path d="M41.018,18.843H67.192a9.709,9.709,0,0,0-4.3-2.771L44.843,10.705a17.007,17.007,0,0,0-3.287-.625h-.538Z" fill="#d71f2a"/>
    <path d="M41.018,44.842V10.08H38.445a16.992,16.992,0,0,0-3.287.625L22.511,14.466l.425,1.169h3.65l-3.042,2.13.913,3.346-2.738-2.129-2.738,2.129.913-3.346L17.55,15.942l-.438.13a9.733,9.733,0,0,0-6.289,6.14l1.168,3.212h3.042L12.3,27.553,13.512,30.9,10.47,28.77,10.3,28.9v3.38l.171-.471,1.217,3.347h3.651l-3.347,2.129,1.217,3.346L10.3,38.6v3.315l1.084,2.981h3.65l-3.042,2.129.913,3.346L10.3,48.343V53.6H41.018Zm-4.392-4.208-3.043-2.129-2.738,2.129,1.217-3.346L29.02,35.159h3.651l1.217-3.347L35.1,35.159h3.043l-2.738,2.129Zm0-9.735L33.583,28.77,30.845,30.9l1.217-3.346L29.02,25.424h3.651l1.217-3.347L35.1,25.424h3.043l-2.738,2.129ZM29.02,15.635h3.651l.912-3.346L34.8,15.635h3.347l-2.738,2.13,1.217,3.346-3.043-2.129-2.738,2.129,1.217-3.346ZM17.46,25.424h3.65l1.217-3.347,1.217,3.347h3.042l-2.738,2.129L25.065,30.9,22.023,28.77,19.285,30.9,20.5,27.553Zm-.3,9.735h3.65l1.217-3.347,1.217,3.347h3.651l-3.347,2.129,1.217,3.346-3.042-2.129-2.738,2.129.913-3.346Zm7.3,15.21L21.719,48.24l-2.738,2.129.913-3.346-2.738-2.129h3.65l.913-3.347,1.217,3.347h3.65l-3.042,2.129Zm12.169,0L33.583,48.24l-2.738,2.129,1.217-3.346L29.02,44.894h3.651l.912-3.347L34.8,44.894h3.347l-2.738,2.129Z" fill="#1f56a6"/>
    <polygon points="21.003 14.915 18.58 15.635 20.806 15.635 21.003 14.915" fill="#1f56a6"/>
    <polygon points="11.991 37.288 15.338 35.159 11.687 35.159 10.47 31.812 10.299 32.283 10.299 38.598 13.208 40.634 11.991 37.288" fill="#fff"/>
    <polygon points="38.147 25.424 35.104 25.424 33.888 22.077 32.671 25.424 29.02 25.424 32.062 27.553 30.845 30.899 33.583 28.77 36.626 30.899 35.409 27.553 38.147 25.424" fill="#fff"/>
    <polygon points="18.981 40.634 21.719 38.505 24.761 40.634 23.544 37.288 26.891 35.159 23.24 35.159 22.023 31.812 20.806 35.159 17.156 35.159 19.894 37.288 18.981 40.634" fill="#fff"/>
    <polygon points="11.991 47.023 15.033 44.894 11.383 44.894 10.299 41.913 10.299 48.343 12.904 50.369 11.991 47.023" fill="#fff"/>
    <polygon points="34.8 44.894 33.583 41.547 32.671 44.894 29.02 44.894 32.062 47.023 30.845 50.369 33.583 48.24 36.626 50.369 35.409 47.023 38.147 44.894 34.8 44.894" fill="#fff"/>
    <polygon points="22.936 44.894 21.719 41.547 20.806 44.894 17.156 44.894 19.894 47.023 18.981 50.369 21.719 48.24 24.457 50.369 23.544 47.023 26.586 44.894 22.936 44.894" fill="#fff"/>
    <polygon points="38.147 35.159 35.104 35.159 33.888 31.812 32.671 35.159 29.02 35.159 32.062 37.288 30.845 40.634 33.583 38.505 36.626 40.634 35.409 37.288 38.147 35.159" fill="#fff"/>
    <path d="M13.512,30.9,12.3,27.553l2.738-2.129H11.991l-1.168-3.212a9.722,9.722,0,0,0-.524,3.144V28.9l.171-.133Z" fill="#fff"/>
    <polygon points="19.285 30.899 22.023 28.77 25.065 30.899 23.848 27.553 26.586 25.424 23.544 25.424 22.327 22.077 21.11 25.424 17.46 25.424 20.502 27.553 19.285 30.899" fill="#fff"/>
    <polygon points="30.845 21.111 33.583 18.982 36.626 21.111 35.409 17.765 38.147 15.635 34.8 15.635 33.583 12.289 32.671 15.635 29.02 15.635 32.062 17.765 30.845 21.111" fill="#fff"/>
    <polygon points="18.981 21.111 21.719 18.982 24.457 21.111 23.544 17.765 26.586 15.635 22.936 15.635 22.511 14.466 21.003 14.915 20.806 15.635 18.58 15.635 17.55 15.942 19.894 17.765 18.981 21.111" fill="#fff"/>
    <path d="M17.112,63.929,35.158,69.3a16.984,16.984,0,0,0,9.685,0l18.045-5.366a9.724,9.724,0,0,0,2.917-1.5H14.2A9.724,9.724,0,0,0,17.112,63.929Z" fill="#d71f2a"/>
  </g>
  <g id="SVGID">
    <path d="M40,10a16.982,16.982,0,0,1,4.843.705l18.044,5.367A9.732,9.732,0,0,1,69.7,25.356V54.644a9.734,9.734,0,0,1-6.813,9.285L44.843,69.3a16.984,16.984,0,0,1-9.685,0L17.112,63.929A9.734,9.734,0,0,1,10.3,54.644V25.356a9.733,9.733,0,0,1,6.813-9.284l18.046-5.367A16.981,16.981,0,0,1,40,10m0-5a21.982,21.982,0,0,0-6.267.912L15.687,11.279l-.037.011-.038.012A14.674,14.674,0,0,0,5.3,25.356V54.644A14.675,14.675,0,0,0,15.612,68.7l.038.011.037.011,18.045,5.367a22,22,0,0,0,12.536,0l18.045-5.367.037-.011.038-.011A14.674,14.674,0,0,0,74.7,54.645V25.356A14.675,14.675,0,0,0,64.387,11.3l-.037-.012-.038-.011L46.268,5.912A21.984,21.984,0,0,0,40,5Z" fill="#fff"/>
  </g>
</svg>
